<?xml version="1.0" encoding="UTF-8" standalone="no"?>
<!-- Created with Inkscape (http://www.inkscape.org/) -->

<svg
   xmlns:dc="http://purl.org/dc/elements/1.1/"
   xmlns:cc="http://creativecommons.org/ns#"
   xmlns:rdf="http://www.w3.org/1999/02/22-rdf-syntax-ns#"
   xmlns:svg="http://www.w3.org/2000/svg"
   xmlns="http://www.w3.org/2000/svg"
   xmlns:sodipodi="http://sodipodi.sourceforge.net/DTD/sodipodi-0.dtd"
   xmlns:inkscape="http://www.inkscape.org/namespaces/inkscape"
   version="1.1"
   id="svg22"
   width="54.875889mm"
   height="61.925098mm"
   viewBox="0 0 207.40494 234.04762"
   sodipodi:docname="hermetica-alum.svg"
   inkscape:version="0.92.5 (2060ec1f9f, 2020-04-08)">
  <metadata
     id="metadata28">
    <rdf:RDF>
      <cc:Work
         rdf:about="">
        <dc:format>image/svg+xml</dc:format>
        <dc:type
           rdf:resource="http://purl.org/dc/dcmitype/StillImage" />
        <dc:title></dc:title>
      </cc:Work>
    </rdf:RDF>
  </metadata>
  <defs
     id="defs26" />
  <sodipodi:namedview
     pagecolor="#ffffff"
     bordercolor="#666666"
     borderopacity="1"
     objecttolerance="10"
     gridtolerance="10"
     guidetolerance="10"
     inkscape:pageopacity="0"
     inkscape:pageshadow="2"
     inkscape:window-width="1920"
     inkscape:window-height="997"
     id="namedview24"
     showgrid="false"
     units="mm"
     fit-margin-top="0"
     fit-margin-left="0"
     fit-margin-right="0"
     fit-margin-bottom="0"
     inkscape:zoom="0.88059701"
     inkscape:cx="103.85"
     inkscape:cy="117.47913"
     inkscape:window-x="0"
     inkscape:window-y="28"
     inkscape:window-maximized="1"
     inkscape:current-layer="svg22" />
  <path
     style="fill:#ff0000;fill-opacity:0.01829266;stroke:#ff0000;stroke-width:0.56779659;stroke-miterlimit:4;stroke-dasharray:none;stroke-opacity:1"
     d="m 66.716102,221.55549 v -12.20904 l 11.355928,-0.5678 11.35594,-0.5678 0.2988,-38.89406 0.29881,-38.89407 H 65.02762 40.029661 V 80.609765 c 0,-48.674918 -0.05377,-49.881316 -2.353608,-52.805085 -1.531504,-1.946992 -3.453314,-2.992128 -5.501964,-2.992128 -3.151172,0 -6.90714,2.981811 -6.90714,5.483485 0,0.93576 -3.703245,1.330074 -12.491525,1.330074 H 0.28389829 v -2.796943 c 0,-4.58929 4.44676001,-14.53781 8.31235501,-18.596829 C 14.989066,3.5196458 22.346069,0.45514379 32.080508,0.45015679 c 13.63748,-0.007 23.275691,5.95573501 30.201729,18.68442921 1.979258,3.637486 2.210834,7.441781 2.730475,44.855932 l 0.567796,40.881352 H 77.50424 89.42797 l 0.29985,-36.055081 0.29985,-36.055085 h 12.45962 12.45962 l 0.29985,36.055085 0.29985,36.055081 h 12.49153 12.49152 l 0.5678,-40.313555 0.56779,-40.31356 3.02149,-5.677966 c 3.61034,-6.784564 8.77012,-11.8622192 15.7158,-15.4656702 7.24028,-3.75629401 20.01396,-3.75629401 27.25424,0 9.82288,5.096155 16.80108,14.1837092 18.6339,24.2665182 l 0.7741,4.258474 H 193.954 c -10.22551,0 -13.11078,-0.33613 -13.11078,-1.527386 0,-2.37345 -3.85096,-5.286173 -6.98893,-5.286173 -1.55953,0 -3.94662,1.182724 -5.30465,2.628275 -2.45821,2.616645 -2.46913,2.850307 -2.46913,52.805084 v 50.176809 h -25.55085 -25.55085 v 39.17796 39.17797 h 11.63983 11.63983 v 12.49152 12.49153 l -35.77118,0.001 -35.771188,0.001 v -12.20905 z"
     id="path5367"
     inkscape:connector-curvature="0" />
</svg>
