<?xml version="1.0" encoding="UTF-8" standalone="no"?>
<!-- Created with Inkscape (http://www.inkscape.org/) -->

<svg
   xmlns:dc="http://purl.org/dc/elements/1.1/"
   xmlns:cc="http://creativecommons.org/ns#"
   xmlns:rdf="http://www.w3.org/1999/02/22-rdf-syntax-ns#"
   xmlns:svg="http://www.w3.org/2000/svg"
   xmlns="http://www.w3.org/2000/svg"
   xmlns:sodipodi="http://sodipodi.sourceforge.net/DTD/sodipodi-0.dtd"
   xmlns:inkscape="http://www.inkscape.org/namespaces/inkscape"
   version="1.1"
   id="svg22"
   width="66.002129mm"
   height="31.501974mm"
   viewBox="0 0 249.45687 119.06258"
   sodipodi:docname="esoterica-martina.svg"
   inkscape:version="0.92.5 (2060ec1f9f, 2020-04-08)">
  <metadata
     id="metadata28">
    <rdf:RDF>
      <cc:Work
         rdf:about="">
        <dc:format>image/svg+xml</dc:format>
        <dc:type
           rdf:resource="http://purl.org/dc/dcmitype/StillImage" />
        <dc:title></dc:title>
      </cc:Work>
    </rdf:RDF>
  </metadata>
  <defs
     id="defs26" />
  <sodipodi:namedview
     pagecolor="#ffffff"
     bordercolor="#666666"
     borderopacity="1"
     objecttolerance="10"
     gridtolerance="10"
     guidetolerance="10"
     inkscape:pageopacity="0"
     inkscape:pageshadow="2"
     inkscape:window-width="1920"
     inkscape:window-height="997"
     id="namedview24"
     showgrid="false"
     units="mm"
     fit-margin-top="0"
     fit-margin-left="0"
     fit-margin-right="0"
     fit-margin-bottom="0"
     inkscape:zoom="0.88059701"
     inkscape:cx="124.95556"
     inkscape:cy="59.687478"
     inkscape:window-x="0"
     inkscape:window-y="28"
     inkscape:window-maximized="1"
     inkscape:current-layer="svg22" />
  <path
     style="fill:#000000;fill-opacity:0;stroke:#ff0000;stroke-width:0.56779659;stroke-miterlimit:4;stroke-dasharray:none;stroke-opacity:1"
     d="M 15.133101,103.87975 0.40126988,89.115137 21.110773,68.405637 41.820275,47.696137 59.15632,65.005117 c 9.534824,9.51993 17.763001,17.30897 18.284839,17.30897 0.963366,0 29.117791,-27.7772 29.117791,-28.72766 0,-0.28476 -3.96038,-4.3955 -8.800852,-9.13498 l -8.800845,-8.61722 -2.673066,2.65915 c -2.518088,2.50497 -2.568516,2.8187 -0.869779,5.4113 0.991806,1.51369 3.344474,3.89162 5.22815,5.28428 1.88368,1.39266 3.42486,3.16837 3.42486,3.94603 0,0.77765 -3.779411,5.1681 -8.398698,9.75656 L 77.270019,71.234197 62.429567,56.565387 47.589116,41.896577 68.285892,21.222486 88.982669,0.54839054 105.98966,17.583783 c 9.35385,9.369464 17.64804,17.035394 18.43155,17.035394 0.78349,0 9.18265,-7.69918 18.6648,-17.109279 l 17.24027,-17.10927846 20.61166,20.58907346 20.61166,20.589074 -14.77951,14.73183 -14.77951,14.73184 -8.86384,-8.81186 -8.86384,-8.81185 5.92501,-5.99953 5.925,-5.99953 -2.83286,-2.83287 -2.83288,-2.83286 -9.03666,9.08998 -9.03668,9.08998 14.15603,14.1901 c 7.78582,7.80455 14.66871,14.19009 15.29535,14.19009 0.62662,0 8.94053,-7.78904 18.47535,-17.30897 l 17.33604,-17.30898 20.70951,20.7095 20.7095,20.7095 -14.74007,14.772863 -14.74007,14.77287 -8.87345,-8.87345 -8.87343,-8.87344 5.89777,-5.991543 5.89778,-5.99154 -3.00935,-3.00935 -3.00935,-3.00934 -17.86773,17.867733 -17.86774,17.86774 -23.57076,-23.550723 -23.57077,-23.55072 -23.57076,23.55072 -23.570771,23.550723 -17.867736,-17.86774 -17.867736,-17.867733 -3.101192,3.10119 -3.101191,3.10119 5.925004,5.99953 5.925005,5.999533 -8.817066,8.76535 -8.817065,8.76535 z"
     id="path5367"
     inkscape:connector-curvature="0" />
</svg>
