<?xml version="1.0" encoding="UTF-8" standalone="no"?>
<!-- Created with Inkscape (http://www.inkscape.org/) -->

<svg
   xmlns:dc="http://purl.org/dc/elements/1.1/"
   xmlns:cc="http://creativecommons.org/ns#"
   xmlns:rdf="http://www.w3.org/1999/02/22-rdf-syntax-ns#"
   xmlns:svg="http://www.w3.org/2000/svg"
   xmlns="http://www.w3.org/2000/svg"
   xmlns:sodipodi="http://sodipodi.sourceforge.net/DTD/sodipodi-0.dtd"
   xmlns:inkscape="http://www.inkscape.org/namespaces/inkscape"
   version="1.1"
   id="svg22"
   width="63.008701mm"
   height="54.842026mm"
   viewBox="0 0 238.14312 207.27695"
   sodipodi:docname="hermetica-blood.svg"
   inkscape:version="0.92.5 (2060ec1f9f, 2020-04-08)">
  <metadata
     id="metadata28">
    <rdf:RDF>
      <cc:Work
         rdf:about="">
        <dc:format>image/svg+xml</dc:format>
        <dc:type
           rdf:resource="http://purl.org/dc/dcmitype/StillImage" />
        <dc:title></dc:title>
      </cc:Work>
    </rdf:RDF>
  </metadata>
  <defs
     id="defs26" />
  <sodipodi:namedview
     pagecolor="#ffffff"
     bordercolor="#666666"
     borderopacity="1"
     objecttolerance="10"
     gridtolerance="10"
     guidetolerance="10"
     inkscape:pageopacity="0"
     inkscape:pageshadow="2"
     inkscape:window-width="1920"
     inkscape:window-height="997"
     id="namedview24"
     showgrid="false"
     units="mm"
     fit-margin-top="0"
     fit-margin-left="0"
     fit-margin-right="0"
     fit-margin-bottom="0"
     inkscape:zoom="0.88059701"
     inkscape:cx="118.84945"
     inkscape:cy="103.88172"
     inkscape:window-x="0"
     inkscape:window-y="28"
     inkscape:window-maximized="1"
     inkscape:current-layer="svg22" />
  <path
     style="fill:#ff0000;fill-opacity:0.01829266;stroke:#ff0000;stroke-width:0.56779659;stroke-miterlimit:4;stroke-dasharray:none;stroke-opacity:1"
     d="M 0.46273519,0.28389829 2.3377352,3.9733513 c 1.031179,2.029872 3.531731,6.5023307 5.558594,9.9374997 3.1631648,5.360997 17.4027298,30.025366 21.3066408,36.90625 0.708715,1.249152 3.669579,6.358859 6.580078,11.355469 11.752319,20.175836 16.974609,29.302296 16.974609,29.666016 0,0.21054 1.788592,3.18036 3.974609,6.59766 2.186018,3.417294 3.97461,6.565154 3.97461,6.996094 0,0.43094 2.044664,4.02077 4.542969,7.97656 2.498305,3.95579 4.541015,7.45016 4.541015,7.76563 0,0.31546 1.788593,3.36981 3.97461,6.78711 2.186017,3.41729 3.974609,6.4192 3.974609,6.67187 0,0.25266 2.642546,5.00393 5.871094,10.5586 3.228551,5.55467 7.699061,13.2988 9.935551,17.20898 2.2365,3.91017 8.884656,15.48006 14.773426,25.71094 l 10.70703,18.60156 4.12305,-6.97266 c 9.18149,-15.52773 14.22414,-24.18238 15.97266,-27.41601 1.01318,-1.87373 3.79002,-6.72736 6.17187,-10.78711 2.38185,-4.05974 6.2113,-10.70392 8.50977,-14.76367 2.29848,-4.05974 7.07631,-12.36351 10.61719,-18.45313 3.54088,-6.08962 9.33412,-16.05491 12.875,-22.14453 3.54088,-6.08962 8.32038,-14.393384 10.62109,-18.453134 4.51213,-7.96189 14.12908,-24.481937 15.86523,-27.253901 1.08039,-1.724954 10.55299,-18.282612 18.19141,-31.796875 2.29462,-4.059746 6.80844,-11.891949 10.0293,-17.40625 3.22086,-5.5143007 5.85547,-10.2408757 5.85547,-10.50390571 0,-0.26303 -53.41497,-0.478516 -118.69922,-0.478516 z M 119.75765,25.26632 c 41.22204,0 74.94922,0.305395 74.94922,0.679687 0,0.374291 -1.73773,3.568346 -3.86133,7.097657 -3.41892,5.682083 -10.86315,18.50872 -24.48632,42.189452 -2.33552,4.05974 -8.24969,14.1521 -13.14454,22.42773 l -8.90039,15.046884 H 119.02523 93.734224 l -2.77149,-4.82617 c -1.52494,-2.65445 -5.73075,-9.937844 -9.345702,-16.183604 -3.614944,-6.24576 -8.306839,-14.4205 -10.425781,-18.16796 -4.173306,-7.380712 -8.508953,-14.913469 -19.376953,-33.656254 -3.852539,-6.644028 -7.00586,-12.649007 -7.00586,-13.34375 0,-0.914405 20.693758,-1.263672 74.949212,-1.263672 z m -1.27539,31.796875 c -6.48618,0 -11.21679,4.783497 -11.21679,11.34375 0,5.782441 1.39934,8.548421 5.42382,10.732421 4.01437,2.1785 8.62472,2.20001 12.76954,0.0566 4.09678,-2.11853 5.65429,-4.89801 5.65429,-10.08203 0,-8.319042 -3.91112,-12.050781 -12.63086,-12.050781 z m 0.70703,80.626955 c 6.70489,0 9.6543,0.41295 9.6543,1.35156 0,0.74316 -2.10387,4.83055 -4.67383,9.08399 -2.56996,4.25343 -4.84819,7.73437 -5.0625,7.73437 -0.2143,0 -1.76307,-2.42779 -3.44336,-5.39453 -1.68031,-2.96674 -3.74746,-6.52488 -4.59179,-7.9082 -2.702,-4.42684 -1.96927,-4.86719 8.11718,-4.86719 z"
     id="path5371"
     inkscape:connector-curvature="0" />
</svg>
