<?xml version="1.0" encoding="UTF-8" standalone="no"?>
<!-- Created with Inkscape (http://www.inkscape.org/) -->

<svg
   xmlns:dc="http://purl.org/dc/elements/1.1/"
   xmlns:cc="http://creativecommons.org/ns#"
   xmlns:rdf="http://www.w3.org/1999/02/22-rdf-syntax-ns#"
   xmlns:svg="http://www.w3.org/2000/svg"
   xmlns="http://www.w3.org/2000/svg"
   xmlns:sodipodi="http://sodipodi.sourceforge.net/DTD/sodipodi-0.dtd"
   xmlns:inkscape="http://www.inkscape.org/namespaces/inkscape"
   version="1.1"
   id="svg32"
   width="67.438316mm"
   height="61.744335mm"
   viewBox="0 0 254.88498 233.36442"
   sodipodi:docname="esoterica-ha.svg"
   inkscape:version="0.92.5 (2060ec1f9f, 2020-04-08)">
  <metadata
     id="metadata38">
    <rdf:RDF>
      <cc:Work
         rdf:about="">
        <dc:format>image/svg+xml</dc:format>
        <dc:type
           rdf:resource="http://purl.org/dc/dcmitype/StillImage" />
        <dc:title></dc:title>
      </cc:Work>
    </rdf:RDF>
  </metadata>
  <defs
     id="defs36" />
  <sodipodi:namedview
     pagecolor="#ffffff"
     bordercolor="#666666"
     borderopacity="1"
     objecttolerance="10"
     gridtolerance="10"
     guidetolerance="10"
     inkscape:pageopacity="0"
     inkscape:pageshadow="2"
     inkscape:window-width="1920"
     inkscape:window-height="997"
     id="namedview34"
     showgrid="false"
     units="mm"
     fit-margin-top="0"
     fit-margin-left="0"
     fit-margin-right="0"
     fit-margin-bottom="0"
     inkscape:zoom="0.88059701"
     inkscape:cx="127.75203"
     inkscape:cy="116.34153"
     inkscape:window-x="0"
     inkscape:window-y="28"
     inkscape:window-maximized="1"
     inkscape:current-layer="svg32" />
  <path
     style="fill:#000000;fill-opacity:0;stroke:#ff0000;stroke-width:0.56779659;stroke-miterlimit:4;stroke-dasharray:none;stroke-opacity:1"
     d="m 82.097472,232.22881 c -0.0053,-1.23145 4.389463,-19.32237 8.123325,-33.43897 l 3.212794,-12.1466 -2.351324,-3.75171 c -3.328636,-5.31107 -9.822841,-16.38418 -13.52245,-23.05679 -11.19397,-20.18942 -10.414006,-19.22335 -16.186906,-20.04913 -6.599326,-0.944 -14.538513,-4.83037 -18.695989,-9.15202 -1.738267,-1.80691 -5.478977,-7.21255 -8.312687,-12.01254 -2.833711,-4.79999 -6.41083,-9.3765 -7.949153,-10.17004 -1.538323,-0.79353 -5.335503,-1.31021 -8.438176,-1.14817 -5.525865,0.28859 -5.690685,0.20173 -8.0598467,-4.24776 -1.330243,-2.4983 -4.018998,-7.390249 -5.975011,-10.870989 L 0.38566098,85.855471 9.7307093,80.522336 C 14.870486,77.589111 19.842283,74.70536 20.779148,74.113999 c 0.936864,-0.591361 6.813559,-3.976986 13.059322,-7.523611 6.245762,-3.546626 17.488135,-9.994054 24.983051,-14.327619 7.494915,-4.333564 14.03889,-7.964555 14.542166,-8.06887 0.503276,-0.104315 3.661799,4.549349 7.01894,10.341474 l 6.103893,10.531137 -2.685207,2.685206 c -4.287778,4.287779 -4.74801,9.882073 -1.338779,16.273365 7.641844,14.32619 9.111247,18.121819 9.596151,24.787919 0.389821,5.35896 -0.04718,8.16883 -1.96313,12.62257 l -2.464576,5.72905 10.97882,19.17404 c 12.268281,21.42602 12.664521,22.01303 14.859241,22.01303 1.30268,0 1.55924,-7.45553 1.5338,-44.57203 l -0.0305,-44.572033 -4.26984,-2.630457 c -4.83407,-2.978058 -9.62337,-9.950394 -11.453811,-16.674628 -0.68007,-2.498305 -1.23935,-8.938201 -1.24283,-14.310879 -0.005,-8.255249 -0.40529,-10.366249 -2.5817,-13.627118 -1.41645,-2.122238 -4.227044,-4.589606 -6.245762,-5.483042 l -3.670396,-1.62443 V 12.570486 0.28389829 h 42.584749 42.58474 V 12.775423 c 0,11.965788 -0.10118,12.491526 -2.40479,12.491526 -1.32262,0 -4.38872,1.983948 -6.81355,4.408774 -4.32107,4.321067 -4.40895,4.575215 -4.41735,12.775423 -0.0149,14.523397 -1.8396,22.37922 -6.52674,28.099257 -2.27451,2.775745 -5.56395,5.859152 -7.30985,6.852016 l -3.17437,1.805208 -0.007,44.572033 c -0.007,42.17355 0.10288,44.57203 2.03772,44.57203 1.25431,0 3.01699,-1.86592 4.55921,-4.82627 3.06669,-5.88658 5.76859,-10.62478 14.26493,-25.01573 l 6.55616,-11.10472 -2.35667,-4.86823 c -3.5109,-7.25257 -3.25362,-18.02553 0.6036,-25.274389 9.46473,-17.786972 9.78961,-18.592771 9.06134,-22.47476 -0.39419,-2.10118 -1.95457,-5.156016 -3.46753,-6.788527 -3.11473,-3.36084 -3.38757,-2.452776 4.87613,-16.228648 l 4.8782,-8.132127 7.02801,4.007128 c 3.8654,2.20392 9.83859,5.534577 13.27376,7.401457 3.43516,1.866881 6.75678,3.785343 7.38135,4.263248 1.02229,0.782216 20.78863,12.274386 38.61017,22.447978 3.74746,2.139271 7.00705,4.081951 7.24354,4.317051 0.2365,0.23511 -1.10087,2.87424 -2.9719,5.86472 -1.87105,2.99049 -4.58597,7.60907 -6.03317,10.263519 -2.611,4.78911 -2.68017,4.82627 -8.98303,4.82627 -7.24436,0 -10.50209,1.76057 -13.26059,7.16639 -4.07015,7.97633 -11.23114,17.56288 -14.9306,19.98794 -4.91843,3.22411 -12.06591,5.77787 -16.17112,5.77787 -3.49539,0 -2.8068,-0.95156 -16.4355,22.71187 -4.49647,7.8072 -9.33079,16.12142 -10.74291,18.47605 -3.109,5.18408 -2.80429,8.41047 2.75961,29.21886 2.08755,7.80721 4.12217,16.11123 4.52139,18.45339 l 0.72584,4.25848 h -45.47519 c -25.01135,0 -45.476853,-0.38327 -45.478894,-0.8517 z m 59.054558,-24.90855 c 0,-0.42745 -0.83898,-3.76729 -1.86439,-7.42184 l -1.8644,-6.64464 -10.27168,0.32438 -10.27169,0.32438 -1.46913,5.67797 c -2.33156,9.01108 -3.03439,8.51695 12.11417,8.51695 7.49492,0 13.62712,-0.34974 13.62712,-0.7772 z M 65.975758,113.6161 c 2.246079,-2.24608 1.609993,-4.62926 -3.742454,-14.021579 -2.807842,-4.92712 -5.419798,-10.63554 -5.804348,-12.68536 -0.384549,-2.04983 -1.034701,-3.72696 -1.444782,-3.72696 -0.583235,0 -8.169048,4.72755 -10.196927,6.35482 -0.223935,0.1797 1.635088,2.78376 4.131161,5.7868 2.496074,3.00304 5.430806,7.248639 6.521627,9.434649 4.67368,9.3661 7.582082,11.81127 10.535723,8.85763 z m 133.565962,-8.49494 c 3.18735,-5.10942 7.03504,-10.609619 8.55042,-12.222669 3.00186,-3.19533 2.86509,-3.47317 -3.61685,-7.34737 l -4.24455,-2.536935 -1.21748,3.206885 c -0.66961,1.76379 -3.48647,7.65083 -6.25969,13.08231 -5.40696,10.589769 -5.81138,12.180849 -3.64636,14.345869 2.53385,2.53385 4.57407,0.86639 10.43451,-8.52809 z M 130.58077,55.644067 c 0.50529,-0.78072 1.23135,-7.040678 1.61344,-13.911017 0.38209,-6.870338 1.07554,-13.385805 1.54099,-14.478813 0.74755,-1.755489 0.11174,-1.987288 -5.45133,-1.987288 h -6.29758 l 0.65081,14.478813 c 0.66756,14.851232 1.37399,17.317797 4.95984,17.317797 1.13581,0 2.47854,-0.638771 2.98383,-1.419492 z"
     id="path5371"
     inkscape:connector-curvature="0" />
</svg>
