<?xml version="1.0" encoding="UTF-8" standalone="no"?>
<!-- Created with Inkscape (http://www.inkscape.org/) -->

<svg
   xmlns:dc="http://purl.org/dc/elements/1.1/"
   xmlns:cc="http://creativecommons.org/ns#"
   xmlns:rdf="http://www.w3.org/1999/02/22-rdf-syntax-ns#"
   xmlns:svg="http://www.w3.org/2000/svg"
   xmlns="http://www.w3.org/2000/svg"
   xmlns:sodipodi="http://sodipodi.sourceforge.net/DTD/sodipodi-0.dtd"
   xmlns:inkscape="http://www.inkscape.org/namespaces/inkscape"
   version="1.1"
   id="svg72"
   width="59.046871mm"
   height="56.583172mm"
   viewBox="0 0 223.16928 213.85766"
   sodipodi:docname="esoterica-seba.svg"
   inkscape:version="0.92.5 (2060ec1f9f, 2020-04-08)">
  <metadata
     id="metadata78">
    <rdf:RDF>
      <cc:Work
         rdf:about="">
        <dc:format>image/svg+xml</dc:format>
        <dc:type
           rdf:resource="http://purl.org/dc/dcmitype/StillImage" />
        <dc:title></dc:title>
      </cc:Work>
    </rdf:RDF>
  </metadata>
  <defs
     id="defs76" />
  <sodipodi:namedview
     pagecolor="#ffffff"
     bordercolor="#666666"
     borderopacity="1"
     objecttolerance="10"
     gridtolerance="10"
     guidetolerance="10"
     inkscape:pageopacity="0"
     inkscape:pageshadow="2"
     inkscape:window-width="1920"
     inkscape:window-height="997"
     id="namedview74"
     showgrid="false"
     units="mm"
     fit-margin-top="0"
     fit-margin-left="0"
     fit-margin-right="0"
     fit-margin-bottom="0"
     inkscape:zoom="0.88059701"
     inkscape:cx="111.79492"
     inkscape:cy="107.12589"
     inkscape:window-x="0"
     inkscape:window-y="28"
     inkscape:window-maximized="1"
     inkscape:current-layer="svg72" />
  <path
     style="fill:#000000;fill-opacity:0;stroke:#ff0000;stroke-width:0.56779659;stroke-miterlimit:4;stroke-dasharray:none;stroke-opacity:1"
     d="m 46.838984,212.90552 c -3.436762,-1.25055 -7.939229,-6.5101 -8.603309,-10.04996 -0.820697,-4.37469 0.530729,-7.17979 8.997776,-18.67633 8.697138,-11.80896 13.131392,-17.92764 23.454764,-32.36441 4.912806,-6.87034 10.227401,-14.07594 11.810221,-16.01245 4.20939,-5.15001 5.29541,-8.67181 3.67626,-11.92156 -1.59002,-3.1913 -5.34837,-4.62708 -47.284865,-18.0639 -15.926695,-5.10305 -30.108589,-9.733889 -31.51532,-10.290749 -3.090457,-1.22338 -7.08474798,-7.449 -7.09060398,-11.05163 -0.0057,-3.5333 2.83476798,-8.78579 5.91991198,-10.94671 3.75459,-2.629813 8.025126,-2.194063 20.692075,2.11135 21.965312,7.46586 58.018232,19.14377 61.885872,20.04547 3.8957,0.90823 7.7016,-0.22511 9.42542,-2.80677 0.45887,-0.68722 0.84213,-19.27925 0.8517,-41.315625 0.0186,-42.9734712 0.33366,-45.6488832 5.828074,-49.4973162 5.4143,-3.792321 15.92345,-1.16451903 18.08556,4.522277 0.61792,1.625265 1.08681,20.2513582 1.08681,43.1728072 0,26.245007 0.4204,41.099827 1.20463,42.565177 2.56104,4.78534 5.97937,4.74882 21.32521,-0.22781 34.48307,-11.18282 43.31552,-14.0775 52.2259,-17.11612 10.78818,-3.678996 13.72572,-3.920352 18.38564,-1.51062 4.3179,2.23288 5.65523,4.91068 5.65523,11.32375 0,9.2253 3.58745,7.627 -71.80821,31.992219 -10.3882,3.35711 -13.64518,5.68812 -13.64518,9.76582 0,3.51891 1.15845,5.42363 13.91101,22.87249 5.3089,7.26397 10.67624,14.62215 11.92741,16.35152 1.25118,1.72936 6.15916,8.49377 10.90664,15.03202 10.50802,14.47167 11.23375,15.81398 11.23375,20.77771 0,4.653 -4.75995,10.4242 -9.59943,11.63883 -7.23258,1.81526 -10.90347,-2.10737 -40.36667,-43.13492 -12.31611,-17.1502 -18.29813,-25.03467 -19.64225,-25.88903 -0.75143,-0.47761 -2.69516,-0.87623 -4.31941,-0.88579 -3.13478,-0.0184 -6.41665,3.60569 -17.980284,19.85549 -3.11121,4.37204 -6.99288,9.73771 -8.62595,11.92373 -1.63306,2.18602 -6.9889,9.59576 -11.901874,16.4661 -4.912973,6.87034 -9.785229,13.68199 -10.827238,15.13702 -3.780212,5.27853 -10.419787,7.97617 -15.27927,6.20792 z"
     id="path5262"
     inkscape:connector-curvature="0" />
</svg>
