<?xml version="1.0" encoding="UTF-8" standalone="no"?>
<!-- Created with Inkscape (http://www.inkscape.org/) -->

<svg
   xmlns:dc="http://purl.org/dc/elements/1.1/"
   xmlns:cc="http://creativecommons.org/ns#"
   xmlns:rdf="http://www.w3.org/1999/02/22-rdf-syntax-ns#"
   xmlns:svg="http://www.w3.org/2000/svg"
   xmlns="http://www.w3.org/2000/svg"
   xmlns:sodipodi="http://sodipodi.sourceforge.net/DTD/sodipodi-0.dtd"
   xmlns:inkscape="http://www.inkscape.org/namespaces/inkscape"
   version="1.1"
   id="svg22"
   width="60.454803mm"
   height="63.339901mm"
   viewBox="0 0 228.4906 239.3949"
   sodipodi:docname="esoterica-gaurmatsya.svg"
   inkscape:version="0.92.5 (2060ec1f9f, 2020-04-08)">
  <metadata
     id="metadata28">
    <rdf:RDF>
      <cc:Work
         rdf:about="">
        <dc:format>image/svg+xml</dc:format>
        <dc:type
           rdf:resource="http://purl.org/dc/dcmitype/StillImage" />
        <dc:title></dc:title>
      </cc:Work>
    </rdf:RDF>
  </metadata>
  <defs
     id="defs26" />
  <sodipodi:namedview
     pagecolor="#ffffff"
     bordercolor="#666666"
     borderopacity="1"
     objecttolerance="10"
     gridtolerance="10"
     guidetolerance="10"
     inkscape:pageopacity="0"
     inkscape:pageshadow="2"
     inkscape:window-width="1920"
     inkscape:window-height="997"
     id="namedview24"
     showgrid="false"
     units="mm"
     fit-margin-top="0"
     fit-margin-left="0"
     fit-margin-right="0"
     fit-margin-bottom="0"
     inkscape:zoom="0.88059701"
     inkscape:cx="114.85506"
     inkscape:cy="119.74831"
     inkscape:window-x="0"
     inkscape:window-y="28"
     inkscape:window-maximized="1"
     inkscape:current-layer="svg22" />
  <path
     style="fill:#000000;fill-opacity:0;stroke:#ff0000;stroke-width:0.56779659;stroke-miterlimit:4;stroke-dasharray:none;stroke-opacity:1"
     d="m 47.627941,222.10626 v -17.00474 l -3.156587,-1.63233 C 40.320392,201.32264 26.040661,186.13535 20.511557,177.9866 10.360936,163.02669 3.5836866,144.80541 1.0088416,125.55167 -1.5877614,106.13524 2.9156996,81.773439 12.659568,62.526248 15.821478,56.280485 19.489438,49.745991 20.810591,48.005151 31.572202,33.824922 43.040213,23.3336 56.712687,15.160701 66.985259,9.0201394 85.55628,2.0398194 94.47116,0.96836138 l 5.39407,-0.648299 V 12.889254 25.458446 l -6.50998,1.351466 c -7.41602,1.539561 -21.145545,7.669295 -28.69341,12.81057 -14.195373,9.669266 -26.828261,25.544486 -32.777902,41.190617 -5.552315,14.601258 -6.26127,18.398218 -6.233465,33.384641 0.02418,13.02811 0.335112,15.10969 3.782793,25.32375 6.049227,17.92139 16.619147,33.57684 28.960927,42.89497 l 5.906229,4.45925 h 17.782408 17.7824 v 12.49152 12.49153 H 86.23811 72.610992 V 225.48388 239.111 H 60.119467 47.627941 Z"
     id="path5408"
     inkscape:connector-curvature="0" />
  <path
     style="fill:#000000;fill-opacity:0;stroke:#ff0000;stroke-width:0.56779659;stroke-miterlimit:4;stroke-dasharray:none;stroke-opacity:1"
     d="m 156.64489,225.48388 v -13.62712 h -13.62712 -13.62712 v -12.49153 -12.49152 h 17.44323 c 19.67718,0 19.94353,-0.0912 30.25169,-10.35937 7.66601,-7.63626 11.432,-12.81991 16.66238,-22.93469 13.19392,-25.51513 12.5757,-58.095193 -1.58275,-83.410798 C 186.45273,59.954822 174.12956,46.318829 164.58927,39.65517 157.25254,34.530644 144.91538,29.055675 135.97847,26.958302 L 128.25506,25.14572 V 12.89107 0.63641838 h 4.11465 c 5.83348,0 26.69814,7.21875402 36.76671,12.72054162 11.24859,6.146595 19.35608,12.471805 28.75003,22.429881 24.48124,25.951413 34.67669,61.025226 28.61077,98.425249 -3.86756,23.84586 -19.23116,50.63127 -37.5849,65.52678 l -7.23544,5.87213 -0.0245,16.75 -0.0245,16.75 h -12.49152 -12.49153 z"
     id="path5410"
     inkscape:connector-curvature="0" />
</svg>
