<?xml version="1.0" encoding="UTF-8" standalone="no"?>
<!-- Created with Inkscape (http://www.inkscape.org/) -->

<svg
   xmlns:dc="http://purl.org/dc/elements/1.1/"
   xmlns:cc="http://creativecommons.org/ns#"
   xmlns:rdf="http://www.w3.org/1999/02/22-rdf-syntax-ns#"
   xmlns:svg="http://www.w3.org/2000/svg"
   xmlns="http://www.w3.org/2000/svg"
   xmlns:sodipodi="http://sodipodi.sourceforge.net/DTD/sodipodi-0.dtd"
   xmlns:inkscape="http://www.inkscape.org/namespaces/inkscape"
   version="1.1"
   id="svg2"
   width="59.16386mm"
   height="45.823402mm"
   viewBox="0 0 223.61144 173.19081"
   sodipodi:docname="esoterica-metenu.svg"
   inkscape:version="0.92.5 (2060ec1f9f, 2020-04-08)">
  <metadata
     id="metadata8">
    <rdf:RDF>
      <cc:Work
         rdf:about="">
        <dc:format>image/svg+xml</dc:format>
        <dc:type
           rdf:resource="http://purl.org/dc/dcmitype/StillImage" />
        <dc:title></dc:title>
      </cc:Work>
    </rdf:RDF>
  </metadata>
  <defs
     id="defs6" />
  <sodipodi:namedview
     pagecolor="#ffffff"
     bordercolor="#666666"
     borderopacity="1"
     objecttolerance="10"
     gridtolerance="10"
     guidetolerance="10"
     inkscape:pageopacity="0"
     inkscape:pageshadow="2"
     inkscape:window-width="1920"
     inkscape:window-height="997"
     id="namedview4"
     showgrid="false"
     units="mm"
     fit-margin-top="0"
     fit-margin-left="0"
     fit-margin-right="0"
     fit-margin-bottom="0"
     inkscape:zoom="0.88059701"
     inkscape:cx="111.97547"
     inkscape:cy="86.828954"
     inkscape:window-x="0"
     inkscape:window-y="28"
     inkscape:window-maximized="1"
     inkscape:current-layer="svg2" />
  <path
     style="fill:#000000;fill-opacity:0;stroke:#ff0000;stroke-width:0.56779659;stroke-miterlimit:4;stroke-dasharray:none;stroke-opacity:1"
     d="M 78.196025,138.77392 C 59.49532,120.06543 43.741349,104.75847 43.187196,104.75847 c -0.554151,0 -6.339601,5.45625 -12.856555,12.12499 L 18.481636,129.00845 9.4423042,119.96912 0.40297216,110.92979 12.972461,98.543534 25.541949,86.157264 13.299249,73.876484 1.0565482,61.595704 l 8.781002,-8.781 8.7810018,-8.781001 11.664795,11.625101 c 6.415638,6.3938 12.170336,11.62509 12.788218,11.62509 0.617882,0 16.191925,-15.074996 34.608985,-33.499996 18.417055,-18.425 33.80715,-33.49999971 34.2002,-33.49999971 0.39305,0 15.72681,15.06420871 34.07502,33.47602171 18.34821,18.411811 34.04058,33.486814 34.87193,33.500004 0.83136,0.0132 6.74595,-5.28066 13.14353,-11.7641 l 11.63197,-11.788068 8.71664,8.521295 c 4.79416,4.686713 8.71665,8.778203 8.71665,9.092213 0,0.314 -5.36568,5.96265 -11.92373,12.55255 -6.55805,6.5899 -11.92103,12.27444 -11.91772,12.6323 0.003,0.35787 5.40777,5.96601 12.00993,12.46255 l 12.00395,11.811876 -8.86446,8.91675 -8.86445,8.91675 -11.96488,-11.92779 c -6.58068,-6.56028 -12.24823,-11.92778 -12.59454,-11.92778 -0.34632,0 -15.95072,15.30696 -34.67647,34.01545 l -34.04681,34.01545 z m 42.676545,-10.20556 8.3927,-7.98672 -8.23156,-7.91158 c -4.52736,-4.35138 -8.61012,-7.91159 -9.07281,-7.91159 -0.46269,0 -4.35747,3.54337 -8.65507,7.87415 l -7.813805,7.87414 7.746675,8.02416 c 4.26067,4.41329 8.08293,8.02416 8.49392,8.02416 0.41099,0 4.52397,-3.59403 9.13995,-7.98672 z m 35.62125,-35.532306 6.7031,-6.61225 -8.37803,-8.43432 -8.37803,-8.43432 -7.69371,7.63476 c -4.23154,4.19911 -7.69371,8.21041 -7.69371,8.91399 0,0.70359 3.4069,4.66945 7.57091,8.81304 8.59694,8.554796 7.13433,8.708746 17.86947,-1.8809 z m -70.042975,1.25099 c 3.92041,-3.88556 7.12801,-7.50854 7.12801,-8.05107 0,-0.54253 -3.57486,-4.57548 -7.94413,-8.96211 l -7.944128,-7.9757 -5.966888,6.10341 c -3.281788,3.35687 -6.956497,7.26512 -8.166019,8.68501 l -2.199131,2.5816 7.276496,7.34176 c 4.002072,4.03796 8.044033,7.341746 8.982135,7.341746 0.938105,0 4.913245,-3.179086 8.833655,-7.064646 z m 34.696575,-34.69686 7.63475,-7.693714 -8.51372,-8.456903 -8.51373,-8.456904 -8.02978,8.371232 -8.029795,8.371233 6.039315,6.301316 c 7.30187,7.61865 9.0921,9.17426 10.61214,9.22134 0.64133,0.0199 4.60169,-3.42606 8.80082,-7.6576 z"
     id="path5409"
     inkscape:connector-curvature="0" />
</svg>
