<?xml version="1.0" encoding="UTF-8" standalone="no"?>
<!-- Created with Inkscape (http://www.inkscape.org/) -->

<svg
   xmlns:dc="http://purl.org/dc/elements/1.1/"
   xmlns:cc="http://creativecommons.org/ns#"
   xmlns:rdf="http://www.w3.org/1999/02/22-rdf-syntax-ns#"
   xmlns:svg="http://www.w3.org/2000/svg"
   xmlns="http://www.w3.org/2000/svg"
   xmlns:sodipodi="http://sodipodi.sourceforge.net/DTD/sodipodi-0.dtd"
   xmlns:inkscape="http://www.inkscape.org/namespaces/inkscape"
   version="1.1"
   id="svg72"
   width="62.777618mm"
   height="66.196587mm"
   viewBox="0 0 237.26974 250.19183"
   sodipodi:docname="hermetica-decagram.svg"
   inkscape:version="0.92.5 (2060ec1f9f, 2020-04-08)">
  <metadata
     id="metadata78">
    <rdf:RDF>
      <cc:Work
         rdf:about="">
        <dc:format>image/svg+xml</dc:format>
        <dc:type
           rdf:resource="http://purl.org/dc/dcmitype/StillImage" />
        <dc:title></dc:title>
      </cc:Work>
    </rdf:RDF>
  </metadata>
  <defs
     id="defs76" />
  <sodipodi:namedview
     pagecolor="#ffffff"
     bordercolor="#666666"
     borderopacity="1"
     objecttolerance="10"
     gridtolerance="10"
     guidetolerance="10"
     inkscape:pageopacity="0"
     inkscape:pageshadow="2"
     inkscape:window-width="1920"
     inkscape:window-height="997"
     id="namedview74"
     showgrid="false"
     units="mm"
     fit-margin-top="0"
     fit-margin-left="0"
     fit-margin-right="0"
     fit-margin-bottom="0"
     inkscape:zoom="0.88059701"
     inkscape:cx="118.06492"
     inkscape:cy="125.43922"
     inkscape:window-x="0"
     inkscape:window-y="28"
     inkscape:window-maximized="1"
     inkscape:current-layer="svg72" />
  <path
     style="fill:#ff0000;fill-opacity:0.01829266;stroke:#ff0000;stroke-width:0.56779659;stroke-miterlimit:4;stroke-dasharray:none;stroke-opacity:1"
     d="m 118.14109,0.34635919 -5.54492,3.84179701 c -3.05019,2.113595 -8.177,5.756621 -11.39258,8.0937498 -25.784593,18.740643 -32.949105,23.921366 -36.539056,26.427734 -3.248794,2.268185 -4.781053,4.665551 -7.259765,11.357422 -1.727828,4.664686 -3.145091,8.874592 -3.150391,9.357422 -0.01131,1.038252 3.68446,-1.274417 13.193359,-8.257813 3.827029,-2.810591 13.999681,-10.221034 22.605468,-16.466796 8.6058,-6.245763 18.237565,-13.271121 21.402335,-15.613282 5.68829,-4.209735 5.8753,-4.259765 16.41211,-4.259765 h 10.65821 l -5.51758,-3.945313 C 129.97334,8.7116872 125.38591,5.4537432 122.81492,3.6412812 Z M 70.316878,23.912765 l -12.863281,0.0039 -12.861328,0.0039 -8.210938,25.263672 c -4.515787,13.89435 -9.489786,29.349106 -11.054687,34.345716 l -2.845703,9.085936 2.34375,7.38086 c 1.2891,4.059741 2.605666,8.147141 2.925781,9.083981 0.528547,1.54691 5.756446,-11.788781 8.458984,-21.576168 1.304207,-4.723259 7.720726,-24.41713 13.16211,-40.398437 3.311764,-9.726633 4.438118,-11.761965 7.507812,-13.572266 1.986085,-1.171261 5.821148,-3.814582 8.523438,-5.875 z m 49.162102,0 -7.88672,5.677735 -7.88672,5.677734 h 38.86719 38.86719 l 8.13672,6.242187 c 4.4752,3.433465 8.35684,6.024025 8.625,5.75586 0.26817,-0.268165 -1.11087,-5.633694 -3.06445,-11.921875 l -3.55274,-11.431641 h -36.05273 z m 53.05274,20.425782 c -1.02734,0.0119 -2.18679,0.0473 -3.57618,0.05273 -11.20641,0.04379 -11.7061,-0.953295 5.67383,11.316406 5.7506,4.059746 12.16291,8.659263 14.25,10.220703 2.08708,1.561441 9.31339,6.791429 16.0586,11.621094 17.35587,12.427047 16.81229,11.803971 20.40429,23.30665 1.7691,5.66515 3.39864,9.70546 3.62305,8.97851 0.22441,-0.72695 2.10027,-6.27519 4.16797,-12.330081 l 3.75976,-11.007813 -9.8457,-7.232422 C 221.63235,75.286836 212.67828,68.741941 207.1489,64.721359 180.37745,45.255017 179.7231,44.255269 172.53172,44.338547 Z M 19.83055,72.018234 c -0.218646,-0.218646 -3.133062,1.644087 -6.476563,4.138672 -3.3435,2.494585 -6.3689793,4.550572 -6.7246093,4.570312 -0.35563,0.01974 -2.052056,1.273506 -3.769531,2.785157 -3.11954101,2.745691 -3.12220601,2.753196 -1.501953,8.763674 0.892037,3.30908 4.915958,15.982871 8.9414063,28.162111 4.025447,12.17923 8.196008,24.9535 9.267578,28.38867 1.760346,5.6432 2.677452,6.75385 9.511719,11.5 4.160201,2.8891 7.698433,5.13926 7.861328,5.00195 0.254302,-0.21436 -7.20646,-23.29656 -20.259766,-62.67969 l -3.449218,-10.406251 3.498046,-9.914058 c 1.924518,-5.452563 3.320209,-10.091902 3.101563,-10.310547 z m 179.32226,12.080078 c -0.43367,0 0.41311,2.695639 15.17773,48.263678 l 8.09571,24.98242 -2.89649,9.15234 c -1.59267,5.03353 -2.89453,9.50403 -2.89453,9.93555 0,1.41566 0.97553,0.86041 10.68946,-6.08789 l 9.60742,-6.87305 -1.45313,-4.19922 c -0.79896,-2.30953 -4.67383,-14.16451 -8.61133,-26.34375 -13.23659,-40.942701 -11.71758,-37.631911 -19.99414,-43.585937 -4.00974,-2.884538 -7.48383,-5.244141 -7.7207,-5.244141 z m 8.09766,55.076178 -6.04688,18.73828 c -3.32638,10.30551 -8.42211,26.14677 -11.32422,35.20312 -6.52226,20.35345 -6.9982,21.57617 -8.37304,21.57617 -0.60942,0 -4.52545,2.55486 -8.70313,5.67774 l -7.5957,5.67773 h 13.11719 13.11523 l 6.43164,-20.15625 c 3.53751,-11.08623 8.49774,-26.29024 11.02148,-33.78515 4.98807,-14.81327 5.01277,-17.24084 0.28516,-28.38868 z M 7.7035967,140.53386 c -0.579136,0.045 -2.208663,3.7157 -3.773438,8.55664 -4.90846901,15.18533 -4.934723,14.58949 0.802735,18.47461 4.364199,2.95522 24.5580503,17.56085 45.8437503,33.1582 6.423069,4.70652 6.633207,4.76878 16.160156,4.80078 l 9.652344,0.0332 -2.839844,-2.2793 c -1.561441,-1.25257 -8.638047,-6.47784 -15.726563,-11.61328 -7.088513,-5.13545 -14.753073,-10.72802 -17.033203,-12.42773 -2.28013,-1.69975 -5.423327,-4.00047 -6.984375,-5.11133 -1.561046,-1.11087 -6.668529,-4.7524 -11.349609,-8.09375 l -8.511719,-6.07618 -2.648437,-9.2539 c -1.4566493,-5.09042 -3.0273743,-9.6476 -3.4902353,-10.12695 -0.02893,-0.03 -0.06295,-0.044 -0.101562,-0.041 z M 180.6118,189.76823 c -0.52094,0.0364 -1.95399,1.0119 -3.45118,2.37891 -2.64347,2.41364 -8.74415,6.90621 -29.84375,21.97656 -1.7489,1.24915 -8.84535,6.33072 -15.76953,11.29297 l -12.58984,9.02344 -11.06446,-0.25781 -11.064445,-0.25781 2.83985,2.35937 c 1.561435,1.29804 4.116285,3.22531 5.677725,4.2832 1.56144,1.05789 5.03269,3.57703 7.71484,5.59766 l 4.87696,3.67383 11.02148,-8.02539 c 6.06192,-4.41443 12.29989,-8.97912 13.86133,-10.14453 1.56144,-1.16541 7.94954,-5.80167 14.19531,-10.30274 6.24576,-4.50107 12.743,-9.32987 14.4375,-10.72851 1.69451,-1.39864 3.57685,-2.71966 4.1836,-2.93555 1.19345,-0.42463 5.97101,-17.0583 5.13867,-17.89063 -0.0347,-0.0347 -0.0897,-0.0482 -0.16406,-0.043 z M 37.687972,202.55144 c -0.04269,-0.004 -0.07316,0.003 -0.08984,0.0195 -0.233477,0.23347 1.245003,5.59539 3.285156,11.91602 l 3.708985,11.49218 35.90039,0.0332 35.898427,0.0351 7.69336,-5.67773 7.69141,-5.67774 H 92.537585 c -21.581199,0 -39.408994,-0.43093 -39.617187,-0.95703 -0.497294,-1.25667 -13.90917,-11.05774 -15.232422,-11.18359 z"
     id="path5271"
     inkscape:connector-curvature="0" />
</svg>
