<?xml version="1.0" encoding="UTF-8" standalone="no"?>
<!-- Created with Inkscape (http://www.inkscape.org/) -->

<svg
   xmlns:dc="http://purl.org/dc/elements/1.1/"
   xmlns:cc="http://creativecommons.org/ns#"
   xmlns:rdf="http://www.w3.org/1999/02/22-rdf-syntax-ns#"
   xmlns:svg="http://www.w3.org/2000/svg"
   xmlns="http://www.w3.org/2000/svg"
   xmlns:sodipodi="http://sodipodi.sourceforge.net/DTD/sodipodi-0.dtd"
   xmlns:inkscape="http://www.inkscape.org/namespaces/inkscape"
   version="1.1"
   id="svg92"
   width="57.96344mm"
   height="54.921566mm"
   viewBox="0 0 219.07442 207.57757"
   sodipodi:docname="esoterica-gordian_knot.svg"
   inkscape:version="0.92.5 (2060ec1f9f, 2020-04-08)">
  <metadata
     id="metadata98">
    <rdf:RDF>
      <cc:Work
         rdf:about="">
        <dc:format>image/svg+xml</dc:format>
        <dc:type
           rdf:resource="http://purl.org/dc/dcmitype/StillImage" />
        <dc:title></dc:title>
      </cc:Work>
    </rdf:RDF>
  </metadata>
  <defs
     id="defs96" />
  <sodipodi:namedview
     pagecolor="#ffffff"
     bordercolor="#666666"
     borderopacity="1"
     objecttolerance="10"
     gridtolerance="10"
     guidetolerance="10"
     inkscape:pageopacity="0"
     inkscape:pageshadow="2"
     inkscape:window-width="1920"
     inkscape:window-height="997"
     id="namedview94"
     showgrid="false"
     units="mm"
     fit-margin-top="0"
     fit-margin-left="0"
     fit-margin-right="0"
     fit-margin-bottom="0"
     inkscape:zoom="0.88059701"
     inkscape:cx="109.48806"
     inkscape:cy="103.65175"
     inkscape:window-x="0"
     inkscape:window-y="28"
     inkscape:window-maximized="1"
     inkscape:current-layer="svg92" />
  <path
     style="fill:#000000;fill-opacity:0;stroke:#ff0000;stroke-width:0.56779659;stroke-miterlimit:4;stroke-dasharray:none;stroke-opacity:1"
     d="m 145.59992,206.68926 c -8.92921,-1.55173 -17.24042,-4.4058 -23.00304,-7.89926 l -6.53693,-3.96288 4.99439,-6.44303 c 2.74692,-3.54366 5.81568,-8.07726 6.81948,-10.07467 l 1.82508,-3.63165 7.66661,3.63165 c 6.80899,3.2254 8.7464,3.62482 17.31916,3.57056 8.13689,-0.0515 10.67598,-0.55408 16.17039,-3.20072 8.28024,-3.98857 15.28751,-10.98711 19.57295,-19.54856 2.95003,-5.8936 3.35633,-7.89584 3.32132,-16.36759 -0.0344,-8.32236 -0.49882,-10.59138 -3.37008,-16.46522 -4.2383,-8.67047 -10.72289,-15.19116 -19.29034,-19.39771 l -6.7517,-3.31504 -34.63559,-0.35452 -34.63559,-0.35452 -6.87674,-12.137008 -6.87674,-12.137 40.1572,-0.29831 c 43.18521,-0.32081 46.62224,0.0173 59.70904,5.87407 22.34224,9.99884 37.47502,33.342338 37.6107,58.017458 0.16702,30.37351 -19.94729,56.06338 -49.28937,62.95208 -9.34283,2.19343 -17.22484,2.70193 -23.9002,1.54187 z"
     id="path6368"
     inkscape:connector-curvature="0" />
  <path
     style="fill:#000000;fill-opacity:0;stroke:#ff0000;stroke-width:0.56779659;stroke-miterlimit:4;stroke-dasharray:none;stroke-opacity:1"
     d="M 82.71054,148.128 C 75.83649,136.17562 73.127238,131.48404 59.611459,108.12751 47.888808,87.869682 44.612146,78.342092 44.559889,64.361867 44.443374,33.191402 69.683367,4.2917384 100.04769,0.82861437 121.51863,-1.6201986 139.6375,4.1868484 153.6678,18.013706 c 8.31831,8.197707 15.0231,19.131112 17.40907,28.388749 2.03746,7.905415 3.3457,20.530017 2.42732,23.423601 -0.63205,1.991416 -1.24813,2.152656 -4.94449,1.294066 -2.32237,-0.53944 -7.59773,-0.99299 -11.72304,-1.00789 l -7.50055,-0.0271 -0.65488,-7.665252 C 147.81003,52.222719 143.59137,43.003012 136.80926,36.47417 130.26315,30.17251 127.7643,28.805998 118.29533,26.349708 95.56534,20.453453 71.970374,37.258866 69.829453,60.869327 c -1.097256,12.100735 0.429393,15.700245 23.648587,55.758363 5.60608,9.67173 10.04534,18.35901 9.86501,19.30509 -0.40932,2.14745 -12.61172,23.87189 -13.38719,23.83377 -0.31229,-0.0153 -3.57268,-5.2527 -7.24532,-11.63856 z"
     id="path6370"
     inkscape:connector-curvature="0" />
  <path
     style="fill:#000000;fill-opacity:0;stroke:#ff0000;stroke-width:0.56779659;stroke-miterlimit:4;stroke-dasharray:none;stroke-opacity:1"
     d="M 47.894211,204.95393 C 35.876901,201.76558 26.814742,196.4957 17.89985,187.51144 10.177508,179.729 3.1764326,167.00056 1.3652916,157.45045 c -1.44754899,-7.6329 -1.43464899,-21.79284 0.02695,-29.57895 2.683788,-14.29689 16.2760914,-32.977018 29.5127694,-40.559918 3.43517,-1.9679 6.573627,-3.5828 6.97435,-3.58866 0.400724,-0.006 1.066504,1.3357 1.479513,2.98126 0.413008,1.64556 2.527737,6.58716 4.699398,10.98134 2.171659,4.394178 3.549947,8.341898 3.06286,8.772718 -0.487086,0.43082 -2.704135,2.00469 -4.926775,3.49748 -19.558536,13.13611 -23.187841,40.88887 -7.700433,58.88408 7.738079,8.99107 20.544015,14.32172 32.164507,13.38894 14.922129,-1.1978 26.542559,-9.52403 35.003309,-25.08046 2.09507,-3.8521 5.60329,-10.06992 7.79605,-13.81738 2.19276,-3.74745 7.09634,-12.17923 10.89685,-18.73728 l 6.91002,-11.92373 14.2778,-0.31783 c 7.85279,-0.1748 14.2778,-0.0626 14.2778,0.24936 0,0.72839 -3.60451,7.14488 -7.32036,13.03117 -1.59499,2.52662 -2.89998,4.91025 -2.89998,5.29696 0,0.67706 -3.72004,7.05998 -12.52235,21.4861 -2.28658,3.74746 -4.36484,7.32458 -4.61837,7.94915 -2.52035,6.20885 -11.50054,19.92252 -16.91618,25.83273 -16.31958,17.80995 -40.433052,24.91584 -63.648807,18.7564 z"
     id="path6372"
     inkscape:connector-curvature="0" />
</svg>
