<?xml version="1.0" encoding="UTF-8" standalone="no"?>
<!-- Created with Inkscape (http://www.inkscape.org/) -->

<svg
   xmlns:dc="http://purl.org/dc/elements/1.1/"
   xmlns:cc="http://creativecommons.org/ns#"
   xmlns:rdf="http://www.w3.org/1999/02/22-rdf-syntax-ns#"
   xmlns:svg="http://www.w3.org/2000/svg"
   xmlns="http://www.w3.org/2000/svg"
   xmlns:sodipodi="http://sodipodi.sourceforge.net/DTD/sodipodi-0.dtd"
   xmlns:inkscape="http://www.inkscape.org/namespaces/inkscape"
   version="1.1"
   id="svg12"
   width="52.818882mm"
   height="66.327972mm"
   viewBox="0 0 199.63042 250.6884"
   sodipodi:docname="esoterica-scientology.svg"
   inkscape:version="0.92.5 (2060ec1f9f, 2020-04-08)">
  <metadata
     id="metadata18">
    <rdf:RDF>
      <cc:Work
         rdf:about="">
        <dc:format>image/svg+xml</dc:format>
        <dc:type
           rdf:resource="http://purl.org/dc/dcmitype/StillImage" />
        <dc:title></dc:title>
      </cc:Work>
    </rdf:RDF>
  </metadata>
  <defs
     id="defs16" />
  <sodipodi:namedview
     pagecolor="#ffffff"
     bordercolor="#666666"
     borderopacity="1"
     objecttolerance="10"
     gridtolerance="10"
     guidetolerance="10"
     inkscape:pageopacity="0"
     inkscape:pageshadow="2"
     inkscape:window-width="1920"
     inkscape:window-height="997"
     id="namedview14"
     showgrid="false"
     units="mm"
     fit-margin-top="0"
     fit-margin-left="0"
     fit-margin-right="0"
     fit-margin-bottom="0"
     inkscape:zoom="0.88059701"
     inkscape:cx="100.44322"
     inkscape:cy="125.42627"
     inkscape:window-x="0"
     inkscape:window-y="28"
     inkscape:window-maximized="1"
     inkscape:current-layer="svg12" />
  <path
     style="fill:#000000;fill-opacity:0;stroke:#ff0000;stroke-width:0.56779659;stroke-miterlimit:4;stroke-dasharray:none;stroke-opacity:1"
     d="M 98.51271,41.944009 C 93.92721,40.821942 89.47976,38.613749 84.91211,35.191205 77.95787,29.980389 71.59645,27.134399 69.62576,28.352356 68.5689,29.005528 62.460908,25.8944 49.445096,18.073262 l -5.915074,-3.554338 5.160642,-3.706093 C 55.205621,6.1341434 62.31059,3.9807794 71.23284,3.9807794 c 9.97845,0 17.30284,2.558122 26.26365,9.1728596 8.87271,6.549708 7.88686,6.482873 25.99927,1.762611 6.24577,-1.627703 11.7392,-2.965504 12.20763,-2.97289 0.46843,-0.0074 0.85169,2.817523 0.85169,6.277574 0,17.852345 -17.48214,28.754144 -38.04237,23.723075 z"
     id="path4861"
     inkscape:connector-curvature="0" />
  <path
     style="fill:#000000;fill-opacity:0;stroke:#ff0000;stroke-width:0.56779659;stroke-miterlimit:4;stroke-dasharray:none;stroke-opacity:1"
     d="m 37.758474,103.05687 c 0,-25.802598 -1.09748,-25.473091 11.412117,-3.426375 7.966797,14.040565 8.675221,15.638425 6.933433,15.638425 -0.527745,0 -3.977109,1.94483 -7.665255,4.32186 -11.645564,7.5056 -10.680295,8.99991 -10.680295,-16.53391 z"
     id="path4865"
     inkscape:connector-curvature="0" />
  <path
     style="fill:#000000;fill-opacity:0;stroke:#ff0000;stroke-width:0.56779659;stroke-miterlimit:4;stroke-dasharray:none;stroke-opacity:1"
     d="m 0.28389829,92.503295 c 0,-74.532476 0.286056,-93.11054783 1.41949101,-92.18957383 0.780721,0.6343752 6.529662,4.03586723 12.7754237,7.55887023 6.245763,3.5230036 12.122458,6.8806166 13.059322,7.4613636 0.936865,0.580747 9.113136,5.338557 18.169492,10.57291 9.056356,5.234355 21.010833,12.151633 26.565493,15.371732 5.55467,3.220098 10.46817,5.854724 10.91889,5.854724 0.45072,0 2.0403,0.960284 3.53239,2.133965 1.4921,1.17368 5.52139,3.675109 8.95399,5.558731 3.43261,1.883621 10.84025,6.104344 16.46144,9.379385 5.62119,3.275039 12.51992,7.242529 15.33051,8.816644 2.81059,1.574116 7.01633,4.058363 9.34608,5.52055 2.32975,1.462187 4.49164,2.658522 4.80422,2.658522 0.31257,0 3.36428,1.788559 6.78158,3.974576 3.41729,2.186017 6.63512,3.974577 7.15073,3.974577 0.5156,0 2.11388,0.824001 3.55173,1.831112 l 2.61429,1.831112 -3.7811,2.31334 c -2.0796,1.27233 -5.82516,3.45384 -8.32346,4.8478 -11.05936,6.170715 -18.92996,10.694295 -32.10437,18.451815 -3.47872,2.04838 -6.68642,3.32592 -7.12822,2.83898 -1.6432,-1.81105 -11.30119,-19.05033 -11.29803,-20.16668 0.002,-0.63764 2.39869,-2.436885 5.32641,-3.998325 2.92771,-1.56144 5.47673,-3.35 5.66448,-3.97458 0.18775,-0.62457 -1.57036,-2.197195 -3.90691,-3.49471 C 103.83122,88.332621 96.80932,84.298484 90.56356,80.665386 84.3178,77.032289 74.35297,71.236427 68.41949,67.785691 62.486017,64.334956 54.309745,59.632074 50.25,57.33484 46.190254,55.037608 39.179445,51.035964 34.670424,48.442298 c -4.509021,-2.593666 -8.469402,-4.715756 -8.800848,-4.715756 -0.331444,0 -0.602627,21.973729 -0.602627,48.830513 0,38.308895 0.30586,48.829885 1.419491,48.827595 0.780721,-0.001 4.485594,-1.86241 8.233051,-4.13511 3.747458,-2.27271 8.857627,-5.26517 11.355932,-6.64991 2.498305,-1.38474 6.996312,-3.92615 9.995571,-5.64758 2.999259,-1.72141 5.585192,-2.94353 5.746518,-2.71581 2.240953,3.1632 7.537568,12.17857 7.537568,12.82968 0,0.47347 1.08487,2.38443 2.41082,4.24654 1.35225,1.89906 1.97553,3.80102 1.41949,4.33158 -0.54523,0.52025 -9.423102,5.76872 -19.728611,11.66326 -10.305508,5.89455 -23.847457,13.69704 -30.09322,17.33888 -6.245763,3.64183 -14.0387707,8.10169 -17.3177967,9.91081 l -5.96186401,3.2893 z"
     id="path4867"
     inkscape:connector-curvature="0" />
  <path
     style="fill:#000000;fill-opacity:0;stroke:#ff0000;stroke-width:0.56779659;stroke-miterlimit:4;stroke-dasharray:none;stroke-opacity:1"
     d="m 20.228983,200.78488 c -1.757926,-4.58108 1.017835,-14.64474 5.576906,-20.21935 l 2.786161,-3.40678 0.04084,11.4493 0.04084,11.4493 -3.902372,1.19767 c -3.167592,0.97216 -4.022878,0.88364 -4.542373,-0.47014 z"
     id="path4869"
     inkscape:connector-curvature="0" />
  <path
     style="fill:#000000;fill-opacity:0;stroke:#ff0000;stroke-width:0.56779659;stroke-miterlimit:4;stroke-dasharray:none;stroke-opacity:1"
     d="m 37.758474,211.79434 c 0,-21.27381 0.44567,-38.61017 0.992562,-38.61017 0.545909,0 3.416742,-1.40529 6.379628,-3.12288 2.962886,-1.71758 7.754156,-4.49422 10.647268,-6.1703 2.893111,-1.67608 5.633871,-3.08137 6.090579,-3.12288 0.456706,-0.0415 0.967723,11.55017 1.135593,25.75928 l 0.305218,25.83475 5.677968,2.71037 c 3.12288,1.49071 9.25129,3.31283 13.61869,4.04917 l 7.94072,1.3388 -5.66954,3.22534 c -3.11824,1.77394 -8.10454,4.67872 -11.08066,6.45507 -2.97612,1.77635 -5.64904,3.22972 -5.93981,3.22972 -0.29078,0 -3.32466,1.78856 -6.741954,3.97458 -3.417295,2.18602 -6.505845,3.97458 -6.863444,3.97458 -0.3576,0 -3.886734,2.04406 -7.84252,4.54237 -3.955786,2.49831 -7.520379,4.54237 -7.921318,4.54237 -0.400939,0 -0.72898,-17.37457 -0.72898,-38.61017 z"
     id="path4871"
     inkscape:connector-curvature="0" />
  <path
     style="fill:#000000;fill-opacity:0;stroke:#ff0000;stroke-width:0.56779659;stroke-miterlimit:4;stroke-dasharray:none;stroke-opacity:1"
     d="m 76.08475,208.90903 -5.39407,-1.72579 v -16.00298 c 0,-12.61679 0.30036,-15.77627 1.41949,-14.93152 0.78072,0.58932 3.71907,2.88913 6.52966,5.11071 2.81059,2.22156 6.24675,4.38729 7.6359,4.81273 3.07608,0.94208 9.93516,-2.09716 12.27628,-5.43957 2.1729,-3.10225 2.12668,-9.78943 -0.0895,-12.95353 -1.69866,-2.42517 -5.40923,-8.75567 -14.13792,-24.12033 C 80.1074,136.23552 65.541711,110.99498 58.766968,99.370605 47.721605,80.418549 36.622881,60.777403 36.622881,60.182747 c 0,-0.771777 13.750239,6.584723 18.344793,9.814628 1.657857,1.165449 3.309662,2.118997 3.670677,2.118997 0.361015,0 3.859248,1.949466 7.773851,4.332148 3.914598,2.382681 7.989918,4.657845 9.056258,5.055921 2.34902,0.876915 6.26073,6.940152 17.74372,27.503139 1.04156,1.86516 3.55456,6.09098 5.58443,9.3907 2.02987,3.29972 3.69068,6.23607 3.69068,6.52523 0,0.28916 2.04407,3.86536 4.54237,7.9471 2.49831,4.08175 4.54237,7.67803 4.54237,7.99172 0,0.3137 1.37453,2.73203 3.05451,5.37407 8.15462,12.82443 9.9411,17.8753 9.93304,28.08337 -0.006,8.11257 -0.49212,10.66653 -3.04452,16.00824 -3.51553,7.35742 -10.26282,13.91137 -17.75318,17.2445 -6.84963,3.04802 -20.29793,3.69744 -27.67713,1.33652 z"
     id="path4873"
     inkscape:connector-curvature="0" />
  <path
     style="fill:#000000;fill-opacity:0;stroke:#ff0000;stroke-width:0.56779659;stroke-miterlimit:4;stroke-dasharray:none;stroke-opacity:1"
     d="m 129.97167,191.78589 c 2.89792,-6.19272 3.5561,-9.10922 3.73614,-16.55555 l 0.21855,-9.03861 6.63872,-3.67601 c 3.6513,-2.0218 6.79157,-4.15338 6.97838,-4.73683 0.18682,-0.58345 -5.57602,-4.38243 -12.8063,-8.44217 -11.96712,-6.71945 -13.39846,-7.87537 -15.96174,-12.89038 -1.54868,-3.02997 -2.57596,-6.13398 -2.28285,-6.89781 0.29311,-0.76383 4.15124,-3.29015 8.57362,-5.61405 8.92221,-4.68849 7.61757,-4.83098 19.43805,2.12295 3.43517,2.02089 13.14449,7.63564 21.57627,12.47722 8.43178,4.84157 19.30296,11.12125 24.15819,13.95483 l 8.82769,5.15195 -4.28531,2.49154 c -2.35693,1.37034 -11.18405,6.47577 -19.61583,11.34539 -8.43178,4.86963 -18.39661,10.64417 -22.14406,12.83232 -3.74746,2.18816 -10.39068,5.97457 -14.76272,8.41426 -4.37203,2.43968 -8.43461,4.91776 -9.02796,5.50683 -2.74706,2.72728 -2.48501,0.44829 0.74116,-6.44588 z"
     id="path4875"
     inkscape:connector-curvature="0" />
</svg>
