<?xml version="1.0" encoding="UTF-8" standalone="no"?>
<!-- Created with Inkscape (http://www.inkscape.org/) -->

<svg
   xmlns:dc="http://purl.org/dc/elements/1.1/"
   xmlns:cc="http://creativecommons.org/ns#"
   xmlns:rdf="http://www.w3.org/1999/02/22-rdf-syntax-ns#"
   xmlns:svg="http://www.w3.org/2000/svg"
   xmlns="http://www.w3.org/2000/svg"
   xmlns:sodipodi="http://sodipodi.sourceforge.net/DTD/sodipodi-0.dtd"
   xmlns:inkscape="http://www.inkscape.org/namespaces/inkscape"
   version="1.1"
   id="svg42"
   width="61.273636mm"
   height="61.374557mm"
   viewBox="0 0 231.5854 231.96683"
   sodipodi:docname="esoterica-sphere_of_deiwos.svg"
   inkscape:version="0.92.5 (2060ec1f9f, 2020-04-08)">
  <metadata
     id="metadata48">
    <rdf:RDF>
      <cc:Work
         rdf:about="">
        <dc:format>image/svg+xml</dc:format>
        <dc:type
           rdf:resource="http://purl.org/dc/dcmitype/StillImage" />
        <dc:title></dc:title>
      </cc:Work>
    </rdf:RDF>
  </metadata>
  <defs
     id="defs46" />
  <sodipodi:namedview
     pagecolor="#ffffff"
     bordercolor="#666666"
     borderopacity="1"
     objecttolerance="10"
     gridtolerance="10"
     guidetolerance="10"
     inkscape:pageopacity="0"
     inkscape:pageshadow="2"
     inkscape:window-width="1920"
     inkscape:window-height="997"
     id="namedview44"
     showgrid="false"
     units="mm"
     fit-margin-top="0"
     fit-margin-left="0"
     fit-margin-right="0"
     fit-margin-bottom="0"
     inkscape:zoom="0.88059701"
     inkscape:cx="116.35428"
     inkscape:cy="116.13145"
     inkscape:window-x="0"
     inkscape:window-y="28"
     inkscape:window-maximized="1"
     inkscape:current-layer="svg42" />
  <path
     style="fill:#000000;fill-opacity:0;stroke:#ff0000;stroke-width:0.56779659;stroke-miterlimit:4;stroke-dasharray:none;stroke-opacity:1"
     d="M 100.79665,230.2445 C 82.203579,227.3305 64.474675,220.33529 49.127165,209.85752 30.32078,197.01838 14.132999,175.29965 6.717364,152.95739 -1.73963,127.47766 -1.857744,104.60749 6.33864,79.626133 24.766641,23.460323 81.107411,-9.0449011 139.7496,2.6560577 c 22.27364,4.44429 41.74761,15.0391593 58.31119,31.7243553 22.23137,22.394615 33.01356,48.523609 33.23768,80.546507 0.26099,37.28969 -16.385,71.01777 -45.87548,92.95287 -16.42724,12.21862 -33.04557,19.02562 -54.53312,22.33721 -12.65464,1.95029 -17.7947,1.95499 -30.09322,0.0275 z m 34.85331,-26.02679 c 9.14562,-2.15242 24.06729,-8.51389 28.44053,-12.12487 2.03839,-1.6831 4.93009,-5.24374 6.42601,-7.91253 l 2.71986,-4.85235 -2.71986,0.6302 c -27.53054,6.37885 -32.04984,6.95692 -54.38934,6.95692 -19.649236,0 -23.743306,-0.33989 -36.338978,-3.01683 -7.807203,-1.65926 -15.344703,-3.35222 -16.75,-3.76213 -4.56126,-1.33046 -3.084102,3.64188 2.838983,9.55645 5.606741,5.59868 17.905199,11.48148 30.289789,14.48871 7.821866,1.89932 31.474916,1.92114 39.483006,0.0365 z m 17.28085,-46.01905 c 7.43818,-1.96879 15.78045,-4.57777 18.53837,-5.79772 l 5.01441,-2.21811 -0.78015,-6.55593 c -1.11648,-9.38232 -7.90583,-29.83778 -13.86027,-41.75931 C 152.18661,82.533942 139.32655,65.280608 126.0036,53.784429 117.70351,46.622417 116.67546,46.267218 112.21869,49.02166 107.67704,51.828552 89.509374,70.604614 84.550114,77.616788 78.092,86.748282 68.73704,104.05272 64.686832,114.35912 c -3.301481,8.40114 -8.746107,29.90354 -8.746107,34.54091 0,1.80621 5.368056,4.1808 17.046559,7.54061 18.54349,5.33481 25.11137,6.14261 46.546656,5.7249 17.96702,-0.35012 21.16988,-0.73055 33.39687,-3.96688 z M 33.848424,128.83793 c 0.364558,-1.71758 2.751167,-9.25508 5.303572,-16.75 9.023915,-26.497928 23.625842,-50.479131 41.805979,-68.659269 4.478859,-4.478857 7.793679,-8.492865 7.366259,-8.920018 -0.42741,-0.427152 -3.32253,-0.667437 -6.433588,-0.533965 -7.212206,0.30942 -15.740784,5.014438 -26.724329,14.743194 -9.307323,8.244028 -16.029727,17.505696 -21.636909,29.809849 -5.38789,11.822941 -7.209002,19.807151 -7.460064,32.706779 -0.192172,9.87376 0.08367,11.59677 2.54551,15.90004 3.222999,5.63377 4.32333,5.9919 5.23357,1.70339 z M 204.21632,125.6518 c 2.83718,-5.79898 3.03247,-7.06128 2.41566,-15.61441 -1.3734,-19.044758 -9.51873,-38.966917 -21.89791,-53.558797 -6.30705,-7.434399 -17.08644,-16.217948 -24.61922,-20.060883 -4.25125,-2.168827 -14.67697,-3.415931 -16.16071,-1.933114 -0.41419,0.413927 2.42643,3.981843 6.31249,7.928703 21.62691,21.965305 38.57048,51.218613 45.94641,79.327171 1.06532,4.05975 2.11789,8.02013 2.33904,8.80085 0.81021,2.86019 2.64943,1.27253 5.66424,-4.88952 z"
     id="path4751"
     inkscape:connector-curvature="0" />
</svg>
