<?xml version="1.0" encoding="UTF-8" standalone="no"?>
<!-- Created with Inkscape (http://www.inkscape.org/) -->

<svg
   xmlns:dc="http://purl.org/dc/elements/1.1/"
   xmlns:cc="http://creativecommons.org/ns#"
   xmlns:rdf="http://www.w3.org/1999/02/22-rdf-syntax-ns#"
   xmlns:svg="http://www.w3.org/2000/svg"
   xmlns="http://www.w3.org/2000/svg"
   xmlns:sodipodi="http://sodipodi.sourceforge.net/DTD/sodipodi-0.dtd"
   xmlns:inkscape="http://www.inkscape.org/namespaces/inkscape"
   version="1.1"
   id="svg22"
   width="38.253975mm"
   height="61.744335mm"
   viewBox="0 0 144.58195 233.36442"
   sodipodi:docname="hermetica-juno.svg"
   inkscape:version="0.92.5 (2060ec1f9f, 2020-04-08)">
  <metadata
     id="metadata28">
    <rdf:RDF>
      <cc:Work
         rdf:about="">
        <dc:format>image/svg+xml</dc:format>
        <dc:type
           rdf:resource="http://purl.org/dc/dcmitype/StillImage" />
        <dc:title></dc:title>
      </cc:Work>
    </rdf:RDF>
  </metadata>
  <defs
     id="defs26" />
  <sodipodi:namedview
     pagecolor="#ffffff"
     bordercolor="#666666"
     borderopacity="1"
     objecttolerance="10"
     gridtolerance="10"
     guidetolerance="10"
     inkscape:pageopacity="0"
     inkscape:pageshadow="2"
     inkscape:window-width="1920"
     inkscape:window-height="997"
     id="namedview24"
     showgrid="false"
     units="mm"
     fit-margin-top="0"
     fit-margin-left="0"
     fit-margin-right="0"
     fit-margin-bottom="0"
     inkscape:zoom="0.88059701"
     inkscape:cx="224.22288"
     inkscape:cy="73.18899"
     inkscape:window-x="0"
     inkscape:window-y="28"
     inkscape:window-maximized="1"
     inkscape:current-layer="svg22" />
  <path
     style="fill:#ffff00;fill-opacity:0.01829266;stroke:#ff0000;stroke-width:0.56779659;stroke-miterlimit:4;stroke-dasharray:none;stroke-opacity:1"
     d="M 59.33475,220.02119 V 206.96186 H 45.70763 32.080509 V 194.47034 181.97881 H 45.70763 59.33475 v -41.44915 c 0,-22.79703 -0.26804,-41.449149 -0.59564,-41.449149 -0.32759,0 -3.83218,2.044059 -7.78796,4.542369 -3.95579,2.49831 -7.53054,4.54237 -7.94389,4.54237 -0.41335,0 -2.81878,1.30499 -5.345408,2.89998 -2.526625,1.59499 -6.221343,3.81609 -8.210485,4.93578 -1.989141,1.11968 -6.593784,3.71801 -10.232541,5.77404 -7.666424,4.33185 -7.497615,4.41086 -13.3050757,-6.22844 -2.045548,-3.74746 -4.276833,-7.73619 -4.95841301,-8.86385 C 9.9529397e-4,105.10382 0.10770229,104.38562 1.4194923,103.5587 7.3106033,99.845101 36.885903,82.666811 40.88136,80.637975 46.48017,77.794972 46.96734,75.956984 42.58475,74.211355 40.86716,73.527224 37.162288,71.518958 34.351695,69.748542 31.541102,67.978125 25.408898,64.324257 20.724576,61.628836 3.0469013,51.456863 0.28389829,49.749388 0.28389829,48.996943 c 0,-1.3101 10.24316471,-19.067689 11.41754071,-19.793494 1.153655,-0.712998 5.587924,1.558852 24.059887,12.326824 6.084194,3.546698 11.296504,6.44854 11.582904,6.44854 0.2864,0 2.79227,1.533051 5.56861,3.40678 2.77634,1.873729 5.35705,3.40678 5.7349,3.40678 0.37785,0 0.68701,-12.264407 0.68701,-27.254238 V 0.28389829 H 71.82627 84.317801 V 26.903319 c 0,14.640682 0.39653,26.864491 0.88118,27.164019 0.48464,0.29953 3.6785,-1.116766 7.09745,-3.147322 3.41896,-2.030556 9.793399,-5.76632 14.165429,-8.301697 4.37204,-2.535377 11.49401,-6.71011 15.82661,-9.277183 4.3326,-2.567075 8.42074,-4.660605 9.08474,-4.652293 1.07874,0.0135 13.68432,20.457566 12.88873,20.903242 -0.17903,0.100284 -3.3916,1.9939 -7.13906,4.208039 -3.74746,2.214139 -13.8329,8.070085 -22.41209,13.013215 -8.57919,4.943129 -15.605669,9.614352 -15.614399,10.380496 -0.009,0.766144 1.900429,2.355778 4.242589,3.532522 2.34216,1.176743 8.85763,4.845894 14.47882,8.153664 5.62118,3.30777 13.28644,7.75953 17.0339,9.8928 8.98404,5.114229 9.17058,5.340019 7.50016,9.077729 -2.64599,5.9206 -9.76906,17.30888 -10.83868,17.32876 -0.58703,0.0114 -4.54741,-2.02423 -8.80085,-4.52253 -4.25343,-2.49831 -11.43839,-6.67304 -15.96657,-9.27719 -4.52818,-2.60414 -11.030369,-6.39617 -14.449329,-8.42673 -3.41895,-2.03055 -6.61281,-3.446849 -7.09745,-3.147319 -0.48465,0.299529 -0.88118,18.911049 -0.88118,41.358939 v 40.81433 h 13.62712 13.627109 v 12.45548 12.4555 l -13.343219,0.31993 -13.34322,0.31994 -0.32109,12.77542 -0.32109,12.77543 H 71.78908 59.33475 Z"
     id="path5377"
     inkscape:connector-curvature="0" />
</svg>
