<?xml version="1.0" encoding="UTF-8" standalone="no"?>
<!-- Created with Inkscape (http://www.inkscape.org/) -->

<svg
   xmlns:dc="http://purl.org/dc/elements/1.1/"
   xmlns:cc="http://creativecommons.org/ns#"
   xmlns:rdf="http://www.w3.org/1999/02/22-rdf-syntax-ns#"
   xmlns:svg="http://www.w3.org/2000/svg"
   xmlns="http://www.w3.org/2000/svg"
   xmlns:sodipodi="http://sodipodi.sourceforge.net/DTD/sodipodi-0.dtd"
   xmlns:inkscape="http://www.inkscape.org/namespaces/inkscape"
   version="1.1"
   id="svg12"
   width="59.729279mm"
   height="59.813553mm"
   viewBox="0 0 225.74846 226.06697"
   sodipodi:docname="hermetica-purify.svg"
   inkscape:version="0.92.5 (2060ec1f9f, 2020-04-08)">
  <metadata
     id="metadata18">
    <rdf:RDF>
      <cc:Work
         rdf:about="">
        <dc:format>image/svg+xml</dc:format>
        <dc:type
           rdf:resource="http://purl.org/dc/dcmitype/StillImage" />
        <dc:title></dc:title>
      </cc:Work>
    </rdf:RDF>
  </metadata>
  <defs
     id="defs16" />
  <sodipodi:namedview
     pagecolor="#ffffff"
     bordercolor="#666666"
     borderopacity="1"
     objecttolerance="10"
     gridtolerance="10"
     guidetolerance="10"
     inkscape:pageopacity="0"
     inkscape:pageshadow="2"
     inkscape:window-width="1920"
     inkscape:window-height="997"
     id="namedview14"
     showgrid="false"
     units="mm"
     fit-margin-top="0"
     fit-margin-left="0"
     fit-margin-right="0"
     fit-margin-bottom="0"
     inkscape:zoom="0.88059701"
     inkscape:cx="113.14737"
     inkscape:cy="112.93586"
     inkscape:window-x="0"
     inkscape:window-y="28"
     inkscape:window-maximized="1"
     inkscape:current-layer="svg12" />
  <path
     style="fill:#ff0000;fill-opacity:0.01829266;stroke:#ff0000;stroke-width:0.56779659;stroke-miterlimit:4;stroke-dasharray:none;stroke-opacity:1"
     d="m 198.03168,216.07106 -9.54568,-9.59554 -9.40102,9.35219 -9.40102,9.35218 -8.77574,-8.77573 -8.77573,-8.77574 9.36104,-9.40992 9.36104,-9.40992 -5.57632,-5.49246 c -3.06696,-3.02086 -6.0096,-5.30545 -6.53919,-5.07687 -0.52958,0.22857 -4.28449,2.29939 -8.34423,4.60181 -21.87914,12.40838 -52.494574,12.19473 -75.888288,-0.52959 l -8.320486,-4.52569 -5.022734,4.92944 c -2.762504,2.7112 -5.022736,5.45052 -5.022736,6.08737 0,0.63686 3.947992,5.12921 8.773316,9.98301 l 8.773317,8.82507 -8.468067,8.52497 c -4.657437,4.68873 -8.831349,8.394 -9.275362,8.23395 -0.444012,-0.16007 -4.608436,-3.9959 -9.254275,-8.52407 -4.645839,-4.52818 -8.904107,-8.23305 -9.462816,-8.23305 -0.55871,0 -4.822884,3.83262 -9.475943,8.51695 -4.653059,4.68432 -8.983913,8.50806 -9.624121,8.49722 -1.460442,-0.0248 -16.4945234,-15.13356 -16.4945234,-16.57651 0,-0.58427 3.832627,-4.86935 8.5169494,-9.52241 4.684322,-4.65306 8.516949,-8.9959 8.516949,-9.65076 0,-0.65486 -4.065572,-5.23238 -9.0346064,-10.17228 l -9.03460601,-8.98161 8.70821201,-8.89601 8.7082124,-8.89602 9.150961,9.10342 c 5.033029,5.00689 9.672661,9.10343 10.310294,9.10343 0.637632,0 3.35643,-2.23867 6.041773,-4.97484 l 4.88244,-4.97485 -4.581201,-8.36837 C 30.539286,127.56484 30.539321,97.494897 43.81758,74.256176 L 48.316229,66.38294 42.634446,60.701158 36.952663,55.019375 27.584611,64.349767 18.216557,73.68016 9.3550766,64.870653 0.49359559,56.061145 9.8386306,46.667313 19.183663,37.27348 9.7915096,27.832282 0.39935759,18.391085 8.9872106,9.6627897 C 13.71053,4.8622287 17.826014,0.93449669 18.132731,0.93449669 c 0.306717,0 4.69587,4.14934201 9.753674,9.22075931 l 9.196005,9.22076 9.527404,-9.4779103 9.527403,-9.47791101 8.518633,8.46178101 c 4.685249,4.6539803 8.518635,8.7836533 8.518635,9.1770523 0,0.3934 -3.832627,4.547899 -8.51695,9.232221 -4.684322,4.684322 -8.516949,9.183417 -8.516949,9.99799 0,0.814571 2.34548,3.634421 5.212176,6.266335 l 5.212174,4.785294 6.359245,-3.829336 c 13.539595,-8.153121 27.835759,-11.366053 45.674039,-10.264821 13.19884,0.814818 20.5044,2.889601 32.5341,9.239687 l 9.25444,4.885122 5.47435,-5.557919 5.47434,-5.557919 -9.60147,-9.651621 -9.60149,-9.651621 8.77573,-8.7757343 8.77574,-8.77573501 9.59791,9.54805301 9.59791,9.5480523 9.47418,-9.247519 9.47419,-9.2475193 8.75065,8.750657 8.75066,8.7506573 -9.33632,9.385064 -9.3363,9.385064 9.3363,9.385063 9.33632,9.385065 -8.77717,8.777166 -8.77716,8.777165 -9.33419,-9.285703 -9.33419,-9.285704 -5.61331,5.034492 c -6.04708,5.423549 -6.72958,6.860724 -4.2395,8.927306 0.88268,0.732559 3.67673,6.056106 6.20902,11.830107 8.78421,20.029413 8.99954,43.100513 0.58767,62.965493 -2.30287,5.43832 -5.13532,10.94282 -6.2943,12.23223 -1.159,1.28941 -2.10727,2.64781 -2.10727,3.01867 0,1.0433 10.0174,11.10306 11.05632,11.10306 0.50639,0 4.9852,-4.08848 9.95291,-9.08551 l 9.03222,-9.0855 8.8282,8.77642 8.82819,8.77642 -9.0862,9.13365 c -4.99742,5.0235 -9.08621,9.56773 -9.08621,10.09826 0,0.53052 4.08813,4.96039 9.08474,9.84413 4.99661,4.88376 9.08475,9.03933 9.08475,9.2346 0,0.19528 -3.99749,4.28831 -8.8833,9.09564 l -8.88332,8.74058 z m -66.09024,-52.3009 c 4.52818,-1.76401 8.23305,-3.74375 8.23305,-4.39941 0,-0.65564 -6.1322,-7.30831 -13.62712,-14.78371 l -13.62712,-13.59162 -13.627124,13.59162 c -7.49491,7.4754 -13.62712,14.11947 -13.62712,14.76462 0,1.21004 10.40579,5.72364 17.175154,7.44988 7.04907,1.79756 20.22885,0.42462 29.10028,-3.03138 z m -50.243924,-36.79091 13.5977,-13.63322 -14.35784,-14.357843 -14.357833,-14.35784 -2.276176,4.46168 c -7.037552,13.794743 -7.693898,30.002093 -1.775883,43.852433 1.796104,4.20355 3.784649,7.64849 4.41899,7.65541 0.634338,0.007 7.272309,-6.12236 14.751042,-13.62062 z m 80.946474,8.23915 c 3.43179,-8.01872 5.19949,-18.71634 4.38322,-26.52597 -0.90783,-8.68571 -3.71929,-18.415953 -6.1968,-21.446663 -1.88738,-2.30882 -2.14764,-2.11721 -15.97804,11.76395 l -14.05939,14.110993 13.4916,13.64129 c 7.42038,7.50269 14.06745,13.68834 14.77126,13.74587 0.7038,0.0576 2.31847,-2.32273 3.58815,-5.28947 z M 127.57907,81.098007 c 8.55126,-8.57559 12.69827,-13.528717 12.26728,-14.651869 -1.1315,-2.948601 -13.16648,-6.673238 -23.51932,-7.278852 -6.95602,-0.40691 -11.70052,-0.02868 -16.983544,1.353905 -8.15528,2.13427 -13.67748,4.657097 -13.67748,6.248579 0,1.763799 25.434274,27.146007 27.272764,27.216937 0.94705,0.0365 7.53519,-5.76337 14.6403,-12.8887 z"
     id="path5450"
     inkscape:connector-curvature="0" />
</svg>
