<?xml version="1.0" encoding="UTF-8" standalone="no"?>
<!-- Created with Inkscape (http://www.inkscape.org/) -->

<svg
   xmlns:dc="http://purl.org/dc/elements/1.1/"
   xmlns:cc="http://creativecommons.org/ns#"
   xmlns:rdf="http://www.w3.org/1999/02/22-rdf-syntax-ns#"
   xmlns:svg="http://www.w3.org/2000/svg"
   xmlns="http://www.w3.org/2000/svg"
   xmlns:sodipodi="http://sodipodi.sourceforge.net/DTD/sodipodi-0.dtd"
   xmlns:inkscape="http://www.inkscape.org/namespaces/inkscape"
   version="1.1"
   id="svg12"
   width="39.209904mm"
   height="63.547089mm"
   viewBox="0 0 148.19491 240.17797"
   sodipodi:docname="hermetica-orthodox_cross.svg"
   inkscape:version="0.92.5 (2060ec1f9f, 2020-04-08)">
  <metadata
     id="metadata18">
    <rdf:RDF>
      <cc:Work
         rdf:about="">
        <dc:format>image/svg+xml</dc:format>
        <dc:type
           rdf:resource="http://purl.org/dc/dcmitype/StillImage" />
        <dc:title></dc:title>
      </cc:Work>
    </rdf:RDF>
  </metadata>
  <defs
     id="defs16" />
  <sodipodi:namedview
     pagecolor="#ffffff"
     bordercolor="#666666"
     borderopacity="1"
     objecttolerance="10"
     gridtolerance="10"
     guidetolerance="10"
     inkscape:pageopacity="0"
     inkscape:pageshadow="2"
     inkscape:window-width="1920"
     inkscape:window-height="997"
     id="namedview14"
     showgrid="false"
     units="mm"
     fit-margin-top="0"
     fit-margin-left="0"
     fit-margin-right="0"
     fit-margin-bottom="0"
     inkscape:zoom="0.88059701"
     inkscape:cx="74.324576"
     inkscape:cy="119.74831"
     inkscape:window-x="0"
     inkscape:window-y="28"
     inkscape:window-maximized="1"
     inkscape:current-layer="svg12" />
  <path
     style="fill:#ff0000;fill-opacity:0.01829266;stroke:#ff0000;stroke-width:0.56779659;stroke-miterlimit:4;stroke-dasharray:none;stroke-opacity:1"
     d="m 61.339186,206.8795 -0.30105,-33.01457 -5.74574,-3.17373 c -3.16016,-1.74556 -7.75931,-4.42867 -10.22034,-5.96247 -2.46103,-1.5338 -5.368878,-3.11862 -6.461887,-3.52181 -1.747932,-0.64481 -1.987288,-2.44708 -1.987288,-14.96366 0,-7.8268 0.383263,-14.22728 0.851695,-14.22328 0.468432,0.005 5.70636,2.81132 11.63983,6.23849 5.93348,3.42718 11.1714,6.2345 11.63983,6.2385 0.46843,0.004 0.8517,-8.93553 0.8517,-19.86562 V 104.75847 H 30.944915 0.28389829 V 92.266951 79.775424 H 30.944915 61.605936 V 66.148305 52.521186 H 49.682206 37.758474 V 40.029661 27.538136 h 11.923732 11.92373 V 13.911017 0.28389829 h 12.49152 12.49153 V 13.911017 27.538136 h 11.92373 11.923724 v 12.451799 12.451799 l -11.639834,0.323624 -11.63983,0.323625 v 13.059322 13.059322 l 30.377124,0.302446 30.37712,0.302447 V 92.285501 104.75847 H 117.25 86.588986 l 0.005,27.53814 0.005,27.53813 7.91115,4.54238 c 4.35113,2.4983 10.225414,5.94861 13.053954,7.66734 l 5.14287,3.12496 v 14.19284 c 0,7.80605 -0.38326,14.17838 -0.85169,14.16072 -0.46844,-0.0177 -3.90683,-2.06173 -7.64088,-4.54237 -3.73405,-2.48065 -7.311174,-4.52164 -7.949154,-4.53553 -0.63799,-0.0139 -2.43752,-1.02455 -3.99896,-2.24593 -5.61282,-4.39041 -5.67796,-4.12983 -5.67796,22.71187 v 24.98305 h -12.47438 -12.47437 z"
     id="path5484"
     inkscape:connector-curvature="0" />
</svg>
