<?xml version="1.0" encoding="UTF-8" standalone="no"?>
<!-- Created with Inkscape (http://www.inkscape.org/) -->

<svg
   xmlns:dc="http://purl.org/dc/elements/1.1/"
   xmlns:cc="http://creativecommons.org/ns#"
   xmlns:rdf="http://www.w3.org/1999/02/22-rdf-syntax-ns#"
   xmlns:svg="http://www.w3.org/2000/svg"
   xmlns="http://www.w3.org/2000/svg"
   xmlns:sodipodi="http://sodipodi.sourceforge.net/DTD/sodipodi-0.dtd"
   xmlns:inkscape="http://www.inkscape.org/namespaces/inkscape"
   version="1.1"
   id="svg2"
   width="62.238007mm"
   height="62.262653mm"
   viewBox="0 0 235.23026 235.32342"
   sodipodi:docname="hermetica-preserve.svg"
   inkscape:version="0.92.5 (2060ec1f9f, 2020-04-08)">
  <metadata
     id="metadata8">
    <rdf:RDF>
      <cc:Work
         rdf:about="">
        <dc:format>image/svg+xml</dc:format>
        <dc:type
           rdf:resource="http://purl.org/dc/dcmitype/StillImage" />
        <dc:title></dc:title>
      </cc:Work>
    </rdf:RDF>
  </metadata>
  <defs
     id="defs6" />
  <sodipodi:namedview
     pagecolor="#ffffff"
     bordercolor="#666666"
     borderopacity="1"
     objecttolerance="10"
     gridtolerance="10"
     guidetolerance="10"
     inkscape:pageopacity="0"
     inkscape:pageshadow="2"
     inkscape:window-width="1920"
     inkscape:window-height="997"
     id="namedview4"
     showgrid="false"
     units="mm"
     fit-margin-top="0"
     fit-margin-left="0"
     fit-margin-right="0"
     fit-margin-bottom="0"
     inkscape:zoom="0.88059701"
     inkscape:cx="118.37136"
     inkscape:cy="116.80368"
     inkscape:window-x="0"
     inkscape:window-y="28"
     inkscape:window-maximized="1"
     inkscape:current-layer="svg2" />
  <path
     style="fill:#ff0000;fill-opacity:0.01829266;stroke:#ff0000;stroke-width:0.56779659;stroke-miterlimit:4;stroke-dasharray:none;stroke-opacity:1"
     d="m 113.60187,234.36493 c -2.18602,-0.62742 -5.84365,-0.89126 -8.12807,-0.58631 -2.28443,0.30496 -4.63366,0.0743 -5.22053,-0.51256 -0.586859,-0.58686 -3.690639,-1.26236 -6.897279,-1.50109 -3.20664,-0.23875 -6.4786,-0.84559 -7.27101,-1.34853 -0.7924,-0.50295 -1.69625,-0.95114 -2.008535,-0.99596 -3.948005,-0.5667 -8.718304,-2.26359 -10.018533,-3.56382 -0.896634,-0.89664 -2.288588,-1.37762 -3.093231,-1.06884 -0.804643,0.30876 -1.757178,-0.20525 -2.116743,-1.14226 -0.359567,-0.93703 -1.127186,-1.41108 -1.705819,-1.05346 -0.578635,0.35761 -1.7442,0.007 -2.590144,-0.77972 -0.845945,-0.78646 -2.287603,-1.59865 -3.203686,-1.80488 -0.916082,-0.20622 -2.045878,-0.97275 -2.510657,-1.70339 -0.464779,-0.73064 -0.852878,-0.94518 -0.862442,-0.47674 -0.0095,0.46843 -0.993796,-0.12471 -2.187182,-1.3181 -1.193387,-1.19339 -4.00398,-3.04017 -6.245763,-4.10396 -2.241783,-1.0638 -4.07597,-2.30858 -4.07597,-2.76619 0,-0.45761 -5.879535,4.96629 -13.065632,12.05311 -7.186098,7.08682 -13.556861,12.88514 -14.15725,12.88514 -0.600391,0 -4.860106,-3.6834 -9.4660349,-8.18532 L 0.40294307,218.20673 13.282068,205.21967 c 7.083518,-7.14289 12.879124,-13.61726 12.879124,-14.3875 0,-0.77024 -0.760899,-2.03193 -1.690887,-2.80375 -0.929988,-0.77182 -1.432455,-1.82146 -1.116595,-2.33253 0.315861,-0.51107 -0.453041,-1.6488 -1.708669,-2.52827 -1.255628,-0.87948 -1.945534,-1.93648 -1.533123,-2.34888 0.412411,-0.41242 0.188089,-0.74985 -0.498496,-0.74985 -0.686583,0 -1.605697,-1.12595 -2.042475,-2.50212 -0.436779,-1.37617 -1.497945,-3.20593 -2.358149,-4.06613 -0.860204,-0.8602 -1.273643,-2.03382 -0.918753,-2.60804 0.354889,-0.57423 0.07392,-1.04405 -0.624379,-1.04405 -0.698298,0 -0.979267,-0.46981 -0.624379,-1.04404 0.35489,-0.57422 -0.253723,-1.94302 -1.352472,-3.04176 -1.098749,-1.09876 -1.9311909,-2.28975 -1.8498719,-2.64664 0.08132,-0.35691 -0.315781,-1.86837 -0.882445,-3.3588 -0.566664,-1.49044 -1.196426,-3.53451 -1.39947,-4.54237 -0.203044,-1.00788 -0.888584,-3.11003 -1.523421,-4.67147 -0.634838,-1.56144 -0.945033,-3.38963 -0.689324,-4.06264 0.25571,-0.67301 -0.125907,-2.71708 -0.848037,-4.54238 -0.72213,-1.82529 -1.465233,-5.10727 -1.65134,-7.29329 -0.74714,-8.77591 -0.761683,-28.2402 -0.02199,-29.43705 0.433509,-0.70143 0.641972,-2.66937 0.463251,-4.37321 -0.178722,-1.703833 0.06964,-3.736343 0.551924,-4.516693 0.482279,-0.78034 0.561046,-1.92983 0.175037,-2.5544 -0.38601,-0.62458 -0.128538,-1.1356 0.572158,-1.1356 0.700697,0 1.183027,-0.89428 1.071844,-1.98728 -0.111182,-1.09301 -0.07943,-2.37055 0.07057,-2.83899 0.149995,-0.46843 0.400472,-1.36271 0.556616,-1.98728 0.156144,-0.62458 0.411653,-1.391106 0.567797,-1.703395 0.156144,-0.312288 0.376625,-0.951059 0.489958,-1.419491 0.113333,-0.468432 0.601076,-2.5125 1.083873,-4.542373 0.482797,-2.029873 1.4029,-3.690678 2.0446729,-3.690678 0.641774,0 0.872717,-0.766525 0.513209,-1.70339 -0.35951,-0.936864 -0.128515,-1.70339 0.51332,-1.70339 0.641833,0 0.884239,-0.45747 0.538678,-1.0166 -0.345562,-0.559131 0.06264,-1.281735 0.907104,-1.605788 0.844469,-0.324052 1.838474,-2.104563 2.208898,-3.956689 0.370426,-1.852127 1.501623,-4.195624 2.51377,-5.207772 1.012148,-1.012148 1.420506,-1.855809 0.907462,-1.874802 -0.513046,-0.01899 -0.02778,-0.561416 1.078362,-1.205386 1.106145,-0.643971 1.747852,-1.596918 1.426015,-2.117662 -0.321838,-0.520744 0.21082,-1.252252 1.183685,-1.625575 0.972864,-0.373323 1.486572,-1.135494 1.141575,-1.693712 -0.344999,-0.558219 0.133628,-1.646434 1.063616,-2.418255 0.929988,-0.771821 1.690887,-2.201913 1.690887,-3.177983 0,-0.976069 -5.748941,-7.453499 -12.775424,-14.394288 L 0.61035007,18.137813 9.2992811,9.2705726 17.988214,0.40333259 31.745805,14.132808 c 13.719813,13.691774 13.763777,13.72329 16.010222,11.476846 1.238945,-1.238946 2.763645,-2.252629 3.388221,-2.252629 0.624577,0 1.135594,-0.511017 1.135594,-1.135593 0,-0.624576 0.766525,-1.135593 1.703389,-1.135593 0.936865,0 1.70339,-0.541176 1.70339,-1.202613 0,-0.661436 0.514626,-0.884555 1.143614,-0.49582 0.628987,0.388736 1.44906,-0.08919 1.822383,-1.062051 0.373323,-0.972865 1.100928,-1.507935 1.616901,-1.189047 0.515974,0.318889 1.261357,0.05681 1.656408,-0.582395 0.860937,-1.393025 7.227528,-4.786641 9.643429,-5.140284 3.386311,-0.495692 6.82913,-1.9658184 6.82913,-2.9161214 0,-0.532129 0.766525,-0.673364 1.703389,-0.313855 0.936865,0.359508 1.70339,0.132879 1.70339,-0.503621 0,-1.042983 7.049906,-2.917771 11.355936,-3.019896 0.93686,-0.02222 2.37403,-0.473517 3.1937,-1.002884 1.7764,-1.147242 41.527209,-1.309309 43.359679,-0.17678 0.69921,0.432138 2.39189,0.927091 3.7615,1.099896 6.50402,0.820618 11.00715,2.09959 11.00715,3.126229 0,0.621889 0.76653,0.836564 1.70339,0.477056 0.93687,-0.359509 1.70339,-0.240699 1.70339,0.264021 0,1.136392 5.76057,3.8493494 6.53313,3.0767954 0.71314,-0.713148 8.96944,3.459955 9.9344,5.021293 0.39782,0.643689 1.14547,0.909435 1.66144,0.590546 0.51598,-0.318888 1.24358,0.216182 1.6169,1.189047 0.37333,0.972864 1.10478,1.505551 1.62548,1.183749 0.52068,-0.321801 3.37323,1.420077 6.33899,3.870841 l 5.3923,4.455934 12.75263,-13.027563 c 7.01396,-7.1651594 13.52322,-13.0275624 14.46504,-13.0275624 2.22111,0 8.11274,6.137566 6.97949,7.270824 -0.47718,0.477177 -0.10107,0.697255 0.8358,0.489063 0.94303,-0.209563 1.56411,0.292779 1.39135,1.1253694 -0.17161,0.827145 0.13345,1.228578 0.67793,0.892073 1.1799,-0.729219 6.63483,4.992779 6.52456,6.843991 -0.0422,0.709946 -5.57033,6.659204 -12.28452,13.220573 -12.047,11.772789 -14.53084,15.897212 -10.50424,17.442362 0.93687,0.359509 1.70339,1.365504 1.70339,2.235546 0,0.870042 0.47139,1.581894 1.04753,1.581894 0.57613,0 1.6365,1.784616 2.35636,3.965815 0.71986,2.181199 2.08282,4.398959 3.0288,4.928355 0.94598,0.529397 1.59861,1.17211 1.4503,1.428253 -0.14832,0.256142 0.80604,2.574259 2.12078,5.151372 1.31475,2.577114 2.07166,5.004445 1.68204,5.394068 -0.38962,0.389624 -0.22097,0.708408 0.37479,0.708408 0.59576,0 1.16924,1.142219 1.2744,2.538266 0.10516,1.396046 0.69622,2.706604 1.31346,2.912351 0.61724,0.205747 0.84078,1.107595 0.49676,2.004107 -0.34402,0.896511 0.0254,1.630022 0.82086,1.630022 0.79549,0 1.1383,0.308052 0.76179,0.684562 -0.37651,0.376509 -0.18401,2.001109 0.42777,3.610209 0.61179,1.60911 1.35215,4.75042 1.64524,6.9807 0.29311,2.23027 1.12864,8.076403 1.85672,12.991413 0.98696,6.66237 1.00417,11.57484 0.0677,19.30508 -1.7531,14.47106 -2.40275,18.3353 -3.6213,21.54034 -0.58337,1.53437 -0.75262,3.09781 -0.37611,3.47433 0.37651,0.3765 0.0337,0.68456 -0.76179,0.68456 -0.8191,0 -1.16288,0.73872 -0.7927,1.70339 0.3595,0.93686 0.10402,1.70338 -0.5678,1.70338 -0.6718,0 -0.92731,0.76653 -0.56779,1.70339 0.3595,0.93687 0.12851,1.70339 -0.51333,1.70339 -0.64183,0 -0.85115,0.51102 -0.46514,1.1356 0.38601,0.62457 0.16067,1.13559 -0.50077,1.13559 -0.66144,0 -1.09889,0.38326 -0.97211,0.8517 0.39978,1.47715 -2.91262,9.36864 -3.93244,9.36864 -0.53596,0 -0.65865,0.51102 -0.27264,1.13559 0.38601,0.62458 0.1305,1.1356 -0.5678,1.1356 -0.6983,0 -0.9869,0.45747 -0.64134,1.0166 0.34556,0.55912 -0.16768,1.32205 -1.14055,1.69536 -0.97286,0.37333 -1.49861,1.11601 -1.16833,1.65041 0.33027,0.5344 -0.40387,2.0497 -1.63142,3.36731 -1.22755,1.31763 -2.23192,2.8734 -2.23192,3.45727 0,0.58387 -0.76652,1.35572 -1.70339,1.71524 -3.92904,1.5077 -1.50433,5.58504 10.11464,17.00855 6.49992,6.39057 11.99335,12.43405 12.20763,13.42997 0.36662,1.70398 -13.89731,16.84573 -15.86912,16.84573 -0.47963,0 -6.56798,-5.62119 -13.52967,-12.49153 -6.96168,-6.87034 -13.13726,-12.49152 -13.72353,-12.49152 -0.58626,0 -1.70208,0.76652 -2.47961,1.70339 -0.77753,0.93686 -2.13368,1.70339 -3.01367,1.70339 -0.87999,0 -1.893,0.76359 -2.25113,1.69687 -0.35813,0.93327 -1.11222,1.4119 -1.67577,1.06361 -0.56354,-0.34829 -1.33007,0.16273 -1.70339,1.13559 -0.37332,0.97287 -1.13624,1.48612 -1.69537,1.14055 -0.55913,-0.34556 -1.0166,-0.14911 -1.0166,0.43655 0,0.89016 -6.09266,4.09345 -7.94915,4.17937 -1.62516,0.0752 -7.94916,3.23388 -7.94916,3.9704 0,0.7411 -5.10947,2.4086 -8.51695,2.77956 -0.62457,0.068 -1.78392,0.52945 -2.57633,1.02546 -0.79241,0.49601 -3.9867,1.09138 -7.09843,1.32305 -3.11172,0.23168 -6.2362,0.77878 -6.94329,1.21578 -0.70709,0.437 -4.41152,0.90189 -8.23209,1.0331 -3.82055,0.13119 -7.71299,0.52342 -8.64986,0.87162 -0.93686,0.3482 -3.49194,0.11974 -5.67796,-0.50768 z m 14.76271,-24.84714 c 0,-0.68127 0.9612,-0.90705 2.19473,-0.51554 1.2071,0.38312 5.35639,-0.34133 9.22063,-1.60991 3.86424,-1.26856 7.43213,-2.05542 7.92862,-1.74856 0.49649,0.30685 1.07411,0.0737 1.28361,-0.51797 0.20949,-0.59173 1.79194,-1.32864 3.51655,-1.63759 1.72462,-0.30894 5.74934,-2.2553 8.94383,-4.32526 3.19448,-2.06996 6.12708,-3.66675 6.51688,-3.54842 0.38979,0.11833 1.82331,-0.83197 3.1856,-2.11177 l 2.47687,-2.32691 -27.0115,-27.12976 c -14.85633,-14.92136 -27.54887,-27.12975 -28.20565,-27.12975 -1.01968,0 -44.500576,42.67791 -52.365253,51.3982 -2.598261,2.88093 -2.621888,3.06434 -0.648911,5.03732 1.126142,1.12614 2.33954,2.08399 2.69644,2.12857 1.975638,0.2467 6.894674,3.28965 6.894674,4.26508 0,0.62843 0.316343,0.82624 0.702987,0.4396 0.386642,-0.38665 1.449874,0.0439 2.362737,0.95676 0.912863,0.91286 2.129571,1.36939 2.703794,1.01449 0.574223,-0.35488 1.044041,-0.0739 1.044041,0.62439 0,0.6983 0.475707,0.97563 1.057126,0.61629 0.581419,-0.35934 1.383255,-0.12565 1.781856,0.5193 0.3986,0.64495 1.20044,0.87864 1.78186,0.5193 0.58142,-0.35934 1.05712,-0.16895 1.05712,0.42309 0,0.59205 0.63878,1.02783 1.4195,0.96842 2.49493,-0.18986 10.45458,1.75273 11.908979,2.90644 0.77261,0.61288 2.68892,0.79202 4.25847,0.3981 1.64956,-0.41402 2.85373,-0.22794 2.85373,0.44098 0,0.70019 4.03646,1.15723 10.22034,1.15723 6.48666,0 10.22034,-0.44281 10.22034,-1.21212 z M 72.634467,145.82855 c 12.226564,-12.27412 23.450874,-23.62498 24.942904,-25.2241 L 100.29017,117.69693 73.509322,90.871037 C 44.107472,61.419734 43.720281,61.177306 40.187199,70.007347 c -0.979598,2.448255 -2.266776,4.451373 -2.860397,4.451373 -0.59362,0 -0.763485,0.511017 -0.377475,1.135593 0.38601,0.624577 0.130501,1.135593 -0.567797,1.135593 -0.698297,0 -0.986899,0.457471 -0.641338,1.016601 0.345562,0.55913 -0.105599,1.298223 -1.002589,1.642428 -0.896987,0.344207 -1.597673,1.547542 -1.557082,2.674078 0.04059,1.126537 -0.755626,4.284324 -1.769373,7.017294 -1.013747,2.73298 -1.843177,5.92683 -1.843177,7.09746 0,1.17063 -0.566416,2.12841 -1.2587,2.12841 -0.775563,0 -0.9852,1.08971 -0.546162,2.838983 0.391897,1.56144 0.238493,2.83899 -0.340898,2.83899 -1.341666,0 -1.288958,28.23852 0.05426,29.06867 0.546126,0.33752 0.668839,1.13812 0.272695,1.77909 -0.396145,0.64098 -0.189648,2.26648 0.45888,3.61221 1.87493,3.89062 4.766706,13.44193 4.766706,15.74406 0,1.1575 0.734259,2.3863 1.631686,2.73067 0.897426,0.34438 1.390422,1.25486 1.095544,2.0233 -0.294878,0.76844 0.491863,2.3275 1.748315,3.46457 1.256451,1.13708 2.01084,2.51012 1.67642,3.05123 -0.334421,0.5411 -0.06686,0.98382 0.594575,0.98382 0.661436,0 1.202612,0.59591 1.202612,1.32423 0,0.72832 0.89428,2.202 1.987289,3.27481 2.473823,2.42813 0.6435,3.98067 29.723274,-25.21226 z m 122.110443,23.07368 c -0.17966,-0.2082 0.6528,-1.35799 1.84989,-2.55509 1.19711,-1.1971 2.17656,-2.94308 2.17656,-3.87994 0,-0.93687 0.59619,-1.70339 1.32486,-1.70339 0.72867,0 1.00216,-0.3227 0.60775,-0.71711 -0.39441,-0.39441 -0.1155,-1.79971 0.61979,-3.12288 0.73529,-1.32318 1.22833,-2.78904 1.09564,-3.25747 -0.1327,-0.46843 0.32442,-0.85169 1.01583,-0.85169 0.69139,0 0.97561,-0.73352 0.63159,-1.63002 -0.34402,-0.89652 -0.0889,-1.80889 0.56688,-2.02749 0.65582,-0.2186 1.39358,-2.16793 1.63949,-4.33185 0.2459,-2.1639 0.78302,-4.7009 1.19359,-5.63776 2.61571,-5.96864 2.61571,-36.04832 0,-42.016953 -0.41057,-0.93687 -0.94769,-3.47386 -1.19359,-5.63777 -0.24591,-2.16391 -0.98367,-4.11324 -1.63949,-4.33185 -0.6558,-0.2186 -0.9109,-1.13097 -0.56688,-2.02748 0.34402,-0.896511 0.0296,-1.630021 -0.69861,-1.630021 -0.72826,0 -1.03525,-0.467371 -0.68222,-1.038602 0.35304,-0.571231 0.14247,-1.210002 -0.46793,-1.419492 -0.61041,-0.209488 -1.29917,-1.631449 -1.53058,-3.15991 -0.23141,-1.52846 -1.0159,-2.977403 -1.74331,-3.219872 -0.7274,-0.242468 -1.04522,-0.889584 -0.70627,-1.438035 0.33897,-0.548449 -0.38178,-1.99527 -1.60167,-3.215155 -1.21989,-1.219886 -1.96128,-2.474664 -1.64755,-2.788397 0.65384,-0.653844 -4.0887,-3.405038 -4.88481,-2.833729 -0.2881,0.206747 -12.6365,12.378195 -27.44088,27.047663 l -26.91705,26.671763 27.6531,27.63041 c 26.60519,26.58336 27.72927,27.55216 29.66282,25.56553 1.10534,-1.13568 1.86271,-2.23522 1.68305,-2.44341 z M 145.76055,72.858047 c 26.19398,-26.232913 27.56577,-27.81557 25.58178,-29.514309 -1.15301,-0.987246 -2.09639,-1.446815 -2.09639,-1.021265 0,0.42555 -0.75028,-0.218222 -1.66728,-1.430605 -0.91699,-1.212385 -1.68352,-1.826073 -1.70339,-1.363754 -0.0199,0.462319 -0.93039,0.07487 -2.0234,-0.860989 -1.09301,-0.935863 -2.37994,-1.681353 -2.85987,-1.656643 -0.47991,0.02471 -3.20209,-1.320263 -6.04928,-2.988826 -2.84719,-1.668565 -6.71065,-3.212354 -8.58546,-3.430643 -1.87482,-0.218291 -4.0073,-0.772541 -4.73885,-1.231668 -2.09856,-1.317069 -9.39933,-1.941048 -22.90637,-1.957752 -13.86978,-0.01715 -21.291029,0.697984 -25.550849,2.462167 -1.56144,0.646662 -3.20772,0.959059 -3.6584,0.694216 -0.45068,-0.264844 -4.79433,1.706494 -9.652544,4.380752 -4.858218,2.674257 -9.235026,4.867262 -9.726239,4.873343 -0.491212,0.0061 -1.377668,0.777581 -1.969899,1.714446 -0.592231,0.936864 -1.084608,1.283625 -1.094172,0.77058 -0.01915,-1.02734 -3.424169,2.078575 -3.424169,3.123385 0,0.520977 53.292532,54.651898 54.193642,55.046198 0.13913,0.0609 12.70814,-12.363013 27.93114,-27.608633 z"
     id="path5241"
     inkscape:connector-curvature="0" />
</svg>
