<?xml version="1.0" encoding="UTF-8" standalone="no"?>
<!-- Created with Inkscape (http://www.inkscape.org/) -->

<svg
   xmlns:dc="http://purl.org/dc/elements/1.1/"
   xmlns:cc="http://creativecommons.org/ns#"
   xmlns:rdf="http://www.w3.org/1999/02/22-rdf-syntax-ns#"
   xmlns:svg="http://www.w3.org/2000/svg"
   xmlns="http://www.w3.org/2000/svg"
   xmlns:sodipodi="http://sodipodi.sourceforge.net/DTD/sodipodi-0.dtd"
   xmlns:inkscape="http://www.inkscape.org/namespaces/inkscape"
   version="1.1"
   id="svg32"
   width="49.764965mm"
   height="34.615841mm"
   viewBox="0 0 188.08806 130.83153"
   sodipodi:docname="esoterica-jumis.svg"
   inkscape:version="0.92.5 (2060ec1f9f, 2020-04-08)">
  <metadata
     id="metadata38">
    <rdf:RDF>
      <cc:Work
         rdf:about="">
        <dc:format>image/svg+xml</dc:format>
        <dc:type
           rdf:resource="http://purl.org/dc/dcmitype/StillImage" />
        <dc:title></dc:title>
      </cc:Work>
    </rdf:RDF>
  </metadata>
  <defs
     id="defs36" />
  <sodipodi:namedview
     pagecolor="#ffffff"
     bordercolor="#666666"
     borderopacity="1"
     objecttolerance="10"
     gridtolerance="10"
     guidetolerance="10"
     inkscape:pageopacity="0"
     inkscape:pageshadow="2"
     inkscape:window-width="1920"
     inkscape:window-height="997"
     id="namedview34"
     showgrid="false"
     units="mm"
     fit-margin-top="0"
     fit-margin-left="0"
     fit-margin-right="0"
     fit-margin-bottom="0"
     inkscape:zoom="0.88059701"
     inkscape:cx="93.77169"
     inkscape:cy="65.376458"
     inkscape:window-x="0"
     inkscape:window-y="28"
     inkscape:window-maximized="1"
     inkscape:current-layer="svg32" />
  <path
     style="fill:#000000;fill-opacity:0;stroke:#ff0000;stroke-width:0.56779659;stroke-miterlimit:4;stroke-dasharray:none;stroke-opacity:1"
     d="M 27.893506,121.55095 19.589899,112.9672 47.482489,85.057865 C 62.82341,69.707735 75.37508,56.629985 75.37508,55.996215 c 0,-0.63377 -4.31268,-5.44258 -9.58373,-10.68625 L 56.207627,35.776025 37.171981,54.732745 18.136335,73.689455 9.2692092,64.874335 0.40208419,56.059225 28.231016,28.230287 56.059948,0.40135452 74.53089,18.846855 c 10.15903,10.145024 18.97069,18.4455 19.58148,18.4455 0.61079,0 9.39114,-8.269215 19.51191,-18.376029 L 132.02566,0.54029752 159.85581,28.3677 l 27.83015,27.827405 -8.7904,8.73884 -8.7904,8.73885 -18.95045,-19.04148 -18.95043,-19.04148 -9.67731,9.62703 c -5.32253,5.29487 -9.67731,10.15325 -9.67731,10.7964 0,0.64314 12.51622,13.67776 27.81383,28.96581 l 27.81385,27.796465 -8.77521,8.82697 -8.7752,8.82698 L 122.51129,102.03025 94.09566,73.631015 65.7227,102.021 c -15.605127,15.6145 -28.632299,28.32783 -28.949272,28.25185 -0.316973,-0.076 -4.312937,-4.00085 -8.879922,-8.7219 z"
     id="path5346"
     inkscape:connector-curvature="0" />
</svg>
