<?xml version="1.0" encoding="UTF-8" standalone="no"?>
<!-- Created with Inkscape (http://www.inkscape.org/) -->

<svg
   xmlns:dc="http://purl.org/dc/elements/1.1/"
   xmlns:cc="http://creativecommons.org/ns#"
   xmlns:rdf="http://www.w3.org/1999/02/22-rdf-syntax-ns#"
   xmlns:svg="http://www.w3.org/2000/svg"
   xmlns="http://www.w3.org/2000/svg"
   xmlns:sodipodi="http://sodipodi.sourceforge.net/DTD/sodipodi-0.dtd"
   xmlns:inkscape="http://www.inkscape.org/namespaces/inkscape"
   version="1.1"
   id="svg12"
   width="66.897415mm"
   height="66.815826mm"
   viewBox="0 0 252.84063 252.53226"
   sodipodi:docname="esoterica-perkonkrusts_alt2.svg"
   inkscape:version="0.92.5 (2060ec1f9f, 2020-04-08)">
  <metadata
     id="metadata18">
    <rdf:RDF>
      <cc:Work
         rdf:about="">
        <dc:format>image/svg+xml</dc:format>
        <dc:type
           rdf:resource="http://purl.org/dc/dcmitype/StillImage" />
        <dc:title></dc:title>
      </cc:Work>
    </rdf:RDF>
  </metadata>
  <defs
     id="defs16" />
  <sodipodi:namedview
     pagecolor="#ffffff"
     bordercolor="#666666"
     borderopacity="1"
     objecttolerance="10"
     gridtolerance="10"
     guidetolerance="10"
     inkscape:pageopacity="0"
     inkscape:pageshadow="2"
     inkscape:window-width="1920"
     inkscape:window-height="997"
     id="namedview14"
     showgrid="false"
     units="mm"
     fit-margin-top="0"
     fit-margin-left="0"
     fit-margin-right="0"
     fit-margin-bottom="0"
     inkscape:zoom="0.88059701"
     inkscape:cx="126.07963"
     inkscape:cy="125.42627"
     inkscape:window-x="0"
     inkscape:window-y="28"
     inkscape:window-maximized="1"
     inkscape:current-layer="svg12" />
  <path
     style="fill:#000000;fill-opacity:0;stroke:#ff0000;stroke-width:0.56779659;stroke-miterlimit:4;stroke-dasharray:none;stroke-opacity:1"
     d="m 112.2488,240.34812 -11.85975,-11.90025 37.71477,-37.6571 c 20.74314,-20.7114 37.71479,-37.988 37.71479,-38.39244 0,-1.10752 -10.71559,-11.4381 -11.86438,-11.4381 -0.54904,0 -17.61673,16.62558 -37.92821,36.94574 l -36.929963,36.94574 -6.037027,-5.96203 c -3.320364,-3.27912 -6.037027,-6.32193 -6.037027,-6.76181 0,-0.43988 2.291136,-3.01241 5.091413,-5.71676 2.800277,-2.70434 5.099854,-5.44722 5.110169,-6.09526 0.01033,-0.64806 -2.54294,-3.70147 -5.673905,-6.78536 l -5.692662,-5.60706 -5.923996,5.924 -5.923994,5.924 -6.552755,-6.48438 -6.552753,-6.48438 5.921041,-5.99552 5.92104,-5.99551 -5.594533,-5.67995 c -3.076994,-3.12397 -6.107209,-5.67994 -6.73381,-5.67994 -0.626601,0 -3.591039,2.4149 -6.587638,5.36644 l -5.448362,5.36644 -6.486742,-6.48675 -6.486742,-6.48674 5.366436,-5.44836 c 2.95154,-2.9966 5.366437,-5.96104 5.366437,-6.58764 0,-0.62659 -2.535504,-3.63665 -5.634454,-6.689 l -5.634452,-5.54973 -5.887873,5.98148 -5.887872,5.98147 -6.3474072,-6.34741 -6.34740746,-6.34741 12.38713566,-12.42566 12.387136,-12.42566 37.392222,37.40519 c 20.565723,20.57287 37.894335,37.40521 38.508025,37.40521 1.47371,0 11.10684,-9.33096 11.13094,-10.78178 0.0103,-0.62108 -16.67102,-17.82476 -37.06964,-38.2304 L 38.048608,90.050262 41.029391,86.507804 c 1.639429,-1.948354 4.566307,-4.876591 6.504172,-6.507196 l 3.523389,-2.964737 5.356278,5.275736 c 2.945952,2.901656 5.746322,5.275737 6.223042,5.275737 0.476721,0 3.465099,-2.598335 6.640842,-5.774078 l 5.774078,-5.774078 -5.878474,-5.952416 -5.878475,-5.952414 6.519374,-6.467588 6.519374,-6.467588 5.930061,5.856398 5.930061,5.856399 5.770377,-5.680075 c 3.17371,-3.124042 5.77038,-6.152976 5.77038,-6.730963 0,-0.577988 -2.29958,-3.307751 -5.11017,-6.066139 -2.810595,-2.758389 -5.110172,-5.341262 -5.110172,-5.739719 0,-0.398456 2.718522,-3.48674 6.041162,-6.862854 l 6.04116,-6.138388 5.46213,5.395904 c 3.00417,2.967747 5.89479,5.395904 6.42362,5.395904 0.52881,0 3.52758,-2.447544 6.66393,-5.438987 l 5.70245,-5.438986 -5.67569,-5.590359 c -3.12165,-3.074697 -5.67571,-5.914221 -5.67571,-6.310054 0,-0.395833 2.78677,-3.55131 6.19281,-7.0121706 l 6.1928,-6.29247489 12.39862,12.33980549 12.39862,12.339807 -38.06307,38.141898 -38.063082,38.141902 5.517945,5.60218 c 3.034869,3.0812 6.045311,5.60219 6.689869,5.60219 0.64456,0 17.909268,-16.731582 38.366018,-37.181286 l 37.19408,-37.18128 6.50696,6.506956 6.50695,6.506957 -5.93774,6.012442 -5.93776,6.01244 6.26002,6.182259 6.26001,6.182258 5.92598,-5.925975 5.92598,-5.925976 6.40083,6.334039 6.40083,6.334038 -5.52597,5.52596 c -3.03928,3.039278 -5.52596,5.952767 -5.52596,6.47442 0,0.521653 2.52475,3.435236 5.61054,6.474626 5.54326,5.459922 5.64518,5.503462 8.50113,3.63217 1.58983,-1.04169 3.6949,-3.12151 4.67793,-4.6218 3.18912,-4.867204 5.0263,-4.575491 11.50989,1.82756 l 6.04258,5.967512 -5.92266,5.99716 -5.92266,5.99716 5.59453,5.67994 c 3.077,3.12397 6.10721,5.67994 6.73381,5.67994 0.6266,0 3.59104,-2.41489 6.58763,-5.36644 l 5.44836,-5.36644 6.49853,6.49852 6.49851,6.49852 -12.46289,12.50164 -12.46288,12.50165 -38.07775,-38.06538 -38.07774,-38.065396 -6.17783,6.25554 -6.17784,6.255542 35.72585,35.652594 c 19.64922,19.60894 36.63064,36.65509 37.7365,37.88035 1.95093,2.16157 1.81599,2.41894 -4.54237,8.66326 l -6.55303,6.43549 -5.4746,-5.69905 c -3.01104,-3.13447 -5.84084,-5.69904 -6.28845,-5.69904 -1.34677,0 -11.51661,10.76346 -11.51661,12.18884 0,0.72749 1.81303,2.70555 4.02895,4.39572 7.18495,5.48023 7.21933,6.7184 0.37885,13.64492 l -6.03665,6.11258 -5.89534,-5.8221 -5.89533,-5.8221 -5.78177,5.40816 c -3.17997,2.97449 -5.78176,5.95945 -5.78176,6.63325 0,0.6738 2.31846,3.57894 5.15215,6.45589 3.28426,3.3344 4.88221,5.81877 4.40759,6.85257 -0.40951,0.89197 -3.25788,3.88352 -6.32972,6.6479 l -5.58515,5.02614 -5.3911,-5.31004 c -2.96511,-2.92052 -5.90593,-5.31004 -6.53515,-5.31004 -1.78558,0 -10.70167,9.53653 -10.70167,11.44637 0,0.93933 2.30223,3.96734 5.11606,6.7289 l 5.11606,5.02104 -5.92896,6.00354 c -3.26094,3.30196 -6.46657,6.00354 -7.12365,6.00354 -0.65706,0 -6.53155,-5.3551 -13.05441,-11.90024 z m 27.02466,-101.10731 12.08524,-11.93974 -12.7461,-12.7461 -12.74609,-12.74609 -11.93072,11.89013 c -6.56191,6.53957 -11.93074,12.38017 -11.93074,12.97909 0,1.34925 22.88335,24.50247 24.21688,24.50247 0.53146,0 6.40464,-5.37289 13.05153,-11.93976 z"
     id="path5407"
     inkscape:connector-curvature="0" />
</svg>
