<?xml version="1.0" encoding="UTF-8" standalone="no"?>
<!-- Created with Inkscape (http://www.inkscape.org/) -->

<svg
   xmlns:dc="http://purl.org/dc/elements/1.1/"
   xmlns:cc="http://creativecommons.org/ns#"
   xmlns:rdf="http://www.w3.org/1999/02/22-rdf-syntax-ns#"
   xmlns:svg="http://www.w3.org/2000/svg"
   xmlns="http://www.w3.org/2000/svg"
   xmlns:sodipodi="http://sodipodi.sourceforge.net/DTD/sodipodi-0.dtd"
   xmlns:inkscape="http://www.inkscape.org/namespaces/inkscape"
   version="1.1"
   id="svg22"
   width="63.246628mm"
   height="63.568047mm"
   viewBox="0 0 239.04237 240.25719"
   sodipodi:docname="hermetica-auspice_maria.svg"
   inkscape:version="0.92.5 (2060ec1f9f, 2020-04-08)">
  <metadata
     id="metadata28">
    <rdf:RDF>
      <cc:Work
         rdf:about="">
        <dc:format>image/svg+xml</dc:format>
        <dc:type
           rdf:resource="http://purl.org/dc/dcmitype/StillImage" />
        <dc:title></dc:title>
      </cc:Work>
    </rdf:RDF>
  </metadata>
  <defs
     id="defs26" />
  <sodipodi:namedview
     pagecolor="#ffffff"
     bordercolor="#666666"
     borderopacity="1"
     objecttolerance="10"
     gridtolerance="10"
     guidetolerance="10"
     inkscape:pageopacity="0"
     inkscape:pageshadow="2"
     inkscape:window-width="1920"
     inkscape:window-height="997"
     id="namedview24"
     showgrid="false"
     units="mm"
     fit-margin-top="0"
     fit-margin-left="0"
     fit-margin-right="0"
     fit-margin-bottom="0"
     inkscape:zoom="0.88059701"
     inkscape:cx="119.74831"
     inkscape:cy="119.74855"
     inkscape:window-x="0"
     inkscape:window-y="28"
     inkscape:window-maximized="1"
     inkscape:current-layer="svg22" />
  <path
     style="fill:#ff0000;fill-opacity:0.01829266;stroke:#ff0000;stroke-width:0.56779659;stroke-miterlimit:4;stroke-dasharray:none;stroke-opacity:1"
     d="M 0.28389829,120.13192 V 0.29079678 l 13.33009471,0.319937 c 12.983635,0.311622 13.36333,0.39372402 14.608759,3.15892002 0.703265,1.561441 9.902704,21.3633472 20.4432,44.0042372 16.975406,36.463021 22.024726,45.500766 22.024726,39.421916 0,-0.958844 0.73161,-2.875158 1.625801,-4.25848 1.350714,-2.089566 9.38227,-19.155378 28.439911,-60.430385 1.44191,-3.122881 3.74436,-8.105297 5.11656,-11.072034 l 2.49491,-5.3940682 10.97074,0.02874 10.97073,0.02874 3.59146,7.6365152 c 1.97531,4.200084 5.47589,11.724651 7.77906,16.721262 7.48732,16.243304 10.94898,23.653597 16.44496,35.203389 2.97205,6.245763 6.56,14.05767 7.97323,17.359794 1.41321,3.302123 3.13719,5.817787 3.83106,5.590377 0.69387,-0.22742 10.46996,-20.048223 21.72465,-44.046236 l 20.46308,-43.63274822 13.32082,-0.319937 13.32083,-0.319937 V 120.13192 239.97305 h -13.44633 -13.44633 l -17.34257,-37.19068 c -9.53841,-20.45487 -18.69032,-40.10337 -20.33756,-43.66333 -1.64726,-3.55995 -3.51975,-6.4983 -4.1611,-6.52966 -0.64135,-0.0314 -9.84546,18.46735 -20.45357,41.10824 l -19.28747,41.16526 -10.79818,0.32187 -10.79817,0.32187 -19.282165,-41.45224 C 78.799851,171.25566 69.590239,152.58645 68.939232,152.56725 c -0.651007,-0.0192 -10.360329,19.63659 -21.576271,43.67952 l -20.392622,43.71439 -13.34322,0.006 -13.34322071,0.006 z M 134.16425,167.60971 c 7.74139,-16.65571 14.31646,-31.20546 14.61126,-32.33277 0.5068,-1.93802 -1.11545,-2.04966 -29.7843,-2.04966 -16.67617,0 -30.149965,0.43905 -29.941775,0.97565 2.04775,5.27802 29.966155,63.74535 30.427295,63.72153 0.33674,-0.0174 6.94613,-13.65904 14.68752,-30.31475 z M 40.975887,150.81792 54.981434,120.76118 49.055393,107.97305 C 45.79607,100.93957 40.975602,90.585757 38.343241,84.964569 35.710882,79.343383 32.075104,71.555695 30.263735,67.658596 c -1.811367,-3.897098 -3.676659,-7.090954 -4.145091,-7.097457 -0.468432,-0.0065 -0.851695,27.072078 -0.851695,60.174621 0,33.10254 0.383263,60.17574 0.851695,60.16266 0.468432,-0.0131 7.154192,-13.54931 14.857243,-30.0805 z M 213.77543,120.73576 c 0,-33.102543 -0.42467,-60.186445 -0.9437,-60.186445 -0.51904,0 -1.51559,1.149788 -2.21456,2.555085 -4.41257,8.871574 -26.36717,56.80118 -26.36717,57.5628 0,1.90397 27.68197,60.255 28.58523,60.255 0.51711,0 0.9402,-27.0839 0.9402,-60.18644 z m -64.72881,-14.10289 c 0,-0.88625 -0.71962,-3.05807 -1.59916,-4.82627 -0.87954,-1.7682 -3.37026,-7.047543 -5.53495,-11.731863 -6.36885,-13.782012 -10.43306,-22.550481 -16.18527,-34.91949 -2.97722,-6.401907 -5.87516,-11.63983 -6.43987,-11.63983 -0.56472,0 -2.27596,2.824697 -3.80278,6.277105 -2.582,5.838337 -4.30551,9.584242 -14.87667,32.333064 -2.176765,4.684321 -5.743775,11.961281 -7.926685,16.171021 -2.18291,4.209743 -3.64999,8.170123 -3.26018,8.800843 0.44763,0.72429 11.561625,1.14678 30.167155,1.14678 24.68044,0 29.45841,-0.26135 29.45841,-1.61136 z"
     id="path5388"
     inkscape:connector-curvature="0" />
</svg>
