<?xml version="1.0" encoding="UTF-8" standalone="no"?>
<!-- Created with Inkscape (http://www.inkscape.org/) -->

<svg
   xmlns:dc="http://purl.org/dc/elements/1.1/"
   xmlns:cc="http://creativecommons.org/ns#"
   xmlns:rdf="http://www.w3.org/1999/02/22-rdf-syntax-ns#"
   xmlns:svg="http://www.w3.org/2000/svg"
   xmlns="http://www.w3.org/2000/svg"
   xmlns:sodipodi="http://sodipodi.sourceforge.net/DTD/sodipodi-0.dtd"
   xmlns:inkscape="http://www.inkscape.org/namespaces/inkscape"
   version="1.1"
   id="svg72"
   width="57.515347mm"
   height="62.059258mm"
   viewBox="0 0 217.38084 234.55468"
   sodipodi:docname="hermetica-cupido.svg"
   inkscape:version="0.92.5 (2060ec1f9f, 2020-04-08)">
  <metadata
     id="metadata78">
    <rdf:RDF>
      <cc:Work
         rdf:about="">
        <dc:format>image/svg+xml</dc:format>
        <dc:type
           rdf:resource="http://purl.org/dc/dcmitype/StillImage" />
        <dc:title></dc:title>
      </cc:Work>
    </rdf:RDF>
  </metadata>
  <defs
     id="defs76" />
  <sodipodi:namedview
     pagecolor="#ffffff"
     bordercolor="#666666"
     borderopacity="1"
     objecttolerance="10"
     gridtolerance="10"
     guidetolerance="10"
     inkscape:pageopacity="0"
     inkscape:pageshadow="2"
     inkscape:window-width="1920"
     inkscape:window-height="997"
     id="namedview74"
     showgrid="false"
     units="mm"
     fit-margin-top="0"
     fit-margin-left="0"
     fit-margin-right="0"
     fit-margin-bottom="0"
     inkscape:zoom="0.88059701"
     inkscape:cx="482.48508"
     inkscape:cy="92.49407"
     inkscape:window-x="0"
     inkscape:window-y="28"
     inkscape:window-maximized="1"
     inkscape:current-layer="svg72" />
  <path
     style="fill:#ff0000;fill-opacity:0.01829266;stroke:#ff0000;stroke-width:0.56779659;stroke-miterlimit:4;stroke-dasharray:none;stroke-opacity:1"
     d="m 164.85966,221.21146 v -13.05932 h -13.05932 -13.05933 v -13.05933 -13.05932 h 13.05933 13.05932 V 161.59281 141.15214 H 112.01809 59.176505 l 2.78986,-4.99711 c 1.53442,-2.74842 4.10592,-7.08191 5.71445,-9.62998 1.60853,-2.54808 2.9246,-4.83402 2.9246,-5.07986 0,-0.24585 3.4086,-6.26045 7.57467,-13.36579 4.16606,-7.10533 9.88945,-17.404571 12.71864,-22.887191 4.87929,-9.455457 5.14366,-10.448825 5.13769,-19.305081 -0.005,-7.61659 -0.54073,-10.487345 -2.9072,-15.58245 -4.25699,-9.165445 -10.92031,-16.033517 -19.89687,-20.508263 -6.99236,-3.485638 -8.66621,-3.854715 -17.38964,-3.83436 -8.66519,0.02021 -10.39435,0.404823 -16.90447,3.759942 -3.98855,2.055583 -9.62068,6.207995 -12.51583,9.227584 -4.47122,4.663394 -5.60228,5.313659 -7.5108,4.318091 C 17.042675,42.292751 1.5866252,33.379374 0.4005552,32.592499 -0.7361548,31.838365 6.6684752,22.5244 12.856935,16.924165 c 7.9743,-7.2163348 17.37538,-12.1923118 28.34365,-15.0022508 10.68156,-2.73648905 27.43553,-1.72274205 37.91772,2.29432 24.617955,9.4342858 40.786215,31.3227028 42.324995,57.2991118 0.88168,14.883998 -2.18729,25.464473 -12.71571,43.838104 -2.85448,4.98149 -5.18996,9.45289 -5.18996,9.93645 0,0.48354 13.79745,0.87919 30.66101,0.87919 h 30.66102 V 96.255849 76.342609 l -4.82627,-2.1477 c -7.05174,-3.138041 -13.62804,-9.959625 -17.83002,-18.49505 -3.47523,-7.059207 -3.66986,-8.098585 -3.28113,-17.521804 0.32264,-7.820582 1.02291,-11.216577 3.19317,-15.485353 4.23058,-8.321293 9.35004,-13.6073818 17.26386,-17.8257538 9.74816,-5.19614505 21.94848,-6.03242 32.10939,-2.20095 7.5843,2.859879 16.33377,10.3238248 20.52156,17.5063888 6.75336,11.582844 5.72568,30.562382 -2.24262,41.417371 -4.55177,6.200761 -10.81088,11.408646 -15.90227,13.231492 l -3.45482,1.236909 v 19.77157 19.771561 l 13.34322,0.31994 13.34322,0.31993 v 12.41945 12.41945 l -13.34322,0.31993 -13.34322,0.31994 -0.3101,20.15678 -0.31011,20.15678 h 13.65333 13.65332 v 13.05932 13.05933 h -13.62712 -13.62712 v 13.05932 13.05932 H 177.35118 164.85966 Z M 184.82343,51.570094 c 3.76912,-2.298405 7.29308,-8.485682 7.28622,-12.79297 -0.006,-3.487637 -3.68249,-9.435727 -7.29688,-11.803965 -5.96507,-3.908459 -16.07881,-1.232055 -19.36609,5.124856 -3.59758,6.95694 -1.5962,14.584803 4.99152,19.024273 4.66505,3.143776 9.70677,3.300723 14.38523,0.447806 z"
     id="path5262"
     inkscape:connector-curvature="0" />
</svg>
