<?xml version="1.0" encoding="UTF-8" standalone="no"?>
<!-- Created with Inkscape (http://www.inkscape.org/) -->

<svg
   xmlns:dc="http://purl.org/dc/elements/1.1/"
   xmlns:cc="http://creativecommons.org/ns#"
   xmlns:rdf="http://www.w3.org/1999/02/22-rdf-syntax-ns#"
   xmlns:svg="http://www.w3.org/2000/svg"
   xmlns="http://www.w3.org/2000/svg"
   xmlns:sodipodi="http://sodipodi.sourceforge.net/DTD/sodipodi-0.dtd"
   xmlns:inkscape="http://www.inkscape.org/namespaces/inkscape"
   version="1.1"
   id="svg82"
   width="62.044792mm"
   height="45.728546mm"
   viewBox="0 0 234.5 172.8323"
   sodipodi:docname="hermetica-realgar_alt.svg"
   inkscape:version="0.92.5 (2060ec1f9f, 2020-04-08)">
  <metadata
     id="metadata88">
    <rdf:RDF>
      <cc:Work
         rdf:about="">
        <dc:format>image/svg+xml</dc:format>
        <dc:type
           rdf:resource="http://purl.org/dc/dcmitype/StillImage" />
        <dc:title></dc:title>
      </cc:Work>
    </rdf:RDF>
  </metadata>
  <defs
     id="defs86" />
  <sodipodi:namedview
     pagecolor="#ffffff"
     bordercolor="#666666"
     borderopacity="1"
     objecttolerance="10"
     gridtolerance="10"
     guidetolerance="10"
     inkscape:pageopacity="0"
     inkscape:pageshadow="2"
     inkscape:window-width="1920"
     inkscape:window-height="997"
     id="namedview84"
     showgrid="false"
     units="mm"
     fit-margin-top="0"
     fit-margin-left="0"
     fit-margin-right="0"
     fit-margin-bottom="0"
     inkscape:zoom="0.88059701"
     inkscape:cx="-65.126272"
     inkscape:cy="86.470433"
     inkscape:window-x="0"
     inkscape:window-y="28"
     inkscape:window-maximized="1"
     inkscape:current-layer="svg82" />
  <path
     style="fill:#ff0000;fill-opacity:0.01829266;stroke:#ff0000;stroke-width:0.56779659;stroke-miterlimit:4;stroke-dasharray:none;stroke-opacity:1"
     d="M 37.190677,172.12258 C 25.711472,170.1693 22.536928,168.97321 16.211161,164.21804 10.610341,160.00783 8.6640623,157.5903 5.1481183,150.47626 1.3378313,142.76667 0.88427629,140.9232 0.90680329,133.23743 0.97098329,111.3415 18.10554,94.430304 40.296253,94.361464 l 7.647948,-0.0237 7.630883,-10.40404 c 8.296752,-11.3119 24.667118,-28.82143 32.023096,-34.251501 2.5383,-1.873729 4.62716,-3.953201 4.64193,-4.621049 C 92.29686,42.493979 66.856284,33.222289 47.411016,28.723416 44.288135,28.000904 32.406991,27.115216 21.008474,26.755222 L 0.28389829,26.100685 V 13.192292 0.28389829 H 10.548995 c 31.82586,0 66.318366,8.31893701 96.679365,23.31722671 l 10.13923,5.008766 7.60646,-4.031837 C 152.8202,9.8180753 191.69849,0.28389829 224.0403,0.28389829 h 10.1758 V 13.34322 26.402542 h -16.31735 c -9.59122,0 -20.47454,0.722232 -26.40254,1.752107 -19.71198,3.424574 -49.26316,13.658187 -49.26316,17.059895 0,0.810712 1.66081,2.649839 3.69068,4.086949 9.39984,6.654901 36.39374,36.839351 39.1157,43.738981 0.33846,0.85793 3.46328,1.34005 8.67072,1.33778 16.67193,-0.007 29.70415,8.433976 36.98435,23.955516 2.42791,5.17635 2.94668,7.91503 2.91381,15.38233 -0.0366,8.31273 -0.41113,9.78571 -4.40737,17.33347 -5.91676,11.17506 -14.11993,17.48704 -26.22711,20.18063 -7.93463,1.76528 -9.07222,1.76532 -17.00491,4.6e-4 -9.78183,-2.17625 -17.57684,-7.29632 -23.44851,-15.40193 -8.78043,-12.12104 -8.99445,-31.49517 -0.48988,-44.34644 l 2.91952,-4.41169 -5.96443,-7.717966 c -10.46863,-13.54638 -17.07663,-20.68561 -26.97291,-29.14122 -12.16494,-10.39403 -13.95673,-11.3866 -17.3178,-9.59332 -3.84488,2.05144 -20.11027,15.9839 -25.21576,21.59911 -3.92971,4.32203 -8.862657,10.37851 -17.661195,21.683696 l -2.425888,3.11701 2.398749,3.36874 c 3.705365,5.2037 6.849014,15.63153 6.849014,22.71893 0,3.56074 -1.092141,9.67147 -2.454474,13.73324 -3.354943,10.00269 -13.700287,20.47176 -22.709393,22.981 -7.160321,1.99431 -13.133937,2.83898 -16.285286,2.30276 z m 8.473075,-25.89227 c 9.910511,-5.12492 10.769927,-18.0915 1.656147,-24.98736 -1.199038,-0.90725 -4.614904,-1.66578 -7.590813,-1.68566 -14.968549,-0.0999 -19.774404,19.81095 -6.375016,26.41196 4.774346,2.35201 8.128667,2.42315 12.309682,0.26106 z m 153.558928,0.67861 c 1.44596,-0.55116 4.03431,-2.4094 5.7519,-4.12944 2.64413,-2.64789 3.12288,-4.07849 3.12288,-9.33179 0,-5.54195 -0.41229,-6.61676 -3.86102,-10.06549 -3.3355,-3.3355 -4.6149,-3.86102 -9.39986,-3.86102 -8.789,0 -13.99336,5.37555 -13.99336,14.45364 0,9.26323 9.84108,16.18865 18.37946,12.9341 z"
     id="path5241"
     inkscape:connector-curvature="0" />
</svg>
