<?xml version="1.0" encoding="UTF-8" standalone="no"?>
<!-- Created with Inkscape (http://www.inkscape.org/) -->

<svg
   xmlns:dc="http://purl.org/dc/elements/1.1/"
   xmlns:cc="http://creativecommons.org/ns#"
   xmlns:rdf="http://www.w3.org/1999/02/22-rdf-syntax-ns#"
   xmlns:svg="http://www.w3.org/2000/svg"
   xmlns="http://www.w3.org/2000/svg"
   xmlns:sodipodi="http://sodipodi.sourceforge.net/DTD/sodipodi-0.dtd"
   xmlns:inkscape="http://www.inkscape.org/namespaces/inkscape"
   version="1.1"
   id="svg82"
   width="68.029106mm"
   height="64.568665mm"
   viewBox="0 0 257.11788 244.03905"
   sodipodi:docname="hermetica-pentagram_circumscribd.svg"
   inkscape:version="0.92.5 (2060ec1f9f, 2020-04-08)">
  <metadata
     id="metadata88">
    <rdf:RDF>
      <cc:Work
         rdf:about="">
        <dc:format>image/svg+xml</dc:format>
        <dc:type
           rdf:resource="http://purl.org/dc/dcmitype/StillImage" />
        <dc:title></dc:title>
      </cc:Work>
    </rdf:RDF>
  </metadata>
  <defs
     id="defs86" />
  <sodipodi:namedview
     pagecolor="#ffffff"
     bordercolor="#666666"
     borderopacity="1"
     objecttolerance="10"
     gridtolerance="10"
     guidetolerance="10"
     inkscape:pageopacity="0"
     inkscape:pageshadow="2"
     inkscape:window-width="1920"
     inkscape:window-height="997"
     id="namedview84"
     showgrid="false"
     inkscape:zoom="0.88059701"
     inkscape:cx="128.83305"
     inkscape:cy="122.02743"
     inkscape:window-x="0"
     inkscape:window-y="28"
     inkscape:window-maximized="1"
     inkscape:current-layer="svg82"
     units="mm"
     fit-margin-top="0"
     fit-margin-left="0"
     fit-margin-right="0"
     fit-margin-bottom="0" />
  <path
     style="fill:#ff0000;fill-opacity:0.01829266;stroke:#ff0000;stroke-width:0.56779659;stroke-miterlimit:4;stroke-dasharray:none;stroke-opacity:1"
     d="M 59.587694,168.51414 C 56.006014,161.38916 54.43308,156.4259 53.019757,147.78957 51.143107,136.322 51.291203,131.03684 53.88687,116.84465 l 1.298082,-7.09746 h 6.049473 c 3.32721,0 6.043942,0.38327 6.037182,0.8517 -0.0068,0.46843 -0.773287,3.36024 -1.70339,6.42624 -1.053954,3.47426 -1.691098,10.24443 -1.691098,17.96927 0,10.16011 0.504413,13.89734 2.797837,20.72933 l 2.797838,8.33461 -2.334293,6.91223 c -1.283861,3.80172 -2.448359,6.91222 -2.587772,6.91222 -0.139414,0 -2.372779,-4.21589 -4.963035,-9.36865 z"
     id="path6399"
     inkscape:connector-curvature="0" />
  <path
     style="fill:#ff0000;fill-opacity:0.01829266;stroke:#ff0000;stroke-width:0.56779659;stroke-miterlimit:4;stroke-dasharray:none;stroke-opacity:1"
     d="M 33.783898,117.71191 C 26.913559,112.68267 16.565466,105.2311 10.788136,101.15286 5.0108048,97.074634 0.28389829,93.507364 0.28389829,93.225594 c 0,-0.28176 31.85767271,-0.5123 70.79482571,-0.5123 h 70.794816 l 1.38914,4.25848 c 0.76402,2.34216 1.65402,4.897246 1.97777,5.677966 0.46608,1.12395 -10.66154,1.41949 -53.446665,1.41949 -33.502362,0 -54.03531,0.41137 -54.03531,1.08258 0,0.59541 1.314551,2.00071 2.921226,3.12288 7.956309,5.55701 8.2272,6.05414 6.85595,12.58199 l -1.260227,5.99932 z"
     id="path6401"
     inkscape:connector-curvature="0" />
  <path
     style="fill:#ff0000;fill-opacity:0.01829266;stroke:#ff0000;stroke-width:0.56779659;stroke-miterlimit:4;stroke-dasharray:none;stroke-opacity:1"
     d="m 70.661781,83.912451 c 3.93852,-5.109619 13.211039,-12.371201 21.93951,-17.181474 8.542699,-4.707892 18.235469,-7.481512 30.556439,-8.743832 l 7.27942,-0.7458 1.43658,4.794856 c 0.79011,2.63717 1.74247,5.59202 2.11635,6.566333 0.46617,1.214822 0.23653,1.497534 -0.7308,0.899688 -0.77582,-0.479484 -6.48225,-0.250514 -12.68094,0.508822 -9.23964,1.131849 -12.82987,2.178153 -19.92558,5.806935 -4.760369,2.434479 -10.584455,5.954307 -12.942408,7.82184 -3.792102,3.003401 -5.163013,3.395514 -11.871444,3.395514 h -7.584259 z"
     id="path6403"
     inkscape:connector-curvature="0" />
  <path
     style="fill:#ff0000;fill-opacity:0.01829266;stroke:#ff0000;stroke-width:0.56779659;stroke-miterlimit:4;stroke-dasharray:none;stroke-opacity:1"
     d="M 154.20063,113.83632 C 137.11044,61.050872 129.37975,38.204824 128.60828,38.204824 c -0.42809,0 -1.71409,3.090515 -2.85776,6.867811 -1.14367,3.777297 -2.37437,7.033796 -2.73488,7.236666 -0.36051,0.202869 -3.14853,0.730641 -6.19561,1.172826 l -5.54013,0.803974 0.75806,-3.214367 c 0.41693,-1.767902 4.40694,-14.437285 8.86669,-28.154185 6.36232,-19.5686471 8.28297,-24.3377101 8.91811,-22.14406812 0.80429,2.77787702 10.66775,33.42299112 26.85054,83.42286912 4.64941,14.365254 10.20112,31.2604 12.33712,37.54479 2.13601,6.28437 3.88365,11.7416 3.88365,12.12717 0,0.38556 -2.21228,2.19408 -4.91617,4.01891 l -4.91616,3.31787 z"
     id="path6405"
     inkscape:connector-curvature="0" />
  <path
     style="fill:#ff0000;fill-opacity:0.01829266;stroke:#ff0000;stroke-width:0.56779659;stroke-miterlimit:4;stroke-dasharray:none;stroke-opacity:1"
     d="m 190.46615,112.76177 c -3.89419,-12.19875 -14.18979,-25.396709 -25.52124,-32.715781 -4.33396,-2.799344 -5.48355,-4.373461 -7.56835,-10.363304 -1.352,-3.884434 -2.29865,-7.223159 -2.10367,-7.419389 0.19499,-0.196231 4.11176,1.531159 8.70395,3.838644 10.14266,5.096491 21.9921,15.346208 28.12018,24.323844 4.09461,5.99861 10.32247,18.889286 10.32247,21.365876 0,0.53751 -2.1875,2.54824 -4.8611,4.46828 l -4.8611,3.49098 z"
     id="path6407"
     inkscape:connector-curvature="0" />
  <path
     style="fill:#ff0000;fill-opacity:0.01829266;stroke:#ff0000;stroke-width:0.56779659;stroke-miterlimit:4;stroke-dasharray:none;stroke-opacity:1"
     d="m 166.75505,98.756764 c -0.99557,-2.92185 -1.81014,-5.47693 -1.81014,-5.67796 0,-0.20103 1.74562,-0.36551 3.87916,-0.36551 3.13678,0 4.51292,0.81497 7.19079,4.25848 5.58366,7.180076 5.59814,7.097456 -1.24364,7.097456 h -6.20603 z"
     id="path6409"
     inkscape:connector-curvature="0" />
  <path
     style="fill:#ff0000;fill-opacity:0.01829266;stroke:#ff0000;stroke-width:0.56779659;stroke-miterlimit:4;stroke-dasharray:none;stroke-opacity:1"
     d="m 138.06642,173.00479 -4.73443,-3.37235 3.03104,-2.47525 c 1.66707,-1.36139 4.8196,-3.70047 7.00561,-5.19795 2.18602,-1.49748 10.6178,-7.60165 18.73729,-13.56481 8.11949,-5.96316 16.93207,-12.37136 19.5835,-14.24044 2.65143,-1.86908 6.54521,-4.67586 8.65284,-6.23731 2.10764,-1.56144 9.77536,-7.11183 17.03939,-12.3342 7.26403,-5.22237 13.20732,-9.94927 13.20732,-10.50423 0,-0.55496 -3.44936,-1.01422 -7.66525,-1.02057 l -7.66526,-0.0115 -2.20031,-4.814716 c -1.21018,-2.6481 -2.40255,-5.19799 -2.64972,-5.66642 -0.24717,-0.46843 12.75187,-0.83544 28.88676,-0.81558 25.70049,0.0316 29.05469,0.23664 27.06497,1.65413 -6.8134,4.85392 -34.31426,24.756406 -43.72034,31.640586 -3.43517,2.51416 -8.41644,6.13582 -11.06948,8.04815 -2.65305,1.91232 -7.50771,5.4225 -10.78814,7.80041 -3.28043,2.3779 -9.54153,6.8938 -13.91357,10.03533 -4.37203,3.14153 -9.22669,6.67436 -10.78813,7.85074 -7.17492,5.40552 -13.47245,9.95953 -18.16949,13.13913 l -5.11017,3.45925 z"
     id="path6411"
     inkscape:connector-curvature="0" />
  <path
     style="fill:#ff0000;fill-opacity:0.01829266;stroke:#ff0000;stroke-width:0.56779659;stroke-miterlimit:4;stroke-dasharray:none;stroke-opacity:1"
     d="m 71.443186,144.8279 c -2.877606,-2.47687 -3.124931,-3.29775 -2.805837,-9.31272 l 0.349939,-6.59641 4.825785,3.71617 c 5.078556,3.91083 5.110305,4.08674 2.098135,11.62517 l -1.312246,3.2841 z"
     id="path6413"
     inkscape:connector-curvature="0" />
  <path
     style="fill:#ff0000;fill-opacity:0.01829266;stroke:#ff0000;stroke-width:0.56779659;stroke-miterlimit:4;stroke-dasharray:none;stroke-opacity:1"
     d="m 49.603314,242.99417 c 0.444195,-1.14728 2.00461,-6.1741 3.46759,-11.17071 1.46298,-4.99661 6.030773,-19.30508 10.15065,-31.79661 10.492999,-31.81491 15.405837,-46.91228 22.818698,-70.12288 l 6.437551,-20.15678 h 6.140338 c 3.377179,0 6.140329,0.22506 6.140329,0.50012 0,0.27507 -1.20412,3.97994 -2.67584,8.23305 -1.47171,4.25312 -5.061089,15.14268 -7.976397,24.19904 -2.915308,9.05635 -9.120927,28.10064 -13.790261,42.32065 -4.669336,14.22 -8.489701,26.37463 -8.489701,27.01029 0,1.4895 3.899228,-0.55302 8.957159,-4.692 l 3.846989,-3.14805 4.363495,2.75455 c 2.399923,1.51501 4.884668,2.75456 5.521655,2.75456 3.269802,0 -1.165616,3.56826 -26.11397,21.00847 -1.786922,1.24915 -6.929265,4.99843 -11.427429,8.33172 -5.130315,3.80174 -7.877475,5.28309 -7.370856,3.97458 z"
     id="path6415"
     inkscape:connector-curvature="0" />
  <path
     style="fill:#ff0000;fill-opacity:0.01829266;stroke:#ff0000;stroke-width:0.56779659;stroke-miterlimit:4;stroke-dasharray:none;stroke-opacity:1"
     d="m 205.23004,242.56559 c -0.40165,-0.64989 -2.60364,-2.41235 -4.8933,-3.91659 -2.28965,-1.50425 -9.7842,-6.85271 -16.65454,-11.88548 -17.50425,-12.82249 -37.60711,-27.45194 -41.4212,-30.14345 -4.23261,-2.98684 -26.44107,-19.10849 -38.69332,-28.0884 l -9.707746,-7.11499 1.758597,-5.76664 1.75859,-5.76664 4.110469,2.92766 c 2.26076,1.61021 10.08986,7.2713 17.39798,12.5802 7.30813,5.3089 14.73184,10.67458 16.49713,11.92373 5.46682,3.86842 22.82179,16.50628 33.53679,24.42142 12.77108,9.43395 16.39587,11.79853 17.06336,11.13104 0.2895,-0.2895 -0.61476,-3.6596 -2.00947,-7.4891 l -2.53585,-6.96273 4.65552,-4.60945 4.65552,-4.60944 8.01367,24.72015 c 10.01921,30.90669 9.71816,29.83031 8.34316,29.83031 -0.6298,0 -1.47371,-0.53172 -1.87536,-1.1816 z"
     id="path6417"
     inkscape:connector-curvature="0" />
  <path
     style="fill:#ff0000;fill-opacity:0.01829266;stroke:#ff0000;stroke-width:0.56779659;stroke-miterlimit:4;stroke-dasharray:none;stroke-opacity:1"
     d="m 173.08349,172.48872 c -0.56434,-1.09301 -1.34173,-3.77585 -1.72753,-5.96187 -0.64363,-3.64688 -0.35167,-4.20863 3.5412,-6.81356 2.33347,-1.56144 4.59662,-2.99955 5.02923,-3.1958 0.4326,-0.19625 1.12132,1.42764 1.53048,3.60865 0.61747,3.29138 0.13667,4.84809 -2.8284,9.15767 -1.96478,2.85571 -3.78531,5.1922 -4.04561,5.1922 -0.26031,0 -0.93502,-0.89428 -1.49937,-1.98729 z"
     id="path6421"
     inkscape:connector-curvature="0" />
  <path
     style="fill:#ff0000;fill-opacity:0.01829266;stroke:#ff0000;stroke-width:0.56779659;stroke-miterlimit:4;stroke-dasharray:none;stroke-opacity:1"
     d="m 167.48147,194.39454 -4.84479,-3.81209 3.80746,-2.35314 c 4.66431,-2.88271 14.02378,-12.65448 18.27831,-19.08351 1.73282,-2.61847 4.57141,-8.8641 6.30797,-13.87918 2.82504,-8.15854 3.78886,-9.61748 9.15658,-13.86042 l 5.99919,-4.74209 -0.68623,7.34875 c -0.88562,9.48388 -6.34578,24.37011 -12.27907,33.47687 -4.2719,6.55678 -18.15233,20.91464 -20.08447,20.77531 -0.44558,-0.0321 -2.99031,-1.77386 -5.65495,-3.8705 z"
     id="path6423"
     inkscape:connector-curvature="0" />
  <path
     style="fill:#ff0000;fill-opacity:0.01829266;stroke:#ff0000;stroke-width:0.56779659;stroke-miterlimit:4;stroke-dasharray:none;stroke-opacity:1"
     d="m 112.13983,192.97668 c -3.12288,-0.91223 -6.08187,-2.04489 -6.57552,-2.51703 -0.77177,-0.73811 7.12684,-6.8989 8.84493,-6.8989 0.33809,0 2.68619,1.30767 5.218,2.90593 3.8568,2.4347 4.37471,3.18136 3.19371,4.60438 -2.64334,3.18502 -4.9143,3.59018 -10.68112,1.90562 z"
     id="path6425"
     inkscape:connector-curvature="0" />
  <path
     style="fill:#ff0000;fill-opacity:0.01829266;stroke:#ff0000;stroke-width:0.56779659;stroke-miterlimit:4;stroke-dasharray:none;stroke-opacity:1"
     d="m 109.99419,209.70551 c -7.44664,-2.00684 -21.717344,-8.48549 -25.948112,-11.77999 -1.876198,-1.46099 -1.875719,-1.83041 0.0096,-7.37683 l 1.984674,-5.83881 6.409169,4.54671 c 9.318659,6.61073 21.666569,10.44394 35.657119,11.06916 10.94572,0.48916 11.65913,0.68089 17.02639,4.57591 l 5.60198,4.06536 -5.67046,1.46988 c -8.28729,2.1482 -25.73543,1.78432 -35.07033,-0.73139 z"
     id="path6427"
     inkscape:connector-curvature="0" />
  <path
     style="fill:#ff0000;fill-opacity:0.01829266;stroke:#ff0000;stroke-width:0.56779659;stroke-miterlimit:4;stroke-dasharray:none;stroke-opacity:1"
     d="m 100.82925,84.480248 c 1.14829,-3.829269 2.84618,-5.176753 8.76899,-6.959256 5.97798,-1.799107 6.10147,-1.64403 4.18527,5.255866 l -1.18264,4.258475 h -6.26891 c -5.97105,0 -6.2325,-0.121402 -5.50271,-2.555085 z"
     id="path6429"
     inkscape:connector-curvature="0" />
</svg>
