<?xml version="1.0" encoding="UTF-8" standalone="no"?>
<!-- Created with Inkscape (http://www.inkscape.org/) -->

<svg
   xmlns:dc="http://purl.org/dc/elements/1.1/"
   xmlns:cc="http://creativecommons.org/ns#"
   xmlns:rdf="http://www.w3.org/1999/02/22-rdf-syntax-ns#"
   xmlns:svg="http://www.w3.org/2000/svg"
   xmlns="http://www.w3.org/2000/svg"
   xmlns:sodipodi="http://sodipodi.sourceforge.net/DTD/sodipodi-0.dtd"
   xmlns:inkscape="http://www.inkscape.org/namespaces/inkscape"
   version="1.1"
   id="svg82"
   width="61.695976mm"
   height="61.469505mm"
   viewBox="0 0 233.18164 232.32569"
   sodipodi:docname="esoterica-duat.svg"
   inkscape:version="0.92.5 (2060ec1f9f, 2020-04-08)">
  <metadata
     id="metadata88">
    <rdf:RDF>
      <cc:Work
         rdf:about="">
        <dc:format>image/svg+xml</dc:format>
        <dc:type
           rdf:resource="http://purl.org/dc/dcmitype/StillImage" />
        <dc:title></dc:title>
      </cc:Work>
    </rdf:RDF>
  </metadata>
  <defs
     id="defs86" />
  <sodipodi:namedview
     pagecolor="#ffffff"
     bordercolor="#666666"
     borderopacity="1"
     objecttolerance="10"
     gridtolerance="10"
     guidetolerance="10"
     inkscape:pageopacity="0"
     inkscape:pageshadow="2"
     inkscape:window-width="1920"
     inkscape:window-height="997"
     id="namedview84"
     showgrid="false"
     units="mm"
     fit-margin-top="0"
     fit-margin-left="0"
     fit-margin-right="0"
     fit-margin-bottom="0"
     inkscape:zoom="0.88059701"
     inkscape:cx="116.56409"
     inkscape:cy="115.97669"
     inkscape:window-x="0"
     inkscape:window-y="28"
     inkscape:window-maximized="1"
     inkscape:current-layer="svg82" />
  <path
     style="fill:#000000;fill-opacity:0;stroke:#ff0000;stroke-width:0.56779659;stroke-miterlimit:4;stroke-dasharray:none;stroke-opacity:1"
     d="M 95.10138,231.64163 C 69.540372,224.83115 51.586395,215.39677 36.233529,200.70801 12.550566,178.04946 0.26970759,149.23461 0.28391059,116.3586 0.30724259,62.349698 35.366444,17.269797 88.16731,3.3561715 c 9.83333,-2.59119498 13.83393,-3.03071698 27.94254,-3.06987598 14.17323,-0.03934 18.14377,0.376377 28.5141,2.98541498 21.66841,5.451488 37.86172,14.8003385 54.45748,31.4398145 12.3446,12.377141 17.54424,19.905967 24.38292,35.305275 15.47597,34.84876 11.64228,79.1021 -9.57676,110.54737 -15.38592,22.80093 -35.25271,37.82292 -62.09155,46.94963 -12.37684,4.20883 -12.45679,4.21953 -33.415,4.47594 -11.55466,0.14137 -22.03051,-0.0153 -23.27966,-0.34811 z m 49.3983,-27.95246 c 17.05113,-6.52705 16.43482,-5.91396 11.63983,-11.57906 -2.64284,-3.12244 -13.69916,-18.41057 -19.58898,-27.08673 -9.86067,-14.52551 -16.83365,-22.32862 -19.9532,-22.32862 -2.48605,0 -9.22196,6.4577 -11.84158,11.35252 -0.72667,1.35778 -2.26839,3.57482 -3.42606,4.92673 -1.15766,1.35193 -6.69122,8.84575 -12.29678,16.65296 -5.60557,7.8072 -11.260257,15.55327 -12.565975,17.2135 -2.894171,3.67995 -2.98443,5.04475 -0.386743,5.8479 1.093008,0.33794 5.306989,2.00173 9.364398,3.69732 10.0763,4.21088 16.02649,4.97471 35.20764,4.51966 14.22436,-0.33747 17.47102,-0.77533 23.84745,-3.21618 z M 55.086881,179.31764 c 0.982663,-1.093 6.404695,-8.375 12.048961,-16.1822 5.644266,-7.8072 13.279299,-18.28305 16.966738,-23.27966 3.68745,-4.99661 7.06751,-10.23824 7.51126,-11.64805 1.1975,-3.80451 -4.10459,-8.46576 -12.410767,-10.91071 -3.747458,-1.10309 -11.923729,-3.70802 -18.169491,-5.78875 -27.974968,-9.31964 -33.682575,-11.02659 -34.418502,-10.29342 -0.431689,0.43008 -0.94853,6.23413 -1.148535,12.89788 -0.723533,24.10658 7.510643,46.56679 23.48856,64.06932 3.353884,3.67392 3.778942,3.75264 6.131776,1.13559 z m 131.444529,-3.70831 c 7.00453,-8.36615 14.36037,-21.9342 17.84445,-32.91457 2.69185,-8.48362 3.06798,-11.53149 3.106,-25.1683 0.0237,-8.53367 -0.30784,-15.86866 -0.73696,-16.29999 -0.65024,-0.65358 -39.42573,11.29242 -56.33901,17.35699 -5.72899,2.05423 -9.66854,6.43937 -8.65473,9.6336 0.78031,2.45857 3.48556,6.47414 15.49777,23.00446 19.65489,27.04762 21.95399,30.02592 23.20009,30.0539 0.72257,0.0162 3.45963,-2.53351 6.08239,-5.66609 z M 101.85054,93.611583 c 1.50057,-2.14235 1.76779,-7.46379 1.76779,-35.203392 0,-37.998098 1.69276,-34.70111 -14.982,-29.18033 -18.101584,5.993177 -33.896823,17.329431 -45.700098,32.798992 -3.861865,5.061422 -8.589091,12.92115 -8.589091,14.280663 0,0.145096 9.070551,3.171563 20.15678,6.725487 11.086228,3.55392 24.244915,7.9288 29.241529,9.72197 11.291,4.05206 15.72013,4.26162 18.10509,0.85661 z m 44.02604,0.28312 c 3.30245,-1.2324 16.42329,-5.56161 29.1574,-9.62046 12.73412,-4.058843 23.35908,-7.585848 23.61102,-7.837786 0.25194,-0.251939 -1.43486,-3.715741 -3.74845,-7.697338 -5.56109,-9.570457 -21.61601,-25.432111 -31.65958,-31.278494 -8.52979,-4.965209 -28.57116,-12.191307 -31.98891,-11.533898 -1.94402,0.373938 -2.09958,2.388018 -2.39775,31.045823 -0.17538,16.85527 -0.0469,31.760003 0.2856,33.121623 1.54698,6.3358 6.76969,7.52149 16.74067,3.80053 z"
     id="path5241"
     inkscape:connector-curvature="0" />
</svg>
