<?xml version="1.0" encoding="UTF-8" standalone="no"?>
<!-- Created with Inkscape (http://www.inkscape.org/) -->

<svg
   xmlns:dc="http://purl.org/dc/elements/1.1/"
   xmlns:cc="http://creativecommons.org/ns#"
   xmlns:rdf="http://www.w3.org/1999/02/22-rdf-syntax-ns#"
   xmlns:svg="http://www.w3.org/2000/svg"
   xmlns="http://www.w3.org/2000/svg"
   xmlns:sodipodi="http://sodipodi.sourceforge.net/DTD/sodipodi-0.dtd"
   xmlns:inkscape="http://www.inkscape.org/namespaces/inkscape"
   version="1.1"
   id="svg12"
   width="63.762989mm"
   height="64.053337mm"
   viewBox="0 0 240.99398 242.09135"
   sodipodi:docname="esoterica-dara_knot.svg"
   inkscape:version="0.92.5 (2060ec1f9f, 2020-04-08)">
  <metadata
     id="metadata18">
    <rdf:RDF>
      <cc:Work
         rdf:about="">
        <dc:format>image/svg+xml</dc:format>
        <dc:type
           rdf:resource="http://purl.org/dc/dcmitype/StillImage" />
        <dc:title></dc:title>
      </cc:Work>
    </rdf:RDF>
  </metadata>
  <defs
     id="defs16" />
  <sodipodi:namedview
     pagecolor="#ffffff"
     bordercolor="#666666"
     borderopacity="1"
     objecttolerance="10"
     gridtolerance="10"
     guidetolerance="10"
     inkscape:pageopacity="0"
     inkscape:pageshadow="2"
     inkscape:window-width="1920"
     inkscape:window-height="997"
     id="namedview14"
     showgrid="false"
     units="mm"
     fit-margin-top="0"
     fit-margin-left="0"
     fit-margin-right="0"
     fit-margin-bottom="0"
     inkscape:zoom="0.88059701"
     inkscape:cx="121.13196"
     inkscape:cy="120.88919"
     inkscape:window-x="0"
     inkscape:window-y="28"
     inkscape:window-maximized="1"
     inkscape:current-layer="svg12" />
  <path
     style="fill:#ff0000;fill-opacity:0.01829266;stroke:#ff0000;stroke-width:0.56779659;stroke-miterlimit:4;stroke-dasharray:none;stroke-opacity:1"
     d="m 150.86243,0.29005126 c -3.11673,-0.04914 -6.34213,0.196499 -9.7207,0.72070304 -12.73974,1.976637 -19.72552,6.381785 -36.98438,23.3222647 -8.273857,8.121233 -15.044867,15.061574 -15.046867,15.423829 -0.004,0.845964 11.410237,12.40039 12.249997,12.40039 0.34816,0 7.15174,-6.399699 15.11914,-14.222656 16.84315,-16.537795 20.97948,-18.908203 32.98828,-18.908203 6.22309,0 9.20461,0.632061 13.97265,2.964843 9.73801,4.76437 9.92123,5.504449 3.04297,12.275391 l -5.91406,5.820313 6.3418,6.408203 6.34179,6.408203 12.50586,-12.478516 12.50782,-12.480468 -9.32422,-9.015626 C 175.83813,6.2571203 164.36825,0.50298226 150.86243,0.29005126 Z m -59.675777,0.21875 c -2.57573,0.02625 -5.064219,0.207784 -7.296878,0.56445304 -10.688355,1.707473 -19.57885,6.776306 -31.013671,17.6796867 l -9.626953,9.179688 37.976562,38.185547 C 102.1128,87.120624 119.81402,104.3258 120.56165,104.3506 c 0.74763,0.0248 8.30334,-6.94737 16.79101,-15.49414 l 15.43164,-15.541019 -6.34375,-6.410156 -6.34375,-6.410156 -8.89062,8.890625 c -4.8899,4.889904 -9.54848,8.890625 -10.35352,8.890625 -0.80503,0 -12.67911,-11.226579 -26.386717,-24.947266 L 69.542119,28.383801 73.256963,25.223644 c 5.345045,-4.545402 9.555179,-5.808785 19.82617,-5.951172 l 9.083987,-0.125 6.96875,-6.625 6.9707,-6.6249997 -3.93555,-1.876953 C 107.42664,1.7580723 98.913843,0.43006226 91.186653,0.50880126 Z M 137.27454,26.536144 c -0.13236,-0.01145 -0.24734,-5.9e-4 -0.34766,0.03125 -1.15217,0.365682 -4.43451,2.876207 -7.29492,5.578125 l -5.20117,4.91211 21.72656,21.769531 c 11.94945,11.973373 22.19756,21.613837 22.77344,21.421875 0.57589,-0.191962 3.70099,-2.885619 6.94531,-5.986328 l 5.89844,-5.638672 -21.37696,-21.361328 C 145.04227,31.918854 139.25993,26.707871 137.27454,26.536144 Z m 76.64844,17.210938 -38.69532,38.695312 -38.69726,38.695316 15.75195,15.99414 c 8.6627,8.79642 15.9886,16.01507 16.28125,16.04297 0.87987,0.0838 12.52734,-11.72344 12.52734,-12.69922 0,-0.49715 -4.08737,-4.81739 -9.08398,-9.60156 -4.99661,-4.78418 -9.08594,-9.11006 -9.08594,-9.61329 0,-0.50323 11.28508,-12.2686 25.07617,-26.14453 28.0379,-28.210374 26.48141,-27.397235 32.05274,-16.746091 2.79851,5.350151 3.15983,7.184082 2.95312,15.003911 l -0.23437,8.9082 6.69922,6.78906 6.69922,6.78906 2.27148,-4.88086 c 1.87556,-4.03086 2.27148,-7.26408 2.27148,-18.5664 1e-5,-13.379882 -0.0889,-13.863045 -3.97265,-21.576174 -2.73058,-5.42287 -6.91923,-10.892025 -13.39453,-17.490235 z M 28.010869,44.208019 c -1.292228,0 -14.166348,13.444919 -18.8007811,19.634766 -8.173451,10.916637 -11.237164,29.885885 -6.945313,43.001955 3.597401,10.99379 6.262295,14.73508 21.8593761,30.67969 l 15.4375,15.78125 6.595703,-6.5254 6.595703,-6.52734 -14.681641,-14.82617 C 21.26176,108.4508 18.702275,104.07849 18.702275,92.34474 c 1e-6,-5.896188 0.670642,-8.648015 3.449219,-14.152346 1.897152,-3.758237 4.123931,-7.09151 4.949219,-7.408203 0.825288,-0.316693 4.023065,1.998655 7.105469,5.146485 l 5.603515,5.722656 6.525391,-6.59375 6.525391,-6.59375 L 40.864385,56.336926 C 34.266128,49.666318 28.482347,44.208019 28.010869,44.208019 Z M 68.190557,60.127941 46.731572,81.631848 25.270635,103.1338 l 2.554687,3.75391 c 1.404785,2.06441 4.142621,5.13568 6.083985,6.82617 l 3.529297,3.07422 21.849609,-21.78906 21.849609,-21.789068 -6.472656,-6.541015 z m 133.765623,28.441409 -6.47852,6.54883 -6.48047,6.54687 14.21875,14.14063 c 17.11389,17.02132 19.89258,21.69613 19.89258,33.46484 0,6.58966 -0.57943,9.2218 -3.12304,14.19141 -4.7098,9.20181 -6.17415,9.57465 -12.2168,3.10742 -2.77197,-2.96674 -5.45412,-5.39453 -5.96094,-5.39453 -0.50682,0 -3.69493,2.80855 -7.08398,6.24023 l -6.16016,6.23828 12.20703,11.92969 c 6.71435,6.56154 12.62901,11.93164 13.14258,11.93164 2.56475,0 19.16607,-19.3691 22.82227,-26.62695 3.88898,-7.71983 3.9746,-8.18721 3.9746,-21.63672 1e-5,-13.40745 -0.0952,-13.93463 -3.89453,-21.41992 -2.98804,-5.88692 -7.50114,-11.3511 -19.37695,-23.4668 z m -128.765623,0.30664 -4.867188,4.63672 c -8.915424,8.49324 -8.994756,7.43973 1.353516,17.84375 5.066555,5.09385 9.199767,9.57211 9.185547,9.95117 -0.01422,0.37906 -11.283695,11.91213 -25.042969,25.62891 -28.002731,27.91625 -26.565759,27.17743 -31.988281,16.43554 -2.716902,-5.38212 -3.079479,-7.30124 -2.830078,-14.99414 l 0.287109,-8.82031 -7.013672,-6.95117 -7.0117191,-6.94922 -2.458984,7.82226 c -4.287505,13.64177 -3.10601999,27.14119 3.529297,40.35938 1.14514,2.28123 6.2392751,8.54228 11.3222661,13.91211 5.08299,5.36983 9.649719,9.76367 10.146484,9.76367 0.496766,0 18.198622,-17.26963 39.33789,-38.37695 L 105.57337,120.76075 89.381963,104.81739 Z m 131.419923,35.74219 -21.96875,21.94726 -21.96875,21.94727 6.49804,6.56836 6.5,6.5664 21.44922,-21.44922 c 16.52664,-16.52663 21.22059,-21.84919 20.45899,-23.19726 -0.54363,-0.96226 -3.23364,-4.14251 -5.97852,-7.06641 z m -83.5254,11.93359 -16.08789,16.11523 -16.087887,16.11719 5.60743,5.84766 c 3.08399,3.21653 6.226747,5.84765 6.982417,5.84765 0.75567,0 5.14634,-3.8847 9.75781,-8.63281 4.61147,-4.74812 8.97538,-8.43594 9.69727,-8.19531 0.72189,0.24063 12.48602,11.63188 26.14257,25.31445 20.00017,20.03826 24.57511,25.18555 23.52149,26.45508 -0.71944,0.86687 -3.89453,2.92904 -7.05664,4.58398 -4.82461,2.52502 -7.25641,3.01746 -15.11133,3.06446 l -9.35938,0.0566 -6.2539,6.17578 c -3.4397,3.39697 -6.25391,6.49778 -6.25391,6.88867 0,0.39088 3.19405,1.61708 7.09766,2.72656 3.9036,1.10948 7.60784,2.17208 8.23242,2.36133 4.11123,1.24574 15.19336,0.17987 22.61133,-2.17578 9.62719,-3.0572 16.21362,-7.53278 26.58203,-18.05859 l 7.17773,-7.28516 -38.59961,-38.60352 z m -47.873039,24.07812 -6.519531,6.51954 -6.517578,6.51757 20.984375,21.00782 c 11.541766,11.55443 21.552753,21.00781 22.246093,21.00781 1.53269,0 9.37638,-5.64212 12.06836,-8.68164 1.88478,-2.12812 1.21074,-2.94119 -20.156247,-24.28711 z m 67.001949,28.39649 -14.48047,14.4082 c -10.66881,10.61602 -16.12498,15.16881 -20.72656,17.29297 -8.689577,4.01124 -16.608817,3.91152 -25.550778,-0.32227 -10.557739,-4.99882 -10.772166,-5.69357 -3.919922,-12.72851 l 5.816406,-5.9707 -6.339844,-6.33789 -6.33789,-6.33985 -12.572266,12.47656 -12.572265,12.47461 10.328124,9.85157 c 10.79804,10.29804 15.772001,13.36859 26.164063,16.15039 8.223135,2.20121 16.159135,2.22035 24.451172,0.0605 11.88312,-3.09515 16.36361,-6.1353 32.89648,-22.31836 l 15.89844,-15.5625 -6.52734,-6.56836 z"
     id="path6442"
     inkscape:connector-curvature="0" />
</svg>
