<?xml version="1.0" encoding="UTF-8" standalone="no"?>
<!-- Created with Inkscape (http://www.inkscape.org/) -->

<svg
   xmlns:dc="http://purl.org/dc/elements/1.1/"
   xmlns:cc="http://creativecommons.org/ns#"
   xmlns:rdf="http://www.w3.org/1999/02/22-rdf-syntax-ns#"
   xmlns:svg="http://www.w3.org/2000/svg"
   xmlns="http://www.w3.org/2000/svg"
   xmlns:sodipodi="http://sodipodi.sourceforge.net/DTD/sodipodi-0.dtd"
   xmlns:inkscape="http://www.inkscape.org/namespaces/inkscape"
   version="1.1"
   id="svg12"
   width="61.194893mm"
   height="62.044792mm"
   viewBox="0 0 231.28779 234.5"
   sodipodi:docname="esoterica-tanit.svg"
   inkscape:version="0.92.5 (2060ec1f9f, 2020-04-08)">
  <metadata
     id="metadata18">
    <rdf:RDF>
      <cc:Work
         rdf:about="">
        <dc:format>image/svg+xml</dc:format>
        <dc:type
           rdf:resource="http://purl.org/dc/dcmitype/StillImage" />
        <dc:title></dc:title>
      </cc:Work>
    </rdf:RDF>
  </metadata>
  <defs
     id="defs16" />
  <sodipodi:namedview
     pagecolor="#ffffff"
     bordercolor="#666666"
     borderopacity="1"
     objecttolerance="10"
     gridtolerance="10"
     guidetolerance="10"
     inkscape:pageopacity="0"
     inkscape:pageshadow="2"
     inkscape:window-width="1920"
     inkscape:window-height="997"
     id="namedview14"
     showgrid="false"
     units="mm"
     fit-margin-top="0"
     fit-margin-left="0"
     fit-margin-right="0"
     fit-margin-bottom="0"
     inkscape:zoom="0.88059701"
     inkscape:cx="-66.261865"
     inkscape:cy="117.47712"
     inkscape:window-x="0"
     inkscape:window-y="28"
     inkscape:window-maximized="1"
     inkscape:current-layer="svg12" />
  <path
     style="fill:#000000;fill-opacity:0;stroke:#ff0000;stroke-width:0.56779659;stroke-miterlimit:4;stroke-dasharray:none;stroke-opacity:1"
     d="m 0.28389829,233.30763 c 0,-0.49967 0.464741,-1.39394 1.03275701,-1.98729 1.045584,-1.09222 12.5943607,-20.95437 12.5943607,-21.6604 0,-0.21054 1.78856,-3.17876 3.974577,-6.59606 2.186017,-3.41729 3.974576,-6.56585 3.974576,-6.99678 0,-0.43095 2.044068,-4.02008 4.542373,-7.97588 2.498305,-3.95578 4.542373,-7.48491 4.542373,-7.84252 0,-0.3576 1.788559,-3.44614 3.974576,-6.86343 2.186017,-3.4173 3.974576,-6.38552 3.974576,-6.59606 0,-0.21054 2.479939,-4.67201 5.510975,-9.91439 9.33043,-16.1376 18.0446,-31.17369 24.774448,-42.7477 3.540882,-6.08962 8.305396,-14.393649 10.587812,-18.453389 2.282415,-4.05975 5.235545,-9.13381 6.562505,-11.2757 1.32696,-2.141889 2.15347,-4.313712 1.83669,-4.826273 C 87.849717,79.059198 68.968578,78.63983 46.208404,78.63983 H 4.8262713 V 39.461864 0.28389829 H 17.885593 30.944915 V 26.970339 53.656779 h 24.53675 c 22.921812,0 24.483098,-0.130797 23.721582,-1.987288 -0.448344,-1.093008 -1.076297,-5.347205 -1.395455,-9.45377 -1.292424,-16.62953 7.266755,-31.300338 22.306708,-38.2346577 5.15082,-2.374841 8.16697,-2.945639 15.99991,-3.02794401 8.32583,-0.08748 10.60737,0.33983701 16.59945,3.10897701 13.80194,6.3783367 22.46633,19.5500047 22.53917,34.2641747 0.0217,4.372034 -0.38451,9.609957 -0.90258,11.63983 l -0.94192,3.690678 h 24.50548 24.50548 V 26.970339 0.28389829 h 12.49153 12.49152 V 39.461864 78.63983 h -41.82767 c -23.00524,0 -42.11048,0.282787 -42.45611,0.628414 -0.34562,0.345628 1.94888,5.072537 5.09892,10.504237 11.09743,19.135699 13.06395,22.538019 23.75821,41.104639 5.9359,10.30551 13.68099,23.7197 17.2113,29.80932 3.53031,6.08962 9.22934,15.92669 12.66451,21.86017 3.43517,5.93347 9.14284,15.77055 12.68372,21.86017 3.54088,6.08962 8.40307,14.60586 10.80486,18.92499 2.40181,4.31911 4.93297,8.535 5.62481,9.36864 1.04752,1.26218 -18.13907,1.51569 -114.71164,1.51569 -63.783252,0 -115.96955171,-0.40881 -115.96955171,-0.90847 z M 187.65678,208.25593 c 0,-0.53742 -1.15457,-2.70924 -2.56571,-4.82627 -1.41114,-2.11703 -3.19068,-5.25871 -3.95453,-6.98149 l -1.38885,-3.13236 -63.81719,0.29337 -63.817211,0.29336 -3.726419,6.24576 c -2.04953,3.43517 -3.746313,6.88454 -3.770628,7.66526 -0.03492,1.12103 14.99775,1.41949 71.498168,1.41949 39.3483,0 71.54237,-0.4397 71.54237,-0.97712 z m -23.84746,-40.3795 c 0,-0.88597 -3.13306,-6.89042 -6.96237,-13.34323 -3.8293,-6.45279 -8.08643,-13.77642 -9.46028,-16.27473 -4.67985,-8.51016 -20.22284,-35.19404 -22.15916,-38.04237 -1.06147,-1.561439 -2.23766,-3.694369 -2.61374,-4.739839 -0.37608,-1.04547 -2.03341,-4.03881 -3.68295,-6.65186 -2.88703,-4.57335 -3.05893,-4.66572 -4.59682,-2.47007 -1.51841,2.16784 -14.656583,24.785399 -22.894143,39.412619 -2.11044,3.74746 -8.39795,14.67308 -13.972242,24.27915 -5.574291,9.60608 -9.860351,17.9101 -9.524579,18.45339 0.335771,0.54329 22.043051,0.9878 48.238394,0.9878 40.36293,0 47.62789,-0.24572 47.62789,-1.61086 z M 124.18929,51.296065 c 6.60966,-4.706488 8.42377,-12.380032 4.46261,-18.876527 -4.81056,-7.889604 -14.58821,-9.494402 -21.0926,-3.461911 -7.16537,6.645513 -7.13431,14.842532 0.0802,21.176991 4.93595,4.333817 11.45233,4.791131 16.54975,1.161447 z"
     id="path3044"
     inkscape:connector-curvature="0" />
</svg>
