<?xml version="1.0" encoding="UTF-8" standalone="no"?>
<!-- Created with Inkscape (http://www.inkscape.org/) -->

<svg
   xmlns:dc="http://purl.org/dc/elements/1.1/"
   xmlns:cc="http://creativecommons.org/ns#"
   xmlns:rdf="http://www.w3.org/1999/02/22-rdf-syntax-ns#"
   xmlns:svg="http://www.w3.org/2000/svg"
   xmlns="http://www.w3.org/2000/svg"
   xmlns:sodipodi="http://sodipodi.sourceforge.net/DTD/sodipodi-0.dtd"
   xmlns:inkscape="http://www.inkscape.org/namespaces/inkscape"
   version="1.1"
   id="svg22"
   width="62.87669mm"
   height="59.641171mm"
   viewBox="0 0 237.64418 225.41545"
   sodipodi:docname="esoterica-discordian_mandala.svg"
   inkscape:version="0.92.5 (2060ec1f9f, 2020-04-08)">
  <metadata
     id="metadata28">
    <rdf:RDF>
      <cc:Work
         rdf:about="">
        <dc:format>image/svg+xml</dc:format>
        <dc:type
           rdf:resource="http://purl.org/dc/dcmitype/StillImage" />
        <dc:title></dc:title>
      </cc:Work>
    </rdf:RDF>
  </metadata>
  <defs
     id="defs26" />
  <sodipodi:namedview
     pagecolor="#ffffff"
     bordercolor="#666666"
     borderopacity="1"
     objecttolerance="10"
     gridtolerance="10"
     guidetolerance="10"
     inkscape:pageopacity="0"
     inkscape:pageshadow="2"
     inkscape:window-width="1920"
     inkscape:window-height="997"
     id="namedview24"
     showgrid="false"
     units="mm"
     fit-margin-top="0"
     fit-margin-left="0"
     fit-margin-right="0"
     fit-margin-bottom="0"
     inkscape:zoom="0.88059701"
     inkscape:cx="118.61202"
     inkscape:cy="112.93429"
     inkscape:window-x="0"
     inkscape:window-y="28"
     inkscape:window-maximized="1"
     inkscape:current-layer="svg22" />
  <path
     style="fill:#000000;fill-opacity:0;stroke:#ff0000;stroke-width:0.56779659;stroke-miterlimit:4;stroke-dasharray:none;stroke-opacity:1"
     d="m 118.32296,0.28389829 c -0.46471,0 -3.42901,1.91760501 -6.58594,4.25976601 -3.15693,2.342161 -8.63764,6.3024757 -12.179687,8.8007807 -3.54204,2.498305 -9.15722,6.58568 -12.47851,9.083985 -6.460814,4.859848 -26.859878,19.740603 -28.632816,20.886718 -1.039045,0.671691 -13.875,39.556976 -13.875,42.033206 0,1.94285 0.886671,1.55994 8.072266,-3.48047 6.093143,-4.274116 6.894684,-5.322663 8.464844,-11.072267 0.953906,-3.493011 2.880977,-9.416604 4.28125,-13.164062 2.679656,-7.171384 4.713593,-9.024289 27.423826,-24.982422 3.55538,-2.498305 8.920267,-6.458622 11.921877,-8.800781 3.00161,-2.342163 5.86815,-4.257813 6.36914,-4.257813 0.50098,0 2.3048,-1.335205 4.00781,-2.966797 l 3.0957,-2.966797 9.80078,7.22461 c 23.76905,17.522189 20.19277,15.742187 31.6211,15.742187 h 10.17383 l -3.84961,-2.644531 c -2.11703,-1.454757 -7.34663,-5.160954 -11.62305,-8.234375 -4.27643,-3.073421 -9.19954,-6.610223 -10.93945,-7.859375 -1.73992,-1.249153 -7.90174,-5.719657 -13.69336,-9.9355467 -5.79161,-4.21589 -10.91028,-7.66601601 -11.375,-7.66601601 z m 58.44531,41.96874971 -23.03711,0.308594 -23.03516,0.308594 7.41993,5.445312 7.41992,5.447266 13.68945,-0.177734 13.68945,-0.175782 4.81446,3.607422 c 10.51151,7.874155 34.6424,25.365124 39.71484,28.787114 2.95551,1.99387 5.38333,4.25702 5.39453,5.02929 0.0112,0.77228 -2.53154,9.179206 -5.65234,18.681636 l -5.67578,17.27735 3.07226,9.43164 3.07032,9.42969 5.94531,-18.45899 c 3.26965,-10.15305 7.69136,-23.57065 9.82617,-29.816406 l 3.88281,-11.35546 -7.91015,-5.67774 C 221.70714,74.824478 207.773,64.668066 193.90108,54.471398 190.15362,51.7168 184.76632,47.840943 181.92843,45.858117 Z m -88.525387,0.04883 -7.789063,5.677735 -7.787109,5.677734 h 22.359372 22.359377 l 5.89258,4.523438 c 5.86215,4.499331 5.95023,4.525462 16.11523,4.539062 l 10.2207,0.01367 -4.63672,-3.119141 c -2.54953,-1.714911 -6.12475,-4.303077 -7.94726,-5.751953 -1.82251,-1.448875 -6.09059,-4.64293 -9.48242,-7.097656 l -6.16602,-4.462891 H 104.81319 Z M 49.07882,50.72726 c -1.08639,-0.0116 -4.318836,2.331453 -11.482422,7.615234 -5.397205,3.980918 -15.999746,11.749493 -23.5625,17.263672 -7.5627527,5.514178 -13.74999971,10.525988 -13.74999971,11.136718 0,0.61073 2.23462601,7.85341 4.96679701,16.093746 2.73217,8.24035 7.8760467,23.92538 11.4316397,34.85547 l 6.464844,19.87304 7.021485,5.10547 c 3.861602,2.80871 12.122177,8.77904 18.357421,13.26758 6.235243,4.48853 11.52695,7.97305 11.757813,7.74219 0.616193,-0.61619 -4.44873,-15.6329 -5.880859,-17.43555 -1.083121,-1.36336 -7.850359,-6.38789 -17.804688,-13.22265 -1.819299,-1.24915 -4.05287,-4.31616 -4.964844,-6.81446 -3.202188,-8.77223 -17.72272,-54.541726 -17.65625,-55.654286 0.03697,-0.61872 6.944193,-5.95717 15.34961,-11.86329 13.446636,-9.448291 15.419883,-11.245683 16.421875,-14.96679 0.62634,-2.326049 1.890826,-6.361987 2.810547,-8.96875 0.91164,-2.583867 1.364501,-4.018323 0.519531,-4.027344 z m 44.664063,7.472656 -8.42578,6.183594 -8.425783,6.183594 -3.667969,11.19336 c -2.017722,6.15578 -3.669922,11.83361 -3.669922,12.61914 0,1.72964 0.925214,1.2171 9.279297,-5.14844 4.490405,-3.42154 6.668047,-5.94981 7.197267,-8.35938 0.7257,-3.304014 6.80137,-8.365786 22.806637,-18.99804 2.12915,-1.41439 3.87109,-2.819852 3.87109,-3.123047 0,-0.303194 -4.26727,-0.550781 -9.48242,-0.550781 z m 79.548827,2.685547 c -0.0378,0.0013 -0.0646,0.0099 -0.082,0.02734 -0.27834,0.278346 0.50134,3.485897 1.73437,7.128906 1.23304,3.643009 4.16747,12.478575 6.51953,19.634765 l 4.27539,13.011716 -2.64062,7.75977 c -2.62078,7.69803 -2.62582,7.80901 -0.60352,14.24218 1.12106,3.56623 2.56611,7.76083 3.21094,9.32227 1.04661,2.53432 1.22774,2.60596 1.68359,0.6543 0.28086,-1.20246 2.70334,-8.77679 5.38477,-16.83008 5.49726,-16.510176 5.58434,-14.33462 -1.39453,-34.640626 -2.20024,-6.401868 -4.33481,-11.640623 -4.74414,-11.640623 -0.40934,0 -3.48347,-2.05816 -6.83203,-4.574219 -3.13928,-2.358805 -5.94409,-4.114696 -6.51172,-4.095703 z m -59.12696,7.535156 c -5.37817,0 -7.10597,0.561371 -11.33593,3.689453 -11.260607,8.327312 -11.436447,7.586502 1.79101,7.628902 l 11.78711,0.0371 9.79102,7.10938 c 5.38428,3.91042 11.06551,8.00384 12.62695,9.0957 1.56144,1.09186 5.13863,3.75664 7.94922,5.921876 7.9613,6.13317 8.12724,5.86804 3.78906,-6.050786 -2.43456,-6.68878 -3.839,-8.8691 -7.10156,-11.01171 -2.23719,-1.46923 -8.31682,-5.76369 -13.50977,-9.544925 -8.87575,-6.462863 -9.82204,-6.875 -15.78711,-6.875 z m 15.26563,0 7.69141,5.677735 c 5.95457,4.39558 8.63829,5.67773 11.8789,5.67773 3.35038,0 6.09649,1.41142 13.75586,7.06641 5.26337,3.886 11.10283,8.14767 12.97656,9.47265 1.87373,1.32498 3.54879,2.30574 3.72266,2.17774 0.17387,-0.12801 -1.01167,-4.0085 -2.63477,-8.62305 -3.02119,-8.58944 -4.65288,-10.59567 -14.43945,-17.759762 -5.04092,-3.690112 -5.04312,-3.689453 -18.99609,-3.689453 z m -60.232419,8.349609 c -0.21279,-0.212787 -2.994509,1.526753 -6.181641,3.865236 -3.187131,2.33844 -9.639836,7.05047 -14.339844,10.47265 l -8.546875,6.22266 -2.99414,9.675776 c -1.64691,5.3219 -3.766894,11.80905 -4.712891,14.41602 -1.794808,4.94612 -1.782722,5.018 3.804687,21.94726 0.309207,0.93686 3.611076,-7.49591 7.337891,-18.73828 l 6.775391,-20.43945 6.605468,-4.960936 c 6.02289,-4.52296 6.872523,-5.7152 9.623047,-13.51758 1.659096,-4.70633 2.841696,-8.730563 2.628907,-8.943356 z m 33.777339,8.689456 c -10.193287,-0.006 -10.361267,0.0398 -16.464837,4.46875 C 66.20636,104.66186 65.389524,105.41239 63.440148,111.1335 c -1.714982,5.03319 -1.67169,5.50441 1.304687,14.13477 1.693568,4.91069 3.408642,8.56549 3.810547,8.12109 0.401905,-0.44439 1.924234,-4.89596 3.382813,-9.89258 1.916473,-6.5652 3.606898,-9.97391 6.095703,-12.28906 3.225336,-3.00029 25.398462,-19.371276 32.179682,-23.759756 3.03524,-1.96429 2.97224,-1.98228 -7.23828,-1.98828 z m 50.77149,2.41601 c -0.10459,0.0219 -0.15821,0.0833 -0.15821,0.1875 0,0.82427 1.55455,5.75921 3.45508,10.9668 l 3.45508,9.468746 -4.14453,12.60937 c -7.54305,22.94175 -9.39651,28.48578 -10.23633,30.63672 -0.53137,1.36095 2.12319,-0.0732 7.35547,-3.97461 l 8.18555,-6.10351 5.04882,-15.07422 c 5.39929,-16.11835 5.67416,-17.83736 3.87305,-24.32227 -0.91923,-3.309706 -2.83147,-5.405786 -9.07813,-9.949216 -3.85304,-2.80246 -7.02375,-4.59871 -7.75585,-4.44531 z m 46.76562,20.857416 -3.16211,9.65235 -3.16211,9.65429 4.11524,11.83789 c 2.26316,6.51124 4.11523,12.66273 4.11523,13.66993 0,1.00719 -3.56339,12.79825 -7.91992,26.20312 -4.35652,13.40487 -8.57291,26.41771 -9.36914,28.91602 l -1.44727,4.54101 -19.20117,0.3125 -19.20117,0.3125 -7.20117,5.13867 c -3.96113,2.82661 -7.20313,5.36966 -7.20313,5.65039 0,0.28073 13.77076,0.50977 30.59961,0.50977 h 30.59766 l 3.98828,-12.77539 c 2.19441,-7.02648 6.76513,-21.20621 10.15625,-31.51172 3.39113,-10.30551 6.67545,-20.59209 7.29883,-22.85742 1.30298,-4.73497 0.87805,-6.56556 -7.46485,-32.21875 z m -147.12109,1.61328 c -0.03379,0.004 -0.05947,0.0353 -0.07617,0.0937 -0.267235,0.93565 -1.591604,5.35878 -2.943359,9.83008 -2.263283,7.48644 -2.324323,8.47541 -0.779297,12.49219 0.922773,2.39903 2.218905,6.47671 2.880859,9.0625 1.235745,4.8272 1.288271,4.87786 16.955078,16.41016 3.365368,2.47724 6.30079,4.32031 6.525391,4.0957 0.2246,-0.2246 -0.867036,-4.16332 -2.427735,-8.75195 -1.869146,-5.49552 -3.978136,-9.33976 -6.177734,-11.26368 -2.592312,-2.2674 -4.481025,-6.34863 -8.443359,-18.24804 -2.631803,-7.90365 -5.006836,-13.78708 -5.513672,-13.72071 z m 25.851562,6.86524 -2.916015,9.38867 -2.916016,9.38672 4.667969,14.76367 c 5.570229,17.62301 5.585374,17.65642 11.347653,21.98438 4.16349,3.12714 5.32493,3.41698 13.912107,3.48828 5.15276,0.0428 9.36914,-0.14237 9.36914,-0.41211 0,-0.26974 -4.21638,-3.53802 -9.36914,-7.26367 -10.534597,-7.61696 -8.781227,-4.24612 -19.749995,-37.97266 z m 95.904298,1.75391 c -0.44927,0.27767 -1.96979,4.09029 -3.37891,8.47265 -2.09146,6.50445 -2.35639,8.77808 -1.44141,12.38281 0.97334,3.83465 0.55812,6.11564 -3.15429,17.32618 -2.35126,7.1002 -4.63514,13.80348 -5.07617,14.89648 -1.23054,3.04958 0.0564,2.4678 8.5332,-3.85547 5.91065,-4.40902 8.00907,-6.70852 8.54883,-9.36914 0.39341,-1.93921 1.52604,-6.18773 2.51757,-9.44141 1.78313,-5.8513 1.76163,-6.05335 -1.96484,-18.41796 -2.07215,-6.87548 -4.1347,-12.27182 -4.58398,-11.99414 z m -10.29493,27.29296 c -0.91536,0.0825 -8.42248,5.38769 -14.25976,10.1211 -3.55628,2.88378 -3.60457,2.88786 -27.25391,2.94726 -22.62906,0.0569 -23.567117,0.14702 -20.91015,1.98828 1.52995,1.06025 4.77233,3.58732 7.20507,5.61719 l 4.42383,3.69141 h 18.42383 18.42383 l 4.61328,-3.54688 c 3.93372,-3.02334 4.96873,-4.76815 7.01953,-11.82617 1.3231,-4.55358 2.40625,-8.57543 2.40625,-8.9375 0,-0.0426 -0.0308,-0.0602 -0.0918,-0.0547 z m 31.58008,10.05078 c -0.1575,-0.15749 -5.90061,3.79757 -12.76367,8.78907 -22.62963,16.45854 -21.25787,15.74609 -30.27734,15.74609 -7.71452,0 -8.31793,0.20267 -15.27344,5.16602 -3.98291,2.84215 -7.24219,5.39895 -7.24219,5.67968 0,0.28074 7.863,0.50977 17.47266,0.50977 H 165.821 l 9.49805,-6.69336 c 15.38902,-10.84366 15.2897,-10.73428 18.4707,-20.19531 1.6116,-4.79329 2.80008,-8.84438 2.64258,-9.00196 z m -137.738276,1.42774 c -0.114075,-5.3e-4 -0.185338,0.0326 -0.208984,0.10352 -0.189167,0.5675 1.95022,8.15621 4.753906,16.86328 l 5.097656,15.83007 12.248047,8.73633 12.250004,8.73633 9.595697,0.0469 c 5.40253,0.0256 9.123,-0.3803 8.51562,-0.92774 -2.44702,-2.2055 -17.083507,-12.91132 -28.167961,-20.60351 -3.229473,-2.24113 -4.736835,-4.60587 -7.16211,-11.22852 -2.802883,-7.65379 -3.67387,-8.83223 -9.929687,-13.4375 -3.299943,-2.42928 -6.193661,-4.11545 -6.992188,-4.11914 z m -31.457031,9.48047 c -0.971717,0 0.708389,5.75188 9.369141,32.08008 l 8.498047,25.83398 h 37.822265 c 37.416034,0 37.860104,-0.027 41.365234,-2.55469 15.92531,-11.48419 28.0514,-20.37346 30.43164,-22.30859 l 2.83984,-2.30859 -9.43164,-0.041 c -10.34781,-0.0448 -8.2056,-1.02154 -27.23242,12.41992 l -4.86523,3.4375 H 84.994833 53.955773 l -3.994141,-11.64064 c -2.19704,-6.4019 -4.916782,-14.55009 -6.042968,-18.10742 -1.811123,-5.72091 -2.85954,-7.06407 -9.089844,-11.63868 -3.874102,-2.84457 -7.290542,-5.17187 -7.591797,-5.17187 z m 105.076167,9.08398 c -8.49627,0 -10.70216,0.38258 -13.10351,2.27149 -2.58192,2.03094 -4.60632,2.27148 -19.14258,2.27148 H 83.811242 l 7.886721,5.67774 7.88672,5.67773 h 10.546867 10.54492 l 10.92578,-7.94922 10.92774,-7.94922 z"
     id="path6003"
     inkscape:connector-curvature="0" />
</svg>
