<?xml version="1.0" encoding="UTF-8" standalone="no"?>
<!-- Created with Inkscape (http://www.inkscape.org/) -->

<svg
   xmlns:dc="http://purl.org/dc/elements/1.1/"
   xmlns:cc="http://creativecommons.org/ns#"
   xmlns:rdf="http://www.w3.org/1999/02/22-rdf-syntax-ns#"
   xmlns:svg="http://www.w3.org/2000/svg"
   xmlns="http://www.w3.org/2000/svg"
   xmlns:sodipodi="http://sodipodi.sourceforge.net/DTD/sodipodi-0.dtd"
   xmlns:inkscape="http://www.inkscape.org/namespaces/inkscape"
   version="1.1"
   id="svg62"
   width="38.82769mm"
   height="63.544601mm"
   viewBox="0 0 146.75033 240.16857"
   sodipodi:docname="hermetica-urine.svg"
   inkscape:version="0.92.5 (2060ec1f9f, 2020-04-08)">
  <metadata
     id="metadata68">
    <rdf:RDF>
      <cc:Work
         rdf:about="">
        <dc:format>image/svg+xml</dc:format>
        <dc:type
           rdf:resource="http://purl.org/dc/dcmitype/StillImage" />
        <dc:title></dc:title>
      </cc:Work>
    </rdf:RDF>
  </metadata>
  <defs
     id="defs66" />
  <sodipodi:namedview
     pagecolor="#ffffff"
     bordercolor="#666666"
     borderopacity="1"
     objecttolerance="10"
     gridtolerance="10"
     guidetolerance="10"
     inkscape:pageopacity="0"
     inkscape:pageshadow="2"
     inkscape:window-width="1920"
     inkscape:window-height="997"
     id="namedview64"
     showgrid="false"
     units="mm"
     fit-margin-top="0"
     fit-margin-left="0"
     fit-margin-right="0"
     fit-margin-bottom="0"
     inkscape:zoom="0.88059701"
     inkscape:cx="74.015575"
     inkscape:cy="119.74831"
     inkscape:window-x="0"
     inkscape:window-y="28"
     inkscape:window-maximized="1"
     inkscape:current-layer="svg62" />
  <path
     style="fill:#ff0000;fill-opacity:0.01829266;stroke:#ff0000;stroke-width:0.56779659;stroke-miterlimit:4;stroke-dasharray:none;stroke-opacity:1"
     d="m 94.229135,166.6389 c 0,-81.897556 0.22628,-79.923807 -7.48125,-65.25636 -5.24517,9.98158 -12.75933,16.89841 -22.66628,20.86442 -10.05784,4.02643 -18.59888,4.8131 -27.499627,2.53283 C 18.195435,120.06938 6.247924,108.17141 1.570451,89.913453 -3.25054,71.095287 5.920351,42.864332 22.477788,25.553941 33.663616,13.859434 53.225335,3.3996508 66.721555,1.8964938 c 2.94993,-0.328552 6.76881,-0.815132 8.48639,-1.08129001 l 3.12288,-0.483924 V 13.20044 26.069599 l -7.09745,0.729094 c -15.49586,1.591829 -32.056436,13.905841 -40.152499,29.856353 -3.997313,7.875331 -4.379081,9.450535 -4.733133,19.529305 -0.448712,12.773392 0.947503,16.101412 8.98718,21.421822 6.448262,4.267247 15.743802,4.467087 21.502842,0.46228 8.0591,-5.60428 9.52833,-8.58931 9.96285,-20.24149 L 67.194135,67.2745 h 13.5175 13.5175 V 54.215178 41.155856 h 12.491525 12.49153 V 54.215178 67.2745 h 13.62712 13.62712 V 80.333822 93.393143 H 132.83931 119.21219 V 166.6389 239.88467 H 106.72066 94.229135 Z"
     id="path5283"
     inkscape:connector-curvature="0" />
</svg>
