<?xml version="1.0" encoding="UTF-8" standalone="no"?>
<!-- Created with Inkscape (http://www.inkscape.org/) -->

<svg
   xmlns:dc="http://purl.org/dc/elements/1.1/"
   xmlns:cc="http://creativecommons.org/ns#"
   xmlns:rdf="http://www.w3.org/1999/02/22-rdf-syntax-ns#"
   xmlns:svg="http://www.w3.org/2000/svg"
   xmlns="http://www.w3.org/2000/svg"
   xmlns:sodipodi="http://sodipodi.sourceforge.net/DTD/sodipodi-0.dtd"
   xmlns:inkscape="http://www.inkscape.org/namespaces/inkscape"
   version="1.1"
   id="svg92"
   width="42.405766mm"
   height="62.044792mm"
   viewBox="0 0 160.27376 234.5"
   sodipodi:docname="esoterica-bowl_of_hygeia.svg"
   inkscape:version="0.92.5 (2060ec1f9f, 2020-04-08)">
  <metadata
     id="metadata98">
    <rdf:RDF>
      <cc:Work
         rdf:about="">
        <dc:format>image/svg+xml</dc:format>
        <dc:type
           rdf:resource="http://purl.org/dc/dcmitype/StillImage" />
        <dc:title></dc:title>
      </cc:Work>
    </rdf:RDF>
  </metadata>
  <defs
     id="defs96" />
  <sodipodi:namedview
     pagecolor="#ffffff"
     bordercolor="#666666"
     borderopacity="1"
     objecttolerance="10"
     gridtolerance="10"
     guidetolerance="10"
     inkscape:pageopacity="0"
     inkscape:pageshadow="2"
     inkscape:window-width="1920"
     inkscape:window-height="997"
     id="namedview94"
     showgrid="false"
     units="mm"
     fit-margin-top="0"
     fit-margin-left="0"
     fit-margin-right="0"
     fit-margin-bottom="0"
     inkscape:zoom="0.88059701"
     inkscape:cx="80.365952"
     inkscape:cy="117.47712"
     inkscape:window-x="0"
     inkscape:window-y="28"
     inkscape:window-maximized="1"
     inkscape:current-layer="svg92" />
  <path
     style="fill:#000000;fill-opacity:0;stroke:#ff0000;stroke-width:0.56779659;stroke-miterlimit:4;stroke-dasharray:none;stroke-opacity:1"
     d="m 40.393071,221.72457 v -12.49152 h 13.695671 13.69567 l -0.35245,-4.25848 c -0.34242,-4.13722 -0.49822,-4.27525 -5.47224,-4.84804 -9.15244,-1.05393 -20.27053,-10.46205 -22.700431,-19.2091 -1.534746,-5.52471 -1.341208,-14.55574 0.41736,-19.47514 3.379018,-9.45242 12.874301,-17.08551 23.334431,-18.75816 4.48942,-0.71788 4.63623,-0.87921 4.63623,-5.09482 0,-4.17571 -0.19707,-4.40265 -4.82628,-5.55806 C 47.741502,128.26757 29.26504,117.08563 20.406456,106.36199 7.875945,91.193351 2.149312,76.059682 0.999762,55.076271 L 0.299877,42.300847 H 16.27902 c 16.854354,0 19.571678,-0.409372 19.571678,-2.948531 0,-0.86347 1.349208,-4.94021 2.998242,-9.05942 C 41.0898,24.695328 43.642006,21.008597 48.952342,15.698263 61.568162,3.0824443 70.778442,0.28389829 99.682502,0.28389829 H 119.88459 V 12.775423 25.266949 H 99.666882 c -19.496,0 -20.42918,0.105383 -26.14197,2.952186 -5.711,2.845911 -13.57255,11.686205 -11.88928,13.369474 0.39173,0.391731 22.67846,0.712238 49.526068,0.712238 h 48.81382 l -0.68605,13.911017 c -0.37733,7.651059 -1.53451,16.72076 -2.57151,20.154891 -2.67738,8.866406 -9.12511,21.250746 -14.28003,27.428075 l -4.40788,5.28213 1.25667,5.85964 c 2.37778,11.08724 -3.07077,28.54255 -11.71063,37.51679 -7.72857,8.02769 -15.53785,12.1056 -26.99658,14.09732 l -7.381358,1.28299 -0.30951,20.69968 -0.30952,20.69967 h 13.652738 13.65273 v 12.49152 12.49153 H 80.138832 40.393071 Z m 27.254241,-50.62852 c 0,-2.61911 -0.47694,-3.91024 -1.33837,-3.62309 -3.72185,1.24061 -4.05789,7.69229 -0.40066,7.69229 1.2381,0 1.73903,-1.17213 1.73903,-4.0692 z m 33.125828,-30.19077 c 2.55982,-0.76695 6.09298,-3.16661 8.3648,-5.68124 3.90408,-4.32135 5.23631,-8.29995 2.5136,-7.50664 -0.78072,0.22747 -5.37987,1.64485 -10.22034,3.14974 l -8.800838,2.73616 v 4.31487 c 0,4.8586 0.85249,5.17133 8.142778,2.98711 z M 89.223582,107.62293 c 8.4579,-1.13433 13.627118,-2.85727 13.627118,-4.54204 0,-1.83269 -4.274078,-2.50795 -20.900698,-3.302109 -9.81683,-0.46889 -12.16317,-1.0017 -18.43886,-4.18707 -3.95488,-2.0074 -9.20285,-5.37214 -11.66215,-7.47721 -5.21066,-4.46013 -11.927044,-13.34677 -13.16865,-17.423823 -0.475514,-1.561441 -1.434467,-3.214421 -2.131006,-3.673289 -2.223604,-1.464873 -7.558132,-0.935136 -8.230616,0.817328 -0.920551,2.398918 5.481071,15.512514 10.591199,21.695854 4.713959,5.70397 16.721463,14.124999 23.113063,16.209509 4.96727,1.61999 16.74977,3.34255 19.81924,2.8975 1.24915,-0.18112 4.57076,-0.63771 7.38136,-1.01465 z M 129.5925,77.730117 c 0.9953,-2.061783 2.09565,-5.511148 2.44521,-7.665255 l 0.63557,-3.916557 h -32.59625 c -30.426858,0 -32.571818,0.13226 -32.229088,1.987288 0.71308,3.859566 8.58629,6.381222 22.51123,7.209966 13.895188,0.826972 22.141538,3.142065 29.525418,8.289012 l 3.97458,2.77049 1.96184,-2.46312 c 1.07901,-1.354723 2.77617,-4.150041 3.77149,-6.211824 z"
     id="path6368"
     inkscape:connector-curvature="0" />
</svg>
