<?xml version="1.0" encoding="UTF-8" standalone="no"?>
<!-- Created with Inkscape (http://www.inkscape.org/) -->

<svg
   xmlns:dc="http://purl.org/dc/elements/1.1/"
   xmlns:cc="http://creativecommons.org/ns#"
   xmlns:rdf="http://www.w3.org/1999/02/22-rdf-syntax-ns#"
   xmlns:svg="http://www.w3.org/2000/svg"
   xmlns="http://www.w3.org/2000/svg"
   xmlns:sodipodi="http://sodipodi.sourceforge.net/DTD/sodipodi-0.dtd"
   xmlns:inkscape="http://www.inkscape.org/namespaces/inkscape"
   version="1.1"
   id="svg42"
   width="41.613575mm"
   height="67.453056mm"
   viewBox="0 0 157.27965 254.94069"
   sodipodi:docname="esoterica-diamond.svg"
   inkscape:version="0.92.5 (2060ec1f9f, 2020-04-08)">
  <metadata
     id="metadata48">
    <rdf:RDF>
      <cc:Work
         rdf:about="">
        <dc:format>image/svg+xml</dc:format>
        <dc:type
           rdf:resource="http://purl.org/dc/dcmitype/StillImage" />
        <dc:title></dc:title>
      </cc:Work>
    </rdf:RDF>
  </metadata>
  <defs
     id="defs46" />
  <sodipodi:namedview
     pagecolor="#ffffff"
     bordercolor="#666666"
     borderopacity="1"
     objecttolerance="10"
     gridtolerance="10"
     guidetolerance="10"
     inkscape:pageopacity="0"
     inkscape:pageshadow="2"
     inkscape:window-width="1920"
     inkscape:window-height="997"
     id="namedview44"
     showgrid="false"
     units="mm"
     fit-margin-top="0"
     fit-margin-left="0"
     fit-margin-right="0"
     fit-margin-bottom="0"
     inkscape:zoom="0.88059701"
     inkscape:cx="78.866949"
     inkscape:cy="127.69746"
     inkscape:window-x="0"
     inkscape:window-y="28"
     inkscape:window-maximized="1"
     inkscape:current-layer="svg42" />
  <path
     style="fill:#000000;fill-opacity:0;stroke:#ff0000;stroke-width:0.56779659;stroke-miterlimit:4;stroke-dasharray:none;stroke-opacity:1"
     d="m 72.614079,245.85593 c -2.92782,-4.84046 -9.13148,-14.93305 -13.78592,-22.42796 -13.66855,-22.01007 -18.058615,-29.10806 -21.069685,-34.0661 -4.307224,-7.09228 -11.993688,-19.52238 -17.556608,-28.39153 -2.742234,-4.37204 -6.224251,-9.99322 -7.737816,-12.49153 -1.513566,-2.4983 -4.8732847,-7.9825 -7.4660437,-12.1871 -2.59276,-4.20461 -4.71410801,-8.17422 -4.71410801,-8.82137 0,-0.64715 2.11268301,-4.61677 4.69485001,-8.82137 C 14.993666,102.34145 17.516591,98.2654 22.011143,91.131356 c 4.747576,-7.53566 18.478769,-29.854887 23.404356,-38.042373 1.50298,-2.498305 4.8664,-7.949739 7.47427,-12.114295 8.68537,-13.869822 15.74523,-25.281333 20.43163,-33.0255357 2.55124,-4.21589 5.0367,-7.66525401 5.52324,-7.66525401 0.48655,0 1.91316,1.91631351 3.17025,4.25847501 1.25709,2.342161 4.58328,7.8355927 7.39153,12.2076267 2.80825,4.372034 5.94727,9.482203 6.9756,11.355932 1.02833,1.873729 3.49973,5.961864 5.492011,9.084746 5.22715,8.193539 11.20748,17.819673 25.04518,40.313559 15.9403,25.911763 20.44586,33.186813 25.71915,41.528323 2.39657,3.791 4.3574,7.588 4.3574,8.43778 0,0.84977 -1.96458,4.64678 -4.36574,8.43777 -4.86478,7.68062 -11.49821,18.29427 -13.23595,21.17788 -5.57138,9.24508 -12.82289,21.06746 -16.66164,27.16401 -2.55626,4.05975 -6.04093,9.68093 -7.74371,12.49153 -1.70278,2.81059 -5.7921,9.45381 -9.08737,14.76271 -3.29527,5.3089 -6.816801,11.00662 -7.825611,12.66162 -1.00882,1.65499 -4.33481,7.02067 -7.3911,11.92373 -3.05629,4.90305 -6.80485,11.08647 -8.33014,13.74092 -1.52529,2.65445 -3.14312,4.82627 -3.59518,4.82627 -0.45207,0 -3.21742,-3.96038 -6.14524,-8.80085 z m 10.66719,-45.47292 c 4.75973,-7.57191 11.50544,-18.44641 17.404291,-28.05674 13.63535,-22.21456 20.70238,-33.61898 24.10169,-38.89407 l 3.84188,-5.96186 -3.82287,-5.96187 C 116.73818,108.9261 112.19448,101.6007 105.32627,90.102682 104.7017,89.057082 102.60002,85.666933 100.65588,82.569016 98.711739,79.471099 93.159879,70.548728 88.318409,62.741525 77.938619,46.003383 78.737179,47.000587 77.413329,49.123866 c -0.58089,0.931662 -2.20337,3.563621 -3.60551,5.848798 -13.0788,21.315525 -24.87601,40.322206 -29.844174,48.082416 -11.587576,18.09967 -14.25214,22.90521 -13.852547,24.98306 0.240225,1.24915 6.46578,11.9805 13.834566,23.84745 7.368785,11.86695 15.452665,24.89788 17.964175,28.95763 2.51152,4.05975 5.41857,8.6589 6.46011,10.22034 1.04155,1.56144 3.56036,5.77733 5.59735,9.36864 2.03699,3.59132 4.04938,6.50752 4.47198,6.48047 0.42259,-0.027 2.60149,-2.96541 4.84199,-6.52966 z"
     id="path6481"
     inkscape:connector-curvature="0" />
</svg>
