<?xml version="1.0" encoding="UTF-8" standalone="no"?>
<!-- Created with Inkscape (http://www.inkscape.org/) -->

<svg
   xmlns:dc="http://purl.org/dc/elements/1.1/"
   xmlns:cc="http://creativecommons.org/ns#"
   xmlns:rdf="http://www.w3.org/1999/02/22-rdf-syntax-ns#"
   xmlns:svg="http://www.w3.org/2000/svg"
   xmlns="http://www.w3.org/2000/svg"
   xmlns:sodipodi="http://sodipodi.sourceforge.net/DTD/sodipodi-0.dtd"
   xmlns:inkscape="http://www.inkscape.org/namespaces/inkscape"
   version="1.1"
   id="svg72"
   width="41.653938mm"
   height="61.728146mm"
   viewBox="0 0 157.43221 233.30323"
   sodipodi:docname="hermetica-gungnin.svg"
   inkscape:version="0.92.5 (2060ec1f9f, 2020-04-08)">
  <metadata
     id="metadata78">
    <rdf:RDF>
      <cc:Work
         rdf:about="">
        <dc:format>image/svg+xml</dc:format>
        <dc:type
           rdf:resource="http://purl.org/dc/dcmitype/StillImage" />
        <dc:title></dc:title>
      </cc:Work>
    </rdf:RDF>
  </metadata>
  <defs
     id="defs76" />
  <sodipodi:namedview
     pagecolor="#ffffff"
     bordercolor="#666666"
     borderopacity="1"
     objecttolerance="10"
     gridtolerance="10"
     guidetolerance="10"
     inkscape:pageopacity="0"
     inkscape:pageshadow="2"
     inkscape:window-width="1920"
     inkscape:window-height="997"
     id="namedview74"
     showgrid="false"
     units="mm"
     fit-margin-top="0"
     fit-margin-left="0"
     fit-margin-right="0"
     fit-margin-bottom="0"
     inkscape:zoom="0.88059701"
     inkscape:cx="79.019494"
     inkscape:cy="116.34153"
     inkscape:window-x="0"
     inkscape:window-y="28"
     inkscape:window-maximized="1"
     inkscape:current-layer="svg72" />
  <path
     style="fill:#ff0000;fill-opacity:0.01829266;stroke:#ff0000;stroke-width:0.56779659;stroke-miterlimit:4;stroke-dasharray:none;stroke-opacity:1"
     d="m 22.580511,230.6823 c -1.873729,-1.27661 -5.706356,-3.55209 -8.516949,-5.05662 -2.810593,-1.50452 -5.8122453,-3.20856 -6.6703363,-3.78676 -1.594322,-1.07426 -0.496089,-3.30873 12.9234803,-26.29417 2.370198,-4.05974 6.199503,-10.70297 8.509568,-14.76271 2.310064,-4.05975 6.065683,-10.6243 8.345821,-14.58791 2.280137,-3.9636 4.145704,-7.53567 4.145704,-7.93793 0,-0.40228 -9.205988,-9.94748 -20.457753,-21.21159 L 0.40229469,116.56441 20.977697,96.174878 41.553101,75.78535 39.488764,71.787931 c -1.135386,-2.198581 -3.743413,-6.690181 -5.795617,-9.981334 -2.052204,-3.291153 -3.73128,-6.280231 -3.73128,-6.642394 0,-0.618931 -5.264217,-9.690034 -10.795558,-18.602505 C 17.809603,34.375681 15.014589,29.52102 12.955166,25.773562 10.895744,22.026105 8.3219517,17.713224 7.2356287,16.189383 L 5.2604957,13.418761 11.503,9.6597213 c 3.433378,-2.067472 6.446256,-3.75904 6.695286,-3.75904 0.24903,0 2.413676,-1.237859 4.810327,-2.750797 l 4.357544,-2.75079796 3.966659,7.00927196 c 2.181662,3.8550997 5.908806,10.3308817 8.282541,14.3906277 5.985347,10.236593 12.850787,22.26981 16.354097,28.664176 1.62252,2.961484 3.54457,5.388815 4.27121,5.394068 0.72665,0.0052 5.05403,-3.823074 9.61641,-8.507396 4.56238,-4.684322 8.61453,-8.51695 9.00478,-8.51695 0.39026,0 4.85386,4.13874 9.91912,9.197201 5.06525,5.05846 9.86489,8.978755 10.66586,8.711765 1.359296,-0.453101 15.673456,-24.544551 30.257906,-50.9255907 l 2.87178,-5.19459096 7.45962,4.14257196 c 14.89672,8.2726347 14.9967,8.3579107 13.05297,11.1329767 -1.64838,2.353392 -7.07716,11.615353 -12.44503,21.232278 -1.39447,2.498305 -6.93878,12.129961 -12.32068,21.403682 -5.3819,9.27372 -9.7774,17.449991 -9.76777,18.169492 0.009,0.719499 8.69691,9.944039 19.30509,20.498969 10.60817,10.554932 19.28758,19.503372 19.28758,19.885412 0,0.38204 -8.68728,9.37063 -19.30508,19.97465 -10.6178,10.60402 -19.30509,19.73819 -19.30509,20.29817 0,0.55997 4.17279,8.23087 9.27286,17.04643 5.10007,8.81555 11.15526,19.34989 13.45599,23.40964 2.30073,4.05974 6.07005,10.66206 8.37627,14.67182 2.30623,4.00975 3.96321,7.88964 3.68219,8.62197 -0.28102,0.73233 -2.42611,2.24032 -4.76687,3.35107 -2.34076,1.11076 -6.57586,3.49084 -9.41135,5.28905 -2.8355,1.79821 -5.5195,3.26948 -5.96449,3.26948 -0.44498,0 -2.58324,-3.19386 -4.75172,-7.09746 -2.16846,-3.9036 -7.67647,-13.48517 -12.24002,-21.29237 -4.56355,-7.80721 -10.02466,-17.38877 -12.13581,-21.29238 -2.11115,-3.9036 -4.198816,-7.09745 -4.639256,-7.09745 -0.44045,0 -5.12219,4.34395 -10.40388,9.65322 l -9.60307,9.65321 -9.35818,-9.30956 c -5.14699,-5.12025 -9.62394,-9.04378 -9.94877,-8.71896 -0.6109,0.61091 -11.97067,19.35192 -11.97067,19.74887 0,0.12297 -2.63398,4.76831 -5.853301,10.32297 -3.219317,5.55468 -7.742186,13.39558 -10.050821,17.42425 -2.308633,4.02866 -4.657062,7.47445 -5.218729,7.6573 -0.561667,0.18286 -2.554263,-0.71205 -4.427992,-1.98867 z m 59.727243,-73.82504 c 1.814,-1.29169 3.29818,-3.05103 3.29818,-3.90967 0,-1.86532 -4.44747,-9.64013 -5.51451,-9.64013 -0.41128,0 -2.17657,2.36544 -3.92285,5.25654 l -3.17506,5.25652 2.52958,2.69263 c 3.05571,3.25266 2.72363,3.23581 6.78466,0.34411 z m -20.5647,-33.0468 c 3.09396,-5.76105 3.309,-6.77556 2.04604,-9.65254 -1.74311,-3.97071 -8.71683,-15.138592 -9.45321,-15.138592 -0.6224,0 -12.519031,11.797272 -15.789054,15.657192 l -2.20085,2.59787 9.001304,9.0544 9.0013,9.05441 1.96856,-2.56753 c 1.08272,-1.41214 3.52437,-5.46448 5.42591,-9.00521 z m 52.489426,1.33038 8.26766,-7.94628 -8.84641,-8.80372 c -9.98444,-9.936252 -8.27117,-10.186062 -15.298546,2.23066 -3.34902,5.91742 -3.56234,6.82019 -2.15553,9.12241 0.85873,1.40529 2.93612,4.98241 4.616416,7.94915 1.6803,2.96673 3.52616,5.39406 4.10192,5.39406 0.57575,0 4.76727,-3.57582 9.31449,-7.94628 z m -30.203806,-39.952282 2.55858,-4.042718 -3.91538,-3.794935 -3.91537,-3.794934 -2.98445,2.984444 -2.98444,2.984444 3.08882,5.270679 c 1.69885,2.89887 3.65241,5.08282 4.34124,4.85321 0.68884,-0.22961 2.40379,-2.2367 3.811,-4.46019 z"
     id="path6429"
     inkscape:connector-curvature="0" />
</svg>
