<?xml version="1.0" encoding="UTF-8" standalone="no"?>
<!-- Created with Inkscape (http://www.inkscape.org/) -->

<svg
   xmlns:dc="http://purl.org/dc/elements/1.1/"
   xmlns:cc="http://creativecommons.org/ns#"
   xmlns:rdf="http://www.w3.org/1999/02/22-rdf-syntax-ns#"
   xmlns:svg="http://www.w3.org/2000/svg"
   xmlns="http://www.w3.org/2000/svg"
   xmlns:sodipodi="http://sodipodi.sourceforge.net/DTD/sodipodi-0.dtd"
   xmlns:inkscape="http://www.inkscape.org/namespaces/inkscape"
   version="1.1"
   id="svg32"
   width="61.727802mm"
   height="61.83263mm"
   viewBox="0 0 233.30193 233.69813"
   sodipodi:docname="esoterica-thunderbird.svg"
   inkscape:version="0.92.5 (2060ec1f9f, 2020-04-08)">
  <metadata
     id="metadata38">
    <rdf:RDF>
      <cc:Work
         rdf:about="">
        <dc:format>image/svg+xml</dc:format>
        <dc:type
           rdf:resource="http://purl.org/dc/dcmitype/StillImage" />
        <dc:title></dc:title>
      </cc:Work>
    </rdf:RDF>
  </metadata>
  <defs
     id="defs36" />
  <sodipodi:namedview
     pagecolor="#ffffff"
     bordercolor="#666666"
     borderopacity="1"
     objecttolerance="10"
     gridtolerance="10"
     guidetolerance="10"
     inkscape:pageopacity="0"
     inkscape:pageshadow="2"
     inkscape:window-width="1920"
     inkscape:window-height="997"
     id="namedview34"
     showgrid="false"
     units="mm"
     fit-margin-top="0"
     fit-margin-left="0"
     fit-margin-right="0"
     fit-margin-bottom="0"
     inkscape:zoom="0.88059701"
     inkscape:cx="117.56032"
     inkscape:cy="116.34153"
     inkscape:window-x="0"
     inkscape:window-y="28"
     inkscape:window-maximized="1"
     inkscape:current-layer="svg32" />
  <path
     style="fill:#000000;fill-opacity:0;stroke:#ff0000;stroke-width:0.56779659;stroke-miterlimit:4;stroke-dasharray:none;stroke-opacity:1"
     d="m 103.44202,205.3083 -0.30373,-28.10593 -4.952621,10.22034 c -8.27508,17.07668 -11.92413,24.77496 -15.488062,32.67462 -1.873729,4.15323 -3.830237,7.57104 -4.347793,7.59513 -1.645089,0.0766 -21.203054,-9.33437 -21.203054,-10.20254 0,-1.1786 2.992395,-8.30019 7.385062,-17.57568 2.070499,-4.37204 5.599526,-11.90954 7.842283,-16.75 2.242757,-4.84047 5.866299,-12.54385 8.052316,-17.11861 2.186017,-4.57477 3.974578,-9.13683 3.974578,-10.13791 0,-1.0011 -1.335551,-2.8707 -2.967887,-4.15471 -1.632338,-1.28399 -4.444565,-4.66302 -6.249394,-7.50894 -6.232198,-9.82715 -6.994185,-12.69855 -7.201811,-27.13864 -0.179023,-12.45077 -0.389378,-13.66692 -2.62015,-15.1481 -1.334026,-0.88575 -2.915747,-1.30748 -3.514936,-0.93716 -0.599189,0.37032 -1.673812,4.13789 -2.388051,8.37238 -1.294561,7.67502 -0.538268,16.84024 2.157386,26.14454 1.487369,5.13381 8.447914,17.39125 11.385469,20.0497 l 2.401258,2.1731 -8.787791,8.83964 c -10.13012,10.18988 -9.322837,10.27454 -18.011942,-1.88868 -7.463021,-10.44692 -12.97568,-24.8729 -14.024589,-36.70071 -1.056459,-11.91295 0.194481,-28.432864 2.681319,-35.409464 1.768488,-4.96134 1.75021,-5.16805 -0.627528,-7.09746 -3.825224,-3.103966 -5.287546,-2.406868 -7.146496,3.40678 -4.260215,13.323324 -5.132822,30.084734 -2.409121,46.275424 2.081246,12.37171 9.936738,29.28956 18.521893,39.88937 l 5.634854,6.95717 -8.726654,8.67547 -8.726653,8.67547 -3.424538,-3.70891 C 23.873588,188.65368 18.92843,181.72469 14.33599,173.2278 -4.5864273,138.21771 -4.3905113,96.775286 14.867465,60.804064 22.067687,47.355048 21.523236,47.831938 26.357677,50.739667 c 5.417658,3.258509 14.07859,8.268557 27.9501,16.168158 6.245762,3.556861 12.377966,7.052534 13.627118,7.768162 1.249153,0.715628 4.637414,2.780265 7.52947,4.58808 l 5.258283,3.286938 5.821591,-4.406198 c 3.20188,-2.423408 8.37315,-5.323724 11.49172,-6.445145 l 5.670121,-2.038949 V 34.978124 0.29553611 l 15.04661,0.60466 C 134.08368,1.5162841 152.165,5.1246211 160.9762,9.3263851 l 3.88445,1.8523679 -2.17985,5.530307 c -4.60714,11.688397 -7.89425,17.076848 -9.92787,16.274403 -7.16778,-2.82833 -19.74332,-6.370995 -21.44921,-6.042471 -1.88367,0.362763 -2.04679,2.061723 -2.04679,21.31894 v 20.924764 l 6.50369,2.519165 c 3.57704,1.38554 8.42038,4.099051 10.76298,6.030023 4.74232,3.909015 7.6968,4.363705 11.41809,1.757219 1.37702,-0.9645 5.4511,-3.439484 9.05352,-5.499961 3.60242,-2.060478 11.14901,-6.435166 16.77019,-9.721529 5.62119,-3.286363 12.95177,-7.474657 16.29018,-9.307318 3.33841,-1.832661 7.23474,-4.095385 8.65851,-5.028274 2.4894,-1.631125 2.72293,-1.486925 6.09038,3.760788 11.60135,18.079139 17.29362,37.152817 18.05004,60.482141 0.43372,13.37649 0.12902,17.0161 -2.39056,28.5551 -4.30995,19.73848 -13.68786,38.35183 -26.11544,51.83417 l -4.51543,4.89865 -8.82569,-8.77393 -8.82569,-8.77394 4.76642,-5.67799 c 15.56805,-18.54536 23.45447,-43.51221 21.21808,-67.17223 -0.92629,-9.799714 -5.49213,-25.550854 -7.40652,-25.550854 -0.77669,0 -2.49885,0.89428 -3.82703,1.98729 l -2.41487,1.98729 2.41944,7.94915 c 1.81055,5.948684 2.4542,11.235654 2.5576,21.008484 0.24249,22.91865 -5.92697,39.14703 -22.21739,58.44138 -0.54507,0.6456 -4.61154,-2.57237 -9.92209,-7.85176 l -8.99846,-8.94571 3.82249,-4.46572 c 10.35505,-12.09755 15.22326,-31.56422 11.8394,-47.34264 -1.284,-5.98704 -2.53469,-6.815994 -6.21852,-4.12158 -1.96524,1.43741 -2.16213,2.77172 -1.81516,12.30167 0.33203,9.11961 -0.0293,11.8928 -2.46062,18.88399 -1.6393,4.7138 -4.93997,10.88555 -7.77054,14.5297 -2.7064,3.48431 -5.35161,6.91352 -5.87824,7.62046 -0.77366,1.03853 17.20981,41.61933 26.12022,58.94187 l 1.63041,3.16965 -10.68896,5.0634 c -5.87894,2.78489 -11.14087,5.05233 -11.69317,5.03878 -0.55232,-0.0135 -3.53772,-5.50699 -6.63423,-12.20763 -3.09651,-6.70065 -8.07893,-17.40177 -11.07203,-23.78029 -2.99311,-6.37851 -5.44202,-12.17003 -5.44202,-12.87005 0,-0.70001 -0.63877,-1.06011 -1.41949,-0.80021 -1.07199,0.35688 -1.49394,7.19118 -1.72358,27.91668 l -0.30409,27.44411 h -12.45149 -12.4515 z m 24.7974,-66.20547 c 9.0347,-4.37361 14.80484,-15.87026 12.97835,-25.85856 -1.85041,-10.11913 -11.26147,-19.260164 -20.95385,-20.352644 -7.74981,-0.87351 -12.40162,0.48415 -18.61819,5.43385 -11.277691,8.979434 -12.463171,24.582144 -2.690351,35.408974 2.300601,2.54872 5.715961,5.30314 7.589691,6.12094 5.33354,2.32783 16.10281,1.95427 21.69435,-0.75256 z"
     id="path5331"
     inkscape:connector-curvature="0" />
</svg>
