<?xml version="1.0" encoding="UTF-8" standalone="no"?>
<!-- Created with Inkscape (http://www.inkscape.org/) -->

<svg
   xmlns:dc="http://purl.org/dc/elements/1.1/"
   xmlns:cc="http://creativecommons.org/ns#"
   xmlns:rdf="http://www.w3.org/1999/02/22-rdf-syntax-ns#"
   xmlns:svg="http://www.w3.org/2000/svg"
   xmlns="http://www.w3.org/2000/svg"
   xmlns:sodipodi="http://sodipodi.sourceforge.net/DTD/sodipodi-0.dtd"
   xmlns:inkscape="http://www.inkscape.org/namespaces/inkscape"
   version="1.1"
   id="svg12"
   width="67.176384mm"
   height="59.661724mm"
   viewBox="0 0 253.895 225.49313"
   sodipodi:docname="esoterica-onkar.svg"
   inkscape:version="0.92.5 (2060ec1f9f, 2020-04-08)">
  <metadata
     id="metadata18">
    <rdf:RDF>
      <cc:Work
         rdf:about="">
        <dc:format>image/svg+xml</dc:format>
        <dc:type
           rdf:resource="http://purl.org/dc/dcmitype/StillImage" />
        <dc:title></dc:title>
      </cc:Work>
    </rdf:RDF>
  </metadata>
  <defs
     id="defs16" />
  <sodipodi:namedview
     pagecolor="#ffffff"
     bordercolor="#666666"
     borderopacity="1"
     objecttolerance="10"
     gridtolerance="10"
     guidetolerance="10"
     inkscape:pageopacity="0"
     inkscape:pageshadow="2"
     inkscape:window-width="1920"
     inkscape:window-height="997"
     id="namedview14"
     showgrid="false"
     inkscape:zoom="0.88059701"
     inkscape:cx="127.60241"
     inkscape:cy="112.9246"
     inkscape:window-x="0"
     inkscape:window-y="28"
     inkscape:window-maximized="1"
     inkscape:current-layer="svg12"
     units="mm"
     fit-margin-top="0"
     fit-margin-left="0"
     fit-margin-right="0"
     fit-margin-bottom="0" />
  <path
     style="fill:#000000;fill-opacity:0;stroke:#ff0000;stroke-width:0.56779659;stroke-miterlimit:4;stroke-dasharray:none;stroke-opacity:1"
     d="M 74.993711,218.67978 C 60.439757,195.64243 47.413496,162.8109 44.302423,141.32512 43.613027,136.564 42.680202,131.97438 42.229479,131.12598 41.651986,130.03895 38.593188,129.52769 31.871451,129.39467 20.83519,129.17629 16.695521,127.55364 9.5967252,120.66352 0.68423982,112.01304 -2.1749665,97.622443 2.523656,85.064253 10.201207,64.544158 39.494696,58.884218 55.218421,74.882836 c 7.149841,7.274837 8.690129,12.173357 9.815463,31.215734 2.139389,36.20171 13.170307,71.54821 30.843036,98.8307 l 4.14334,6.39633 -10.195047,6.94689 c -5.607276,3.82078 -10.311505,6.94241 -10.453841,6.93695 -0.142335,-0.006 -2.112283,-2.94381 -4.377661,-6.52966 z M 37.663427,102.57531 c 1.249152,-1.24915 2.271186,-3.224307 2.271186,-4.389227 0,-3.34747 -4.380108,-8.1023 -7.463777,-8.1023 -6.043778,0 -9.525208,8.1493 -5.419541,12.686007 2.47968,2.74002 7.774672,2.64298 10.612132,-0.19448 z"
     id="path5431"
     inkscape:connector-curvature="0" />
  <path
     style="fill:#000000;fill-opacity:0;stroke:#ff0000;stroke-width:0.56779659;stroke-miterlimit:4;stroke-dasharray:none;stroke-opacity:1"
     d="M 119.98519,209.54153 C 105.85722,203.56938 100.30422,197.78694 92.202098,180.61049 78.90289,152.41625 73.745442,127.59685 73.626708,91.219383 73.553787,68.877806 73.67346,67.573637 76.596526,58.854974 82.101074,42.436492 92.292724,30.533605 107.50241,22.759812 c 16.94569,-8.661081 40.76279,-8.634064 56.43627,0.06402 5.52298,3.065005 5.60137,3.074071 7.15833,0.827756 8.46413,-12.211662 17.43057,-19.3463093 27.83399,-22.1476583 5.93805,-1.59895198 18.34286,-1.62033998 25.34915,-0.04371 6.29341,1.416212 15.59125,7.090526 20.77857,12.6808163 4.72152,5.08829 9.85946,13.485124 8.25143,13.485124 -0.70403,0 -5.88514,2.044068 -11.51358,4.542373 -11.2521,4.994506 -12.21789,5.235712 -12.21789,3.051442 0,-2.355756 -5.77889,-7.073135 -11.2636,-9.19461 -8.84002,-3.419307 -17.49799,-0.298077 -23.9749,8.643046 -3.09176,4.268045 -3.47824,5.638747 -3.23947,11.489168 l 0.27111,6.64295 -9.98715,4.446714 c -5.49294,2.445693 -10.6075,4.446714 -11.3657,4.446714 -0.75819,0 -2.09122,-1.331654 -2.96227,-2.959229 -2.88774,-5.395786 -12.933,-13.52627 -19.22077,-15.55699 -13.30195,-4.296051 -27.19731,-1.534273 -36.90089,7.334247 -6.08875,5.564773 -11.44543,15.245423 -12.15693,21.970107 l -0.36045,3.40678 47.55344,0.296472 47.55343,0.296472 -0.57339,12.762847 c -0.90601,20.166447 -6.20656,32.467347 -19.24625,44.664447 -5.35526,5.00923 -6.5809,7.5779 -4.29106,8.9931 2.04961,1.26673 6.47915,11.15685 7.94051,17.72928 1.92431,8.65453 0.67823,17.22308 -3.88567,26.71937 -4.48878,9.33999 -11.55369,16.22656 -21.44955,20.90811 -6.2158,2.94058 -8.2414,3.32416 -17.26247,3.26895 -6.93575,-0.0425 -11.68297,-0.68084 -14.77146,-1.98639 z m 22.60739,-24.51521 c 9.2342,-3.85831 13.16551,-15.31246 8.41959,-24.53108 -4.46352,-8.67008 -8.60145,-10.18407 -27.89535,-10.20633 -8.90022,-0.0103 -16.18221,0.19821 -16.18221,0.46331 0,1.07195 7.26423,18.59655 9.68536,23.36546 2.8993,5.71075 7.88502,10.85431 11.32312,11.68158 4.59068,1.1046 10.96022,0.76852 14.64949,-0.77294 z m 4.45002,-63.00124 c 3.00981,-1.48187 7.05609,-4.0269 8.99174,-5.65565 3.36913,-2.83494 9.95112,-12.10586 9.95112,-14.01645 0,-1.15401 -66.68032,-1.21493 -67.39007,-0.0616 -0.66856,1.08644 1.28216,20.54746 2.21014,22.04895 0.43281,0.70031 8.28355,0.98552 20.73065,0.75309 18.3664,-0.34293 20.48955,-0.59834 25.50642,-3.06837 z"
     id="path5433"
     inkscape:connector-curvature="0" />
</svg>
