<?xml version="1.0" encoding="UTF-8" standalone="no"?>
<!-- Created with Inkscape (http://www.inkscape.org/) -->

<svg
   xmlns:dc="http://purl.org/dc/elements/1.1/"
   xmlns:cc="http://creativecommons.org/ns#"
   xmlns:rdf="http://www.w3.org/1999/02/22-rdf-syntax-ns#"
   xmlns:svg="http://www.w3.org/2000/svg"
   xmlns="http://www.w3.org/2000/svg"
   xmlns:sodipodi="http://sodipodi.sourceforge.net/DTD/sodipodi-0.dtd"
   xmlns:inkscape="http://www.inkscape.org/namespaces/inkscape"
   version="1.1"
   id="svg42"
   width="29.080059mm"
   height="61.943607mm"
   viewBox="0 0 109.90889 234.11757"
   sodipodi:docname="esoterica-sa.svg"
   inkscape:version="0.92.5 (2060ec1f9f, 2020-04-08)">
  <metadata
     id="metadata48">
    <rdf:RDF>
      <cc:Work
         rdf:about="">
        <dc:format>image/svg+xml</dc:format>
        <dc:type
           rdf:resource="http://purl.org/dc/dcmitype/StillImage" />
        <dc:title></dc:title>
      </cc:Work>
    </rdf:RDF>
  </metadata>
  <defs
     id="defs46" />
  <sodipodi:namedview
     pagecolor="#ffffff"
     bordercolor="#666666"
     borderopacity="1"
     objecttolerance="10"
     gridtolerance="10"
     guidetolerance="10"
     inkscape:pageopacity="0"
     inkscape:pageshadow="2"
     inkscape:window-width="1920"
     inkscape:window-height="997"
     id="namedview44"
     showgrid="false"
     units="mm"
     fit-margin-top="0"
     fit-margin-left="0"
     fit-margin-right="0"
     fit-margin-bottom="0"
     inkscape:zoom="0.88059701"
     inkscape:cx="55.826167"
     inkscape:cy="116.31256"
     inkscape:window-x="0"
     inkscape:window-y="28"
     inkscape:window-maximized="1"
     inkscape:current-layer="svg42" />
  <path
     style="fill:#000000;fill-opacity:0;stroke:#ff0000;stroke-width:0.56779659;stroke-miterlimit:4;stroke-dasharray:none;stroke-opacity:1"
     d="m 10.448848,227.7665 c -5.1584576,-3.32068 -9.68560358,-6.34418 -10.06032358,-6.71891 -0.374721,-0.37472 0.316503,-2.11603 1.53605298,-3.86957 6.788086,-9.76034 18.4531876,-38.03744 21.3727196,-51.80912 2.49828,-11.7846 2.41487,-12.13338 -2.901638,-12.13338 h -4.542373 v -12.49153 -12.49152 h 6.813561 6.81356 v -3.97458 -3.97457 h -6.81356 -6.813561 V 107.81179 95.32026 h 5.04315 c 2.773731,0 5.259061,-0.38326 5.522951,-0.85169 0.26389,-0.46843 -1.82158,-8.77246 -4.634373,-18.453391 C 16.999033,59.543046 16.662825,57.499785 16.545961,44.175512 16.422881,30.142609 16.476341,29.828442 20.257528,22.362887 24.884227,13.22797 30.052257,8.2639245 39.132947,4.2325165 c 10.16738,-4.51385103 16.95247,-5.06541903 26.52917,-2.156588 17.98995,5.464279 28.50766,19.9553145 28.52693,39.3036575 0.0106,10.634835 -2.96317,27.456821 -6.72505,38.042373 -1.88667,5.308901 -3.44039,11.057841 -3.45271,12.775421 -0.0212,2.94745 0.26466,3.12288 5.08776,3.12288 h 5.11017 v 12.49153 12.49153 h -6.24576 -6.24576 v 3.97457 3.97458 h 6.24576 6.24576 v 12.49152 12.49153 h -4.69673 -4.69672 l 0.6704,4.82627 c 1.78676,12.86301 11.63823,39.15571 20.413723,54.4824 2.40564,4.20155 4.05559,8.15422 3.66654,8.78371 -0.38904,0.6295 -4.23369,3.20402 -8.54365,5.72118 -4.309963,2.51715 -8.147353,5.07995 -8.527543,5.6951 -1.29137,2.08949 -3.39005,1.11458 -5.55269,-2.5794 -10.73806,-18.34157 -19.58903,-40.43345 -24.5654,-61.31485 l -3.72116,-15.61441 h -3.66721 c -3.86005,0 -5.01817,1.80588 -5.05219,7.87795 -0.0241,4.30065 -8.78251,32.28063 -13.72784,43.85552 -4.69464,10.9881 -14.414013,28.91391 -15.65028,28.86437 -0.401833,-0.0161 -4.951161,-2.74618 -10.109619,-6.06686 z M 58.381527,91.06179 c 0.42022,-2.34216 2.27055,-9.113136 4.11183,-15.046611 7.47233,-24.079369 8.65619,-37.523631 3.9182,-44.496211 -6.99512,-10.294233 -22.77988,-6.954947 -25.08,5.305702 -1.21364,6.469299 1.17731,22.859803 4.99666,34.253126 1.85252,5.526155 3.9996,13.241404 4.7713,17.145014 1.22367,6.18984 1.73014,7.09745 3.96052,7.09745 2.06236,0 2.70534,-0.82436 3.32149,-4.25847 z"
     id="path5325"
     inkscape:connector-curvature="0" />
</svg>
