<?xml version="1.0" encoding="UTF-8" standalone="no"?>
<!-- Created with Inkscape (http://www.inkscape.org/) -->

<svg
   xmlns:dc="http://purl.org/dc/elements/1.1/"
   xmlns:cc="http://creativecommons.org/ns#"
   xmlns:rdf="http://www.w3.org/1999/02/22-rdf-syntax-ns#"
   xmlns:svg="http://www.w3.org/2000/svg"
   xmlns="http://www.w3.org/2000/svg"
   xmlns:sodipodi="http://sodipodi.sourceforge.net/DTD/sodipodi-0.dtd"
   xmlns:inkscape="http://www.inkscape.org/namespaces/inkscape"
   version="1.1"
   id="svg102"
   width="45.83342mm"
   height="66.551781mm"
   viewBox="0 0 173.22867 251.53429"
   sodipodi:docname="esoterica-mano_fico.svg"
   inkscape:version="0.92.5 (2060ec1f9f, 2020-04-08)">
  <metadata
     id="metadata108">
    <rdf:RDF>
      <cc:Work
         rdf:about="">
        <dc:format>image/svg+xml</dc:format>
        <dc:type
           rdf:resource="http://purl.org/dc/dcmitype/StillImage" />
        <dc:title></dc:title>
      </cc:Work>
    </rdf:RDF>
  </metadata>
  <defs
     id="defs106" />
  <sodipodi:namedview
     pagecolor="#ffffff"
     bordercolor="#666666"
     borderopacity="1"
     objecttolerance="10"
     gridtolerance="10"
     guidetolerance="10"
     inkscape:pageopacity="0"
     inkscape:pageshadow="2"
     inkscape:window-width="1920"
     inkscape:window-height="997"
     id="namedview104"
     showgrid="false"
     units="mm"
     fit-margin-top="0"
     fit-margin-left="0"
     fit-margin-right="0"
     fit-margin-bottom="0"
     inkscape:zoom="0.88059701"
     inkscape:cx="-95.721836"
     inkscape:cy="125.42665"
     inkscape:window-x="0"
     inkscape:window-y="28"
     inkscape:window-maximized="1"
     inkscape:current-layer="svg102" />
  <path
     style="fill:#000000;fill-opacity:0;stroke:#ff0000;stroke-width:0.56779659;stroke-miterlimit:4;stroke-dasharray:none;stroke-opacity:1"
     d="m 40.984,238.47458 -0.32109,-12.77542 -2.838983,0.32965 c -10.390776,1.20654 -18.943598,0.56081 -23.420712,-1.76826 -5.2717729,-2.74244 -10.2417419,-8.12873 -12.5225599,-13.57153 -1.91970603,-4.58106 -2.20076203,-78.04453 -0.337151,-88.12574 1.754706,-9.49207 8.3095,-22.3116 15.8979629,-31.092431 6.01384,-6.958783 13.33388,-18.104072 15.326208,-23.335256 0.503223,-1.321294 0.210505,-1.987288 -0.873451,-1.987288 -1.005005,0 -3.229414,-4.09044 -5.799463,-10.664558 -2.293026,-5.865507 -4.169139,-10.965311 -4.169139,-11.332896 0,-0.367586 2.039083,-3.361542 4.531297,-6.653238 6.241918,-8.244274 7.960228,-13.99222 7.960228,-26.627873 V 0.28389829 h 54.335899 54.335914 l 0.73031,11.93615371 c 0.81475,13.316103 2.25689,17.704928 8.56162,26.055484 l 4.32579,5.729457 -2.4891,6.813182 c -2.08601,5.709846 -5.50239,13.725147 -7.08562,16.623845 -0.21807,0.399256 2.72695,4.346002 6.54451,8.770547 14.38852,16.6763 19.24134,31.607583 19.26813,59.284713 0.0194,20.06298 -1.55557,25.74857 -9.18081,33.14195 -4.19547,4.06789 -5.56698,6.22562 -5.56698,8.75824 0,6.57539 -4.41531,15.71803 -9.74049,20.16933 -4.4666,3.73361 -5.02222,4.72245 -5.02222,8.93807 0,10.64272 -9.96189,22.31262 -21.75854,25.48913 -5.12486,1.37998 -15.07513,-0.16474 -18.68958,-2.90145 -3.515174,-2.66155 -4.791744,-1.97064 -7.350994,3.97847 -2.76261,6.42188 -9.27263,12.84733 -16.20632,15.99583 -3.90502,1.77322 -7.51882,2.13748 -21.41077,2.15822 l -16.712806,0.0249 z m 30.907726,-14.47881 c 1.92882,-1.92882 2.27118,-3.78531 2.27118,-12.31552 0,-8.60215 -0.3261,-10.33947 -2.27118,-12.09974 -2.19171,-1.98346 -2.35067,-1.98346 -4.54238,0 -2.00522,1.8147 -2.27118,3.49759 -2.27118,14.37092 0,11.55846 0.13961,12.31552 2.27118,12.31552 1.24916,0 3.29322,-1.02203 4.54238,-2.27118 z m 46.559324,-18.61076 c 0,-2.15315 -36.332504,-39.49593 -37.914374,-38.96864 -3.18944,1.06315 -0.0635,5.36569 16.22384,22.33059 16.171524,16.84426 21.690534,21.07769 21.690534,16.63805 z M 39.420184,191.34746 c 6.304686,-6.08962 11.628587,-11.71235 11.830891,-12.49495 0.202304,-0.78262 -0.482797,-1.74935 -1.522447,-2.1483 -1.370798,-0.52603 -5.111605,2.485 -13.612093,10.95656 -10.605948,10.56985 -13.259776,14.75872 -9.350279,14.75872 0.654975,0 6.349242,-4.98241 12.653928,-11.07203 z m 93.382406,-13.34187 c 0.86352,-2.25032 -27.41386,-32.36576 -30.39037,-32.36576 -1.17186,0 -2.13066,0.74507 -2.13066,1.65571 0,1.77506 29.16764,32.41209 30.85756,32.41209 0.55568,0 1.30424,-0.76592 1.66347,-1.70204 z M 36.98756,153.90228 c 2.67193,-1.45422 6.233116,-1.99795 13.043994,-1.99156 5.152752,0.005 9.368642,-0.29549 9.368642,-0.66737 0,-1.26238 9.80956,-7.72834 12.90241,-8.50459 2.05325,-0.51534 3.6091,-2.04626 4.67698,-4.60205 2.85474,-6.83237 8.50372,-12.70568 14.68417,-15.26734 4.97501,-2.06202 6.14052,-3.15389 7.89523,-7.3964 2.408234,-5.82254 8.195744,-11.26492 15.339894,-14.42512 6.85584,-3.032663 16.66762,-2.223663 22.8783,1.88637 2.42663,1.60587 4.68285,2.48161 5.01383,1.94608 0.7034,-1.13813 -4.52578,-8.655213 -11.29892,-16.242451 -2.61817,-2.932871 -6.49572,-9.19227 -8.61678,-13.909777 l -3.85646,-8.577287 -30.250744,-0.0012 -30.25074,-0.0012 -0.74869,3.99087 c -2.05936,10.977352 -8.220402,22.223302 -18.65494,34.051505 -11.06951,12.54798 -13.669894,19.76407 -14.594249,40.49921 -0.813766,18.25439 -0.459878,19.33664 4.809927,14.7097 2.190537,-1.92332 5.636704,-4.39711 7.658146,-5.49731 z m 110.98891,-5.24075 c 0,-2.11042 -21.94136,-23.46237 -24.11005,-23.46237 -3.78425,0 -1.94345,2.85259 9.33077,14.45948 7.69105,7.91798 11.84374,11.40705 13.03338,10.95054 0.96024,-0.36848 1.7459,-1.24492 1.7459,-1.94765 z M 123.73417,38.610169 c -0.32127,-0.78072 -1.48178,-4.110496 -2.57893,-7.399502 l -1.99481,-5.98001 -30.066504,0.302044 -30.06651,0.302045 -1.99678,5.677966 c -1.09823,3.122881 -2.03639,6.316737 -2.0848,7.097457 -0.0686,1.106569 7.56816,1.419492 34.64221,1.419492 27.338654,0 34.605914,-0.302109 34.146124,-1.419492 z"
     id="path6347"
     inkscape:connector-curvature="0" />
</svg>
