<?xml version="1.0" encoding="UTF-8" standalone="no"?>
<!-- Created with Inkscape (http://www.inkscape.org/) -->

<svg
   xmlns:dc="http://purl.org/dc/elements/1.1/"
   xmlns:cc="http://creativecommons.org/ns#"
   xmlns:rdf="http://www.w3.org/1999/02/22-rdf-syntax-ns#"
   xmlns:svg="http://www.w3.org/2000/svg"
   xmlns="http://www.w3.org/2000/svg"
   xmlns:sodipodi="http://sodipodi.sourceforge.net/DTD/sodipodi-0.dtd"
   xmlns:inkscape="http://www.inkscape.org/namespaces/inkscape"
   version="1.1"
   id="svg42"
   width="49.208572mm"
   height="61.576164mm"
   viewBox="0 0 185.98516 232.72881"
   sodipodi:docname="hermetica-styx.svg"
   inkscape:version="0.92.5 (2060ec1f9f, 2020-04-08)">
  <metadata
     id="metadata48">
    <rdf:RDF>
      <cc:Work
         rdf:about="">
        <dc:format>image/svg+xml</dc:format>
        <dc:type
           rdf:resource="http://purl.org/dc/dcmitype/StillImage" />
        <dc:title></dc:title>
      </cc:Work>
    </rdf:RDF>
  </metadata>
  <defs
     id="defs46" />
  <sodipodi:namedview
     pagecolor="#ffffff"
     bordercolor="#666666"
     borderopacity="1"
     objecttolerance="10"
     gridtolerance="10"
     guidetolerance="10"
     inkscape:pageopacity="0"
     inkscape:pageshadow="2"
     inkscape:window-width="1920"
     inkscape:window-height="997"
     id="namedview44"
     showgrid="false"
     inkscape:zoom="0.88059701"
     inkscape:cx="92.722018"
     inkscape:cy="116.30405"
     inkscape:window-x="0"
     inkscape:window-y="28"
     inkscape:window-maximized="1"
     inkscape:current-layer="svg42"
     units="mm"
     fit-margin-top="0"
     fit-margin-left="0"
     fit-margin-right="0"
     fit-margin-bottom="0" />
  <path
     style="fill:#ff0000;fill-opacity:0.01829266;stroke:#ff0000;stroke-width:0.56779659;stroke-miterlimit:4;stroke-dasharray:none;stroke-opacity:1"
     d="m 92.835298,0.28413379 c -15.34446,0.0471 -26.91679,6.98681701 -34.933592,20.95117221 -3.091336,5.384749 -3.634295,7.568118 -4.050782,16.279297 -0.467201,9.771923 -0.361275,10.29695 3.695313,18.289062 5.363291,10.566509 11.415871,15.953347 22.580081,20.101563 8.14258,3.025488 20.594782,2.383463 29.175782,-1.50586 7.25804,-3.289694 16.18129,-12.267494 19.27344,-19.390625 4.74251,-10.924951 3.75988,-26.571938 -2.26172,-36.017578 C 118.28964,6.4042268 107.25671,0.23986379 92.835298,0.28413379 Z M 92.112638,24.698197 c 4.30525,-0.171188 8.618922,1.836061 11.580082,5.923828 5.08958,7.02595 3.94676,14.569401 -3.03906,20.064453 -3.719362,2.925647 -11.078362,3.105921 -15.476562,0.378906 -7.18804,-4.456804 -8.44482,-15.712821 -2.45313,-21.966797 2.69783,-2.81593 6.04015,-4.267245 9.38867,-4.40039 z m -91.8281197,2.242187 0.02539,11.638672 c 0.08607,40.76215 24.6548047,75.118234 62.9999997,88.093754 5.62118,1.90214 11.62616,3.75624 13.34375,4.12109 l 3.12305,0.66406 v 11.33399 11.33398 h -7.17383 c -15.848066,0 -25.894411,3.48426 -34.304689,11.89453 -6.312351,6.31236 -9.258347,12.16725 -10.66211,21.19336 -2.938903,18.89694 5.81042,34.60838 23.978516,43.05664 7.177673,3.33766 23.143913,2.73898 30.791013,-1.15625 7.83915,-3.99305 13.26299,-9.04791 17.783212,-16.57031 3.75264,-6.24501 3.97739,-7.21928 4.54297,-19.71875 l 0.5957,-13.14844 26.9707,-0.30468 26.96875,-0.30274 v -12.45117 -12.45117 l -26.96875,-0.30469 -26.9707,-0.30273 -0.33008,-10.04883 c -0.35673,-10.87078 0.52738,-13.23242 4.95508,-13.23242 3.84538,0 23.76016,-7.42814 29.68359,-11.07227 14.58775,-8.97449 28.65398,-24.028611 35.81446,-38.326173 6.41159,-12.802255 8.91484,-23.070028 9.61718,-39.460937 l 0.6211,-14.478516 h -12.64258 -12.64258 l -0.0156,11.638672 c -0.0128,9.833483 -0.51672,13.078951 -3.24414,20.914062 -4.39468,12.624682 -8.26919,18.893702 -17.25196,27.910161 -8.71738,8.75007 -21.93648,15.874751 -33.42969,18.017571 -8.737142,1.62896 -27.902902,0.61531 -34.906252,-1.8457 C 43.124978,93.584349 25.26694,68.32483 25.26694,38.096634 V 26.940384 H 12.776706 Z M 71.524748,179.11031 h 8.25196 v 8.55273 c 0,10.95046 -2.01558,15.96389 -7.30469,18.17383 -7.14548,2.98557 -13.38945,1.74703 -17.492188,-3.46875 -3.635743,-4.6221 -4.235214,-9.96095 -1.671874,-14.90039 3.124614,-6.02098 8.218882,-8.35742 18.216792,-8.35742 z"
     id="path5325"
     inkscape:connector-curvature="0" />
</svg>
