<?xml version="1.0" encoding="UTF-8" standalone="no"?>
<!-- Created with Inkscape (http://www.inkscape.org/) -->

<svg
   xmlns:dc="http://purl.org/dc/elements/1.1/"
   xmlns:cc="http://creativecommons.org/ns#"
   xmlns:rdf="http://www.w3.org/1999/02/22-rdf-syntax-ns#"
   xmlns:svg="http://www.w3.org/2000/svg"
   xmlns="http://www.w3.org/2000/svg"
   xmlns:sodipodi="http://sodipodi.sourceforge.net/DTD/sodipodi-0.dtd"
   xmlns:inkscape="http://www.inkscape.org/namespaces/inkscape"
   version="1.1"
   id="svg22"
   width="31.498205mm"
   height="58.154961mm"
   viewBox="0 0 119.04834 219.79828"
   sodipodi:docname="hermetica-fortuna_minor.svg"
   inkscape:version="0.92.5 (2060ec1f9f, 2020-04-08)">
  <metadata
     id="metadata28">
    <rdf:RDF>
      <cc:Work
         rdf:about="">
        <dc:format>image/svg+xml</dc:format>
        <dc:type
           rdf:resource="http://purl.org/dc/dcmitype/StillImage" />
        <dc:title></dc:title>
      </cc:Work>
    </rdf:RDF>
  </metadata>
  <defs
     id="defs26" />
  <sodipodi:namedview
     pagecolor="#ffffff"
     bordercolor="#666666"
     borderopacity="1"
     objecttolerance="10"
     gridtolerance="10"
     guidetolerance="10"
     inkscape:pageopacity="0"
     inkscape:pageshadow="2"
     inkscape:window-width="1920"
     inkscape:window-height="997"
     id="namedview24"
     showgrid="false"
     units="mm"
     fit-margin-top="0"
     fit-margin-left="0"
     fit-margin-right="0"
     fit-margin-bottom="0"
     inkscape:zoom="0.88059701"
     inkscape:cx="59.338347"
     inkscape:cy="109.45964"
     inkscape:window-x="0"
     inkscape:window-y="28"
     inkscape:window-maximized="1"
     inkscape:current-layer="svg22" />
  <path
     style="fill:#ff0000;fill-opacity:0.01829266;stroke:#ff0000;stroke-width:0.56779659;stroke-miterlimit:4;stroke-dasharray:none;stroke-opacity:1"
     d="m 59.098117,0.28394849 c -3.41607,-0.0089 -6.74966,1.16196601 -9.9961,3.51367201 -5.86872,4.251272 -8.56993,9.3438705 -8.49023,16.0019535 0.10389,8.675822 5.33175,15.572767 13.7207,18.101562 4.65523,1.403289 6.7297,1.287396 11.33008,-0.634766 15.33818,-6.408703 17.45889,-24.453347 3.92773,-33.4160145 -3.57731,-2.369516 -7.07612,-3.55749001 -10.49218,-3.56640701 z m 1.01562,60.71679651 c -0.42011,-0.01467 -0.84374,-0.01363 -1.26953,0.002 -1.94646,0.07126 -3.94767,0.465039 -5.95703,1.232422 -15.8688,6.060349 -16.76094,27.352529 -1.47266,35.152349 8.12988,4.147734 19.81414,0.10649 24.66992,-8.53321 7.1205,-12.669187 -2.94713,-27.398861 -15.9707,-27.853514 z m 39.55273,60.642585 c -17.68682,-0.54372 -26.92932,23.50393 -10.19531,34.875 7.28062,4.94731 17.609583,3.64912 23.810553,-2.99219 9.87563,-10.57692 5.78877,-26.60338 -7.875,-30.88477 -1.99099,-0.62385 -3.91056,-0.9418 -5.740243,-0.99804 z m -80.634761,0.0781 c -8.373767,0.0964 -16.7418858,5.13177 -18.41406178,15.0293 -1.297975,7.68265 1.18434398,14.18816 7.15624998,18.74805 4.2121628,3.21622 6.0784228,3.89843 10.6757808,3.89843 12.671222,0 21.210532,-10.3542 19.027342,-23.07031 -1.69263,-9.85878 -10.07154,-14.70189 -18.445311,-14.60547 z m 80.277341,60.4375 c -6.74624,-0.0596 -11.91402,2.84096 -16.14062,9.06055 -5.57388,8.20217 -1.15024,22.67603 8.16992,26.73242 7.30042,3.17735 16.832153,1.35159 21.943363,-4.20117 6.82038,-7.40959 7.32641,-16.86211 1.3125,-24.50586 -4.19095,-5.32674 -7.84186,-7.02014 -15.285163,-7.08594 z m -79.339841,0.0215 c -2.921933,-0.11433 -5.868425,0.2556 -8.195312,1.13476 -14.6958328,5.55247 -15.3362968,28.19428 -0.982422,34.74024 2.219826,1.01229 5.858465,1.4 10.132813,1.08008 5.856632,-0.43836 7.200302,-1.01927 11.044922,-4.77344 9.22552,-9.00848 7.12638,-25.15258 -3.95313,-30.41016 -2.22829,-1.05739 -5.124937,-1.65715 -8.046871,-1.77148 z"
     id="path5367"
     inkscape:connector-curvature="0" />
</svg>
