<?xml version="1.0" encoding="UTF-8" standalone="no"?>
<!-- Created with Inkscape (http://www.inkscape.org/) -->

<svg
   xmlns:dc="http://purl.org/dc/elements/1.1/"
   xmlns:cc="http://creativecommons.org/ns#"
   xmlns:rdf="http://www.w3.org/1999/02/22-rdf-syntax-ns#"
   xmlns:svg="http://www.w3.org/2000/svg"
   xmlns="http://www.w3.org/2000/svg"
   xmlns:sodipodi="http://sodipodi.sourceforge.net/DTD/sodipodi-0.dtd"
   xmlns:inkscape="http://www.inkscape.org/namespaces/inkscape"
   version="1.1"
   id="svg2"
   width="61.730309mm"
   height="43.426723mm"
   viewBox="0 0 233.3114 164.1325"
   sodipodi:docname="esoterica-imprisionment.svg"
   inkscape:version="0.92.5 (2060ec1f9f, 2020-04-08)">
  <metadata
     id="metadata8">
    <rdf:RDF>
      <cc:Work
         rdf:about="">
        <dc:format>image/svg+xml</dc:format>
        <dc:type
           rdf:resource="http://purl.org/dc/dcmitype/StillImage" />
        <dc:title></dc:title>
      </cc:Work>
    </rdf:RDF>
  </metadata>
  <defs
     id="defs6" />
  <sodipodi:namedview
     pagecolor="#ffffff"
     bordercolor="#666666"
     borderopacity="1"
     objecttolerance="10"
     gridtolerance="10"
     guidetolerance="10"
     inkscape:pageopacity="0"
     inkscape:pageshadow="2"
     inkscape:window-width="1920"
     inkscape:window-height="997"
     id="namedview4"
     showgrid="false"
     units="mm"
     fit-margin-top="0"
     fit-margin-left="0"
     fit-margin-right="0"
     fit-margin-bottom="0"
     inkscape:zoom="0.88059701"
     inkscape:cx="117.82505"
     inkscape:cy="81.829725"
     inkscape:window-x="0"
     inkscape:window-y="28"
     inkscape:window-maximized="1"
     inkscape:current-layer="svg2" />
  <path
     style="fill:#000000;fill-opacity:0;stroke:#ff0000;stroke-width:0.56779659;stroke-miterlimit:4;stroke-dasharray:none;stroke-opacity:1"
     d="M 70.246825,163.08042 C 48.085089,159.14474 25.688151,144.97356 14.73044,127.95362 -0.98568034,103.54274 -3.8874523,78.36961 6.0489567,52.64097 18.454784,20.518194 47.576282,0.45781304 82.053866,0.28489004 93.481482,0.22757004 106.85874,2.682531 113.57683,6.069892 c 2.14944,1.083781 3.77104,1.238378 5.16492,0.492403 6.11512,-3.272717 21.74824,-6.19330396 33.1511,-6.19330396 35.83211,0 66.57047,22.29129896 78.06184,56.61004896 2.71266,8.1013 3.04513,10.80579 3.07118,24.98305 0.0268,14.6018 -0.23309,16.63917 -3.1874,24.98305 -6.01087,16.97657 -18.09006,33.04604 -32.07054,42.66486 -21.23465,14.60982 -47.86365,18.11709 -72.50113,9.54903 l -7.94202,-2.76197 -10.38912,3.32793 c -11.718368,3.75373 -26.720231,5.12575 -36.688835,3.35543 z m 20.323987,-26.53614 c 0,-0.75967 -1.30533,-2.60749 -2.90073,-4.1063 -9.099267,-8.54832 -17.539945,-33.09452 -17.539945,-51.00764 0,-16.85141 6.511023,-36.165152 16.682975,-49.486953 2.06674,-2.706722 3.7577,-5.462989 3.7577,-6.125034 0,-0.720314 -2.86848,-1.203719 -7.142766,-1.203719 -22.089956,0 -42.492021,12.979404 -52.571207,33.444796 l -4.447041,9.02955 V 81.9677 96.84642 l 4.322918,8.74492 c 9.108702,18.42618 25.906907,30.78068 44.054344,32.40044 10.207242,0.91107 15.783752,0.39965 15.783752,-1.4475 z m 71.939128,1.12362 c 8.20702,-0.91956 21.71707,-8.07212 29.37125,-15.54989 4.79021,-4.6798 7.85061,-9.10463 11.36981,-16.43883 4.50176,-9.38191 4.84245,-10.77672 5.2317,-21.41863 0.33726,-9.22052 -0.0212,-12.6777 -1.88675,-18.19676 -3.56966,-10.56053 -7.93736,-17.55441 -15.67909,-25.106497 -10.7341,-10.471165 -25.04413,-16.342659 -39.8304,-16.342659 -8.56889,0 -9.05783,1.233919 -3.29911,8.325833 9.9841,12.295515 16.02923,30.783123 16.02923,49.021623 0,18.23851 -6.04513,36.72611 -16.02923,49.02163 -2.11401,2.60342 -3.84366,5.25388 -3.84366,5.88991 0,0.63604 1.66081,1.34208 3.69068,1.569 3.70803,0.4145 4.74255,0.36063 14.87557,-0.77473 z m -35.01115,-21.44252 c 4.90213,-6.43119 6.68369,-10.1031 9.66465,-19.91957 4.06678,-13.39204 2.24762,-27.82099 -5.37443,-42.62853 -2.52061,-4.89684 -8.98392,-12.616357 -12.48269,-14.908846 l -2.93251,-1.921456 -6.37626,6.847887 C 100.72966,53.64826 96.020072,64.95867 95.348022,78.87668 c -0.3157,6.53803 0.0363,12.57611 0.9267,15.89831 2.25997,8.4318 9.130528,20.74313 14.957178,26.8017 l 5.33446,5.54681 3.66052,-3.08013 c 2.01329,-1.69406 5.28565,-5.21217 7.27191,-7.81799 z"
     id="path817"
     inkscape:connector-curvature="0" />
</svg>
