<?xml version="1.0" encoding="UTF-8" standalone="no"?>
<!-- Created with Inkscape (http://www.inkscape.org/) -->

<svg
   xmlns:dc="http://purl.org/dc/elements/1.1/"
   xmlns:cc="http://creativecommons.org/ns#"
   xmlns:rdf="http://www.w3.org/1999/02/22-rdf-syntax-ns#"
   xmlns:svg="http://www.w3.org/2000/svg"
   xmlns="http://www.w3.org/2000/svg"
   xmlns:sodipodi="http://sodipodi.sourceforge.net/DTD/sodipodi-0.dtd"
   xmlns:inkscape="http://www.inkscape.org/namespaces/inkscape"
   version="1.1"
   id="svg92"
   width="59.511944mm"
   height="68.610229mm"
   viewBox="0 0 224.92703 259.31426"
   sodipodi:docname="hermetica-hexagram.svg"
   inkscape:version="0.92.5 (2060ec1f9f, 2020-04-08)">
  <metadata
     id="metadata98">
    <rdf:RDF>
      <cc:Work
         rdf:about="">
        <dc:format>image/svg+xml</dc:format>
        <dc:type
           rdf:resource="http://purl.org/dc/dcmitype/StillImage" />
        <dc:title></dc:title>
      </cc:Work>
    </rdf:RDF>
  </metadata>
  <defs
     id="defs96" />
  <sodipodi:namedview
     pagecolor="#ffffff"
     bordercolor="#666666"
     borderopacity="1"
     objecttolerance="10"
     gridtolerance="10"
     guidetolerance="10"
     inkscape:pageopacity="0"
     inkscape:pageshadow="2"
     inkscape:window-width="1920"
     inkscape:window-height="997"
     id="namedview94"
     showgrid="false"
     units="mm"
     fit-margin-top="0"
     fit-margin-left="0"
     fit-margin-right="0"
     fit-margin-bottom="0"
     inkscape:zoom="0.88059701"
     inkscape:cx="112.04808"
     inkscape:cy="129.01723"
     inkscape:window-x="0"
     inkscape:window-y="28"
     inkscape:window-maximized="1"
     inkscape:current-layer="svg92" />
  <path
     style="fill:#ff0000;fill-opacity:0.01829266;stroke:#ff0000;stroke-width:0.56779659;stroke-miterlimit:4;stroke-dasharray:none;stroke-opacity:1"
     d="m 110.91429,257.44689 c -1.24048,-2.47711 -5.00446,-9.05524 -15.294829,-26.73011 -2.64384,-4.54109 -5.57572,-9.65126 -6.51531,-11.35593 -0.93958,-1.70469 -3.2148,-5.65451 -5.05605,-8.77739 -1.84125,-3.12288 -4.43513,-7.72203 -5.76418,-10.22034 l -2.416462,-4.54237 -37.692932,-0.29924 -37.69293167,-0.29924 3.32104197,-5.94652 c 3.939671,-7.05422 7.4545617,-13.18891 22.2757007,-38.87873 6.125689,-10.6178 11.137038,-19.8161 11.136331,-20.44068 -7.06e-4,-0.62457 -3.655257,-7.22999 -8.121224,-14.6787 -4.465967,-7.4487 -8.11994,-13.7131 -8.11994,-13.92087 0,-0.20778 -2.892327,-5.355758 -6.427392,-11.439954 C 11.011046,83.832621 6.4396423,75.916295 4.3874363,72.324981 L 0.65615233,65.79532 H 38.052719 75.449286 l 3.485475,-6.529661 c 1.91701,-3.591313 5.41985,-9.851271 7.78408,-13.911017 2.36424,-4.059746 8.12996,-14.024576 12.81272,-22.144068 4.682769,-8.119491 9.595219,-16.5195028 10.916569,-18.6666929 l 2.40244,-3.9039815 1.09863,2.8896145 c 0.60425,1.5892879 2.92767,5.7488631 5.16317,9.2434989 2.23548,3.494636 4.06452,6.658489 4.06452,7.030782 0,0.372293 1.78856,3.472865 3.97458,6.890159 2.18602,3.417294 3.97458,6.483396 3.97458,6.81356 0,0.330163 1.69187,3.258588 3.75972,6.507611 2.06785,3.249022 4.09537,6.800283 4.50561,7.89169 0.41025,1.091407 2.45431,4.668526 4.54237,7.949153 2.08807,3.280626 4.13264,6.859055 4.5435,7.952064 0.6907,1.837512 3.57623,1.987288 38.28639,1.987288 h 37.53937 l -1.75853,3.122881 c -0.96718,1.717585 -4.00826,6.955509 -6.75793,11.639831 -2.74965,4.684322 -6.73504,11.583051 -8.85641,15.330508 -2.12135,3.747455 -7.26414,12.69026 -11.4284,19.87289 -4.16428,7.18262 -7.57694,13.8559 -7.58372,14.82952 -0.007,0.9736 1.83422,4.80622 4.09109,8.51694 2.25686,3.71071 5.63036,9.55735 7.49666,12.99252 1.8663,3.43517 4.10791,7.05252 4.98135,8.03857 0.87344,0.98605 1.58808,2.14027 1.58808,2.56494 0,0.42468 2.89611,5.75012 6.4358,11.83431 3.5397,6.0842 7.67153,13.234 9.18184,15.88845 l 2.74603,4.82627 h -37.47458 -37.47458 l -2.74602,4.82627 c -10.5122,18.47571 -15.83928,27.76916 -16.76146,29.24153 -1.74894,2.79239 -11.46236,19.46055 -14.73616,25.28716 -2.94157,5.23534 -3.08475,5.32917 -4.33178,2.83898 z m 5.15544,-27.84224 c 4.60752,-7.41904 19.59869,-33.35186 19.59869,-33.90325 0,-0.24665 -10.47585,-0.44845 -23.27966,-0.44845 -12.803819,0 -23.279659,0.30624 -23.279659,0.68053 0,0.63308 1.69046,3.55434 12.420419,21.46354 2.24521,3.74746 5.35065,9.24089 6.90098,12.20763 1.55032,2.96673 3.14963,5.39406 3.55403,5.39406 0.4044,0 2.24273,-2.42733 4.0852,-5.39406 z M 67.507576,182.47753 c -0.01389,-0.78072 -1.024559,-2.69704 -2.245936,-4.25848 -1.221377,-1.56144 -2.232047,-3.36165 -2.245935,-4.00046 -0.01389,-0.63883 -1.81381,-3.87728 -3.999827,-7.19659 -2.186017,-3.31929 -3.974577,-6.33085 -3.974577,-6.69234 0,-0.3615 -2.381115,-4.47761 -5.291367,-9.14692 -5.73414,-9.20005 -6.239527,-9.26927 -9.881588,-1.35352 -0.718423,1.56144 -5.008153,9.06585 -9.532736,16.67647 -4.524581,7.61061 -8.226512,14.6371 -8.226512,15.61441 0,1.55294 2.862876,1.77692 22.711864,1.77692 17.425896,0 22.705988,-0.33038 22.686614,-1.41949 z m 87.713564,-20.15678 c 16.31675,-27.96766 18.03206,-31.32365 17.16502,-33.58315 -0.85286,-2.22248 -9.97242,-18.17883 -14.38278,-25.1653 -1.66643,-2.6398 -3.02988,-5.089855 -3.02988,-5.444555 0,-0.3547 -1.78856,-3.440884 -3.97457,-6.858178 -2.18602,-3.417294 -3.97458,-6.645442 -3.97458,-7.173661 0,-0.528219 -1.05912,-2.306856 -2.35361,-3.952526 l -2.3536,-2.992128 H 112.32058 82.324031 l -3.05602,4.826271 c -1.680804,2.65445 -6.872646,11.469492 -11.537421,19.588987 -4.664775,8.11949 -10.246597,17.82882 -12.404049,21.57627 l -3.922642,6.81356 2.641236,5.11017 c 1.452679,2.81059 4.315164,7.76846 6.361074,11.01748 2.045911,3.24902 3.719838,6.32426 3.719838,6.83385 0,0.5096 1.249442,2.76525 2.776539,5.01258 1.527096,2.24733 4.150004,6.58184 5.828683,9.63225 1.67868,3.05042 4.608732,7.98172 6.511232,10.95845 l 3.45908,5.41223 30.131439,-0.30206 30.13146,-0.30207 z m 47.80032,20.72458 c 0.26789,-0.46844 -3.92037,-8.51695 -9.30725,-17.8856 -10.48204,-18.22995 -13.45195,-22.86715 -14.13834,-22.07556 -2.32508,2.68147 -22.13244,39.08012 -21.67198,39.82515 0.74392,1.20369 44.43165,1.33538 45.11757,0.13601 z M 48.453223,111.50295 c 7.119111,-11.753345 19.079604,-32.809385 19.079604,-33.589 0,-0.419484 -10.220339,-0.762698 -22.711865,-0.762698 -18.699951,0 -22.711864,0.280567 -22.711864,1.588318 0,0.873575 3.832627,8.062835 8.516949,15.976133 4.684322,7.913307 8.516949,14.579097 8.516949,14.812877 0,0.60004 4.703832,8.50403 5.06093,8.50403 0.16182,0 2.074004,-2.93834 4.249297,-6.52966 z M 191.72809,98.958305 c 4.77752,-8.304856 9.45083,-16.26641 10.38514,-17.692349 0.93432,-1.425937 1.35628,-2.935084 0.9377,-3.353659 -1.17285,-1.172853 -44.44942,-0.902122 -45.18164,0.282649 -0.61235,0.990789 0.75945,3.540296 10.93038,20.314269 2.38883,3.939675 4.34333,7.472055 4.34333,7.849735 0,0.37768 1.59892,3.17841 3.55318,6.22384 4.18048,6.51471 2.64684,7.90476 15.03191,-13.624485 z M 135.66842,65.192693 c 0,-0.331446 -2.04407,-4.164073 -4.54237,-8.51695 -2.49831,-4.352877 -6.65599,-11.619194 -9.2393,-16.147372 -5.5911,-9.800396 -8.78892,-14.478814 -9.89665,-14.478814 -0.44649,0 -4.35096,6.259958 -8.67659,13.911017 -4.325629,7.65106 -9.275159,16.157592 -10.998949,18.903406 -1.72379,2.745814 -2.86454,5.428653 -2.535,5.961865 0.63639,1.029701 45.888859,1.391462 45.888859,0.366848 z"
     id="path6378"
     inkscape:connector-curvature="0" />
</svg>
