<?xml version="1.0" encoding="UTF-8" standalone="no"?>
<!-- Created with Inkscape (http://www.inkscape.org/) -->

<svg
   xmlns:dc="http://purl.org/dc/elements/1.1/"
   xmlns:cc="http://creativecommons.org/ns#"
   xmlns:rdf="http://www.w3.org/1999/02/22-rdf-syntax-ns#"
   xmlns:svg="http://www.w3.org/2000/svg"
   xmlns="http://www.w3.org/2000/svg"
   xmlns:sodipodi="http://sodipodi.sourceforge.net/DTD/sodipodi-0.dtd"
   xmlns:inkscape="http://www.inkscape.org/namespaces/inkscape"
   version="1.1"
   id="svg72"
   width="63.34388mm"
   height="54.533318mm"
   viewBox="0 0 239.40994 206.11018"
   sodipodi:docname="esoterica-munus.svg"
   inkscape:version="0.92.5 (2060ec1f9f, 2020-04-08)">
  <metadata
     id="metadata78">
    <rdf:RDF>
      <cc:Work
         rdf:about="">
        <dc:format>image/svg+xml</dc:format>
        <dc:type
           rdf:resource="http://purl.org/dc/dcmitype/StillImage" />
        <dc:title></dc:title>
      </cc:Work>
    </rdf:RDF>
  </metadata>
  <defs
     id="defs76" />
  <sodipodi:namedview
     pagecolor="#ffffff"
     bordercolor="#666666"
     borderopacity="1"
     objecttolerance="10"
     gridtolerance="10"
     guidetolerance="10"
     inkscape:pageopacity="0"
     inkscape:pageshadow="2"
     inkscape:window-width="1920"
     inkscape:window-height="997"
     id="namedview74"
     showgrid="false"
     units="mm"
     fit-margin-top="0"
     fit-margin-left="0"
     fit-margin-right="0"
     fit-margin-bottom="0"
     inkscape:zoom="0.88059701"
     inkscape:cx="120.11587"
     inkscape:cy="101.57882"
     inkscape:window-x="0"
     inkscape:window-y="28"
     inkscape:window-maximized="1"
     inkscape:current-layer="svg72" />
  <path
     style="fill:#000000;fill-opacity:0;stroke:#ff0000;stroke-width:0.56779659;stroke-miterlimit:4;stroke-dasharray:none;stroke-opacity:1"
     d="m 115.79705,200.43221 c -3.83575,-6.77958 -6.64156,-11.66616 -11.24773,-19.58899 -1.99714,-3.43517 -7.614313,-13.14449 -12.482603,-21.57627 -4.8683,-8.43178 -10.64175,-18.39661 -12.829902,-22.14406 -2.188152,-3.74746 -5.865471,-10.13517 -8.171821,-14.19492 C 67.127803,115.99754 53.64145,92.618076 45.517554,78.639826 43.521097,75.204666 37.030978,63.962288 31.095069,53.65678 25.159159,43.351271 17.322822,29.809322 13.680985,23.563559 10.03915,17.317797 5.579283,9.5247883 3.77017,6.2457633 L 0.48087404,0.28389829 H 119.80346 c 65.62742,0 119.32258,0.245586 119.32258,0.545747 0,0.30016001 -1.78856,3.34171401 -3.97458,6.75900901 -2.18601,3.4172937 -3.97457,6.4833957 -3.97457,6.8135587 0,0.330164 -1.78856,3.396266 -3.97458,6.81356 -2.18602,3.417294 -3.97458,6.485642 -3.97458,6.81855 0,0.332907 -1.4475,3.040294 -3.21667,6.016414 -7.95836,13.387649 -13.22316,22.364246 -14.87093,25.355258 -4.26823,7.747652 -18.64813,32.739431 -31.64907,55.005025 -2.18816,3.74746 -5.85903,10.13517 -8.1575,14.19492 -2.29848,4.05974 -7.07613,12.36377 -10.61702,18.45339 -12.71,21.85871 -19.39815,33.41973 -26.60651,45.99152 -4.0288,7.02648 -7.76072,12.77543 -8.29312,12.77543 -0.53241,0 -2.34135,-2.42734 -4.01986,-5.39407 z m 19.84801,-70.26473 c 0.74698,-1.63946 4.9741,-9.17696 9.39358,-16.75 4.41948,-7.57304 10.02254,-17.218544 12.45124,-21.434434 2.4287,-4.21588 6.40294,-11.11461 8.83164,-15.3305 15.66357,-27.189793 21.24006,-36.796027 24.65531,-42.472016 2.12359,-3.52931 3.86107,-6.978674 3.86107,-7.665254 0,-0.894764 -21.22779,-1.248327 -74.94915,-1.248327 -47.370872,0 -74.949154,0.403027 -74.949154,1.095299 0,1.067577 5.111178,10.833106 6.856205,13.099616 0.480873,0.624577 2.1309,3.43517 3.666726,6.245763 3.685875,6.745223 10.610896,18.863898 17.196285,30.093219 2.930242,4.99661 5.777059,9.85127 6.326263,10.78814 0.549203,0.93686 2.95072,5.01913 5.336705,9.07171 2.385987,4.05258 4.956967,8.651734 5.713287,10.220344 3.35997,6.96852 14.824253,25.47497 16.030113,25.87693 0.99703,0.33234 1.33205,-7.25375 1.33205,-30.16305 V 70.987846 l 4.25847,-0.703883 c 2.34216,-0.387135 7.63387,-0.709506 11.75935,-0.71638 l 7.50087,-0.0125 0.79053,16.260483 c 0.4348,8.94326 0.73751,22.868474 0.67271,30.944914 -0.0648,8.07645 -0.0911,15.0677 -0.0584,15.53613 0.13241,1.89656 2.04947,0.66871 3.32425,-2.12913 z"
     id="path5281"
     inkscape:connector-curvature="0" />
</svg>
