<?xml version="1.0" encoding="UTF-8" standalone="no"?>
<!-- Created with Inkscape (http://www.inkscape.org/) -->

<svg
   xmlns:dc="http://purl.org/dc/elements/1.1/"
   xmlns:cc="http://creativecommons.org/ns#"
   xmlns:rdf="http://www.w3.org/1999/02/22-rdf-syntax-ns#"
   xmlns:svg="http://www.w3.org/2000/svg"
   xmlns="http://www.w3.org/2000/svg"
   xmlns:sodipodi="http://sodipodi.sourceforge.net/DTD/sodipodi-0.dtd"
   xmlns:inkscape="http://www.inkscape.org/namespaces/inkscape"
   version="1.1"
   id="svg32"
   width="42.214497mm"
   height="27.808714mm"
   viewBox="0 0 159.55085 105.1038"
   sodipodi:docname="hermetica-wolfsangel.svg"
   inkscape:version="0.92.5 (2060ec1f9f, 2020-04-08)">
  <metadata
     id="metadata38">
    <rdf:RDF>
      <cc:Work
         rdf:about="">
        <dc:format>image/svg+xml</dc:format>
        <dc:type
           rdf:resource="http://purl.org/dc/dcmitype/StillImage" />
        <dc:title></dc:title>
      </cc:Work>
    </rdf:RDF>
  </metadata>
  <defs
     id="defs36" />
  <sodipodi:namedview
     pagecolor="#ffffff"
     bordercolor="#666666"
     borderopacity="1"
     objecttolerance="10"
     gridtolerance="10"
     guidetolerance="10"
     inkscape:pageopacity="0"
     inkscape:pageshadow="2"
     inkscape:window-width="1920"
     inkscape:window-height="997"
     id="namedview34"
     showgrid="false"
     units="mm"
     fit-margin-top="0"
     fit-margin-left="0"
     fit-margin-right="0"
     fit-margin-bottom="0"
     inkscape:zoom="0.88059701"
     inkscape:cx="80.002542"
     inkscape:cy="52.809738"
     inkscape:window-x="0"
     inkscape:window-y="28"
     inkscape:window-maximized="1"
     inkscape:current-layer="svg32" />
  <path
     style="fill:#ff0000;fill-opacity:0.01829266;stroke:#ff0000;stroke-width:0.56779659;stroke-miterlimit:4;stroke-dasharray:none;stroke-opacity:1"
     d="M 0.28389829,52.473687 V 0.28389829 H 12.775423 25.266949 V 32.080507 c 0,22.37999 0.370174,31.79661 1.249946,31.79661 1.272316,0 28.986187,-12.92125 36.224627,-16.88929 l 3.97458,-2.17882 0.3079,-22.26256 0.30791,-22.26254871 h 12.46752 12.46752 V 15.547387 c 0,8.39492 0.39833,15.50967 0.88517,15.81056 0.48685,0.30089 9.301888,-3.5718 19.588978,-8.60598 10.2871,-5.034169 24.58051,-11.996889 31.76313,-15.4727057 7.18263,-3.475817 13.44259,-6.51428401 13.91102,-6.75214801 0.46843,-0.237865 0.8517,23.11688371 0.8517,51.89944371 V 104.75848 H 146.77542 134.2839 V 72.885337 41.012207 l -2.55509,0.80845 c -1.4053,0.44465 -10.85911,4.84259 -21.00847,9.7732 l -18.453388,8.96474 v 22.09994 22.099943 H 79.775422 67.283902 V 88.765537 c 0,-8.79612 -0.38327,-15.80043 -0.8517,-15.56515 -0.46843,0.23529 -3.15127,1.49022 -5.96186,2.78873 -2.8106,1.29852 -14.30848,6.83432 -25.550851,12.30178 -11.242373,5.46746 -23.634534,11.38798 -27.5381347,13.156713 l -7.09745801,3.21588 z"
     id="path6523"
     inkscape:connector-curvature="0" />
</svg>
