<?xml version="1.0" encoding="UTF-8" standalone="no"?>
<!-- Created with Inkscape (http://www.inkscape.org/) -->

<svg
   xmlns:dc="http://purl.org/dc/elements/1.1/"
   xmlns:cc="http://creativecommons.org/ns#"
   xmlns:rdf="http://www.w3.org/1999/02/22-rdf-syntax-ns#"
   xmlns:svg="http://www.w3.org/2000/svg"
   xmlns="http://www.w3.org/2000/svg"
   xmlns:sodipodi="http://sodipodi.sourceforge.net/DTD/sodipodi-0.dtd"
   xmlns:inkscape="http://www.inkscape.org/namespaces/inkscape"
   version="1.1"
   id="svg22"
   width="63.476215mm"
   height="55.248158mm"
   viewBox="0 0 239.91011 208.81194"
   sodipodi:docname="esoterica-mason_mark3.svg"
   inkscape:version="0.92.5 (2060ec1f9f, 2020-04-08)">
  <metadata
     id="metadata28">
    <rdf:RDF>
      <cc:Work
         rdf:about="">
        <dc:format>image/svg+xml</dc:format>
        <dc:type
           rdf:resource="http://purl.org/dc/dcmitype/StillImage" />
        <dc:title></dc:title>
      </cc:Work>
    </rdf:RDF>
  </metadata>
  <defs
     id="defs26" />
  <sodipodi:namedview
     pagecolor="#ffffff"
     bordercolor="#666666"
     borderopacity="1"
     objecttolerance="10"
     gridtolerance="10"
     guidetolerance="10"
     inkscape:pageopacity="0"
     inkscape:pageshadow="2"
     inkscape:window-width="1920"
     inkscape:window-height="997"
     id="namedview24"
     showgrid="false"
     units="mm"
     fit-margin-top="0"
     fit-margin-left="0"
     fit-margin-right="0"
     fit-margin-bottom="0"
     inkscape:zoom="0.88059701"
     inkscape:cx="120.2628"
     inkscape:cy="104.28064"
     inkscape:window-x="0"
     inkscape:window-y="28"
     inkscape:window-maximized="1"
     inkscape:current-layer="svg22" />
  <path
     style="fill:#000000;fill-opacity:0;stroke:#ff0000;stroke-width:0.56779659;stroke-miterlimit:4;stroke-dasharray:none;stroke-opacity:1"
     d="m 64.312543,201.24259 c -2.14253,-3.79467 -5.291506,-9.04263 -6.997726,-11.66213 -1.706218,-2.61949 -3.111515,-5.15613 -3.122881,-5.63698 -0.01137,-0.48084 -1.35513,-2.98819 -2.986141,-5.57188 -1.631013,-2.58369 -4.101417,-6.78943 -5.489787,-9.34608 -1.388371,-2.55665 -5.220642,-9.24761 -8.51616,-14.8688 -3.295517,-5.62118 -7.285878,-12.51991 -8.867467,-15.3305 -1.58159,-2.8106 -3.824599,-6.46661 -4.984465,-8.12446 -1.159867,-1.65785 -2.108848,-3.37957 -2.108848,-3.82603 0,-0.44646 -1.906088,-3.94469 -4.235752,-7.77385 -2.329665,-3.82916 -5.055591,-8.49516 -6.057613,-10.36889 -1.0020241,-1.87372 -3.8951241,-6.98389 -6.4291131,-11.355932 -2.533988,-4.37203 -4.43064305,-8.24571 -4.21478805,-8.60817 0.303621,-0.50983 16.40185315,-10.19358 19.93794015,-11.99348 0.387235,-0.19711 3.15278,3.84661 6.145656,8.98604 2.992878,5.13944 7.096372,12.15502 9.118879,15.590192 2.022506,3.43517 7.362425,12.63347 11.866489,20.44068 4.504062,7.8072 10.142538,17.51652 12.529947,21.57627 2.387408,4.05974 4.96757,8.78665 5.733693,10.50424 0.766122,1.71758 1.949696,3.1162 2.630162,3.10803 0.680467,-0.008 4.201678,-5.24607 7.824913,-11.63983 3.623236,-6.39374 8.684129,-15.2021 11.246426,-19.57414 4.28937,-7.31892 8.51562,-14.6837 16.943043,-29.525422 3.18444,-5.60818 3.22432,-5.91175 3.24463,-24.69915 l 0.0206,-19.021189 -13.343223,0.0023 -13.343225,0.0023 0.354075,-12.457218 0.354076,-12.457304 12.705244,-0.320434 12.705253,-0.320434 0.31994,-13.34322 0.31993,-13.34322071 h 12.4555 12.45548 V 13.221724 c 0,10.750032 0.30375,13.054387 1.79627,13.627119 0.98794,0.379111 7.12014,0.689293 13.62712,0.689293 h 11.83084 v 12.491467 12.491526 h -13.62713 -13.62712 v 19.077969 c 0,10.49288 0.46251,19.56343 1.02782,20.15678 0.5653,0.59334 5.00085,7.97754 9.85677,16.409322 29.63529,51.45844 28.08365,48.88305 29.22744,48.51135 0.82965,-0.26961 11.69626,-18.51738 23.47871,-39.42661 11.03629,-19.585062 21.9617,-38.172332 23.12511,-39.342442 0.96956,-0.97515 3.70511,0.10332 10.94516,4.31502 8.42149,4.89898 9.62287,5.98755 9.41987,8.53541 -0.12795,1.60617 -0.95061,3.75254 -1.82812,4.76972 -0.87749,1.01718 -3.1129,4.660012 -4.96756,8.095182 -1.85465,3.43516 -4.73687,8.40743 -6.40492,11.04947 -1.66806,2.64203 -3.03283,5.08189 -3.03283,5.4219 0,0.34 -2.04406,3.85474 -4.54237,7.81053 -2.4983,3.95579 -4.54237,7.51046 -4.54237,7.89927 0,0.38881 -1.66081,3.4067 -3.69068,6.70642 -2.02987,3.29972 -4.54861,7.52553 -5.59719,9.3907 -7.19888,12.80497 -14.51652,25.53047 -29.91264,52.01862 l -2.52219,4.33928 -3.71977,-6.04267 c -2.04587,-3.32348 -5.11976,-8.59776 -6.83086,-11.72064 -1.71109,-3.12288 -4.92288,-8.74407 -7.13729,-12.49153 -2.21441,-3.74746 -5.76069,-9.87966 -7.88063,-13.62712 -5.00189,-8.84196 -20.19786,-35.09543 -23.54628,-40.67996 -3.0688,-5.11816 -3.54822,-4.839 -9.40519,5.47657 -2.12773,3.74746 -6.76092,11.79154 -10.29599,17.87574 -3.53507,6.08419 -6.427393,11.37099 -6.427393,11.74843 0,0.37743 -0.95164,2.04268 -2.11476,3.70053 -2.27316,3.24006 -18.073865,30.37186 -22.587446,38.78547 -1.507776,2.8106 -3.117644,5.50346 -3.577485,5.98416 -0.459841,0.48068 -2.589054,-2.23075 -4.731583,-6.02541 z"
     id="path5352"
     inkscape:connector-curvature="0" />
</svg>
