<?xml version="1.0" encoding="UTF-8" standalone="no"?>
<!-- Created with Inkscape (http://www.inkscape.org/) -->

<svg
   xmlns:dc="http://purl.org/dc/elements/1.1/"
   xmlns:cc="http://creativecommons.org/ns#"
   xmlns:rdf="http://www.w3.org/1999/02/22-rdf-syntax-ns#"
   xmlns:svg="http://www.w3.org/2000/svg"
   xmlns="http://www.w3.org/2000/svg"
   xmlns:sodipodi="http://sodipodi.sourceforge.net/DTD/sodipodi-0.dtd"
   xmlns:inkscape="http://www.inkscape.org/namespaces/inkscape"
   version="1.1"
   id="svg12"
   width="61.533611mm"
   height="61.479912mm"
   viewBox="0 0 232.56798 232.36502"
   sodipodi:docname="esoterica-anarchism.svg"
   inkscape:version="0.92.5 (2060ec1f9f, 2020-04-08)">
  <metadata
     id="metadata18">
    <rdf:RDF>
      <cc:Work
         rdf:about="">
        <dc:format>image/svg+xml</dc:format>
        <dc:type
           rdf:resource="http://purl.org/dc/dcmitype/StillImage" />
        <dc:title></dc:title>
      </cc:Work>
    </rdf:RDF>
  </metadata>
  <defs
     id="defs16" />
  <sodipodi:namedview
     pagecolor="#ffffff"
     bordercolor="#666666"
     borderopacity="1"
     objecttolerance="10"
     gridtolerance="10"
     guidetolerance="10"
     inkscape:pageopacity="0"
     inkscape:pageshadow="2"
     inkscape:window-width="1920"
     inkscape:window-height="997"
     id="namedview14"
     showgrid="false"
     units="mm"
     fit-margin-top="0"
     fit-margin-left="0"
     fit-margin-right="0"
     fit-margin-bottom="0"
     inkscape:zoom="0.88059701"
     inkscape:cx="116.24977"
     inkscape:cy="116.00577"
     inkscape:window-x="0"
     inkscape:window-y="28"
     inkscape:window-maximized="1"
     inkscape:current-layer="svg12" />
  <path
     style="fill:#000000;fill-opacity:0;stroke:#ff0000;stroke-width:0.56779659;stroke-miterlimit:4;stroke-dasharray:none;stroke-opacity:1"
     d="M 93.310793,231.20745 C 66.361925,223.68359 51.267804,215.53409 34.976238,199.71193 21.031819,186.16929 11.591155,170.91057 5.1492957,151.50335 1.0658857,139.20137 0.89209972,138.02804 0.43577572,119.67969 0.05177572,104.23947 0.33762572,99.074213 1.9440367,92.425453 12.897264,47.091326 43.986086,14.855022 87.807343,3.3929536 97.922673,0.74714758 101.84637,0.31498958 116.02265,0.28531358 c 14.23,-0.02979 18.13783,0.385738 28.77626,3.05982602 41.17409,10.3495634 74.11447,43.3662334 84.53137,84.7271334 2.65152,10.52806 3.02301,14.196937 2.94462,29.081897 -0.10289,19.53692 -2.66148,31.89393 -9.80318,47.34564 -14.07367,30.44967 -37.6625,51.45509 -70.67788,62.93737 l -12.49153,4.34438 -21.00847,0.26777 c -11.55466,0.14728 -22.797037,-0.23157 -24.983047,-0.84188 z m 48.701497,-26.59546 c 12.28303,-3.81643 24.61753,-10.82845 34.84725,-19.81026 l 4.13256,-3.62844 -3.45318,-7.59431 c -1.89925,-4.17686 -5.75517,-12.64807 -8.56871,-18.8249 -2.81354,-6.17682 -5.561,-11.67607 -6.10547,-12.22054 -0.54449,-0.54448 -21.77765,-0.85639 -47.18483,-0.69315 l -46.194864,0.29683 -9.102208,19.22486 -9.102208,19.22486 2.561691,2.75826 c 9.327852,10.0436 29.873522,20.43623 46.282029,23.41085 6.68589,1.21206 35.89894,-0.28323 41.88794,-2.14406 z M 37.280216,152.07366 c 0.972836,-2.34216 14.278152,-30.99934 29.567373,-63.682597 15.289219,-32.68326 27.482704,-59.739989 27.096634,-60.126059 -0.38607,-0.38607 -3.62488,0.257953 -7.19735,1.431164 -26.855563,8.819443 -48.537248,31.056728 -58.174894,59.665645 -3.00321,8.91489 -4.214438,30.689827 -2.411045,43.344697 1.289592,9.0494 6.396666,23.62562 8.277713,23.62562 0.590029,0 1.868735,-1.91631 2.841569,-4.25847 z m 166.148664,-7.74669 c 3.80251,-10.88073 3.93947,-11.84959 3.92134,-27.7406 -0.0177,-15.5847 -0.22011,-17.070487 -3.7797,-27.757137 -7.12339,-21.385885 -22.23308,-40.33222 -40.88265,-51.26356 -8.66894,-5.081241 -23.29189,-10.595561 -24.60784,-9.279618 -0.38847,0.388471 0.55576,3.16814 2.09829,6.177041 1.54252,3.008903 4.57431,9.30336 6.73728,13.987682 2.16299,4.684322 6.22479,13.371611 9.02624,19.305085 2.80145,5.933475 13.23453,28.28492 23.18464,49.669867 9.9501,21.38496 18.6021,38.72289 19.22668,38.52874 0.62458,-0.19414 2.90865,-5.42653 5.07572,-11.6275 z m -53.33843,-29.38152 c 0,-0.90251 -1.70285,-5.11841 -3.78411,-9.36865 -2.08127,-4.25025 -5.69254,-11.815857 -8.02508,-16.812467 -2.33254,-4.99661 -7.92092,-16.965998 -12.41861,-26.598643 -4.49771,-9.632647 -8.69826,-17.687442 -9.33458,-17.899544 -0.87923,-0.293081 -30.187727,60.258594 -34.094787,70.440234 -0.661533,1.72394 2.11656,1.87999 33.467867,1.87999 29.055,0 34.1893,-0.24643 34.1893,-1.64092 z"
     id="path5373"
     inkscape:connector-curvature="0" />
</svg>
