<?xml version="1.0" encoding="UTF-8" standalone="no"?>
<!-- Created with Inkscape (http://www.inkscape.org/) -->

<svg
   xmlns:dc="http://purl.org/dc/elements/1.1/"
   xmlns:cc="http://creativecommons.org/ns#"
   xmlns:rdf="http://www.w3.org/1999/02/22-rdf-syntax-ns#"
   xmlns:svg="http://www.w3.org/2000/svg"
   xmlns="http://www.w3.org/2000/svg"
   xmlns:sodipodi="http://sodipodi.sourceforge.net/DTD/sodipodi-0.dtd"
   xmlns:inkscape="http://www.inkscape.org/namespaces/inkscape"
   version="1.1"
   id="svg82"
   width="61.835621mm"
   height="62.134438mm"
   viewBox="0 0 233.70943 234.83882"
   sodipodi:docname="esoterica-kolovrat_alt2.svg"
   inkscape:version="0.92.5 (2060ec1f9f, 2020-04-08)">
  <metadata
     id="metadata88">
    <rdf:RDF>
      <cc:Work
         rdf:about="">
        <dc:format>image/svg+xml</dc:format>
        <dc:type
           rdf:resource="http://purl.org/dc/dcmitype/StillImage" />
        <dc:title></dc:title>
      </cc:Work>
    </rdf:RDF>
  </metadata>
  <defs
     id="defs86" />
  <sodipodi:namedview
     pagecolor="#ffffff"
     bordercolor="#666666"
     borderopacity="1"
     objecttolerance="10"
     gridtolerance="10"
     guidetolerance="10"
     inkscape:pageopacity="0"
     inkscape:pageshadow="2"
     inkscape:window-width="1920"
     inkscape:window-height="997"
     id="namedview84"
     showgrid="false"
     units="mm"
     fit-margin-top="0"
     fit-margin-left="0"
     fit-margin-right="0"
     fit-margin-bottom="0"
     inkscape:zoom="0.88059701"
     inkscape:cx="-65.738548"
     inkscape:cy="117.48132"
     inkscape:window-x="0"
     inkscape:window-y="28"
     inkscape:window-maximized="1"
     inkscape:current-layer="svg82" />
  <path
     style="fill:#000000;fill-opacity:0;stroke:#ff0000;stroke-width:0.56779659;stroke-miterlimit:4;stroke-dasharray:none;stroke-opacity:1"
     d="M 100.11239,233.39664 C 84.963034,231.79683 61.536195,222.08998 46.686833,211.2599 l -4.65428,-3.39451 7.977849,-9.3692 c 4.387818,-5.15305 8.202339,-9.36919 8.476713,-9.36919 0.274375,0 2.956901,1.80437 5.961168,4.0097 7.521816,5.52152 21.359751,11.73026 30.427861,13.65222 4.16166,0.88205 7.949926,1.61261 8.418356,1.62345 0.46843,0.0109 0.85169,-15.31079 0.85169,-34.04808 0,-18.73729 -0.38326,-34.06164 -0.85169,-34.05411 -0.46843,0.008 -2.89576,1.20412 -5.394066,2.65914 -2.4983,1.455 -12.97415,7.5032 -23.27966,13.44045 -10.305508,5.93725 -23.847457,13.78443 -30.09322,17.43818 C 26.95048,184.13047 22.523401,186.11443 20.641308,184.55243 17.346956,181.81837 6.5787348,157.58964 3.4957048,145.97446 0.71245979,135.48871 0.32526679,131.97364 0.28509679,116.82753 c -0.02512,-9.47276 0.347964,-17.616833 0.82908301,-18.097933 0.481119,-0.4811 6.036862,0.11511 12.3460952,1.324903 l 11.471332,2.19962 0.259852,15.89831 c 0.207623,12.70279 0.749384,17.38193 2.695368,23.27966 3.69136,11.18745 3.290895,10.98519 11.948586,6.0348 4.166351,-2.38227 9.162222,-5.1925 11.101937,-6.24495 1.939714,-1.05243 6.478224,-3.73527 10.085575,-5.96186 3.607353,-2.22658 6.876019,-4.04833 7.263701,-4.04833 0.387682,0 2.610234,-1.23699 4.939004,-2.74888 2.32877,-1.51187 7.013475,-4.22873 10.410454,-6.03746 3.39698,-1.80871 6.3457,-3.79671 6.55272,-4.41774 0.33984,-1.01952 -5.57221,-4.69964 -28.059555,-17.46643 C 58.069503,98.236397 51.681791,94.560307 47.934333,92.372157 44.186876,90.183997 34.222045,84.438487 25.790266,79.604344 17.358486,74.7702 10.249394,70.609364 9.9922828,70.358042 9.2724568,69.654418 15.365075,58.800318 21.091486,50.584626 28.010266,40.658242 41.626728,27.289993 51.341113,20.886417 61.403121,14.253693 73.312456,8.2584035 75.079243,8.9363835 c 1.476257,0.566493 7.021303,13.9268785 8.150041,19.6369255 0.60233,3.047094 0.32866,3.634379 -1.967129,4.221286 -5.688802,1.454313 -20.580718,11.519917 -28.189409,19.05352 -4.387567,4.344268 -7.977396,8.33403 -7.977396,8.866137 0,0.873468 8.06131,5.988187 19.65649,12.471597 2.37929,1.330373 8.000477,4.527825 12.491525,7.105449 4.49105,2.577624 11.231649,6.438869 14.979109,8.580529 3.74745,2.14167 7.29902,4.36802 7.892366,4.94744 3.87088,3.78003 4.03135,1.93955 4.03135,-46.234667 V 0.29643651 l 15.04661,0.650472 C 144.39435,2.0363815 163.00161,7.9927555 182.71179,21.279987 l 8.72661,5.882875 -2.12633,2.910035 c -5.05754,6.921593 -14.68332,17.01069 -15.29116,16.027181 -0.91399,-1.478873 -10.04062,-7.561231 -15.60597,-10.400463 -5.754,-2.935477 -23.89833,-8.962447 -26.98163,-8.962447 -2.26382,0 -2.30407,0.595003 -2.30407,34.067797 0,19.54108 0.43771,34.067792 1.0265,34.067792 1.02834,0 5.93289,-2.70778 23.95656,-13.226325 13.53559,-7.899318 12.97432,-7.57558 25.55084,-14.737706 13.88453,-7.907012 22.52723,-12.906646 27.98727,-16.190086 l 4.1398,-2.489505 2.21795,3.73283 c 9.69559,16.317717 15.74404,31.945812 18.50916,47.824312 1.27936,7.346643 1.1806,35.118763 -0.12954,36.427513 -0.35654,0.35615 -5.97773,-0.22493 -12.49152,-1.29129 l -11.84329,-1.93885 -0.0734,-15.93256 c -0.0611,-13.26972 -0.51578,-17.403473 -2.7205,-24.733413 -1.45594,-4.84047 -3.2206,-8.80085 -3.9215,-8.80085 -0.70089,0 -3.05378,1.18159 -5.22865,2.62576 -3.20099,2.12554 -26.53177,15.648943 -49.34645,28.603063 -2.2,1.24915 -4.00138,2.64405 -4.00307,3.0998 -0.001,0.45574 2.16876,1.92322 4.8232,3.26108 2.65445,1.33786 7.63687,4.10776 11.07204,6.15534 5.5945,3.33468 20.96182,12.23886 42.01695,24.34557 4.05974,2.33436 11.04229,6.39763 15.51678,9.02949 l 8.13542,4.78521 -5.16046,8.72856 c -6.64143,11.2335 -8.34216,13.48404 -17.92395,23.71854 -11.84907,12.65622 -32.63378,26.85959 -40.68048,27.79928 -2.97765,0.34772 -3.33521,-0.15913 -7.44438,-10.55272 l -4.31649,-10.91798 7.48339,-3.67826 c 4.11587,-2.02305 10.54949,-5.88 14.29695,-8.57103 6.82764,-4.90287 19.61217,-17.17796 18.67075,-17.92674 -1.13424,-0.90214 -8.40677,-5.11223 -24.91652,-14.42422 -4.05974,-2.28982 -12.78604,-7.29578 -19.39175,-11.12435 -6.60572,-3.82857 -12.86568,-7.28925 -13.91102,-7.69039 -1.75833,-0.67473 -1.90062,2.80796 -1.90062,46.51928 v 47.24862 l -10.50423,-0.15419 c -5.77733,-0.0848 -14.10801,-0.53476 -18.51262,-0.9999 z"
     id="path5241"
     inkscape:connector-curvature="0" />
</svg>
