<?xml version="1.0" encoding="UTF-8" standalone="no"?>
<!-- Created with Inkscape (http://www.inkscape.org/) -->

<svg
   xmlns:dc="http://purl.org/dc/elements/1.1/"
   xmlns:cc="http://creativecommons.org/ns#"
   xmlns:rdf="http://www.w3.org/1999/02/22-rdf-syntax-ns#"
   xmlns:svg="http://www.w3.org/2000/svg"
   xmlns="http://www.w3.org/2000/svg"
   xmlns:sodipodi="http://sodipodi.sourceforge.net/DTD/sodipodi-0.dtd"
   xmlns:inkscape="http://www.inkscape.org/namespaces/inkscape"
   version="1.1"
   id="svg72"
   width="58.06374mm"
   height="58.342396mm"
   viewBox="0 0 219.45351 220.50669"
   sodipodi:docname="hermetica-seal_of_solomon.svg"
   inkscape:version="0.92.5 (2060ec1f9f, 2020-04-08)">
  <metadata
     id="metadata78">
    <rdf:RDF>
      <cc:Work
         rdf:about="">
        <dc:format>image/svg+xml</dc:format>
        <dc:type
           rdf:resource="http://purl.org/dc/dcmitype/StillImage" />
        <dc:title></dc:title>
      </cc:Work>
    </rdf:RDF>
  </metadata>
  <defs
     id="defs76" />
  <sodipodi:namedview
     pagecolor="#ffffff"
     bordercolor="#666666"
     borderopacity="1"
     objecttolerance="10"
     gridtolerance="10"
     guidetolerance="10"
     inkscape:pageopacity="0"
     inkscape:pageshadow="2"
     inkscape:window-width="1920"
     inkscape:window-height="997"
     id="namedview74"
     showgrid="false"
     units="mm"
     fit-margin-top="0"
     fit-margin-left="0"
     fit-margin-right="0"
     fit-margin-bottom="0"
     inkscape:zoom="0.88059701"
     inkscape:cx="-182.41201"
     inkscape:cy="41.08687"
     inkscape:window-x="0"
     inkscape:window-y="28"
     inkscape:window-maximized="1"
     inkscape:current-layer="svg72" />
  <path
     style="fill:#ff0000;fill-opacity:0.01829266;stroke:#ff0000;stroke-width:0.56779659;stroke-miterlimit:4;stroke-dasharray:none;stroke-opacity:1"
     d="M 93.297096,219.31936 C 78.260386,217.72075 54.329136,207.4831 41.907026,197.335 35.739656,192.29663 26.296526,182.91523 22.251816,177.80828 12.461706,165.44703 3.2477856,143.80644 1.1460256,128.23748 -0.67344439,114.75962 0.54704561,90.148705 3.4960256,80.850335 13.175396,50.330455 30.801266,28.329964 56.971036,14.103184 77.032796,3.1969289 103.48458,-1.9384201 123.47299,1.1924939 181.33865,10.256367 221.5441,58.220246 219.06068,115.22569 c -1.69826,38.98283 -22.85987,73.23587 -56.47947,91.42001 -21.67382,11.72293 -42.46086,15.52535 -69.284114,12.67366 z m 4.5553,-11.94865 c 0,-0.88551 -17.87118,-31.97009 -20.67232,-35.95681 l -2.1942,-3.12288 h -21.43193 c -13.88379,0 -21.69417,0.42433 -22.17653,1.20481 -1.18128,1.91134 17.39624,19.3347 26.35083,24.71375 8.67081,5.20857 16.06612,8.39131 27.06483,11.64795 6.85696,2.0303 13.05932,2.74897 13.05932,1.51318 z m 34.374094,-1.11668 c 9.54573,-2.47355 20.59109,-7.0176 28.65133,-11.78712 7.19173,-4.2556 26.68818,-22.34157 26.68709,-24.7564 -0.001,-2.25315 -43.51187,-2.02054 -45.39015,0.24265 -1.55075,1.86856 -21.6105,36.72682 -21.6105,37.55305 0,1.03136 4.86604,0.50888 11.66223,-1.25218 z M 119.55725,185.319 c 4.84782,-8.36185 8.56048,-15.61391 8.25037,-16.11568 -0.71278,-1.1533 -36.455804,-1.21162 -37.143914,-0.0606 -0.28005,0.46843 3.14167,7.23941 7.60382,15.04661 10.220054,17.88152 9.782914,17.2306 11.244444,16.74343 0.6771,-0.2257 5.19748,-7.25189 10.04528,-15.61375 z M 68.326966,155.77693 c 0,-0.63699 -1.34534,-3.28933 -2.98966,-5.89409 -3.94852,-6.25488 -8.99457,-15.08012 -12.03795,-21.05369 -1.35237,-2.65445 -3.11317,-4.82628 -3.91288,-4.82628 -0.79971,0 -2.55618,2.1604 -3.90325,4.80088 -1.34708,2.6405 -3.57162,6.60088 -4.94342,8.80085 -5.40854,8.67376 -10.82301,18.00384 -10.82301,18.64996 0,0.37429 8.68729,0.68053 19.30509,0.68053 12.36376,0 19.30508,-0.41642 19.30508,-1.15816 z m 69.376804,-1.9719 c 0.99496,-1.71365 4.71714,-8.22587 8.27153,-14.47165 3.55438,-6.24576 6.94526,-12.12246 7.53529,-13.05932 0.59004,-0.93686 2.88999,-4.85022 5.111,-8.69635 l 4.03822,-6.99295 -2.4315,-4.36298 c -1.33732,-2.39963 -2.82764,-4.87399 -3.31181,-5.49857 -0.48417,-0.62457 -2.39685,-3.946175 -4.2504,-7.381345 C 147.12293,83.068725 139.70656,70.27047 137.36629,66.93932 l -2.19397,-3.122882 h -25.90227 c -19.343254,0 -26.197354,0.359446 -27.067594,1.419492 -0.64093,0.78072 -2.40738,3.719068 -3.92545,6.529661 -1.51806,2.810593 -5.45645,9.709324 -8.75197,15.330504 -3.29552,5.62119 -7.28121,12.51992 -8.85709,15.330505 -1.57588,2.8106 -3.37342,5.75252 -3.99452,6.53761 -0.79341,1.0029 -0.2416,2.7688 1.85536,5.93752 1.64154,2.48054 2.98462,4.78097 2.98462,5.11208 0,0.3311 2.89668,5.57998 6.43707,11.66418 3.54039,6.0842 8.23462,14.25604 10.43162,18.15964 l 3.99455,7.09746 26.759064,-0.007 26.75906,-0.007 1.809,-3.11569 z m 50.99609,2.64704 c 0,-1.80532 -18.18755,-31.8814 -19.27926,-31.8814 -1.11012,0 -16.92194,25.74541 -19.00517,30.94493 -0.44171,1.10243 3.77032,1.41949 18.85784,1.41949 10.68463,0 19.42659,-0.21736 19.42659,-0.48302 z M 25.841666,139.61728 c 2.93965,-5.15275 7.21669,-12.69025 9.50453,-16.75 2.28784,-4.05974 4.85231,-8.46971 5.69883,-9.79993 1.36481,-2.14466 1.17052,-3.0449 -1.71565,-7.94915 -1.79012,-3.04182 -4.47558,-7.815615 -5.9677,-10.608445 -1.49211,-2.79283 -3.68915,-6.44883 -4.8823,-8.12445 -1.19314,-1.67563 -2.16936,-3.35247 -2.16936,-3.72633 0,-0.37386 -1.50718,-3.10125 -3.34929,-6.060871 l -3.3493,-5.381123 -2.30446,5.20961 c -4.63681,10.482294 -6.00047,19.751894 -5.49546,37.355949 0.41045,14.30792 0.89033,17.69403 3.66132,25.83474 1.75392,5.15276 3.60184,9.36865 4.10649,9.36865 0.50464,0 3.3227,-4.21589 6.26235,-9.36865 z m 177.452094,0 c 6.39505,-24.49033 6.24301,-37.8625 -0.68661,-60.390315 -2.37403,-7.717861 -4.19095,-9.018446 -6.18552,-4.427694 -0.76756,1.766646 -2.62037,5.208414 -4.11737,7.648374 -1.49699,2.43995 -3.86553,6.52809 -5.26344,9.08474 -1.3979,2.55665 -4.41781,7.91039 -6.71091,11.897185 l -4.16926,7.24874 8.82468,15.26285 c 4.85358,8.39458 9.723,17.01379 10.82092,19.15381 3.13795,6.11636 4.77222,4.92077 7.48751,-5.47769 z M 55.114376,88.825575 c 2.89489,-4.98226 5.26344,-9.31598 5.26344,-9.63049 0,-0.31451 1.78856,-3.367803 3.97458,-6.785097 2.18601,-3.417294 3.97457,-6.748827 3.97457,-7.403406 0,-1.312628 -36.54079,-1.745396 -37.83805,-0.448133 -0.40811,0.408106 0.22753,2.324419 1.41253,4.258474 1.185,1.934055 3.40644,5.816041 4.93653,8.626632 7.06241,12.97276 11.53494,20.44068 12.24192,20.44068 0.42407,0 3.13959,-4.0764 6.03448,-9.05866 z m 118.538874,2.89392 c 2.02987,-3.35518 3.69067,-6.45566 3.69067,-6.88995 0,-0.43429 0.96225,-2.14605 2.13834,-3.80391 3.7413,-5.273917 9.09207,-15.820603 8.3851,-16.527568 -0.84892,-0.848919 -37.77767,-0.912657 -37.77767,-0.0652 0,1.106386 8.13547,15.802098 9.76678,17.642478 0.87403,0.98605 1.58915,2.18373 1.58915,2.66153 0,1.22013 7.21648,13.15437 7.93056,13.11515 0.32251,-0.0177 2.24719,-2.77735 4.27707,-6.13253 z M 80.640136,44.546081 c 2.5964,-4.352933 4.72073,-8.175637 4.72073,-8.494898 0,-0.319261 1.71751,-3.273236 3.81668,-6.56439 2.09918,-3.291152 4.16304,-7.087555 4.58635,-8.436449 0.42332,-1.348894 1.51641,-3.07227 2.42909,-3.829726 2.09445,-1.738243 2.15751,-4.505875 0.10265,-4.505875 -3.83393,0 -25.0028,6.904807 -31.53793,10.286962 -10.00823,5.179609 -22.49307,14.759471 -28.69334,22.016968 -2.86658,3.355374 -5.21197,6.402439 -5.21197,6.771256 0,0.368818 10.14007,0.670577 22.5335,0.670577 h 22.53351 z m 47.873284,7.162538 c 0,-0.767087 -7.44412,-13.892824 -14.54749,-25.650655 -2.16965,-3.591314 -4.35278,-6.529661 -4.8514,-6.529661 -0.80043,0 -4.79855,6.631634 -14.377334,23.847457 -1.56379,2.810594 -3.29117,5.595636 -3.83861,6.188983 -0.54744,0.593348 -0.99534,1.487628 -0.99534,1.987289 0,0.499661 8.68728,0.908474 19.305084,0.908474 10.6178,0 19.30509,-0.33835 19.30509,-0.751887 z m 59.05084,-0.602207 c 0,-3.067329 -20.21331,-20.859302 -29.63313,-26.083399 -13.28706,-7.368807 -37.36687,-14.597831 -37.36687,-11.217942 0,0.709478 1.78856,4.085928 3.97458,7.503222 2.18602,3.417294 3.97458,6.449848 3.97458,6.739008 0,0.289159 2.04406,3.865356 4.54237,7.947103 2.4983,4.081748 4.54237,7.675034 4.54237,7.985081 0,0.310046 1.14979,2.338787 2.55509,4.508314 l 2.55508,3.944593 22.42797,0.01406 c 16.61546,0.01045 22.42796,-0.336874 22.42796,-1.340036 z"
     id="path6450"
     inkscape:connector-curvature="0" />
</svg>
