<?xml version="1.0" encoding="UTF-8" standalone="no"?>
<!-- Created with Inkscape (http://www.inkscape.org/) -->

<svg
   xmlns:dc="http://purl.org/dc/elements/1.1/"
   xmlns:cc="http://creativecommons.org/ns#"
   xmlns:rdf="http://www.w3.org/1999/02/22-rdf-syntax-ns#"
   xmlns:svg="http://www.w3.org/2000/svg"
   xmlns="http://www.w3.org/2000/svg"
   xmlns:sodipodi="http://sodipodi.sourceforge.net/DTD/sodipodi-0.dtd"
   xmlns:inkscape="http://www.inkscape.org/namespaces/inkscape"
   version="1.1"
   id="svg12"
   width="63.317337mm"
   height="55.150558mm"
   viewBox="0 0 239.30962 208.44306"
   sodipodi:docname="hermetica-air.svg"
   inkscape:version="0.92.5 (2060ec1f9f, 2020-04-08)">
  <metadata
     id="metadata18">
    <rdf:RDF>
      <cc:Work
         rdf:about="">
        <dc:format>image/svg+xml</dc:format>
        <dc:type
           rdf:resource="http://purl.org/dc/dcmitype/StillImage" />
        <dc:title></dc:title>
      </cc:Work>
    </rdf:RDF>
  </metadata>
  <defs
     id="defs16" />
  <sodipodi:namedview
     pagecolor="#ffffff"
     bordercolor="#666666"
     borderopacity="1"
     objecttolerance="10"
     gridtolerance="10"
     guidetolerance="10"
     inkscape:pageopacity="0"
     inkscape:pageshadow="2"
     inkscape:window-width="1920"
     inkscape:window-height="997"
     id="namedview14"
     showgrid="false"
     units="mm"
     fit-margin-top="0"
     fit-margin-left="0"
     fit-margin-right="0"
     fit-margin-bottom="0"
     inkscape:zoom="0.88059701"
     inkscape:cx="440.25284"
     inkscape:cy="69.7822"
     inkscape:window-x="0"
     inkscape:window-y="28"
     inkscape:window-maximized="1"
     inkscape:current-layer="svg12" />
  <path
     style="fill:#ff0000;fill-opacity:0.01829266;stroke:#ff0000;stroke-width:0.56779659;stroke-miterlimit:4;stroke-dasharray:none;stroke-opacity:1"
     d="m 1.8221363,205.60407 c 0.74299,-1.4053 4.17826,-7.40975 7.63393,-13.34322 3.4556597,-5.93347 8.0167097,-13.85424 10.1356497,-17.6017 4.534,-8.0186 9.39146,-16.4519 20.50999,-35.60853 4.47939,-7.71774 8.14435,-14.48872 8.14435,-15.04661 0,-0.5632 -10.60654,-1.01435 -23.84746,-1.01435 H 0.55113628 V 110.49814 98.006614 H 32.234576 63.918006 l 7.67544,-13.34322 c 4.22149,-7.33877 9.3112,-16.153811 11.31045,-19.588981 1.99926,-3.435169 5.69353,-9.822881 8.20949,-14.194915 C 101.01155,33.679291 112.29607,14.203596 116.21476,7.5576212 l 4.11736,-6.98289398 3.50782,6.41509698 c 1.92932,3.5283038 7.51743,13.3138258 12.41805,21.7456058 8.4972,14.619928 15.01971,26.000536 18.73877,32.69576 0.93959,1.691485 3.21481,5.630511 5.05606,8.753394 3.9447,6.69049 6.6123,11.38711 11.84722,20.8584 l 3.84889,6.96363 h 31.6384 31.63839 v 12.491526 12.49152 h -23.84746 c -13.1161,0 -23.84746,0.32675 -23.84746,0.7261 0,0.39936 1.53306,3.21763 3.40678,6.26282 1.87373,3.04521 3.40678,5.71123 3.40678,5.92452 0,0.38303 5.86004,10.61184 17.1612,29.95521 3.19289,5.46504 6.94864,11.98051 8.3461,14.47881 3.76592,6.7325 10.11441,17.62273 12.90896,22.14407 1.35114,2.18602 2.45852,4.35784 2.46085,4.82627 0.002,0.46843 -53.67051,0.85169 -119.27299,0.85169 H 0.47123628 Z M 195.10498,182.32441 c 0.27579,-0.46843 -2.33096,-5.70636 -5.79278,-11.63983 -3.46183,-5.93348 -7.92024,-13.59873 -9.90762,-17.0339 -1.98737,-3.43517 -6.72369,-11.61144 -10.52517,-18.16949 l -6.91178,-11.92373 -41.81417,-0.28425 -41.814184,-0.28424 -4.4275,7.6656 c -2.43513,4.21608 -6.30926,10.98721 -8.60918,15.04696 -2.29992,4.05974 -7.84505,13.69588 -12.3225,21.41362 -4.47745,7.71774 -8.14082,14.48871 -8.14082,15.04661 0,1.23011 149.541934,1.39197 150.265704,0.16265 z m -49.1979,-85.669026 c 0,-0.74317 -1.98712,-4.70355 -4.41583,-8.80084 -2.42869,-4.09729 -8.08718,-13.73973 -12.5744,-21.427646 -4.48722,-7.687914 -8.67744,-13.805069 -9.31161,-13.593679 -0.63417,0.21139 -2.68239,3.17989 -4.55159,6.596668 -1.86918,3.416777 -4.14917,7.383135 -5.06663,8.814129 -0.91746,1.430998 -2.8422,4.752608 -4.27721,7.381358 -1.43501,2.62875 -4.73106,8.46875 -7.324564,12.97777 -2.59351,4.50902 -4.71546,8.4694 -4.71546,8.80085 0,0.33144 11.753394,0.60262 26.118644,0.60262 19.43411,0 26.11865,-0.34582 26.11865,-1.35123 z"
     id="path5395"
     inkscape:connector-curvature="0" />
</svg>
