<?xml version="1.0" encoding="UTF-8" standalone="no"?>
<!-- Created with Inkscape (http://www.inkscape.org/) -->

<svg
   xmlns:dc="http://purl.org/dc/elements/1.1/"
   xmlns:cc="http://creativecommons.org/ns#"
   xmlns:rdf="http://www.w3.org/1999/02/22-rdf-syntax-ns#"
   xmlns:svg="http://www.w3.org/2000/svg"
   xmlns="http://www.w3.org/2000/svg"
   xmlns:sodipodi="http://sodipodi.sourceforge.net/DTD/sodipodi-0.dtd"
   xmlns:inkscape="http://www.inkscape.org/namespaces/inkscape"
   version="1.1"
   id="svg22"
   width="45.402428mm"
   height="49.982498mm"
   viewBox="0 0 171.59973 188.91023"
   sodipodi:docname="esoterica-power.svg"
   inkscape:version="0.92.5 (2060ec1f9f, 2020-04-08)">
  <metadata
     id="metadata28">
    <rdf:RDF>
      <cc:Work
         rdf:about="">
        <dc:format>image/svg+xml</dc:format>
        <dc:type
           rdf:resource="http://purl.org/dc/dcmitype/StillImage" />
        <dc:title></dc:title>
      </cc:Work>
    </rdf:RDF>
  </metadata>
  <defs
     id="defs26" />
  <sodipodi:namedview
     pagecolor="#ffffff"
     bordercolor="#666666"
     borderopacity="1"
     objecttolerance="10"
     gridtolerance="10"
     guidetolerance="10"
     inkscape:pageopacity="0"
     inkscape:pageshadow="2"
     inkscape:window-width="1920"
     inkscape:window-height="997"
     id="namedview24"
     showgrid="false"
     units="mm"
     fit-margin-top="0"
     fit-margin-left="0"
     fit-margin-right="0"
     fit-margin-bottom="0"
     inkscape:zoom="0.88059701"
     inkscape:cx="-96.071934"
     inkscape:cy="94.599218"
     inkscape:window-x="0"
     inkscape:window-y="28"
     inkscape:window-maximized="1"
     inkscape:current-layer="svg22" />
  <path
     style="fill:#000000;fill-opacity:0;stroke:#ff0000;stroke-width:0.56779659;stroke-miterlimit:4;stroke-dasharray:none;stroke-opacity:1"
     d="m 79.746367,113.83845 c -2.04544,-1.2471 -4.21726,-3.57803 -4.82627,-5.17984 -0.65624,-1.72606 -1.10729,-22.564593 -1.10729,-51.157575 0,-40.810488 0.26431,-48.7562917 1.71515,-51.5618997 2.16553,-4.187669 4.90295,-5.65523701 10.54858,-5.65523701 5.68258,0 9.99952,3.31208201 11.53828,8.85250101 0.71016,2.5569847 1.17086,21.9241247 1.17471,49.3831257 0.007,49.985825 -0.1338,51.094485 -7.02279,55.294595 -4.72381,2.88002 -7.32796,2.88529 -12.02037,0.0243 z"
     id="path1932"
     inkscape:connector-curvature="0" />
  <path
     style="fill:#000000;fill-opacity:0;stroke:#ff0000;stroke-width:0.56779659;stroke-miterlimit:4;stroke-dasharray:none;stroke-opacity:1"
     d="M 64.992007,186.42284 C 31.642163,178.73462 4.7765184,148.49404 0.88849842,114.26646 -1.4524196,93.658537 3.0363634,73.678137 13.776508,56.899537 21.412704,44.970025 28.25976,38.894068 34.067048,38.894068 c 7.056374,0 13.416471,7.966301 11.894054,14.897825 -0.399442,1.818641 -2.932497,5.891297 -5.629014,9.050344 -21.162518,24.79253 -19.833916,61.812703 2.997097,83.511083 8.238424,7.82973 14.510292,11.65448 24.135162,14.71823 25.98581,8.27171 53.110273,-1.09766 68.419943,-23.6337 7.20045,-10.59916 9.5511,-17.59311 10.3082,-30.67018 1.01348,-17.505383 -4.15803,-32.312383 -15.63357,-44.761883 -3.94905,-4.284208 -4.50882,-5.568178 -4.50882,-10.342145 0,-6.59173 2.09358,-9.888858 7.38881,-11.636441 5.73503,-1.892729 10.11669,-0.480628 15.24913,4.914414 16.56097,17.408342 23.96609,38.815342 22.43037,64.842595 -0.77074,13.06235 -2.76102,20.58928 -8.41084,31.8083 -8.8922,17.65758 -20.76735,29.46367 -38.36086,38.13783 -7.1017,3.50137 -14.63502,6.24754 -20.1089,7.33044 -11.630173,2.30079 -27.626053,2.04077 -39.245803,-0.63794 z"
     id="path1934"
     inkscape:connector-curvature="0" />
</svg>
