<?xml version="1.0" encoding="UTF-8" standalone="no"?>
<!-- Created with Inkscape (http://www.inkscape.org/) -->

<svg
   xmlns:dc="http://purl.org/dc/elements/1.1/"
   xmlns:cc="http://creativecommons.org/ns#"
   xmlns:rdf="http://www.w3.org/1999/02/22-rdf-syntax-ns#"
   xmlns:svg="http://www.w3.org/2000/svg"
   xmlns="http://www.w3.org/2000/svg"
   xmlns:sodipodi="http://sodipodi.sourceforge.net/DTD/sodipodi-0.dtd"
   xmlns:inkscape="http://www.inkscape.org/namespaces/inkscape"
   version="1.1"
   id="svg62"
   width="61.69537mm"
   height="61.469467mm"
   viewBox="0 0 233.17935 232.32555"
   sodipodi:docname="esoterica-chondogyo.svg"
   inkscape:version="0.92.5 (2060ec1f9f, 2020-04-08)">
  <metadata
     id="metadata68">
    <rdf:RDF>
      <cc:Work
         rdf:about="">
        <dc:format>image/svg+xml</dc:format>
        <dc:type
           rdf:resource="http://purl.org/dc/dcmitype/StillImage" />
        <dc:title></dc:title>
      </cc:Work>
    </rdf:RDF>
  </metadata>
  <defs
     id="defs66" />
  <sodipodi:namedview
     pagecolor="#ffffff"
     bordercolor="#666666"
     borderopacity="1"
     objecttolerance="10"
     gridtolerance="10"
     guidetolerance="10"
     inkscape:pageopacity="0"
     inkscape:pageshadow="2"
     inkscape:window-width="1920"
     inkscape:window-height="997"
     id="namedview64"
     showgrid="false"
     inkscape:zoom="0.88059701"
     inkscape:cx="116.55539"
     inkscape:cy="115.96336"
     inkscape:window-x="0"
     inkscape:window-y="28"
     inkscape:window-maximized="1"
     inkscape:current-layer="svg62"
     units="mm"
     fit-margin-top="0"
     fit-margin-left="0"
     fit-margin-right="0"
     fit-margin-bottom="0" />
  <path
     style="fill:#000000;fill-opacity:0;stroke:#ff0000;stroke-width:0.56779659;stroke-miterlimit:4;stroke-dasharray:none;stroke-opacity:1"
     d="M 116.66867,0.2840597 C 97.68177,0.2984897 84.89065,2.9416867 68.973359,10.139529 26.637081,29.284103 0.26718624,69.934811 0.28390624,116.02234 c 0.0056,15.5379 2.47946096,29.10726 7.76367196,42.58398 2.5714048,6.55805 5.9607658,13.81206 7.5332028,16.12109 1.572435,2.30902 2.859375,4.50795 2.859375,4.88672 0,1.40034 12.455322,16.08327 18.33789,21.61719 8.946423,8.41616 14.181162,12.17825 24.873047,17.87695 8.943807,4.76698 21.634767,9.51823 32.306637,12.09375 2.49831,0.60293 13.74005,0.96278 24.98243,0.80078 19.63346,-0.28287 20.88939,-0.4413 31.79687,-4.01562 27.05183,-8.86477 48.31533,-24.99021 63.5625,-48.20312 24.68536,-37.58201 24.80172,-88.691625 0.28906,-126.892578 C 209.11435,44.360317 194.82504,29.327344 185.54562,22.338747 175.04916,14.43355 158.67315,6.8220267 144.52414,3.2723407 134.4174,0.7367767 130.10614,0.2738497 116.66867,0.2840597 Z m -0.22656,24.3398443 c 4.79743,-0.06805 9.64324,0.123705 10.15625,0.636719 0.35999,0.35999 -0.69513,3.554046 -2.34375,7.097656 -2.25998,4.857663 -3.00153,8.259025 -3.01563,13.824218 -0.031,12.225777 5.88013,23.309487 16.02149,30.042969 23.68484,15.725849 30.89161,41.235054 17.70312,62.658194 -3.84778,6.25027 -13.78227,16.31641 -16.10351,16.31641 -0.52276,0 -3.23186,2.04014 -6.01953,4.53516 -7.31425,6.5464 -11.58222,16.38876 -11.57422,26.69336 0.005,7.50814 0.7442,10.01154 5.94336,20.15625 0.24008,0.46843 -4.50345,0.85156 -10.54102,0.85156 -6.03757,0 -10.78108,-0.38313 -10.54101,-0.85156 5.19347,-10.13356 5.64389,-11.99434 5.25585,-21.74805 -0.35356,-8.88717 -0.78447,-10.51492 -4.36718,-16.50391 -2.18602,-3.65423 -6.01928,-8.10705 -8.51758,-9.89648 C 96.00044,156.64698 91.034,152.80266 87.46164,149.89538 74.004731,138.94375 68.148861,118.33615 74.049531,102.69226 77.760994,92.852435 82.94444,85.957835 91.11789,79.987185 c 10.99588,-8.0324 14.20191,-11.390664 17.47461,-18.308594 4.14987,-8.772106 4.22882,-21.701115 0.18164,-29.695312 -1.53134,-3.024788 -2.52218,-5.921266 -2.20313,-6.4375 0.32441,-0.524892 5.07367,-0.853825 9.8711,-0.921875 z M 76.264374,35.338747 c 1.139792,-0.04924 2.175642,0.328411 3.84375,1.025391 4.562506,1.906337 6.466796,4.748327 6.466796,9.650391 0,5.200621 -0.89887,6.599239 -7.124999,11.072265 -15.043247,10.807497 -23.843501,22.175232 -28.923828,37.359371 -4.191841,12.528625 -4.388742,30.016545 -0.478515,42.583985 4.614809,14.83196 14.463224,28.11633 27.390624,36.94922 6.511648,4.44921 8.100718,6.1384 8.679688,9.22461 0.93034,4.95913 -0.13311,8.87249 -3.17773,11.70898 -4.090755,3.81112 -9.712434,3.0363 -17.472661,-2.4082 C 45.864142,178.75122 32.502511,159.18261 27.434296,136.80163 25.456818,128.06919 25.146559,123.8839 25.637421,112.61413 26.509508,92.591795 31.017354,78.949178 41.80539,63.676638 48.343154,54.421174 62.031249,41.803306 69.797578,37.873904 c 3.366009,-1.703045 5.00135,-2.471843 6.466796,-2.535157 z m 79.912106,0.244141 c 5.35412,-0.196512 13.3986,5.026074 24.20313,15.708985 18.06202,17.858704 26.2071,36.139522 27.36719,61.419917 0.56883,12.39599 0.3347,14.86953 -2.41407,25.55078 -5.89975,22.92548 -18.16059,40.52694 -38.10156,54.69531 -7.34487,5.21866 -12.90114,5.7017 -17.41797,1.51563 -6.68207,-6.19273 -4.91906,-13.43596 4.78125,-19.63867 24.22994,-15.4935 37.13457,-47.6688 29.81641,-74.34375 -5.086,-18.538609 -11.22389,-27.759229 -26.72852,-40.160155 -5.49812,-4.397516 -10.50852,-8.910281 -11.13476,-10.029297 -1.50139,-2.682847 -0.2475,-9.026629 2.22656,-11.265625 1.08193,-0.979138 3.45356,-2.345937 5.27148,-3.037109 0.6553,-0.249142 1.36599,-0.387943 2.13086,-0.416016 z M 117.28,93.975465 c -7.34754,-0.16898 -14.8938,3.03264 -19.74023,9.851555 -2.9517,4.15303 -3.43783,5.84564 -3.42383,11.92383 0.0231,10.03459 4.23187,16.80504 13.46875,21.66602 10.00683,5.26616 25.87454,-1.13094 30.01953,-12.10157 1.68113,-4.44947 1.5088,-13.76603 -0.33594,-18.13085 C 133.67776,98.688955 125.60721,94.166975 117.28,93.975465 Z"
     id="path5302"
     inkscape:connector-curvature="0" />
</svg>
