<?xml version="1.0" encoding="UTF-8" standalone="no"?>
<!-- Created with Inkscape (http://www.inkscape.org/) -->

<svg
   xmlns:dc="http://purl.org/dc/elements/1.1/"
   xmlns:cc="http://creativecommons.org/ns#"
   xmlns:rdf="http://www.w3.org/1999/02/22-rdf-syntax-ns#"
   xmlns:svg="http://www.w3.org/2000/svg"
   xmlns="http://www.w3.org/2000/svg"
   xmlns:sodipodi="http://sodipodi.sourceforge.net/DTD/sodipodi-0.dtd"
   xmlns:inkscape="http://www.inkscape.org/namespaces/inkscape"
   version="1.1"
   id="svg12"
   width="31.547781mm"
   height="58.219429mm"
   viewBox="0 0 119.23571 220.04194"
   sodipodi:docname="hermetica-fortuna_major.svg"
   inkscape:version="0.92.5 (2060ec1f9f, 2020-04-08)">
  <metadata
     id="metadata18">
    <rdf:RDF>
      <cc:Work
         rdf:about="">
        <dc:format>image/svg+xml</dc:format>
        <dc:type
           rdf:resource="http://purl.org/dc/dcmitype/StillImage" />
        <dc:title></dc:title>
      </cc:Work>
    </rdf:RDF>
  </metadata>
  <defs
     id="defs16" />
  <sodipodi:namedview
     pagecolor="#ffffff"
     bordercolor="#666666"
     borderopacity="1"
     objecttolerance="10"
     gridtolerance="10"
     guidetolerance="10"
     inkscape:pageopacity="0"
     inkscape:pageshadow="2"
     inkscape:window-width="1920"
     inkscape:window-height="997"
     id="namedview14"
     showgrid="false"
     units="mm"
     fit-margin-top="0"
     fit-margin-left="0"
     fit-margin-right="0"
     fit-margin-bottom="0"
     inkscape:zoom="0.88059701"
     inkscape:cx="59.356907"
     inkscape:cy="110.40522"
     inkscape:window-x="0"
     inkscape:window-y="28"
     inkscape:window-maximized="1"
     inkscape:current-layer="svg12" />
  <path
     style="fill:#ff0000;fill-opacity:0.01829266;stroke:#ff0000;stroke-width:0.56779659;stroke-miterlimit:4;stroke-dasharray:none;stroke-opacity:1"
     d="M 19.181126,0.28515473 C 10.823862,0.39158073 1.9225941,7.2694327 0.6596411,15.691405 c -1.444267,9.631062 1.941459,16.544904 10.2070319,20.84375 8.771337,4.561889 22.688934,-0.328785 25.542964,-8.976563 4.09213,-12.399279 -0.82971,-22.7150523 -12.693355,-26.60351627 -1.458389,-0.478006 -2.987515,-0.689631 -4.535156,-0.669921 z m 79.902341,0.03711 c -1.16778,0.02177 -2.33474,0.179618 -3.48828,0.490234 -9.11611,2.45471297 -14.88867,9.76914327 -14.88867,18.86523527 0,6.42149 3.06536,11.879449 8.89648,15.841796 4.81526,3.272056 13.149633,3.791327 18.279303,1.138672 4.46035,-2.306541 8.85312,-7.825084 10.4375,-13.113281 C 121.58329,12.652357 110.37207,0.11182073 99.083467,0.32226473 Z M 19.054173,61.134765 c -2.918597,-0.02319 -5.794502,0.660023 -8.515625,2.048828 -5.3459679,2.728473 -7.5472159,5.264308 -9.2968749,10.710937 -3.05838,9.520637 1.372319,19.307837 10.7148429,23.673827 5.91545,2.764433 11.892054,2.08979 17.810551,-2.01172 6.33632,-4.39108 8.12573,-8.36634 7.58593,-16.84375 -0.52558,-8.25416 -2.91726,-12.117334 -9.52734,-15.392575 -2.892891,-1.433404 -5.852888,-2.162361 -8.771484,-2.185547 z m 80.380854,0.08984 c -6.71429,-0.0033 -13.29545,3.371036 -16.32226,9.43164 -3.01883,6.044632 -3.1131,13.620952 -0.22852,18.351562 2.42226,3.97242 8.54794,8.97741 12.01758,9.82032 10.579323,2.570123 21.739863,-5.15643 23.873053,-16.52735 1.01639,-5.41782 -2.52503,-13.213671 -7.84766,-17.273438 -3.38707,-2.583448 -7.46361,-3.800745 -11.492193,-3.802734 z m -39.9707,60.384775 c -12.02588,0.046 -21.739,11.43116 -18.42969,23.74218 1.63973,6.09997 8.60832,13.00371 13.80665,13.67774 2.04648,0.26534 4.74303,0.3039 5.99218,0.0879 1.24915,-0.21601 3.14748,-0.3992 4.21875,-0.4082 2.53401,-0.0202 9.63218,-6.27869 11.73633,-10.34766 1.84902,-3.57562 2.1606,-10.87739 0.63477,-14.89063 -1.80501,-4.74755 -7.4751,-9.73015 -12.69532,-11.15625 -1.78116,-0.48659 -3.54568,-0.71164 -5.26367,-0.70507 z m 0.33789,60.17578 c -4.55518,-0.13197 -9.24901,1.44415 -13.17187,5.17968 -7.89788,7.52074 -8.35321,18.4029 -1.11524,26.64649 1.82789,2.08186 4.99941,4.32174 7.04883,4.97851 8.10319,2.59681 14.59574,0.92641 20.70313,-5.32812 3.76962,-3.86045 4.47893,-5.39358 4.91211,-10.61719 0.99616,-12.01232 -8.35556,-20.56904 -18.37696,-20.85937 z"
     id="path5404"
     inkscape:connector-curvature="0" />
</svg>
