<?xml version="1.0" encoding="UTF-8" standalone="no"?>
<!-- Created with Inkscape (http://www.inkscape.org/) -->

<svg
   xmlns:dc="http://purl.org/dc/elements/1.1/"
   xmlns:cc="http://creativecommons.org/ns#"
   xmlns:rdf="http://www.w3.org/1999/02/22-rdf-syntax-ns#"
   xmlns:svg="http://www.w3.org/2000/svg"
   xmlns="http://www.w3.org/2000/svg"
   xmlns:sodipodi="http://sodipodi.sourceforge.net/DTD/sodipodi-0.dtd"
   xmlns:inkscape="http://www.inkscape.org/namespaces/inkscape"
   version="1.1"
   id="svg62"
   width="24.830423mm"
   height="61.869144mm"
   viewBox="0 0 93.84727 233.83614"
   sodipodi:docname="hermetica-ansuz.svg"
   inkscape:version="0.92.5 (2060ec1f9f, 2020-04-08)">
  <metadata
     id="metadata68">
    <rdf:RDF>
      <cc:Work
         rdf:about="">
        <dc:format>image/svg+xml</dc:format>
        <dc:type
           rdf:resource="http://purl.org/dc/dcmitype/StillImage" />
        <dc:title></dc:title>
      </cc:Work>
    </rdf:RDF>
  </metadata>
  <defs
     id="defs66" />
  <sodipodi:namedview
     pagecolor="#ffffff"
     bordercolor="#666666"
     borderopacity="1"
     objecttolerance="10"
     gridtolerance="10"
     guidetolerance="10"
     inkscape:pageopacity="0"
     inkscape:pageshadow="2"
     inkscape:window-width="1920"
     inkscape:window-height="997"
     id="namedview64"
     showgrid="false"
     units="mm"
     fit-margin-top="0"
     fit-margin-left="0"
     fit-margin-right="0"
     fit-margin-bottom="0"
     inkscape:zoom="0.88059701"
     inkscape:cx="47.070339"
     inkscape:cy="117.47712"
     inkscape:window-x="0"
     inkscape:window-y="28"
     inkscape:window-maximized="1"
     inkscape:current-layer="svg62" />
  <path
     style="fill:#ff0000;fill-opacity:0.01829266;stroke:#ff0000;stroke-width:0.56779659;stroke-miterlimit:4;stroke-dasharray:none;stroke-opacity:1"
     d="M 0.28389829,117.07152 V 0.59079207 L 2.8702913,2.6605021 c 1.422516,1.13834 8.8928747,7.179879 16.6007977,13.4256419 7.70793,6.245762 15.40843,12.377966 17.11222,13.627118 1.7038,1.249153 13.20619,10.447458 25.56087,20.440678 12.35468,9.993221 24.45195,19.609681 26.88282,21.369911 l 4.41977,3.200421 -2.28732,3.045342 c -6.92617,9.221521 -12.09508,15.400721 -13.18434,15.761291 -0.99794,0.33034 -19.46962,-13.542484 -29.4285,-22.101747 -6.56491,-5.642283 -21.67222,-17.300641 -22.41878,-17.300641 -0.47348,0 -0.86088,8.156556 -0.86088,18.125679 v 18.125679 l 9.79399,7.70907 c 5.3867,4.239985 11.96307,9.497625 14.61415,11.683645 7.1641,5.90734 7.84517,6.45555 25.91451,20.85933 9.17254,7.3118 16.67735,13.82607 16.67735,14.47619 0,0.6501 -3.16029,5.10222 -7.02287,9.89358 -3.86257,4.79137 -7.15357,8.89389 -7.31332,9.11671 -0.28754,0.40106 -5.91455,-3.94299 -13.89818,-10.72939 -12.38927,-10.53137 -37.4883,-29.75251 -38.07926,-29.16155 -0.3775,0.37751 -0.68637,25.13001 -0.68637,55.00559 v 54.3192 H 12.775424 0.28389829 Z"
     id="path5283"
     inkscape:connector-curvature="0" />
</svg>
