<?xml version="1.0" encoding="UTF-8" standalone="no"?>
<!-- Created with Inkscape (http://www.inkscape.org/) -->

<svg
   xmlns:dc="http://purl.org/dc/elements/1.1/"
   xmlns:cc="http://creativecommons.org/ns#"
   xmlns:rdf="http://www.w3.org/1999/02/22-rdf-syntax-ns#"
   xmlns:svg="http://www.w3.org/2000/svg"
   xmlns="http://www.w3.org/2000/svg"
   xmlns:sodipodi="http://sodipodi.sourceforge.net/DTD/sodipodi-0.dtd"
   xmlns:inkscape="http://www.inkscape.org/namespaces/inkscape"
   version="1.1"
   id="svg102"
   width="47.47258mm"
   height="62.346867mm"
   viewBox="0 0 179.42393 235.6417"
   sodipodi:docname="esoterica-labrys.svg"
   inkscape:version="0.92.5 (2060ec1f9f, 2020-04-08)">
  <metadata
     id="metadata108">
    <rdf:RDF>
      <cc:Work
         rdf:about="">
        <dc:format>image/svg+xml</dc:format>
        <dc:type
           rdf:resource="http://purl.org/dc/dcmitype/StillImage" />
        <dc:title></dc:title>
      </cc:Work>
    </rdf:RDF>
  </metadata>
  <defs
     id="defs106" />
  <sodipodi:namedview
     pagecolor="#ffffff"
     bordercolor="#666666"
     borderopacity="1"
     objecttolerance="10"
     gridtolerance="10"
     guidetolerance="10"
     inkscape:pageopacity="0"
     inkscape:pageshadow="2"
     inkscape:window-width="1920"
     inkscape:window-height="997"
     id="namedview104"
     showgrid="false"
     units="mm"
     fit-margin-top="0"
     fit-margin-left="0"
     fit-margin-right="0"
     fit-margin-bottom="0"
     inkscape:zoom="0.88059701"
     inkscape:cx="90.017763"
     inkscape:cy="117.47712"
     inkscape:window-x="0"
     inkscape:window-y="28"
     inkscape:window-maximized="1"
     inkscape:current-layer="svg102" />
  <path
     style="fill:#ff0000;fill-opacity:0.01829266;stroke:#ff0000;stroke-width:0.56779659;stroke-miterlimit:4;stroke-dasharray:none;stroke-opacity:1"
     d="m 77.072003,164.95103 c 0,-48.44141 -0.37221,-70.406783 -1.19306,-70.406783 -0.65617,0 -5.23252,1.59625 -10.16965,3.54723 -11.613508,4.589233 -21.986619,13.131303 -31.003052,25.530443 -3.812524,5.24288 -7.210023,9.5258 -7.55,9.51761 -0.339977,-0.008 -1.776888,-1.66899 -3.193136,-3.69068 C 7.0673377,105.33025 2.0793667,93.550897 0.52710172,74.10357 -0.74319228,58.188867 3.0343217,39.541616 10.368375,25.523284 13.241131,20.03229 26.206227,1.4291551 27.16181,1.4270061 c 0.34304,-7.71e-4 4.07682,4.574368 8.29729,10.1669769 4.220471,5.592608 10.137949,12.231663 13.149953,14.753455 8.58717,7.189582 21.31122,12.69274 32.57356,14.088074 26.138457,3.238397 48.567037,-7.649915 65.389937,-31.7446029 l 5.72978,-8.20649703 3.55008,4.74156203 c 14.9027,19.9043069 20.57976,32.5054909 22.53763,50.0260139 2.23828,20.029891 -0.49157,36.607949 -8.68616,52.749882 -5.44102,10.71789 -17.50362,26.80692 -18.391,24.52983 -1.83937,-4.71998 -16.07779,-21.23295 -22.67926,-26.30219 -5.62859,-4.32218 -19.09609,-10.686883 -23.1468,-10.939123 l -2.86398,-0.17834 -0.29256,70.122883 -0.29256,70.12288 H 89.554863 77.072003 Z M 36.038501,86.210977 c 9.090125,-6.548409 17.826156,-10.943307 27.520572,-13.844976 5.15394,-1.542642 10.30277,-2.804804 11.44186,-2.804804 2.31686,0 2.8674,-3.262858 0.65158,-3.861667 C 57.639473,60.831639 42.655671,53.946906 34.135368,46.623303 32.068101,44.84639 29.955339,43.652969 29.440341,43.971256 c -1.49378,0.923206 -3.804034,15.085082 -3.804034,23.318755 0,9.038986 2.408732,22.711866 4.001117,22.711866 0.626321,0 3.506805,-1.70591 6.401077,-3.7909 z M 152.45089,82.671035 c 2.33787,-9.307119 2.35242,-21.598245 0.0361,-30.537074 -2.38457,-9.202356 -2.50295,-9.323264 -5.9845,-6.112793 -7.48982,6.906617 -21.93998,13.98984 -36.44676,17.865586 -7.03784,1.880284 -9.86983,4.007805 -6.67566,5.015059 0.83266,0.262572 6.18882,1.774425 11.90256,3.359675 10.04197,2.786092 27.542,11.797436 30.99835,15.962079 2.73028,3.2898 4.30466,1.87296 6.16988,-5.552532 z"
     id="path6347"
     inkscape:connector-curvature="0" />
</svg>
