<?xml version="1.0" encoding="UTF-8" standalone="no"?>
<!-- Created with Inkscape (http://www.inkscape.org/) -->

<svg
   xmlns:dc="http://purl.org/dc/elements/1.1/"
   xmlns:cc="http://creativecommons.org/ns#"
   xmlns:rdf="http://www.w3.org/1999/02/22-rdf-syntax-ns#"
   xmlns:svg="http://www.w3.org/2000/svg"
   xmlns="http://www.w3.org/2000/svg"
   xmlns:sodipodi="http://sodipodi.sourceforge.net/DTD/sodipodi-0.dtd"
   xmlns:inkscape="http://www.inkscape.org/namespaces/inkscape"
   version="1.1"
   id="svg82"
   width="60.093975mm"
   height="59.973267mm"
   viewBox="0 0 227.12684 226.67062"
   sodipodi:docname="esoterica-anu.svg"
   inkscape:version="0.92.5 (2060ec1f9f, 2020-04-08)">
  <metadata
     id="metadata88">
    <rdf:RDF>
      <cc:Work
         rdf:about="">
        <dc:format>image/svg+xml</dc:format>
        <dc:type
           rdf:resource="http://purl.org/dc/dcmitype/StillImage" />
        <dc:title></dc:title>
      </cc:Work>
    </rdf:RDF>
  </metadata>
  <defs
     id="defs86" />
  <sodipodi:namedview
     pagecolor="#ffffff"
     bordercolor="#666666"
     borderopacity="1"
     objecttolerance="10"
     gridtolerance="10"
     guidetolerance="10"
     inkscape:pageopacity="0"
     inkscape:pageshadow="2"
     inkscape:window-width="1920"
     inkscape:window-height="997"
     id="namedview84"
     showgrid="false"
     inkscape:zoom="0.88059701"
     inkscape:cx="113.73785"
     inkscape:cy="114.07034"
     inkscape:window-x="0"
     inkscape:window-y="28"
     inkscape:window-maximized="1"
     inkscape:current-layer="svg82"
     units="mm"
     fit-margin-top="0"
     fit-margin-left="0"
     fit-margin-right="0"
     fit-margin-bottom="0" />
  <path
     style="fill:#000000;fill-opacity:0;stroke:#ff0000;stroke-width:0.56779659;stroke-miterlimit:4;stroke-dasharray:none;stroke-opacity:1"
     d="m 105.33446,181.53079 c 0,-35.25748 -0.30541,-44.85593 -1.42723,-44.85593 -0.78498,0 -15.438888,14.0186 -32.564248,31.15245 l -31.137011,31.15247 -6.50775,-6.37227 -6.50775,-6.37227 31.730903,-31.63704 c 17.451996,-17.40038 31.427118,-32.12858 31.055828,-32.72934 -0.38551,-0.62376 -8.26893,-1.09231 -18.37847,-1.09231 H 53.895346 l -9.76773,5.2863 c -11.353539,6.14455 -30.339561,18.3664 -37.3347039,24.03345 -2.670311,2.16331 -5.098043,3.69038 -5.394961,3.39346 -0.296918,-0.29692 -0.01882,-3.05196 0.618002,-6.12229 2.981795,-14.37635 2.483843,-61.073463 -0.790363,-74.118942 l -0.753887,-3.003727 3.884769,2.941033 C 12.661494,79.473297 27.777379,89.492617 38.207016,95.623117 l 10.915582,6.416143 21.008474,0.33869 21.00847,0.33869 -13.40687,-13.478893 C 65.216167,76.654014 63.820964,75.597629 56.724197,73.331088 47.421058,70.359882 31.305371,66.6725 16.293872,64.080348 l -11.2524559,-1.94305 3.8711,-2.678806 C 22.11052,50.325455 48.410672,24.031257 61.146138,7.2366944 l 2.938795,-3.875458 2.4392,15.2985106 c 1.341559,8.414182 4.284818,21.67394 6.540573,29.466131 l 4.101374,14.167619 13.214742,13.343221 c 7.26811,7.338769 13.605998,13.343219 14.084188,13.343219 0.4782,0 0.86945,-8.23487 0.86945,-18.299711 0,-17.692649 -0.10186,-18.493167 -3.07046,-24.131356 C 95.293772,33.310494 87.618042,20.909203 80.230192,10.949971 L 72.394558,0.38709443 80.631462,1.2470754 c 10.63476,1.110333 59.624328,1.094264 68.214648,-0.02237 l 6.60488,-0.85855397 -3.49701,4.84503097 c -10.76581,14.9158006 -20.01299,29.6053366 -25.7572,40.9164036 -2.62627,5.171459 -2.73385,6.246517 -2.43631,24.347254 l 0.31128,18.936897 31.42941,-31.444711 c 17.28619,-17.29459 31.86763,-31.444711 32.4032,-31.444711 0.53558,0 3.63291,2.692574 6.88296,5.9835 l 5.90917,5.983499 -31.21491,31.199435 c -17.16821,17.159688 -31.21492,31.586181 -31.21492,32.058871 0,0.47269 19.92966,0.85944 44.28814,0.85944 h 44.28813 v 9.08475 9.08474 h -44.09886 c -24.25439,0 -44.45919,0.36031 -44.89957,0.8007 -0.44039,0.44038 13.53379,15.1418 31.05372,32.66982 l 31.85442,31.86914 -6.56411,6.49561 -6.56409,6.4956 -31.20081,-31.21628 c -17.16044,-17.16896 -31.58755,-31.21628 -32.06024,-31.21628 -0.47269,0 -0.85944,20.18517 -0.85944,44.85593 v 44.85593 h -9.08474 -9.08475 z m -77.788133,-67.0929 c 2.24735,-1.70597 2.24139,-1.74704 -0.567797,-3.91322 -3.944452,-3.04157 -4.542373,-2.8132 -4.542373,1.73493 0,4.35384 1.437176,4.96646 5.11017,2.17829 z M 54.749454,50.08587 c -1.262312,-4.178104 -2.419989,-4.626359 -5.079539,-1.966809 -2.025395,2.025396 -2.214473,2.711566 -0.965254,3.50295 0.854442,0.541291 2.737754,0.991991 4.18514,1.001555 2.203288,0.01456 2.505966,-0.398477 1.859653,-2.537696 z M 116.65044,25.461373 c 1.89382,-3.538638 1.38833,-4.617028 -2.16421,-4.617028 -4.09999,0 -5.14292,1.447693 -3.23911,4.49618 1.8197,2.913793 3.88388,2.959959 5.40332,0.120848 z"
     id="path5241"
     inkscape:connector-curvature="0" />
</svg>
