<?xml version="1.0" encoding="UTF-8" standalone="no"?>
<!-- Created with Inkscape (http://www.inkscape.org/) -->

<svg
   xmlns:dc="http://purl.org/dc/elements/1.1/"
   xmlns:cc="http://creativecommons.org/ns#"
   xmlns:rdf="http://www.w3.org/1999/02/22-rdf-syntax-ns#"
   xmlns:svg="http://www.w3.org/2000/svg"
   xmlns="http://www.w3.org/2000/svg"
   xmlns:sodipodi="http://sodipodi.sourceforge.net/DTD/sodipodi-0.dtd"
   xmlns:inkscape="http://www.inkscape.org/namespaces/inkscape"
   version="1.1"
   id="svg52"
   width="57.450653mm"
   height="49.51746mm"
   viewBox="0 0 217.13633 187.15261"
   sodipodi:docname="hermetica-triangle_of_arts.svg"
   inkscape:version="0.92.5 (2060ec1f9f, 2020-04-08)">
  <metadata
     id="metadata58">
    <rdf:RDF>
      <cc:Work
         rdf:about="">
        <dc:format>image/svg+xml</dc:format>
        <dc:type
           rdf:resource="http://purl.org/dc/dcmitype/StillImage" />
        <dc:title></dc:title>
      </cc:Work>
    </rdf:RDF>
  </metadata>
  <defs
     id="defs56" />
  <sodipodi:namedview
     pagecolor="#ffffff"
     bordercolor="#666666"
     borderopacity="1"
     objecttolerance="10"
     gridtolerance="10"
     guidetolerance="10"
     inkscape:pageopacity="0"
     inkscape:pageshadow="2"
     inkscape:window-width="1920"
     inkscape:window-height="997"
     id="namedview54"
     showgrid="false"
     units="mm"
     fit-margin-top="0"
     fit-margin-left="0"
     fit-margin-right="0"
     fit-margin-bottom="0"
     inkscape:zoom="0.88059701"
     inkscape:cx="108.89584"
     inkscape:cy="93.62966"
     inkscape:window-x="0"
     inkscape:window-y="28"
     inkscape:window-maximized="1"
     inkscape:current-layer="svg52" />
  <path
     style="fill:#ff0000;fill-opacity:0.01829266;stroke:#ff0000;stroke-width:0.56779659;stroke-miterlimit:4;stroke-dasharray:none;stroke-opacity:1"
     d="m 2.577514,183.74583 c 1.128246,-1.71758 3.666038,-5.93347 5.639538,-9.36864 11.941421,-20.78582 30.919309,-53.72583 34.021253,-59.05085 2.001064,-3.43517 7.621447,-13.14449 12.489739,-21.576268 4.868293,-8.43178 10.641748,-18.39661 12.8299,-22.14407 2.188152,-3.74746 5.859027,-10.13517 8.157497,-14.194914 2.29848,-4.059746 7.07613,-12.363772 10.61701,-18.45339 3.54088,-6.089619 9.17128,-15.798941 12.51199,-21.576271 11.098329,-19.1931204 10.602209,-18.5313544 11.579199,-15.4452374 0.46486,1.468397 2.81526,5.791136 5.22311,9.6060884 2.40784,3.81495 4.3779,7.313183 4.3779,7.77385 0,0.460667 0.9566,2.194004 2.12579,3.851861 1.16917,1.657856 3.64521,5.824878 5.50229,9.260048 1.85707,3.435169 6.07674,10.844915 9.37705,16.466101 3.30029,5.621187 7.28035,12.519914 8.84459,15.330504 1.56422,2.8106 3.23748,5.62119 3.71835,6.24577 0.48088,0.62457 2.11637,3.43517 3.63444,6.24576 1.51806,2.81059 5.45956,9.70932 8.75887,15.33051 3.2993,5.62119 7.54374,13.030928 9.43209,16.466098 1.88833,3.43517 4.12824,7.05252 4.97756,8.03857 0.84932,0.98605 1.54423,2.19674 1.54423,2.69044 0,0.49369 1.90609,4.03057 4.23575,7.85973 2.32967,3.82917 5.05705,8.49516 6.06084,10.36889 1.0038,1.87373 3.61513,6.47288 5.80295,10.22034 3.55089,6.08218 12.04398,20.79206 19.83376,34.35169 l 2.77261,4.82627 H 108.58599 0.52615702 Z m 67.481039,-9.18623 c 0,-0.52425 -2.104907,-2.90072 -4.67757,-5.28103 -6.968291,-6.4473 -12.835913,-16.32648 -15.809924,-26.6188 -1.45638,-5.04017 -3.013197,-9.16394 -3.459592,-9.16394 -0.890502,0 -1.720482,1.34767 -14.801091,24.03308 -4.920706,8.53388 -8.946738,16.07138 -8.946738,16.75 0,0.84893 7.439983,1.23387 23.847457,1.23387 13.116102,0 23.847458,-0.42894 23.847458,-0.95318 z m 60.646817,-4.06524 c 25.22497,-12.80355 35.73394,-41.53613 24.12936,-65.97209 -6.13876,-12.926478 -16.49861,-22.629178 -29.22289,-27.369198 -6.30946,-2.35038 -25.764389,-2.64518 -32.273629,-0.48904 -15.09485,5.00008 -29.072839,19.57201 -33.029079,34.432538 -5.902499,22.17111 3.160631,45.44417 22.201499,57.01089 9.43107,5.72907 16.77512,7.47748 29.356909,6.98901 9.52243,-0.36968 11.40572,-0.82978 18.83783,-4.60211 z m 64.24786,3.59893 c -0.0209,-1.44476 -2.04994,-5.24238 -11.99233,-22.44568 -3.07384,-5.31864 -6.59927,-11.5786 -7.83431,-13.91102 -2.913,-5.5013 -4.68507,-5.37192 -5.45905,0.39856 -1.06473,7.93815 -8.88683,22.51632 -15.88489,29.6049 -3.4871,3.53221 -6.0363,6.72607 -5.66491,7.09746 0.37141,0.3714 11.06595,0.67527 23.76567,0.67527 17.72623,0 23.08562,-0.32976 23.06982,-1.41949 z M 106.39753,63.487592 c 7.28798,-0.42602 11.68152,-0.0338 17.93514,1.60119 4.55542,1.19099 8.54813,1.73581 8.87266,1.2107 0.32454,-0.52511 -0.42265,-2.37697 -1.66041,-4.11524 -1.23777,-1.73828 -3.89679,-6.206189 -5.90895,-9.928694 -2.01214,-3.722504 -4.35336,-7.574952 -5.20268,-8.560997 -0.84933,-0.986043 -1.54423,-2.174245 -1.54423,-2.640447 0,-1.43251 -9.2904,-16.57522 -10.16928,-16.57522 -0.45413,0 -2.14716,2.427331 -3.76227,5.394068 -1.61512,2.966737 -6.806509,12.024717 -11.536419,20.128843 -4.7299,8.104126 -8.59983,15.311257 -8.59983,16.015857 0,0.90756 1.73825,0.80774 5.96187,-0.34238 3.27902,-0.8929 10.305509,-1.87735 15.614399,-2.18768 z"
     id="path6492"
     inkscape:connector-curvature="0" />
</svg>
