<?xml version="1.0" encoding="UTF-8" standalone="no"?>
<!-- Created with Inkscape (http://www.inkscape.org/) -->

<svg
   xmlns:dc="http://purl.org/dc/elements/1.1/"
   xmlns:cc="http://creativecommons.org/ns#"
   xmlns:rdf="http://www.w3.org/1999/02/22-rdf-syntax-ns#"
   xmlns:svg="http://www.w3.org/2000/svg"
   xmlns="http://www.w3.org/2000/svg"
   xmlns:sodipodi="http://sodipodi.sourceforge.net/DTD/sodipodi-0.dtd"
   xmlns:inkscape="http://www.inkscape.org/namespaces/inkscape"
   version="1.1"
   id="svg32"
   width="54.833775mm"
   height="61.645699mm"
   viewBox="0 0 207.24576 232.99162"
   sodipodi:docname="esoterica-shen.svg"
   inkscape:version="0.92.5 (2060ec1f9f, 2020-04-08)">
  <metadata
     id="metadata38">
    <rdf:RDF>
      <cc:Work
         rdf:about="">
        <dc:format>image/svg+xml</dc:format>
        <dc:type
           rdf:resource="http://purl.org/dc/dcmitype/StillImage" />
        <dc:title></dc:title>
      </cc:Work>
    </rdf:RDF>
  </metadata>
  <defs
     id="defs36" />
  <sodipodi:namedview
     pagecolor="#ffffff"
     bordercolor="#666666"
     borderopacity="1"
     objecttolerance="10"
     gridtolerance="10"
     guidetolerance="10"
     inkscape:pageopacity="0"
     inkscape:pageshadow="2"
     inkscape:window-width="1920"
     inkscape:window-height="997"
     id="namedview34"
     showgrid="false"
     units="mm"
     fit-margin-top="0"
     fit-margin-left="0"
     fit-margin-right="0"
     fit-margin-bottom="0"
     inkscape:zoom="0.88059701"
     inkscape:cx="103.85"
     inkscape:cy="116.34153"
     inkscape:window-x="0"
     inkscape:window-y="28"
     inkscape:window-maximized="1"
     inkscape:current-layer="svg32" />
  <path
     style="fill:#000000;fill-opacity:0;stroke:#ff0000;stroke-width:0.56779659;stroke-miterlimit:4;stroke-dasharray:none;stroke-opacity:1"
     d="M 0.28389829,220.21619 V 207.72467 H 32.080508 63.877119 v -4.86644 -4.86644 l -7.583156,-3.73942 C 47.121497,189.72923 38.423773,183.09853 29.036367,173.47259 10.938545,154.91488 1.1371693,130.35073 1.0168013,103.25009 0.80504929,55.574372 32.386278,14.868778 78.63983,3.2004167 c 22.57462,-5.694888 49.45154,-2.915729 69.76062,7.2134703 21.20457,10.575833 37.00152,26.178912 46.93459,46.358581 16.05621,32.619228 14.68949,68.729732 -3.75766,99.282702 -8.27357,13.70304 -24.25885,29.0366 -38.33872,36.77563 l -11.12449,6.11462 0.34333,4.10572 0.34335,4.10573 32.08051,0.30158 32.0805,0.30159 v 12.47383 12.47385 H 103.62288 0.28389829 Z M 120.08898,179.09885 c 7.27896,-1.58953 22.11533,-7.81847 26.8651,-11.27912 2.02292,-1.4739 7.68644,-6.70778 12.58558,-11.63086 7.19297,-7.22811 9.86356,-10.94404 13.87432,-19.30509 6.00636,-12.52123 7.42924,-18.94387 7.42924,-33.53459 0,-14.697954 -1.39454,-21.499751 -6.67078,-32.536352 C 164.40097,50.373317 150.11936,37.292798 128.87901,29.328596 119.59204,25.846388 118.00351,25.60226 104.19068,25.534438 90.17173,25.465598 88.88445,25.656886 78.63983,29.33118 66.062619,33.842073 53.944232,41.587509 46.487353,49.881354 32.070261,65.916629 24.104525,87.999016 25.624952,107.71552 c 3.667549,47.55982 48.481898,81.42454 94.464028,71.38333 z"
     id="path5346"
     inkscape:connector-curvature="0" />
</svg>
