<?xml version="1.0" encoding="UTF-8" standalone="no"?>
<!-- Created with Inkscape (http://www.inkscape.org/) -->

<svg
   xmlns:dc="http://purl.org/dc/elements/1.1/"
   xmlns:cc="http://creativecommons.org/ns#"
   xmlns:rdf="http://www.w3.org/1999/02/22-rdf-syntax-ns#"
   xmlns:svg="http://www.w3.org/2000/svg"
   xmlns="http://www.w3.org/2000/svg"
   xmlns:sodipodi="http://sodipodi.sourceforge.net/DTD/sodipodi-0.dtd"
   xmlns:inkscape="http://www.inkscape.org/namespaces/inkscape"
   version="1.1"
   id="svg42"
   width="33.134712mm"
   height="61.740681mm"
   viewBox="0 0 125.23356 233.35061"
   sodipodi:docname="esoterica-menat.svg"
   inkscape:version="0.92.5 (2060ec1f9f, 2020-04-08)">
  <metadata
     id="metadata48">
    <rdf:RDF>
      <cc:Work
         rdf:about="">
        <dc:format>image/svg+xml</dc:format>
        <dc:type
           rdf:resource="http://purl.org/dc/dcmitype/StillImage" />
        <dc:title></dc:title>
      </cc:Work>
    </rdf:RDF>
  </metadata>
  <defs
     id="defs46" />
  <sodipodi:namedview
     pagecolor="#ffffff"
     bordercolor="#666666"
     borderopacity="1"
     objecttolerance="10"
     gridtolerance="10"
     guidetolerance="10"
     inkscape:pageopacity="0"
     inkscape:pageshadow="2"
     inkscape:window-width="1920"
     inkscape:window-height="997"
     id="namedview44"
     showgrid="false"
     units="mm"
     fit-margin-top="0"
     fit-margin-left="0"
     fit-margin-right="0"
     fit-margin-bottom="0"
     inkscape:zoom="0.88059701"
     inkscape:cx="62.946736"
     inkscape:cy="116.32773"
     inkscape:window-x="0"
     inkscape:window-y="28"
     inkscape:window-maximized="1"
     inkscape:current-layer="svg42" />
  <path
     style="fill:#000000;fill-opacity:0;stroke:#ff0000;stroke-width:0.56779659;stroke-miterlimit:4;stroke-dasharray:none;stroke-opacity:1"
     d="M 39.668266,229.18625 C 25.662795,223.07176 19.215886,217.94189 11.097181,206.45196 1.2445243,192.50807 -2.4656497,172.1689 2.4603193,159.10471 c 2.266873,-6.01199 9.1870187,-13.94452 15.2137627,-17.43946 1.767261,-1.02484 1.851975,-2.2431 0.868621,-12.49152 C 17.196243,115.14105 14.480369,78.767137 12.141094,43.43644 11.16928,28.758898 10.068006,13.045127 9.6938163,8.5169493 L 9.0134713,0.28389829 H 62.621506 116.22953 L 115.51817,11.355932 c -0.39126,6.089618 -1.69977,23.336441 -2.90779,38.326271 -3.20083,39.717618 -5.43312,71.364027 -5.78312,81.985297 l -0.30669,9.30733 5.20695,3.97582 c 7.76012,5.92529 11.99285,13.00428 12.91297,21.59617 1.88018,17.55678 -4.88475,35.53733 -18.40879,48.92895 -13.064734,12.9368 -24.901604,17.61155 -44.541554,17.59087 -12.47003,-0.0131 -13.63325,-0.2181 -22.02188,-3.88039 z m 38.95586,-23.93095 c 9.99463,-5.16834 16.76392,-13.12158 19.74526,-23.1987 4.163314,-14.07228 1.722754,-18.24728 -10.66672,-18.24728 -7.92376,0 -7.94903,-0.0102 -7.91193,-3.12288 0.0758,-6.3578 2.15249,-37.84596 3.87582,-58.76695 3.67024,-44.556028 5.15692,-64.906632 5.1642,-70.690677 l 0.008,-5.961864 h -26.05212 c -14.32839,0 -26.26606,0.383263 -26.52815,0.851695 -0.26208,0.468432 0.19074,8.516949 1.00627,17.885593 0.81554,9.368644 2.0445,26.74322 2.73103,38.610169 0.68653,11.866945 2.24459,34.096184 3.46236,49.398304 1.21776,15.30212 2.21715,28.71631 2.22085,29.80932 0.006,1.7129 -1.14496,1.98729 -8.33422,1.98729 -8.534892,0 -10.714248,1.0149 -12.384646,5.76737 -1.032525,2.93765 1.236655,12.55042 4.477626,18.96824 3.5861,7.10126 12.47685,15.11334 19.68593,17.74039 6.82973,2.4888 23.84451,1.89473 29.50044,-1.03002 z"
     id="path5350"
     inkscape:connector-curvature="0" />
</svg>
