<?xml version="1.0" encoding="UTF-8" standalone="no"?>
<!-- Created with Inkscape (http://www.inkscape.org/) -->

<svg
   xmlns:dc="http://purl.org/dc/elements/1.1/"
   xmlns:cc="http://creativecommons.org/ns#"
   xmlns:rdf="http://www.w3.org/1999/02/22-rdf-syntax-ns#"
   xmlns:svg="http://www.w3.org/2000/svg"
   xmlns="http://www.w3.org/2000/svg"
   xmlns:sodipodi="http://sodipodi.sourceforge.net/DTD/sodipodi-0.dtd"
   xmlns:inkscape="http://www.inkscape.org/namespaces/inkscape"
   version="1.1"
   id="svg2"
   width="65.088028mm"
   height="61.515881mm"
   viewBox="0 0 246.002 232.50097"
   sodipodi:docname="esoterica-star_and_crescent.svg"
   inkscape:version="0.92.5 (2060ec1f9f, 2020-04-08)">
  <metadata
     id="metadata8">
    <rdf:RDF>
      <cc:Work
         rdf:about="">
        <dc:format>image/svg+xml</dc:format>
        <dc:type
           rdf:resource="http://purl.org/dc/dcmitype/StillImage" />
        <dc:title></dc:title>
      </cc:Work>
    </rdf:RDF>
  </metadata>
  <defs
     id="defs6" />
  <sodipodi:namedview
     pagecolor="#ffffff"
     bordercolor="#666666"
     borderopacity="1"
     objecttolerance="10"
     gridtolerance="10"
     guidetolerance="10"
     inkscape:pageopacity="0"
     inkscape:pageshadow="2"
     inkscape:window-width="1920"
     inkscape:window-height="997"
     id="namedview4"
     showgrid="false"
     units="mm"
     fit-margin-top="0"
     fit-margin-left="0"
     fit-margin-right="0"
     fit-margin-bottom="0"
     inkscape:zoom="0.88059701"
     inkscape:cx="124.79763"
     inkscape:cy="115.98661"
     inkscape:window-x="0"
     inkscape:window-y="28"
     inkscape:window-maximized="1"
     inkscape:current-layer="svg2" />
  <path
     style="fill:#000000;fill-opacity:0;stroke:#ff0000;stroke-width:0.56779659;stroke-miterlimit:4;stroke-dasharray:none;stroke-opacity:1"
     d="m 116.05349,0.28389829 c -9.5209,0 -19.040909,0.92538201 -26.685547,2.77539101 C 48.936423,12.843758 17.832094,41.644433 4.6120838,81.537805 l -4.32812488,13.060542 0.029297,22.142583 0.029297,22.14453 4.28515588,12.49219 c 7.1450472,20.82669 16.0972492,35.20692 30.4238282,48.8711 16.613273,15.84511 31.404279,23.81589 57.722654,31.10546 2.18602,0.60547 13.427759,0.97915 24.982419,0.83008 20.37026,-0.2628 21.35429,-0.38573 32.36524,-4.02344 9.82231,-3.24502 30.95484,-13.35254 29.89258,-14.29687 -0.20234,-0.17988 -4.45652,0.35239 -9.45313,1.18164 -12.09565,2.00745 -19.82905,1.97894 -31.83789,-0.11523 -29.81589,-5.19945 -54.842141,-27.41972 -65.285154,-57.96875 -3.594045,-10.51369 -3.850461,-12.24381 -3.869141,-26.02539 -0.01903,-14.0403 0.178231,-15.33015 4.041016,-26.35157 5.565858,-15.880683 10.091271,-23.093612 21.67188,-34.550782 7.647509,-7.566 12.203409,-10.988291 19.974599,-15.001953 32.58784,-16.830958 72.07109,-11.544323 98.11719,13.138672 4.79204,4.541262 10.08843,10.300523 11.77149,12.798828 2.92288,4.338682 3.02532,4.390722 2.26367,1.136719 -1.575,-6.728737 -9.71823,-23.475054 -15.44141,-31.753906 C 205.26083,40.650637 190.70334,26.275542 180.78201,19.555383 170.987,12.920799 155.20099,6.0750923 142.73904,3.0592893 135.09441,1.2092803 125.57439,0.28389829 116.05349,0.28389829 Z M 113.49685,24.633508 c 4.55861,0.09892 4.66541,1.742996 -3.72852,5.169921 -8.99476,3.672224 -21.217674,11.844512 -30.082027,20.113282 -15.552063,14.507141 -26.153144,32.364697 -31.917969,53.765629 -2.635151,9.78254 -3.058594,13.55834 -3.058594,27.25391 0,13.66839 0.427502,17.49076 3.046875,27.2539 1.675688,6.24576 4.824549,15.0057 6.998047,19.46484 2.173498,4.45914 3.951172,8.41947 3.951172,8.80079 0,1.80582 -2.292914,0.16015 -8.138672,-5.83789 C 38.035271,167.75954 28.987572,150.52391 26.110131,134.02804 24.053366,122.23696 24.664517,102.55742 27.399193,92.510457 34.778404,65.399896 56.753662,41.001433 82.432397,31.408898 94.414251,26.932961 107.63578,24.506327 113.49685,24.633508 Z m 101.35351,88.544922 -10.00781,12.63282 c -5.50377,6.94778 -10.72539,12.90718 -11.60351,13.24414 -0.87812,0.33697 -8.41308,-1.73573 -16.7461,-4.60547 -8.33302,-2.86973 -15.58347,-5.2168 -16.11133,-5.2168 -0.52786,0 -0.16888,0.89332 0.79688,1.98633 3.08992,3.49702 16.76562,25.6343 16.76562,27.13867 0,0.79752 -4.32068,7.19831 -9.60156,14.22461 -5.28088,7.0263 -9.43533,12.94161 -9.23047,13.14648 0.36829,0.36829 6.51329,-1.09754 23.69336,-5.65625 10.29707,-2.73231 7.74961,-4.43277 20.35157,13.58985 4.47033,6.39322 8.26714,11.4848 8.4375,11.31445 0.17035,-0.17036 0.83267,-7.66349 1.4707,-16.65039 0.7316,-10.30475 1.66089,-16.65022 2.51758,-17.17969 0.74712,-0.46175 4.97711,-1.91608 9.39843,-3.23242 23.30414,-6.93826 23.71629,-7.17292 16.92969,-9.62695 -3.01608,-1.09062 -10.1987,-3.85347 -15.96094,-6.14063 l -10.47656,-4.1582 -0.3125,-17.40625 z"
     id="path5437"
     inkscape:connector-curvature="0" />
</svg>
