<?xml version="1.0" encoding="UTF-8" standalone="no"?>
<!-- Created with Inkscape (http://www.inkscape.org/) -->

<svg
   xmlns:dc="http://purl.org/dc/elements/1.1/"
   xmlns:cc="http://creativecommons.org/ns#"
   xmlns:rdf="http://www.w3.org/1999/02/22-rdf-syntax-ns#"
   xmlns:svg="http://www.w3.org/2000/svg"
   xmlns="http://www.w3.org/2000/svg"
   xmlns:sodipodi="http://sodipodi.sourceforge.net/DTD/sodipodi-0.dtd"
   xmlns:inkscape="http://www.inkscape.org/namespaces/inkscape"
   version="1.1"
   id="svg32"
   width="61.534mm"
   height="61.479912mm"
   viewBox="0 0 232.56945 232.36502"
   sodipodi:docname="esoterica-grinders_church.svg"
   inkscape:version="0.92.5 (2060ec1f9f, 2020-04-08)">
  <metadata
     id="metadata38">
    <rdf:RDF>
      <cc:Work
         rdf:about="">
        <dc:format>image/svg+xml</dc:format>
        <dc:type
           rdf:resource="http://purl.org/dc/dcmitype/StillImage" />
        <dc:title></dc:title>
      </cc:Work>
    </rdf:RDF>
  </metadata>
  <defs
     id="defs36" />
  <sodipodi:namedview
     pagecolor="#ffffff"
     bordercolor="#666666"
     borderopacity="1"
     objecttolerance="10"
     gridtolerance="10"
     guidetolerance="10"
     inkscape:pageopacity="0"
     inkscape:pageshadow="2"
     inkscape:window-width="1920"
     inkscape:window-height="997"
     id="namedview34"
     showgrid="false"
     units="mm"
     fit-margin-top="0"
     fit-margin-left="0"
     fit-margin-right="0"
     fit-margin-bottom="0"
     inkscape:zoom="0.88059701"
     inkscape:cx="116.25125"
     inkscape:cy="116.00577"
     inkscape:window-x="0"
     inkscape:window-y="28"
     inkscape:window-maximized="1"
     inkscape:current-layer="svg32" />
  <path
     style="fill:#000000;fill-opacity:0;stroke:#ff0000;stroke-width:0.56779659;stroke-miterlimit:4;stroke-dasharray:none;stroke-opacity:1"
     d="m 55.837192,70.595581 v 12.207032 12.20703 h 60.753898 60.75586 V 83.105343 71.20105 l -60.75586,-0.302735 z m 0,33.499999 v 12.49023 12.49219 h 60.753898 60.75586 v -12.49219 -12.49023 h -60.75586 z m 0,34.0664 v 11.92383 11.92383 h 60.753898 60.75586 v -11.92383 -11.92383 h -60.75586 z"
     id="path5974"
     inkscape:connector-curvature="0" />
  <path
     style="fill:#000000;fill-opacity:0;stroke:#ff0000;stroke-width:0.56779659;stroke-miterlimit:4;stroke-dasharray:none;stroke-opacity:1"
     d="M 93.312274,231.20745 C 66.363406,223.68359 51.269285,215.53409 34.977719,199.71193 21.0333,186.16929 11.592636,170.91057 5.150777,151.50335 1.067367,139.20137 0.89358104,138.02804 0.43725704,119.67969 0.05077304,104.13959 0.33313304,99.117223 1.969501,92.425453 13.114633,46.84855 43.951643,14.864418 87.808824,3.3929536 97.924154,0.74714758 101.84785,0.31498958 116.02413,0.28531358 c 14.23,-0.02979 18.13783,0.385738 28.77626,3.05982602 41.17409,10.3495634 74.11447,43.3662334 84.53137,84.7271334 2.65152,10.52806 3.02301,14.196937 2.94462,29.081897 -0.10289,19.53692 -2.66148,31.89393 -9.80318,47.34564 -14.07367,30.44967 -37.6625,51.45509 -70.67788,62.93737 l -12.49153,4.34438 -21.00847,0.26777 c -11.55466,0.14728 -22.797036,-0.23157 -24.983046,-0.84188 z m 48.701496,-26.59546 c 8.92346,-2.77258 21.14421,-8.97321 28.23178,-14.32437 8.01358,-6.05031 19.21571,-17.53837 22.03708,-22.59956 1.21861,-2.18601 3.45175,-6.01864 4.96255,-8.51695 1.51079,-2.4983 4.39687,-9.39703 6.41349,-15.3305 3.44985,-10.15041 3.66996,-11.76151 3.72365,-27.25424 0.0549,-15.83508 -0.0914,-16.901287 -3.81769,-27.822037 C 198.23153,73.134332 192.18117,63.377209 180.70724,51.903269 161.34251,32.538548 137.96829,23.483989 110.99131,24.897154 89.026694,26.04775 68.120628,35.339915 52.563678,50.866614 41.042081,62.365809 32.313589,76.56319 27.826299,91.103343 c -2.814222,9.118927 -2.931193,41.273677 -0.181515,49.898277 11.034369,34.61025 38.592611,59.61095 72.481046,65.75443 6.68589,1.21206 35.89894,-0.28323 41.88794,-2.14406 z"
     id="path5982"
     inkscape:connector-curvature="0" />
</svg>
