<?xml version="1.0" encoding="UTF-8" standalone="no"?>
<svg
   xmlns:dc="http://purl.org/dc/elements/1.1/"
   xmlns:cc="http://creativecommons.org/ns#"
   xmlns:rdf="http://www.w3.org/1999/02/22-rdf-syntax-ns#"
   xmlns:svg="http://www.w3.org/2000/svg"
   xmlns="http://www.w3.org/2000/svg"
   viewBox="0 0 233.32091 232.94005"
   height="61.632053mm"
   width="61.732822mm"
   id="svg72"
   version="1.1">
  <metadata
     id="metadata78">
    <rdf:RDF>
      <cc:Work
         rdf:about="">
        <dc:format>image/svg+xml</dc:format>
        <dc:type
           rdf:resource="http://purl.org/dc/dcmitype/StillImage" />
        <dc:title></dc:title>
      </cc:Work>
    </rdf:RDF>
  </metadata>
  <defs
     id="defs76" />
  <path
     id="path5241"
     d="m 39.285446,231.34627 c -9.6913,-3.68506 -16.67719,-8.20634 -23.73088,-15.35868 -6.2495204,-6.33692 -8.2431004,-9.3428 -11.4234304,-17.22402 -3.48884997,-8.6458 -3.85215997,-10.61982 -3.84718997,-20.90334 0.005,-10.10753 0.40728,-12.37339 3.66033997,-20.61108 5.09505,-12.90214 15.1143804,-23.49484 27.9925604,-29.59449 9.06511,-4.29361 9.11667,-4.30291 23.84746,-4.30291 14.48732,0 14.89629,0.0697 21.92294,3.73871 l 7.16022,3.73871 22.626804,-22.68005 22.6268,-22.68005 -3.66838,-7.745102 c -3.53116,-7.455396 -3.66838,-8.281139 -3.66838,-22.075941 V 41.317183 l 5.00134,-9.863657 c 8.15379,-16.080948 20.96757,-25.947377 38.53381,-29.670493 9.45764,-2.004523 12.48901,-2.004523 21.94665,0 17.19738,3.644938 30.70832,13.872797 38.26198,28.964559 8.43748,16.857566 8.67145,31.978628 0.75281,48.653035 -4.86663,10.247743 -9.96511,16.196873 -19.43815,22.681333 -7.92011,5.42146 -20.76573,9.35739 -30.44771,9.32928 -7.30126,-0.0212 -18.65106,-2.66834 -24.72364,-5.76635 l -4.67702,-2.38603 -22.73137,22.73137 -22.73138,22.73138 1.97151,3.0089 c 8.96879,13.6881 7.92703,39.44285 -2.25122,55.65514 -6.141734,9.78277 -12.462534,15.25271 -23.980764,20.75259 -8.47357,4.04607 -9.42893,4.24138 -21.91905,4.48112 -8.73841,0.16773 -14.38522,-0.2535 -17.06666,-1.27309 z m 25.63912,-24.66086 c 6.10042,-1.5361 14.0276,-8.22136 17.6751,-14.90601 2.13152,-3.90635 2.64107,-6.57845 2.65434,-13.91917 0.0197,-10.90777 -2.26531,-16.08918 -10.16003,-23.03839 -12.05394,-10.6103 -33.45536,-8.91406 -42.81111,3.39313 -9.37081,12.327 -10.04566,24.25077 -2.05527,36.31405 7.49232,11.31134 20.27172,15.78871 34.69697,12.15639 z M 191.87768,82.51457 c 6.27084,-3.674958 12.88574,-11.325438 14.42103,-16.678676 2.09184,-7.293821 1.32316,-17.081844 -1.83998,-23.429439 -5.35234,-10.740753 -14.95416,-16.634297 -27.16594,-16.674321 -6.71024,-0.022 -8.89704,0.497768 -14.03088,3.334872 -10.39628,5.745258 -16.06234,15.190782 -16.06234,26.776467 0,13.200766 7.98189,24.320358 21.00847,29.266947 5.90338,2.2417 17.60476,0.95841 23.66964,-2.59585 z"
     style="fill:#ffff00;fill-opacity:0.01829266;stroke:#ff0000;stroke-width:0.56779659;stroke-miterlimit:4;stroke-dasharray:none;stroke-opacity:1" />
</svg>
