<?xml version="1.0" encoding="UTF-8" standalone="no"?>
<!-- Created with Inkscape (http://www.inkscape.org/) -->

<svg
   xmlns:dc="http://purl.org/dc/elements/1.1/"
   xmlns:cc="http://creativecommons.org/ns#"
   xmlns:rdf="http://www.w3.org/1999/02/22-rdf-syntax-ns#"
   xmlns:svg="http://www.w3.org/2000/svg"
   xmlns="http://www.w3.org/2000/svg"
   xmlns:sodipodi="http://sodipodi.sourceforge.net/DTD/sodipodi-0.dtd"
   xmlns:inkscape="http://www.inkscape.org/namespaces/inkscape"
   version="1.1"
   id="svg2"
   width="61.42881mm"
   height="61.918911mm"
   viewBox="0 0 232.17188 234.02423"
   sodipodi:docname="esoterica-No.svg"
   inkscape:version="0.92.5 (2060ec1f9f, 2020-04-08)">
  <metadata
     id="metadata8">
    <rdf:RDF>
      <cc:Work
         rdf:about="">
        <dc:format>image/svg+xml</dc:format>
        <dc:type
           rdf:resource="http://purl.org/dc/dcmitype/StillImage" />
        <dc:title></dc:title>
      </cc:Work>
    </rdf:RDF>
  </metadata>
  <defs
     id="defs6" />
  <sodipodi:namedview
     pagecolor="#ffffff"
     bordercolor="#666666"
     borderopacity="1"
     objecttolerance="10"
     gridtolerance="10"
     guidetolerance="10"
     inkscape:pageopacity="0"
     inkscape:pageshadow="2"
     inkscape:window-width="1920"
     inkscape:window-height="997"
     id="namedview4"
     showgrid="false"
     units="mm"
     fit-margin-top="0"
     fit-margin-left="0"
     fit-margin-right="0"
     fit-margin-bottom="0"
     inkscape:zoom="0.88059701"
     inkscape:cx="115.77381"
     inkscape:cy="116.25413"
     inkscape:window-x="0"
     inkscape:window-y="28"
     inkscape:window-maximized="1"
     inkscape:current-layer="svg2" />
  <path
     style="fill:#000000;fill-opacity:0;stroke:#ff0000;stroke-width:0.56779659;stroke-miterlimit:4;stroke-dasharray:none;stroke-opacity:1"
     d="M 95.585732,232.14532 C 74.387611,227.53246 57.707093,219.74367 42.300931,207.26454 34.00462,200.54447 30.507421,196.98214 21.917636,186.50171 16.586057,179.99662 8.5666971,164.20883 4.4256211,152.06502 L 0.35959512,140.14129 0.32178512,117.42942 0.28397512,94.717563 4.0757321,83.361628 C 19.709716,36.539422 56.232452,6.638708 104.78444,0.91265698 c 13.21587,-1.558635 27.42647,-0.219029 42.5674,4.01274602 40.5052,11.320899 72.05247,44.167553 81.87736,85.24978 2.21902,9.27868 2.70477,14.264087 2.65551,27.254237 -0.0722,19.04038 -2.75534,31.94963 -9.91319,47.69492 -19.0314,41.86382 -61.16609,68.93735 -106.78297,68.61311 -6.98565,-0.0496 -15.806918,-0.76611 -19.602818,-1.59213 z m 43.254838,-26.19105 c 7.65285,-1.9933 26.63971,-10.97053 29.21029,-13.81098 1.84349,-2.03705 -0.70081,-4.7483 -61.57494,-65.61515 C 43.049338,63.109143 42.975345,63.040254 40.597323,65.192334 37.881652,67.649983 29.960871,83.552852 27.445738,91.597293 c -2.367903,7.57355 -3.344051,31.822477 -1.702726,42.298227 1.646505,10.50883 7.878504,25.49367 14.53344,34.94568 15.454462,21.94999 39.477565,36.47513 65.049898,39.3313 6.93454,0.77452 27.16515,-0.5645 33.51422,-2.21823 z m 53.71263,-38.84264 c 1.88633,-2.96674 4.56947,-7.94916 5.96251,-11.07204 7.40743,-16.60576 8.45418,-21.56404 8.39085,-39.74576 -0.0514,-14.75567 -0.31051,-16.645437 -3.60528,-26.293807 -4.12929,-12.092147 -5.82575,-15.586834 -11.97685,-24.67207 -15.56496,-22.989646 -42.5456,-38.26027 -70.66757,-39.996765 -17.7803,-1.097911 -38.521588,4.469409 -53.914668,14.471629 l -7.140742,4.63996 64.02393,64.031453 c 35.21317,35.21731 64.35564,64.03146 64.76103,64.03146 0.4054,0 2.28044,-2.42733 4.16679,-5.39406 z"
     id="path6565"
     inkscape:connector-curvature="0" />
</svg>
