<?xml version="1.0" encoding="UTF-8" standalone="no"?>
<!-- Created with Inkscape (http://www.inkscape.org/) -->

<svg
   xmlns:dc="http://purl.org/dc/elements/1.1/"
   xmlns:cc="http://creativecommons.org/ns#"
   xmlns:rdf="http://www.w3.org/1999/02/22-rdf-syntax-ns#"
   xmlns:svg="http://www.w3.org/2000/svg"
   xmlns="http://www.w3.org/2000/svg"
   xmlns:sodipodi="http://sodipodi.sourceforge.net/DTD/sodipodi-0.dtd"
   xmlns:inkscape="http://www.inkscape.org/namespaces/inkscape"
   version="1.1"
   id="svg72"
   width="41.245281mm"
   height="51.007015mm"
   viewBox="0 0 155.88768 192.78242"
   sodipodi:docname="hermetica-sugar.svg"
   inkscape:version="0.92.5 (2060ec1f9f, 2020-04-08)">
  <metadata
     id="metadata78">
    <rdf:RDF>
      <cc:Work
         rdf:about="">
        <dc:format>image/svg+xml</dc:format>
        <dc:type
           rdf:resource="http://purl.org/dc/dcmitype/StillImage" />
        <dc:title></dc:title>
      </cc:Work>
    </rdf:RDF>
  </metadata>
  <defs
     id="defs76" />
  <sodipodi:namedview
     pagecolor="#ffffff"
     bordercolor="#666666"
     borderopacity="1"
     objecttolerance="10"
     gridtolerance="10"
     guidetolerance="10"
     inkscape:pageopacity="0"
     inkscape:pageshadow="2"
     inkscape:window-width="1920"
     inkscape:window-height="997"
     id="namedview74"
     showgrid="false"
     units="mm"
     fit-margin-top="0"
     fit-margin-left="0"
     fit-margin-right="0"
     fit-margin-bottom="0"
     inkscape:zoom="0.88059701"
     inkscape:cx="77.813343"
     inkscape:cy="95.90085"
     inkscape:window-x="0"
     inkscape:window-y="28"
     inkscape:window-maximized="1"
     inkscape:current-layer="svg72" />
  <path
     style="fill:#ff0000;fill-opacity:0.01829266;stroke:#ff0000;stroke-width:0.56779659;stroke-miterlimit:4;stroke-dasharray:none;stroke-opacity:1"
     d="m 1.501479,191.80316 c 0,-0.38246 3.152076,-6.1314 7.004615,-12.77542 3.852538,-6.64403 8.834953,-15.28282 11.072033,-19.1973 2.23708,-3.91447 9.049835,-15.75859 15.139453,-26.32027 6.089619,-10.56166 11.072033,-19.8018 11.072033,-20.53363 0,-0.73183 -1.86596,-4.47372 -4.146589,-8.31532 -2.280624,-3.8416 -5.669362,-9.539815 -7.530528,-12.662695 -1.861165,-3.12288 -4.901749,-8.48856 -6.756854,-11.92373 -1.855104,-3.43517 -4.087553,-7.05253 -4.960998,-8.03857 -0.873444,-0.98604 -1.588081,-2.14027 -1.588081,-2.56494 0,-0.42468 -2.892326,-5.75012 -6.427391,-11.834316 C 10.844105,51.552774 6.272701,43.636448 4.220495,40.045134 L 0.48921097,33.515473 H 47.478143 94.467073 l 0.80547,-2.537817 c 1.01777,-3.20671 8.282467,-12.990535 12.559127,-16.914181 7.8497,-7.2017296 17.41899,-11.6098456 28.10007,-12.9443586 l 6.38329,-0.79754002 V 12.943949 c 0,12.329518 -0.0593,12.62263 -2.55508,12.633465 -3.76593,0.01635 -14.74735,5.429077 -14.2206,7.009319 0.24878,0.746347 3.07976,1.948743 6.29105,2.671988 14.73782,3.319243 25.70483,19.856907 23.48683,35.416864 -0.4253,2.98355 -2.27088,8.08327 -4.10131,11.33271 -5.93996,10.54483 -15.82692,16.23599 -28.20597,16.23599 -18.30335,0 -30.963467,-12.33357 -32.591327,-31.75068 l -0.67028,-7.995081 h -22.66866 c -20.72884,0 -22.60624,0.162641 -21.93932,1.900618 0.69341,1.806994 3.11003,6.059833 22.04119,38.788683 l 8.09959,14.002865 -3.27848,5.87002 c -4.16752,7.46184 -9.01703,15.92255 -19.21457,33.52277 -4.46954,7.71411 -7.84248,14.48509 -7.49544,15.04661 0.34942,0.56537 14.9894,1.02098 32.80689,1.02098 36.194717,0 33.554477,0.72215 33.554477,-9.17762 v -5.58509 h 11.92373 11.92373 v 19.30508 19.30509 H 68.501483 c -36.850004,0 -67.000004,-0.31291 -67.000004,-0.69537 z M 125.63565,73.342325 c 3.26178,-1.24012 5.39805,-6.42921 4.09592,-9.94918 -1.25236,-3.385472 -4.86609,-5.093748 -9.89258,-4.676406 -3.69313,0.306635 -4.25617,0.750095 -4.58296,3.609676 -0.58981,5.16094 0.72195,8.47205 4.07768,10.29285 3.79687,2.06017 3.01964,1.97099 6.30194,0.72306 z"
     id="path5262"
     inkscape:connector-curvature="0" />
</svg>
