<?xml version="1.0" encoding="UTF-8" standalone="no"?>
<!-- Created with Inkscape (http://www.inkscape.org/) -->

<svg
   xmlns:dc="http://purl.org/dc/elements/1.1/"
   xmlns:cc="http://creativecommons.org/ns#"
   xmlns:rdf="http://www.w3.org/1999/02/22-rdf-syntax-ns#"
   xmlns:svg="http://www.w3.org/2000/svg"
   xmlns="http://www.w3.org/2000/svg"
   xmlns:sodipodi="http://sodipodi.sourceforge.net/DTD/sodipodi-0.dtd"
   xmlns:inkscape="http://www.inkscape.org/namespaces/inkscape"
   version="1.1"
   id="svg72"
   width="42.214497mm"
   height="63.547089mm"
   viewBox="0 0 159.55085 240.17797"
   sodipodi:docname="hermetica-salem_cross.svg"
   inkscape:version="0.92.5 (2060ec1f9f, 2020-04-08)">
  <metadata
     id="metadata78">
    <rdf:RDF>
      <cc:Work
         rdf:about="">
        <dc:format>image/svg+xml</dc:format>
        <dc:type
           rdf:resource="http://purl.org/dc/dcmitype/StillImage" />
        <dc:title></dc:title>
      </cc:Work>
    </rdf:RDF>
  </metadata>
  <defs
     id="defs76" />
  <sodipodi:namedview
     pagecolor="#ffffff"
     bordercolor="#666666"
     borderopacity="1"
     objecttolerance="10"
     gridtolerance="10"
     guidetolerance="10"
     inkscape:pageopacity="0"
     inkscape:pageshadow="2"
     inkscape:window-width="1920"
     inkscape:window-height="997"
     id="namedview74"
     showgrid="false"
     units="mm"
     fit-margin-top="0"
     fit-margin-left="0"
     fit-margin-right="0"
     fit-margin-bottom="0"
     inkscape:zoom="0.88059701"
     inkscape:cx="80.002542"
     inkscape:cy="119.74831"
     inkscape:window-x="0"
     inkscape:window-y="28"
     inkscape:window-maximized="1"
     inkscape:current-layer="svg72" />
  <path
     style="fill:#ff0000;fill-opacity:0.01829266;stroke:#ff0000;stroke-width:0.56779659;stroke-miterlimit:4;stroke-dasharray:none;stroke-opacity:1"
     d="M 67.283902,223.42797 V 206.96186 H 44.004237 20.724576 v -11.90021 -11.90022 l 22.995763,-0.3074 22.995763,-0.30742 0.30604,-24.69915 0.30605,-24.69916 H 33.806044 0.28389829 V 120.65678 108.16525 H 33.783898 67.283902 V 83.182203 58.199153 H 44.004237 20.724576 V 45.707627 33.216102 H 44.004237 67.283902 V 16.75 0.28389829 h 12.49152 12.49153 V 16.75 33.216102 h 23.847448 23.84746 v 12.468486 12.468486 l -23.56356,0.306938 -23.563558,0.306937 -0.30604,24.699153 -0.30605,24.699148 h 33.522148 33.52215 v 12.49153 12.49152 H 125.7448 92.222652 l 0.30605,24.69916 0.30604,24.69915 23.563558,0.30694 23.56356,0.30694 v 11.87764 11.87765 l -23.56356,0.30694 -23.563558,0.30694 -0.31507,16.1822 -0.31508,16.18221 h -12.46035 -12.46034 z"
     id="path5304"
     inkscape:connector-curvature="0" />
</svg>
