<?xml version="1.0" encoding="UTF-8" standalone="no"?>
<!-- Created with Inkscape (http://www.inkscape.org/) -->

<svg
   xmlns:dc="http://purl.org/dc/elements/1.1/"
   xmlns:cc="http://creativecommons.org/ns#"
   xmlns:rdf="http://www.w3.org/1999/02/22-rdf-syntax-ns#"
   xmlns:svg="http://www.w3.org/2000/svg"
   xmlns="http://www.w3.org/2000/svg"
   xmlns:sodipodi="http://sodipodi.sourceforge.net/DTD/sodipodi-0.dtd"
   xmlns:inkscape="http://www.inkscape.org/namespaces/inkscape"
   version="1.1"
   id="svg32"
   width="42.214497mm"
   height="63.318165mm"
   viewBox="0 0 159.55085 239.31275"
   sodipodi:docname="hermetica-shepherds_hook.svg"
   inkscape:version="0.92.5 (2060ec1f9f, 2020-04-08)">
  <metadata
     id="metadata38">
    <rdf:RDF>
      <cc:Work
         rdf:about="">
        <dc:format>image/svg+xml</dc:format>
        <dc:type
           rdf:resource="http://purl.org/dc/dcmitype/StillImage" />
        <dc:title></dc:title>
      </cc:Work>
    </rdf:RDF>
  </metadata>
  <defs
     id="defs36" />
  <sodipodi:namedview
     pagecolor="#ffffff"
     bordercolor="#666666"
     borderopacity="1"
     objecttolerance="10"
     gridtolerance="10"
     guidetolerance="10"
     inkscape:pageopacity="0"
     inkscape:pageshadow="2"
     inkscape:window-width="1920"
     inkscape:window-height="997"
     id="namedview34"
     showgrid="false"
     units="mm"
     fit-margin-top="0"
     fit-margin-left="0"
     fit-margin-right="0"
     fit-margin-bottom="0"
     inkscape:zoom="0.88059701"
     inkscape:cx="80.002542"
     inkscape:cy="119.74831"
     inkscape:window-x="0"
     inkscape:window-y="28"
     inkscape:window-maximized="1"
     inkscape:current-layer="svg32" />
  <path
     style="fill:#ff0000;fill-opacity:0.01829266;stroke:#ff0000;stroke-width:0.56779659;stroke-miterlimit:4;stroke-dasharray:none;stroke-opacity:1"
     d="M 67.283902,173.73225 V 108.43564 H 33.783898 0.28389829 V 95.944107 83.452583 H 32.648305 c 21.839997,0 32.364407,-0.387616 32.364407,-1.191987 0,-2.376532 -3.74954,-8.346617 -10.21824,-16.269654 -7.65022,-9.370204 -10.267896,-16.57259 -10.134425,-27.884301 0.176147,-14.928653 7.143945,-26.284459 20.581105,-33.5421747 7.43524,-4.01594601 8.53651,-4.28056801 17.81425,-4.28056801 8.49551,0 10.74274,0.432584 15.94687,3.06971501 8.919168,4.51969 16.283238,11.9537597 20.023868,20.2142417 2.56792,5.670733 3.30213,9.170077 3.68932,17.58388 l 0.48341,10.504237 H 110.69213 98.185402 l -0.41706,-9.183844 c -0.40589,-8.937855 -0.53033,-9.287649 -4.64594,-13.059322 -3.61848,-3.316084 -5.03828,-3.875478 -9.83639,-3.875478 -6.7141,0 -11.71119,3.532686 -13.75439,9.72363 -1.77572,5.380504 -0.25445,9.340504 6.66506,17.349638 6.19081,7.16569 11.88752,17.669866 13.885,25.602576 l 1.3193,5.239411 h 33.932978 33.93299 v 12.491524 12.491533 h -33.5 -33.499998 v 65.29661 65.29661 h -12.49153 -12.49152 z"
     id="path5442"
     inkscape:connector-curvature="0" />
</svg>
