<?xml version="1.0" encoding="UTF-8" standalone="no"?>
<!-- Created with Inkscape (http://www.inkscape.org/) -->

<svg
   xmlns:dc="http://purl.org/dc/elements/1.1/"
   xmlns:cc="http://creativecommons.org/ns#"
   xmlns:rdf="http://www.w3.org/1999/02/22-rdf-syntax-ns#"
   xmlns:svg="http://www.w3.org/2000/svg"
   xmlns="http://www.w3.org/2000/svg"
   xmlns:sodipodi="http://sodipodi.sourceforge.net/DTD/sodipodi-0.dtd"
   xmlns:inkscape="http://www.inkscape.org/namespaces/inkscape"
   version="1.1"
   id="svg102"
   width="56.646759mm"
   height="61.443874mm"
   viewBox="0 0 214.09799 232.22882"
   sodipodi:docname="esoterica-transgender.svg"
   inkscape:version="0.92.5 (2060ec1f9f, 2020-04-08)">
  <metadata
     id="metadata108">
    <rdf:RDF>
      <cc:Work
         rdf:about="">
        <dc:format>image/svg+xml</dc:format>
        <dc:type
           rdf:resource="http://purl.org/dc/dcmitype/StillImage" />
        <dc:title></dc:title>
      </cc:Work>
    </rdf:RDF>
  </metadata>
  <defs
     id="defs106" />
  <sodipodi:namedview
     pagecolor="#ffffff"
     bordercolor="#666666"
     borderopacity="1"
     objecttolerance="10"
     gridtolerance="10"
     guidetolerance="10"
     inkscape:pageopacity="0"
     inkscape:pageshadow="2"
     inkscape:window-width="1920"
     inkscape:window-height="997"
     id="namedview104"
     showgrid="false"
     units="mm"
     fit-margin-top="0"
     fit-margin-left="0"
     fit-margin-right="0"
     fit-margin-bottom="0"
     inkscape:zoom="0.88059701"
     inkscape:cx="-75.346611"
     inkscape:cy="116.34153"
     inkscape:window-x="0"
     inkscape:window-y="28"
     inkscape:window-maximized="1"
     inkscape:current-layer="svg102" />
  <path
     style="fill:#000000;fill-opacity:0;stroke:#ff0000;stroke-width:0.56779659;stroke-miterlimit:4;stroke-dasharray:none;stroke-opacity:1"
     d="m 94.538131,220.14269 c 0,-9.71453 -0.31774,-11.92416 -1.79626,-12.49153 -0.98795,-0.37912 -6.35363,-0.68929 -11.92373,-0.68929 H 70.690677 v -11.88401 -11.88399 l 11.639834,-0.32364 11.63983,-0.32362 0.3325,-8.17619 0.3325,-8.17619 -4.87488,-1.28606 c -14.00149,-3.69377 -30.79162,-17.68114 -36.92969,-30.76506 -4.394388,-9.36709 -5.652928,-13.67112 -6.433969,-22.00328 -0.985974,-10.51839 0.867517,-21.170522 5.312269,-30.529902 2.837733,-5.975459 3.644951,-8.820378 2.886993,-10.174771 -1.600238,-2.859468 -3.252756,-2.311452 -8.469959,2.808845 l -4.777659,4.688917 -8.75509,-8.75509 -8.755089,-8.75509 4.688916,-4.777658 c 2.578905,-2.627713 4.68009,-5.269334 4.669298,-5.870269 -0.02661,-1.482223 -5.10282,-6.202778 -6.670099,-6.202778 -0.692688,0 -1.259434,1.533051 -1.259434,3.406779 v 3.40678 H 12.775423 0.28389829 V 25.834746 0.28389829 H 26.402542 52.521186 V 12.861009 25.43812 l -3.122882,-0.205916 c -1.717584,-0.113253 -3.60175,-0.151767 -4.187035,-0.08559 -1.375399,0.155525 5.092812,6.93389 6.616619,6.93389 0.634133,0 2.84998,-1.644807 4.924104,-3.655127 l 3.771133,-3.655126 8.738902,8.738903 8.738904,8.738902 -3.65513,3.771134 c -4.106039,4.23636 -4.435752,5.576033 -1.891936,7.687213 1.474136,1.223428 2.996386,0.849575 9.285676,-2.280496 14.59199,-7.26219 34.473229,-7.243983 50.289159,0.04605 l 8.06857,3.719043 14.12721,-14.093294 c 7.76997,-7.751305 14.12721,-14.484219 14.12721,-14.962023 0,-0.477805 -4.08813,-0.868736 -9.08474,-0.868736 H 150.1822 V 12.775424 0.28389829 h 31.81458 31.81457 L 213.50949,31.79661 213.20763,63.309322 201,63.63164 188.79237,63.953956 v -9.056145 c 0,-5.435194 -0.50627,-9.369035 -1.26619,-9.838695 -0.73665,-0.455277 -7.24775,5.199012 -15.56885,13.520107 l -14.30265,14.302657 3.54283,7.13745 c 7.99807,16.113018 7.98042,36.67906 -0.0455,53.08081 -6.87584,14.05134 -24.76593,29.17258 -37.62623,31.80279 l -3.43675,0.70289 v 8.4704 8.47039 l 11.07204,0.32502 11.07203,0.32502 v 11.84149 11.84149 l -11.07203,0.32501 -11.07206,0.32502 -0.32231,12.20763 -0.32232,12.20763 H 106.99127 94.538161 Z m 23.747649,-79.868 c 8.95895,-2.76491 19.224,-13.02996 21.9889,-21.9889 4.01668,-13.01499 1.19736,-26.509672 -7.51255,-35.958802 -11.62606,-12.612787 -31.23736,-14.907137 -45.803509,-5.358602 -7.59485,4.978652 -12.41124,12.081992 -14.604494,21.539122 -2.993511,12.907772 0.237946,24.198772 9.548564,33.363542 9.55088,9.40127 23.048589,12.51893 36.383089,8.40364 z"
     id="path6347"
     inkscape:connector-curvature="0" />
</svg>
