<?xml version="1.0" encoding="UTF-8" standalone="no"?>
<!-- Created with Inkscape (http://www.inkscape.org/) -->

<svg
   xmlns:dc="http://purl.org/dc/elements/1.1/"
   xmlns:cc="http://creativecommons.org/ns#"
   xmlns:rdf="http://www.w3.org/1999/02/22-rdf-syntax-ns#"
   xmlns:svg="http://www.w3.org/2000/svg"
   xmlns="http://www.w3.org/2000/svg"
   xmlns:sodipodi="http://sodipodi.sourceforge.net/DTD/sodipodi-0.dtd"
   xmlns:inkscape="http://www.inkscape.org/namespaces/inkscape"
   version="1.1"
   id="svg72"
   width="54.926113mm"
   height="49.125134mm"
   viewBox="0 0 207.59476 185.6698"
   sodipodi:docname="esoterica-torii.svg"
   inkscape:version="0.92.5 (2060ec1f9f, 2020-04-08)">
  <metadata
     id="metadata78">
    <rdf:RDF>
      <cc:Work
         rdf:about="">
        <dc:format>image/svg+xml</dc:format>
        <dc:type
           rdf:resource="http://purl.org/dc/dcmitype/StillImage" />
        <dc:title></dc:title>
      </cc:Work>
    </rdf:RDF>
  </metadata>
  <defs
     id="defs76" />
  <sodipodi:namedview
     pagecolor="#ffffff"
     bordercolor="#666666"
     borderopacity="1"
     objecttolerance="10"
     gridtolerance="10"
     guidetolerance="10"
     inkscape:pageopacity="0"
     inkscape:pageshadow="2"
     inkscape:window-width="1920"
     inkscape:window-height="997"
     id="namedview74"
     showgrid="false"
     inkscape:zoom="0.88059701"
     inkscape:cx="103.847"
     inkscape:cy="92.49407"
     inkscape:window-x="0"
     inkscape:window-y="28"
     inkscape:window-maximized="1"
     inkscape:current-layer="svg72"
     units="mm"
     fit-margin-top="0"
     fit-margin-left="0"
     fit-margin-right="0"
     fit-margin-bottom="0" />
  <path
     style="fill:#000000;fill-opacity:0;stroke:#ff0000;stroke-width:0.56779659;stroke-miterlimit:4;stroke-dasharray:none;stroke-opacity:1"
     d="m 4.8232732,184.89618 c 0,-0.309 0.963488,-3.00805 2.141084,-5.99791 6.6466878,-16.87561 18.2995938,-77.943 18.2995938,-95.899537 v -4.3586 H 19.585985 13.908019 V 66.148603 53.657079 h 6.245763 6.245762 v -7.381356 -7.381356 h -6.245762 -6.245763 v -4.57578 c 0,-3.606602 -0.941135,-5.766405 -4.4433838,-10.197083 C 5.2243992,18.757205 2.3813412,12.005479 0.98116718,3.9748759 L 0.33768018,0.28419788 H 12.77918 c 12.156028,0 12.457063,0.062 13.11973,2.70228302 0.373027,1.486257 2.454968,4.424604 4.626535,6.529661 l 3.948306,3.8273781 68.356959,0.294367 c 67.18957,0.289339 68.42178,0.254602 72.15194,-2.034019 2.21927,-1.361621 4.57679,-4.1902141 5.67796,-6.8124781 l 1.883,-4.48409302 12.3658,-0.01155 12.36581,-0.01155 -0.68625,5.79430902 c -0.72366,6.1101601 -4.37608,13.3480831 -9.92476,19.6676811 -2.51744,2.867206 -3.33246,4.924655 -3.33246,8.412477 v 4.617011 l -5.91415,0.343243 -5.91415,0.343245 0.10209,5.110169 c 0.19211,9.621761 -0.16541,9.084746 6.0483,9.084746 h 5.67796 v 12.491525 12.49153 h -5.04314 c -2.77374,0 -5.36867,0.52669 -5.76652,1.17043 -1.03277,1.67105 1.44192,24.006617 4.65143,41.982107 1.50549,8.43178 3.03079,17.11907 3.38954,19.30508 0.65512,3.99173 9.98219,38.77849 11.36014,42.36937 0.66491,1.73291 -0.53171,1.91877 -12.35332,1.91877 h -13.08956 l -1.71292,-5.39407 c -3.64698,-11.48449 -10.12674,-40.13496 -12.26374,-54.22457 -2.23071,-14.70733 -5.47803,-41.360857 -5.4996,-45.139837 -0.0102,-1.86402 -3.28895,-1.98728 -52.85207,-1.98728 -41.254288,0 -52.948126,0.31125 -53.330533,1.41949 -0.269396,0.78072 -1.315351,10.10678 -2.324347,20.724567 -1.008997,10.6178 -3.096793,25.43729 -4.639548,32.93221 -1.542756,7.49491 -3.520983,17.20424 -4.396061,21.57627 -0.875078,4.37203 -3.087286,12.80381 -4.916019,18.73729 l -3.32497,10.78813 -13.198644,0.31994 C 10.762663,185.314 4.8232732,185.20513 4.8232732,184.89618 Z M 91.128362,46.275723 V 38.894367 H 71.255472 51.382595 v 7.381356 7.381356 h 19.872877 19.87289 z m 64.728808,0 v -7.381356 h -19.87288 -19.87288 v 7.381356 7.381356 h 19.87288 19.87288 z"
     id="path5262"
     inkscape:connector-curvature="0" />
</svg>
