<?xml version="1.0" encoding="UTF-8" standalone="no"?>
<!-- Created with Inkscape (http://www.inkscape.org/) -->

<svg
   xmlns:dc="http://purl.org/dc/elements/1.1/"
   xmlns:cc="http://creativecommons.org/ns#"
   xmlns:rdf="http://www.w3.org/1999/02/22-rdf-syntax-ns#"
   xmlns:svg="http://www.w3.org/2000/svg"
   xmlns="http://www.w3.org/2000/svg"
   xmlns:sodipodi="http://sodipodi.sourceforge.net/DTD/sodipodi-0.dtd"
   xmlns:inkscape="http://www.inkscape.org/namespaces/inkscape"
   version="1.1"
   id="svg12"
   width="58.739742mm"
   height="34.413815mm"
   viewBox="0 0 222.00848 130.06796"
   sodipodi:docname="esoterica-trejdeksnis.svg"
   inkscape:version="0.92.5 (2060ec1f9f, 2020-04-08)">
  <metadata
     id="metadata18">
    <rdf:RDF>
      <cc:Work
         rdf:about="">
        <dc:format>image/svg+xml</dc:format>
        <dc:type
           rdf:resource="http://purl.org/dc/dcmitype/StillImage" />
        <dc:title></dc:title>
      </cc:Work>
    </rdf:RDF>
  </metadata>
  <defs
     id="defs16" />
  <sodipodi:namedview
     pagecolor="#ffffff"
     bordercolor="#666666"
     borderopacity="1"
     objecttolerance="10"
     gridtolerance="10"
     guidetolerance="10"
     inkscape:pageopacity="0"
     inkscape:pageshadow="2"
     inkscape:window-width="1920"
     inkscape:window-height="997"
     id="namedview14"
     showgrid="false"
     units="mm"
     fit-margin-top="0"
     fit-margin-left="0"
     fit-margin-right="0"
     fit-margin-bottom="0"
     inkscape:zoom="0.88059701"
     inkscape:cx="110.66356"
     inkscape:cy="65.15558"
     inkscape:window-x="0"
     inkscape:window-y="28"
     inkscape:window-maximized="1"
     inkscape:current-layer="svg12" />
  <path
     style="fill:#000000;fill-opacity:0;stroke:#ff0000;stroke-width:0.56779659;stroke-miterlimit:4;stroke-dasharray:none;stroke-opacity:1"
     d="M 93.585509,112.4589 76.378196,95.251578 59.379773,112.22167 c -9.349134,9.33354 -17.264056,16.73904 -17.588718,16.45667 -3.52013,-3.06168 -41.50715671,-41.430172 -41.50715671,-41.923972 0,-0.36478 3.80055601,-4.43843 8.44568001,-9.05255 l 8.4456787,-8.38931 11.96256,12.10841 c 6.579407,6.65962 12.374124,12.10841 12.877149,12.10841 0.503025,0 4.466788,-3.57963 8.808362,-7.95473 l 7.893773,-7.95473 -12.452332,-12.49106 -12.45233,-12.49106 8.781465,-8.78147 8.781464,-8.78146 12.491063,12.45233 12.491063,12.45233 7.954725,-7.89377 c 4.3751,-4.34158 7.95473,-8.35482 7.95473,-8.91832 0,-0.5635 -5.41458,-6.3934 -12.03241,-12.955332 L 68.202126,18.281272 77.089429,9.3415354 85.976739,0.40179744 98.509059,12.898564 111.04138,25.395332 123.26602,13.132665 135.49066,0.86999844 l 8.78188,8.57118996 8.78189,8.5711896 -11.65646,11.942273 c -6.41104,6.568247 -11.65644,12.458647 -11.65644,13.089777 0,0.63113 3.47325,4.59414 7.71833,8.8067 l 7.71834,7.65919 10.73505,-10.86433 c 5.90429,-5.97538 11.62075,-11.36542 12.70327,-11.97786 1.61382,-0.91304 3.49405,0.4626 10.44267,7.64025 l 8.47448,8.75379 -11.86218,11.64849 c -6.52419,6.40668 -11.86217,12.07613 -11.86217,12.59879 0,0.52265 3.57963,4.50248 7.95473,8.84405 l 7.95473,7.89378 12.22816,-12.19024 12.22816,-12.19025 8.77474,8.60572 c 4.82611,4.73314 8.77474,8.75623 8.77474,8.94021 0,0.18397 -9.50503,9.7791 -21.12229,21.322512 L 179.48,129.52324 163.97941,114.04872 c -8.52533,-8.51099 -16.35232,-16.125852 -17.39332,-16.921932 -1.65453,-1.26525 -4.0259,0.6912 -18.84299,15.546012 l -16.95027,16.99341 z m 25.896921,-27.312642 8.07786,-7.81526 -8.03465,-7.79914 c -4.41905,-4.28953 -8.41338,-7.79914 -8.87627,-7.79914 -0.4629,0 -4.39135,3.57712 -8.72988,7.94915 l -7.888241,7.94915 7.895811,7.95679 c 4.3427,4.37623 8.2517,7.82559 8.68666,7.66525 0.43497,-0.16034 4.42589,-3.8084 8.86871,-8.1068 z"
     id="path5388"
     inkscape:connector-curvature="0" />
</svg>
