<?xml version="1.0" encoding="UTF-8" standalone="no"?>
<!-- Created with Inkscape (http://www.inkscape.org/) -->

<svg
   xmlns:dc="http://purl.org/dc/elements/1.1/"
   xmlns:cc="http://creativecommons.org/ns#"
   xmlns:rdf="http://www.w3.org/1999/02/22-rdf-syntax-ns#"
   xmlns:svg="http://www.w3.org/2000/svg"
   xmlns="http://www.w3.org/2000/svg"
   xmlns:sodipodi="http://sodipodi.sourceforge.net/DTD/sodipodi-0.dtd"
   xmlns:inkscape="http://www.inkscape.org/namespaces/inkscape"
   version="1.1"
   id="svg72"
   width="23.657753mm"
   height="61.236599mm"
   viewBox="0 0 89.41513 231.44542"
   sodipodi:docname="esoterica-berkano.svg"
   inkscape:version="0.92.5 (2060ec1f9f, 2020-04-08)">
  <metadata
     id="metadata78">
    <rdf:RDF>
      <cc:Work
         rdf:about="">
        <dc:format>image/svg+xml</dc:format>
        <dc:type
           rdf:resource="http://purl.org/dc/dcmitype/StillImage" />
        <dc:title></dc:title>
      </cc:Work>
    </rdf:RDF>
  </metadata>
  <defs
     id="defs76" />
  <sodipodi:namedview
     pagecolor="#ffffff"
     bordercolor="#666666"
     borderopacity="1"
     objecttolerance="10"
     gridtolerance="10"
     guidetolerance="10"
     inkscape:pageopacity="0"
     inkscape:pageshadow="2"
     inkscape:window-width="1920"
     inkscape:window-height="997"
     id="namedview74"
     showgrid="false"
     units="mm"
     fit-margin-top="0"
     fit-margin-left="0"
     fit-margin-right="0"
     fit-margin-bottom="0"
     inkscape:zoom="0.88059701"
     inkscape:cx="44.799152"
     inkscape:cy="115.20593"
     inkscape:window-x="0"
     inkscape:window-y="28"
     inkscape:window-maximized="1"
     inkscape:current-layer="svg72" />
  <path
     style="fill:#ff0000;fill-opacity:0.01829266;stroke:#ff0000;stroke-width:0.56779659;stroke-miterlimit:4;stroke-dasharray:none;stroke-opacity:1"
     d="M 0.28389829,115.87315 V 0.5847723 L 10.775745,8.8434813 c 5.770517,4.5422897 14.074537,11.1944487 18.453387,14.7825767 4.37885,3.588127 8.47256,6.931049 9.09714,7.428715 0.62457,0.497666 8.72147,7.015739 17.99309,14.484606 9.27163,7.468868 18.25219,14.601794 19.95682,15.850946 1.70462,1.249153 5.25254,4.125178 7.88426,6.391168 l 4.78494,4.119981 -3.21625,2.125782 c -6.71703,4.439625 -52.57091,41.690774 -52.26546,42.459824 0.28022,0.70554 18.80343,15.81597 27.1203,22.12359 1.64706,1.24915 8.64672,6.79241 15.5548,12.31836 l 12.56014,10.04716 -11.5592,9.15013 c -6.35756,5.03256 -12.32573,9.83064 -13.26259,10.66239 -2.85442,2.53416 -11.43998,9.47176 -27.38242,22.12651 -8.36128,6.637 -19.66579,15.70755 -25.12114,20.15678 -5.4553397,4.44923 -10.1822467,8.08951 -10.50423371,8.08951 -0.321986,0 -0.58543,-51.87977 -0.58543,-115.28836 z M 36.342392,170.85637 c 5.46317,-4.43732 10.33915,-8.44611 10.83552,-8.90842 1.00515,-0.93619 -19.14284,-18.22711 -21.23888,-18.22711 -0.36964,0 -0.67208,7.92076 -0.67208,17.60169 0,9.68093 0.25704,17.6017 0.5712,17.6017 0.31416,0 5.04107,-3.63054 10.50424,-8.06786 z m -0.51059,-89.220647 c 8.53214,-6.724539 12.65266,-10.527088 11.9773,-11.053013 -0.21895,-0.1705 -4.96219,-3.96934 -10.54055,-8.44187 -5.57835,-4.472528 -10.56077,-8.13187 -11.07203,-8.13187 -0.51127,0 -0.92957,7.665254 -0.92957,17.033898 0,11.174356 0.41149,17.0339 1.19621,17.0339 0.65792,0 4.87381,-2.89847 9.36864,-6.441045 z"
     id="path5262"
     inkscape:connector-curvature="0" />
</svg>
