<?xml version="1.0" encoding="UTF-8" standalone="no"?>
<!-- Created with Inkscape (http://www.inkscape.org/) -->

<svg
   xmlns:dc="http://purl.org/dc/elements/1.1/"
   xmlns:cc="http://creativecommons.org/ns#"
   xmlns:rdf="http://www.w3.org/1999/02/22-rdf-syntax-ns#"
   xmlns:svg="http://www.w3.org/2000/svg"
   xmlns="http://www.w3.org/2000/svg"
   xmlns:sodipodi="http://sodipodi.sourceforge.net/DTD/sodipodi-0.dtd"
   xmlns:inkscape="http://www.inkscape.org/namespaces/inkscape"
   version="1.1"
   id="svg82"
   width="39.513531mm"
   height="61.376446mm"
   viewBox="0 0 149.34248 231.97397"
   sodipodi:docname="hermetica-gebo.svg"
   inkscape:version="0.92.5 (2060ec1f9f, 2020-04-08)">
  <metadata
     id="metadata88">
    <rdf:RDF>
      <cc:Work
         rdf:about="">
        <dc:format>image/svg+xml</dc:format>
        <dc:type
           rdf:resource="http://purl.org/dc/dcmitype/StillImage" />
        <dc:title></dc:title>
      </cc:Work>
    </rdf:RDF>
  </metadata>
  <defs
     id="defs86" />
  <sodipodi:namedview
     pagecolor="#ffffff"
     bordercolor="#666666"
     borderopacity="1"
     objecttolerance="10"
     gridtolerance="10"
     guidetolerance="10"
     inkscape:pageopacity="0"
     inkscape:pageshadow="2"
     inkscape:window-width="1920"
     inkscape:window-height="997"
     id="namedview84"
     showgrid="false"
     units="mm"
     fit-margin-top="0"
     fit-margin-left="0"
     fit-margin-right="0"
     fit-margin-bottom="0"
     inkscape:zoom="0.88059701"
     inkscape:cx="-107.1264"
     inkscape:cy="116.08668"
     inkscape:window-x="0"
     inkscape:window-y="28"
     inkscape:window-maximized="1"
     inkscape:current-layer="svg82" />
  <path
     style="fill:#ff0000;fill-opacity:0.01829266;stroke:#ff0000;stroke-width:0.56779659;stroke-miterlimit:4;stroke-dasharray:none;stroke-opacity:1"
     d="m 15.063433,228.45682 c -2.810594,-1.83828 -7.2619448,-4.44113 -9.8918928,-5.78412 l -4.78172297,-2.4418 4.11658097,-7.48621 c 2.264119,-4.11742 4.536121,-8.04052 5.048894,-8.718 0.5127728,-0.6775 2.9069008,-4.76563 5.3202858,-9.08475 2.413385,-4.31913 6.178278,-10.91906 8.36643,-14.66651 2.188152,-3.74746 7.961607,-13.71229 12.829899,-22.14407 4.868293,-8.43178 10.564737,-18.26886 12.658777,-21.86017 2.09403,-3.59132 5.56248,-9.58576 7.70767,-13.321 l 3.90035,-6.79132 -4.27594,-7.68749 C 53.710994,104.24327 48.815984,95.673728 45.184954,89.427968 41.553924,83.182208 35.77279,73.217373 32.337982,67.283898 28.903174,61.350424 22.243392,49.852542 17.538466,41.733051 12.83354,33.613559 7.0955012,23.654616 4.7872682,19.602066 L 0.59048123,12.233792 4.1362792,10.043758 C 11.448778,5.5272493 20.992519,0.28389829 21.900791,0.28389829 c 0.517664,0 2.437658,2.68283901 4.266655,5.96186501 C 30.967772,14.851793 36.907,25.200945 51.420834,50.25 c 7.05685,12.179237 14.58277,25.210169 16.72427,28.957627 4.4131,7.722581 5.84794,9.652541 7.17621,9.652541 0.51092,0 3.17574,-3.96038 5.92182,-8.800846 2.74608,-4.840466 7.88667,-13.778826 11.42354,-19.863021 3.53686,-6.084196 6.43066,-11.409636 6.43066,-11.834312 0,-0.424676 0.6949,-1.578901 1.544216,-2.564944 0.84933,-0.986045 3.08923,-4.603401 4.97757,-8.038571 1.88834,-3.435169 6.13833,-10.844915 9.44444,-16.466101 3.3061,-5.621187 7.29049,-12.6476697 8.85421,-15.6144067 1.56371,-2.966737 3.25051,-5.39406801 3.74845,-5.39406801 1.18046,0 13.04763,6.41470001 17.42263,9.41765201 1.87373,1.2861067 3.53886,2.4230187 3.70029,2.5264697 0.16143,0.103453 -2.19075,4.484828 -5.22707,9.736392 -3.03633,5.251565 -8.42364,14.658469 -11.97181,20.904232 -3.54817,6.245763 -6.93132,12.122458 -7.5181,13.059322 -1.7075,2.726233 -11.3073,19.212769 -15.86961,27.254242 -2.30329,4.05974 -7.33829,12.81737 -11.188876,19.461402 -3.8506,6.64403 -7.00109,12.59398 -7.00109,13.22213 0,0.62814 1.77397,4.13491 3.94215,7.79282 2.16819,3.65792 4.57375,7.92831 5.3457,9.48975 0.771946,1.56144 3.086106,5.53174 5.142586,8.8229 2.05648,3.29115 3.73905,6.30203 3.73905,6.69083 0,0.38882 2.04407,3.94349 4.54238,7.89928 2.4983,3.95578 4.54237,7.48491 4.54237,7.84252 0,0.3576 1.78856,3.44614 3.97457,6.86344 2.18602,3.41729 3.97458,6.48339 3.97458,6.81355 0,0.33017 1.69188,3.2586 3.75972,6.50762 2.06785,3.24903 4.09537,6.80029 4.50562,7.8917 0.41024,1.0914 2.55099,4.80619 4.75722,8.25509 2.20623,3.4489 4.01353,6.64407 4.0162,7.10037 0.002,0.45631 1.53354,3.12922 3.40192,5.93982 1.86838,2.81059 3.39924,5.39933 3.40192,5.75275 0.002,0.35342 -2.16696,1.82666 -4.82141,3.27385 -2.65445,1.4472 -7.23525,4.13787 -10.17957,5.97929 -2.94431,1.84141 -5.84952,3.04135 -6.45601,2.66651 -0.6065,-0.37483 -2.5841,-3.35467 -4.39468,-6.62188 -3.06041,-5.52255 -15.79006,-27.61491 -25.015736,-43.41493 -4.25446,-7.28624 -9.37861,-16.238 -17.38811,-30.3766 -2.74196,-4.84018 -5.34913,-8.80056 -5.79372,-8.80084 -0.8238,-5.4e-4 -16.79336,26.48952 -16.79336,27.85657 0,0.41246 -0.95164,2.10636 -2.11475,3.76421 -2.12978,3.03569 -17.682219,29.68422 -22.36627,38.32376 -1.386125,2.55665 -3.876787,6.79739 -5.534803,9.42385 -1.658015,2.62647 -3.490849,6.0281 -4.072963,7.55918 -1.343621,3.53399 -2.750851,3.42463 -9.063755,-0.70433 z"
     id="path5241"
     inkscape:connector-curvature="0" />
</svg>
