<?xml version="1.0" encoding="UTF-8" standalone="no"?>
<!-- Created with Inkscape (http://www.inkscape.org/) -->

<svg
   xmlns:dc="http://purl.org/dc/elements/1.1/"
   xmlns:cc="http://creativecommons.org/ns#"
   xmlns:rdf="http://www.w3.org/1999/02/22-rdf-syntax-ns#"
   xmlns:svg="http://www.w3.org/2000/svg"
   xmlns="http://www.w3.org/2000/svg"
   xmlns:sodipodi="http://sodipodi.sourceforge.net/DTD/sodipodi-0.dtd"
   xmlns:inkscape="http://www.inkscape.org/namespaces/inkscape"
   version="1.1"
   id="svg62"
   width="49.125015mm"
   height="49.425259mm"
   viewBox="0 0 185.66935 186.80413"
   sodipodi:docname="esoterica-wzechslawiec.svg"
   inkscape:version="0.92.5 (2060ec1f9f, 2020-04-08)">
  <metadata
     id="metadata68">
    <rdf:RDF>
      <cc:Work
         rdf:about="">
        <dc:format>image/svg+xml</dc:format>
        <dc:type
           rdf:resource="http://purl.org/dc/dcmitype/StillImage" />
        <dc:title></dc:title>
      </cc:Work>
    </rdf:RDF>
  </metadata>
  <defs
     id="defs66" />
  <sodipodi:namedview
     pagecolor="#ffffff"
     bordercolor="#666666"
     borderopacity="1"
     objecttolerance="10"
     gridtolerance="10"
     guidetolerance="10"
     inkscape:pageopacity="0"
     inkscape:pageshadow="2"
     inkscape:window-width="1920"
     inkscape:window-height="997"
     id="namedview64"
     showgrid="false"
     units="mm"
     fit-margin-top="0"
     fit-margin-left="0"
     fit-margin-right="0"
     fit-margin-bottom="0"
     inkscape:zoom="0.88059701"
     inkscape:cx="92.494836"
     inkscape:cy="93.6296"
     inkscape:window-x="0"
     inkscape:window-y="28"
     inkscape:window-maximized="1"
     inkscape:current-layer="svg62" />
  <path
     style="fill:#000000;fill-opacity:0;stroke:#ff0000;stroke-width:0.56779659;stroke-miterlimit:4;stroke-dasharray:none;stroke-opacity:1"
     d="M 0.28389829,0.28389829 V 25.834679 51.385461 H 12.748742 25.213586 l -0.248047,-12.775391 -0.25,-12.775391 13.335938,-0.320312 13.333984,-0.320313 V 12.738976 0.28389829 H 25.83468 Z m 79.49218771,0 V 40.596398 80.910853 H 40.029992 0.28389829 v 12.49023 12.492187 H 40.029992 79.776086 v 27.82227 27.82226 H 52.643274 c -20.717119,0 -27.2362,-0.33608 -27.56836,-1.41992 -0.239261,-0.78072 -0.420597,-6.91278 -0.404297,-13.62695 l 0.0293,-12.20703 H 12.492883 0.28389829 v 25.55078 25.55078 H 52.52218 104.75851 v -39.7461 -39.74609 h 40.31445 40.3125 V 93.401083 80.910853 h -40.3125 -40.31445 V 53.088585 25.26632 h 27.82227 27.82226 v 13.058594 13.060547 h 12.49219 12.49023 V 25.834679 0.28389829 H 132.58078 Z M 160.47531,134.2839 l -0.32031,13.34179 -0.32032,13.34375 -12.77539,0.32031 -12.77539,0.32227 v 12.45312 12.45508 h 25.55078 25.55078 V 160.40108 134.2839 h -12.45507 z"
     id="path5296"
     inkscape:connector-curvature="0" />
</svg>
