<?xml version="1.0" encoding="UTF-8" standalone="no"?>
<!-- Created with Inkscape (http://www.inkscape.org/) -->

<svg
   xmlns:dc="http://purl.org/dc/elements/1.1/"
   xmlns:cc="http://creativecommons.org/ns#"
   xmlns:rdf="http://www.w3.org/1999/02/22-rdf-syntax-ns#"
   xmlns:svg="http://www.w3.org/2000/svg"
   xmlns="http://www.w3.org/2000/svg"
   xmlns:sodipodi="http://sodipodi.sourceforge.net/DTD/sodipodi-0.dtd"
   xmlns:inkscape="http://www.inkscape.org/namespaces/inkscape"
   version="1.1"
   id="svg42"
   width="63.246628mm"
   height="63.547089mm"
   viewBox="0 0 239.04237 240.17797"
   sodipodi:docname="esoterica-tursansydaa.svg"
   inkscape:version="0.92.5 (2060ec1f9f, 2020-04-08)">
  <metadata
     id="metadata48">
    <rdf:RDF>
      <cc:Work
         rdf:about="">
        <dc:format>image/svg+xml</dc:format>
        <dc:type
           rdf:resource="http://purl.org/dc/dcmitype/StillImage" />
        <dc:title></dc:title>
      </cc:Work>
    </rdf:RDF>
  </metadata>
  <defs
     id="defs46" />
  <sodipodi:namedview
     pagecolor="#ffffff"
     bordercolor="#666666"
     borderopacity="1"
     objecttolerance="10"
     gridtolerance="10"
     guidetolerance="10"
     inkscape:pageopacity="0"
     inkscape:pageshadow="2"
     inkscape:window-width="1920"
     inkscape:window-height="997"
     id="namedview44"
     showgrid="false"
     units="mm"
     fit-margin-top="0"
     fit-margin-left="0"
     fit-margin-right="0"
     fit-margin-bottom="0"
     inkscape:zoom="0.88059701"
     inkscape:cx="119.74831"
     inkscape:cy="119.74831"
     inkscape:window-x="0"
     inkscape:window-y="28"
     inkscape:window-maximized="1"
     inkscape:current-layer="svg42" />
  <path
     style="fill:#ff0000;fill-opacity:0.01829266;stroke:#ff0000;stroke-width:0.56779659;stroke-miterlimit:4;stroke-dasharray:none;stroke-opacity:1"
     d="M 53.65678,213.20763 V 186.52119 H 26.970339 0.28389829 V 120.08898 53.65678 H 26.970339 53.65678 V 26.970339 0.28389829 h 65.86441 65.86441 V 26.970339 53.65678 h 26.68644 26.68644 v 66.4322 66.43221 H 212.07204 185.3856 v 26.68644 26.68644 H 119.52119 53.65678 Z M 160.40255,174.02966 V 133.1483 h -14.19492 -14.19491 v 26.68644 26.68645 H 105.32628 78.63983 v 14.19491 14.19492 h 40.88136 40.88136 z M 107.02967,147.34322 V 133.1483 H 80.363773 53.697885 L 53.393434,106.17797 53.088983,79.207627 H 39.461864 25.834746 l -0.298064,41.165253 -0.298064,41.16525 H 66.13414 107.02967 Z M 213.77543,120.07464 V 78.611142 l -40.59746,0.298243 -40.59746,0.298242 -0.31783,14.478814 -0.31781,14.478809 h 26.72036 26.72037 v 25.92938 c 0,14.26116 0.34068,26.27006 0.75706,26.68644 0.41638,0.41639 6.80409,0.75706 14.19492,0.75706 h 13.43785 z M 107.02967,80.911017 V 53.65678 h 26.68644 26.68644 V 40.029661 26.402542 H 119.52119 78.63983 v 40.881356 40.881352 h 14.194915 14.194925 z"
     id="path5325"
     inkscape:connector-curvature="0" />
</svg>
