<?xml version="1.0" encoding="UTF-8" standalone="no"?>
<!-- Created with Inkscape (http://www.inkscape.org/) -->

<svg
   xmlns:dc="http://purl.org/dc/elements/1.1/"
   xmlns:cc="http://creativecommons.org/ns#"
   xmlns:rdf="http://www.w3.org/1999/02/22-rdf-syntax-ns#"
   xmlns:svg="http://www.w3.org/2000/svg"
   xmlns="http://www.w3.org/2000/svg"
   xmlns:sodipodi="http://sodipodi.sourceforge.net/DTD/sodipodi-0.dtd"
   xmlns:inkscape="http://www.inkscape.org/namespaces/inkscape"
   version="1.1"
   id="svg52"
   width="26.290165mm"
   height="62.044922mm"
   viewBox="0 0 99.364404 234.50049"
   sodipodi:docname="esoterica-sowilo.svg"
   inkscape:version="0.92.5 (2060ec1f9f, 2020-04-08)">
  <metadata
     id="metadata58">
    <rdf:RDF>
      <cc:Work
         rdf:about="">
        <dc:format>image/svg+xml</dc:format>
        <dc:type
           rdf:resource="http://purl.org/dc/dcmitype/StillImage" />
        <dc:title></dc:title>
      </cc:Work>
    </rdf:RDF>
  </metadata>
  <defs
     id="defs56" />
  <sodipodi:namedview
     pagecolor="#ffffff"
     bordercolor="#666666"
     borderopacity="1"
     objecttolerance="10"
     gridtolerance="10"
     guidetolerance="10"
     inkscape:pageopacity="0"
     inkscape:pageshadow="2"
     inkscape:window-width="1920"
     inkscape:window-height="997"
     id="namedview54"
     showgrid="false"
     units="mm"
     fit-margin-top="0"
     fit-margin-left="0"
     fit-margin-right="0"
     fit-margin-bottom="0"
     inkscape:zoom="0.88059701"
     inkscape:cx="49.341525"
     inkscape:cy="117.47712"
     inkscape:window-x="0"
     inkscape:window-y="28"
     inkscape:window-maximized="1"
     inkscape:current-layer="svg52" />
  <path
     style="fill:#ff0000;fill-opacity:0.01829266;stroke:#ff0000;stroke-width:0.56779659;stroke-miterlimit:4;stroke-dasharray:none;stroke-opacity:1"
     d="m 74.097455,175.23278 c 0,-32.44111 -0.42067,-59.24382 -0.93482,-59.56158 -0.51415,-0.31777 -5.4323,3.10144 -10.92921,7.59823 -5.49692,4.49679 -11.39711,9.19802 -13.11154,10.44717 -1.71442,1.24915 -13.40433,10.53744 -25.97756,20.64066 L 0.28389829,172.72673 V 86.505559 0.28439579 l 12.77542371,-2.46e-4 12.775423,-2.46e-4 -0.30371,59.61889021 c -0.16705,32.790385 -4.8e-4,59.618896 0.37015,59.618896 0.37063,0 3.73294,-2.42734 7.47181,-5.39407 3.73886,-2.96674 8.74748,-6.92712 11.13026,-8.80085 3.427,-2.69487 27.97752,-22.410255 40.19789,-32.281072 3.15749,-2.550412 10.05709,-8.19484 12.39207,-10.13771 1.88974,-1.572391 1.98729,2.591716 1.98729,84.827522 v 86.48109 h -12.49152 -12.49153 z"
     id="path5304"
     inkscape:connector-curvature="0" />
</svg>
