<?xml version="1.0" encoding="UTF-8" standalone="no"?>
<!-- Created with Inkscape (http://www.inkscape.org/) -->

<svg
   xmlns:dc="http://purl.org/dc/elements/1.1/"
   xmlns:cc="http://creativecommons.org/ns#"
   xmlns:rdf="http://www.w3.org/1999/02/22-rdf-syntax-ns#"
   xmlns:svg="http://www.w3.org/2000/svg"
   xmlns="http://www.w3.org/2000/svg"
   xmlns:sodipodi="http://sodipodi.sourceforge.net/DTD/sodipodi-0.dtd"
   xmlns:inkscape="http://www.inkscape.org/namespaces/inkscape"
   version="1.1"
   id="svg82"
   width="60.242035mm"
   height="59.964169mm"
   viewBox="0 0 227.68643 226.63623"
   sodipodi:docname="hermetica-asteroid.svg"
   inkscape:version="0.92.5 (2060ec1f9f, 2020-04-08)">
  <metadata
     id="metadata88">
    <rdf:RDF>
      <cc:Work
         rdf:about="">
        <dc:format>image/svg+xml</dc:format>
        <dc:type
           rdf:resource="http://purl.org/dc/dcmitype/StillImage" />
        <dc:title></dc:title>
      </cc:Work>
    </rdf:RDF>
  </metadata>
  <defs
     id="defs86" />
  <sodipodi:namedview
     pagecolor="#ffffff"
     bordercolor="#666666"
     borderopacity="1"
     objecttolerance="10"
     gridtolerance="10"
     guidetolerance="10"
     inkscape:pageopacity="0"
     inkscape:pageshadow="2"
     inkscape:window-width="1920"
     inkscape:window-height="997"
     id="namedview84"
     showgrid="false"
     units="mm"
     fit-margin-top="0"
     fit-margin-left="0"
     fit-margin-right="0"
     fit-margin-bottom="0"
     inkscape:zoom="0.88059701"
     inkscape:cx="-209.34661"
     inkscape:cy="-27.877232"
     inkscape:window-x="0"
     inkscape:window-y="28"
     inkscape:window-maximized="1"
     inkscape:current-layer="svg82" />
  <path
     style="fill:#ffff00;fill-opacity:0.01829266;stroke:#ff0000;stroke-width:0.56779659;stroke-miterlimit:4;stroke-dasharray:none;stroke-opacity:1"
     d="m 81.789528,206.76176 -0.31071,-19.58898 -20.15679,-0.3101 -20.15678,-0.3101 v -12.43912 -12.43912 l 20.15678,-0.3101 20.15679,-0.3101 0.3101,-20.15678 0.3101,-20.15678 12.18142,-7.5e-4 12.181432,-7.5e-4 v 20.15753 20.15753 l 20.15678,0.3101 20.15678,0.3101 v 12.43912 12.43912 l -20.15678,0.3101 -20.15678,0.3101 v 19.58977 19.58976 l -12.180812,-7.8e-4 -12.18082,-7.8e-4 z"
     id="path5241"
     inkscape:connector-curvature="0" />
  <path
     style="fill:#ffff00;fill-opacity:0.01829266;stroke:#ff0000;stroke-width:0.56779659;stroke-miterlimit:4;stroke-dasharray:none;stroke-opacity:1"
     d="m 162.67373,166.8536 c 0,-16.96311 -0.25358,-19.84869 -1.79627,-20.44068 -0.98794,-0.37911 -10.18625,-0.68929 -20.44067,-0.68929 H 121.79238 V 133.2321 120.74058 h 20.44067 20.44068 V 100.8677 80.994817 l 12.20763,-7.9e-4 12.20763,-7.8e-4 v 19.589773 19.58976 l 20.15678,0.3101 20.15677,0.3101 v 12.46533 12.46532 h -19.16603 c -15.10505,0 -19.44753,0.33918 -20.49456,1.60077 -0.92838,1.11863 -1.22679,7.27566 -0.99074,20.44219 l 0.33778,18.84142 -12.20763,-0.002 -12.20763,-0.002 z"
     id="path5243"
     inkscape:connector-curvature="0" />
  <path
     style="fill:#ffff00;fill-opacity:0.01829266;stroke:#ff0000;stroke-width:0.56779659;stroke-miterlimit:4;stroke-dasharray:none;stroke-opacity:1"
     d="M 121.79238,86.104977 V 66.2321 H 101.91949 82.046608 V 53.740575 41.24905 h 19.846682 19.84668 l 0.3101,-20.15678 0.3101,-20.15678423 12.18127,-0.32205 12.18127,-0.32205 0.31026,20.19494023 0.31025,20.194927 19.87288,0.306623 19.87289,0.306622 -0.35475,12.468801 L 186.3795,66.2321 H 166.57746 146.77543 V 86.104977 105.97787 H 134.2839 121.79238 Z"
     id="path5245"
     inkscape:connector-curvature="0" />
  <path
     style="fill:#ffff00;fill-opacity:0.01829266;stroke:#ff0000;stroke-width:0.56779659;stroke-miterlimit:4;stroke-dasharray:none;stroke-opacity:1"
     d="M 41.165248,125.85075 V 105.97787 H 20.724578 0.28389829 V 93.486337 80.994817 H 20.724578 41.165248 V 61.121931 41.24905 h 12.49153 12.49152 v 19.872881 19.872886 l 20.15679,-0.002 20.156782,-0.002 -0.35474,12.49376 -0.35475,12.493843 H 85.950348 66.148298 v 19.87288 19.87288 h -12.49152 -12.49153 z"
     id="path5247"
     inkscape:connector-curvature="0" />
</svg>
