<?xml version="1.0" encoding="UTF-8" standalone="no"?>
<!-- Created with Inkscape (http://www.inkscape.org/) -->

<svg
   xmlns:dc="http://purl.org/dc/elements/1.1/"
   xmlns:cc="http://creativecommons.org/ns#"
   xmlns:rdf="http://www.w3.org/1999/02/22-rdf-syntax-ns#"
   xmlns:svg="http://www.w3.org/2000/svg"
   xmlns="http://www.w3.org/2000/svg"
   xmlns:sodipodi="http://sodipodi.sourceforge.net/DTD/sodipodi-0.dtd"
   xmlns:inkscape="http://www.inkscape.org/namespaces/inkscape"
   version="1.1"
   id="svg72"
   width="37.714607mm"
   height="63.269508mm"
   viewBox="0 0 142.5434 239.12885"
   sodipodi:docname="hermetica-terra_ponderosa.svg"
   inkscape:version="0.92.5 (2060ec1f9f, 2020-04-08)">
  <metadata
     id="metadata78">
    <rdf:RDF>
      <cc:Work
         rdf:about="">
        <dc:format>image/svg+xml</dc:format>
        <dc:type
           rdf:resource="http://purl.org/dc/dcmitype/StillImage" />
        <dc:title></dc:title>
      </cc:Work>
    </rdf:RDF>
  </metadata>
  <defs
     id="defs76" />
  <sodipodi:namedview
     pagecolor="#ffffff"
     bordercolor="#666666"
     borderopacity="1"
     objecttolerance="10"
     gridtolerance="10"
     guidetolerance="10"
     inkscape:pageopacity="0"
     inkscape:pageshadow="2"
     inkscape:window-width="1920"
     inkscape:window-height="997"
     id="namedview74"
     showgrid="false"
     units="mm"
     fit-margin-top="0"
     fit-margin-left="0"
     fit-margin-right="0"
     fit-margin-bottom="0"
     inkscape:zoom="0.88059701"
     inkscape:cx="70.944243"
     inkscape:cy="119.83479"
     inkscape:window-x="0"
     inkscape:window-y="28"
     inkscape:window-maximized="1"
     inkscape:current-layer="svg72" />
  <path
     style="fill:#ff0000;fill-opacity:0.01829266;stroke:#ff0000;stroke-width:0.56779659;stroke-miterlimit:4;stroke-dasharray:none;stroke-opacity:1"
     d="M 59.113673,225.45458 58.793393,212.07204 29.55187,211.76897 0.31034465,211.4659 v -38.591 -38.591 H 28.473057 c 20.390206,0 28.538796,-0.37609 29.525426,-1.36271 0.97283,-0.97283 1.36271,-8.14383 1.36271,-25.06417 0,-19.731263 -0.29022,-23.991672 -1.73257,-25.434025 -0.95292,-0.952915 -2.48597,-1.443469 -3.40678,-1.09012 -0.92082,0.353349 -1.67421,0.117316 -1.67421,-0.524519 0,-0.641834 -0.51102,-0.851146 -1.13559,-0.465136 -0.62458,0.386009 -1.77437,0.303197 -2.55509,-0.184027 -0.78072,-0.487224 -2.42432,-1.042064 -3.65245,-1.232979 -1.22813,-0.190915 -3.52771,-1.213621 -5.11017,-2.272679 -1.58247,-1.059059 -3.260471,-1.811918 -3.728904,-1.673023 -0.468432,0.138896 -0.851694,-0.288638 -0.851694,-0.950074 0,-0.661437 -0.457471,-0.919881 -1.016601,-0.57432 -0.55913,0.345562 -1.322046,-0.167685 -1.695369,-1.14055 C 32.428442,71.342704 31.696812,70.810121 31.175921,71.132049 29.557724,72.13215 9.0630087,50.57044 10.075161,48.932743 c 0.324258,-0.524661 0.01823,-0.95393 -0.6800713,-0.95393 -0.698297,0 -0.953806,-0.511017 -0.567796,-1.135593 0.38601,-0.624577 0.160659,-1.135594 -0.500777,-1.135594 -0.661437,0 -1.101368,-0.383262 -0.977623,-0.851695 0.444107,-1.681164 -1.539023,-5.961864 -2.761967,-5.961864 -0.686584,0 -0.912089,-0.336245 -0.501124,-0.74721 0.410965,-0.410966 0.206705,-1.398479 -0.453913,-2.194474 C 2.9712717,35.156387 2.3369337,32.68433 2.2222507,30.458921 2.1075667,28.233514 1.7198857,26.410434 1.3607387,26.407634 0.48510465,26.400834 -0.17126335,2.6363153 0.68141465,1.8120343 0.78961465,1.7074383 6.3302617,1.4485723 12.993965,1.2367773 L 25.109787,0.85169429 25.726588,13.34322 c 0.746241,15.112969 0.922786,16.466101 2.148355,16.466101 0.527599,0 0.643445,0.511017 0.257436,1.135593 -0.38601,0.624577 -0.130502,1.135594 0.567796,1.135594 0.698298,0 1.010403,0.41944 0.693568,0.932091 -0.316835,0.51265 1.146378,2.925226 3.251585,5.361279 2.105207,2.436054 3.532864,4.906162 3.172569,5.48913 -0.360294,0.582969 -0.155803,0.751373 0.454424,0.374232 0.610228,-0.377142 3.265282,1.605141 5.900122,4.405074 2.63484,2.799932 5.28062,4.787946 5.87951,4.417809 0.5989,-0.370137 1.0889,-0.101642 1.0889,0.596656 0,0.698298 0.51102,0.953806 1.13559,0.567796 0.62458,-0.386009 1.1356,-0.245828 1.1356,0.311512 0,0.557341 0.63877,1.033519 1.41949,1.058173 0.78072,0.02465 1.93051,0.170339 2.55508,0.323744 3.88542,0.954313 3.97458,0.330414 3.97458,-27.812073 V 0.28389829 h 11.90389 11.90389 L 83.472713,28.38983 c 0.26258,24.297769 0.53453,28.052875 2.00712,27.714344 0.93687,-0.215373 2.68787,-0.586665 3.89112,-0.825092 1.20325,-0.238428 2.60072,-1.084248 3.10549,-1.879599 0.50477,-0.795351 0.94185,-0.935077 0.97127,-0.310501 0.0294,0.624577 0.67603,0.318358 1.43688,-0.680486 0.76086,-0.998844 1.63889,-1.785423 1.95118,-1.747951 1.47414,0.176876 13.639037,-11.475143 13.367127,-12.803586 -0.22106,-1.0801 2.94539,-7.346996 4.57053,-9.045755 0.82391,-0.861252 1.20433,-2.331319 0.84534,-3.266815 -0.35898,-0.935496 -0.0889,-2.380273 0.60025,-3.210613 0.68913,-0.830341 0.94511,-2.007803 0.56887,-2.616582 -0.37625,-0.608778 -0.16473,-1.427847 0.47003,-1.820154 0.63476,-0.392305 1.15412,-4.260242 1.15412,-8.5954157 v -7.882133 h 11.92373 11.92372 V 11.57281 c 0,6.051281 -0.49597,10.459843 -1.22761,10.912022 -0.67517,0.417288 -0.92095,1.980497 -0.54616,3.473799 0.41897,1.669277 0.18468,2.715097 -0.60822,2.715097 -0.73059,0 -1.0322,0.984581 -0.69575,2.271186 0.32667,1.249153 0.0761,2.271187 -0.55685,2.271187 -0.63292,0 -0.85663,0.766525 -0.49711,1.70339 0.3595,0.936864 0.15866,1.70339 -0.4463,1.70339 -0.60498,0 -0.9914,0.383262 -0.85871,0.851694 0.1327,0.468433 -0.39629,2.001484 -1.17554,3.40678 -0.77924,1.405297 -1.06412,2.555085 -0.63306,2.555085 0.43107,0 -0.063,0.935749 -1.0981,2.079444 -1.03504,1.143693 -1.54009,2.421235 -1.12235,2.838983 0.41775,0.417746 0.16336,0.759539 -0.56531,0.759539 -0.72867,0 -1.32486,0.766525 -1.32486,1.70339 0,0.936864 -0.52705,1.70339 -1.17123,1.70339 -0.64418,0 -1.50345,0.894279 -1.90951,1.987288 -0.81993,2.207116 -13.89271,15.04661 -15.31999,15.04661 -0.49739,0 -0.90435,0.386272 -0.90435,0.858382 0,0.47211 -1.66081,1.561539 -3.69068,2.420952 -2.02987,0.859414 -4.22393,2.215069 -4.87569,3.012568 -0.65175,0.797497 -2.1848,1.624383 -3.406777,1.837521 -1.22197,0.21314 -2.52719,0.802753 -2.90048,1.310255 -0.3733,0.507501 -2.28961,0.96853 -4.25848,1.024509 -1.96887,0.05598 -3.57976,0.565191 -3.57976,1.131579 0,0.566389 -0.5334,0.700138 -1.18534,0.297219 -0.65193,-0.402919 -1.92947,-0.114997 -2.83898,0.639825 -1.35288,1.122795 -1.65364,5.762383 -1.65364,25.509566 0,21.06691 0.23887,24.33541 1.87792,25.6957 1.03286,0.85719 2.05489,1.43078 2.27119,1.27464 0.21629,-0.15615 12.657667,-0.2839 27.647497,-0.2839 h 27.25423 v 38.591 38.591 l -29.24152,0.30307 -29.241527,0.30307 -0.56779,13.05932 -0.5678,13.05932 -11.60345,0.32322 -11.60345,0.32323 z m 0.002,-52.39797 c 0.21329,-8.5366 -0.12167,-13.43164 -0.99074,-14.47882 -1.00688,-1.21323 -4.98665,-1.58203 -17.07221,-1.58203 H 25.293396 v 14.79307 14.79308 l 16.749997,-0.31427 16.75,-0.31425 0.32223,-12.89678 z m 59.047107,-0.27869 c 0.24855,-10.28258 -0.0351,-13.46885 -1.29157,-14.51169 -1.10736,-0.91903 -6.5251,-1.23732 -17.352377,-1.01944 l -15.74232,0.31677 -0.31805,14.50858 -0.31804,14.50858 17.351937,-0.31367 17.35195,-0.31366 0.31849,-13.17547 z"
     id="path5302"
     inkscape:connector-curvature="0" />
</svg>
