<?xml version="1.0" encoding="UTF-8" standalone="no"?>
<!-- Created with Inkscape (http://www.inkscape.org/) -->

<svg
   xmlns:dc="http://purl.org/dc/elements/1.1/"
   xmlns:cc="http://creativecommons.org/ns#"
   xmlns:rdf="http://www.w3.org/1999/02/22-rdf-syntax-ns#"
   xmlns:svg="http://www.w3.org/2000/svg"
   xmlns="http://www.w3.org/2000/svg"
   xmlns:sodipodi="http://sodipodi.sourceforge.net/DTD/sodipodi-0.dtd"
   xmlns:inkscape="http://www.inkscape.org/namespaces/inkscape"
   version="1.1"
   id="svg82"
   width="61.384651mm"
   height="61.110023mm"
   viewBox="0 0 232.00498 230.96702"
   sodipodi:docname="esoterica-tudor_rose.svg"
   inkscape:version="0.92.5 (2060ec1f9f, 2020-04-08)">
  <metadata
     id="metadata88">
    <rdf:RDF>
      <cc:Work
         rdf:about="">
        <dc:format>image/svg+xml</dc:format>
        <dc:type
           rdf:resource="http://purl.org/dc/dcmitype/StillImage" />
        <dc:title></dc:title>
      </cc:Work>
    </rdf:RDF>
  </metadata>
  <defs
     id="defs86" />
  <sodipodi:namedview
     pagecolor="#ffffff"
     bordercolor="#666666"
     borderopacity="1"
     objecttolerance="10"
     gridtolerance="10"
     guidetolerance="10"
     inkscape:pageopacity="0"
     inkscape:pageshadow="2"
     inkscape:window-width="1920"
     inkscape:window-height="997"
     id="namedview84"
     showgrid="false"
     units="mm"
     fit-margin-top="0"
     fit-margin-left="0"
     fit-margin-right="0"
     fit-margin-bottom="0"
     inkscape:zoom="0.88059701"
     inkscape:cx="116.29715"
     inkscape:cy="115.88269"
     inkscape:window-x="0"
     inkscape:window-y="28"
     inkscape:window-maximized="1"
     inkscape:current-layer="svg82" />
  <path
     style="fill:#000000;fill-opacity:0;stroke:#ff0000;stroke-width:0.56779659;stroke-miterlimit:4;stroke-dasharray:none;stroke-opacity:1"
     d="m 111.12174,131.21317 c -9.66225,-3.00106 -13.899855,-14.55699 -8.37229,-22.83124 8.48876,-12.706911 26.95506,-8.476441 28.81978,6.60236 1.3109,10.60041 -9.90592,19.50304 -20.44749,16.22888 z"
     id="path6393"
     inkscape:connector-curvature="0" />
  <path
     style="fill:#000000;fill-opacity:0;stroke:#ff0000;stroke-width:0.56779659;stroke-miterlimit:4;stroke-dasharray:none;stroke-opacity:1"
     d="m 91.654775,230.42665 c -8.06023,-1.90164 -25.072641,-8.42773 -31.796613,-12.1974 -18.813821,-10.54762 -37.45865,-29.19812 -44.445179,-44.45871 -2.607343,-5.69519 -2.897834,-7.53328 -2.440126,-15.43991 l 0.519561,-8.9751 -4.5005899,-4.7311 C 1.3681161,136.61025 0.2901801,132.91136 0.2839191,114.74365 0.2781191,97.779679 1.4701031,91.135999 7.5066681,74.488283 11.223134,64.23896 19.266449,50.45636 26.070442,42.678374 32.243872,35.621216 38.794863,31.668607 47.073347,30.006049 52.880429,28.83982 53.55157,28.37633 55.414139,24.245887 61.907883,9.8453371 86.854415,0.08293708 116.63783,0.28704108 c 15.10493,0.103513 33.12051,3.62234002 43.39199,8.47538502 7.89746,3.7313699 15.57777,10.9785589 17.39476,16.4137819 1.06359,3.181584 1.872,3.685938 7.76699,4.845707 14.68217,2.88854 26.49289,15.360619 37.46919,39.567323 5.85712,12.917051 8.16838,23.831731 8.88475,41.957162 0.75411,19.08087 -0.741,25.10471 -8.16192,32.88452 l -4.54237,4.76205 v 11.23472 11.23471 l -6.04306,9.2047 c -15.74971,23.98974 -40.4166,41.30872 -69.25042,48.62172 -8.49141,2.15364 -15.65585,1.08174 -23.50154,-3.51614 -2.7035,-1.58435 -5.20862,-2.40629 -5.56692,-1.82653 -2.13134,3.44858 -17.224565,7.60169 -22.824505,6.2805 z m 10.155945,-27.9272 c 1.45923,-2.08334 1.76779,-6.5529 1.76779,-25.60725 0,-29.13282 1.13886,-32.05533 12.49152,-32.05533 11.25547,0 12.49153,3.27433 12.49153,33.09021 0,25.69622 0.38913,27.09623 7.53143,27.09623 3.72871,0 14.28529,-3.5814 21.99399,-7.46163 11.16649,-5.62074 28.16261,-20.80983 34.21888,-30.58074 2.75898,-4.45121 2.68699,-9.03594 -0.18388,-11.71056 -1.2672,-1.18057 -7.01614,-3.56421 -12.77542,-5.29699 -32.43113,-9.75743 -37.17151,-12.46727 -37.1405,-21.23137 0.009,-2.70249 0.39283,-5.44225 0.8517,-6.08836 2.01598,-2.8386 7.63255,-6.20696 10.3561,-6.21075 1.63335,-0.002 12.64996,3.12777 24.48134,6.95568 23.65207,7.65233 25.94514,7.77459 28.93204,1.54263 1.33529,-2.78599 1.40623,-5.46331 0.40552,-15.30409 -1.89646,-18.649521 -8.97552,-36.882535 -19.2908,-49.685852 -3.19399,-3.96438 -4.57596,-4.826271 -7.73853,-4.826271 -4.43546,0 -5.22581,0.904088 -24.14942,27.624752 -6.11525,8.63489 -8.71534,11.32191 -12.47617,12.89329 -4.70055,1.96401 -7.67278,1.15507 -12.4612,-3.3915 -2.99348,-2.8423 -3.68635,-4.37391 -3.66776,-8.10778 0.0197,-3.939416 1.33347,-6.405507 9.10774,-17.095033 15.83486,-21.772754 18.40748,-25.776429 18.40748,-28.646955 0,-3.598003 -3.43938,-7.014623 -8.34552,-8.290286 -14.11054,-3.668931 -18.35955,-4.532672 -25.43838,-5.171124 -14.56839,-1.313949 -38.739305,4.364218 -43.027606,10.107934 -2.164996,2.899777 -2.177941,3.176359 -0.314704,6.724164 1.740448,3.314 5.882285,9.250157 13.025145,18.667874 11.542335,15.21832 13.851065,19.159077 13.851065,23.642296 0,5.01106 -2.99126,9.23967 -7.935405,11.21793 -7.40199,2.96169 -10.63793,0.90625 -21.208418,-13.47137 -21.281926,-28.94697 -19.399912,-26.869586 -23.99301,-26.483712 -3.434608,0.288546 -4.879826,1.308102 -8.540817,6.025283 -4.784081,6.164281 -12.375806,21.190539 -15.059652,29.807489 -2.287238,7.34356 -3.507745,31.959291 -1.747681,35.248001 2.403052,4.49015 5.667089,4.13181 28.059479,-3.08047 11.780447,-3.79431 22.886389,-6.89875 24.679873,-6.89875 2.194327,0 4.523726,1.26285 7.121896,3.86102 4.82359,4.82359 5.35559,11.33207 1.30593,15.97672 -2.6918,3.08729 -14.660124,8.0184 -29.137878,12.0052 -12.825315,3.53177 -19.44368,6.7113 -20.666902,9.92862 -1.40496,3.69532 2.387013,10.21869 11.771662,20.25092 17.51244,18.72085 46.775278,32.12823 52.447543,24.02993 z"
     id="path6395"
     inkscape:connector-curvature="0" />
</svg>
