<?xml version="1.0" encoding="UTF-8" standalone="no"?>
<!-- Created with Inkscape (http://www.inkscape.org/) -->

<svg
   xmlns:dc="http://purl.org/dc/elements/1.1/"
   xmlns:cc="http://creativecommons.org/ns#"
   xmlns:rdf="http://www.w3.org/1999/02/22-rdf-syntax-ns#"
   xmlns:svg="http://www.w3.org/2000/svg"
   xmlns="http://www.w3.org/2000/svg"
   xmlns:sodipodi="http://sodipodi.sourceforge.net/DTD/sodipodi-0.dtd"
   xmlns:inkscape="http://www.inkscape.org/namespaces/inkscape"
   version="1.1"
   id="svg72"
   width="67.180702mm"
   height="67.200012mm"
   viewBox="0 0 253.91132 253.9843"
   sodipodi:docname="esoterica-fern.svg"
   inkscape:version="0.92.5 (2060ec1f9f, 2020-04-08)">
  <metadata
     id="metadata78">
    <rdf:RDF>
      <cc:Work
         rdf:about="">
        <dc:format>image/svg+xml</dc:format>
        <dc:type
           rdf:resource="http://purl.org/dc/dcmitype/StillImage" />
        <dc:title></dc:title>
      </cc:Work>
    </rdf:RDF>
  </metadata>
  <defs
     id="defs76" />
  <sodipodi:namedview
     pagecolor="#ffffff"
     bordercolor="#666666"
     borderopacity="1"
     objecttolerance="10"
     gridtolerance="10"
     guidetolerance="10"
     inkscape:pageopacity="0"
     inkscape:pageshadow="2"
     inkscape:window-width="1920"
     inkscape:window-height="997"
     id="namedview74"
     showgrid="false"
     units="mm"
     fit-margin-top="0"
     fit-margin-left="0"
     fit-margin-right="0"
     fit-margin-bottom="0"
     inkscape:zoom="0.88059701"
     inkscape:cx="127.11751"
     inkscape:cy="126.90468"
     inkscape:window-x="0"
     inkscape:window-y="28"
     inkscape:window-maximized="1"
     inkscape:current-layer="svg72" />
  <path
     style="fill:#ff0000;fill-opacity:0.01829266;stroke:#ff0000;stroke-width:0.56779659;stroke-miterlimit:4;stroke-dasharray:none;stroke-opacity:1"
     d="m 104.30055,231.10841 -22.499056,-22.47374 27.193576,-27.16354 27.19358,-27.16354 -4.3118,-4.41568 c -2.37148,-2.42863 -4.62834,-4.41569 -5.01522,-4.41569 -0.38688,0 -6.36933,5.62119 -13.29432,12.49153 -6.92501,6.87033 -13.19657,12.49152 -13.93682,12.49152 -0.74025,0 -6.869902,-5.62119 -13.621455,-12.49152 -6.751552,-6.87034 -12.731451,-12.49153 -13.288665,-12.49153 -0.557213,0 -2.970462,2.0045 -5.362775,4.45446 l -4.349661,4.45445 13.203941,12.97331 c 7.262167,7.13532 13.20394,13.45284 13.20394,14.03892 0,0.58609 -3.871837,4.79968 -8.604082,9.36355 L 72.20765,199.05883 50.16853,177.0938 C 38.047014,165.01303 28.121393,154.71026 28.111595,154.19877 c -0.0098,-0.5115 5.889491,-6.77734 13.109529,-13.92409 l 13.127344,-12.99409 -2.41818,-3.39602 c -5.283605,-7.42013 -5.741886,-7.25284 -20.526599,7.49335 L 17.974877,144.77175 9.1881383,135.98501 0.4013987,127.19827 22.893803,104.68476 45.386209,82.17124 71.94638,108.71356 c 14.608094,14.59828 27.0414,26.54232 27.62957,26.54232 0.58817,0 3.01416,-1.7837 5.39107,-3.96378 L 109.2887,127.32833 95.51743,113.55206 81.746171,99.775788 95.23354,86.238666 c 7.41805,-7.445419 13.4441,-13.898627 13.39124,-14.340464 -0.0529,-0.441837 -2.12877,-2.552164 -4.61311,-4.689616 L 99.49469,63.322309 85.934,76.847668 72.373312,90.373027 63.583143,81.582857 54.792973,72.792688 77.207476,50.378185 99.62198,27.963684 l 13.35031,13.253737 13.3503,13.253737 5.10514,-4.450818 5.10514,-4.450816 -13.59988,-13.63541 -13.59989,-13.635408 8.89584,-8.9483209 8.89584,-8.94832067 22.02687,22.02258057 c 12.11478,12.112419 22.02688,22.3932 22.02688,22.84618 0,0.452979 -12.04391,12.875359 -26.76425,27.605288 l -26.76426,26.781685 3.69354,4.171922 c 2.03144,2.29456 4.45802,4.17192 5.39239,4.17192 0.93437,0 7.43763,-5.80299 14.4517,-12.895542 l 12.75286,-12.895547 12.85895,12.895547 c 7.07243,7.092552 13.59754,12.895542 14.50025,12.895542 0.9027,0 3.36503,-1.8819 5.47185,-4.182 l 3.83056,-4.182012 -13.35733,-13.392232 -13.35735,-13.392233 3.36165,-3.55266 c 9.01938,-9.531886 13.21242,-13.536149 14.17429,-13.536149 1.23855,0 44.27123,42.825864 44.24753,44.034874 -0.009,0.451582 -4.22475,4.989012 -9.36864,10.083172 -5.14391,5.09416 -11.11361,11.09861 -13.266,13.34322 l -3.91344,4.08111 3.85231,3.97457 c 2.11876,2.18602 4.44516,3.97458 5.16975,3.97458 0.7246,0 7.23081,-5.90789 14.45826,-13.12863 l 13.1408,-13.12863 8.88254,8.82902 8.88255,8.82902 -22.60708,22.56514 -22.60706,22.56515 -26.79993,-26.78249 c -14.73996,-14.73036 -27.10109,-26.78248 -27.46918,-26.78248 -0.82348,0 -4.27551,3.14973 -7.09736,6.47584 -2.10339,2.47926 -2.08952,2.4987 11.07204,15.52666 7.24793,7.17436 13.17806,13.47022 13.17806,13.99081 0,0.52059 -5.90319,6.74628 -13.11818,13.83487 -12.97864,12.75122 -13.0965,12.91413 -11.07982,15.31397 3.67639,4.37486 5.91523,6.40023 7.07483,6.40023 0.62771,0 6.97788,-5.91833 14.11147,-13.15184 l 12.97018,-13.15183 8.64788,8.53633 c 4.75633,4.695 8.64787,8.80378 8.64787,9.13065 0,0.32686 -9.98447,10.54962 -22.18772,22.71724 l -22.18772,22.12294 -13.0157,-12.99158 c -7.15863,-7.14536 -13.46842,-12.99158 -14.02175,-12.99158 -0.55333,0 -2.84427,1.89255 -5.091,4.20566 l -4.08494,4.20566 2.53594,2.79387 c 1.39476,1.53662 7.39061,7.69258 13.32408,13.67993 l 10.78814,10.88607 -8.84624,8.91314 -8.84624,8.91313 z"
     id="path5262"
     inkscape:connector-curvature="0" />
</svg>
