<?xml version="1.0" encoding="UTF-8" standalone="no"?>
<!-- Created with Inkscape (http://www.inkscape.org/) -->

<svg
   xmlns:dc="http://purl.org/dc/elements/1.1/"
   xmlns:cc="http://creativecommons.org/ns#"
   xmlns:rdf="http://www.w3.org/1999/02/22-rdf-syntax-ns#"
   xmlns:svg="http://www.w3.org/2000/svg"
   xmlns="http://www.w3.org/2000/svg"
   xmlns:sodipodi="http://sodipodi.sourceforge.net/DTD/sodipodi-0.dtd"
   xmlns:inkscape="http://www.inkscape.org/namespaces/inkscape"
   version="1.1"
   id="svg82"
   width="56.658867mm"
   height="49.125019mm"
   viewBox="0 0 214.14375 185.66936"
   sodipodi:docname="esoterica-usins.svg"
   inkscape:version="0.92.5 (2060ec1f9f, 2020-04-08)">
  <metadata
     id="metadata88">
    <rdf:RDF>
      <cc:Work
         rdf:about="">
        <dc:format>image/svg+xml</dc:format>
        <dc:type
           rdf:resource="http://purl.org/dc/dcmitype/StillImage" />
        <dc:title></dc:title>
      </cc:Work>
    </rdf:RDF>
  </metadata>
  <defs
     id="defs86" />
  <sodipodi:namedview
     pagecolor="#ffffff"
     bordercolor="#666666"
     borderopacity="1"
     objecttolerance="10"
     gridtolerance="10"
     guidetolerance="10"
     inkscape:pageopacity="0"
     inkscape:pageshadow="2"
     inkscape:window-width="1920"
     inkscape:window-height="997"
     id="namedview84"
     showgrid="false"
     units="mm"
     fit-margin-top="0"
     fit-margin-left="0"
     fit-margin-right="0"
     fit-margin-bottom="0"
     inkscape:zoom="0.88059701"
     inkscape:cx="-75.346002"
     inkscape:cy="92.49484"
     inkscape:window-x="0"
     inkscape:window-y="28"
     inkscape:window-maximized="1"
     inkscape:current-layer="svg82" />
  <path
     style="fill:#000000;fill-opacity:0;stroke:#ff0000;stroke-width:0.56779659;stroke-miterlimit:4;stroke-dasharray:none;stroke-opacity:1"
     d="M 0.28389829,0.28389829 V 12.754601 25.225304 l 26.97070271,0.304688 26.970703,0.304687 v 27.253906 27.253908 l -26.970703,0.30469 -26.97070271,0.30468 v 12.44922 12.451167 l 26.97070271,0.30469 26.970703,0.30469 0.304687,26.96875 0.304688,26.9707 H 29.356163 c -14.013188,0 -26.2874437,0.31034 -27.2753907,0.68946 -1.47852201,0.56737 -1.79687401,2.77765 -1.79687401,12.49218 v 11.80274 H 40.029991 79.77609 V 92.834683 0.28389829 H 40.029991 Z m 134.00000171,0 V 92.834683 185.38546 h 39.78515 39.78321 l -0.32227,-12.20899 -0.32226,-12.20703 -25.55079,-0.23437 c -14.05297,-0.12913 -26.18998,-0.25816 -26.9707,-0.28516 -1.0948,-0.0379 -1.41797,-6.28259 -1.41797,-27.30273 v -27.25391 h 27.25391 27.25391 V 93.422573 80.951863 l -26.97071,-0.30468 -26.9707,-0.30469 V 53.088585 25.834679 l 26.9707,-0.304687 26.97071,-0.304688 V 12.754601 0.28389829 h -39.7461 z M 94.5378,1.4186643 V 13.910851 26.401085 h 12.49219 12.49219 V 13.910851 1.4186643 h -12.49219 z m 0,79.4921887 v 12.49023 12.492187 h 12.49219 12.49219 V 93.401083 80.910853 h -12.49219 z m 12.49219,79.521477 c -12.93395,0 -12.49219,-0.46673 -12.49219,13.16016 v 11.79297 h 12.49219 12.49219 v -11.79297 c 0,-13.62689 0.44176,-13.16016 -12.49219,-13.16016 z"
     id="path5241"
     inkscape:connector-curvature="0" />
</svg>
