<?xml version="1.0" encoding="UTF-8" standalone="no"?>
<svg
   xmlns:dc="http://purl.org/dc/elements/1.1/"
   xmlns:cc="http://creativecommons.org/ns#"
   xmlns:rdf="http://www.w3.org/1999/02/22-rdf-syntax-ns#"
   xmlns:svg="http://www.w3.org/2000/svg"
   xmlns="http://www.w3.org/2000/svg"
   viewBox="0 0 268 268"
   height="268"
   width="268"
   id="svg82"
   version="1.1">
  <metadata
     id="metadata88">
    <rdf:RDF>
      <cc:Work
         rdf:about="">
        <dc:format>image/svg+xml</dc:format>
        <dc:type
           rdf:resource="http://purl.org/dc/dcmitype/StillImage" />
        <dc:title></dc:title>
      </cc:Work>
    </rdf:RDF>
  </metadata>
  <defs
     id="defs86" />
  <path
     id="path5262"
     d="m 30.433898,176.24407 v -12.49153 h 40.390085 40.390087 l -0.80222,-2.55508 c -0.44122,-1.4053 -2.42304,-5.11017 -4.40404,-8.23305 -1.98101,-3.12288 -3.93748,-6.57094 -4.34772,-7.66235 -0.41025,-1.0914 -2.550998,-4.8062 -4.75723,-8.2551 -2.206234,-3.4489 -4.011335,-6.59932 -4.011335,-7.00095 0,-0.40162 -1.449885,-3.07454 -3.221968,-5.93981 -3.112342,-5.03234 -9.157356,-15.43259 -15.33475,-26.382953 l -2.975802,-5.275056 3.721042,-1.76575 c 2.046573,-0.971163 6.733574,-3.579802 10.415556,-5.796977 3.681984,-2.217175 6.980086,-4.027012 7.329118,-4.02186 0.34903,0.0052 1.702648,1.921466 3.00804,4.258475 1.30539,2.337009 6.363209,11.147836 11.239589,19.579611 4.87639,8.43178 12.73536,22.10149 17.46438,30.37712 4.72903,8.27564 8.87788,15.04661 9.21968,15.04661 0.60386,0 6.59774,-9.58248 10.29961,-16.4661 1.00764,-1.87373 3.93445,-6.9839 6.50403,-11.35593 2.56956,-4.37203 8.30766,-14.34091 12.75131,-22.15306 4.44367,-7.812145 8.97668,-15.393447 10.07334,-16.847335 l 1.99394,-2.643433 10.42594,5.939914 c 5.73426,3.266953 10.42593,6.218383 10.42593,6.558734 0,0.340352 -2.04407,4.098905 -4.54237,8.35234 -2.49831,4.25343 -6.66422,11.43839 -9.25759,15.96657 -2.59336,4.52818 -5.81798,10.02161 -7.16582,12.20763 -1.34783,2.18601 -5.68855,9.73961 -9.64602,16.78576 -3.95748,7.04616 -7.63159,13.08077 -8.16468,13.41024 -0.5331,0.32948 -0.96928,1.33542 -0.96928,2.23542 0,1.39404 5.97016,1.63637 40.31356,1.63637 h 40.31355 v 12.49153 12.49152 H 133.77288 30.433898 Z"
     style="fill:#ffff00;fill-opacity:0.01829266;stroke:#ff0000;stroke-width:0.56779659;stroke-miterlimit:4;stroke-dasharray:none;stroke-opacity:1" />
</svg>
