<?xml version="1.0" encoding="UTF-8" standalone="no"?>
<!-- Created with Inkscape (http://www.inkscape.org/) -->

<svg
   xmlns:dc="http://purl.org/dc/elements/1.1/"
   xmlns:cc="http://creativecommons.org/ns#"
   xmlns:rdf="http://www.w3.org/1999/02/22-rdf-syntax-ns#"
   xmlns:svg="http://www.w3.org/2000/svg"
   xmlns="http://www.w3.org/2000/svg"
   xmlns:sodipodi="http://sodipodi.sourceforge.net/DTD/sodipodi-0.dtd"
   xmlns:inkscape="http://www.inkscape.org/namespaces/inkscape"
   version="1.1"
   id="svg12"
   width="63.478271mm"
   height="57.537907mm"
   viewBox="0 0 239.91788 217.46611"
   sodipodi:docname="hermetica-glass.svg"
   inkscape:version="0.92.5 (2060ec1f9f, 2020-04-08)">
  <metadata
     id="metadata18">
    <rdf:RDF>
      <cc:Work
         rdf:about="">
        <dc:format>image/svg+xml</dc:format>
        <dc:type
           rdf:resource="http://purl.org/dc/dcmitype/StillImage" />
        <dc:title></dc:title>
      </cc:Work>
    </rdf:RDF>
  </metadata>
  <defs
     id="defs16" />
  <sodipodi:namedview
     pagecolor="#ffffff"
     bordercolor="#666666"
     borderopacity="1"
     objecttolerance="10"
     gridtolerance="10"
     guidetolerance="10"
     inkscape:pageopacity="0"
     inkscape:pageshadow="2"
     inkscape:window-width="1920"
     inkscape:window-height="997"
     id="namedview14"
     showgrid="false"
     units="mm"
     fit-margin-top="0"
     fit-margin-left="0"
     fit-margin-right="0"
     fit-margin-bottom="0"
     inkscape:zoom="0.88059701"
     inkscape:cx="120.11587"
     inkscape:cy="108.39237"
     inkscape:window-x="0"
     inkscape:window-y="28"
     inkscape:window-maximized="1"
     inkscape:current-layer="svg12" />
  <path
     style="fill:#ff0000;fill-opacity:0.01829266;stroke:#ff0000;stroke-width:0.56779659;stroke-miterlimit:4;stroke-dasharray:none;stroke-opacity:1"
     d="m 113.87434,208.38136 c -2.75772,-4.84047 -6.95328,-12.12246 -9.32348,-16.18221 -2.3702,-4.05974 -6.189793,-10.70296 -8.487993,-14.76271 -5.00377,-8.83913 -21.441534,-37.22214 -23.182807,-40.02966 -2.171548,-3.50126 -1.674165,-4.06932 -11.682995,13.34322 -2.513071,4.37204 -7.224929,12.47075 -10.470796,17.99713 -3.245867,5.5264 -5.726131,10.57433 -5.511696,11.21763 0.241049,0.72315 5.031459,1.08995 12.548977,0.96088 l 12.159097,-0.20875 v 12.5547 12.55468 H 35.372357 0.82206808 l 3.45574302,-6.52966 c 1.900658,-3.59131 3.857147,-7.04068 4.347752,-7.66525 0.490605,-0.62458 2.1418639,-3.43517 3.6694629,-6.24577 1.527599,-2.81059 4.567632,-8.17627 6.755629,-11.92372 8.067194,-13.81696 21.85499,-37.67207 25.597696,-44.28814 2.119934,-3.74746 5.619097,-9.8265 7.775918,-13.50899 l 3.921493,-6.69543 -7.584797,-13.177451 C 44.589325,88.544259 39.298836,79.292799 37.004321,75.233049 33.061694,68.257256 28.604854,60.556629 13.508005,34.635593 9.9613091,28.545975 5.5792831,20.880721 3.7701701,17.601695 L 0.48087408,11.639831 H 35.20176 69.922647 V 24.131356 36.622882 H 57.431121 c -7.26426,0 -12.491525,0.458344 -12.491525,1.095299 0,1.160795 4.728668,10.040518 7.882959,14.803006 1.034174,1.56144 2.482849,4.116525 3.219279,5.677966 3.053721,6.474754 13.409136,23.151866 14.617043,23.540356 0.717214,0.23066 2.968731,-2.54422 5.003369,-6.16641 C 77.696885,71.9509 81.028514,66.176695 83.06587,62.741526 85.103224,59.306356 92.479407,46.530932 99.457377,34.351695 116.57308,4.4782573 119.10343,0.28389829 120.00967,0.28389829 c 0.42715,0 2.1758,2.68283901 3.88587,5.96186501 1.71009,3.279025 4.06323,7.1805667 5.2292,8.6700937 1.16597,1.489526 2.11994,3.174878 2.11994,3.745227 0,0.57035 1.78856,3.832968 3.97458,7.250262 2.18602,3.417294 3.97458,6.509579 3.97458,6.871743 0,0.362163 1.73748,3.546097 3.86107,7.075408 7.24372,12.03872 20.47954,34.799203 22.22217,38.213542 3.07408,6.02299 3.88678,5.29457 13.93683,-12.49153 2.11751,-3.747458 6.49916,-11.358287 9.737,-16.912953 3.23785,-5.554667 5.88699,-10.537082 5.88699,-11.072034 0,-0.534952 -5.62118,-0.97264 -12.49152,-0.97264 H 169.85485 V 24.131356 11.639831 h 34.6356 c 19.04957,0 34.63559,0.275668 34.63559,0.612595 0,0.336929 -1.78856,3.268455 -3.97458,6.514504 -2.18601,3.246049 -3.97457,6.282067 -3.97457,6.746709 0,0.464641 -1.78856,3.640772 -3.97458,7.058066 -2.18602,3.417294 -3.97458,6.505844 -3.97458,6.863444 0,0.357599 -2.04406,3.886733 -4.54237,7.842519 -2.4983,3.955787 -4.54237,7.569248 -4.54237,8.029915 0,0.460667 -0.94898,2.194004 -2.10885,3.851861 -1.15987,1.657856 -3.40288,5.313861 -4.98446,8.124454 -1.58159,2.810594 -5.55866,9.709321 -8.83794,15.330511 -3.27929,5.62118 -7.08897,12.2644 -8.466,14.76271 -1.377,2.4983 -3.42884,6.102231 -4.55962,8.008721 l -2.05596,3.46636 6.54714,11.29636 c 3.60093,6.213 7.69134,13.34042 9.08981,15.83873 1.39846,2.4983 4.48511,7.86398 6.85921,11.92373 2.37411,4.05974 6.20844,10.70296 8.52075,14.76271 2.3123,4.05975 6.7067,11.66755 9.76531,16.90623 3.05861,5.23868 6.85433,11.8819 8.43492,14.76272 1.58058,2.8808 3.81117,6.64313 4.95687,8.36071 l 2.08308,3.12288 h -34.7662 -34.7662 v -12.55468 -12.5547 l 12.15909,0.20875 c 7.72629,0.13266 12.30521,-0.22955 12.55987,-0.99352 0.22041,-0.66124 -0.82211,-3.1541 -2.31672,-5.53965 -3.34018,-5.33128 -8.8081,-14.65822 -16.68976,-28.46874 -3.29713,-5.77733 -6.3884,-10.50424 -6.86951,-10.50424 -0.48111,0 -4.33205,6.00445 -8.55766,13.34322 -4.22561,7.33877 -9.60436,16.66483 -11.95277,20.72458 -2.34841,4.05975 -6.00975,10.44746 -8.13629,14.19491 -13.14169,23.15862 -19.38184,33.5 -20.21446,33.5 -0.52154,0 -3.20459,-3.96038 -5.9623,-8.80084 z m 12.80701,-51.66949 c 3.33309,-5.77733 7.93645,-13.82585 10.22971,-17.8856 2.29326,-4.05974 7.13666,-12.48062 10.76314,-18.71307 l 6.59357,-11.33171 -2.01995,-3.431 c -1.11097,-1.88705 -5.85541,-10.074221 -10.5432,-18.193711 -4.68778,-8.11949 -10.31524,-17.828813 -12.50546,-21.57627 -2.19023,-3.747458 -5.05331,-8.725658 -6.36242,-11.062667 -1.3091,-2.33701 -2.70636,-4.253323 -3.105,-4.258474 -0.39863,-0.0051 -4.23126,6.168149 -8.51694,13.718447 -4.28568,7.550298 -9.92581,17.387374 -12.533623,21.860174 -2.60782,4.47279 -6.59482,11.45396 -8.86002,15.513711 l -4.11854,7.38135 2.88133,5.67797 c 1.58473,3.12288 5.68657,10.27712 9.11519,15.8983 3.428633,5.62119 6.749643,11.38191 7.380023,12.80159 0.63038,1.41969 2.94288,5.38998 5.13889,8.82289 2.196,3.43291 3.99274,6.55468 3.99274,6.93726 0,1.27833 4.71593,8.34504 5.56901,8.34504 0.46277,0 3.56847,-4.7269 6.90155,-10.50423 z"
     id="path5388"
     inkscape:connector-curvature="0" />
</svg>
