<?xml version="1.0" encoding="UTF-8" standalone="no"?>
<!-- Created with Inkscape (http://www.inkscape.org/) -->

<svg
   xmlns:dc="http://purl.org/dc/elements/1.1/"
   xmlns:cc="http://creativecommons.org/ns#"
   xmlns:rdf="http://www.w3.org/1999/02/22-rdf-syntax-ns#"
   xmlns:svg="http://www.w3.org/2000/svg"
   xmlns="http://www.w3.org/2000/svg"
   xmlns:sodipodi="http://sodipodi.sourceforge.net/DTD/sodipodi-0.dtd"
   xmlns:inkscape="http://www.inkscape.org/namespaces/inkscape"
   version="1.1"
   id="svg82"
   width="63.491066mm"
   height="54.534657mm"
   viewBox="0 0 239.96624 206.11524"
   sodipodi:docname="hermetica-fire.svg"
   inkscape:version="0.92.5 (2060ec1f9f, 2020-04-08)">
  <metadata
     id="metadata88">
    <rdf:RDF>
      <cc:Work
         rdf:about="">
        <dc:format>image/svg+xml</dc:format>
        <dc:type
           rdf:resource="http://purl.org/dc/dcmitype/StillImage" />
        <dc:title></dc:title>
      </cc:Work>
    </rdf:RDF>
  </metadata>
  <defs
     id="defs86" />
  <sodipodi:namedview
     pagecolor="#ffffff"
     bordercolor="#666666"
     borderopacity="1"
     objecttolerance="10"
     gridtolerance="10"
     guidetolerance="10"
     inkscape:pageopacity="0"
     inkscape:pageshadow="2"
     inkscape:window-width="1920"
     inkscape:window-height="997"
     id="namedview84"
     showgrid="false"
     units="mm"
     fit-margin-top="0"
     fit-margin-left="0"
     fit-margin-right="0"
     fit-margin-bottom="0"
     inkscape:zoom="0.88059701"
     inkscape:cx="-62.352343"
     inkscape:cy="103.85"
     inkscape:window-x="0"
     inkscape:window-y="28"
     inkscape:window-maximized="1"
     inkscape:current-layer="svg82" />
  <path
     style="fill:#ff0000;fill-opacity:0.01829266;stroke:#ff0000;stroke-width:0.56779659;stroke-miterlimit:4;stroke-dasharray:none;stroke-opacity:1"
     d="m 2.3605314,203.03063 c 1.009305,-1.5404 4.645195,-7.6726 8.0797566,-13.62712 3.43456,-5.95453 9.134572,-15.80882 12.66669,-21.89844 3.53212,-6.08962 10.248183,-17.71525 14.924586,-25.83475 12.667524,-21.99421 25.081645,-43.488932 29.185492,-50.533892 2.001063,-3.43517 9.667121,-16.72161 17.035685,-29.525427 7.368567,-12.803814 15.030267,-26.090255 17.025999,-29.525424 1.99574,-3.43517 6.85527,-11.866949 10.79897,-18.737288 3.94368,-6.8703394 7.3502,-12.70972944 7.57002,-12.97642344 0.58967,-0.715423 3.07603,2.90895004 8.12293,11.84083044 2.47038,4.372034 8.21194,14.336864 12.75903,22.144067 4.54707,7.807204 10.15006,17.516526 12.45106,21.576272 4.51771,7.970725 14.13257,24.487483 15.86547,27.254233 0.58678,0.93687 3.89479,6.68581 7.35111,12.77543 3.45633,6.089622 9.17266,16.054452 12.70297,22.144072 3.53031,6.08961 11.12065,19.2483 16.86742,29.24152 5.74678,9.99322 14.15575,24.5572 18.6866,32.36441 4.53085,7.8072 9.76472,16.87775 11.6308,20.15678 l 3.3929,5.96186 H 120.00173 0.5254304 Z M 194.97321,179.65113 c -7e-5,-0.97073 -1.42894,-4.03683 -3.17528,-6.81356 -2.98298,-4.74302 -10.03805,-16.73915 -13.86369,-23.57315 -0.93959,-1.67845 -3.22011,-5.60681 -5.06782,-8.72969 -1.84772,-3.12288 -4.19632,-7.21102 -5.21912,-9.08474 -3.79831,-6.95839 -19.78224,-34.627842 -22.6321,-39.177972 -1.01772,-1.6249 -8.18191,-14.15078 -18.99801,-33.216102 -2.74608,-4.840466 -5.20226,-8.800847 -5.45817,-8.800847 -0.57999,0 -8.48424,12.292143 -8.48424,13.194105 0,0.362163 -1.82175,3.60995 -4.04834,7.217304 -2.22658,3.60735 -4.90942,8.16432 -5.96186,10.12659 -1.05244,1.96228 -6.257182,11.05542 -11.566072,20.206982 -5.308903,9.15156 -10.982188,18.98009 -12.607305,21.84119 -1.625116,2.86108 -4.743711,8.26807 -6.930211,12.01553 -2.186499,3.74745 -7.806495,13.45678 -12.488881,21.57627 -4.682385,8.11949 -9.65286,16.6622 -11.0455,18.98381 -1.392639,2.32161 -2.28472,4.62118 -1.982402,5.11017 0.302319,0.48899 34.070044,0.88907 75.039401,0.88907 66.611,0 74.4897,-0.18668 74.4896,-1.76496 z"
     id="path5241"
     inkscape:connector-curvature="0" />
</svg>
