<?xml version="1.0" encoding="UTF-8" standalone="no"?>
<!-- Created with Inkscape (http://www.inkscape.org/) -->

<svg
   xmlns:dc="http://purl.org/dc/elements/1.1/"
   xmlns:cc="http://creativecommons.org/ns#"
   xmlns:rdf="http://www.w3.org/1999/02/22-rdf-syntax-ns#"
   xmlns:svg="http://www.w3.org/2000/svg"
   xmlns="http://www.w3.org/2000/svg"
   xmlns:sodipodi="http://sodipodi.sourceforge.net/DTD/sodipodi-0.dtd"
   xmlns:inkscape="http://www.inkscape.org/namespaces/inkscape"
   version="1.1"
   id="svg2"
   width="47.49939mm"
   height="61.936275mm"
   viewBox="0 0 179.52525 234.08986"
   sodipodi:docname="esoterica-ostara.svg"
   inkscape:version="0.92.5 (2060ec1f9f, 2020-04-08)">
  <metadata
     id="metadata8">
    <rdf:RDF>
      <cc:Work
         rdf:about="">
        <dc:format>image/svg+xml</dc:format>
        <dc:type
           rdf:resource="http://purl.org/dc/dcmitype/StillImage" />
        <dc:title></dc:title>
      </cc:Work>
    </rdf:RDF>
  </metadata>
  <defs
     id="defs6" />
  <sodipodi:namedview
     pagecolor="#ffffff"
     bordercolor="#666666"
     borderopacity="1"
     objecttolerance="10"
     gridtolerance="10"
     guidetolerance="10"
     inkscape:pageopacity="0"
     inkscape:pageshadow="2"
     inkscape:window-width="1920"
     inkscape:window-height="997"
     id="namedview4"
     showgrid="false"
     units="mm"
     fit-margin-top="0"
     fit-margin-left="0"
     fit-margin-right="0"
     fit-margin-bottom="0"
     inkscape:zoom="0.88059701"
     inkscape:cx="89.579063"
     inkscape:cy="117.23847"
     inkscape:window-x="0"
     inkscape:window-y="28"
     inkscape:window-maximized="1"
     inkscape:current-layer="svg2" />
  <path
     style="fill:#000000;fill-opacity:0;stroke:#ff0000;stroke-width:0.56779659;stroke-miterlimit:4;stroke-dasharray:none;stroke-opacity:1"
     d="M 77.428213,232.90327 C 66.660813,231.80843 50.842336,225.79579 40.521436,218.87489 23.07313,207.17458 10.756801,190.96431 4.0221233,170.83594 0.50492829,160.32386 0.28389829,158.72323 0.28389829,143.76495 c 0,-14.95828 0.22103,-16.55891 3.73822501,-27.07099 C 8.7333563,102.61319 15.512701,91.399275 25.432917,81.277739 34.12352,72.410767 39.586136,68.387053 49.925223,63.236926 l 7.06231,-3.517894 0.32533,-11.091006 c 0.2481,-8.458342 -0.11754,-12.024267 -1.54039,-15.022698 C 52.44972,26.60315 43.651006,23.200815 36.863388,26.293461 c -3.059285,1.393904 -7.697884,7.728298 -7.697884,10.512103 0,1.686494 -1.551751,1.917017 -12.904297,1.917017 H 3.3569103 l 1.053121,-5.961864 C 6.6927343,19.83802 14.875502,9.1863839 26.668879,3.7860259 c 9.321307,-4.26836202 22.972483,-4.24637302 32.365364,0.05213 15.44549,7.0683801 23.50414,21.1890171 23.50414,41.1847051 v 9.294838 l 7.09746,-0.18484 7.09746,-0.184841 0.7106,-11.303397 c 0.90941,-14.465868 2.24314,-19.076608 7.540027,-26.06611 C 113.2416,5.6821369 126.82595,-0.71794412 139.29611,0.41280988 157.14379,2.0311799 173.36732,16.718451 175.29608,33.003818 l 0.6773,5.71876 h -12.55947 -12.55948 l -0.7132,-3.247181 c -1.81799,-8.277273 -13.26175,-12.898406 -20.56662,-8.305057 -5.58825,3.513928 -7.29047,8.536638 -7.29047,21.511863 v 11.319774 l 6.52967,2.874115 c 16.3042,7.176504 32.35142,23.045463 41.29789,40.839108 12.1187,24.10289 12.1718,56.13079 0.13232,79.79551 -5.51384,10.83797 -8.44304,14.91108 -16.93806,23.5528 -13.76365,14.00133 -33.94133,23.96079 -52.50259,25.91463 -10.633887,1.11937 -11.662497,1.11607 -23.375157,-0.0748 z m 22.895317,-25.42015 c 25.0136,-3.75638 45.37081,-22.44287 52.71392,-48.38766 0.79547,-2.8106 1.42969,-9.96483 1.40935,-15.89831 -0.057,-16.62947 -5.66295,-30.662 -17.36422,-43.465045 C 121.15115,82.300582 96.195163,75.070485 72.885843,81.133418 46.770184,87.926295 27.088998,111.59217 24.984665,138.73275 c -1.955389,25.21957 11.295064,49.61244 33.706258,62.05013 9.10083,5.05074 12.8424,6.06115 30.09322,8.12665 0.62458,0.0748 5.8173,-0.5671 11.539387,-1.42641 z"
     id="path6560"
     inkscape:connector-curvature="0" />
</svg>
