<?xml version="1.0" encoding="UTF-8" standalone="no"?>
<!-- Created with Inkscape (http://www.inkscape.org/) -->

<svg
   xmlns:dc="http://purl.org/dc/elements/1.1/"
   xmlns:cc="http://creativecommons.org/ns#"
   xmlns:rdf="http://www.w3.org/1999/02/22-rdf-syntax-ns#"
   xmlns:svg="http://www.w3.org/2000/svg"
   xmlns="http://www.w3.org/2000/svg"
   xmlns:sodipodi="http://sodipodi.sourceforge.net/DTD/sodipodi-0.dtd"
   xmlns:inkscape="http://www.inkscape.org/namespaces/inkscape"
   version="1.1"
   id="svg22"
   width="61.426765mm"
   height="61.563564mm"
   viewBox="0 0 232.16415 232.68119"
   sodipodi:docname="hermetica-charon.svg"
   inkscape:version="0.92.5 (2060ec1f9f, 2020-04-08)">
  <metadata
     id="metadata28">
    <rdf:RDF>
      <cc:Work
         rdf:about="">
        <dc:format>image/svg+xml</dc:format>
        <dc:type
           rdf:resource="http://purl.org/dc/dcmitype/StillImage" />
        <dc:title></dc:title>
      </cc:Work>
    </rdf:RDF>
  </metadata>
  <defs
     id="defs26" />
  <sodipodi:namedview
     pagecolor="#ffffff"
     bordercolor="#666666"
     borderopacity="1"
     objecttolerance="10"
     gridtolerance="10"
     guidetolerance="10"
     inkscape:pageopacity="0"
     inkscape:pageshadow="2"
     inkscape:window-width="1920"
     inkscape:window-height="997"
     id="namedview24"
     showgrid="false"
     inkscape:zoom="0.88059701"
     inkscape:cx="115.77415"
     inkscape:cy="116.34805"
     inkscape:window-x="0"
     inkscape:window-y="28"
     inkscape:window-maximized="1"
     inkscape:current-layer="svg22"
     units="mm"
     fit-margin-top="0"
     fit-margin-left="0"
     fit-margin-right="0"
     fit-margin-bottom="0" />
  <path
     style="fill:#ff0000;fill-opacity:0.01829266;stroke:#ff0000;stroke-width:0.56779659;stroke-miterlimit:4;stroke-dasharray:none;stroke-opacity:1"
     d="m 115.54759,0.28821833 c -8.02007,0.04993 -10.70898,0.567726 -15.898441,3.05859397 -14.2658,6.8473867 -23.200396,20.4903257 -23.210938,35.4433587 -0.0048,6.795473 0.591275,9.22595 4.060547,16.53125 4.836801,10.184938 11.031981,16.109273 20.906252,19.990235 8.72823,3.43052 22.02693,3.126724 30.36719,-0.69336 29.97979,-13.731615 30.59059,-56.373864 1.01367,-70.7128897 -6.78431,-3.28906597 -8.60682,-3.67092797 -17.23828,-3.61718797 z M 115.12962,24.618296 c 7.22997,0.06624 13.31579,5.114113 14.73828,12.226563 0.82148,4.107401 -2.08713,10.725063 -6.10156,13.882812 -1.82083,1.432267 -4.53387,2.22243 -7.52149,2.19336 -9.05121,-0.08806 -14.32422,-5.331212 -14.32422,-14.242188 0,-4.623532 0.5503,-5.835452 4.40821,-9.693359 3.62896,-3.628967 5.18556,-4.400318 8.80078,-4.367188 z m 103.29101,36.070313 -1.38476,6.076172 c -2.09771,9.198496 -9.77771,24.912119 -16.69141,34.154299 -14.86201,19.86747 -34.89657,33.53294 -58.11133,39.63867 -8.52299,2.24164 -12.95406,2.68502 -26.68554,2.66601 -14.37463,-0.0199 -17.874251,-0.4139 -27.550781,-3.0996 C 53.978332,130.68242 27.219954,105.06798 15.754618,70.969859 l -3.189453,-9.486328 -1.976563,3.816406 C 9.5020766,67.398406 6.7405786,74.552776 4.4499296,81.198374 l -4.16601497,12.082036 0.0078,22.71289 0.0059,22.71093 4.30859297,12.77344 c 13.7256144,40.69786 44.6822824,68.94101 86.7226614,79.12109 10.619811,2.57159 39.390091,2.31555 50.210931,-0.44726 37.56339,-9.59078 65.04135,-32.21127 80.74024,-66.46484 6.8091,-14.85683 9.64791,-28.95911 9.59961,-47.69336 -0.0481,-18.69092 -2.74121,-32.05552 -9.34961,-46.390629 z M 25.428446,126.78041 c 0.415899,0 2.533604,2.0764 4.705078,4.61328 10.58929,12.3712 32.581054,26.23347 50.845703,32.05078 15.246432,4.856 41.688683,6.07977 58.542973,2.70898 20.18532,-4.037 40.40165,-14.66778 56.23047,-29.56836 5.68524,-5.35185 10.60791,-9.46044 10.93945,-9.1289 1.60299,1.60299 -6.11299,25.80483 -10.37891,32.55468 -1.27763,2.02156 -3.31153,5.46438 -4.51953,7.65039 -2.71972,4.9217 -14.62582,17.03824 -22.34961,22.74415 -7.15236,5.28375 -19.51203,11.57558 -27.78125,14.14257 -7.17307,2.22672 -35.7646,3.36077 -44.515621,1.76563 -9.44681,-1.72198 -23.370914,-7.70116 -32.701175,-14.04102 C 56.789421,187.06996 45.429655,175.8598 40.520243,168.65931 35.430019,161.19362 28.820699,147.45928 27.197977,140.97572 25.493725,134.1664 24.573201,126.78041 25.428446,126.78041 Z"
     id="path5430"
     inkscape:connector-curvature="0" />
</svg>
