<?xml version="1.0" encoding="UTF-8" standalone="no"?>
<!-- Created with Inkscape (http://www.inkscape.org/) -->

<svg
   xmlns:dc="http://purl.org/dc/elements/1.1/"
   xmlns:cc="http://creativecommons.org/ns#"
   xmlns:rdf="http://www.w3.org/1999/02/22-rdf-syntax-ns#"
   xmlns:svg="http://www.w3.org/2000/svg"
   xmlns="http://www.w3.org/2000/svg"
   xmlns:sodipodi="http://sodipodi.sourceforge.net/DTD/sodipodi-0.dtd"
   xmlns:inkscape="http://www.inkscape.org/namespaces/inkscape"
   version="1.1"
   id="svg12"
   width="61.584354mm"
   height="59.89706mm"
   viewBox="0 0 232.75977 226.38259"
   sodipodi:docname="esoterica-lunula.svg"
   inkscape:version="0.92.5 (2060ec1f9f, 2020-04-08)">
  <metadata
     id="metadata18">
    <rdf:RDF>
      <cc:Work
         rdf:about="">
        <dc:format>image/svg+xml</dc:format>
        <dc:type
           rdf:resource="http://purl.org/dc/dcmitype/StillImage" />
        <dc:title></dc:title>
      </cc:Work>
    </rdf:RDF>
  </metadata>
  <defs
     id="defs16" />
  <sodipodi:namedview
     pagecolor="#ffffff"
     bordercolor="#666666"
     borderopacity="1"
     objecttolerance="10"
     gridtolerance="10"
     guidetolerance="10"
     inkscape:pageopacity="0"
     inkscape:pageshadow="2"
     inkscape:window-width="1920"
     inkscape:window-height="997"
     id="namedview14"
     showgrid="false"
     units="mm"
     fit-margin-top="0"
     fit-margin-left="0"
     fit-margin-right="0"
     fit-margin-bottom="0"
     inkscape:zoom="0.88059701"
     inkscape:cx="116.30209"
     inkscape:cy="112.8077"
     inkscape:window-x="0"
     inkscape:window-y="28"
     inkscape:window-maximized="1"
     inkscape:current-layer="svg12" />
  <path
     style="fill:#000000;fill-opacity:0;stroke:#ff0000;stroke-width:0.56779659;stroke-miterlimit:4;stroke-dasharray:none;stroke-opacity:1"
     d="M 72.354631,223.5404 C 28.657228,204.82655 0.28389829,162.51808 0.28389829,116.07321 c 0,-12.82187 1.48809901,-21.603104 6.19051001,-36.530035 C 18.856101,40.23979 55.393064,8.5278411 95.855529,1.9655801 150.63001,-6.9178219 200.6973,19.895938 223.04353,70.081676 c 9.81018,22.03197 12.11319,49.213154 6.22205,73.435914 -7.38665,30.37188 -26.14436,55.70028 -53.77519,72.6122 -6.51809,3.98952 -17.59991,8.95824 -19.98314,8.9598 -0.48469,3e-4 1.7013,-3.67688 4.85778,-8.17154 14.31312,-20.38114 15.61508,-50.69232 3.03901,-70.75162 -14.88958,-23.74944 -37.84404,-33.28387 -62.72097,-26.05194 -26.851671,7.80598 -45.603524,43.07708 -38.603741,72.61126 2.338002,9.86474 6.880739,19.50478 12.709391,26.97034 2.803879,3.59131 4.680794,6.47257 4.17092,6.40281 -0.509873,-0.0698 -3.482127,-1.22109 -6.605009,-2.5585 z M 41.125818,158.89654 c 0,-5.70923 2.988801,-15.94031 6.955601,-23.80998 11.510902,-22.83633 34.40275,-39.115714 58.341011,-41.488804 31.54118,-3.12681 56.0775,8.067644 74.15261,33.831384 5.4338,7.74519 8.96905,17.11148 12.10857,32.08051 0.36023,1.71758 1.06216,3.12288 1.55982,3.12288 1.64278,0 5.57306,-8.34593 9.35858,-19.87288 3.46844,-10.56146 3.72975,-12.42848 3.73514,-26.68644 0.006,-14.63757 -0.18261,-15.89513 -4.16209,-27.822044 -12.73647,-38.172508 -46.91746,-63.096399 -86.394,-62.996267 -31.532141,0.07998 -58.557815,14.576975 -76.604654,41.091932 -4.486622,6.591879 -10.77227,21.105945 -12.436941,28.717895 -3.148056,14.394944 -2.50864,35.900194 1.409004,47.388454 5.850905,17.15744 11.977349,25.56826 11.977349,16.44336 z"
     id="path6555"
     inkscape:connector-curvature="0" />
</svg>
