<?xml version="1.0" encoding="UTF-8" standalone="no"?>
<!-- Created with Inkscape (http://www.inkscape.org/) -->

<svg
   xmlns:dc="http://purl.org/dc/elements/1.1/"
   xmlns:cc="http://creativecommons.org/ns#"
   xmlns:rdf="http://www.w3.org/1999/02/22-rdf-syntax-ns#"
   xmlns:svg="http://www.w3.org/2000/svg"
   xmlns="http://www.w3.org/2000/svg"
   xmlns:sodipodi="http://sodipodi.sourceforge.net/DTD/sodipodi-0.dtd"
   xmlns:inkscape="http://www.inkscape.org/namespaces/inkscape"
   version="1.1"
   id="svg22"
   width="61.922432mm"
   height="54.833775mm"
   viewBox="0 0 234.03754 207.24576"
   sodipodi:docname="hermetica-decoc.svg"
   inkscape:version="0.92.5 (2060ec1f9f, 2020-04-08)">
  <metadata
     id="metadata28">
    <rdf:RDF>
      <cc:Work
         rdf:about="">
        <dc:format>image/svg+xml</dc:format>
        <dc:type
           rdf:resource="http://purl.org/dc/dcmitype/StillImage" />
        <dc:title></dc:title>
      </cc:Work>
    </rdf:RDF>
  </metadata>
  <defs
     id="defs26" />
  <sodipodi:namedview
     pagecolor="#ffffff"
     bordercolor="#666666"
     borderopacity="1"
     objecttolerance="10"
     gridtolerance="10"
     guidetolerance="10"
     inkscape:pageopacity="0"
     inkscape:pageshadow="2"
     inkscape:window-width="1920"
     inkscape:window-height="997"
     id="namedview24"
     showgrid="false"
     units="mm"
     fit-margin-top="0"
     fit-margin-left="0"
     fit-margin-right="0"
     fit-margin-bottom="0"
     inkscape:zoom="0.88059701"
     inkscape:cx="116.66092"
     inkscape:cy="103.85"
     inkscape:window-x="0"
     inkscape:window-y="28"
     inkscape:window-maximized="1"
     inkscape:current-layer="svg22" />
  <path
     style="fill:#ff0000;fill-opacity:0.01829266;stroke:#ff0000;stroke-width:0.56779659;stroke-miterlimit:4;stroke-dasharray:none;stroke-opacity:1"
     d="M 0.89768033,195.88983 C 1.6092173,182.71638 6.9460913,165.05659 14.125643,152.11832 23.921758,134.46474 41.20786,116.431 56.531263,107.8786 c 3.591314,-2.0044 6.496474,-3.90968 6.455914,-4.23395 -0.04056,-0.32426 -4.446334,-3.40016 -9.790606,-6.835328 C 38.084423,87.095602 23.338507,71.407762 15.3035,56.495762 13.284264,52.748304 11.279085,49.171186 10.847547,48.546609 9.6349393,46.791571 4.3845083,31.177995 2.3912893,23.399641 1.4078933,19.56203 0.60329733,12.791056 0.60329733,8.3530323 V 0.28389829 H 12.927292 25.251285 l 0.747481,9.72443671 c 0.411113,5.34844 1.79343,12.829295 3.071813,16.62412 9.768102,28.996165 31.509446,50.532117 60.676785,60.103567 10.676536,3.50358 12.307086,3.72468 27.254236,3.69562 14.75674,-0.0287 16.67294,-0.28814 26.68644,-3.61325 5.93347,-1.97029 14.6663,-5.85839 19.40628,-8.64023 11.55825,-6.7834 25.50589,-20.6728 32.17962,-32.045246 6.25398,-10.657155 11.93619,-27.570626 12.82813,-38.1837637 l 0.64418,-7.66525401 h 12.48991 12.48989 l -0.76454,8.23305001 c -1.84952,19.9167857 -9.13964,40.4750737 -20.0832,56.6349947 -6.96093,10.278959 -21.60865,24.502729 -32.56739,31.624799 -5.15275,3.348768 -9.36864,6.465828 -9.36864,6.926798 0,0.46097 2.74447,2.38701 6.09882,4.28009 6.87879,3.88215 16.77535,11.86855 24.97314,20.15299 16.36356,16.53653 28.57459,44.34702 30.94175,70.46942 l 0.75718,8.35582 h -12.48152 -12.48154 l -0.70547,-8.34573 c -0.87906,-10.39935 -7.07832,-28.97787 -12.71826,-38.11529 -12.27073,-19.88015 -34.59503,-36.55986 -55.61292,-41.55146 -43.512566,-10.33393 -86.328215,9.62451 -105.600957,49.22572 -5.172159,10.62763 -7.282339,18.24612 -8.138326,29.38221 l -0.722892,9.40455 H 12.775466 0.29964633 Z"
     id="path5429"
     inkscape:connector-curvature="0" />
</svg>
