<?xml version="1.0" encoding="UTF-8" standalone="no"?>
<!-- Created with Inkscape (http://www.inkscape.org/) -->

<svg
   xmlns:dc="http://purl.org/dc/elements/1.1/"
   xmlns:cc="http://creativecommons.org/ns#"
   xmlns:rdf="http://www.w3.org/1999/02/22-rdf-syntax-ns#"
   xmlns:svg="http://www.w3.org/2000/svg"
   xmlns="http://www.w3.org/2000/svg"
   xmlns:sodipodi="http://sodipodi.sourceforge.net/DTD/sodipodi-0.dtd"
   xmlns:inkscape="http://www.inkscape.org/namespaces/inkscape"
   version="1.1"
   id="svg62"
   width="24.433676mm"
   height="61.621407mm"
   viewBox="0 0 92.347752 232.89981"
   sodipodi:docname="hermetica-bootes.svg"
   inkscape:version="0.92.5 (2060ec1f9f, 2020-04-08)">
  <metadata
     id="metadata68">
    <rdf:RDF>
      <cc:Work
         rdf:about="">
        <dc:format>image/svg+xml</dc:format>
        <dc:type
           rdf:resource="http://purl.org/dc/dcmitype/StillImage" />
        <dc:title></dc:title>
      </cc:Work>
    </rdf:RDF>
  </metadata>
  <defs
     id="defs66" />
  <sodipodi:namedview
     pagecolor="#ffffff"
     bordercolor="#666666"
     borderopacity="1"
     objecttolerance="10"
     gridtolerance="10"
     guidetolerance="10"
     inkscape:pageopacity="0"
     inkscape:pageshadow="2"
     inkscape:window-width="1920"
     inkscape:window-height="997"
     id="namedview64"
     showgrid="false"
     units="mm"
     fit-margin-top="0"
     fit-margin-left="0"
     fit-margin-right="0"
     fit-margin-bottom="0"
     inkscape:zoom="0.88059701"
     inkscape:cx="45.77138"
     inkscape:cy="117.10938"
     inkscape:window-x="0"
     inkscape:window-y="28"
     inkscape:window-maximized="1"
     inkscape:current-layer="svg62" />
  <path
     style="fill:#ff0000;fill-opacity:0.01829266;stroke:#ff0000;stroke-width:0.56779659;stroke-miterlimit:4;stroke-dasharray:none;stroke-opacity:1"
     d="m 36.24995,232.23556 c -1.75384,-0.4817 -1.95044,-5.3134 -2.36354,-58.08781 C 33.46789,120.68113 33.27352,116.01973 31.15466,108.63619 29.90001,104.26416 28.02579,99.052638 26.98972,97.055048 24.43236,92.124328 18.13116,82.776938 16.42429,81.381953 11.195298,77.108432 5.4701807,68.051116 2.9283577,60.030959 -0.62736328,48.811672 -0.61008528,42.362857 3.0063697,30.914753 5.5918077,22.730391 6.6874047,20.973142 13.53144,14.033389 20.06193,7.4115699 22.43227,5.8271859 29.86301,3.1170449 c 7.58189,-2.76527 9.90037,-3.108152 18.14865,-2.684028 16.41164,0.843881 27.23069,6.924857 36.64808,20.5984851 3.72868,5.413876 7.22983,15.828603 7.40395,22.02418 0.0295,1.050795 -3.1309,1.416212 -12.16773,1.406866 l -12.20763,-0.01263 -2.27119,-5.852787 c -1.46461,-3.774271 -3.82094,-7.096898 -6.63507,-9.356017 -3.97245,-3.189002 -5.10083,-3.50323 -12.57992,-3.50323 -7.30582,0 -8.69172,0.362818 -12.50972,3.274951 -7.67184,5.851598 -10.71307,17.092255 -6.73344,24.887374 1.02048,1.998857 3.71847,5.678353 5.99553,8.176658 12.43503,13.643194 21.71074,32.153541 23.90037,47.694923 0.85144,6.04325 1.16833,28.09406 0.94653,65.8644 l -0.33343,56.77966 -9.65254,0.17256 c -5.3089,0.0949 -10.51338,-0.0639 -11.5655,-0.35285 z"
     id="path5283"
     inkscape:connector-curvature="0" />
</svg>
