<?xml version="1.0" encoding="UTF-8" standalone="no"?>
<!-- Created with Inkscape (http://www.inkscape.org/) -->

<svg
   xmlns:dc="http://purl.org/dc/elements/1.1/"
   xmlns:cc="http://creativecommons.org/ns#"
   xmlns:rdf="http://www.w3.org/1999/02/22-rdf-syntax-ns#"
   xmlns:svg="http://www.w3.org/2000/svg"
   xmlns="http://www.w3.org/2000/svg"
   xmlns:sodipodi="http://sodipodi.sourceforge.net/DTD/sodipodi-0.dtd"
   xmlns:inkscape="http://www.inkscape.org/namespaces/inkscape"
   version="1.1"
   id="svg2"
   width="63.652763mm"
   height="62.987988mm"
   viewBox="0 0 240.57738 238.06484"
   sodipodi:docname="esoterica-triskelion_alt.svg"
   inkscape:version="0.92.5 (2060ec1f9f, 2020-04-08)">
  <metadata
     id="metadata8">
    <rdf:RDF>
      <cc:Work
         rdf:about="">
        <dc:format>image/svg+xml</dc:format>
        <dc:type
           rdf:resource="http://purl.org/dc/dcmitype/StillImage" />
        <dc:title></dc:title>
      </cc:Work>
    </rdf:RDF>
  </metadata>
  <defs
     id="defs6" />
  <sodipodi:namedview
     pagecolor="#ffffff"
     bordercolor="#666666"
     borderopacity="1"
     objecttolerance="10"
     gridtolerance="10"
     guidetolerance="10"
     inkscape:pageopacity="0"
     inkscape:pageshadow="2"
     inkscape:window-width="1920"
     inkscape:window-height="997"
     id="namedview4"
     showgrid="false"
     units="mm"
     fit-margin-top="0"
     fit-margin-left="0"
     fit-margin-right="0"
     fit-margin-bottom="0"
     inkscape:zoom="0.88059701"
     inkscape:cx="120.44464"
     inkscape:cy="118.48688"
     inkscape:window-x="0"
     inkscape:window-y="28"
     inkscape:window-maximized="1"
     inkscape:current-layer="svg2" />
  <path
     style="fill:#000000;fill-opacity:0;stroke:#ff0000;stroke-width:0.56779659;stroke-miterlimit:4;stroke-dasharray:none;stroke-opacity:1"
     d="m 182.10735,236.31829 c -10.30787,-3.25996 -16.92558,-8.57854 -22.66747,-18.21758 -3.74289,-6.28331 -4.01897,-7.39877 -4.01897,-16.2386 0,-6.51208 0.57914,-10.63275 1.84481,-13.12613 7.90455,-15.57209 24.0971,-22.87796 37.33316,-16.84425 5.55329,2.53149 11.92373,7.76725 11.92373,9.79992 0,0.82403 -3.35252,3.34102 -7.45006,5.59329 -6.90421,3.79503 -7.62994,3.96907 -9.90522,2.3754 -3.89506,-2.7282 -7.50641,-2.06814 -11.71591,2.14136 -3.33341,3.33341 -3.86102,4.6164 -3.86102,9.38894 0,13.3222 13.64397,21.52481 28.80253,17.31578 2.70568,-0.75127 6.36706,-3.25161 9.55245,-6.52332 15.61687,-16.04006 13.09989,-37.30188 -6.28517,-53.09283 -10.94671,-8.91713 -28.25433,-12.19548 -42.23108,-7.99927 -5.58596,1.67705 -10.01577,3.99712 -27.67266,14.49325 -3.00823,1.78824 -5.63929,3.25135 -5.84679,3.25135 -0.2075,0 -6.85179,3.83262 -14.76508,8.51695 -7.9133,4.68432 -14.63285,8.51695 -14.93234,8.51695 -0.299475,0 -3.202805,1.67963 -6.451825,3.73252 -17.560058,11.09528 -32.380799,15.4228 -47.662407,13.91699 -9.638252,-0.94973 -14.532769,-2.63816 -22.465058,-7.74964 -11.217294,-7.22831 -18.2113553,-16.87871 -21.5776023,-29.77276 -4.277478,-16.38443 -0.803427,-30.54661 10.1899553,-41.54 8.274131,-8.27412 16.549064,-11.68446 28.480678,-11.73767 7.052074,-0.0315 9.505926,0.47904 14.266974,2.96807 6.161717,3.22128 12.76967,9.79758 15.966566,15.89007 3.018793,5.75308 2.785895,20.81865 -0.401452,25.96886 -4.89637,7.9117 -13.287519,13.56084 -20.143072,13.56084 -2.837259,0 -2.875457,-0.12068 -2.875457,-9.08474 0,-6.853 0.375216,-9.08475 1.527387,-9.08475 2.969978,0 5.286173,-4.05106 5.286173,-9.2456 0,-5.28836 -2.739838,-9.11636 -8.726193,-12.19191 -6.758351,-3.47218 -19.107698,1.68639 -24.004652,10.02721 -7.276227,12.39336 -1.176087,31.08713 13.017054,39.89053 8.94211,5.5464 27.030107,5.08464 38.37579,-0.97968 7.791665,-4.16469 16.752916,-13.46682 20.682246,-21.46899 l 3.2405,-6.59935 0.69793,-51.6695 c 0.72639,-53.77639 0.70437,-53.526615 5.992805,-67.973252 4.17176,-11.396163 14.75816,-22.272011 27.32597,-28.0730787 8.52237,-3.93377701 9.68476,-4.16977101 20.53822,-4.16977101 11.06361,0 11.87082,0.173673 21.05957,4.53095901 10.93097,5.183443 15.16284,9.2102117 20.5217,19.5271177 3.48761,6.714352 3.796,8.144356 3.796,17.601695 0,9.082523 -0.39126,11.090525 -3.32558,17.066874 -7.3143,14.897126 -20.24739,21.510626 -36.52279,18.676387 -12.95622,-2.256227 -21.51265,-11.354642 -22.84826,-24.295524 -0.60751,-5.886168 1.1984,-14.213441 3.08242,-14.213441 0.53014,0 4.19996,1.916314 8.15515,4.258475 5.94793,3.522211 7.12527,4.711583 6.80961,6.879214 -0.88898,6.10458 7.27225,11.392008 14.41974,9.342135 5.76952,-1.654678 7.82439,-3.324764 10.24621,-8.327585 7.86415,-16.245146 -4.99807,-32.845271 -25.44939,-32.845271 -6.16611,0 -9.30585,0.612363 -13.13197,2.561213 -8.99425,4.581253 -12.26939,7.878743 -16.67553,16.789334 -3.72792,7.538977 -4.29885,9.797667 -4.63888,18.351919 -0.33943,8.539409 0.0143,10.804009 2.83898,18.175239 3.99142,10.415896 12.76753,20.325007 23.24959,26.251081 3.97726,2.24857 10.29748,5.87171 14.04494,8.05142 20.75087,12.0698 28.50842,16.51495 29.53997,16.92666 0.63257,0.25248 7.5313,4.26171 15.33051,8.9094 29.018,17.29236 41.27374,37.24414 37.69385,61.36386 -2.6954,18.16046 -16.78247,35.64465 -32.52044,40.36282 -6.74062,2.02081 -18.8192,2.06438 -25.06084,0.0904 z m -49.09859,-90.60698 c 8.87677,-5.11345 18.44518,-10.17237 21.26315,-11.24204 2.81797,-1.06969 5.12358,-2.33819 5.12358,-2.8189 0,-0.48072 -2.26721,-2.07296 -5.03825,-3.53831 -2.77103,-1.46536 -7.41493,-4.1894 -10.31975,-6.05343 -2.90484,-1.86402 -5.64724,-3.38913 -6.09422,-3.38913 -1.31413,0 -15.98754,-9.82933 -17.6328,-11.81174 -0.82865,-0.99846 -1.88427,-1.81538 -2.34583,-1.81538 -0.46155,0 -1.14795,9.83707 -1.52533,21.86017 -0.37738,12.02309 -1.01878,23.26546 -1.42534,24.98305 -0.47709,2.01563 -0.27924,3.12288 0.55802,3.12288 0.71347,0 8.56001,-4.18373 17.43677,-9.29717 z"
     id="path5465"
     inkscape:connector-curvature="0" />
</svg>
