<?xml version="1.0" encoding="UTF-8" standalone="no"?>
<!-- Created with Inkscape (http://www.inkscape.org/) -->

<svg
   xmlns:dc="http://purl.org/dc/elements/1.1/"
   xmlns:cc="http://creativecommons.org/ns#"
   xmlns:rdf="http://www.w3.org/1999/02/22-rdf-syntax-ns#"
   xmlns:svg="http://www.w3.org/2000/svg"
   xmlns="http://www.w3.org/2000/svg"
   xmlns:sodipodi="http://sodipodi.sourceforge.net/DTD/sodipodi-0.dtd"
   xmlns:inkscape="http://www.inkscape.org/namespaces/inkscape"
   version="1.1"
   id="svg32"
   width="33.80164mm"
   height="64.448463mm"
   viewBox="0 0 127.75423 243.58475"
   sodipodi:docname="hermetica-melpomene.svg"
   inkscape:version="0.92.5 (2060ec1f9f, 2020-04-08)">
  <metadata
     id="metadata38">
    <rdf:RDF>
      <cc:Work
         rdf:about="">
        <dc:format>image/svg+xml</dc:format>
        <dc:type
           rdf:resource="http://purl.org/dc/dcmitype/StillImage" />
        <dc:title></dc:title>
      </cc:Work>
    </rdf:RDF>
  </metadata>
  <defs
     id="defs36" />
  <sodipodi:namedview
     pagecolor="#ffffff"
     bordercolor="#666666"
     borderopacity="1"
     objecttolerance="10"
     gridtolerance="10"
     guidetolerance="10"
     inkscape:pageopacity="0"
     inkscape:pageshadow="2"
     inkscape:window-width="1920"
     inkscape:window-height="997"
     id="namedview34"
     showgrid="false"
     units="mm"
     fit-margin-top="0"
     fit-margin-left="0"
     fit-margin-right="0"
     fit-margin-bottom="0"
     inkscape:zoom="0.88059701"
     inkscape:cx="283.27373"
     inkscape:cy="118.61271"
     inkscape:window-x="0"
     inkscape:window-y="28"
     inkscape:window-maximized="1"
     inkscape:current-layer="svg32" />
  <path
     style="fill:#ff0000;fill-opacity:0.01829266;stroke:#ff0000;stroke-width:0.56779659;stroke-miterlimit:4;stroke-dasharray:none;stroke-opacity:1"
     d="m 51.385596,231.30059 c 0,-11.91283 -0.0186,-11.99472 -2.555088,-11.24026 -1.4053,0.41799 -5.77845,2.75199 -9.71813,5.18668 -3.93967,2.43469 -7.86713,4.42671 -8.7277,4.42671 -2.11978,0 -13.09988,-19.52164 -11.85128,-21.07053 0.53101,-0.65871 5.07388,-3.46191 10.09527,-6.22933 5.02139,-2.76742 9.12981,-5.35441 9.12981,-5.7489 0,-0.87591 -6.95091,-5.53438 -13.08471,-8.7693 -8.15654,-4.30169 -7.9982,-3.6802 -3.12234,-12.25492 5.97542,-10.50842 7.54106,-12.92702 8.3681,-12.92702 0.38472,0 5.13982,2.55509 10.56689,5.67797 5.42708,3.12288 10.099558,5.67797 10.383288,5.67797 0.28374,0 0.51589,-21.71822 0.51589,-48.26272 V 77.504237 H 25.834748 0.28389829 V 64.444915 51.385593 H 25.834748 51.385596 V 25.834746 0.28389829 h 12.49152 12.49153 V 25.834746 51.385593 L 100.5,51.520141 c 13.27225,0.07401 24.77013,0.0516 25.55085,-0.04978 1.06427,-0.1382 1.41949,3.096245 1.41949,12.924774 V 77.504241 H 101.91949 76.368646 v 48.262699 c 0,26.5445 0.29239,48.26272 0.64976,48.26272 0.35736,0 5.44278,-2.75268 11.30093,-6.11707 l 10.65117,-6.11708 2.160174,4.12979 c 1.18809,2.27138 3.81586,7.08576 5.83949,10.69863 3.94357,7.04063 3.67739,8.96592 -1.46255,10.57897 -3.66117,1.14897 -14.376264,8.21027 -14.376264,9.47403 0,0.60457 4.34364,3.5179 9.652544,6.47405 5.3089,2.95616 9.65254,5.94072 9.65254,6.63236 0,0.69165 -2.29957,4.98734 -5.11017,9.54598 -2.81059,4.55865 -5.11017,8.72088 -5.11017,9.24941 0,2.49634 -2.616424,1.69629 -11.444464,-3.49949 -5.25733,-3.09422 -10.19873,-5.62585 -10.98089,-5.62585 -1.04878,0 -1.4221,3.13012 -1.4221,11.92372 v 11.92373 h -12.49153 -12.49152 z"
     id="path5358"
     inkscape:connector-curvature="0" />
</svg>
