<?xml version="1.0" encoding="UTF-8" standalone="no"?>
<!-- Created with Inkscape (http://www.inkscape.org/) -->

<svg
   xmlns:dc="http://purl.org/dc/elements/1.1/"
   xmlns:cc="http://creativecommons.org/ns#"
   xmlns:rdf="http://www.w3.org/1999/02/22-rdf-syntax-ns#"
   xmlns:svg="http://www.w3.org/2000/svg"
   xmlns="http://www.w3.org/2000/svg"
   xmlns:sodipodi="http://sodipodi.sourceforge.net/DTD/sodipodi-0.dtd"
   xmlns:inkscape="http://www.inkscape.org/namespaces/inkscape"
   version="1.1"
   id="svg22"
   width="42.214497mm"
   height="63.547089mm"
   viewBox="0 0 159.55085 240.17797"
   sodipodi:docname="esoterica-scientology_x.svg"
   inkscape:version="0.92.5 (2060ec1f9f, 2020-04-08)">
  <metadata
     id="metadata28">
    <rdf:RDF>
      <cc:Work
         rdf:about="">
        <dc:format>image/svg+xml</dc:format>
        <dc:type
           rdf:resource="http://purl.org/dc/dcmitype/StillImage" />
        <dc:title></dc:title>
      </cc:Work>
    </rdf:RDF>
  </metadata>
  <defs
     id="defs26" />
  <sodipodi:namedview
     pagecolor="#ffffff"
     bordercolor="#666666"
     borderopacity="1"
     objecttolerance="10"
     gridtolerance="10"
     guidetolerance="10"
     inkscape:pageopacity="0"
     inkscape:pageshadow="2"
     inkscape:window-width="1920"
     inkscape:window-height="997"
     id="namedview24"
     showgrid="false"
     units="mm"
     fit-margin-top="0"
     fit-margin-left="0"
     fit-margin-right="0"
     fit-margin-bottom="0"
     inkscape:zoom="0.88059701"
     inkscape:cx="80.002542"
     inkscape:cy="119.74831"
     inkscape:window-x="0"
     inkscape:window-y="28"
     inkscape:window-maximized="1"
     inkscape:current-layer="svg22" />
  <path
     style="fill:#000000;fill-opacity:0;stroke:#ff0000;stroke-width:0.56779659;stroke-miterlimit:4;stroke-dasharray:none;stroke-opacity:1"
     d="m 67.283902,175.73305 c 0,-35.28856 -0.30624,-64.16102 -0.68053,-64.16102 -0.3743,0 -3.56815,1.73134 -7.09746,3.84742 -11.51655,6.905 -32.528527,18.66187 -32.830822,18.36987 -0.162386,-0.15686 1.80023,-4.07012 4.361371,-8.69615 2.561142,-4.62604 6.490627,-11.73258 8.732191,-15.79232 2.241565,-4.05975 5.003944,-8.91441 6.138622,-10.788139 1.134678,-1.87373 2.064958,-3.79004 2.067298,-4.25847 0.002,-0.46844 -10.727115,-0.8517 -23.843216,-0.8517 H 0.28389829 V 80.34322 67.283898 H 24.131356 c 13.116101,0 23.838196,-0.383262 23.826886,-0.851695 C 47.940342,65.692454 44.570884,59.329408 40.291125,51.95339 32.919459,39.248576 26.363404,27.198742 26.66083,26.901316 c 0.3509,-0.350899 22.648582,11.998956 34.168862,18.924857 3.00824,1.808529 5.69108,3.288234 5.96186,3.288234 0.27079,0 0.49235,-10.986865 0.49235,-24.415254 V 0.28389829 h 12.49152 12.49153 V 23.94209 c 0,13.012006 0.34247,24.000663 0.76104,24.419238 0.41858,0.418575 2.07938,-0.109903 3.69068,-1.174381 2.76377,-1.825851 11.112648,-6.565391 24.897768,-14.134115 3.33841,-1.832956 7.29879,-4.137887 8.80085,-5.122072 1.50206,-0.984184 2.73101,-1.408322 2.73101,-0.942526 0,0.465794 -3.15139,6.529016 -7.00311,13.473825 -3.85172,6.944807 -8.23797,14.9265 -9.74723,17.737094 -1.50927,2.810593 -3.21252,5.595635 -3.78502,6.188983 -0.5725,0.593347 -1.04091,1.487627 -1.04091,1.987288 0,0.499661 10.73136,0.908474 23.84746,0.908474 h 23.84746 V 80.34322 93.402541 h -23.84746 c -13.1161,0 -23.84746,0.20642 -23.84746,0.45871 0,0.25228 1.87832,3.70165 4.17403,7.665249 2.29572,3.9636 6.16487,10.78367 8.59812,15.1557 2.43326,4.37204 5.63735,9.9784 7.1202,12.45861 2.79215,4.67008 2.8734,6.40835 0.19567,4.18604 -1.40553,-1.16648 -10.15082,-6.19615 -23.4948,-13.51251 -2.81059,-1.54102 -7.19767,-4.0251 -9.749068,-5.52019 -2.5514,-1.49507 -4.97873,-2.3785 -5.39407,-1.96316 -0.41534,0.41535 -0.75516,29.28694 -0.75516,64.15913 v 63.40395 h -12.49153 -12.49152 z"
     id="path4840"
     inkscape:connector-curvature="0" />
</svg>
