<?xml version="1.0" encoding="UTF-8" standalone="no"?>
<!-- Created with Inkscape (http://www.inkscape.org/) -->

<svg
   xmlns:dc="http://purl.org/dc/elements/1.1/"
   xmlns:cc="http://creativecommons.org/ns#"
   xmlns:rdf="http://www.w3.org/1999/02/22-rdf-syntax-ns#"
   xmlns:svg="http://www.w3.org/2000/svg"
   xmlns="http://www.w3.org/2000/svg"
   xmlns:sodipodi="http://sodipodi.sourceforge.net/DTD/sodipodi-0.dtd"
   xmlns:inkscape="http://www.inkscape.org/namespaces/inkscape"
   version="1.1"
   id="svg32"
   width="42.214493mm"
   height="63.072891mm"
   viewBox="0 0 159.55084 238.38573"
   sodipodi:docname="esoterica-ankh.svg"
   inkscape:version="0.92.5 (2060ec1f9f, 2020-04-08)">
  <metadata
     id="metadata38">
    <rdf:RDF>
      <cc:Work
         rdf:about="">
        <dc:format>image/svg+xml</dc:format>
        <dc:type
           rdf:resource="http://purl.org/dc/dcmitype/StillImage" />
        <dc:title></dc:title>
      </cc:Work>
    </rdf:RDF>
  </metadata>
  <defs
     id="defs36" />
  <sodipodi:namedview
     pagecolor="#ffffff"
     bordercolor="#666666"
     borderopacity="1"
     objecttolerance="10"
     gridtolerance="10"
     guidetolerance="10"
     inkscape:pageopacity="0"
     inkscape:pageshadow="2"
     inkscape:window-width="1920"
     inkscape:window-height="997"
     id="namedview34"
     showgrid="false"
     units="mm"
     fit-margin-top="0"
     fit-margin-left="0"
     fit-margin-right="0"
     fit-margin-bottom="0"
     inkscape:zoom="0.88059701"
     inkscape:cx="81.138135"
     inkscape:cy="118.61271"
     inkscape:window-x="0"
     inkscape:window-y="28"
     inkscape:window-maximized="1"
     inkscape:current-layer="svg32" />
  <path
     style="fill:#000000;fill-opacity:0;stroke:#ff0000;stroke-width:0.56779659;stroke-miterlimit:4;stroke-dasharray:none;stroke-opacity:1"
     d="M 67.283895,184.72895 V 131.35607 H 33.783898 0.28389829 V 118.86455 106.37302 H 28.105932 c 18.241497,0 27.822033,-0.40078 27.822033,-1.16386 0,-0.64013 -4.27696,-7.666612 -9.504367,-15.614412 C 31.225427,66.487285 31.555268,67.360738 31.532367,50.161154 l -0.01966,-14.762712 4.338949,-7.949153 C 53.693195,-5.2372208 97.611475,-9.2343949 119.8648,19.802926 c 10.08426,13.158479 13.06143,31.41751 7.61872,46.725739 -2.16157,6.079663 -10.73614,20.426563 -20.56207,34.404305 -1.18964,1.69229 -2.16297,3.60861 -2.16297,4.25847 0,0.78556 9.13471,1.18158 27.25424,1.18158 h 27.25423 v 12.47438 12.47436 l -33.2161,0.30106 -33.216105,0.30105 -0.29513,53.08898 -0.29513,53.08898 h -12.48029 -12.4803 z M 91.882635,78.267086 C 104.32432,59.457661 106.52263,54.33641 105.39182,46.795644 c -1.05576,-7.04036 -6.949065,-15.333845 -13.142195,-18.49466 -10.12326,-5.166658 -24.98859,-2.397274 -31.10182,5.794215 -5.22924,7.006982 -6.90581,17.702927 -3.92389,25.033111 1.50582,3.701634 22.19916,35.888778 23.07314,35.888778 0.27837,0 5.49188,-7.5375 11.58558,-16.750002 z"
     id="path3088"
     inkscape:connector-curvature="0" />
</svg>
