<?xml version="1.0" encoding="UTF-8" standalone="no"?>
<!-- Created with Inkscape (http://www.inkscape.org/) -->

<svg
   xmlns:dc="http://purl.org/dc/elements/1.1/"
   xmlns:cc="http://creativecommons.org/ns#"
   xmlns:rdf="http://www.w3.org/1999/02/22-rdf-syntax-ns#"
   xmlns:svg="http://www.w3.org/2000/svg"
   xmlns="http://www.w3.org/2000/svg"
   xmlns:sodipodi="http://sodipodi.sourceforge.net/DTD/sodipodi-0.dtd"
   xmlns:inkscape="http://www.inkscape.org/namespaces/inkscape"
   version="1.1"
   id="svg62"
   width="63.268726mm"
   height="34.954834mm"
   viewBox="0 0 239.1259 132.11276"
   sodipodi:docname="esoterica-no_go.svg"
   inkscape:version="0.92.5 (2060ec1f9f, 2020-04-08)">
  <metadata
     id="metadata68">
    <rdf:RDF>
      <cc:Work
         rdf:about="">
        <dc:format>image/svg+xml</dc:format>
        <dc:type
           rdf:resource="http://purl.org/dc/dcmitype/StillImage" />
        <dc:title></dc:title>
      </cc:Work>
    </rdf:RDF>
  </metadata>
  <defs
     id="defs66" />
  <sodipodi:namedview
     pagecolor="#ffffff"
     bordercolor="#666666"
     borderopacity="1"
     objecttolerance="10"
     gridtolerance="10"
     guidetolerance="10"
     inkscape:pageopacity="0"
     inkscape:pageshadow="2"
     inkscape:window-width="1920"
     inkscape:window-height="997"
     id="namedview64"
     showgrid="false"
     units="mm"
     fit-margin-top="0"
     fit-margin-left="0"
     fit-margin-right="0"
     fit-margin-bottom="0"
     inkscape:zoom="0.88059701"
     inkscape:cx="119.83182"
     inkscape:cy="66.212062"
     inkscape:window-x="0"
     inkscape:window-y="28"
     inkscape:window-maximized="1"
     inkscape:current-layer="svg62" />
  <path
     style="fill:#000000;fill-opacity:0;stroke:#ff0000;stroke-width:0.56779659;stroke-miterlimit:4;stroke-dasharray:none;stroke-opacity:1"
     d="m 130.44657,130.24624 c -8.99592,-2.46787 -21.12573,-9.02428 -27.87577,-15.06741 -9.650259,-8.63964 -15.704269,-18.67298 -20.860495,-34.5722 -0.571751,-1.76299 -2.378795,-1.98729 -16.01064,-1.98729 -8.451382,0 -15.366149,0.39064 -15.366149,0.86808 0,0.47745 6.641258,7.4946 14.75835,15.59367 l 14.758351,14.72559 -8.779332,8.83113 -8.779332,8.83113 L 31.346502,96.53923 0.4014512,65.60953 30.761552,35.22177 C 47.459607,18.508509 61.645458,4.8276659 62.285666,4.8199019 c 0.640208,-0.0078 4.909061,3.756092 9.486341,8.3641261 L 80.094333,21.562271 65.213925,36.39946 C 57.0297,44.55991 50.333516,51.77657 50.333516,52.43647 c 0,0.78359 5.330716,1.19982 15.366149,1.19982 13.643538,0 15.434958,-0.22278 15.979944,-1.98728 2.771327,-8.97273 7.032462,-18.69724 9.977722,-22.770534 C 101.01054,15.942949 114.2888,6.4889789 128.48308,2.6589489 c 34.04625,-9.186667 68.80976,9.0021631 80.06746,41.8926011 l 2.91517,8.51695 13.68815,0.31885 13.68813,0.31885 v 12.42162 12.42162 l -13.70971,0.31885 -13.70971,0.31885 -3.6364,9.65254 c -7.79838,20.70023 -24.50947,35.71037 -46.16452,41.46564 -7.68783,2.04321 -23.62185,2.013 -31.17508,-0.059 z m 31.88903,-26.5915 c 7.41926,-3.28189 13.91773,-8.9645 18.76669,-16.41061 2.40175,-3.68814 4.36682,-7.13751 4.36682,-7.66525 0,-0.52774 -17.63009,-0.95954 -39.17797,-0.95954 -21.54788,0 -39.17796,0.4318 -39.17796,0.95954 0,0.52774 1.96506,3.97711 4.36681,7.66525 6.42521,9.86659 15.54701,16.52951 25.52927,18.64754 6.76513,1.43543 19.58389,0.30322 25.32634,-2.23693 z m 22.43373,-50.94049 c 0.9329,-1.50948 -5.57017,-11.82243 -10.26627,-16.28082 -9.35783,-8.884169 -23.10538,-13.339886 -34.49445,-11.179994 -7.76046,1.471742 -16.27679,5.813518 -21.92939,11.179994 -4.69609,4.45839 -11.19917,14.77134 -10.26626,16.28082 0.7448,1.20512 76.21157,1.20512 76.95637,0 z"
     id="path4709"
     inkscape:connector-curvature="0" />
</svg>
