<?xml version="1.0" encoding="UTF-8" standalone="no"?>
<!-- Created with Inkscape (http://www.inkscape.org/) -->

<svg
   xmlns:dc="http://purl.org/dc/elements/1.1/"
   xmlns:cc="http://creativecommons.org/ns#"
   xmlns:rdf="http://www.w3.org/1999/02/22-rdf-syntax-ns#"
   xmlns:svg="http://www.w3.org/2000/svg"
   xmlns="http://www.w3.org/2000/svg"
   xmlns:sodipodi="http://sodipodi.sourceforge.net/DTD/sodipodi-0.dtd"
   xmlns:inkscape="http://www.inkscape.org/namespaces/inkscape"
   version="1.1"
   id="svg52"
   width="61.685875mm"
   height="59.76112mm"
   viewBox="0 0 233.14347 225.8688"
   sodipodi:docname="esoterica-tiandism.svg"
   inkscape:version="0.92.5 (2060ec1f9f, 2020-04-08)">
  <metadata
     id="metadata58">
    <rdf:RDF>
      <cc:Work
         rdf:about="">
        <dc:format>image/svg+xml</dc:format>
        <dc:type
           rdf:resource="http://purl.org/dc/dcmitype/StillImage" />
        <dc:title></dc:title>
      </cc:Work>
    </rdf:RDF>
  </metadata>
  <defs
     id="defs56" />
  <sodipodi:namedview
     pagecolor="#ffffff"
     bordercolor="#666666"
     borderopacity="1"
     objecttolerance="10"
     gridtolerance="10"
     guidetolerance="10"
     inkscape:pageopacity="0"
     inkscape:pageshadow="2"
     inkscape:window-width="1920"
     inkscape:window-height="997"
     id="namedview54"
     showgrid="false"
     units="mm"
     fit-margin-top="0"
     fit-margin-left="0"
     fit-margin-right="0"
     fit-margin-bottom="0"
     inkscape:zoom="0.88059701"
     inkscape:cx="117.29299"
     inkscape:cy="113.67297"
     inkscape:window-x="0"
     inkscape:window-y="28"
     inkscape:window-maximized="1"
     inkscape:current-layer="svg52" />
  <path
     style="fill:#000000;fill-opacity:0;stroke:#ff0000;stroke-width:0.56779659;stroke-miterlimit:4;stroke-dasharray:none;stroke-opacity:1"
     d="m 77.900408,0.28567134 c -1.026398,-0.0164 -2.078793,0.08074 -3.138672,0.300781 C 70.387556,1.4945583 56.038648,9.0440043 49.169939,14.051296 c -21.079383,15.366884 -35.104603,34.693095 -43.5429688,60 -3.851274,11.550081 -4.523879,15.131051 -5.12109301,27.253914 -0.861099,17.47944 0.75138101,30.85682 5.35156201,44.3789 10.4900888,30.83527 30.6549028,53.63649 60.7792968,68.72656 9.302535,4.65987 17.26322,7.16595 31.69141,9.97461 5.025854,0.97835 12.960434,1.38911 21.576174,1.11719 44.74057,-1.41202 83.66962,-27.18608 102.83594,-68.08594 9.72112,-20.74433 12.64305,-47.18439 7.87109,-71.224613 -6.94579,-34.991545 -28.54454,-63.697065 -60.65625,-80.6152307 -11.10714,-5.85183996 -17.48428,-6.11195796 -22.33984,-0.914062 -4.80842,5.147431 -4.6506,11.7518937 0.39648,16.6191407 2.02987,1.957546 6.14299,4.606974 9.14258,5.886718 13.69603,5.843257 29.70882,20.886141 38.77148,36.423828 24.74491,42.424489 10.39212,98.336229 -31.78515,123.812499 -11.66581,7.04648 -16.86597,7.56713 -21.42383,2.1504 -5.77729,-6.86594 -3.21723,-13.71268 7.20117,-19.26563 22.12273,-11.79129 36.44245,-35.95623 36.40625,-61.4375 -0.0208,-14.629763 -4.26357,-27.547613 -13.26172,-40.384769 -6.1368,-8.755049 -8.65551,-10.552734 -14.7832,-10.552734 -3.74271,0 -5.67883,0.751841 -8.54688,3.314453 -3.1211,2.788697 -3.70398,4.092315 -3.67968,8.232422 0.0233,3.955713 0.89042,6.031999 4.43164,10.597655 2.42216,3.12288 5.71804,8.48866 7.32421,11.92383 2.53896,5.4301 2.91794,7.73957 2.89454,17.689453 -0.0241,10.27575 -0.3614,12.13164 -3.30469,18.16992 -3.90434,8.00991 -13.19699,17.47619 -21.37695,21.77735 -5.46856,2.87545 -6.88645,3.10137 -19.52344,3.10937 -13.00394,0.008 -13.91291,-0.14744 -19.873054,-3.39843 -8.89024,-4.84922 -16.536412,-12.89369 -20.789061,-21.8711 -3.302743,-6.97213 -3.621048,-8.61725 -3.580078,-18.44336 0.04012,-9.619823 0.420416,-11.587943 3.521484,-18.169923 1.912728,-4.05975 5.29893,-9.2876 7.525395,-11.61914 4.73971,-4.963411 6.05276,-9.56748 4.26953,-14.970703 -1.91089,-5.790054 -6.497769,-8.204499 -14.537112,-7.654297 -4.031087,0.275882 -13.304286,10.934181 -18.369141,21.111328 -17.202766,34.566655 -4.232417,75.404535 29.593753,93.179695 8.43449,4.4322 10.8544,8.1003 9.63476,14.60156 -0.99754,5.31738 -4.22283,7.88247 -10.07226,8.01367 C 74.37302,193.72024 52.59867,177.40368 41.859392,162.06302 31.311443,146.99566 26.77313,133.71558 25.462908,114.0845 22.992817,77.075076 44.976541,40.410857 78.210955,26.113796 88.779236,21.567444 92.098156,14.814023 88.003926,6.1860613 86.284776,2.5632283 82.348132,0.35674634 77.900408,0.28567134 Z M 116.0176,86.432157 c -5.74615,0.17372 -11.57782,2.55406 -16.208994,7.43359 -6.5285,6.878603 -8.16256,15.730653 -4.36914,23.667973 3.14171,6.57368 5.873414,9.57342 10.919934,11.99414 6.62918,3.17989 16.95595,2.49108 23.04297,-1.53711 8.09468,-5.35681 11.59525,-15.59383 8.68359,-25.39844 -3.1511,-10.610883 -12.49145,-16.449683 -22.06836,-16.160153 z"
     id="path5920"
     inkscape:connector-curvature="0" />
</svg>
