<?xml version="1.0" encoding="UTF-8" standalone="no"?>
<!-- Created with Inkscape (http://www.inkscape.org/) -->

<svg
   xmlns:dc="http://purl.org/dc/elements/1.1/"
   xmlns:cc="http://creativecommons.org/ns#"
   xmlns:rdf="http://www.w3.org/1999/02/22-rdf-syntax-ns#"
   xmlns:svg="http://www.w3.org/2000/svg"
   xmlns="http://www.w3.org/2000/svg"
   xmlns:sodipodi="http://sodipodi.sourceforge.net/DTD/sodipodi-0.dtd"
   xmlns:inkscape="http://www.inkscape.org/namespaces/inkscape"
   version="1.1"
   id="svg52"
   width="38.424274mm"
   height="61.832275mm"
   viewBox="0 0 145.22561 233.69679"
   sodipodi:docname="hermetica-saturn.svg"
   inkscape:version="0.92.5 (2060ec1f9f, 2020-04-08)">
  <metadata
     id="metadata58">
    <rdf:RDF>
      <cc:Work
         rdf:about="">
        <dc:format>image/svg+xml</dc:format>
        <dc:type
           rdf:resource="http://purl.org/dc/dcmitype/StillImage" />
        <dc:title></dc:title>
      </cc:Work>
    </rdf:RDF>
  </metadata>
  <defs
     id="defs56" />
  <sodipodi:namedview
     pagecolor="#ffffff"
     bordercolor="#666666"
     borderopacity="1"
     objecttolerance="10"
     gridtolerance="10"
     guidetolerance="10"
     inkscape:pageopacity="0"
     inkscape:pageshadow="2"
     inkscape:window-width="1920"
     inkscape:window-height="997"
     id="namedview54"
     showgrid="false"
     units="mm"
     fit-margin-top="0"
     fit-margin-left="0"
     fit-margin-right="0"
     fit-margin-bottom="0"
     inkscape:zoom="0.88059701"
     inkscape:cx="359.35848"
     inkscape:cy="71.247756"
     inkscape:window-x="0"
     inkscape:window-y="28"
     inkscape:window-maximized="1"
     inkscape:current-layer="svg52" />
  <path
     style="fill:#ffff00;fill-opacity:0.01829266;stroke:#ff0000;stroke-width:0.56779659;stroke-miterlimit:4;stroke-dasharray:none;stroke-opacity:1"
     d="m 111.54872,233.06991 c -5.74361,-0.67281 -13.746512,-4.95279 -18.365872,-9.82211 -1.68227,-1.77329 -4.42056,-6.20181 -6.08508,-9.84115 -2.57098,-5.62123 -2.95258,-7.75729 -2.53584,-14.19492 0.53814,-8.31291 1.59643,-10.74018 17.269702,-39.60956 10.21947,-18.82375 11.49363,-24.40083 7.902,-34.58763 -2.64202,-7.49345 -10.684392,-15.81626 -17.157322,-17.7556 -15.33712,-4.59511 -30.48261,1.96032 -36.76398,15.91256 -2.56538,5.69827 -2.72284,7.40976 -3.08593,33.54279 l -0.38261,27.53814 H 40.508758 28.673728 V 118.95582 53.659207 H 14.478818 0.28389829 V 41.202634 28.746061 l 13.91101971,-0.31885 13.91102,-0.318851 0.31885,-13.911017 0.31885,-13.91101672 12.17268,-0.0012 12.17267,-0.0012 V 14.196168 28.108409 l 14.19492,0.315442 14.19491,0.315441 -0.19897,12.176084 -0.19897,12.176084 -13.99595,0.567796 -13.99594,0.567797 -0.31426,16.75 c -0.17787,9.480807 0.13219,16.749995 0.71447,16.749995 0.5658,0 4.02882,-1.40529 7.69561,-3.12288 6.20119,-2.904736 7.6981,-3.122878 21.4296,-3.122878 h 14.76272 l 8.516942,4.341358 c 10.38549,5.2938 18.13638,12.60262 23.52574,22.183942 10.15571,18.05504 9.31259,36.4957 -2.66316,58.248 -3.55859,6.46367 -7.90815,14.40332 -9.66571,17.64365 -1.75754,3.24034 -4.2274,7.58398 -5.48857,9.65254 -3.10448,5.09196 -3.0101,10.51728 0.22235,12.78138 2.86002,2.00323 9.46178,2.36944 10.56401,0.58599 0.97634,-1.57976 4.46595,-0.3766 11.32738,3.90552 3.12288,1.94895 7.06645,4.25483 8.7635,5.12418 3.05088,1.56289 3.06374,1.61755 1.14444,4.86666 -1.06761,1.80732 -4.57671,5.10124 -7.798,7.31982 -6.37931,4.3936 -14.61361,6.06765 -24.27733,4.93563 z"
     id="path5307"
     inkscape:connector-curvature="0" />
</svg>
