<?xml version="1.0" encoding="UTF-8" standalone="no"?>
<!-- Created with Inkscape (http://www.inkscape.org/) -->

<svg
   xmlns:dc="http://purl.org/dc/elements/1.1/"
   xmlns:cc="http://creativecommons.org/ns#"
   xmlns:rdf="http://www.w3.org/1999/02/22-rdf-syntax-ns#"
   xmlns:svg="http://www.w3.org/2000/svg"
   xmlns="http://www.w3.org/2000/svg"
   xmlns:sodipodi="http://sodipodi.sourceforge.net/DTD/sodipodi-0.dtd"
   xmlns:inkscape="http://www.inkscape.org/namespaces/inkscape"
   version="1.1"
   id="svg12"
   width="39.876301mm"
   height="61.744335mm"
   viewBox="0 0 150.71358 233.36442"
   sodipodi:docname="esoterica-beltane.svg"
   inkscape:version="0.92.5 (2060ec1f9f, 2020-04-08)">
  <metadata
     id="metadata18">
    <rdf:RDF>
      <cc:Work
         rdf:about="">
        <dc:format>image/svg+xml</dc:format>
        <dc:type
           rdf:resource="http://purl.org/dc/dcmitype/StillImage" />
        <dc:title></dc:title>
      </cc:Work>
    </rdf:RDF>
  </metadata>
  <defs
     id="defs16" />
  <sodipodi:namedview
     pagecolor="#ffffff"
     bordercolor="#666666"
     borderopacity="1"
     objecttolerance="10"
     gridtolerance="10"
     guidetolerance="10"
     inkscape:pageopacity="0"
     inkscape:pageshadow="2"
     inkscape:window-width="1920"
     inkscape:window-height="997"
     id="namedview14"
     showgrid="false"
     units="mm"
     fit-margin-top="0"
     fit-margin-left="0"
     fit-margin-right="0"
     fit-margin-bottom="0"
     inkscape:zoom="0.88059701"
     inkscape:cx="75.626328"
     inkscape:cy="116.34153"
     inkscape:window-x="0"
     inkscape:window-y="28"
     inkscape:window-maximized="1"
     inkscape:current-layer="svg12" />
  <path
     style="fill:#000000;fill-opacity:0;stroke:#ff0000;stroke-width:0.56779659;stroke-miterlimit:4;stroke-dasharray:none;stroke-opacity:1"
     d="m 62.907688,200.24539 v -32.83511 l -5.39407,-3.09681 c -2.96674,-1.70324 -7.43814,-4.24473 -9.93644,-5.64775 -2.49831,-1.40303 -9.141528,-5.24343 -14.762714,-8.53422 -5.621187,-3.2908 -13.286441,-7.77883 -17.033899,-9.9734 -3.747457,-2.19456 -8.7298732,-4.97846 -11.0720342,-6.18642 -2.342161,-1.20798 -4.25847399,-2.55388 -4.25847399,-2.99091 0,-0.43703 1.52623899,-3.20122 3.39164199,-6.14266 1.865404,-2.94143 4.430874,-7.38512 5.701046,-9.87487 1.2701722,-2.48974 2.7325272,-4.5268 3.2496772,-4.5268 0.517151,0 4.335136,1.91631 8.484411,4.25847 20.581725,11.61787 33.402585,19.04148 36.128185,20.91919 5.2825,3.63918 5.60489,3.0267 5.25719,-9.98738 L 62.339888,113.56277 39.628023,100.46821 C 27.136497,93.266201 13.33904,85.342651 8.9670058,82.860328 4.5949718,80.378002 0.83627981,78.188735 0.61435681,77.99529 0.28328681,77.706704 2.6519428,73.332346 12.414991,56.202254 c 0.162986,-0.285974 2.949828,1.288819 34.348657,19.409783 8.29662,4.788167 15.32311,8.705764 15.6144,8.705764 0.2913,0 0.52964,-5.514737 0.52964,-12.254966 V 59.807874 l -5.96187,-3.103469 C 50.759638,53.484166 12.195237,31.255611 4.6707408,26.573003 L 0.38268481,23.904481 3.4160868,18.62385 c 1.668371,-2.904347 4.28788,-7.580206 5.821131,-10.3907997 1.5332512,-2.810593 2.9320522,-5.261173 3.1084472,-5.445734 0.176395,-0.18456 3.065477,1.289583 6.420182,3.275874 3.354706,1.986291 8.654549,5.0219867 11.77743,6.7459897 7.939253,4.382908 24.923421,14.265489 28.150281,16.379815 1.48062,0.970137 3.03451,1.421416 3.45308,1.002841 0.41858,-0.418575 0.76105,-7.319096 0.76105,-15.334492 V 0.28389829 h 12.49152 12.49153 V 14.857344 c 0,8.015396 0.31702,14.890474 0.7045,15.277952 0.38748,0.387478 3.32583,-0.965393 6.52966,-3.00638 3.20384,-2.040988 7.358212,-4.490255 9.231942,-5.442816 1.87373,-0.952561 8.00593,-4.425749 13.62712,-7.718194 5.62118,-3.292445 12.34518,-7.1974317 14.94221,-8.6777487 l 4.72188,-2.691486 3.33953,5.372274 c 1.83673,2.9547507 4.68974,7.7550497 6.33999,10.6673327 l 3.00049,5.295057 -16.17205,9.38663 c -8.89463,5.162646 -19.27279,11.211651 -23.06257,13.44223 -3.78978,2.230581 -10.54893,6.099669 -15.020322,8.597974 l -8.12982,4.542373 -0.0263,12.207627 c -0.0145,6.714195 0.18013,12.207632 0.43242,12.207632 0.44707,0 7.26196,-3.859855 22.253162,-12.603844 4.05975,-2.367948 10.19195,-5.846095 13.62712,-7.729217 3.43517,-1.883123 7.82249,-4.46321 9.74959,-5.733528 l 3.50383,-2.309668 3.41134,5.387278 c 1.87624,2.963004 4.73738,7.818974 6.3581,10.791046 l 2.94674,5.403767 -4.16367,2.829284 c -2.29001,1.556106 -4.54613,2.829282 -5.0136,2.829282 -0.46745,0 -3.6459,1.78856 -7.06319,3.97458 -3.4173,2.18602 -6.4834,3.97457 -6.81356,3.97457 -0.33016,0 -3.39627,1.78856 -6.81356,3.97458 -3.4173,2.18602 -6.50584,3.97458 -6.86344,3.97458 -0.3576,0 -3.88673,2.044059 -7.84252,4.542369 -3.95579,2.49831 -7.530532,4.54237 -7.943882,4.54237 -0.41335,0 -2.78546,1.28396 -5.27136,2.85323 l -4.5198,2.85323 v 11.90948 c 0,9.01483 0.35881,11.90949 1.47627,11.90949 0.81195,0 2.00474,-0.52847 2.65066,-1.17439 1.18493,-1.18493 13.874302,-8.65378 25.398492,-14.94932 3.43517,-1.8766 7.01229,-4.00242 7.94915,-4.72407 2.79564,-2.15339 12.3701,-6.91761 12.7768,-6.35769 1.80848,2.48983 6.52829,10.25285 6.52829,10.73758 0,0.33809 1.31442,2.69691 2.92096,5.24181 1.60652,2.54491 2.75631,4.74426 2.55508,4.88747 -0.20123,0.1432 -7.77562,4.52383 -16.83197,9.73472 -19.00793,10.93689 -25.7728,14.85833 -37.190682,21.55857 l -8.23305,4.83131 v 32.80192 32.80192 h -12.49153 -12.49152 z"
     id="path6539"
     inkscape:connector-curvature="0" />
</svg>
