<?xml version="1.0" encoding="UTF-8" standalone="no"?>
<!-- Created with Inkscape (http://www.inkscape.org/) -->

<svg
   xmlns:dc="http://purl.org/dc/elements/1.1/"
   xmlns:cc="http://creativecommons.org/ns#"
   xmlns:rdf="http://www.w3.org/1999/02/22-rdf-syntax-ns#"
   xmlns:svg="http://www.w3.org/2000/svg"
   xmlns="http://www.w3.org/2000/svg"
   xmlns:sodipodi="http://sodipodi.sourceforge.net/DTD/sodipodi-0.dtd"
   xmlns:inkscape="http://www.inkscape.org/namespaces/inkscape"
   version="1.1"
   id="svg12"
   width="45.820004mm"
   height="44.683037mm"
   viewBox="0 0 173.17797 168.88077"
   sodipodi:docname="hermetica-dagaz.svg"
   inkscape:version="0.92.5 (2060ec1f9f, 2020-04-08)">
  <metadata
     id="metadata18">
    <rdf:RDF>
      <cc:Work
         rdf:about="">
        <dc:format>image/svg+xml</dc:format>
        <dc:type
           rdf:resource="http://purl.org/dc/dcmitype/StillImage" />
        <dc:title></dc:title>
      </cc:Work>
    </rdf:RDF>
  </metadata>
  <defs
     id="defs16" />
  <sodipodi:namedview
     pagecolor="#ffffff"
     bordercolor="#666666"
     borderopacity="1"
     objecttolerance="10"
     gridtolerance="10"
     guidetolerance="10"
     inkscape:pageopacity="0"
     inkscape:pageshadow="2"
     inkscape:window-width="1920"
     inkscape:window-height="997"
     id="namedview14"
     showgrid="false"
     units="mm"
     fit-margin-top="0"
     fit-margin-left="0"
     fit-margin-right="0"
     fit-margin-bottom="0"
     inkscape:zoom="0.88059701"
     inkscape:cx="86.816101"
     inkscape:cy="83.654501"
     inkscape:window-x="0"
     inkscape:window-y="28"
     inkscape:window-maximized="1"
     inkscape:current-layer="svg12" />
  <path
     style="fill:#ff0000;fill-opacity:0.01829266;stroke:#ff0000;stroke-width:0.56779659;stroke-miterlimit:4;stroke-dasharray:none;stroke-opacity:1"
     d="m 0.28389829,85.024101 c 0,-46.607111 0.207159,-84.74020271 0.460354,-84.74020271 0.43432901,0 7.61578101,5.70087501 12.59896771,10.00147971 1.249152,1.078047 5.848305,4.804419 10.220339,8.280825 4.372034,3.476407 11.717144,9.344589 16.322466,13.040404 4.605322,3.695815 10.032515,7.997206 12.060428,9.558647 2.027918,1.561441 10.013308,7.913937 17.745328,14.116657 7.73202,6.20272 14.69578,11.75772 15.47503,12.34445 0.9663,0.72757 2.77178,0.0493 5.67797,-2.1329 2.34363,-1.75982 4.51666,-3.4992 4.82895,-3.86529 0.61461,-0.72051 32.644499,-26.388688 37.579389,-30.115459 8.65582,-6.536774 36.99627,-29.5722217 38.22145,-31.06683471 1.13837,-1.388705 1.4195,15.18714271 1.4195,83.69482371 0,81.013939 -0.10266,85.370569 -1.98729,84.343859 -1.09301,-0.59545 -5.91247,-4.3183 -10.7099,-8.273 -4.79743,-3.95471 -11.44065,-9.36347 -14.76271,-12.01947 -30.94959,-24.74441 -39.19038,-31.35449 -48.057049,-38.5474 -5.62119,-4.56008 -10.60213,-8.29149 -11.06877,-8.29202 -0.46663,-5.4e-4 -2.76621,1.7031 -5.11016,3.78586 -2.34397,2.08277 -10.56357,8.76785 -18.26578,14.85573 -7.70222,6.08789 -14.856461,11.79457 -15.898309,12.68151 -7.591567,6.46279 -39.9403187,32.26087 -44.5524987,35.53053 -2.16749701,1.5366 -2.19770501,0.39321 -2.19770501,-83.182199 z M 35.326268,110.1996 c 4.148306,-3.25313 10.929534,-8.74657 15.069396,-12.207619 4.139857,-3.46106 9.444637,-7.77325 11.788397,-9.58266 4.16482,-3.2153 4.21045,-3.33108 2.01401,-5.11017 -27.684018,-22.42371 -36.892615,-29.64237 -37.813758,-29.64237 -0.70567,0 -1.117365,11.5063 -1.117365,31.22881 0,22.094979 0.36808,31.228819 1.258473,31.228819 0.692161,0 4.652542,-2.66166 8.800847,-5.91481 z M 146.77542,84.885591 c 0,-17.17585 -0.29207,-31.22881 -0.64906,-31.22881 -0.57514,0 -21.76395,16.59473 -23.1984,18.16861 -0.31228,0.34265 -4.01716,3.33761 -8.23305,6.65548 -4.21589,3.31786 -7.63612,6.37174 -7.60052,6.7864 0.0356,0.41465 4.72399,4.33103 10.41863,8.70307 5.69466,4.37203 14.20771,11.143009 18.91789,15.046609 4.71018,3.9036 8.96458,7.09746 9.45424,7.09746 0.48965,0 0.89027,-14.05297 0.89027,-31.228819 z"
     id="path6565"
     inkscape:connector-curvature="0" />
</svg>
