<?xml version="1.0" encoding="UTF-8" standalone="no"?>
<!-- Created with Inkscape (http://www.inkscape.org/) -->

<svg
   xmlns:dc="http://purl.org/dc/elements/1.1/"
   xmlns:cc="http://creativecommons.org/ns#"
   xmlns:rdf="http://www.w3.org/1999/02/22-rdf-syntax-ns#"
   xmlns:svg="http://www.w3.org/2000/svg"
   xmlns="http://www.w3.org/2000/svg"
   xmlns:sodipodi="http://sodipodi.sourceforge.net/DTD/sodipodi-0.dtd"
   xmlns:inkscape="http://www.inkscape.org/namespaces/inkscape"
   version="1.1"
   id="svg22"
   width="64.140373mm"
   height="64.425575mm"
   viewBox="0 0 242.42031 243.49824"
   sodipodi:docname="esoterica-therianthrope.svg"
   inkscape:version="0.92.5 (2060ec1f9f, 2020-04-08)">
  <metadata
     id="metadata28">
    <rdf:RDF>
      <cc:Work
         rdf:about="">
        <dc:format>image/svg+xml</dc:format>
        <dc:type
           rdf:resource="http://purl.org/dc/dcmitype/StillImage" />
        <dc:title></dc:title>
      </cc:Work>
    </rdf:RDF>
  </metadata>
  <defs
     id="defs26" />
  <sodipodi:namedview
     pagecolor="#ffffff"
     bordercolor="#666666"
     borderopacity="1"
     objecttolerance="10"
     gridtolerance="10"
     guidetolerance="10"
     inkscape:pageopacity="0"
     inkscape:pageshadow="2"
     inkscape:window-width="1920"
     inkscape:window-height="997"
     id="namedview24"
     showgrid="false"
     units="mm"
     fit-margin-top="0"
     fit-margin-left="0"
     fit-margin-right="0"
     fit-margin-bottom="0"
     inkscape:zoom="0.88059701"
     inkscape:cx="122.34429"
     inkscape:cy="122.67917"
     inkscape:window-x="0"
     inkscape:window-y="28"
     inkscape:window-maximized="1"
     inkscape:current-layer="svg22" />
  <path
     style="fill:#000000;fill-opacity:0;stroke:#ff0000;stroke-width:0.56779659;stroke-miterlimit:4;stroke-dasharray:none;stroke-opacity:1"
     d="M 123.39312,0.56321595 119.3482,6.8874339 c -2.22441,3.4773131 -4.04493,6.6381641 -4.04493,7.0253911 0,0.387227 -1.6113,3.315856 -3.58007,6.507812 -1.96877,3.191961 -4.75203,7.897425 -6.18555,10.457032 l -2.60547,4.654297 5.46875,-0.525391 c 5.10988,-0.490995 5.578,-0.312376 7.10938,2.726562 0.90162,1.789221 8.06226,14.495651 15.9121,28.236329 7.84983,13.740678 15.41418,27.027089 16.8086,29.525389 5.04082,9.031375 35.5671,62.551075 37.80078,66.273435 2.86291,4.77094 3.66039,3.61459 5.46094,-7.9082 2.63218,-16.84483 -0.51962,-34.233 -8.82617,-48.68164 -1.62554,-2.82753 -4.84046,-8.461745 -7.14454,-12.521485 -4.92875,-8.684376 -16.5751,-29.1064 -18.45703,-32.365234 -0.72137,-1.249152 -3.25895,-5.719657 -5.63867,-9.935547 C 147.16234,42.802138 143.04918,35.591398 133.4439,18.842513 130.75749,14.15819 127.39593,8.1285399 125.97515,5.4440749 Z M 107.55132,41.168684 c -1.4991,0.0037 -3.48466,0.560257 -6.66992,1.154297 -18.076748,3.371254 -37.06325,13.955782 -51.242184,28.566406 -14.263024,14.697277 -23.83768,32.480483 -26.986328,50.126953 -1.594944,8.9388 -2.082094,29.34944 -0.875,36.65234 0.387135,2.34216 0.838608,4.25977 1.003906,4.25977 0.165297,0 1.290078,-1.91761 2.498047,-4.25977 1.207969,-2.34216 3.99098,-7.32482 6.185547,-11.07227 13.388764,-22.86274 16.494757,-28.34255 21.707031,-38.3164 8.071772,-15.445575 20.503404,-28.063736 35.076172,-35.599607 5.190493,-2.684108 21.191699,-7.261088 25.835929,-7.390625 2.2321,-0.06226 5.18916,-0.447345 6.57227,-0.853515 2.46053,-0.722584 2.40397,-0.933336 -2.68555,-9.822266 -6.17855,-10.790961 -7.12191,-13.453376 -10.41992,-13.445313 z m 49.16406,4.927735 c -0.41491,0 0.40281,1.917604 1.81641,4.259765 2.91363,4.827501 10.21405,17.641061 14.39453,25.265625 1.54102,2.810593 4.15243,7.410263 5.80469,10.220704 17.52983,29.817527 19.88843,36.493357 19.86133,56.212887 -0.0191,13.94379 -1.30627,19.66376 -7.60547,33.7832 l -1.90039,4.25781 h 13.66992 13.67187 l 1.16797,-3.07226 c 5.63757,-14.82797 8.02119,-35.11069 5.69532,-48.4668 -1.32432,-7.60483 -6.13084,-24.62695 -7.89258,-27.95117 -0.49651,-0.936855 -2.37961,-4.514045 -4.1836,-7.949215 -9.17876,-17.478265 -26.93499,-34.17217 -45.4414,-42.722656 -4.56772,-2.110417 -8.64368,-3.83789 -9.0586,-3.83789 z M 108.98101,72.598372 C 106.0298,72.31498 90.536354,78.502557 83.969294,82.729231 74.337884,88.928175 67.3663,96.532265 61.221247,107.54368 c -2.576056,4.61607 -8.382314,14.78069 -12.902344,22.58789 -4.52003,7.80721 -10.277006,17.77055 -12.792968,22.14258 -2.515963,4.37204 -6.204674,10.76014 -8.199219,14.19531 -1.994544,3.43517 -7.86525,13.65654 -13.044922,22.71289 -5.1796716,9.05636 -10.3910776,17.87031 -11.5800776,19.58789 l -2.16015603,3.12305 H 20.6607 40.779841 l -3.263672,-3.4043 c -3.223983,-3.36511 -3.238433,-3.44905 -1.353516,-7.09765 1.049083,-2.03069 2.404449,-4.45962 3.011719,-5.39649 0.607271,-0.93686 4.012815,-6.81283 7.56836,-13.05859 7.552914,-13.26767 25.01451,-43.52017 26.546874,-45.99219 0.580748,-0.93686 3.967371,-6.81283 7.525391,-13.05859 3.55802,-6.24576 8.812687,-15.36494 11.677737,-20.26368 2.86504,-4.898735 5.97524,-10.275395 6.91211,-11.949205 0.936856,-1.6738 3.679766,-6.506558 6.093746,-10.740239 2.41397,-4.23368 4.16772,-7.918214 3.89843,-8.1875 -0.0789,-0.0789 -0.21926,-0.127591 -0.41601,-0.146484 z M 97.133354,127.86009 v 13.05859 13.06055 h 25.550776 25.55078 v -13.06055 -13.05859 h -25.55078 z m 127.832026,50.98437 c -0.66127,-0.0207 -1.85986,1.59777 -2.76171,4.0918 l -1.4375,3.97461 -76.29493,0.0527 -76.294915,0.0547 7.38086,6.79883 c 7.453356,6.86624 16.938629,12.18437 28.390625,15.91797 5.70581,1.86022 11.97494,2.04185 72.51562,2.09765 56.27898,0.0519 66.17704,-0.17844 65.66016,-1.52539 -0.33475,-0.87233 -4.22032,-7.83212 -8.63672,-15.4668 -4.4164,-7.63468 -8.03125,-14.33151 -8.03125,-14.88086 0,-0.75855 -0.18966,-1.10581 -0.49024,-1.11523 z m -168.968742,0.86914 -3.5625,5.85352 c -1.959428,3.21943 -5.185427,8.68337 -7.169922,12.14062 l -3.609375,6.28516 6.375,6.88672 c 15.611979,16.8628 36.354783,27.85776 59.892569,31.74804 3.12289,0.51612 11.29959,0.73189 18.16993,0.48047 20.67012,-0.75642 40.12449,-7.55895 56.55468,-19.77734 l 5.45313,-4.05664 -40.08984,-0.6543 C 106.15984,217.93491 105.56215,217.86488 92.023984,212.22141 79.422868,206.96856 62.79564,192.86269 57.7857,183.17454 Z"
     id="path4805"
     inkscape:connector-curvature="0" />
</svg>
