<?xml version="1.0" encoding="UTF-8" standalone="no"?>
<!-- Created with Inkscape (http://www.inkscape.org/) -->

<svg
   xmlns:dc="http://purl.org/dc/elements/1.1/"
   xmlns:cc="http://creativecommons.org/ns#"
   xmlns:rdf="http://www.w3.org/1999/02/22-rdf-syntax-ns#"
   xmlns:svg="http://www.w3.org/2000/svg"
   xmlns="http://www.w3.org/2000/svg"
   xmlns:sodipodi="http://sodipodi.sourceforge.net/DTD/sodipodi-0.dtd"
   xmlns:inkscape="http://www.inkscape.org/namespaces/inkscape"
   version="1.1"
   id="svg42"
   width="62.044643mm"
   height="35.604397mm"
   viewBox="0 0 234.49944 134.5678"
   sodipodi:docname="esoterica-birb.svg"
   inkscape:version="0.92.5 (2060ec1f9f, 2020-04-08)">
  <metadata
     id="metadata48">
    <rdf:RDF>
      <cc:Work
         rdf:about="">
        <dc:format>image/svg+xml</dc:format>
        <dc:type
           rdf:resource="http://purl.org/dc/dcmitype/StillImage" />
        <dc:title></dc:title>
      </cc:Work>
    </rdf:RDF>
  </metadata>
  <defs
     id="defs46" />
  <sodipodi:namedview
     pagecolor="#ffffff"
     bordercolor="#666666"
     borderopacity="1"
     objecttolerance="10"
     gridtolerance="10"
     guidetolerance="10"
     inkscape:pageopacity="0"
     inkscape:pageshadow="2"
     inkscape:window-width="1920"
     inkscape:window-height="997"
     id="namedview44"
     showgrid="false"
     inkscape:zoom="0.88059701"
     inkscape:cx="117.47726"
     inkscape:cy="67.51046"
     inkscape:window-x="0"
     inkscape:window-y="28"
     inkscape:window-maximized="1"
     inkscape:current-layer="svg42"
     units="mm"
     fit-margin-top="0"
     fit-margin-left="0"
     fit-margin-right="0"
     fit-margin-bottom="0" />
  <path
     style="fill:#000000;fill-opacity:0;stroke:#ff0000;stroke-width:0.56779659;stroke-miterlimit:4;stroke-dasharray:none;stroke-opacity:1"
     d="M 0.28389829,0.28389829 V 67.283896 134.2839 H 12.776085 25.266319 V 67.283896 0.28389829 H 12.776085 Z m 208.94922171,0 V 67.283896 134.2839 h 12.49219 12.49023 V 67.283896 0.28389829 H 221.72531 Z M 198.51437,5.8444453 c -1.26589,-0.03398 -3.09953,1.602716 -5.74805,3.203125 -12.31921,7.4440747 -23.48455,13.9492187 -23.94531,13.9492187 -0.28281,0 -2.6292,1.333832 -5.21289,2.964844 -2.58369,1.631013 -6.78905,4.10991 -9.3457,5.507812 -2.55665,1.397903 -7.96955,4.479571 -12.0293,6.849611 -4.05974,2.37004 -11.3506,6.57058 -16.20117,9.33398 l -8.81836,5.02539 -16.16406,-9.37109 C 84.355527,33.628726 73.171387,27.243712 67.094445,23.92257 65.168714,22.870129 60.641249,20.186264 57.033898,17.95968 c -3.607353,-2.226584 -6.854633,-4.048828 -7.216797,-4.048828 -0.362163,0 -3.351425,-1.701309 -6.642578,-3.78125 -11.100195,-7.0150967 -9.958985,-13.5705727 -9.958985,57.191404 0,34.332094 0.383131,62.410394 0.851563,62.396494 0.468432,-0.0139 2.129965,-1.02472 3.691406,-2.2461 1.561441,-1.22138 3.272299,-2.23219 3.802734,-2.24609 0.530436,-0.0139 3.916086,-1.84764 7.523438,-4.07422 3.607352,-2.22659 8.134816,-4.9085 10.060547,-5.96094 6.592548,-3.60293 17.795561,-10.00991 31.986331,-18.291014 7.8072,-4.55593 16.881513,-9.81245 20.166013,-11.68164 l 5.97266,-3.39844 13.33398,7.66406 c 7.33329,4.21469 16.39903,9.45288 20.14649,11.640634 3.74746,2.18776 8.85717,5.12011 11.35547,6.51757 2.49831,1.39746 9.14053,5.24684 14.76171,8.55469 5.62118,3.30786 13.41476,7.74459 17.31836,9.85742 l 7.09766,3.83985 V 67.395226 c 0,-50.459138 0.46552,-61.4639497 -2.76953,-61.5507807 z M 59.461632,49.115926 c 1.062768,0 8.204905,3.95017 28.539065,15.78711 1.71363,0.99754 3.11904,2.16319 3.12304,2.58985 0.004,0.42665 -3.18624,2.51164 -7.08984,4.63281 -3.9036,2.12118 -10.785899,5.98687 -15.294921,8.5918 -4.50902,2.60493 -8.725407,4.73632 -9.369141,4.73632 -0.754736,0 -1.169922,-6.45351 -1.169922,-18.16992 0,-12.57931 0.387187,-18.16797 1.261719,-18.16797 z m 115.353518,0 c 1.16273,0 1.48633,3.95388 1.48633,18.16797 0,13.80498 -0.3414,18.1588 -1.41992,18.1211 -0.78072,-0.0273 -8.17406,-3.95524 -16.42969,-8.72852 -12.0237,-6.9519 -14.7577,-8.98455 -13.73828,-10.21289 0.69996,-0.8434 4.6451,-3.41711 8.76562,-5.7207 4.12051,-2.3036 10.2715,-5.86254 13.66993,-7.90821 3.39843,-2.04567 6.84855,-3.71875 7.66601,-3.71875 z"
     id="path5325"
     inkscape:connector-curvature="0" />
</svg>
