<?xml version="1.0" encoding="UTF-8" standalone="no"?>
<!-- Created with Inkscape (http://www.inkscape.org/) -->

<svg
   xmlns:dc="http://purl.org/dc/elements/1.1/"
   xmlns:cc="http://creativecommons.org/ns#"
   xmlns:rdf="http://www.w3.org/1999/02/22-rdf-syntax-ns#"
   xmlns:svg="http://www.w3.org/2000/svg"
   xmlns="http://www.w3.org/2000/svg"
   xmlns:sodipodi="http://sodipodi.sourceforge.net/DTD/sodipodi-0.dtd"
   xmlns:inkscape="http://www.inkscape.org/namespaces/inkscape"
   version="1.1"
   id="svg2"
   width="62.03413mm"
   height="62.16795mm"
   viewBox="0 0 234.45971 234.96548"
   sodipodi:docname="hermetica-occita.svg"
   inkscape:version="0.92.5 (2060ec1f9f, 2020-04-08)">
  <metadata
     id="metadata8">
    <rdf:RDF>
      <cc:Work
         rdf:about="">
        <dc:format>image/svg+xml</dc:format>
        <dc:type
           rdf:resource="http://purl.org/dc/dcmitype/StillImage" />
        <dc:title></dc:title>
      </cc:Work>
    </rdf:RDF>
  </metadata>
  <defs
     id="defs6" />
  <sodipodi:namedview
     pagecolor="#ffffff"
     bordercolor="#666666"
     borderopacity="1"
     objecttolerance="10"
     gridtolerance="10"
     guidetolerance="10"
     inkscape:pageopacity="0"
     inkscape:pageshadow="2"
     inkscape:window-width="1920"
     inkscape:window-height="997"
     id="namedview4"
     showgrid="false"
     inkscape:zoom="0.88059701"
     inkscape:cx="117.06104"
     inkscape:cy="117.24154"
     inkscape:window-x="0"
     inkscape:window-y="28"
     inkscape:window-maximized="1"
     inkscape:current-layer="svg2"
     units="mm"
     fit-margin-top="0"
     fit-margin-left="0"
     fit-margin-right="0"
     fit-margin-bottom="0" />
  <path
     style="fill:#ff0000;fill-opacity:0.01829266;stroke:#ff0000;stroke-width:0.56779659;stroke-miterlimit:4;stroke-dasharray:none;stroke-opacity:1"
     d="m 113.42714,234.15657 c -0.93686,-0.31971 -5.2826,-2.0304 -9.6572,-3.80154 -11.600559,-4.69669 -26.723964,-7.05315 -50.193617,-7.82091 l -20.672853,-0.67627 5.778552,-6.24576 c 17.799668,-19.23882 25.648797,-29.97641 32.565338,-44.54928 2.587863,-5.45253 4.705206,-10.43494 4.705206,-11.07203 0,-2.29267 -4.165965,-1.0417 -15.243855,4.57748 -15.325016,7.77349 -23.757375,14.09495 -44.942585,33.69201 L 11.791549,201.9369 11.09803,177.82957 C 10.32082,150.81309 9.365845,144.70533 3.535354,129.46075 -0.98620601,117.63854 -1.021255,118.33108 4.882855,102.83512 9.335802,91.147887 11.214006,76.862491 11.219187,54.641744 c 0.0025,-10.773941 0.304567,-19.588983 0.671235,-19.588983 0.366668,0 5.349084,4.2218 11.072034,9.381778 5.72295,5.159978 13.720424,11.926329 17.772163,15.036337 8.724736,6.696875 33.032225,19.103201 34.517833,17.617593 C 76.658834,75.682086 67.635716,56.776872 60.880545,46.976489 57.867007,42.604455 50.571587,33.567501 44.668501,26.894369 38.765414,20.221236 33.935617,14.472296 33.935617,14.118946 c 0,-0.353352 8.048517,-0.646317 17.885593,-0.651035 24.377095,-0.01169 39.357761,-2.655141 57.06356,-10.0692811 l 7.38135,-3.09087598 7.38136,3.08689898 c 17.90561,7.4881641 32.6606,10.0616691 57.75424,10.0732581 l 18.57627,0.0086 -9.49153,10.343095 c -11.84574,12.908531 -17.85565,20.792349 -24.14528,31.673855 -5.25765,9.09608 -10.52369,21.192601 -9.61952,22.096776 0.94492,0.94492 15.98244,-5.664192 23.85884,-10.48616 10.46246,-6.40515 16.91879,-11.413131 29.00185,-22.495857 5.72985,-5.25549 10.64791,-9.555437 10.92903,-9.555437 0.2811,0 0.77195,10.348093 1.09077,22.995762 0.50743,20.130226 0.96267,24.481597 3.65324,34.919492 1.69045,6.55805 4.38293,14.881233 5.98328,18.495953 l 2.90972,6.57222 -2.44758,5.35151 c -7.36714,16.1079 -10.39231,32.90095 -10.39231,57.68869 0,10.87515 -0.29803,19.77298 -0.66229,19.77298 -0.36425,0 -6.62421,-5.2648 -13.91102,-11.69957 -7.28679,-6.43476 -16.00857,-13.64347 -19.38171,-16.01935 -10.02253,-7.05939 -30.80433,-16.52445 -30.7699,-14.01413 0.002,0.15615 1.56485,4.11653 3.47269,8.80085 5.67307,13.92914 13.8883,25.76768 30.93029,44.57203 l 10.03435,11.07204 h -19.76886 c -28.40418,0 -37.81693,1.36412 -55.58065,8.05486 -9.10157,3.42814 -9.43834,3.49802 -12.24426,2.54047 z m 10.34626,-28.24145 c 2.7246,-0.9613 9.0488,-2.79304 14.05378,-4.07054 5.00498,-1.27749 9.25774,-2.4799 9.45059,-2.67201 0.19284,-0.19212 -2.38679,-5.64237 -5.73252,-12.11167 -7.33567,-14.18425 -13.1263,-32.32076 -15.61289,-48.9003 -1.65784,-11.05388 -1.66519,-12.2594 -0.0746,-12.25051 0.97033,0.006 9.27707,1.53273 18.45941,3.39403 17.54981,3.55739 36.02505,10.07844 45.29409,15.98707 7.82852,4.99035 8.47234,4.65852 10.63246,-5.47995 1.03131,-4.84047 2.937,-11.74861 4.23485,-15.35144 2.27716,-6.32136 2.29157,-6.72907 0.41201,-11.65065 -1.07125,-2.80503 -2.92765,-9.78152 -4.12533,-15.503313 -1.19769,-5.7218 -2.40169,-10.62734 -2.67555,-10.90121 -0.27387,-0.27386 -1.93266,0.48549 -3.6862,1.68746 -6.38869,4.37914 -23.10874,11.68263 -34.58457,15.106893 -9.63592,2.87526 -29.41511,6.76773 -34.5344,6.79624 -2.06277,0.0115 2.44302,-25.274053 6.94562,-38.977341 2.29249,-6.977002 6.66893,-17.4935 9.72542,-23.369996 3.05648,-5.876496 5.33589,-10.905895 5.06535,-11.176441 -0.27055,-0.270546 -4.86886,-1.46718 -10.21846,-2.659189 -5.34961,-1.192007 -12.20743,-3.109944 -15.23961,-4.262082 -5.36384,-2.038101 -5.65867,-2.037597 -10.89338,0.01861 -2.95919,1.162379 -9.71968,3.080315 -15.023329,4.262084 -5.30365,1.181767 -9.91908,2.424743 -10.2565,2.762169 -0.33743,0.337426 1.18694,3.833773 3.38747,7.769661 7.5285,13.465497 12.960819,29.024813 16.560089,47.431652 1.88892,9.659993 3.24984,17.748183 3.02426,17.973763 -1.11713,1.11719 -25.533048,-3.56756 -36.477848,-6.99912 C 60.173154,99.097367 45.055894,92.455917 38.298056,88.013867 l -3.018927,-1.98439 -0.749769,3.75317 c -0.412373,2.06424 -2.247712,8.6877 -4.078531,14.718803 -1.830818,6.0311 -3.328761,12.0885 -3.328761,13.46088 0,1.37239 1.260268,6.6582 2.800594,11.74624 1.540327,5.08804 3.348583,11.4228 4.018347,14.07724 0.669764,2.65445 1.774622,4.82628 2.455241,4.82628 0.68062,0 3.854779,-1.48754 7.053687,-3.30564 12.533915,-7.12365 28.045927,-12.56812 46.253694,-16.23429 9.88704,-1.99077 18.222039,-3.37398 18.522229,-3.0738 1.28668,1.28668 -6.59145,36.37782 -10.207419,45.46638 -2.143,5.38635 -3.89637,10.06836 -3.89637,10.40449 0,0.33612 -2.10324,4.25915 -4.67386,8.71783 -2.57062,4.45868 -4.48693,8.2261 -4.25847,8.37205 0.22846,0.14594 4.03724,1.16236 8.46395,2.25872 4.42672,1.09635 10.558919,2.94636 13.627119,4.11114 7.0204,2.66516 10.27247,2.78073 16.4926,0.58615 z"
     id="path6607"
     inkscape:connector-curvature="0" />
</svg>
