<?xml version="1.0" encoding="UTF-8" standalone="no"?>
<!-- Created with Inkscape (http://www.inkscape.org/) -->

<svg
   xmlns:dc="http://purl.org/dc/elements/1.1/"
   xmlns:cc="http://creativecommons.org/ns#"
   xmlns:rdf="http://www.w3.org/1999/02/22-rdf-syntax-ns#"
   xmlns:svg="http://www.w3.org/2000/svg"
   xmlns="http://www.w3.org/2000/svg"
   xmlns:sodipodi="http://sodipodi.sourceforge.net/DTD/sodipodi-0.dtd"
   xmlns:inkscape="http://www.inkscape.org/namespaces/inkscape"
   version="1.1"
   id="svg22"
   width="64.60743mm"
   height="64.552513mm"
   viewBox="0 0 244.18556 243.978"
   sodipodi:docname="esoterica-menes.svg"
   inkscape:version="0.92.5 (2060ec1f9f, 2020-04-08)">
  <metadata
     id="metadata28">
    <rdf:RDF>
      <cc:Work
         rdf:about="">
        <dc:format>image/svg+xml</dc:format>
        <dc:type
           rdf:resource="http://purl.org/dc/dcmitype/StillImage" />
        <dc:title></dc:title>
      </cc:Work>
    </rdf:RDF>
  </metadata>
  <defs
     id="defs26" />
  <sodipodi:namedview
     pagecolor="#ffffff"
     bordercolor="#666666"
     borderopacity="1"
     objecttolerance="10"
     gridtolerance="10"
     guidetolerance="10"
     inkscape:pageopacity="0"
     inkscape:pageshadow="2"
     inkscape:window-width="1920"
     inkscape:window-height="997"
     id="namedview24"
     showgrid="false"
     units="mm"
     fit-margin-top="0"
     fit-margin-left="0"
     fit-margin-right="0"
     fit-margin-bottom="0"
     inkscape:zoom="0.88059701"
     inkscape:cx="121.95753"
     inkscape:cy="122.34335"
     inkscape:window-x="0"
     inkscape:window-y="28"
     inkscape:window-maximized="1"
     inkscape:current-layer="svg22" />
  <path
     style="fill:#000000;fill-opacity:0;stroke:#ff0000;stroke-width:0.56779659;stroke-miterlimit:4;stroke-dasharray:none;stroke-opacity:1"
     d="M 77.909051,227.72452 C 69.220544,219.03816 61.117377,210.80557 59.902014,209.42986 L 57.692262,206.92858 81.201284,183.39955 104.71031,159.87052 94.582448,149.78958 84.454588,139.70865 60.722502,163.45746 36.990416,187.20626 18.807057,168.78648 0.62369781,150.3667 l 8.83821499,-8.78638 8.8382152,-8.78637 9.220816,9.48474 9.220816,9.48475 L 51.686744,136.81845 66.631727,121.87347 52.465058,107.6727 C 44.67339,99.862285 37.790378,93.471945 37.169475,93.471945 c -0.620903,0 -5.227723,4.05452 -10.237379,9.010045 L 17.82363,111.49203 9.1112688,102.55868 0.39890881,93.625335 18.691465,75.31676 36.984021,57.008188 60.613141,80.617212 84.24226,104.22623 94.448648,94.067135 104.65504,83.90803 80.987477,60.277462 57.319912,36.646894 75.46517,18.473027 C 91.162758,2.750686 93.855958,0.49429 95.430578,1.745721 c 1.00109,0.795609 5.029562,4.756438 8.952172,8.801843 l 7.132,7.355282 -9.35574,9.404602 -9.355752,9.4046 14.758352,14.758349 14.75836,14.758349 14.73109,-14.763872 14.7311,-14.763873 -9.34937,-9.398192 -9.34936,-9.398192 8.80382,-8.752188 8.80382,-8.752188 18.32202,18.200613 18.32204,18.200612 -23.14982,23.14982 c -12.73239,12.732399 -23.14981,23.578225 -23.14981,24.101835 0,0.523608 4.34701,5.276444 9.66002,10.561864 l 9.66004,9.609845 23.56768,-23.547635 23.56768,-23.547639 18.14665,18.173271 18.14664,18.173268 -8.78084,8.780845 -8.78085,8.78084 -8.83473,-8.78292 c -4.85911,-4.830605 -9.34212,-8.782915 -9.96226,-8.782915 -0.62012,0 -7.50003,6.38786 -15.28867,14.195235 l -14.16116,14.19525 14.72596,14.75871 14.72596,14.75873 9.34508,-9.29655 9.3451,-9.29653 2.53069,2.20274 c 6.26551,5.45359 14.60808,14.64123 14.25536,15.69939 -0.21352,0.64057 -8.26127,9.10826 -17.88387,18.81707 l -17.49564,17.65239 -23.61944,-23.79497 -23.61944,-23.79497 -9.62498,9.57498 c -5.29374,5.26624 -9.62498,10.10208 -9.62498,10.7463 0,0.64422 10.22034,11.38206 22.71186,23.86188 12.49153,12.47982 22.71186,23.00455 22.71186,23.38831 0,0.65939 -26.96471,28.07656 -33.22585,33.78337 l -2.92189,2.6632 -8.82821,-8.74268 -8.82821,-8.74268 9.30039,-9.11515 c 5.11521,-5.01331 9.30039,-9.43946 9.30039,-9.83586 0,-1.20107 -27.76968,-28.50868 -28.99108,-28.50868 -1.30988,0 -28.924182,27.41727 -28.924182,28.71781 0,0.47465 3.83263,4.62172 8.516952,9.21573 4.68432,4.59401 8.51695,8.81022 8.51695,9.36937 0,0.55915 -3.75033,4.74194 -8.33407,9.29509 l -8.334072,8.27845 z M 140.74924,120.79178 c -2.7582,-3.64772 -15.12466,-16.07984 -17.14316,-17.23416 -1.7947,-1.02635 -3.49677,0.23583 -11.74392,8.70877 l -9.64502,9.90909 10.01746,10.06409 10.01746,10.06409 9.91739,-9.87145 c 8.28579,-8.24739 9.69733,-10.16247 8.57979,-11.64043 z"
     id="path5428"
     inkscape:connector-curvature="0" />
</svg>
