<?xml version="1.0" encoding="UTF-8" standalone="no"?>
<!-- Created with Inkscape (http://www.inkscape.org/) -->

<svg
   xmlns:dc="http://purl.org/dc/elements/1.1/"
   xmlns:cc="http://creativecommons.org/ns#"
   xmlns:rdf="http://www.w3.org/1999/02/22-rdf-syntax-ns#"
   xmlns:svg="http://www.w3.org/2000/svg"
   xmlns="http://www.w3.org/2000/svg"
   xmlns:sodipodi="http://sodipodi.sourceforge.net/DTD/sodipodi-0.dtd"
   xmlns:inkscape="http://www.inkscape.org/namespaces/inkscape"
   version="1.1"
   id="svg22"
   width="61.923397mm"
   height="30.630501mm"
   viewBox="0 0 234.04119 115.76882"
   sodipodi:docname="esoterica-lunula_double.svg"
   inkscape:version="0.92.5 (2060ec1f9f, 2020-04-08)">
  <metadata
     id="metadata28">
    <rdf:RDF>
      <cc:Work
         rdf:about="">
        <dc:format>image/svg+xml</dc:format>
        <dc:type
           rdf:resource="http://purl.org/dc/dcmitype/StillImage" />
        <dc:title></dc:title>
      </cc:Work>
    </rdf:RDF>
  </metadata>
  <defs
     id="defs26" />
  <sodipodi:namedview
     pagecolor="#ffffff"
     bordercolor="#666666"
     borderopacity="1"
     objecttolerance="10"
     gridtolerance="10"
     guidetolerance="10"
     inkscape:pageopacity="0"
     inkscape:pageshadow="2"
     inkscape:window-width="1920"
     inkscape:window-height="997"
     id="namedview24"
     showgrid="false"
     inkscape:zoom="0.88059701"
     inkscape:cx="116.66003"
     inkscape:cy="58.42627"
     inkscape:window-x="0"
     inkscape:window-y="28"
     inkscape:window-maximized="1"
     inkscape:current-layer="svg22"
     units="mm"
     fit-margin-top="0"
     fit-margin-left="0"
     fit-margin-right="0"
     fit-margin-bottom="0" />
  <path
     style="fill:#000000;fill-opacity:0;stroke:#ff0000;stroke-width:0.56779659;stroke-miterlimit:4;stroke-dasharray:none;stroke-opacity:1"
     d="M 0.86353203,104.4129 C 2.151608,79.161406 16.694626,49.682146 36.914969,31.335256 52.896164,16.834747 68.261623,8.3014808 87.437977,3.2771148 97.368717,0.67517477 101.09066,0.29096077 116.43291,0.28397277 c 14.72813,-0.0067 19.36291,0.430477 28.38983,2.67792703 33.43435,8.3242172 62.68117,32.5031762 77.5834,64.1398062 4.99066,10.5949 9.59356,27.88682 10.60353,39.834814 l 0.72261,8.54841 h -12.51186 -12.51186 l -0.71763,-5.40973 c -1.66606,-12.559454 -11.97717,-25.296804 -24.58781,-30.373454 -6.83108,-2.74997 -8.84037,-3.06089 -16.64498,-2.57562 -15.34612,0.95419 -25.96667,7.87041 -33.14609,21.58508 -1.87316,3.578264 -3.75219,8.816194 -4.17562,11.639834 l -0.76988,5.13389 h -12.21628 -12.21629 l -0.72608,-5.39406 C 101.8722,97.939326 92.794017,85.834756 81.229519,80.385566 c -5.279883,-2.48789 -7.829987,-2.94301 -16.48998,-2.94301 -9.289515,0 -10.95191,0.3484 -17.837928,3.73837 -11.745864,5.78247 -19.504774,16.33856 -20.944564,28.495324 l -0.687952,5.80868 H 12.783922 0.29874903 Z M 123.71782,70.260886 c 13.47347,-12.89605 30.28027,-19.18165 48.47299,-18.12849 6.02742,0.34892 8.95329,0.11518 8.91719,-0.71238 -0.0772,-1.76963 -10.54579,-9.77957 -19.81916,-15.16443 -4.37203,-2.53876 -12.29279,-6.04675 -17.60169,-7.79553 -8.89716,-2.93079 -11.03002,-3.17954 -27.25424,-3.17857 -16.858473,10e-4 -18.022063,0.15158 -27.557223,3.56603 -5.47553,1.96074 -13.262372,5.41428 -17.304082,7.67453 -7.57463,4.23597 -17.926884,12.46273 -18.474035,14.681 -0.211945,0.85927 3.736889,1.27811 12.491525,1.32495 10.153113,0.0543 14.268351,0.58494 19.892172,2.56489 9.13599,3.21645 17.581493,8.66225 24.705883,15.93074 3.12288,3.18604 5.89007,5.80593 6.14932,5.82197 0.25924,0.0161 3.58085,-2.94708 7.38135,-6.58471 z"
     id="path6534"
     inkscape:connector-curvature="0" />
</svg>
