<?xml version="1.0" encoding="UTF-8" standalone="no"?>
<!-- Created with Inkscape (http://www.inkscape.org/) -->

<svg
   xmlns:dc="http://purl.org/dc/elements/1.1/"
   xmlns:cc="http://creativecommons.org/ns#"
   xmlns:rdf="http://www.w3.org/1999/02/22-rdf-syntax-ns#"
   xmlns:svg="http://www.w3.org/2000/svg"
   xmlns="http://www.w3.org/2000/svg"
   xmlns:sodipodi="http://sodipodi.sourceforge.net/DTD/sodipodi-0.dtd"
   xmlns:inkscape="http://www.inkscape.org/namespaces/inkscape"
   version="1.1"
   id="svg72"
   width="59.040199mm"
   height="68.051498mm"
   viewBox="0 0 223.14406 257.20252"
   sodipodi:docname="esoterica-radial_star.svg"
   inkscape:version="0.92.5 (2060ec1f9f, 2020-04-08)">
  <metadata
     id="metadata78">
    <rdf:RDF>
      <cc:Work
         rdf:about="">
        <dc:format>image/svg+xml</dc:format>
        <dc:type
           rdf:resource="http://purl.org/dc/dcmitype/StillImage" />
        <dc:title></dc:title>
      </cc:Work>
    </rdf:RDF>
  </metadata>
  <defs
     id="defs76" />
  <sodipodi:namedview
     pagecolor="#ffffff"
     bordercolor="#666666"
     borderopacity="1"
     objecttolerance="10"
     gridtolerance="10"
     guidetolerance="10"
     inkscape:pageopacity="0"
     inkscape:pageshadow="2"
     inkscape:window-width="1920"
     inkscape:window-height="997"
     id="namedview74"
     showgrid="false"
     units="mm"
     fit-margin-top="0"
     fit-margin-left="0"
     fit-margin-right="0"
     fit-margin-bottom="0"
     inkscape:zoom="0.88059701"
     inkscape:cx="-70.804238"
     inkscape:cy="127.68811"
     inkscape:window-x="0"
     inkscape:window-y="28"
     inkscape:window-maximized="1"
     inkscape:current-layer="svg72" />
  <path
     style="fill:#000000;fill-opacity:0;stroke:#ff0000;stroke-width:0.56779659;stroke-miterlimit:4;stroke-dasharray:none;stroke-opacity:1"
     d="M 112.42424,114.97881 C 111.41442,103.86128 108.76177,96.671164 103.43915,90.62436 92.368164,78.047042 85.919494,76.368641 48.666591,76.368641 c -15.368108,0 -27.942015,0.247832 -27.942015,0.550737 0,0.302906 1.480477,2.985745 3.289951,5.961864 1.809473,2.976121 5.873581,9.946932 9.03135,15.490692 l 5.7414,10.079556 -2.826018,5.57688 c -1.554309,3.06728 -3.266717,5.30451 -3.805351,4.97161 -0.538634,-0.33289 -4.425681,-6.61176 -8.637883,-13.95305 C 19.305822,97.705654 14.482203,89.399573 12.79887,86.58898 4.2215763,72.267812 0.28389829,65.368307 0.28389829,64.660547 c 0,-0.430887 16.62959371,-0.783431 36.95465371,-0.783431 47.857942,0 57.403232,1.717398 69.010268,12.416394 7.31993,6.747282 10.285,14.251835 10.12486,25.62597 -0.0703,4.99661 -0.8369,11.63984 -1.70345,14.76272 l -1.57554,5.67796 z"
     id="path4688"
     inkscape:connector-curvature="0" />
  <path
     style="fill:#000000;fill-opacity:0;stroke:#ff0000;stroke-width:0.56779659;stroke-miterlimit:4;stroke-dasharray:none;stroke-opacity:1"
     d="m 127.34973,120.37287 c 6.56684,-5.48065 13.21707,-15.14721 15.03898,-21.860156 2.37173,-8.738791 0.69052,-18.793913 -5.08014,-30.383818 -6.64515,-13.34624 -23.96276,-43.223863 -25.2941,-43.639254 -0.96855,-0.302198 -3.20668,3.25997 -14.199126,22.598997 l -4.9806,8.76237 -6.52966,0.03848 c -3.59131,0.02116 -6.52966,-0.167939 -6.52966,-0.420227 0,-0.252287 1.86557,-3.701652 4.1457,-7.665255 2.28014,-3.963602 6.03429,-10.528159 8.34256,-14.587905 2.30827,-4.059746 6.32501,-10.958475 8.926096,-15.330509 2.60109,-4.372033 5.8475,-10.1209742 7.21424,-12.7754235 1.36674,-2.6544491 2.80373,-4.82627121 3.19331,-4.82627121 0.38959,0 3.5594,4.98241531 7.04403,11.07203371 3.48463,6.089619 10.04575,17.459746 14.58026,25.26695 16.08319,27.690921 18.40003,32.134571 20.05129,38.457908 2.06693,7.915154 2.24934,19.54974 0.40953,26.12103 -2.06879,7.38911 -10.26132,15.59282 -20.17581,20.20334 -11.16803,5.19343 -13.20687,4.8516 -6.1569,-1.03229 z"
     id="path4690"
     inkscape:connector-curvature="0" />
  <path
     style="fill:#000000;fill-opacity:0;stroke:#ff0000;stroke-width:0.56779659;stroke-miterlimit:4;stroke-dasharray:none;stroke-opacity:1"
     d="m 141.65042,150.47566 c -3.13103,-1.1184 -7.9857,-3.41792 -10.78813,-5.11004 -4.83043,-2.91662 -12.4767,-9.31191 -12.4767,-10.43543 0,-0.28673 2.93835,0.83665 6.52966,2.49638 5.58516,2.58119 8.09014,3.02387 17.3178,3.06039 9.69255,0.0384 11.42242,-0.28633 17.03389,-3.19716 10.19262,-5.28721 16.01496,-11.79096 25.00869,-27.93559 2.27793,-4.0891 7.29217,-12.870746 11.14277,-19.514772 3.8506,-6.644028 7.00109,-12.392969 7.00109,-12.775424 0,-0.382455 -8.12812,-0.695373 -18.06248,-0.695373 h -18.06248 l -3.51379,-5.304861 c -1.93259,-2.917673 -3.5138,-5.728266 -3.5138,-6.245762 0,-0.517496 14.30848,-0.940902 31.79661,-0.940902 17.48814,0 31.78736,0.383263 31.77604,0.851695 -0.0262,1.083078 -5.66419,11.046744 -27.79186,49.114399 -9.96897,17.15027 -12.19519,20.35807 -17.80064,25.64928 -11.5417,10.89468 -24.58113,14.91793 -35.59667,10.98317 z"
     id="path4692"
     inkscape:connector-curvature="0" />
  <path
     style="fill:#000000;fill-opacity:0;stroke:#ff0000;stroke-width:0.56779659;stroke-miterlimit:4;stroke-dasharray:none;stroke-opacity:1"
     d="m 134.85169,190.64018 c -10.94855,-3.57131 -14.14463,-5.41747 -19.57187,-11.30532 -7.66422,-8.31471 -9.76752,-18.91693 -6.89133,-34.73761 l 1.35884,-7.47438 1.39344,8.77175 c 2.59841,16.35717 12.04318,28.13437 26.37579,32.88941 6.80941,2.25912 10.38683,2.54911 36.2292,2.93678 31.60368,0.4741 30.68122,0.70468 26.22656,-6.55556 -7.54464,-12.29629 -14.58673,-25.18681 -14.58673,-26.70093 0,-0.95568 1.36264,-3.7967 3.0281,-6.31337 l 3.0281,-4.57577 1.89553,3.18063 c 1.04254,1.74934 3.95297,6.75774 6.46763,11.12978 2.51466,4.37203 5.61879,9.73771 6.89807,11.92373 8.56329,14.63286 16.15714,28.1636 16.15714,28.78881 0,0.40513 -18.01334,0.71375 -40.02966,0.6858 -38.53485,-0.0489 -40.3265,-0.14763 -47.97881,-2.64375 z"
     id="path4694"
     inkscape:connector-curvature="0" />
  <path
     style="fill:#000000;fill-opacity:0;stroke:#ff0000;stroke-width:0.56779659;stroke-miterlimit:4;stroke-dasharray:none;stroke-opacity:1"
     d="m 1.1021893,191.34745 c 0.410856,-1.09301 2.438886,-4.64558 4.506733,-7.8946 2.067847,-3.24902 3.759721,-6.21192 3.759721,-6.58421 0,-0.3723 1.7885597,-3.47287 3.9745767,-6.89016 2.186017,-3.4173 3.974576,-6.44985 3.974576,-6.73901 0,-0.28916 2.044068,-3.86536 4.542373,-7.9471 2.498305,-4.08175 4.542373,-7.85446 4.542373,-8.38381 0,-0.52935 0.945185,-2.18115 2.100411,-3.67068 1.155227,-1.48952 3.480813,-5.20028 5.16797,-8.24612 16.438552,-29.67667 41.630951,-37.280336 63.768831,-19.24694 3.477626,2.83285 6.141826,5.33178 5.920436,5.55317 -0.22139,0.22139 -4.468736,-0.90313 -9.438556,-2.49893 -21.240012,-6.82013 -37.006155,0.67234 -51.400824,24.42698 -11.933339,19.69286 -14.982675,24.89113 -14.982675,25.54127 0,0.3526 -1.533051,3.05847 -3.40678,6.01303 -1.873728,2.95456 -3.406779,5.77055 -3.406779,6.25774 0,0.4872 8.482339,1.02592 18.849642,1.19717 l 18.849643,0.31135 2.726628,4.85676 c 1.499647,2.67121 2.726629,5.09854 2.726629,5.39406 0,0.29553 -14.292437,0.53732 -31.76097,0.53732 -29.7760557,0 -31.71428471,-0.1242 -31.0139587,-1.98729 z"
     id="path4696"
     inkscape:connector-curvature="0" />
  <path
     style="fill:#000000;fill-opacity:0;stroke:#ff0000;stroke-width:0.56779659;stroke-miterlimit:4;stroke-dasharray:none;stroke-opacity:1"
     d="m 108.6437,252.66012 c -1.29829,-2.33701 -8.42444,-14.72496 -15.835886,-27.52877 -24.316956,-42.00927 -24.837066,-43.27783 -24.208167,-59.04383 0.344847,-8.64506 0.788289,-10.34186 4.016907,-15.37039 1.996097,-3.1089 6.08423,-7.48542 9.08475,-9.72561 5.05033,-3.77058 19.109126,-9.8986 20.201996,-8.80574 0.2627,0.26271 -1.925756,2.24755 -4.863246,4.41076 -6.944,5.11366 -14.53105,16.67632 -16.19186,24.67641 -1.71784,8.2748 0.0901,17.55832 5.5806,28.65501 4.01893,8.12259 18.988596,34.49632 23.411036,41.24581 l 2.09012,3.18992 2.00534,-3.19668 c 1.10293,-1.75817 3.19423,-5.33671 4.64731,-7.95231 1.45308,-2.6156 4.66582,-8.36454 7.13941,-12.77542 l 4.49745,-8.0198 h 7.31839 c 6.87596,0 7.21316,0.12014 5.57767,1.98729 -0.9574,1.09301 -3.92522,5.81992 -6.59515,10.50424 -2.66994,4.68432 -6.89698,12.09407 -9.39343,16.4661 -2.49645,4.37204 -5.37583,9.48221 -6.39862,11.35593 -4.36501,7.99654 -8.28853,14.19426 -8.9803,14.18555 -0.40908,-0.006 -1.80602,-1.92147 -3.10432,-4.25847 z"
     id="path4698"
     inkscape:connector-curvature="0" />
</svg>
