<?xml version="1.0" encoding="UTF-8" standalone="no"?>
<!-- Created with Inkscape (http://www.inkscape.org/) -->

<svg
   xmlns:dc="http://purl.org/dc/elements/1.1/"
   xmlns:cc="http://creativecommons.org/ns#"
   xmlns:rdf="http://www.w3.org/1999/02/22-rdf-syntax-ns#"
   xmlns:svg="http://www.w3.org/2000/svg"
   xmlns="http://www.w3.org/2000/svg"
   xmlns:sodipodi="http://sodipodi.sourceforge.net/DTD/sodipodi-0.dtd"
   xmlns:inkscape="http://www.inkscape.org/namespaces/inkscape"
   version="1.1"
   id="svg12"
   width="55.165962mm"
   height="63.736473mm"
   viewBox="0 0 208.50128 240.89376"
   sodipodi:docname="esoterica-crime.svg"
   inkscape:version="0.92.5 (2060ec1f9f, 2020-04-08)">
  <metadata
     id="metadata18">
    <rdf:RDF>
      <cc:Work
         rdf:about="">
        <dc:format>image/svg+xml</dc:format>
        <dc:type
           rdf:resource="http://purl.org/dc/dcmitype/StillImage" />
        <dc:title></dc:title>
      </cc:Work>
    </rdf:RDF>
  </metadata>
  <defs
     id="defs16" />
  <sodipodi:namedview
     pagecolor="#ffffff"
     bordercolor="#666666"
     borderopacity="1"
     objecttolerance="10"
     gridtolerance="10"
     guidetolerance="10"
     inkscape:pageopacity="0"
     inkscape:pageshadow="2"
     inkscape:window-width="1920"
     inkscape:window-height="997"
     id="namedview14"
     showgrid="false"
     units="mm"
     fit-margin-top="0"
     fit-margin-left="0"
     fit-margin-right="0"
     fit-margin-bottom="0"
     inkscape:zoom="0.88059701"
     inkscape:cx="103.96991"
     inkscape:cy="120.46409"
     inkscape:window-x="0"
     inkscape:window-y="28"
     inkscape:window-maximized="1"
     inkscape:current-layer="svg12" />
  <path
     style="fill:#000000;fill-opacity:0;stroke:#ff0000;stroke-width:0.56779659;stroke-miterlimit:4;stroke-dasharray:none;stroke-opacity:1"
     d="m 92.386862,235.87361 c -4.68432,-2.76906 -9.20454,-5.47223 -10.04492,-6.00703 -1.5387,-0.97916 -1.51631,-1.02289 15.50757,-30.28606 2.180078,-3.74746 5.107528,-8.90537 6.505428,-11.46202 1.3979,-2.55665 3.87611,-6.76239 5.50712,-9.34608 1.63101,-2.58369 2.97478,-5.09104 2.98614,-5.57188 0.0114,-0.48084 1.54442,-3.12298 3.40678,-5.87142 1.86237,-2.74844 3.38612,-5.44856 3.38612,-6.00028 0,-0.55172 -5.48851,-0.85808 -12.19669,-0.68081 l -12.196678,0.32232 -5.99797,10.22034 c -3.29888,5.62118 -6.61383,11.49788 -7.36654,13.05932 -0.75271,1.56144 -3.04097,5.49727 -5.08501,8.74629 -2.04404,3.24903 -3.71644,6.13895 -3.71644,6.42205 0,0.2831 -2.28252,4.21687 -5.07227,8.74171 -2.789752,4.52485 -5.23752,8.72272 -5.439483,9.32861 -0.201964,0.60589 -2.958373,-0.49274 -6.125354,-2.4414 -3.16698,-1.94866 -6.092058,-3.54302 -6.500172,-3.54302 -1.317679,0 -8.630753,-5.08084 -8.645269,-6.00639 -0.0077,-0.49292 3.89196,-7.64716 8.665982,-15.89831 14.051486,-24.28579 16.303011,-28.25468 16.303011,-28.7383 0,-0.25228 -5.586751,-0.4587 -12.415,-0.4587 -10.905861,0 -12.492981,0.2457 -13.05651,2.02122 -0.352831,1.11167 -2.303581,4.66897 -4.335,7.90512 -2.03142,3.23613 -5.993066,9.9799 -8.803659,14.98611 -2.810594,5.00623 -5.644866,9.11419 -6.298384,9.1288 -0.653517,0.0147 -3.975127,-1.74893 -7.381356,-3.91896 -3.406228,-2.17004 -6.704159,-3.96995 -7.328735,-3.99983 -0.624576,-0.0299 -2.293085,-0.94524 -3.707797,-2.03415 L 0.36957102,182.51102 6.064657,172.57871 c 3.132297,-5.46277 5.695086,-10.43717 5.695086,-11.05423 0,-0.61707 -2.299577,-1.12193 -5.11017,-1.12193 H 1.539404 V 147.91103 135.4195 h 12.929034 12.929033 l 4.862766,-8.23305 c 2.67452,-4.52818 6.31027,-10.66806 8.079441,-13.64418 1.769171,-2.97612 3.216675,-5.65896 3.216675,-5.96186 0,-0.30291 -9.453814,-0.55074 -21.008475,-0.55074 H 1.539404 V 94.538139 82.046618 l 28.673728,-0.01928 28.673729,-0.01928 4.246294,-7.645979 c 5.2137,-9.387909 9.149987,-16.192228 13.465977,-23.277444 1.81291,-2.97612 3.2962,-5.649036 3.2962,-5.939814 0,-0.290777 1.78856,-3.324655 3.97458,-6.74195 2.18602,-3.417294 3.97458,-6.517925 3.97458,-6.890292 0,-0.372367 3.83262,-6.999015 8.51695,-14.725887 4.684318,-7.7268707 8.516938,-14.6009927 8.516938,-15.2758247 0,-0.67483301 0.63995,-1.22696901 1.42211,-1.22696901 1.21703,0 19.26593,10.08916071 20.80855,11.63178371 0.55036,0.550356 -0.51706,2.499738 -16.016,29.249572 -4.8854,8.43178 -10.61985,18.39661 -12.743228,22.144068 -2.12337,3.747458 -5.09181,8.857627 -6.59652,11.355932 -4.36138,7.241277 -4.18659,7.386028 8.866618,7.342879 l 11.63983,-0.03847 5.01058,-8.76237 c 2.75581,-4.819307 6.66511,-11.572967 8.68734,-15.008136 2.02222,-3.43517 7.37878,-12.633475 11.90345,-20.440678 4.52467,-7.807204 8.34901,-14.348474 8.49852,-14.536157 0.23082,-0.289723 19.46096,10.643668 20.90667,11.886588 0.60145,0.517087 -2.89466,7.413411 -8.82721,17.41228 -10.27271,17.313894 -16.08613,27.646559 -16.08613,28.591203 0,0.556082 5.42131,0.866016 12.04736,0.688742 l 12.04735,-0.322317 4.13486,-7.422277 c 11.1316,-19.981865 13.99158,-24.833511 15.25912,-25.885474 0.97269,-0.807258 4.19835,0.523255 11.02368,4.547034 5.30676,3.128519 9.86799,5.90353 10.13607,6.166693 0.55211,0.541968 -1.54026,4.74489 -7.29076,14.644871 -2.17674,3.747458 -3.96381,7.196822 -3.97126,7.665254 -0.008,0.468432 2.79706,0.851695 6.23222,0.851695 h 6.24577 v 12.491525 12.491531 h -13.92175 c -13.20749,0 -14.00363,0.13109 -15.51753,2.55508 -4.928,7.89054 -13.71326,23.70749 -13.71326,24.6893 0,0.73002 7.82533,1.14545 21.57627,1.14545 h 21.57627 v 12.49153 12.49152 H 178.7969 149.37641 l -9.34768,16.1822 c -5.14123,8.90022 -10.49369,17.99623 -11.89435,20.21336 -1.40066,2.21713 -3.90389,6.56078 -5.5627,9.65254 -7.08101,13.19782 -19.51137,33.85544 -20.54574,34.14429 -0.61717,0.17234 -4.954758,-1.95225 -9.639078,-4.72133 z m -8.45258,-105.28038 c 1.56609,-2.65445 5.12211,-8.6589 7.90226,-13.34322 2.78016,-4.68432 5.06335,-8.90021 5.07376,-9.36865 0.0104,-0.46843 -5.31532,-0.85169 -11.83496,-0.85169 h -11.85389 l -3.552717,5.96186 c -10.254805,17.20872 -12.206219,20.79725 -11.732997,21.57628 0.28455,0.46843 5.609957,0.85169 11.834235,0.85169 h 11.316869 z m 52.658288,1.83414 c 1.29449,-1.64567 2.35361,-3.52175 2.35361,-4.16906 0,-0.64731 0.71512,-1.98368 1.58915,-2.96973 1.66349,-1.87667 9.76678,-16.54616 9.76678,-17.6809 0,-0.36017 -5.41683,-0.50981 -12.03741,-0.33253 l -12.0374,0.32232 -2.86341,5.11017 c -1.57488,2.81059 -4.84533,8.39951 -7.26767,12.41982 -2.42236,4.02032 -4.40428,7.9807 -4.40428,8.80085 0,1.13105 2.72268,1.49119 11.27351,1.49119 10.82639,0 11.36686,-0.11867 13.62712,-2.99213 z"
     id="path4814"
     inkscape:connector-curvature="0" />
</svg>
