<?xml version="1.0" encoding="UTF-8" standalone="no"?>
<!-- Created with Inkscape (http://www.inkscape.org/) -->

<svg
   xmlns:dc="http://purl.org/dc/elements/1.1/"
   xmlns:cc="http://creativecommons.org/ns#"
   xmlns:rdf="http://www.w3.org/1999/02/22-rdf-syntax-ns#"
   xmlns:svg="http://www.w3.org/2000/svg"
   xmlns="http://www.w3.org/2000/svg"
   xmlns:sodipodi="http://sodipodi.sourceforge.net/DTD/sodipodi-0.dtd"
   xmlns:inkscape="http://www.inkscape.org/namespaces/inkscape"
   version="1.1"
   id="svg2"
   width="69.151665mm"
   height="69.098831mm"
   viewBox="0 0 261.36062 261.16094"
   sodipodi:docname="esoterica-auseklis_alt.svg"
   inkscape:version="0.92.5 (2060ec1f9f, 2020-04-08)">
  <metadata
     id="metadata8">
    <rdf:RDF>
      <cc:Work
         rdf:about="">
        <dc:format>image/svg+xml</dc:format>
        <dc:type
           rdf:resource="http://purl.org/dc/dcmitype/StillImage" />
        <dc:title></dc:title>
      </cc:Work>
    </rdf:RDF>
  </metadata>
  <defs
     id="defs6" />
  <sodipodi:namedview
     pagecolor="#ffffff"
     bordercolor="#666666"
     borderopacity="1"
     objecttolerance="10"
     gridtolerance="10"
     guidetolerance="10"
     inkscape:pageopacity="0"
     inkscape:pageshadow="2"
     inkscape:window-width="1920"
     inkscape:window-height="997"
     id="namedview4"
     showgrid="false"
     units="mm"
     fit-margin-top="0"
     fit-margin-left="0"
     fit-margin-right="0"
     fit-margin-bottom="0"
     inkscape:zoom="0.88059701"
     inkscape:cx="130.93196"
     inkscape:cy="130.7328"
     inkscape:window-x="0"
     inkscape:window-y="28"
     inkscape:window-maximized="1"
     inkscape:current-layer="svg2" />
  <path
     style="fill:#000000;fill-opacity:0;stroke:#ff0000;stroke-width:0.56779659;stroke-miterlimit:4;stroke-dasharray:none;stroke-opacity:1"
     d="M 76.196364,222.26846 V 184.02814 H 38.446762 0.69715986 L 27.655775,157.05196 54.61439,130.07578 27.64989,103.11128 0.68539116,76.146785 H 38.440878 76.196364 V 38.672209 c 0,-20.611017 0.379269,-37.4745769 0.84282,-37.4745769 0.463551,0 12.727958,11.8770669 27.254236,26.3934809 l 26.41142,26.393481 26.67059,-26.652479 26.6706,-26.65248002 0.29974,37.44967702 0.29975,37.449676 37.86278,0.567797 37.86278,0.567797 -25.12517,24.983048 c -13.81886,13.74068 -25.67402,25.94622 -26.34482,27.12341 -1.067,1.87245 2.09723,5.4595 25.28007,28.6581 l 26.49974,26.51774 -38.01768,0.29953 -38.0177,0.29953 -0.29975,37.44967 -0.29974,37.44968 -26.65302,-26.63492 -26.65301,-26.63491 -24.31439,24.38863 c -13.372908,13.41374 -25.645224,25.62749 -27.271813,27.14166 l -2.957433,2.75304 z m 33.004856,-19.77905 12.41888,-12.19975 v -17.89347 c 0,-13.64117 -0.33734,-17.85629 -1.4195,-17.73701 -0.78072,0.0861 -6.63322,5.57952 -13.00557,12.2077 l -11.586095,12.05124 -0.107598,17.03382 c -0.126271,19.98808 -0.169034,18.73722 0.64056,18.73722 0.352246,0 6.228943,-5.48989 13.059323,-12.19975 z m 56.70701,-6.04322 v -18.24296 l -11.70757,-11.85026 c -6.43916,-6.51764 -12.31586,-11.85025 -13.05932,-11.85025 -0.98668,0 -1.35175,4.71726 -1.35175,17.46695 v 17.46696 l 12.65966,12.62626 c 6.96281,6.94445 12.8395,12.62627 13.05932,12.62627 0.21982,0 0.39966,-8.20934 0.39966,-18.24297 z M 94.811728,153.48943 c 7.086052,-7.1081 12.000202,-12.90426 11.553442,-13.62712 -0.51153,-0.82768 -6.477223,-1.2579 -17.442633,-1.2579 H 72.257325 l -12.793193,12.7569 c -7.036256,7.0163 -12.793192,13.1485 -12.793192,13.62712 0,0.47862 8.057232,0.87022 17.90496,0.87022 h 17.904959 z m 119.927012,11.5353 c 0,-0.45867 -5.74061,-6.59087 -12.7569,-13.62712 l -12.7569,-12.7932 h -16.7015 c -10.85403,0 -16.97001,0.43445 -17.46841,1.24088 -0.43285,0.70035 4.60812,6.63547 11.57282,13.62556 l 12.3397,12.38471 17.8856,0.001 c 9.83707,8.5e-4 17.88559,-0.37373 17.88559,-0.83238 z M 106.85738,120.42171 c 0,-0.63183 -5.35973,-6.50852 -11.910523,-13.05932 L 83.036332,95.45187 H 66.649903 c -9.012536,0 -17.194748,-0.310182 -18.182696,-0.689293 -3.839837,-1.473484 -1.353873,1.876724 9.843564,13.265653 l 11.63983,11.83889 17.601695,0.62447 c 9.680931,0.34346 17.984964,0.72672 18.453394,0.85169 0.46843,0.12498 0.85169,-0.28972 0.85169,-0.92157 z m 96.43189,-11.91052 c 6.25733,-6.24576 11.39369,-11.866949 11.41412,-12.491524 0.0236,-0.72139 -6.47376,-1.038397 -17.81333,-0.86912 L 179.0396,95.417018 166.79595,107.6227 c -6.734,6.71313 -12.2446,12.46992 -12.24576,12.79286 -10e-4,0.32294 8.40483,0.33165 18.67999,0.0193 l 18.68211,-0.56779 11.37698,-11.35594 z M 121.6201,88.940753 V 71.073703 L 109.43183,58.847533 C 102.72829,52.123138 96.72384,46.620625 96.088612,46.619727 c -0.747973,-0.0011 -1.03905,6.301515 -0.826026,17.885593 l 0.328932,17.887228 12.143232,12.207627 c 6.67877,6.714195 12.5352,12.207625 13.01429,12.207625 0.47908,0 0.87106,-8.040169 0.87106,-17.867047 z m 32.06196,5.678788 12.22617,-12.18826 V 63.69315 44.955019 l -13.05932,13.022275 -13.05932,13.022274 v 17.904117 c 0,9.847266 0.37491,17.904115 0.83315,17.904115 0.45823,0 6.33493,-5.48472 13.05932,-12.188259 z"
     id="path6576"
     inkscape:connector-curvature="0" />
</svg>
