<?xml version="1.0" encoding="UTF-8" standalone="no"?>
<!-- Created with Inkscape (http://www.inkscape.org/) -->

<svg
   xmlns:dc="http://purl.org/dc/elements/1.1/"
   xmlns:cc="http://creativecommons.org/ns#"
   xmlns:rdf="http://www.w3.org/1999/02/22-rdf-syntax-ns#"
   xmlns:svg="http://www.w3.org/2000/svg"
   xmlns="http://www.w3.org/2000/svg"
   xmlns:sodipodi="http://sodipodi.sourceforge.net/DTD/sodipodi-0.dtd"
   xmlns:inkscape="http://www.inkscape.org/namespaces/inkscape"
   version="1.1"
   id="svg62"
   width="64.133995mm"
   height="63.948616mm"
   viewBox="0 0 242.3962 241.69556"
   sodipodi:docname="esoterica-inanna.svg"
   inkscape:version="0.92.5 (2060ec1f9f, 2020-04-08)">
  <metadata
     id="metadata68">
    <rdf:RDF>
      <cc:Work
         rdf:about="">
        <dc:format>image/svg+xml</dc:format>
        <dc:type
           rdf:resource="http://purl.org/dc/dcmitype/StillImage" />
        <dc:title></dc:title>
      </cc:Work>
    </rdf:RDF>
  </metadata>
  <defs
     id="defs66" />
  <sodipodi:namedview
     pagecolor="#ffffff"
     bordercolor="#666666"
     borderopacity="1"
     objecttolerance="10"
     gridtolerance="10"
     guidetolerance="10"
     inkscape:pageopacity="0"
     inkscape:pageshadow="2"
     inkscape:window-width="1920"
     inkscape:window-height="997"
     id="namedview64"
     showgrid="false"
     units="mm"
     fit-margin-top="0"
     fit-margin-left="0"
     fit-margin-right="0"
     fit-margin-bottom="0"
     inkscape:zoom="0.88059701"
     inkscape:cx="121.99678"
     inkscape:cy="120.1303"
     inkscape:window-x="0"
     inkscape:window-y="28"
     inkscape:window-maximized="1"
     inkscape:current-layer="svg62" />
  <path
     style="fill:#000000;fill-opacity:0;stroke:#ff0000;stroke-width:0.56779659;stroke-miterlimit:4;stroke-dasharray:none;stroke-opacity:1"
     d="m 119.70829,239.1284 c -1.29537,-3.44113 -7.22469,-17.78781 -14.93671,-36.14112 -2.62446,-6.24576 -5.371115,-12.88898 -6.103655,-14.76271 -2.46058,-6.29371 -2.26165,-6.28165 -15.20981,-0.92202 -6.722296,2.78256 -15.288459,6.24814 -19.035916,7.70131 -3.747458,1.45316 -9.825438,4.02027 -13.506622,5.70469 -7.715424,3.53038 -15.451005,6.37092 -15.451005,5.67367 0,-0.26339 0.749702,-2.15704 1.666007,-4.2081 0.916303,-2.05106 3.755334,-8.83938 6.308956,-15.08514 4.529232,-11.0778 11.101241,-26.89731 14.286966,-34.39023 0.872041,-2.05106 1.585528,-4.40938 1.585528,-5.24073 0,-0.83133 -3.704873,-3.08338 -8.233051,-5.00454 C 32.647454,134.63353 25.43571,131.63004 17.862877,128.61987 6.2552324,124.00588 0.28433338,121.30112 0.28389838,120.65678 c -2.11e-4,-0.31229 2.42192202,-1.41326 5.38251802,-2.44659 2.960596,-1.03334 11.5151046,-4.51869 19.0100196,-7.74522 7.494915,-3.22653 15.605835,-6.59632 18.024266,-7.48841 2.418431,-0.89208 7.336085,-2.94089 10.928119,-4.552896 l 6.530972,-2.93093 -3.74811,-9.278145 C 54.350223,81.111607 50.532463,71.826271 47.927771,65.580508 37.319746,40.143639 35.653405,35.487288 37.158484,35.487288 c 0.812426,0 5.235049,1.717003 9.828053,3.815564 4.593004,2.09856 13.716594,5.992148 20.274645,8.652417 6.558051,2.660269 15.286095,6.308943 19.395655,8.108164 4.109558,1.799223 7.962508,3.271313 8.562108,3.271313 1.05686,0 2.85045,-4.029727 15.163205,-34.067797 7.94917,-19.3927437 10.50446,-24.98305071 11.41957,-24.98305071 0.42867,0 1.83252,2.93834801 3.11964,6.52966101 1.28713,3.5913137 4.71121,12.1508477 7.60906,19.0211867 2.89785,6.870339 7.1387,17.218432 9.42412,22.995762 2.2854,5.777331 4.66217,10.504238 5.28171,10.504238 0.61952,0 5.49108,-1.831949 10.82568,-4.070995 21.10948,-8.860119 31.62936,-13.297895 39.4975,-16.661891 4.52208,-1.933401 8.51253,-3.224706 8.86766,-2.869568 0.35515,0.355138 -0.91741,4.093096 -2.8279,8.306573 -1.91048,4.213478 -3.4736,8.12103 -3.4736,8.683452 0,0.562421 -1.75307,4.963137 -3.89571,9.77937 -8.37773,18.83149 -13.24776,31.248537 -12.7572,32.526887 0.28226,0.73559 4.0169,2.75917 8.29916,4.49686 14.31292,5.807966 27.01361,11.123316 35.68922,14.936246 4.729,2.0784 9.96692,4.12243 11.63983,4.54231 1.67291,0.41987 3.02791,1.09127 3.01113,1.492 -0.0334,0.79627 -6.66095,3.75584 -28.35931,12.66389 -25.44077,10.44449 -30.66101,12.86982 -30.66101,14.24516 0,0.74513 1.96623,5.89069 4.36939,11.43462 2.40318,5.5439 6.05411,14.16796 8.11319,19.16457 2.05908,4.99661 5.66585,13.55615 8.01504,19.02119 2.34919,5.46504 4.18448,9.93644 4.07842,9.93644 -0.53952,0 -12.88504,-4.93504 -23.44045,-9.37017 -6.55805,-2.75552 -14.73432,-6.15703 -18.16949,-7.55891 -3.43517,-1.40188 -8.93993,-3.78751 -12.23278,-5.30142 -3.29287,-1.5139 -6.24938,-2.75255 -6.57002,-2.75255 -0.58273,0 -3.89734,7.2664 -6.73407,14.76271 -0.82724,2.18602 -3.88822,9.59576 -6.80218,16.4661 -2.91397,6.87034 -6.57618,15.81314 -8.13825,19.87288 -3.5488,9.22312 -4.36177,10.06042 -5.87221,6.0479 z m 4.05317,-49.48434 c 1.09822,-3.27591 7.92395,-19.70607 13.27065,-31.94364 l 1.9248,-4.40553 -3.19956,0.70489 c -14.69115,3.23653 -17.22231,3.28625 -26.2714,0.51599 -2.07172,-0.63423 -3.99848,-0.92143 -4.28168,-0.63824 -0.28321,0.28321 1.57656,5.57206 4.13281,11.75302 2.55626,6.18095 5.8653,14.44349 7.35341,18.36121 4.16636,10.96862 5.05152,11.67619 7.07097,5.6523 z M 88.011815,165.08232 c 0.48277,-0.47898 0.11076,-2.70658 -0.826685,-4.9502 -1.263894,-3.02493 -2.757892,-4.42699 -5.780114,-5.42441 -2.241618,-0.7398 -4.243658,-1.1664 -4.448976,-0.94801 -0.93442,0.99392 -7.08994,17.95397 -6.669024,18.37489 0.552342,0.55234 16.425623,-5.76325 17.724799,-7.05227 z m 84.859545,6.01479 c 0,-0.7411 -6.8708,-16.69424 -7.48407,-17.37708 -0.21574,-0.24022 -1.96863,0.2162 -3.8953,1.01425 -2.14611,0.88894 -4.37723,3.16454 -5.75979,5.87458 l -2.25674,4.42358 5.43947,2.29351 c 2.99172,1.26144 6.46151,2.74021 7.71066,3.28616 2.65237,1.15925 6.24577,1.43829 6.24577,0.485 z m -47.12712,-33.52162 c 19.89354,-5.42234 15.96029,-33.97298 -4.67641,-33.94513 -6.94135,0.009 -11.3912,2.79166 -14.87149,9.29845 -3.16989,5.92648 -3.27428,9.89603 -0.40798,15.51443 2.65463,5.20352 4.45286,6.77738 10.00867,8.75991 5.26751,1.87965 4.51987,1.85167 9.94721,0.37234 z m -36.919075,-0.73651 c -0.007,-0.46843 -0.77329,-3.36024 -1.703394,-6.42624 -2.132099,-7.02827 -2.140269,-12.44489 -0.02935,-19.45894 0.913954,-3.03685 1.406694,-5.77661 1.094964,-6.08833 -0.601848,-0.60186 -3.71155,0.52569 -20.926198,7.58765 -14.197133,5.82408 -18.64243,8.19809 -17.448279,9.31825 0.540197,0.50673 3.79277,2.05125 7.22794,3.43228 6.767541,2.72072 14.047593,5.71833 23.847457,9.81939 6.793827,2.84308 7.95552,3.10887 7.93686,1.81594 z m 80.639415,-5.04877 c 20.23652,-8.5063 23.24209,-9.88516 23.52641,-10.7931 0.15641,-0.49947 -3.15673,-2.38094 -7.36254,-4.18104 -26.06616,-11.15639 -30.45315,-12.84606 -31.30712,-12.05805 -0.52158,0.48129 -0.13832,2.44147 0.85169,4.35595 2.33509,4.51554 2.39082,18.15095 0.0966,23.64169 -0.93686,2.24224 -1.70339,4.30433 -1.70339,4.58242 0,0.81923 4.42204,-0.72388 15.89831,-5.54787 z M 121.52224,85.503234 c 4.67575,-0.02818 9.9407,0.648417 12.11501,1.556901 2.115,0.883709 4.07765,1.374559 4.36144,1.090789 0.28377,-0.28378 -1.25484,-4.711684 -3.41912,-9.839796 -2.16428,-5.128112 -5.80415,-13.783572 -8.08859,-19.234356 -2.28444,-5.450784 -4.66454,-9.91763 -5.28912,-9.926325 -0.62457,-0.0087 -3.01439,4.706545 -5.3107,10.478313 -2.2963,5.771767 -5.74567,14.251942 -7.66525,18.844834 -1.91958,4.592893 -3.49015,8.748566 -3.49015,9.23483 0,0.48626 1.91632,0.20024 4.25848,-0.635616 2.34216,-0.835851 7.97975,-1.542159 12.528,-1.569574 z m -38.466312,0.571505 c 4.048863,-2.093748 6.920367,-8.28655 4.543248,-9.798142 -3.09979,-1.97113 -16.95285,-7.078409 -17.558044,-6.473215 -0.336968,0.336969 0.393096,2.846283 1.622364,5.576254 1.229269,2.729971 2.847694,6.624389 3.596502,8.654262 1.507193,4.085706 3.057028,4.491426 7.79593,2.040841 z m 86.419562,-6.89213 c 2.04839,-4.698081 3.39774,-8.868589 2.99853,-9.267796 -0.81574,-0.815746 -16.42791,5.197509 -17.34442,6.680462 -1.33351,2.15765 2.03118,8.733378 5.0302,9.83071 5.10757,1.868849 5.46327,1.592269 9.31569,-7.243376 z"
     id="path5302"
     inkscape:connector-curvature="0" />
</svg>
