<?xml version="1.0" encoding="UTF-8" standalone="no"?>
<!-- Created with Inkscape (http://www.inkscape.org/) -->

<svg
   xmlns:dc="http://purl.org/dc/elements/1.1/"
   xmlns:cc="http://creativecommons.org/ns#"
   xmlns:rdf="http://www.w3.org/1999/02/22-rdf-syntax-ns#"
   xmlns:svg="http://www.w3.org/2000/svg"
   xmlns="http://www.w3.org/2000/svg"
   xmlns:sodipodi="http://sodipodi.sourceforge.net/DTD/sodipodi-0.dtd"
   xmlns:inkscape="http://www.inkscape.org/namespaces/inkscape"
   version="1.1"
   id="svg42"
   width="61.966537mm"
   height="68.905182mm"
   viewBox="0 0 234.20424 260.42904"
   sodipodi:docname="hermetica-F013-unicursal_hexagram.svg"
   inkscape:version="0.92.5 (2060ec1f9f, 2020-04-08)">
  <metadata
     id="metadata48">
    <rdf:RDF>
      <cc:Work
         rdf:about="">
        <dc:format>image/svg+xml</dc:format>
        <dc:type
           rdf:resource="http://purl.org/dc/dcmitype/StillImage" />
        <dc:title></dc:title>
      </cc:Work>
    </rdf:RDF>
  </metadata>
  <defs
     id="defs46" />
  <sodipodi:namedview
     pagecolor="#ffffff"
     bordercolor="#666666"
     borderopacity="1"
     objecttolerance="10"
     gridtolerance="10"
     guidetolerance="10"
     inkscape:pageopacity="0"
     inkscape:pageshadow="2"
     inkscape:window-width="1920"
     inkscape:window-height="997"
     id="namedview44"
     showgrid="false"
     units="mm"
     fit-margin-top="0"
     fit-margin-left="0"
     fit-margin-right="0"
     fit-margin-bottom="0"
     inkscape:zoom="0.88059701"
     inkscape:cx="117.03294"
     inkscape:cy="130.13288"
     inkscape:window-x="0"
     inkscape:window-y="28"
     inkscape:window-maximized="1"
     inkscape:current-layer="svg42" />
  <path
     style="fill:#ff0000;fill-opacity:0.01829266;stroke:#ff0000;stroke-width:0.56779659;stroke-miterlimit:4;stroke-dasharray:none;stroke-opacity:1"
     d="m 117.83567,0.63989949 -2.40234,3.90234381 c -1.32135,2.1471902 -6.22737,10.5484787 -10.90234,18.6679677 -4.674972,8.119493 -10.290362,17.828714 -12.478522,21.576172 -2.18815,3.747457 -5.85972,10.135567 -8.1582,14.195313 -2.29848,4.059746 -7.076307,12.363506 -10.617189,18.453125 -3.540881,6.089618 -9.243071,15.934349 -12.671875,21.878908 l -6.234375,10.808591 3.111328,5.6211 3.111328,5.61914 1.916015,-2.50782 c 1.053602,-1.37966 5.653119,-9.06873 10.220704,-17.08593 4.567584,-8.017217 10.439064,-18.241439 13.046874,-22.720708 2.60781,-4.479268 6.478,-11.209573 8.60156,-14.957031 8.557822,-15.102001 21.532092,-37.504623 21.992192,-37.97461 0.94226,-0.962509 3.77428,2.854131 9.64063,12.992188 3.25268,5.621187 7.70471,13.285745 9.89453,17.033203 2.18982,3.747457 4.80284,8.346974 5.80664,10.220703 1.0038,1.873729 3.73087,6.539982 6.06054,10.369141 2.32966,3.829159 4.24782,7.406344 4.26172,7.949219 0.0139,0.542875 0.94011,2.176942 2.0586,3.630859 l 2.0332,2.642578 5.23828,-2.544922 5.23828,-2.544922 -2.75586,-4.052734 c -1.51479,-2.229211 -2.7539,-4.434881 -2.7539,-4.902344 0,-0.467463 -1.78859,-3.647159 -3.97461,-7.064453 -2.18602,-3.417294 -3.97461,-6.505682 -3.97461,-6.863281 0,-0.357599 -2.04271,-3.886012 -4.54102,-7.841797 -2.4983,-3.955787 -4.54297,-7.51158 -4.54297,-7.900391 0,-0.388812 -1.78859,-3.502628 -3.97461,-6.919921 -2.18601,-3.417294 -3.97461,-6.482338 -3.97461,-6.8125 0,-0.330164 -1.78858,-3.39716 -3.9746,-6.814454 -2.18602,-3.417294 -3.97461,-6.518332 -3.97461,-6.890625 0,-0.372293 -1.82897,-3.534661 -4.06446,-7.029297 -2.23549,-3.4946345 -4.55981,-7.6548517 -5.16406,-9.2441396 z M 233.57005,57.272711 c -0.20072,-0.195793 -5.166,2.408921 -11.0332,5.78711 -5.8672,3.37819 -10.8405,6.140625 -11.05079,6.140625 -0.21028,0 -3.17841,1.788592 -6.5957,3.974609 -3.4173,2.186017 -6.56515,3.97461 -6.99609,3.97461 -0.43094,0 -4.02077,2.044663 -7.97656,4.542968 -3.95578,2.498305 -7.45017,4.542969 -7.76563,4.542969 -0.31547,0 -3.36981,1.788592 -6.78711,3.974609 -3.41729,2.186017 -6.41921,3.97461 -6.67187,3.97461 -0.51557,0 -17.08819,9.474429 -24.06836,13.759769 -2.49607,1.53241 -5.81747,3.42334 -7.37891,4.20312 -1.56144,0.77978 -4.83049,2.63029 -7.26562,4.11133 l -4.42774,2.69336 5.5625,2.89258 c 3.05971,1.59158 5.92951,2.91816 6.37695,2.94726 0.44744,0.0291 7.60181,-3.88226 15.89844,-8.6914 8.29662,-4.80913 16.61846,-9.55289 18.49219,-10.54297 5.74581,-3.03608 20.25801,-11.563045 23.61523,-13.875002 6.44936,-4.441363 6.64513,-1.969985 0.66016,8.345702 l -5.69531,9.81836 2.93554,5.79492 c 1.61533,3.18769 3.15339,5.79688 3.41797,5.79688 0.26458,0 2.88848,-4.21639 5.83008,-9.36914 2.9416,-5.15276 7.27429,-12.690261 9.62891,-16.750003 2.35462,-4.059748 6.02307,-10.447856 8.15234,-14.195313 2.12926,-3.747458 6.03994,-10.566604 8.68945,-15.154297 2.64951,-4.587693 4.65386,-8.501474 4.45313,-8.697266 z M 1.2399693,57.444587 c -0.17264,-0.0067 -0.26031496,0.04168 -0.25976496,0.148437 0.0023,0.45086 1.10980396,2.608905 2.46093696,4.794922 1.351133,2.186017 4.076789,6.785534 6.058594,10.220703 1.9818057,3.43517 6.4167337,11.099728 9.8554687,17.033203 3.438734,5.933474 6.458461,11.299258 6.710937,11.923828 0.252476,0.62458 4.216039,7.52288 8.806641,15.33008 12.765067,21.70945 15.479438,26.42265 17.167968,29.81055 0.856045,1.71759 1.710352,3.12109 1.900391,3.12109 0.190039,0 2.626487,-1.10663 5.414063,-2.46094 l 5.068359,-2.46289 -3.513672,-6.33789 c -1.932446,-3.48616 -4.710829,-8.24447 -6.173828,-10.57422 -1.462998,-2.32975 -2.658203,-4.49212 -2.658203,-4.80469 0,-0.31256 -1.788589,-3.36399 -3.97461,-6.78124 -2.186016,-3.4173 -3.974609,-6.44999 -3.974609,-6.73829 0,-0.2883 -2.51194,-4.77774 -5.580078,-9.976561 -3.068138,-5.198815 -5.353141,-9.816728 -5.078125,-10.261718 0.275016,-0.444986 2.323452,0.315529 4.550781,1.689454 6.19779,3.823096 13.262508,7.648964 13.533203,7.328124 0.133447,-0.15818 1.325207,-2.432275 2.646485,-5.052734 2.609772,-5.175896 2.847653,-4.696881 -4.427735,-8.847656 -2.20354,-1.25717 -7.96298,-4.58589 -12.798828,-7.396484 C 32.138495,74.339072 26.788398,71.270888 25.083719,70.331305 23.37904,69.391722 19.429256,67.118766 16.306376,65.278571 7.8241253,60.280306 2.4484493,57.491464 1.2399693,57.444587 Z M 82.345438,103.26881 c -0.242681,0 -1.83817,2.11037 -3.544922,4.68945 -2.485087,3.75522 -2.797797,4.89191 -1.570312,5.70703 0.843034,0.55982 6.388794,3.84066 12.322264,7.29102 5.93348,3.45036 11.553382,6.74224 12.490242,7.31445 0.93686,0.57222 6.81478,3.94265 13.06054,7.49023 6.24576,3.54757 17.23144,9.87765 24.41407,14.06641 7.18262,4.18875 13.36198,7.30804 13.73046,6.93164 0.36848,-0.3764 1.79676,-2.57271 3.17578,-4.88086 l 2.50782,-4.19726 -2.60938,-1.58399 c -1.43522,-0.87108 -6.44263,-3.78144 -11.12695,-6.4668 -4.68432,-2.68537 -11.32655,-6.51326 -14.76172,-8.50781 -3.43517,-1.99454 -13.65654,-7.87088 -22.71289,-13.05859 -9.056362,-5.18772 -18.370452,-10.63873 -20.699222,-12.11328 -2.32877,-1.47454 -4.433098,-2.68164 -4.67578,-2.68164 z m 97.324222,7.94922 c -0.79293,0 -3.20213,1.19432 -5.35352,2.65429 l -3.91015,2.6543 3.29297,5.29101 c 1.81137,2.91022 3.29296,5.5398 3.29296,5.8418 0,0.30201 1.78859,3.34443 3.97461,6.76172 2.18602,3.4173 3.97461,6.59373 3.97461,7.05859 0,0.46487 1.19555,2.66128 2.65625,4.88086 5.33865,8.11227 14.44164,24.22437 13.95899,24.70703 -0.59351,0.59351 -9.14383,-3.63958 -13.38282,-6.625 -1.65785,-1.16759 -3.44644,-2.11828 -3.9746,-2.11328 -0.96646,0.009 -6.57581,9.07623 -5.87696,9.5 0.20601,0.12492 2.41772,1.54327 4.91602,3.15235 2.49831,1.60908 6.84174,4.19383 9.65234,5.74414 10.24932,5.6535 35.49234,20.27761 37.83985,21.92187 5.31801,3.72487 5.84343,4.8408 -13.25782,-28.10937 -3.52701,-6.0842 -6.41211,-11.41126 -6.41211,-11.83594 0,-0.42467 -0.71445,-1.57841 -1.58789,-2.56445 -0.87345,-0.98604 -3.12061,-4.6039 -4.99218,-8.03907 -1.87157,-3.43517 -6.09503,-10.84366 -9.38672,-16.46484 -3.29169,-5.62119 -7.78343,-13.41476 -9.98243,-17.31836 -2.19899,-3.9036 -4.64847,-7.09767 -5.4414,-7.09765 z m -82.337892,24.98242 c -1.35937,0 -4.81636,1.4423 -7.68164,3.20508 -18.49299,11.3773 -55.740211,32.38087 -56.347659,31.77343 -0.295294,-0.2953 2.019996,-4.79149 5.144531,-9.99023 3.124536,-5.19874 5.681641,-9.96369 5.681641,-10.58985 0,-2.55863 -5.942417,-11.18063 -6.986328,-10.13671 -0.593915,0.59391 -4.551403,7.16019 -8.792969,14.59179 -4.241565,7.43159 -10.347103,18.05666 -13.568359,23.61133 -3.221255,5.55466 -5.8574217,10.33089 -5.8574217,10.61328 0,0.28239 -0.930913,1.8695 -2.070313,3.52735 -1.139397,1.65786 -3.224918,4.92932 -4.634765,7.27148 -1.40984596,2.34216 -2.23374996,4.25977 -1.83007796,4.25977 0.403672,0 6.96164996,-3.63454 14.57226466,-8.07618 22.209637,-12.96178 42.464711,-24.70046 64.9375,-37.63281 4.372036,-2.51596 10.760146,-6.22757 14.195316,-8.24805 3.43517,-2.02048 7.907622,-4.51764 9.937502,-5.54882 2.02987,-1.03118 3.68378,-2.24488 3.67578,-2.69727 -0.0251,-1.468 -7.832922,-5.93359 -10.375002,-5.93359 z m 76.357422,3.41211 c -0.36917,0.002 -6.54784,10.25598 -13.73047,22.78711 -7.18262,12.53113 -14.90265,25.94495 -17.1543,29.80664 -2.25164,3.8617 -7.90583,13.66585 -12.5664,21.78906 -9.80037,17.08173 -12.28096,21.005 -13.2793,21 -0.3966,-0.002 -2.3152,-2.94182 -4.26367,-6.53125 -1.94847,-3.58944 -6.25484,-11.1249 -9.57031,-16.74609 -3.315482,-5.62119 -6.850362,-11.75324 -7.855472,-13.62696 -1.00511,-1.87373 -3.33979,-5.9611 -5.1875,-9.08398 -3.70024,-6.25388 -6.16959,-10.60503 -9.164064,-16.14844 l -1.97461,-3.65625 -5.386718,2.93359 -5.388672,2.93164 3.878906,6.0625 c 2.133163,3.33467 3.876953,6.35725 3.876953,6.71485 0,0.3576 2.044664,3.886 4.542969,7.84179 2.498305,3.9558 4.542966,7.50963 4.542966,7.89844 0,0.38881 1.65959,3.40731 3.68946,6.70703 2.02987,3.29972 4.45766,7.39777 5.39453,9.10743 0.93686,1.70966 6.537582,11.51113 12.445312,21.78125 l 10.74023,18.67382 2.99805,-5.33203 c 3.24724,-5.77693 12.96034,-22.44241 14.68945,-25.20312 0.58678,-0.93687 3.96952,-6.81284 7.51563,-13.0586 3.54611,-6.24577 10.29257,-17.99965 14.99414,-26.11914 4.70156,-8.11949 11.75823,-20.36182 15.67969,-27.20508 l 7.1289,-12.4414 -2.96289,-5.44336 c -1.62944,-2.99382 -3.26364,-5.44145 -3.63281,-5.43945 z"
     id="path5402"
     inkscape:connector-curvature="0" />
</svg>
