<?xml version="1.0" encoding="UTF-8" standalone="no"?>
<!-- Created with Inkscape (http://www.inkscape.org/) -->

<svg
   xmlns:dc="http://purl.org/dc/elements/1.1/"
   xmlns:cc="http://creativecommons.org/ns#"
   xmlns:rdf="http://www.w3.org/1999/02/22-rdf-syntax-ns#"
   xmlns:svg="http://www.w3.org/2000/svg"
   xmlns="http://www.w3.org/2000/svg"
   xmlns:sodipodi="http://sodipodi.sourceforge.net/DTD/sodipodi-0.dtd"
   xmlns:inkscape="http://www.inkscape.org/namespaces/inkscape"
   version="1.1"
   id="svg72"
   width="62.64571mm"
   height="62.748405mm"
   viewBox="0 0 236.77119 237.15933"
   sodipodi:docname="esoterica-quadruple_solomon.svg"
   inkscape:version="0.92.5 (2060ec1f9f, 2020-04-08)">
  <metadata
     id="metadata78">
    <rdf:RDF>
      <cc:Work
         rdf:about="">
        <dc:format>image/svg+xml</dc:format>
        <dc:type
           rdf:resource="http://purl.org/dc/dcmitype/StillImage" />
        <dc:title></dc:title>
      </cc:Work>
    </rdf:RDF>
  </metadata>
  <defs
     id="defs76" />
  <sodipodi:namedview
     pagecolor="#ffffff"
     bordercolor="#666666"
     borderopacity="1"
     objecttolerance="10"
     gridtolerance="10"
     guidetolerance="10"
     inkscape:pageopacity="0"
     inkscape:pageshadow="2"
     inkscape:window-width="1920"
     inkscape:window-height="997"
     id="namedview74"
     showgrid="false"
     units="mm"
     fit-margin-top="0"
     fit-margin-left="0"
     fit-margin-right="0"
     fit-margin-bottom="0"
     inkscape:zoom="0.88059701"
     inkscape:cx="118.61271"
     inkscape:cy="118.54316"
     inkscape:window-x="0"
     inkscape:window-y="28"
     inkscape:window-maximized="1"
     inkscape:current-layer="svg72" />
  <path
     style="fill:#ff0000;fill-opacity:0.01829266;stroke:#ff0000;stroke-width:0.56779659;stroke-miterlimit:4;stroke-dasharray:none;stroke-opacity:1"
     d="M 22.291698,124.23736 C 1.3069293,102.94022 0.28389829,101.30555 0.28389829,89.071665 c 0,-7.965706 1.64997301,-12.769141 6.42262101,-18.697667 8.1695597,-10.148129 23.7088777,-13.789157 35.1703027,-8.240777 5.647232,2.733778 12.915551,8.542813 12.915551,10.322455 0,1.325385 -10.904173,12.337319 -12.153551,12.273659 -0.498174,-0.0254 -2.675028,-1.558433 -4.837451,-3.406779 -5.537398,-4.733127 -11.534704,-4.671019 -16.053387,0.166246 -2.51994,2.697605 -3.294594,4.615133 -3.294594,8.155233 0,4.45913 0.664352,5.29714 18.169491,22.918965 9.993221,10.05983 18.169492,18.63004 18.169492,19.04493 0,1.05271 -11.269083,12.21841 -12.331542,12.21841 -0.477102,0 -9.553212,-8.81504 -20.169133,-19.58898 z"
     id="path6497"
     inkscape:connector-curvature="0" />
  <path
     style="fill:#ff0000;fill-opacity:0.01829266;stroke:#ff0000;stroke-width:0.56779659;stroke-miterlimit:4;stroke-dasharray:none;stroke-opacity:1"
     d="M 39.732155,108.89609 33.23641,102.33185 52.259617,83.333327 C 62.722382,72.884142 71.704985,64.334809 72.220959,64.334809 c 0.515974,0 3.654477,2.738129 6.974449,6.084731 L 85.231722,76.504271 65.729812,95.982295 46.2279,115.46033 Z"
     id="path6499"
     inkscape:connector-curvature="0" />
  <path
     style="fill:#ff0000;fill-opacity:0.01829266;stroke:#ff0000;stroke-width:0.56779659;stroke-miterlimit:4;stroke-dasharray:none;stroke-opacity:1"
     d="m 98.723132,108.83559 -6.43587,-6.50374 19.023198,-18.998523 c 10.46277,-10.449185 19.42324,-18.998518 19.91218,-18.998518 0.48893,0 3.59973,2.732516 6.91289,6.072258 l 6.02392,6.072257 -19.50022,19.430001 -19.50022,19.430005 z"
     id="path6501"
     inkscape:connector-curvature="0" />
  <path
     style="fill:#ff0000;fill-opacity:0.01829266;stroke:#ff0000;stroke-width:0.56779659;stroke-miterlimit:4;stroke-dasharray:none;stroke-opacity:1"
     d="m 81.342546,65.186504 c -20.98477,-21.297132 -22.0078,-22.931805 -22.0078,-35.165684 0,-12.009089 5.503667,-20.8434635 16.428708,-26.3710295 9.324378,-4.717705 17.378378,-4.50150201 26.897606,0.722045 3.87767,2.127824 8.04186,5.196828 9.25374,6.8200085 l 2.20342,2.951239 -6.16874,6.168739 -6.16874,6.16874 -4.378298,-3.78474 c -3.35197,-2.897548 -5.41922,-3.784742 -8.81883,-3.784742 -8.323779,0 -13.937663,9.571263 -9.9663,16.991821 0.61219,1.143889 8.78295,9.669829 18.15725,18.946531 9.374298,9.276703 17.049678,17.198231 17.056418,17.603395 0.0179,1.078603 -11.16861,12.322658 -12.25962,12.322658 -0.50993,0 -9.612898,-8.81504 -20.228814,-19.588981 z"
     id="path6503"
     inkscape:connector-curvature="0" />
  <path
     style="fill:#ff0000;fill-opacity:0.01829266;stroke:#ff0000;stroke-width:0.56779659;stroke-miterlimit:4;stroke-dasharray:none;stroke-opacity:1"
     d="m 98.752462,49.814374 -6.49619,-6.564692 19.050878,-18.931907 c 21.26684,-21.1340285 25.6399,-23.97938351 36.69628,-23.87662951 6.2956,0.05851 12.42388,2.35732301 19.41896,7.28436201 4.90683,3.4561605 10.0161,14.9174535 10.00296,22.4389855 -0.0132,7.564127 -3.97705,17.006175 -9.42906,22.460532 l -3.61917,3.620725 -6.48097,-6.375973 -6.48096,-6.375972 3.92588,-4.345481 c 4.46934,-4.947034 5.15807,-9.994936 1.9907,-14.5905 -3.03165,-4.398651 -5.10429,-5.571748 -9.91292,-5.610628 -4.27144,-0.03453 -5.29105,0.783038 -23.31847,18.697878 l -18.85173,18.733993 z"
     id="path6505"
     inkscape:connector-curvature="0" />
  <path
     style="fill:#ff0000;fill-opacity:0.01829266;stroke:#ff0000;stroke-width:0.56779659;stroke-miterlimit:4;stroke-dasharray:none;stroke-opacity:1"
     d="m 158.27267,109.22893 c -3.20061,-3.20425 -5.81928,-6.33243 -5.81928,-6.95151 0,-0.61907 8.31674,-9.387275 18.48165,-19.484879 20.26392,-20.129747 24.8522,-23.147407 35.33836,-23.241633 6.13316,-0.05511 13.80436,2.647994 19.96589,7.035396 5.15092,3.667777 10.248,14.973838 10.248,22.731551 0,7.87565 -4.89681,18.596455 -10.32824,22.612085 l -3.57204,2.64093 -6.26147,-6.26147 -6.26146,-6.26146 2.5129,-2.106565 c 3.27432,-2.74486 5.74081,-7.51191 5.74081,-11.0954 0,-1.57506 -1.58064,-4.65612 -3.52441,-6.869957 -2.99521,-3.41135 -4.24838,-4.01409 -8.34581,-4.01409 -4.70858,0 -5.2605,0.433945 -23.58851,18.546457 l -18.76711,18.546455 z"
     id="path6507"
     inkscape:connector-curvature="0" />
  <path
     style="fill:#ff0000;fill-opacity:0.01829266;stroke:#ff0000;stroke-width:0.56779659;stroke-miterlimit:4;stroke-dasharray:none;stroke-opacity:1"
     d="m 196.45403,176.60013 c -2.34414,-0.66248 -6.84988,-3.53116 -10.01276,-6.37486 l -5.75068,-5.17036 6.60597,-6.69053 6.60598,-6.69053 2.39047,2.76175 c 4.69911,5.42897 10.31759,6.70349 16.18213,3.67082 3.28642,-1.69947 5.84265,-6.0079 5.84265,-9.84753 0,-4.32761 -3.32608,-8.48118 -20.35378,-25.41752 l -17.10214,-17.01039 6.44104,-6.508965 6.44105,-6.50897 18.57894,18.680185 c 20.83561,20.94913 24.1422,25.99972 24.1422,36.87548 0,10.5671 -6.80934,21.78821 -16.29232,26.8481 -4.06874,2.17098 -18.04695,2.98621 -23.71875,1.38332 z"
     id="path6509"
     inkscape:connector-curvature="0" />
  <path
     style="fill:#ff0000;fill-opacity:0.01829266;stroke:#ff0000;stroke-width:0.56779659;stroke-miterlimit:4;stroke-dasharray:none;stroke-opacity:1"
     d="m 140.80095,65.742042 -19.00875,-19.033446 6.45315,-6.453151 6.45315,-6.453151 19.09778,19.153747 c 10.50378,10.53456 19.09779,19.361568 19.09779,19.615573 0,0.774474 -11.56801,12.203871 -12.35188,12.203871 -0.40288,0 -9.28644,-8.565049 -19.74124,-19.033443 z"
     id="path6511"
     inkscape:connector-curvature="0" />
  <path
     style="fill:#ff0000;fill-opacity:0.01829266;stroke:#ff0000;stroke-width:0.56779659;stroke-miterlimit:4;stroke-dasharray:none;stroke-opacity:1"
     d="m 140.78929,124.78122 -19.0204,-19.04511 6.5414,-6.445865 6.5414,-6.44587 19.21285,19.299335 19.21285,19.29933 -6.11473,6.19165 c -3.36311,3.40541 -6.39334,6.19165 -6.73386,6.19165 -0.34051,0 -9.17829,-8.5703 -19.63951,-19.04512 z"
     id="path6513"
     inkscape:connector-curvature="0" />
  <path
     style="fill:#ff0000;fill-opacity:0.01829266;stroke:#ff0000;stroke-width:0.56779659;stroke-miterlimit:4;stroke-dasharray:none;stroke-opacity:1"
     d="m 99.349282,168.00717 c -3.27071,-3.25182 -5.94674,-6.32356 -5.94674,-6.82609 0,-0.50253 8.570298,-9.47287 19.045118,-19.93409 l 19.04511,-19.0204 6.42047,6.5414 6.42047,6.5414 -19.51885,19.30509 -19.51885,19.30508 z"
     id="path6515"
     inkscape:connector-curvature="0" />
  <path
     style="fill:#ff0000;fill-opacity:0.01829266;stroke:#ff0000;stroke-width:0.56779659;stroke-miterlimit:4;stroke-dasharray:none;stroke-opacity:1"
     d="m 81.738444,124.78122 -19.020399,-19.04511 6.56407,-6.495585 6.564069,-6.49558 18.998518,19.023215 c 10.449188,10.46276 18.998518,19.32799 18.998518,19.7005 0,0.89907 -11.48151,12.35768 -12.38238,12.35768 -0.3861,0 -9.261178,-8.5703 -19.722396,-19.04512 z"
     id="path6517"
     inkscape:connector-curvature="0" />
  <path
     style="fill:#ff0000;fill-opacity:0.01829266;stroke:#ff0000;stroke-width:0.56779659;stroke-miterlimit:4;stroke-dasharray:none;stroke-opacity:1"
     d="M 20.717225,176.90059 C 11.70083,173.94416 3.9487993,166.58332 1.6018203,158.7498 c -1.65837901,-5.53517 -1.56100901,-16.62514 0.187964,-21.40811 1.500643,-4.10385 9.3481487,-13.95603 11.1163267,-13.95603 0.634283,0 3.964123,2.76636 7.399647,6.14747 4.723866,4.64904 5.868286,6.37903 4.695122,7.09746 -3.235372,1.9813 -6.54749,8.19564 -6.54749,12.28468 0,3.13431 0.859923,5.03045 3.461002,7.63152 3.105985,3.10599 3.994801,3.40084 8.664941,2.87445 4.951748,-0.55814 6.064155,-1.44552 22.954454,-18.31107 9.762784,-9.74848 18.161343,-17.72451 18.663463,-17.72451 0.502122,0 3.668941,2.71234 7.037374,6.02742 l 6.124428,6.02742 -19.266779,18.93105 c -10.596728,10.41208 -20.923595,19.79104 -22.948593,20.84214 -4.092767,2.12439 -17.920192,3.16447 -22.426455,1.6869 z"
     id="path6519"
     inkscape:connector-curvature="0" />
  <path
     style="fill:#ff0000;fill-opacity:0.01829266;stroke:#ff0000;stroke-width:0.56779659;stroke-miterlimit:4;stroke-dasharray:none;stroke-opacity:1"
     d="m 81.738444,183.83207 -19.020399,-19.04512 6.56407,-6.49557 6.564069,-6.49558 19.256688,19.28171 19.256678,19.28171 -6.18124,6.25898 c -3.39968,3.44244 -6.45984,6.25899 -6.80035,6.25899 -0.34052,0 -9.178298,-8.57031 -19.639516,-19.04512 z"
     id="path6521"
     inkscape:connector-curvature="0" />
  <path
     style="fill:#ff0000;fill-opacity:0.01829266;stroke:#ff0000;stroke-width:0.56779659;stroke-miterlimit:4;stroke-dasharray:none;stroke-opacity:1"
     d="m 76.692225,234.55007 c -6.979976,-2.68321 -14.023648,-10.02091 -16.022002,-16.69082 -1.714649,-5.72299 -1.708092,-15.17827 0.01451,-20.92782 0.742495,-2.47823 3.631321,-7.04326 6.419612,-10.14451 l 5.069619,-5.63864 6.620135,6.55106 c 3.641073,3.60308 6.115643,6.86285 5.49904,7.24393 -3.133632,1.93669 -6.788906,8.69049 -6.788906,12.54377 0,8.04898 8.117949,13.37741 15.633339,10.26134 1.70717,-0.70784 10.711858,-8.94258 20.010408,-18.29943 9.29855,-9.35684 17.35285,-17.01244 17.89843,-17.01244 0.54559,0 3.69653,2.64646 7.0021,5.88102 l 6.01013,5.88102 -19.76621,19.66032 c -17.53028,17.43637 -20.41868,19.85408 -25.534158,21.37322 -7.72263,2.29337 -14.903343,2.07143 -22.066051,-0.68202 z"
     id="path6523"
     inkscape:connector-curvature="0" />
  <path
     style="fill:#ff0000;fill-opacity:0.01829266;stroke:#ff0000;stroke-width:0.56779659;stroke-miterlimit:4;stroke-dasharray:none;stroke-opacity:1"
     d="m 136.06894,234.65366 c -3.07798,-1.2018 -7.55402,-4.09674 -9.94676,-6.43319 l -4.35045,-4.2481 6.49537,-6.56385 6.49537,-6.56386 3.4826,3.37547 c 8.57625,8.31243 21.02188,3.88651 21.02188,-7.47581 0,-3.85848 -1.36489,-5.54181 -18.7204,-23.08798 l -18.7204,-18.92605 6.55173,-6.48336 6.55173,-6.48337 18.3359,18.45936 c 13.9697,14.06376 19.02798,19.94661 21.24232,24.70511 5.50452,11.82896 3.18312,23.9276 -6.48932,33.82091 -7.8147,7.99314 -20.56547,10.34966 -31.94957,5.90472 z"
     id="path6525"
     inkscape:connector-curvature="0" />
  <path
     style="fill:#ff0000;fill-opacity:0.01829266;stroke:#ff0000;stroke-width:0.56779659;stroke-miterlimit:4;stroke-dasharray:none;stroke-opacity:1"
     d="m 157.24693,167.36033 -5.917,-5.99143 18.89477,-18.99162 c 10.39212,-10.44539 19.30507,-18.99162 19.80656,-18.99162 0.50149,0 3.63831,2.64969 6.97072,5.88819 l 6.05891,5.88819 -19.15363,19.09486 c -10.53449,10.50217 -19.5113,19.09486 -19.94847,19.09486 -0.43717,0 -3.4575,-2.69614 -6.71186,-5.99143 z"
     id="path6527"
     inkscape:connector-curvature="0" />
</svg>
