<?xml version="1.0" encoding="UTF-8" standalone="no"?>
<!-- Created with Inkscape (http://www.inkscape.org/) -->

<svg
   xmlns:dc="http://purl.org/dc/elements/1.1/"
   xmlns:cc="http://creativecommons.org/ns#"
   xmlns:rdf="http://www.w3.org/1999/02/22-rdf-syntax-ns#"
   xmlns:svg="http://www.w3.org/2000/svg"
   xmlns="http://www.w3.org/2000/svg"
   xmlns:sodipodi="http://sodipodi.sourceforge.net/DTD/sodipodi-0.dtd"
   xmlns:inkscape="http://www.inkscape.org/namespaces/inkscape"
   version="1.1"
   id="svg72"
   width="59.431461mm"
   height="51.849697mm"
   viewBox="0 0 224.62285 195.96736"
   sodipodi:docname="hermetica-manure.svg"
   inkscape:version="0.92.5 (2060ec1f9f, 2020-04-08)">
  <metadata
     id="metadata78">
    <rdf:RDF>
      <cc:Work
         rdf:about="">
        <dc:format>image/svg+xml</dc:format>
        <dc:type
           rdf:resource="http://purl.org/dc/dcmitype/StillImage" />
        <dc:title></dc:title>
      </cc:Work>
    </rdf:RDF>
  </metadata>
  <defs
     id="defs76" />
  <sodipodi:namedview
     pagecolor="#ffffff"
     bordercolor="#666666"
     borderopacity="1"
     objecttolerance="10"
     gridtolerance="10"
     guidetolerance="10"
     inkscape:pageopacity="0"
     inkscape:pageshadow="2"
     inkscape:window-width="1920"
     inkscape:window-height="997"
     id="namedview74"
     showgrid="false"
     units="mm"
     fit-margin-top="0"
     fit-margin-left="0"
     fit-margin-right="0"
     fit-margin-bottom="0"
     inkscape:zoom="0.88059701"
     inkscape:cx="112.14233"
     inkscape:cy="98.5268"
     inkscape:window-x="0"
     inkscape:window-y="28"
     inkscape:window-maximized="1"
     inkscape:current-layer="svg72" />
  <path
     style="fill:#ff0000;fill-opacity:0.01829266;stroke:#ff0000;stroke-width:0.56779659;stroke-miterlimit:4;stroke-dasharray:none;stroke-opacity:1"
     d="M 80.1186,193.66218 C 67.617896,190.95352 57.249748,186.98301 47.446108,181.15013 -6.9042236,148.81332 -15.968288,73.489834 29.070982,28.450562 45.582333,11.939211 65.507814,2.9468242 90.95637,0.5216302 c 12.12531,-1.155517 31.68107,2.035103 43.67071,7.125093 28.39557,12.0548458 49.46102,35.9052818 56.94199,64.4701008 3.83171,14.63073 3.81558,37.977096 -0.0353,51.101696 -1.46605,4.99661 -3.67137,11.23033 -4.90073,13.85272 l -2.23518,4.76798 3.67376,6.89268 c 6.24985,11.72592 17.75029,19.73702 30.50172,21.24724 l 5.76561,0.68285 v 12.49512 12.49512 l -6.85975,-0.71698 c -9.636,-1.00717 -23.27758,-5.82073 -30.47371,-10.75296 -6.09668,-4.17866 -17.175,-15.36016 -17.175,-17.33495 0,-1.79846 -3.20871,-1.13855 -4.76189,0.97934 -2.62965,3.5858 -14.88622,12.39112 -23.06015,16.5668 -18.13489,9.26425 -44.01971,13.1408 -61.88983,9.2687 z m 35.20766,-25.66525 c 11.87087,-3.28958 22.61454,-9.26127 31.55643,-17.54009 10.67347,-9.88197 11.29122,-11.2861 8.03026,-18.25237 -1.43641,-3.06855 -5.0583,-8.03383 -8.04863,-11.03396 -5.61566,-5.63405 -9.97183,-7.99173 -19.45393,-10.52898 l -5.51329,-1.47526 -5.84264,5.96864 c -4.94571,5.05237 -6.80145,6.15955 -12.0884,7.21221 -3.94516,0.7855 -8.12808,0.87952 -11.35593,0.25523 -2.8106,-0.54357 -5.49196,-1.01057 -5.9586,-1.03777 -0.46663,-0.0271 -2.93097,-1.9309 -5.4763,-4.23047 -10.895025,-9.843 -12.681647,-23.223436 -4.633204,-34.699186 3.824434,-5.45301 14.564254,-11.0859 21.136684,-11.0859 5.73033,0 15.38461,4.5832 19.19626,9.11309 2.32524,2.7634 4.24291,3.52053 12.62036,4.98279 12.01545,2.09726 24.13832,7.86533 32.8503,15.630196 3.37998,3.01252 6.44679,5.47731 6.81513,5.47731 0.36834,0 0.66455,-4.7269 0.65826,-10.504226 C 169.79214,71.599014 155.18281,47.031997 133.27193,34.790689 121.44492,28.183104 112.28828,25.840763 97.7203,25.696302 82.95011,25.549836 72.914788,28.192667 60.536998,35.48863 35.287309,50.371806 20.194255,82.720774 25.962882,109.5914 c 6.527749,30.40668 26.776337,51.84352 55.859108,59.13712 9.08266,2.27781 23.80451,1.95636 33.50427,-0.73159 z"
     id="path5262"
     inkscape:connector-curvature="0" />
</svg>
