<?xml version="1.0" encoding="UTF-8" standalone="no"?>
<!-- Created with Inkscape (http://www.inkscape.org/) -->

<svg
   xmlns:dc="http://purl.org/dc/elements/1.1/"
   xmlns:cc="http://creativecommons.org/ns#"
   xmlns:rdf="http://www.w3.org/1999/02/22-rdf-syntax-ns#"
   xmlns:svg="http://www.w3.org/2000/svg"
   xmlns="http://www.w3.org/2000/svg"
   xmlns:sodipodi="http://sodipodi.sourceforge.net/DTD/sodipodi-0.dtd"
   xmlns:inkscape="http://www.inkscape.org/namespaces/inkscape"
   version="1.1"
   id="svg52"
   width="56.229729mm"
   height="34.942024mm"
   viewBox="0 0 212.52181 132.06434"
   sodipodi:docname="esoterica-go_this_way.svg"
   inkscape:version="0.92.5 (2060ec1f9f, 2020-04-08)">
  <metadata
     id="metadata58">
    <rdf:RDF>
      <cc:Work
         rdf:about="">
        <dc:format>image/svg+xml</dc:format>
        <dc:type
           rdf:resource="http://purl.org/dc/dcmitype/StillImage" />
        <dc:title></dc:title>
      </cc:Work>
    </rdf:RDF>
  </metadata>
  <defs
     id="defs56" />
  <sodipodi:namedview
     pagecolor="#ffffff"
     bordercolor="#666666"
     borderopacity="1"
     objecttolerance="10"
     gridtolerance="10"
     guidetolerance="10"
     inkscape:pageopacity="0"
     inkscape:pageshadow="2"
     inkscape:window-width="1920"
     inkscape:window-height="997"
     id="namedview54"
     showgrid="false"
     units="mm"
     fit-margin-top="0"
     fit-margin-left="0"
     fit-margin-right="0"
     fit-margin-bottom="0"
     inkscape:zoom="0.88059701"
     inkscape:cx="-201.38522"
     inkscape:cy="38.990052"
     inkscape:window-x="0"
     inkscape:window-y="28"
     inkscape:window-maximized="1"
     inkscape:current-layer="svg52" />
  <path
     style="fill:#000000;fill-opacity:0;stroke:#ff0000;stroke-width:0.56779659;stroke-miterlimit:4;stroke-dasharray:none;stroke-opacity:1"
     d="M 51.057147,130.21135 C 8.7534971,118.65749 -11.424683,75.265122 7.2806271,36.071675 13.927817,22.14375 29.530657,8.5969715 44.835927,3.4652445 c 11.34289,-3.80317699 28.18784,-4.24744399 38.8024,-1.023371 12.81456,3.892304 20.313153,8.1835795 28.829933,16.4987445 8.51603,8.314415 14.33718,18.280007 17.46678,29.902397 l 1.26898,4.71263 h 15.21972 c 8.37084,0 15.46807,-0.40185 15.77161,-0.89299 0.30355,-0.49115 -6.20634,-7.63219 -14.46643,-15.86897 l -15.01832,-14.975969 8.86752,-8.815528 8.86755,-8.8155285 30.83721,30.8372155 30.83722,30.837217 -30.96332,30.89793 -30.96332,30.897938 -8.94421,-8.89175 -8.94421,-8.89176 15.02012,-15.123888 c 8.26107,-8.31814 15.23305,-15.36846 15.49329,-15.66738 0.26024,-0.29892 -6.69997,-0.54349 -15.46715,-0.54349 h -15.94032 l -3.08934,8.80085 c -7.404,21.092368 -25.00528,37.124858 -47.020473,42.829568 -8.18919,2.12204 -22.55555,2.1421 -30.24402,0.0422 z m 23.2085,-24.40492 c 7.92636,-1.50321 12.09191,-3.61323 18.91318,-9.580308 8.448663,-7.39068 13.241043,-17.0672 13.807303,-27.87897 0.54191,-10.346917 -1.20206,-16.621407 -7.082083,-25.480047 -7.53446,-11.351134 -20.30798,-18.071032 -34.34659,-18.069068 -14.92232,0.0021 -29.27831,9.316488 -36.63952,23.772318 -3.6847,7.23595 -4.64325,23.686827 -1.77954,30.540667 5.31082,12.71059 17.80355,24.520548 27.68223,26.169308 2.30212,0.38423 4.69669,0.87191 5.32127,1.08374 2.28789,0.77596 8.35474,0.53643 14.12375,-0.55764 z"
     id="path4730"
     inkscape:connector-curvature="0" />
</svg>
