<?xml version="1.0" encoding="UTF-8" standalone="no"?>
<!-- Created with Inkscape (http://www.inkscape.org/) -->

<svg
   xmlns:dc="http://purl.org/dc/elements/1.1/"
   xmlns:cc="http://creativecommons.org/ns#"
   xmlns:rdf="http://www.w3.org/1999/02/22-rdf-syntax-ns#"
   xmlns:svg="http://www.w3.org/2000/svg"
   xmlns="http://www.w3.org/2000/svg"
   xmlns:sodipodi="http://sodipodi.sourceforge.net/DTD/sodipodi-0.dtd"
   xmlns:inkscape="http://www.inkscape.org/namespaces/inkscape"
   version="1.1"
   id="svg12"
   width="49.276962mm"
   height="61.745193mm"
   viewBox="0 0 186.24364 233.36766"
   sodipodi:docname="hermetica-nereid.svg"
   inkscape:version="0.92.5 (2060ec1f9f, 2020-04-08)">
  <metadata
     id="metadata18">
    <rdf:RDF>
      <cc:Work
         rdf:about="">
        <dc:format>image/svg+xml</dc:format>
        <dc:type
           rdf:resource="http://purl.org/dc/dcmitype/StillImage" />
        <dc:title></dc:title>
      </cc:Work>
    </rdf:RDF>
  </metadata>
  <defs
     id="defs16" />
  <sodipodi:namedview
     pagecolor="#ffffff"
     bordercolor="#666666"
     borderopacity="1"
     objecttolerance="10"
     gridtolerance="10"
     guidetolerance="10"
     inkscape:pageopacity="0"
     inkscape:pageshadow="2"
     inkscape:window-width="1920"
     inkscape:window-height="997"
     id="namedview14"
     showgrid="false"
     inkscape:zoom="0.88059701"
     inkscape:cx="93.068214"
     inkscape:cy="116.34153"
     inkscape:window-x="0"
     inkscape:window-y="28"
     inkscape:window-maximized="1"
     inkscape:current-layer="svg12"
     units="mm"
     fit-margin-top="0"
     fit-margin-left="0"
     fit-margin-right="0"
     fit-margin-bottom="0" />
  <path
     style="fill:#ff0000;fill-opacity:0.01829266;stroke:#ff0000;stroke-width:0.56779659;stroke-miterlimit:4;stroke-dasharray:none;stroke-opacity:1"
     d="m 80.349574,216.61767 c 0,-9.05636 -0.44743,-16.46611 -0.9943,-16.46611 -0.54686,0 -3.99622,1.35027 -7.66525,3.0006 -3.66903,1.65034 -9.73706,4.15216 -13.484522,5.55963 -6.840342,2.56908 -14.75162,5.74042 -29.525424,11.83568 -4.372033,1.80377 -12.42055,5.06204 -17.885593,7.24058 l -9.93644032,3.961 V 180.17911 128.60919 H 13.296993 25.735943 l -0.0048,32.49634 c -0.0026,17.87299 0.180368,32.68147 0.406631,32.90772 0.431844,0.43186 9.088395,-2.91189 35.47447,-13.70258 8.74406,-3.57592 16.53707,-6.76148 17.31779,-7.07901 1.06112,-0.43157 1.41949,-5.70181 1.41949,-20.87488 v -20.29754 l -3.12288,-0.66825 c -1.71757,-0.36754 -7.67947,-2.14721 -13.24864,-3.95481 C 39.746049,119.57112 19.154867,101.1383 8.7869837,78.030236 1.6737737,62.176233 1.6568667,62.072822 0.94959268,30.094866 l -0.659345,-29.81093094 12.63287432,0.0016 12.632874,0.0016 0.163892,24.69915194 c 0.129474,19.51234 0.589409,26.39567 2.190166,32.777818 4.254789,16.963647 18.707688,34.26709 35.75042,42.801485 4.74565,2.37645 10.4421,4.61514 12.65878,4.97485 l 4.03032,0.65403 V 53.24082 0.28715206 h 12.49152 12.491526 V 53.24082 106.19449 l 4.25847,-0.68218 c 2.34216,-0.3752 8.44174,-2.75022 13.55462,-5.27783 12.21055,-6.036425 24.27828,-17.826893 29.76688,-29.082967 7.33812,-15.049114 7.29366,-14.79899 7.80214,-43.894022 l 0.47134,-26.97033894 h 12.38683 12.38684 V 25.124591 c 0,22.680911 -0.24487,25.81142 -2.82024,36.055085 -6.42429,25.553009 -21.83447,46.070454 -44.15689,58.791434 -7.31751,4.17006 -21.89576,9.63101 -30.52711,11.43532 l -3.12288,0.65281 v 14.87346 c 0,14.84313 0.005,14.87225 2.55508,14.27995 2.86331,-0.6651 13.26423,-4.7129 32.64831,-12.70597 7.18262,-2.96176 16.63644,-6.78169 21.00847,-8.48871 4.37204,-1.70702 11.12761,-4.46131 15.0124,-6.12064 3.88477,-1.65932 7.58964,-3.01695 8.23305,-3.01695 0.78535,0 1.16981,16.79444 1.16981,51.10169 v 51.1017 h -12.47411 -12.47412 l -0.3013,-32.64831 c -0.19394,-21.01307 -0.70602,-32.56212 -1.43692,-32.40648 -0.62457,0.133 -12.88898,4.99344 -27.25423,10.80099 l -26.11865,10.55916 -0.30842,21.84732 -0.30841,21.84732 h -12.467006 -12.467 z"
     id="path5455"
     inkscape:connector-curvature="0" />
</svg>
