<?xml version="1.0" encoding="UTF-8" standalone="no"?>
<!-- Created with Inkscape (http://www.inkscape.org/) -->

<svg
   xmlns:dc="http://purl.org/dc/elements/1.1/"
   xmlns:cc="http://creativecommons.org/ns#"
   xmlns:rdf="http://www.w3.org/1999/02/22-rdf-syntax-ns#"
   xmlns:svg="http://www.w3.org/2000/svg"
   xmlns="http://www.w3.org/2000/svg"
   xmlns:sodipodi="http://sodipodi.sourceforge.net/DTD/sodipodi-0.dtd"
   xmlns:inkscape="http://www.inkscape.org/namespaces/inkscape"
   version="1.1"
   id="svg2"
   width="45.820004mm"
   height="61.873962mm"
   viewBox="0 0 173.17797 233.85435"
   sodipodi:docname="esoterica-mannaz.svg"
   inkscape:version="0.92.5 (2060ec1f9f, 2020-04-08)">
  <metadata
     id="metadata8">
    <rdf:RDF>
      <cc:Work
         rdf:about="">
        <dc:format>image/svg+xml</dc:format>
        <dc:type
           rdf:resource="http://purl.org/dc/dcmitype/StillImage" />
        <dc:title></dc:title>
      </cc:Work>
    </rdf:RDF>
  </metadata>
  <defs
     id="defs6" />
  <sodipodi:namedview
     pagecolor="#ffffff"
     bordercolor="#666666"
     borderopacity="1"
     objecttolerance="10"
     gridtolerance="10"
     guidetolerance="10"
     inkscape:pageopacity="0"
     inkscape:pageshadow="2"
     inkscape:window-width="1920"
     inkscape:window-height="997"
     id="namedview4"
     showgrid="false"
     units="mm"
     fit-margin-top="0"
     fit-margin-left="0"
     fit-margin-right="0"
     fit-margin-bottom="0"
     inkscape:pagecheckerboard="true"
     inkscape:zoom="0.88059701"
     inkscape:cx="86.816101"
     inkscape:cy="117.47712"
     inkscape:window-x="0"
     inkscape:window-y="28"
     inkscape:window-maximized="1"
     inkscape:current-layer="svg2" />
  <path
     style="fill-opacity:0.01829266;stroke:#ff0000;stroke-width:0.56779659;stroke-miterlimit:4;stroke-dasharray:none;stroke-opacity:1"
     d="M 0.28389829,117.07671 V 0.58298745 L 5.1101693,4.3632524 c 2.654449,2.079146 9.8672657,7.8710276 16.0284817,12.8708466 6.161217,4.999821 12.570421,10.112616 14.242677,11.361768 1.672255,1.249153 9.332465,7.381356 17.02269,13.627119 7.690223,6.245762 15.279543,12.210914 16.865143,13.255893 1.58561,1.044977 3.19288,2.32252 3.57171,2.838983 2.08778,2.846259 12.91061,10.720168 14.10506,10.261815 0.77257,-0.296463 6.70453,-4.814949 13.182129,-10.041078 6.4776,-5.22613 13.72931,-11.035105 16.11491,-12.908834 21.5186,-16.901465 45.35252,-36.0808656 45.86251,-36.9060426 0.34517,-0.558511 2.91381,-2.558429 5.70809,-4.444261 l 5.0805,-3.42878495 V 117.21055 233.57044 h -13.05933 -13.05932 v -41.84726 -41.84725 l -6.38869,-4.99597 c -3.51377,-2.74778 -8.54159,-6.78452 -11.17292,-8.97054 -5.6494,-4.69331 -7.81504,-6.43233 -27.55902,-22.12999 l -15.027419,-11.94771 -6.89096,5.39902 c -3.79003,2.96946 -8.53324,6.67656 -10.54046,8.23801 -2.00722,1.56144 -11.50387,9.22669 -21.103656,17.03389 -9.599786,7.80721 -18.662675,15.13182 -20.139751,16.27693 l -2.685596,2.08199 v 41.35445 41.35443 H 12.775423 0.28389829 Z M 33.028519,112.34586 c 2.836076,-2.34216 6.535472,-5.2805 8.220881,-6.52966 5.014376,-3.71644 24.898901,-19.887747 24.898901,-20.249307 0,-0.18369 -5.43123,-4.645542 -12.06941,-9.915219 C 47.440718,70.381998 39.84232,64.281884 37.193566,62.095867 34.544812,59.90985 31.282918,57.227011 29.944911,56.134003 c -1.338006,-1.093009 -2.937913,-1.987288 -3.55535,-1.987288 -0.71254,0 -1.122613,11.407401 -1.122613,31.228818 0,22.730467 0.354461,31.228807 1.302535,31.228807 0.716395,0 3.62296,-1.91631 6.459036,-4.25848 z M 146.77542,85.375533 c 0,-17.175852 -0.25629,-31.228818 -0.56954,-31.228818 -1.12177,0 -39.17622,31.080148 -39.17622,31.996328 0,0.51473 0.4138,0.93587 0.91957,0.93587 0.76497,0 6.24618,4.27915 14.92877,11.65478 7.13457,6.060627 22.35807,17.862677 23.04573,17.866227 0.46843,0.002 0.85169,-14.04855 0.85169,-31.224387 z"
     id="path5416"
     inkscape:connector-curvature="0" />
</svg>
