<?xml version="1.0" encoding="UTF-8" standalone="no"?>
<!-- Created with Inkscape (http://www.inkscape.org/) -->

<svg
   xmlns:dc="http://purl.org/dc/elements/1.1/"
   xmlns:cc="http://creativecommons.org/ns#"
   xmlns:rdf="http://www.w3.org/1999/02/22-rdf-syntax-ns#"
   xmlns:svg="http://www.w3.org/2000/svg"
   xmlns="http://www.w3.org/2000/svg"
   xmlns:sodipodi="http://sodipodi.sourceforge.net/DTD/sodipodi-0.dtd"
   xmlns:inkscape="http://www.inkscape.org/namespaces/inkscape"
   version="1.1"
   id="svg62"
   width="63.924206mm"
   height="50.02663mm"
   viewBox="0 0 241.6033 189.07703"
   sodipodi:docname="esoterica-ka.svg"
   inkscape:version="0.92.5 (2060ec1f9f, 2020-04-08)">
  <metadata
     id="metadata68">
    <rdf:RDF>
      <cc:Work
         rdf:about="">
        <dc:format>image/svg+xml</dc:format>
        <dc:type
           rdf:resource="http://purl.org/dc/dcmitype/StillImage" />
        <dc:title></dc:title>
      </cc:Work>
    </rdf:RDF>
  </metadata>
  <defs
     id="defs66" />
  <sodipodi:namedview
     pagecolor="#ffffff"
     bordercolor="#666666"
     borderopacity="1"
     objecttolerance="10"
     gridtolerance="10"
     guidetolerance="10"
     inkscape:pageopacity="0"
     inkscape:pageshadow="2"
     inkscape:window-width="1920"
     inkscape:window-height="997"
     id="namedview64"
     showgrid="false"
     units="mm"
     fit-margin-top="0"
     fit-margin-left="0"
     fit-margin-right="0"
     fit-margin-bottom="0"
     inkscape:zoom="0.88059701"
     inkscape:cx="120.8839"
     inkscape:cy="94.76601"
     inkscape:window-x="0"
     inkscape:window-y="28"
     inkscape:window-maximized="1"
     inkscape:current-layer="svg62" />
  <path
     style="fill:#000000;fill-opacity:0;stroke:#ff0000;stroke-width:0.56779659;stroke-miterlimit:4;stroke-dasharray:none;stroke-opacity:1"
     d="m 106.31191,184.20637 c -3.1637,-7.90686 -3.15543,-7.90552 -48.624161,-7.90552 H 17.317796 V 115.01943 53.737997 L 10.607975,47.167728 C 1.8870073,38.62814 0.28389829,33.520244 0.28389829,14.272702 V 0.28389829 H 12.740471 25.197044 L 25.515895,14.073486 c 0.270074,11.680133 0.622854,13.980993 2.306139,15.040802 3.7603,2.367518 5.923696,-0.456556 6.299949,-8.223888 L 34.46007,13.911017 H 47.065722 59.671375 L 58.9586,22.711864 c -1.12425,13.881452 -2.428986,17.088207 -9.950382,24.455864 l -6.707371,6.570269 v 48.124633 48.12463 l 29.973855,0.38137 29.973858,0.38137 9.43683,4.82317 9.43684,4.82316 4.18113,-2.76694 c 9.97994,-6.6044 10.67716,-6.7202 43.33223,-7.19644 l 30.37712,-0.44302 v -48.277 -48.276999 l -5.7345,-5.155815 C 185.09826,40.925635 182.81407,35.885975 182.2043,23.847458 l -0.5033,-9.936441 h 12.57624 12.57626 l 0.33807,6.979383 c 0.35523,7.333233 2.16915,9.984461 5.86171,8.567492 1.58316,-0.607519 1.85774,-2.816135 1.85774,-14.943438 V 0.28389829 h 13.19985 13.19985 L 240.8063,17.033898 c -0.59061,19.612188 -1.86582,23.18594 -11.11584,31.151884 l -5.69358,4.903201 -5.6e-4,61.605937 -5.6e-4,61.60593 -40.59745,0.005 c -38.08166,0.005 -40.81986,0.13985 -44.18617,2.19249 -2.07836,1.26728 -4.20558,3.89413 -5.0544,6.24152 l -1.46569,4.05327 h -12.2726 -12.27258 l -1.83496,-4.586 z"
     id="path5283"
     inkscape:connector-curvature="0" />
</svg>
