<?xml version="1.0" encoding="UTF-8" standalone="no"?>
<!-- Created with Inkscape (http://www.inkscape.org/) -->

<svg
   xmlns:dc="http://purl.org/dc/elements/1.1/"
   xmlns:cc="http://creativecommons.org/ns#"
   xmlns:rdf="http://www.w3.org/1999/02/22-rdf-syntax-ns#"
   xmlns:svg="http://www.w3.org/2000/svg"
   xmlns="http://www.w3.org/2000/svg"
   xmlns:sodipodi="http://sodipodi.sourceforge.net/DTD/sodipodi-0.dtd"
   xmlns:inkscape="http://www.inkscape.org/namespaces/inkscape"
   version="1.1"
   id="svg22"
   width="42.36227mm"
   height="61.578556mm"
   viewBox="0 0 160.10937 232.73785"
   sodipodi:docname="esoterica-sedge.svg"
   inkscape:version="0.92.5 (2060ec1f9f, 2020-04-08)">
  <metadata
     id="metadata28">
    <rdf:RDF>
      <cc:Work
         rdf:about="">
        <dc:format>image/svg+xml</dc:format>
        <dc:type
           rdf:resource="http://purl.org/dc/dcmitype/StillImage" />
        <dc:title></dc:title>
      </cc:Work>
    </rdf:RDF>
  </metadata>
  <defs
     id="defs26" />
  <sodipodi:namedview
     pagecolor="#ffffff"
     bordercolor="#666666"
     borderopacity="1"
     objecttolerance="10"
     gridtolerance="10"
     guidetolerance="10"
     inkscape:pageopacity="0"
     inkscape:pageshadow="2"
     inkscape:window-width="1920"
     inkscape:window-height="997"
     id="namedview24"
     showgrid="false"
     units="mm"
     fit-margin-top="0"
     fit-margin-left="0"
     fit-margin-right="0"
     fit-margin-bottom="0"
     inkscape:zoom="0.88059701"
     inkscape:cx="80.308658"
     inkscape:cy="116.34146"
     inkscape:window-x="0"
     inkscape:window-y="28"
     inkscape:window-maximized="1"
     inkscape:current-layer="svg22" />
  <path
     style="fill:#000000;fill-opacity:0;stroke:#ff0000;stroke-width:0.56779659;stroke-miterlimit:4;stroke-dasharray:none;stroke-opacity:1"
     d="m 67.590018,217.65356 c 0,-13.47503 -0.25037,-15.29455 -2.79572,-20.31755 -2.24089,-4.42218 -3.97537,-6.10492 -8.73991,-8.4792 -6.71383,-3.34564 -8.45009,-3.52982 -14.941196,-1.58504 -6.169891,1.84854 -12.673481,8.25222 -14.459455,14.23733 l -1.440173,4.82627 H 12.801973 0.39038191 L 1.1936219,201.5091 c 2.175669,-13.0725 9.1959151,-24.66989 19.0854531,-31.52898 12.685499,-8.7983 26.872833,-10.33097 45.449183,-4.90994 1.95856,0.57155 2.07995,-0.0344 1.6627,-8.30065 -0.28201,-5.58694 -1.24338,-10.54544 -2.57419,-13.27702 -3.72809,-7.65214 -13.50199,-12.21794 -22.529354,-10.5244 -5.818666,1.09159 -12.908259,7.77714 -15.255563,14.38612 l -1.991877,5.60826 H 12.688613 0.33725191 l 0.73699899,-4.25847 c 2.924407,-16.8976 12.4418881,-29.93963 26.6163911,-36.47308 12.528761,-5.77488 20.708036,-5.92583 37.344286,-0.68918 l 2.55509,0.80426 V 71.485372 c 0,-39.618116 -0.0716,-40.951646 -2.35361,-43.852784 -3.16253,-4.020498 -8.02857,-4.020498 -11.19109,0 -1.82119,2.315261 -2.35361,4.627263 -2.35361,10.220339 v 7.228211 l -12.207626,0.0011 -12.207627,0.0011 0.690496,-11.073202 C 28.794027,20.746729 30.226449,16.393645 35.660002,10.631259 42.504512,3.3725281 49.666848,0.28209308 59.640858,0.28389908 c 7.35091,0.0013 9.44978,0.491023 15.33051,3.57678802 7.08779,3.719143 11.85,8.7572369 15.10351,15.9785109 1.6573,3.678426 1.95698,10.016547 2.28599,48.348312 l 0.37866,44.11492 2.47185,-0.78251 c 14.272732,-4.51827 19.414562,-4.91594 29.522142,-2.28325 9.07373,2.36341 14.04158,5.13427 20.73406,11.56463 6.76559,6.50061 12.48715,17.54583 13.57152,26.19926 l 0.74709,5.96186 h -12.36256 -12.36256 l -1.34548,-5.0306 c -0.83215,-3.11134 -2.9199,-6.55966 -5.47221,-9.03843 -14.69194,-14.26864 -35.670312,-3.18141 -35.670312,18.85203 0,4.23969 0.38326,7.703 0.85169,7.69624 0.46843,-0.007 3.40678,-0.7948 6.52966,-1.7512 7.041872,-2.15659 19.676882,-2.19785 27.432932,-0.0896 16.02667,4.35643 29.43814,19.95131 31.62409,36.77256 l 0.77475,5.96186 h -12.59808 c -10.56265,2e-5 -12.59809,-0.28129 -12.59809,-1.74111 0,-0.95764 -1.25807,-4.22383 -2.79572,-7.25823 -2.24089,-4.42218 -3.97537,-6.10492 -8.73991,-8.4792 -6.60233,-3.29007 -9.03304,-3.56622 -14.69746,-1.6697 -6.01568,2.01414 -11.289512,6.52224 -13.611342,11.63508 -1.71219,3.77036 -2.12747,7.47394 -2.14758,19.15301 l -0.0249,14.47882 h -12.49153 -12.49152 z"
     id="path5392"
     inkscape:connector-curvature="0" />
</svg>
