<?xml version="1.0" encoding="UTF-8" standalone="no"?>
<!-- Created with Inkscape (http://www.inkscape.org/) -->

<svg
   xmlns:dc="http://purl.org/dc/elements/1.1/"
   xmlns:cc="http://creativecommons.org/ns#"
   xmlns:rdf="http://www.w3.org/1999/02/22-rdf-syntax-ns#"
   xmlns:svg="http://www.w3.org/2000/svg"
   xmlns="http://www.w3.org/2000/svg"
   xmlns:sodipodi="http://sodipodi.sourceforge.net/DTD/sodipodi-0.dtd"
   xmlns:inkscape="http://www.inkscape.org/namespaces/inkscape"
   version="1.1"
   id="svg12"
   width="61.581375mm"
   height="61.534901mm"
   viewBox="0 0 232.74851 232.57285"
   sodipodi:docname="hermetica-moon_phase_waning_crescent.svg"
   inkscape:version="0.92.5 (2060ec1f9f, 2020-04-08)">
  <metadata
     id="metadata18">
    <rdf:RDF>
      <cc:Work
         rdf:about="">
        <dc:format>image/svg+xml</dc:format>
        <dc:type
           rdf:resource="http://purl.org/dc/dcmitype/StillImage" />
        <dc:title></dc:title>
      </cc:Work>
    </rdf:RDF>
  </metadata>
  <defs
     id="defs16" />
  <sodipodi:namedview
     pagecolor="#ffffff"
     bordercolor="#666666"
     borderopacity="1"
     objecttolerance="10"
     gridtolerance="10"
     guidetolerance="10"
     inkscape:pageopacity="0"
     inkscape:pageshadow="2"
     inkscape:window-width="1920"
     inkscape:window-height="997"
     id="namedview14"
     showgrid="false"
     units="mm"
     fit-margin-top="0"
     fit-margin-left="0"
     fit-margin-right="0"
     fit-margin-bottom="0"
     inkscape:zoom="0.88059701"
     inkscape:cx="392.27397"
     inkscape:cy="11.601759"
     inkscape:window-x="0"
     inkscape:window-y="28"
     inkscape:window-maximized="1"
     inkscape:current-layer="svg12" />
  <path
     style="fill:#ffff00;fill-opacity:0.01829266;stroke:#ff0000;stroke-width:0.56779659;stroke-miterlimit:4;stroke-dasharray:none;stroke-opacity:1"
     d="M 90.546849,230.33499 C 65.513139,223.4601 51.270569,215.35595 34.387789,198.37997 22.971209,186.90036 21.051069,184.40939 14.583249,172.68771 4.9359589,155.20387 0.26150885,136.85556 0.28397885,116.55973 0.30147885,100.71179 1.3183889,94.484523 6.4614589,78.729157 18.470279,41.941134 51.089059,12.390056 89.979059,3.066146 c 15.405891,-3.69357703 38.216581,-3.70651003 53.372881,-0.03026 42.63004,10.340167 75.9664,43.23059 86.45443,85.297927 2.27835,9.13844 2.68464,13.566567 2.65697,28.957627 -0.0287,15.99965 -0.38644,19.4607 -2.99489,28.98167 -3.24417,11.84128 -11.12042,28.78507 -17.60994,37.88335 -14.26023,19.99279 -36.16602,35.75729 -61.12522,43.98872 -10.91792,3.60069 -12.14434,3.75724 -31.79661,4.05899 -17.31626,0.26589 -21.655721,-0.0199 -28.389831,-1.86918 z m 15.330511,-23.65438 c 0,-0.48977 -2.85669,-3.68363 -6.348201,-7.09746 -12.37945,-12.10405 -20.37459,-24.13319 -27.05333,-40.70329 -10.02898,-24.88212 -10.11083,-58.43214 -0.20509,-84.061957 6.4552,-16.701982 18.15713,-34.232008 29.108671,-43.606117 8.25893,-7.069342 4.30497,-7.434659 -14.466891,-1.336634 -27.76341,9.018919 -51.06118,34.137396 -59.4877,64.136621 -1.99683,7.108897 -2.03228,36.331187 -0.0537,44.288137 3.28612,13.21552 12.87117,30.6027 22.76958,41.3038 10.64176,11.50471 30.64329,22.94756 45.91645,26.26874 8.482571,1.84455 9.820251,1.95463 9.820251,0.80816 z"
     id="path9091"
     inkscape:connector-curvature="0" />
</svg>
