<?xml version="1.0" encoding="UTF-8" standalone="no"?>
<!-- Created with Inkscape (http://www.inkscape.org/) -->

<svg
   xmlns:dc="http://purl.org/dc/elements/1.1/"
   xmlns:cc="http://creativecommons.org/ns#"
   xmlns:rdf="http://www.w3.org/1999/02/22-rdf-syntax-ns#"
   xmlns:svg="http://www.w3.org/2000/svg"
   xmlns="http://www.w3.org/2000/svg"
   xmlns:sodipodi="http://sodipodi.sourceforge.net/DTD/sodipodi-0.dtd"
   xmlns:inkscape="http://www.inkscape.org/namespaces/inkscape"
   version="1.1"
   id="svg62"
   width="59.421143mm"
   height="62.546654mm"
   viewBox="0 0 224.58385 236.3968"
   sodipodi:docname="esoterica-fleur_de_li.svg"
   inkscape:version="0.92.5 (2060ec1f9f, 2020-04-08)">
  <metadata
     id="metadata68">
    <rdf:RDF>
      <cc:Work
         rdf:about="">
        <dc:format>image/svg+xml</dc:format>
        <dc:type
           rdf:resource="http://purl.org/dc/dcmitype/StillImage" />
        <dc:title></dc:title>
      </cc:Work>
    </rdf:RDF>
  </metadata>
  <defs
     id="defs66" />
  <sodipodi:namedview
     pagecolor="#ffffff"
     bordercolor="#666666"
     borderopacity="1"
     objecttolerance="10"
     gridtolerance="10"
     guidetolerance="10"
     inkscape:pageopacity="0"
     inkscape:pageshadow="2"
     inkscape:window-width="1920"
     inkscape:window-height="997"
     id="namedview64"
     showgrid="false"
     units="mm"
     fit-margin-top="0"
     fit-margin-left="0"
     fit-margin-right="0"
     fit-margin-bottom="0"
     inkscape:zoom="0.88059701"
     inkscape:cx="112.36218"
     inkscape:cy="117.09851"
     inkscape:window-x="0"
     inkscape:window-y="28"
     inkscape:window-maximized="1"
     inkscape:current-layer="svg62" />
  <path
     style="fill:#000000;fill-opacity:0;stroke:#ff0000;stroke-width:0.56779659;stroke-miterlimit:4;stroke-dasharray:none;stroke-opacity:1"
     d="m 106.80045,235.40323 c -3.03086,-1.2943 -5.48933,-5.84211 -6.52276,-12.0662 -0.423514,-2.55064 -1.772034,-6.28523 -2.996734,-8.29908 -2.37019,-3.89746 -9.87504,-8.00498 -14.70254,-8.04693 -2.99929,-0.0261 -7.481841,-2.52333 -9.905223,-5.51829 -0.78072,-0.96486 -1.419492,-4.21023 -1.419492,-7.21194 0,-4.61231 0.598377,-6.11999 3.86322,-9.73378 4.473065,-4.95114 9.763895,-14.42089 9.763895,-17.47582 0,-1.64208 -0.86281,-2.10205 -3.943,-2.10205 -3.632518,0 -4.129555,0.43362 -6.311909,5.50664 -4.56046,10.60108 -16.507218,18.34082 -28.310168,18.34082 -10.282263,0 -16.185089,-8.55618 -11.994811,-17.38653 1.893748,-3.99078 4.665062,-5.66507 11.665824,-7.04795 4.025596,-0.79519 4.516058,-2.20081 1.951173,-5.59189 -1.995267,-2.63799 -2.14555,-7.6677 -0.37537,-12.56305 1.074758,-2.97219 0.95737,-4.08326 -0.698401,-6.61029 -2.25871,-3.44723 -3.914162,-3.72768 -8.377967,-1.41936 -3.286417,1.69947 -5.842655,6.0079 -5.842655,9.84753 0,6.67579 -8.051746,13.20322 -14.435198,11.70239 C 10.457942,157.90525 3.083659,146.4956 0.90242601,132.95138 -2.037173,114.69814 5.620382,97.790681 21.055576,88.454351 28.909159,83.703932 35.04747,81.892704 46.270651,81.014151 L 54.7876,80.347444 55.488102,74.608543 C 56.495962,66.351593 63.081598,51.033842 70.126331,40.560989 73.472327,35.586759 83.143316,24.488564 91.617426,15.898331 106.71115,0.59777108 107.12511,0.27981308 111.94659,0.28392508 c 4.74826,0.004 5.40356,0.474384 18.59631,13.34741692 25.76664,25.142189 35.19616,40.415619 38.91071,63.025424 l 0.69962,4.258474 6.4782,0.01678 c 18.8765,0.04891 35.28778,9.464021 43.47359,24.94069 8.25884,15.61473 3.75502,42.65999 -8.57541,51.49505 -8.31817,5.96018 -19.90302,-0.55131 -19.90302,-11.18687 0,-3.89505 -5.9097,-9.9136 -9.24732,-9.41764 -1.3467,0.20012 -3.46848,1.73513 -4.71504,3.41113 -2.17711,2.92708 -2.19015,3.20814 -0.33062,7.1268 2.00897,4.2336 1.71546,7.09262 -1.20298,11.71817 -2.15319,3.41269 -1.2091,4.63835 4.24457,5.51042 5.96726,0.95421 9.86637,4.1808 10.75109,8.89675 2.43462,12.97764 -8.20241,18.88017 -23.62526,13.10974 -6.87984,-2.57407 -14.105,-9.37906 -17.79572,-16.76085 -2.1454,-4.291 -2.85127,-4.82627 -6.36451,-4.82627 -2.41744,0 -3.94181,0.55108 -3.92656,1.41949 0.0463,2.63902 4.15643,10.4734 8.39482,16.0018 5.67691,7.40474 6.75928,10.09662 5.90046,14.67459 -1.01097,5.38889 -4.8569,8.55711 -12.04162,9.91966 -3.36608,0.63836 -7.32427,1.94963 -8.79596,2.91392 -3.93281,2.57689 -7.00008,8.26536 -7.83548,14.5315 -1.00698,7.55318 -4.21746,11.04846 -10.66769,11.61405 -2.78998,0.24464 -6.19572,-0.0348 -7.56832,-0.62092 z m 10.11919,-44.90208 4.17622,-2.83781 -2.63794,-5.96484 c -1.45086,-3.28067 -3.24776,-8.90238 -3.99311,-12.49269 -0.74535,-3.59033 -1.79374,-6.52786 -2.32975,-6.52786 -0.53601,0 -1.57879,2.93835 -2.31727,6.52966 -0.73849,3.59132 -2.32076,9.08475 -3.51617,12.20763 l -2.17346,5.67797 3.67666,3.12288 c 2.02216,1.71758 3.96059,3.12288 4.30763,3.12288 0.34704,0 2.51028,-1.27702 4.80719,-2.83782 z m 1.05649,-60.34752 c 3.97588,-11.8916 9.91886,-22.32116 17.91116,-31.432879 3.18873,-3.63535 6.61906,-8.1981 7.62296,-10.13943 5.31537,-10.278795 -5.30243,-32.5707 -24.45711,-51.347293 l -6.91084,-6.774432 -5.78588,5.638839 C 94.118356,48.025478 83.307116,64.544172 81.349966,74.306238 c -2.16947,10.821099 -0.86365,15.096493 7.57406,24.798283 9.18418,10.560089 15.805954,22.295989 18.613194,32.988569 2.09685,7.98674 4.15285,11.04341 6.11097,9.08529 0.53037,-0.53037 2.47795,-5.4915 4.32794,-11.02475 z m -35.165424,7.11349 c -0.81821,-4.75499 -6.314866,-14.37056 -11.612601,-20.31448 -10.27029,-11.523 -21.626375,-14.34011 -34.296098,-8.50784 -6.401582,2.94685 -9.206288,6.43155 -3.974577,4.93821 16.368615,-4.67227 31.251681,2.94534 39.241997,20.08526 2.941429,6.30961 3.211424,6.54937 7.033429,6.24576 3.17758,-0.25243 3.90104,-0.74309 3.60785,-2.44691 z m 70.146154,-4.39849 c 4.72242,-9.20694 10.37082,-15.27665 16.93368,-18.19676 5.61363,-2.49777 14.17792,-3.14951 20.45111,-1.55634 5.60181,1.42266 4.17144,-1.18858 -2.59119,-4.73044 -15.18555,-7.95327 -31.47682,-0.0261 -42.53549,20.69738 -4.71944,8.84403 -4.6682,10.88362 0.27349,10.88362 3.55027,0 4.09206,-0.51489 7.4684,-7.09746 z"
     id="path6437"
     inkscape:connector-curvature="0" />
</svg>
