<?xml version="1.0" encoding="UTF-8" standalone="no"?>
<!-- Created with Inkscape (http://www.inkscape.org/) -->

<svg
   xmlns:dc="http://purl.org/dc/elements/1.1/"
   xmlns:cc="http://creativecommons.org/ns#"
   xmlns:rdf="http://www.w3.org/1999/02/22-rdf-syntax-ns#"
   xmlns:svg="http://www.w3.org/2000/svg"
   xmlns="http://www.w3.org/2000/svg"
   xmlns:sodipodi="http://sodipodi.sourceforge.net/DTD/sodipodi-0.dtd"
   xmlns:inkscape="http://www.inkscape.org/namespaces/inkscape"
   version="1.1"
   id="svg2"
   width="42.616455mm"
   height="42.530499mm"
   viewBox="0 0 161.07007 160.74519"
   sodipodi:docname="esoterica-processean_cross.svg"
   inkscape:version="0.92.5 (2060ec1f9f, 2020-04-08)">
  <metadata
     id="metadata8">
    <rdf:RDF>
      <cc:Work
         rdf:about="">
        <dc:format>image/svg+xml</dc:format>
        <dc:type
           rdf:resource="http://purl.org/dc/dcmitype/StillImage" />
        <dc:title></dc:title>
      </cc:Work>
    </rdf:RDF>
  </metadata>
  <defs
     id="defs6" />
  <sodipodi:namedview
     pagecolor="#ffffff"
     bordercolor="#666666"
     borderopacity="1"
     objecttolerance="10"
     gridtolerance="10"
     guidetolerance="10"
     inkscape:pageopacity="0"
     inkscape:pageshadow="2"
     inkscape:window-width="1920"
     inkscape:window-height="997"
     id="namedview4"
     showgrid="false"
     units="mm"
     fit-margin-top="0"
     fit-margin-left="0"
     fit-margin-right="0"
     fit-margin-bottom="0"
     inkscape:zoom="0.88059701"
     inkscape:cx="80.351241"
     inkscape:cy="80.00254"
     inkscape:window-x="0"
     inkscape:window-y="28"
     inkscape:window-maximized="1"
     inkscape:current-layer="svg2" />
  <path
     style="fill:#000000;fill-opacity:0;stroke:#ff0000;stroke-width:0.56779659;stroke-miterlimit:4;stroke-dasharray:none;stroke-opacity:1"
     d="m 76.014291,155.06723 c -1.68849,-2.96674 -4.89366,-8.46017 -7.12261,-12.20763 -2.22894,-3.74746 -4.87391,-8.34661 -5.87771,-10.22034 -1.0038,-1.87373 -3.6214,-6.47288 -5.8169,-10.22034 -2.19549,-3.74746 -7.44551,-12.82285 -11.666705,-20.16754 -4.221194,-7.344688 -8.140368,-13.641658 -8.709275,-13.993258 -0.568908,-0.35161 -3.70613,1.01161 -6.971605,3.02936 -3.265476,2.01776 -8.59193,5.13213 -11.836566,6.92082 l -5.899337,3.252168 -3.0785631,-5.419078 c -1.693209,-2.98049 -4.515073,-7.82668 -6.270808,-10.76929 -1.755736,-2.94262 -2.82585002,-5.5673 -2.37803202,-5.83263 0.447817,-0.26533 9.50150202,-5.47507 20.11929812,-11.5772 10.617797,-6.10213 22.115678,-12.7234 25.550848,-14.71394 3.435165,-1.99054 10.818375,-6.2704 16.407135,-9.510793 5.58875,-3.240399 10.379,-6.109274 10.64501,-6.375281 0.26601,-0.266006 -0.68017,-2.421781 -2.10262,-4.79061 -5.87976,-9.791706 -11.46096,-19.868208 -11.11956,-20.075686 6.98698,-4.2462365 14.80615,-8.7752675 17.59478,-10.1912765 l 3.60272,-1.82938302 2.75805,4.80994602 c 1.51692,2.645471 4.54734,7.8760475 6.73427,11.6235055 10.883629,18.649898 22.131429,38.180698 25.505559,44.288138 2.07032,3.74745 4.70475,8.01457 5.85427,9.48249 l 2.09003,2.66892 6.72281,-3.57666 c 3.69753,-1.96716 8.76687,-4.82058 11.26517,-6.34093 2.49831,-1.52034 5.05339,-2.76845 5.67797,-2.77357 0.62457,-0.005 2.35843,2.15829 3.85301,4.80759 1.49459,2.6493 4.16205,7.40051 5.92772,10.55824 l 3.2103,5.74134 -7.63111,4.21184 c -4.19711,2.31651 -12.48577,7.06849 -18.41924,10.55995 -5.93348,3.49147 -13.59873,7.879468 -17.0339,9.751118 -3.43517,1.87165 -7.05253,4.11763 -8.03857,4.99108 -0.98605,0.87344 -2.14758,1.58808 -2.58118,1.58808 -1.89303,0 -18.905679,10.65513 -18.905679,11.84075 0,0.72263 2.61071,5.867 5.80158,11.4319 3.19086,5.56492 6.03934,10.73766 6.329949,11.49498 0.29388,0.76581 -1.902999,2.75095 -4.949879,4.47278 -3.01304,1.70272 -7.38361,4.30155 -9.71238,5.77517 -2.32877,1.47364 -4.73456,2.67933 -5.3462,2.67933 -0.61164,0 -2.49356,-2.42733 -4.18205,-5.39406 z m 14.09257,-61.726918 c 5.43958,-3.12726 10.315299,-6.10762 10.834929,-6.62302 0.51963,-0.51541 -1.316029,-4.70228 -4.079249,-9.30417 -2.76322,-4.6019 -6.22082,-10.5389 -7.68356,-13.19335 -2.82116,-5.1196 -4.48924,-5.88751 -6.78367,-3.12288 -0.77753,0.93686 -1.98989,1.70824 -2.69413,1.71418 -0.70425,0.006 -4.49485,2.05 -8.42355,4.54237 -3.92871,2.49237 -7.53591,4.53158 -8.01601,4.53158 -0.48009,0 -1.79096,0.67131 -2.91304,1.49179 -1.93034,1.4115 -1.86057,1.79348 1.29624,7.09746 1.83501,3.08312 5.53344,9.32512 8.21873,13.87113 4.84898,8.208958 4.90104,8.253198 7.61775,6.473138 1.50448,-0.985768 7.18598,-4.350968 12.62556,-7.478228 z"
     id="path6102"
     inkscape:connector-curvature="0" />
</svg>
