<?xml version="1.0" encoding="UTF-8" standalone="no"?>
<!-- Created with Inkscape (http://www.inkscape.org/) -->

<svg
   xmlns:dc="http://purl.org/dc/elements/1.1/"
   xmlns:cc="http://creativecommons.org/ns#"
   xmlns:rdf="http://www.w3.org/1999/02/22-rdf-syntax-ns#"
   xmlns:svg="http://www.w3.org/2000/svg"
   xmlns="http://www.w3.org/2000/svg"
   xmlns:sodipodi="http://sodipodi.sourceforge.net/DTD/sodipodi-0.dtd"
   xmlns:inkscape="http://www.inkscape.org/namespaces/inkscape"
   version="1.1"
   id="svg42"
   width="58.802498mm"
   height="58.806103mm"
   viewBox="0 0 222.24566 222.25929"
   sodipodi:docname="esoterica-x_box.svg"
   inkscape:version="0.92.5 (2060ec1f9f, 2020-04-08)">
  <metadata
     id="metadata48">
    <rdf:RDF>
      <cc:Work
         rdf:about="">
        <dc:format>image/svg+xml</dc:format>
        <dc:type
           rdf:resource="http://purl.org/dc/dcmitype/StillImage" />
        <dc:title></dc:title>
      </cc:Work>
    </rdf:RDF>
  </metadata>
  <defs
     id="defs46" />
  <sodipodi:namedview
     pagecolor="#ffffff"
     bordercolor="#666666"
     borderopacity="1"
     objecttolerance="10"
     gridtolerance="10"
     guidetolerance="10"
     inkscape:pageopacity="0"
     inkscape:pageshadow="2"
     inkscape:window-width="1920"
     inkscape:window-height="997"
     id="namedview44"
     showgrid="false"
     units="mm"
     fit-margin-top="0"
     fit-margin-left="0"
     fit-margin-right="0"
     fit-margin-bottom="0"
     inkscape:zoom="0.88059701"
     inkscape:cx="110.99193"
     inkscape:cy="111.06386"
     inkscape:window-x="0"
     inkscape:window-y="28"
     inkscape:window-maximized="1"
     inkscape:current-layer="svg42" />
  <path
     style="fill:#000000;fill-opacity:0;stroke:#ff0000;stroke-width:0.56779659;stroke-miterlimit:4;stroke-dasharray:none;stroke-opacity:1"
     d="M 9.1672682,212.75707 0.40097418,203.93907 26.511706,177.84685 52.622438,151.75463 V 111.24839 70.742153 L 27.071591,45.0279 C 13.018625,30.88506 1.5207442,18.94591 1.5207442,18.496455 c 0,-0.449455 3.836954,-4.628538 8.5265648,-9.2868506 L 18.573875,0.73994535 44.408068,26.555822 70.242261,52.371699 h 40.881549 40.88156 l 25.96501,-25.983436 25.96502,-25.98343565 8.76012,9.04707805 8.76013,9.0470786 -25.93356,26.035976 -25.93355,26.035976 v 40.573714 40.57371 l 26.12755,26.14531 26.12756,26.1453 -8.97735,8.92468 -8.97733,8.92468 -25.67936,-25.69247 -25.67937,-25.69246 H 111.00305 69.475856 l -25.482528,25.55084 c -14.015391,14.05297 -25.612406,25.55085 -25.771146,25.55085 -0.158741,0 -4.233452,-3.9681 -9.0549138,-8.81802 z M 145.17329,111.42255 V 77.922548 l -33.7839,-0.3008 -33.7839,-0.30079 v 34.101592 34.10159 l 33.7839,-0.3008 33.7839,-0.30079 z"
     id="path3044"
     inkscape:connector-curvature="0" />
</svg>
