<?xml version="1.0" encoding="UTF-8" standalone="no"?>
<!-- Created with Inkscape (http://www.inkscape.org/) -->

<svg
   xmlns:dc="http://purl.org/dc/elements/1.1/"
   xmlns:cc="http://creativecommons.org/ns#"
   xmlns:rdf="http://www.w3.org/1999/02/22-rdf-syntax-ns#"
   xmlns:svg="http://www.w3.org/2000/svg"
   xmlns="http://www.w3.org/2000/svg"
   xmlns:sodipodi="http://sodipodi.sourceforge.net/DTD/sodipodi-0.dtd"
   xmlns:inkscape="http://www.inkscape.org/namespaces/inkscape"
   version="1.1"
   id="svg62"
   width="59.432465mm"
   height="59.588989mm"
   viewBox="0 0 224.62664 225.21823"
   sodipodi:docname="esoterica-saule.svg"
   inkscape:version="0.92.5 (2060ec1f9f, 2020-04-08)">
  <metadata
     id="metadata68">
    <rdf:RDF>
      <cc:Work
         rdf:about="">
        <dc:format>image/svg+xml</dc:format>
        <dc:type
           rdf:resource="http://purl.org/dc/dcmitype/StillImage" />
        <dc:title></dc:title>
      </cc:Work>
    </rdf:RDF>
  </metadata>
  <defs
     id="defs66" />
  <sodipodi:namedview
     pagecolor="#ffffff"
     bordercolor="#666666"
     borderopacity="1"
     objecttolerance="10"
     gridtolerance="10"
     guidetolerance="10"
     inkscape:pageopacity="0"
     inkscape:pageshadow="2"
     inkscape:window-width="1920"
     inkscape:window-height="997"
     id="namedview64"
     showgrid="false"
     units="mm"
     fit-margin-top="0"
     fit-margin-left="0"
     fit-margin-right="0"
     fit-margin-bottom="0"
     inkscape:zoom="0.88059701"
     inkscape:cx="112.74843"
     inkscape:cy="112.98581"
     inkscape:window-x="0"
     inkscape:window-y="28"
     inkscape:window-maximized="1"
     inkscape:current-layer="svg62" />
  <path
     style="fill:#000000;fill-opacity:0;stroke:#ff0000;stroke-width:0.56779659;stroke-miterlimit:4;stroke-dasharray:none;stroke-opacity:1"
     d="m 82.428094,224.12486 c -20.628095,-4.4954 -37.779745,-16.25637 -45.511113,-31.20719 -0.909947,-1.75964 -3.094688,-3.94412 -4.85498,-4.85441 -11.592042,-5.99448 -24.2032352,-21.34525 -28.6293942,-34.84867 -3.08361799,-9.40757 -4.04726299,-27.71988 -1.875733,-35.64488 1.328609,-4.84876 1.318643,-6.59009 -0.06824,-11.92373 C -0.67351519,97.330853 0.18679481,81.262033 3.3125918,71.578186 7.5484928,58.455198 16.562111,46.976266 30.384806,37.101449 c 3.229579,-2.307183 7.182326,-6.430846 8.783882,-9.163693 4.55583,-7.773938 15.914739,-17.378787 26.769815,-22.6359792 l 9.629051,-4.66341899 14.7862,-0.01738 c 8.13241,-0.0096 17.085776,0.162701 19.896366,0.38279199 2.8106,0.220091 10.47585,0.03401 17.0339,-0.41351299 14.93736,-1.019329 22.94826,0.377691 33.96097,5.92244299 9.81544,4.9419452 18.44344,12.4459462 24.61764,21.4106212 2.69897,3.918771 7.30238,8.420243 11.93776,11.673406 9.99251,7.01286 16.30653,14.582524 21.92068,26.279997 l 4.62142,9.62905 -0.0562,14.786199 c -0.0309,8.13241 -0.0553,18.363317 -0.0543,22.735357 0.001,4.37203 -0.007,14.17336 -0.0175,21.78073 l -0.0195,13.8316 -5.13565,10.58366 c -3.95465,8.14983 -6.87936,12.32033 -12.71821,18.13563 -4.17041,4.15357 -9.25402,8.34511 -11.29692,9.31451 -2.16146,1.02568 -5.33925,4.27774 -7.60093,7.77857 -8.99523,13.9236 -20.19268,22.43228 -36.15823,27.4758 -10.81449,3.4163 -24.76973,3.9825 -33.4879,1.35873 -4.54532,-1.36795 -6.15749,-1.36988 -11.25252,-0.0135 -5.57645,1.48456 -19.032136,1.95981 -24.116556,0.85178 z m 17.582076,-46.65261 c -0.0194,-22.11821 -0.0568,-22.46325 -2.715146,-24.98305 -1.48253,-1.4053 -3.14112,-2.55509 -3.68574,-2.55509 -0.54463,0 -8.33153,7.35444 -17.304242,16.34318 l -16.314015,16.34317 3.269382,4.13172 c 3.216684,4.06512 11.342458,9.36056 18.032095,11.75125 1.87373,0.66961 6.85614,1.25782 11.07203,1.30713 l 7.665256,0.0897 z m 49.7406,18.60846 c 6.45073,-3.302 15.11215,-11.17856 14.84335,-13.49829 -0.0905,-0.78072 -7.44664,-8.50088 -16.34706,-17.15591 l -16.18256,-15.73642 -3.52584,2.60675 -3.52582,2.60677 v 22.64071 22.6407 l 9.36864,-0.51634 c 7.25534,-0.39988 10.72223,-1.20922 15.36929,-3.58797 z m -90.900442,-47.5514 c 8.908026,-8.89213 16.187583,-16.68514 16.176791,-17.3178 -0.01079,-0.63265 -1.232604,-2.30006 -2.715143,-3.70536 -2.608047,-2.47216 -3.422069,-2.55509 -25.083673,-2.55509 h -22.38815 l 0.40414,8.87437 c 0.33528,7.36226 1.048622,10.11955 4.186516,16.1822 3.119028,6.0262 10.42633,14.47379 12.669519,14.64656 0.304474,0.0235 7.841974,-7.23275 16.75,-16.12488 z m 135.523172,4.08068 c 3.33102,-5.36217 5.56243,-13.81742 5.5762,-21.12926 l 0.0123,-6.52967 h -21.62225 c -20.46068,0 -21.8028,0.13349 -24.98305,2.48475 -1.84844,1.36661 -3.3608,2.8919 -3.3608,3.38954 0,0.49764 7.4803,8.35712 16.62288,17.46552 l 16.62288,16.5607 4.4571,-4.33584 c 2.45142,-2.38472 5.45505,-5.9423 6.67475,-7.90574 z m -71.65547,-30.47416 9.57879,-9.6288 -3.3581,-3.58364 c -5.54325,-5.91557 -15.80786,-15.755707 -16.44248,-15.762547 -0.32608,-0.004 -4.91395,4.33726 -10.19527,9.646157 l -9.602396,9.65254 9.602396,9.65254 c 5.28132,5.3089 9.88047,9.65254 10.22034,9.65254 0.33987,0 4.9284,-4.33295 10.19672,-9.62879 z m -50.030375,-25.698577 2.610407,-3.53076 -6.655323,-6.77929 C 55.680949,72.923987 43.094541,60.784622 41.946052,60.378729 39.691762,59.58203 32.712957,67.693603 28.91861,75.520725 c -3.174926,6.549358 -3.837973,9.214198 -3.837973,15.425138 0,4.12942 0.340678,7.84871 0.757063,8.26509 0.416383,0.41639 10.540622,0.75706 22.498306,0.75706 H 70.07725 Z m 127.900395,-0.35504 c 1.40327,-7.48002 -2.52402,-20.120089 -8.66523,-27.889308 -8.01312,-10.137353 -7.06352,-10.436833 -25.61034,8.076894 -8.97413,8.958114 -16.31659,16.772174 -16.31659,17.364574 0,0.5924 1.11111,2.25982 2.46913,3.70537 2.41956,2.5755 2.92014,2.62827 24.9316,2.62827 h 22.46245 z M 97.545044,71.624169 c 2.35077,-3.179589 2.484746,-4.523854 2.484746,-24.931593 V 25.121778 l -3.894286,-0.730573 c -4.54469,-0.852588 -13.72274,0.910264 -20.617142,3.959985 -5.405765,2.391228 -15.515915,11.15344 -14.922688,12.933121 0.625885,1.877658 31.94715,33.544848 33.25869,33.626019 0.66327,0.04105 2.32407,-1.437723 3.69068,-3.286161 z M 148.71105,58.668371 c 18.38281,-18.415655 18.03499,-17.394769 8.56912,-25.151333 -6.62776,-5.430954 -15.67341,-8.498174 -25.06226,-8.498174 h -7.20507 V 47.37364 c 0,21.389249 0.10663,22.468293 2.46913,24.983051 1.35803,1.445551 3.02545,2.628274 3.70537,2.628274 0.67993,0 8.5656,-7.342467 17.52371,-16.316594 z"
     id="path5283"
     inkscape:connector-curvature="0" />
</svg>
