<?xml version="1.0" encoding="UTF-8" standalone="no"?>
<!-- Created with Inkscape (http://www.inkscape.org/) -->

<svg
   xmlns:dc="http://purl.org/dc/elements/1.1/"
   xmlns:cc="http://creativecommons.org/ns#"
   xmlns:rdf="http://www.w3.org/1999/02/22-rdf-syntax-ns#"
   xmlns:svg="http://www.w3.org/2000/svg"
   xmlns="http://www.w3.org/2000/svg"
   xmlns:sodipodi="http://sodipodi.sourceforge.net/DTD/sodipodi-0.dtd"
   xmlns:inkscape="http://www.inkscape.org/namespaces/inkscape"
   version="1.1"
   id="svg72"
   width="41.387424mm"
   height="63.168129mm"
   viewBox="0 0 156.42491 238.74569"
   sodipodi:docname="hermetica-uranus_alt.svg"
   inkscape:version="0.92.5 (2060ec1f9f, 2020-04-08)">
  <metadata
     id="metadata78">
    <rdf:RDF>
      <cc:Work
         rdf:about="">
        <dc:format>image/svg+xml</dc:format>
        <dc:type
           rdf:resource="http://purl.org/dc/dcmitype/StillImage" />
        <dc:title></dc:title>
      </cc:Work>
    </rdf:RDF>
  </metadata>
  <defs
     id="defs76" />
  <sodipodi:namedview
     pagecolor="#ffffff"
     bordercolor="#666666"
     borderopacity="1"
     objecttolerance="10"
     gridtolerance="10"
     guidetolerance="10"
     inkscape:pageopacity="0"
     inkscape:pageshadow="2"
     inkscape:window-width="1920"
     inkscape:window-height="997"
     id="namedview74"
     showgrid="false"
     units="mm"
     fit-margin-top="0"
     fit-margin-left="0"
     fit-margin-right="0"
     fit-margin-bottom="0"
     inkscape:zoom="0.88059701"
     inkscape:cx="347.15547"
     inkscape:cy="95.486971"
     inkscape:window-x="0"
     inkscape:window-y="28"
     inkscape:window-maximized="1"
     inkscape:current-layer="svg72" />
  <path
     style="fill:#ffff00;fill-opacity:0.01829266;stroke:#ff0000;stroke-width:0.56779659;stroke-miterlimit:4;stroke-dasharray:none;stroke-opacity:1"
     d="m 78.342148,0.40149217 -25.26758,25.28515683 -25.26563,25.285156 8.81055,8.714844 8.80859,8.714843 8.98242,-9.017578 c 4.93988,-4.959615 9.41038,-9.017578 9.93555,-9.017578 0.52516,0 0.95508,7.374682 0.95508,16.386719 V 83.13782 l -6.50977,1.892579 C 15.873288,97.507028 -7.9657521,138.51876 2.8948779,181.19446 c 6.92442,27.20884 30.0563501,49.47985 57.6699201,55.52344 7.39738,1.61907 12.52973,2.01298 20.63477,1.58203 13.99103,-0.7439 21.229012,-2.59479 32.365222,-8.27539 25.51552,-13.0155 42.61127,-40.66569 42.57617,-68.86133 -0.0305,-24.50968 -12.31243,-48.95219 -31.78906,-63.267572 -7.19814,-5.29067 -22.35246,-12.13213 -30.945302,-13.970708 l -3.12305,-0.667969 V 66.811649 c 0,-12.570665 0.34239,-16.445313 1.44922,-16.445313 0.79635,0 5.25514,3.833256 9.908202,8.517578 4.65306,4.684322 8.84463,8.517578 9.31641,8.517578 0.4718,0 4.60411,-3.806608 9.18163,-8.458984 l 8.32227,-8.458984 -25.06054,-25.041016 z M 77.986678,108.02064 c 4.96281,-0.0187 10.03692,0.63037 15.13672,1.9707 24.424542,6.41927 40.961442,32.54368 37.150382,58.6914 -2.61861,17.96625 -14.81091,33.65526 -31.585932,40.64649 -22.6,9.41887 -46.64437,3.26184 -62.4336,-15.98633 -7.64009,-9.31381 -12.7047,-25.81037 -11.38086,-37.07422 1.25554,-10.68265 6.94723,-23.42013 13.72266,-30.71094 10.61152,-11.41868 24.50218,-17.4809 39.39063,-17.5371 z m -0.40039,41.14257 c -4.5614,0 -6.0839,0.54431 -8.33985,2.97852 -5.63239,6.07745 -4.16005,15.84366 2.92969,19.43164 9.58438,4.85048 19.64128,-3.09743 17.61133,-13.91797 -1.0324,-5.50319 -5.32668,-8.49219 -12.20117,-8.49219 z"
     id="path5283"
     inkscape:connector-curvature="0" />
</svg>
