<?xml version="1.0" encoding="UTF-8" standalone="no"?>
<!-- Created with Inkscape (http://www.inkscape.org/) -->

<svg
   xmlns:dc="http://purl.org/dc/elements/1.1/"
   xmlns:cc="http://creativecommons.org/ns#"
   xmlns:rdf="http://www.w3.org/1999/02/22-rdf-syntax-ns#"
   xmlns:svg="http://www.w3.org/2000/svg"
   xmlns="http://www.w3.org/2000/svg"
   xmlns:sodipodi="http://sodipodi.sourceforge.net/DTD/sodipodi-0.dtd"
   xmlns:inkscape="http://www.inkscape.org/namespaces/inkscape"
   version="1.1"
   id="svg52"
   width="28.253662mm"
   height="62.044792mm"
   viewBox="0 0 106.7855 234.5"
   sodipodi:docname="hermetica-thurisaz.svg"
   inkscape:version="0.92.5 (2060ec1f9f, 2020-04-08)">
  <metadata
     id="metadata58">
    <rdf:RDF>
      <cc:Work
         rdf:about="">
        <dc:format>image/svg+xml</dc:format>
        <dc:type
           rdf:resource="http://purl.org/dc/dcmitype/StillImage" />
        <dc:title></dc:title>
      </cc:Work>
    </rdf:RDF>
  </metadata>
  <defs
     id="defs56" />
  <sodipodi:namedview
     pagecolor="#ffffff"
     bordercolor="#666666"
     borderopacity="1"
     objecttolerance="10"
     gridtolerance="10"
     guidetolerance="10"
     inkscape:pageopacity="0"
     inkscape:pageshadow="2"
     inkscape:window-width="1920"
     inkscape:window-height="997"
     id="namedview54"
     showgrid="false"
     units="mm"
     fit-margin-top="0"
     fit-margin-left="0"
     fit-margin-right="0"
     fit-margin-bottom="0"
     inkscape:zoom="0.88059701"
     inkscape:cx="53.883898"
     inkscape:cy="117.47712"
     inkscape:window-x="0"
     inkscape:window-y="28"
     inkscape:window-maximized="1"
     inkscape:current-layer="svg52" />
  <path
     style="fill:#ff0000;fill-opacity:0.01829266;stroke:#ff0000;stroke-width:0.56779659;stroke-miterlimit:4;stroke-dasharray:none;stroke-opacity:1"
     d="M 0.28389829,117.25 V 0.28389829 H 12.775423 25.266948 V 26.317888 52.351879 l 16.06262,12.860077 c 8.83444,7.073043 18.00165,14.393128 20.37158,16.266857 2.36993,1.873728 12.31495,9.794488 22.10005,17.601698 9.7851,7.807199 18.858342,15.038579 20.162772,16.069729 l 2.37168,1.87482 -3.34367,2.79847 c -5.647952,4.727 -17.397412,14.16934 -33.352212,26.80319 -8.3852,6.63983 -17.39399,13.86099 -20.01952,16.04701 -2.62553,2.18601 -9.1791,7.53397 -14.5635,11.88434 l -9.7898,7.90977 v 25.87413 25.87413 H 12.775423 0.28389829 Z M 36.622878,141.05086 c 4.68433,-3.75182 11.07204,-8.79447 14.19492,-11.20589 10.51809,-8.12187 14.60921,-12.14149 13.75846,-13.51805 -1.19829,-1.93887 -37.51602,-30.873529 -38.75134,-30.873529 -0.30688,0 -0.55797,14.05296 -0.55797,31.228809 0,24.2363 0.31784,31.22449 1.41949,31.20949 0.78072,-0.0102 5.25212,-3.089 9.93644,-6.84083 z"
     id="path5304"
     inkscape:connector-curvature="0" />
</svg>
