<?xml version="1.0" encoding="UTF-8" standalone="no"?>
<!-- Created with Inkscape (http://www.inkscape.org/) -->

<svg
   xmlns:dc="http://purl.org/dc/elements/1.1/"
   xmlns:cc="http://creativecommons.org/ns#"
   xmlns:rdf="http://www.w3.org/1999/02/22-rdf-syntax-ns#"
   xmlns:svg="http://www.w3.org/2000/svg"
   xmlns="http://www.w3.org/2000/svg"
   xmlns:sodipodi="http://sodipodi.sourceforge.net/DTD/sodipodi-0.dtd"
   xmlns:inkscape="http://www.inkscape.org/namespaces/inkscape"
   version="1.1"
   id="svg62"
   width="42.682323mm"
   height="42.83234mm"
   viewBox="0 0 161.31902 161.88601"
   sodipodi:docname="hermetica-callisto.svg"
   inkscape:version="0.92.5 (2060ec1f9f, 2020-04-08)">
  <metadata
     id="metadata68">
    <rdf:RDF>
      <cc:Work
         rdf:about="">
        <dc:format>image/svg+xml</dc:format>
        <dc:type
           rdf:resource="http://purl.org/dc/dcmitype/StillImage" />
        <dc:title></dc:title>
      </cc:Work>
    </rdf:RDF>
  </metadata>
  <defs
     id="defs66" />
  <sodipodi:namedview
     pagecolor="#ffffff"
     bordercolor="#666666"
     borderopacity="1"
     objecttolerance="10"
     gridtolerance="10"
     guidetolerance="10"
     inkscape:pageopacity="0"
     inkscape:pageshadow="2"
     inkscape:window-width="1920"
     inkscape:window-height="997"
     id="namedview64"
     showgrid="false"
     units="mm"
     fit-margin-top="0"
     fit-margin-left="0"
     fit-margin-right="0"
     fit-margin-bottom="0"
     inkscape:zoom="0.88059701"
     inkscape:cx="405.9178"
     inkscape:cy="50.47712"
     inkscape:window-x="0"
     inkscape:window-y="28"
     inkscape:window-maximized="1"
     inkscape:current-layer="svg62" />
  <path
     style="fill:#ff0000;fill-opacity:0.01829266;stroke:#ff0000;stroke-width:0.56779659;stroke-miterlimit:4;stroke-dasharray:none;stroke-opacity:1"
     d="M 0.28389829,80.974989 V 0.34787197 H 12.775428 25.266948 V 45.203804 c 0,35.038735 0.30952,44.855925 1.41424,44.855925 0.77782,0 21.61805,-20.199077 46.3116,-44.886837 l 44.897372,-44.88684503 17.29016,0.314811 17.29015,0.314811 -32.92974,32.93220303 c -18.11135,18.11271 -32.934692,33.2839 -32.940742,33.71374 -0.0189,1.3418 36.186282,37.260838 37.557662,37.260838 0.71473,0 5.27367,-4.02794 10.13099,-8.950971 l 8.83148,-8.95097 8.89926,8.95176 8.89925,8.951751 -9.54767,9.59754 -9.54768,9.59753 9.28964,8.9948 c 5.10929,4.94714 9.28963,9.29717 9.28963,9.66674 0,0.36955 -3.95708,4.51523 -8.79351,9.2126 l -8.79353,8.54068 -9.37597,-9.32727 -9.37598,-9.32727 -9.39383,9.34503 -9.39383,9.34503 -8.900132,-8.95263 -8.90013,-8.95264 9.44349,-9.25509 9.443492,-9.25508 -18.674762,-18.70052 C 77.416748,95.068189 68.495378,86.652949 67.862608,86.652949 c -0.63277,0 -10.47565,9.35423 -21.87308,20.787181 l -20.72258,20.78717 v 16.6874 16.68741 H 12.775428 0.28389829 Z"
     id="path5302"
     inkscape:connector-curvature="0" />
</svg>
