<?xml version="1.0" encoding="UTF-8" standalone="no"?>
<!-- Created with Inkscape (http://www.inkscape.org/) -->

<svg
   xmlns:dc="http://purl.org/dc/elements/1.1/"
   xmlns:cc="http://creativecommons.org/ns#"
   xmlns:rdf="http://www.w3.org/1999/02/22-rdf-syntax-ns#"
   xmlns:svg="http://www.w3.org/2000/svg"
   xmlns="http://www.w3.org/2000/svg"
   xmlns:sodipodi="http://sodipodi.sourceforge.net/DTD/sodipodi-0.dtd"
   xmlns:inkscape="http://www.inkscape.org/namespaces/inkscape"
   version="1.1"
   id="svg52"
   width="56.636528mm"
   height="64.909157mm"
   viewBox="0 0 214.05932 245.32595"
   sodipodi:docname="hermetica-miranda.svg"
   inkscape:version="0.92.5 (2060ec1f9f, 2020-04-08)">
  <metadata
     id="metadata58">
    <rdf:RDF>
      <cc:Work
         rdf:about="">
        <dc:format>image/svg+xml</dc:format>
        <dc:type
           rdf:resource="http://purl.org/dc/dcmitype/StillImage" />
        <dc:title></dc:title>
      </cc:Work>
    </rdf:RDF>
  </metadata>
  <defs
     id="defs56" />
  <sodipodi:namedview
     pagecolor="#ffffff"
     bordercolor="#666666"
     borderopacity="1"
     objecttolerance="10"
     gridtolerance="10"
     guidetolerance="10"
     inkscape:pageopacity="0"
     inkscape:pageshadow="2"
     inkscape:window-width="1920"
     inkscape:window-height="997"
     id="namedview54"
     showgrid="false"
     units="mm"
     fit-margin-top="0"
     fit-margin-left="0"
     fit-margin-right="0"
     fit-margin-bottom="0"
     inkscape:zoom="0.88059701"
     inkscape:cx="329.83305"
     inkscape:cy="95.546306"
     inkscape:window-x="0"
     inkscape:window-y="28"
     inkscape:window-maximized="1"
     inkscape:current-layer="svg52" />
  <path
     style="fill:#ff0000;fill-opacity:0.01829266;stroke:#ff0000;stroke-width:0.56779659;stroke-miterlimit:4;stroke-dasharray:none;stroke-opacity:1"
     d="m 97.740957,244.35046 c -11.836329,-3.83483 -21.062249,-11.65777 -25.990569,-22.03817 -5.65861,-11.9186 -5.40042,-21.61466 0.91922,-34.52105 3.45868,-7.06354 12.10712,-15.43398 17.93324,-17.35677 l 3.93529,-1.29876 V 149.64178 130.14784 L 60.761328,96.356961 C 42.184088,77.771975 26.598078,62.566079 26.125738,62.566079 c -0.47233,0 -0.85879,17.630085 -0.85879,39.177961 v 39.17797 H 12.775418 0.28389829 V 70.80366 0.68530885 L 53.656778,54.04913 107.02966,107.41295 160.40254,54.04913 213.77542,0.68530885 V 70.80366 140.92201 H 201.2839 188.79237 v -39.17797 c 0,-21.547876 -0.38645,-39.177961 -0.85879,-39.177961 -0.47234,0 -16.05835,15.205896 -34.63559,33.790882 l -33.7768,33.790879 v 19.49394 19.49393 l 4.25847,1.3951 c 2.57496,0.84356 7.02065,4.20467 11.24538,8.50194 5.6066,5.70281 7.37556,8.41717 8.95413,13.73957 7.79896,26.29527 -8.85457,51.04647 -35.12713,52.20748 -4.43748,0.1961 -9.437473,-0.0871 -11.111083,-0.62934 z M 113.46394,218.9538 c 9.26908,-5.19753 10.52014,-17.29496 2.48753,-24.05394 -5.89092,-4.95689 -17.835963,-2.74699 -21.427702,3.96425 -1.72342,3.22025 -1.33124,11.19093 0.72162,14.66614 3.644929,6.17038 12.294612,8.74534 18.218552,5.42355 z"
     id="path5304"
     inkscape:connector-curvature="0" />
</svg>
