<?xml version="1.0" encoding="UTF-8" standalone="no"?>
<!-- Created with Inkscape (http://www.inkscape.org/) -->

<svg
   xmlns:dc="http://purl.org/dc/elements/1.1/"
   xmlns:cc="http://creativecommons.org/ns#"
   xmlns:rdf="http://www.w3.org/1999/02/22-rdf-syntax-ns#"
   xmlns:svg="http://www.w3.org/2000/svg"
   xmlns="http://www.w3.org/2000/svg"
   xmlns:sodipodi="http://sodipodi.sourceforge.net/DTD/sodipodi-0.dtd"
   xmlns:inkscape="http://www.inkscape.org/namespaces/inkscape"
   version="1.1"
   id="svg72"
   width="42.236729mm"
   height="63.547089mm"
   viewBox="0 0 159.63488 240.17797"
   sodipodi:docname="esoterica-police.svg"
   inkscape:version="0.92.5 (2060ec1f9f, 2020-04-08)">
  <metadata
     id="metadata78">
    <rdf:RDF>
      <cc:Work
         rdf:about="">
        <dc:format>image/svg+xml</dc:format>
        <dc:type
           rdf:resource="http://purl.org/dc/dcmitype/StillImage" />
        <dc:title></dc:title>
      </cc:Work>
    </rdf:RDF>
  </metadata>
  <defs
     id="defs76" />
  <sodipodi:namedview
     pagecolor="#ffffff"
     bordercolor="#666666"
     borderopacity="1"
     objecttolerance="10"
     gridtolerance="10"
     guidetolerance="10"
     inkscape:pageopacity="0"
     inkscape:pageshadow="2"
     inkscape:window-width="1920"
     inkscape:window-height="997"
     id="namedview74"
     showgrid="false"
     units="mm"
     fit-margin-top="0"
     fit-margin-left="0"
     fit-margin-right="0"
     fit-margin-bottom="0"
     inkscape:zoom="0.88059701"
     inkscape:cx="-102.60085"
     inkscape:cy="119.74831"
     inkscape:window-x="0"
     inkscape:window-y="28"
     inkscape:window-maximized="1"
     inkscape:current-layer="svg72" />
  <path
     style="fill:#000000;fill-opacity:0;stroke:#ff0000;stroke-width:0.56779659;stroke-miterlimit:4;stroke-dasharray:none;stroke-opacity:1"
     d="M 67.036034,226.55085 66.716104,213.20763 33.5,212.90658 0.28389829,212.60552 V 200.13116 187.65678 H 33.783898 67.283894 V 174.02966 160.40254 H 47.411014 27.538135 V 147.34322 134.2839 h 19.872879 19.87288 V 120.08898 105.89407 H 33.783898 0.28389829 V 93.402541 80.911017 H 33.783898 67.283894 V 66.716102 52.521186 H 47.411014 27.538135 V 40.029661 27.538136 h 19.872879 19.87288 V 13.911017 0.28389829 h 12.49153 12.49152 V 13.911017 27.538136 h 19.872886 19.87288 V 40.029661 52.521186 H 112.13983 92.266944 v 14.194916 14.194915 h 33.499996 33.5 v 12.491524 12.491529 h -33.5 -33.499996 v 14.19491 14.19492 h 19.872886 19.87288 v 13.05932 13.05932 H 112.13983 92.266944 v 13.62712 c 0,7.49492 0.38327,13.63007 0.8517,13.63368 0.46843,0.003 15.415676,0.13137 33.216096,0.2839 l 32.36441,0.27734 0.32214,12.19041 0.32215,12.19041 -33.25435,0.30111 -33.254346,0.30112 -0.31994,13.34322 -0.31993,13.34322 h -12.41945 -12.41945 z"
     id="path4688"
     inkscape:connector-curvature="0" />
</svg>
