<?xml version="1.0" encoding="UTF-8" standalone="no"?>
<!-- Created with Inkscape (http://www.inkscape.org/) -->

<svg
   xmlns:dc="http://purl.org/dc/elements/1.1/"
   xmlns:cc="http://creativecommons.org/ns#"
   xmlns:rdf="http://www.w3.org/1999/02/22-rdf-syntax-ns#"
   xmlns:svg="http://www.w3.org/2000/svg"
   xmlns="http://www.w3.org/2000/svg"
   xmlns:sodipodi="http://sodipodi.sourceforge.net/DTD/sodipodi-0.dtd"
   xmlns:inkscape="http://www.inkscape.org/namespaces/inkscape"
   version="1.1"
   id="svg82"
   width="61.744331mm"
   height="34.402561mm"
   viewBox="0 0 233.3644 130.02543"
   sodipodi:docname="esoterica-imbolc.svg"
   inkscape:version="0.92.5 (2060ec1f9f, 2020-04-08)">
  <metadata
     id="metadata88">
    <rdf:RDF>
      <cc:Work
         rdf:about="">
        <dc:format>image/svg+xml</dc:format>
        <dc:type
           rdf:resource="http://purl.org/dc/dcmitype/StillImage" />
        <dc:title></dc:title>
      </cc:Work>
    </rdf:RDF>
  </metadata>
  <defs
     id="defs86" />
  <sodipodi:namedview
     pagecolor="#ffffff"
     bordercolor="#666666"
     borderopacity="1"
     objecttolerance="10"
     gridtolerance="10"
     guidetolerance="10"
     inkscape:pageopacity="0"
     inkscape:pageshadow="2"
     inkscape:window-width="1920"
     inkscape:window-height="997"
     id="namedview84"
     showgrid="false"
     units="mm"
     fit-margin-top="0"
     fit-margin-left="0"
     fit-margin-right="0"
     fit-margin-bottom="0"
     inkscape:zoom="0.88059701"
     inkscape:cx="116.34153"
     inkscape:cy="65.23983"
     inkscape:window-x="0"
     inkscape:window-y="28"
     inkscape:window-maximized="1"
     inkscape:current-layer="svg82" />
  <path
     style="fill:#000000;fill-opacity:0;stroke:#ff0000;stroke-width:0.56779659;stroke-miterlimit:4;stroke-dasharray:none;stroke-opacity:1"
     d="M 0.28389829,117.25 V 104.75847 H 42.300847 c 27.931448,0 42.016948,-0.39012 42.016948,-1.16373 0,-0.64005 -13.365494,-14.474427 -29.701098,-30.743077 l -29.7011,-29.57935 8.959301,-9.01216 8.9593,-9.012151 30.394341,30.378701 30.394351,30.37871 V 43.144653 0.28389829 h 12.49152 12.49153 V 42.233823 c 0,23.07247 0.39524,42.19421 0.8783,42.49276 0.48307,0.29855 14.10358,-12.70222 30.26779,-28.89061 16.16422,-16.18839 29.7483,-29.433431 30.18685,-29.433431 0.93404,0 17.02299,16.054341 17.02299,16.986381 0,0.34743 -13.28644,13.91076 -29.52542,30.14074 -16.23899,16.22997 -29.52543,29.895987 -29.52543,30.368927 0,0.47293 19.16314,0.85988 42.58475,0.85988 h 42.58474 V 117.25 129.74152 H 116.68221 0.28389829 Z"
     id="path5241"
     inkscape:connector-curvature="0" />
</svg>
