<?xml version="1.0" encoding="UTF-8" standalone="no"?>
<!-- Created with Inkscape (http://www.inkscape.org/) -->

<svg
   xmlns:dc="http://purl.org/dc/elements/1.1/"
   xmlns:cc="http://creativecommons.org/ns#"
   xmlns:rdf="http://www.w3.org/1999/02/22-rdf-syntax-ns#"
   xmlns:svg="http://www.w3.org/2000/svg"
   xmlns="http://www.w3.org/2000/svg"
   xmlns:sodipodi="http://sodipodi.sourceforge.net/DTD/sodipodi-0.dtd"
   xmlns:inkscape="http://www.inkscape.org/namespaces/inkscape"
   version="1.1"
   id="svg72"
   width="49.125053mm"
   height="49.126282mm"
   viewBox="0 0 185.66949 185.67414"
   sodipodi:docname="esoterica-duchobor.svg"
   inkscape:version="0.92.5 (2060ec1f9f, 2020-04-08)">
  <metadata
     id="metadata78">
    <rdf:RDF>
      <cc:Work
         rdf:about="">
        <dc:format>image/svg+xml</dc:format>
        <dc:type
           rdf:resource="http://purl.org/dc/dcmitype/StillImage" />
        <dc:title></dc:title>
      </cc:Work>
    </rdf:RDF>
  </metadata>
  <defs
     id="defs76" />
  <sodipodi:namedview
     pagecolor="#ffffff"
     bordercolor="#666666"
     borderopacity="1"
     objecttolerance="10"
     gridtolerance="10"
     guidetolerance="10"
     inkscape:pageopacity="0"
     inkscape:pageshadow="2"
     inkscape:window-width="1920"
     inkscape:window-height="997"
     id="namedview74"
     showgrid="false"
     units="mm"
     fit-margin-top="0"
     fit-margin-left="0"
     fit-margin-right="0"
     fit-margin-bottom="0"
     inkscape:zoom="0.88059701"
     inkscape:cx="92.494067"
     inkscape:cy="92.49407"
     inkscape:window-x="0"
     inkscape:window-y="28"
     inkscape:window-maximized="1"
     inkscape:current-layer="svg72" />
  <path
     style="fill:#000000;fill-opacity:0;stroke:#ff0000;stroke-width:0.56779659;stroke-miterlimit:4;stroke-dasharray:none;stroke-opacity:1"
     d="M 0.28389829,173.0999 V 160.80955 L 19.305084,160.61751 c 10.461652,-0.10561 19.404449,-0.19614 19.872881,-0.20117 0.468433,-0.005 0.851695,-8.95195 0.851695,-19.88203 v -19.87288 h 19.872877 19.87289 v -7.38136 -7.38136 H 52.547388 25.319355 l -0.310102,20.15678 -0.310101,20.15678 -12.207627,0.32232 -12.20762671,0.32231 V 113.88628 80.915663 H 20.156779 40.02966 v -7.38135 -7.38136 H 20.156779 0.28389829 V 33.220751 0.28854787 H 12.775423 25.266948 V 20.161429 40.03431 H 45.13983 65.012707 v 20.440683 20.44067 h 7.38136 7.38136 V 53.093632 25.271598 H 59.973387 40.171346 L 39.816605,12.777759 39.461864,0.28391887 l 32.648303,0.0023 32.648313,0.0023 V 20.1614 40.034281 h 7.38135 7.38136 V 20.161429 0.28854787 h 32.9322 32.93221 V 12.780073 25.271598 H 165.51271 145.63983 V 45.712276 66.152953 H 125.14496 104.6501 l 0.33809,7.09746 0.33808,7.09746 27.53814,0.30408 27.53813,0.30409 V 60.495173 40.03431 h 12.49153 12.49153 v 32.932203 32.932197 h -19.87289 -19.87288 v 7.38136 7.38136 h 19.87288 19.87289 v 32.3644 32.36441 H 172.89407 160.40254 V 165.51736 145.64448 H 139.96187 119.52119 V 125.7716 105.89871 h -7.38136 -7.38135 v 27.25424 c 0,21.00993 0.32522,27.26988 1.41949,27.32249 0.78072,0.0376 9.85127,0.16529 20.15678,0.2839 l 18.73729,0.21565 0.32231,12.20762 0.32232,12.20763 H 112.74605 79.775427 v -19.87288 -19.87288 h -7.38136 -7.38136 v 19.87288 19.87288 H 32.648304 0.28389829 Z"
     id="path5275"
     inkscape:connector-curvature="0" />
</svg>
