<?xml version="1.0" encoding="UTF-8" standalone="no"?>
<!-- Created with Inkscape (http://www.inkscape.org/) -->

<svg
   xmlns:dc="http://purl.org/dc/elements/1.1/"
   xmlns:cc="http://creativecommons.org/ns#"
   xmlns:rdf="http://www.w3.org/1999/02/22-rdf-syntax-ns#"
   xmlns:svg="http://www.w3.org/2000/svg"
   xmlns="http://www.w3.org/2000/svg"
   xmlns:sodipodi="http://sodipodi.sourceforge.net/DTD/sodipodi-0.dtd"
   xmlns:inkscape="http://www.inkscape.org/namespaces/inkscape"
   version="1.1"
   id="svg92"
   width="60.396198mm"
   height="67.827408mm"
   viewBox="0 0 228.2691 256.35556"
   sodipodi:docname="esoterica-branch_davidian.svg"
   inkscape:version="0.92.5 (2060ec1f9f, 2020-04-08)">
  <metadata
     id="metadata98">
    <rdf:RDF>
      <cc:Work
         rdf:about="">
        <dc:format>image/svg+xml</dc:format>
        <dc:type
           rdf:resource="http://purl.org/dc/dcmitype/StillImage" />
        <dc:title></dc:title>
      </cc:Work>
    </rdf:RDF>
  </metadata>
  <defs
     id="defs96" />
  <sodipodi:namedview
     pagecolor="#ffffff"
     bordercolor="#666666"
     borderopacity="1"
     objecttolerance="10"
     gridtolerance="10"
     guidetolerance="10"
     inkscape:pageopacity="0"
     inkscape:pageshadow="2"
     inkscape:window-width="1920"
     inkscape:window-height="997"
     id="namedview94"
     showgrid="false"
     units="mm"
     fit-margin-top="0"
     fit-margin-left="0"
     fit-margin-right="0"
     fit-margin-bottom="0"
     inkscape:zoom="0.88059701"
     inkscape:cx="114.47053"
     inkscape:cy="128.16437"
     inkscape:window-x="0"
     inkscape:window-y="28"
     inkscape:window-maximized="1"
     inkscape:current-layer="svg92" />
  <path
     style="fill:#000000;fill-opacity:0;stroke:#ff0000;stroke-width:0.56779659;stroke-miterlimit:4;stroke-dasharray:none;stroke-opacity:1"
     d="m 31.77952,141.19373 c 2.266453,-4.21589 4.640416,-8.30402 5.275473,-9.08474 1.552192,-1.90822 72.418927,-2.07977 72.418927,-0.17531 0,0.68431 -0.9553,2.60062 -2.1229,4.25848 -1.16759,1.65786 -3.22204,5.18611 -4.56545,7.84056 l -2.44256,4.82627 H 64.000855 27.658696 Z"
     id="path5794"
     inkscape:connector-curvature="0" />
  <path
     style="fill:#000000;fill-opacity:0;stroke:#ff0000;stroke-width:0.56779659;stroke-miterlimit:4;stroke-dasharray:none;stroke-opacity:1"
     d="M 89.48261,125.29543 C 86.22857,120.04883 65.58718,84.173569 58.120306,70.78695 l -3.325447,-5.961865 h 10.647143 10.647145 l 2.484985,4.826271 c 1.366742,2.65445 4.612058,8.40339 7.211808,12.775424 2.59976,4.372034 6.24793,10.759746 8.10704,14.194917 1.85913,3.435173 4.24614,7.523303 5.30448,9.084743 1.05835,1.56144 3.62229,5.90509 5.69765,9.65255 2.07537,3.74745 4.5244,7.96334 5.4423,9.36864 l 1.66891,2.55509 h -10.64558 c -8.91204,0 -10.84629,-0.32362 -11.87813,-1.98729 z"
     id="path5796"
     inkscape:connector-curvature="0" />
  <path
     style="fill:#000000;fill-opacity:0;stroke:#ff0000;stroke-width:0.56779659;stroke-miterlimit:4;stroke-dasharray:none;stroke-opacity:1"
     d="M 83.18582,70.126257 77.989885,60.850509 80.67258,56.89622 c 1.47548,-2.174857 2.6827,-4.336758 2.6827,-4.80422 0,-0.467464 1.8051,-3.671759 4.01133,-7.120657 2.20623,-3.448899 4.34699,-7.163694 4.75723,-8.255102 0.41024,-1.091407 2.43776,-4.642668 4.50561,-7.89169 2.06785,-3.249023 3.75972,-6.23624 3.75972,-6.638258 0,-0.402018 0.94967,-2.087371 2.11036,-3.745228 1.1607,-1.657856 3.77525,-6.080386 5.81011,-9.8278436 5.96913,-10.992908 5.78815,-10.9820941 11.60774,-0.693581 2.82384,4.9922876 4.72441,9.4902196 4.2235,9.9954036 -0.50091,0.505184 -2.89737,4.495635 -5.32546,8.867668 -5.39707,9.717967 -16.9717,30.032426 -18.44038,32.364407 -0.59003,0.936865 -2.962,5.025 -5.27105,9.084746 -7.09392,12.472483 -6.08275,12.311756 -11.91817,1.894392 z"
     id="path5798"
     inkscape:connector-curvature="0" />
  <path
     style="fill:#000000;fill-opacity:0;stroke:#ff0000;stroke-width:0.56779659;stroke-miterlimit:4;stroke-dasharray:none;stroke-opacity:1"
     d="m 144.60982,79.303899 c 1.3347,-2.029873 3.69307,-6.118009 5.24082,-9.084746 l 2.81408,-5.394068 h 36.31986 c 19.97591,0 36.31985,0.221554 36.31985,0.492342 0,0.270788 -1.62442,3.209135 -3.60982,6.529661 -1.98539,3.320525 -4.29675,7.187107 -5.13634,8.592404 l -1.52654,2.555085 h -36.42432 -36.42432 z"
     id="path5800"
     inkscape:connector-curvature="0" />
  <path
     style="fill:#000000;fill-opacity:0;stroke:#ff0000;stroke-width:0.56779659;stroke-miterlimit:4;stroke-dasharray:none;stroke-opacity:1"
     d="m 131.05019,103.87811 c 0,-0.381 1.55351,-3.57486 3.45224,-7.097453 6.21115,-11.523163 1.71603,-10.451337 42.40675,-10.111554 l 35.93244,0.30005 -5.15228,8.800844 -5.15227,8.800853 h -35.74344 c -19.65889,0 -35.74344,-0.31173 -35.74344,-0.69274 z"
     id="path5802"
     inkscape:connector-curvature="0" />
  <path
     style="fill:#000000;fill-opacity:0;stroke:#ff0000;stroke-width:0.56779659;stroke-miterlimit:4;stroke-dasharray:none;stroke-opacity:1"
     d="m 117.61234,126.43102 c 0.20819,-0.46843 2.4226,-4.54789 4.9209,-9.06547 l 4.54237,-8.21377 36.70021,-0.0193 36.70021,-0.0193 -2.16962,3.12289 c -1.19329,1.71758 -3.60888,5.80572 -5.36798,9.08474 l -3.19835,5.96187 h -36.25314 c -19.93922,0 -36.08279,-0.38327 -35.8746,-0.8517 z"
     id="path5804"
     inkscape:connector-curvature="0" />
  <path
     style="fill:#000000;fill-opacity:0;stroke:#ff0000;stroke-width:0.56779659;stroke-miterlimit:4;stroke-dasharray:none;stroke-opacity:1"
     d="m 197.99238,179.8039 c -4.51643,-7.96335 -9.45556,-16.52288 -10.97583,-19.02118 -3.44658,-5.66385 -8.89223,-15.03171 -13.69778,-23.56356 l -3.67783,-6.52966 h 10.71255 10.71256 l 3.32544,5.96186 c 4.48338,8.03781 11.50523,20.32629 16.54689,28.95763 2.28014,3.9036 5.97522,10.29131 8.21129,14.19491 2.23607,3.9036 5.08835,8.75826 6.33838,10.78814 l 2.2728,3.69068 h -10.77838 -10.77839 z"
     id="path5806"
     inkscape:connector-curvature="0" />
  <path
     style="fill:#000000;fill-opacity:0;stroke:#ff0000;stroke-width:0.56779659;stroke-miterlimit:4;stroke-dasharray:none;stroke-opacity:1"
     d="m 176.11426,186.61746 c -2.3344,-4.21589 -6.20051,-10.98686 -8.59134,-15.04661 -2.39083,-4.05974 -8.30103,-14.28008 -13.13378,-22.71186 -4.83274,-8.43178 -9.32916,-15.98874 -9.99204,-16.79324 -0.97173,-1.17933 0.95621,-1.39934 9.95115,-1.13559 l 11.15638,0.32713 6.14468,10.78814 c 3.37957,5.93347 7.79979,13.59873 9.82271,17.0339 2.02292,3.43517 5.88398,10.07839 8.58014,14.76271 2.69616,4.68432 6.36521,10.97823 8.15346,13.98647 1.78824,3.00824 3.25135,5.69108 3.25135,5.96186 0,0.27079 -4.74712,0.49235 -10.54917,0.49235 h -10.54916 z"
     id="path5808"
     inkscape:connector-curvature="0" />
  <path
     style="fill:#000000;fill-opacity:0;stroke:#ff0000;stroke-width:0.56779659;stroke-miterlimit:4;stroke-dasharray:none;stroke-opacity:1"
     d="m 152.85754,190.75933 c -1.06396,-1.93786 -3.75949,-6.66477 -5.99007,-10.50424 -2.23058,-3.83947 -8.30612,-14.39059 -13.50121,-23.44695 -5.19509,-9.05636 -10.65206,-18.37146 -12.1266,-20.70023 -1.47455,-2.32877 -2.68099,-4.50059 -2.68099,-4.82627 0,-0.32568 4.51995,-0.59214 10.04433,-0.59214 8.17179,0 10.35616,0.37048 11.71694,1.98728 0.91993,1.09301 6.44056,10.41907 12.26807,20.72458 11.49864,20.33446 17.10671,29.99827 21.25287,36.62288 l 2.66526,4.25848 h -10.85706 -10.85707 z"
     id="path5810"
     inkscape:connector-curvature="0" />
  <path
     style="fill:#000000;fill-opacity:0;stroke:#ff0000;stroke-width:0.56779659;stroke-miterlimit:4;stroke-dasharray:none;stroke-opacity:1"
     d="m 111.97758,253.63081 c -1.21681,-1.72493 -3.50857,-5.70954 -5.09279,-8.85469 l -2.88041,-5.71845 3.17313,-5.63748 c 1.74522,-3.10061 5.71131,-9.98112 8.81354,-15.29002 3.10223,-5.3089 8.54346,-14.76271 12.09163,-21.00847 3.54818,-6.24576 6.94864,-12.12246 7.55659,-13.05932 0.60796,-0.93687 1.69471,-2.85318 2.415,-4.25848 1.70324,-3.32301 2.49198,-3.22186 4.42721,0.5678 0.8771,1.71758 3.09061,5.614 4.9189,8.65871 2.78463,4.63734 3.10319,5.88966 1.96271,7.71586 -0.7488,1.19901 -2.93574,5.0956 -4.85986,8.65908 -1.92413,3.56348 -4.39513,7.7566 -5.49111,9.31804 -1.09598,1.56144 -3.36177,5.39407 -5.03509,8.51695 -1.67332,3.12288 -5.30782,9.5106 -8.07668,14.19492 -2.76886,4.68432 -6.12381,10.69528 -7.45544,13.3577 -3.14929,6.29653 -3.81991,6.59079 -6.46733,2.83785 z"
     id="path5812"
     inkscape:connector-curvature="0" />
  <path
     style="fill:#000000;fill-opacity:0;stroke:#ff0000;stroke-width:0.56779659;stroke-miterlimit:4;stroke-dasharray:none;stroke-opacity:1"
     d="m 100.38917,234.00064 c 0,-0.63988 -2.0823,-4.46052 -4.62735,-8.49031 -4.54181,-7.19146 -4.98528,-9.98326 -2.16444,-13.62592 0.8907,-1.15019 10.33248,-17.31603 15.58641,-26.68644 1.57588,-2.81059 3.23949,-5.62119 3.69691,-6.24576 0.84306,-1.15115 4.49179,-7.56156 10.54719,-18.53023 l 3.33375,-6.03871 2.53743,3.76752 c 1.39558,2.07213 3.84995,6.13488 5.45415,9.02831 l 2.91673,5.2608 -9.64445,16.88327 c -5.30445,9.2858 -11.30111,19.69387 -13.32591,23.12904 -14.20707,24.10288 -14.31042,24.2585 -14.31042,21.54843 z"
     id="path5814"
     inkscape:connector-curvature="0" />
  <path
     style="fill:#000000;fill-opacity:0;stroke:#ff0000;stroke-width:0.56779659;stroke-miterlimit:4;stroke-dasharray:none;stroke-opacity:1"
     d="m 85.73763,208.41103 c -1.31029,-2.22079 -2.38235,-4.27425 -2.38235,-4.56325 0,-0.289 -1.20983,-2.44194 -2.68851,-4.78431 l -2.688498,-4.25887 4.191188,-7.3584 c 2.30515,-4.04712 8.19756,-14.25713 13.09425,-22.68891 4.89668,-8.43178 11.17804,-19.34142 13.95857,-24.24365 l 5.05552,-8.91314 2.13295,3.23517 c 1.17312,1.77935 2.13632,3.61995 2.14043,4.09023 0.004,0.47027 1.49113,3.23873 3.30447,6.15212 l 3.29699,5.29708 -2.5712,4.06821 c -1.41416,2.23752 -6.80153,11.47796 -11.97193,20.53432 -5.1704,9.05636 -10.54673,18.28012 -11.94739,20.49725 -1.40067,2.21713 -3.87494,6.65237 -5.49838,9.85608 -1.62345,3.20371 -3.42242,6.11584 -3.99773,6.4714 -0.57531,0.35556 -2.11808,-1.17054 -3.42838,-3.39133 z"
     id="path5816"
     inkscape:connector-curvature="0" />
  <path
     style="fill:#000000;fill-opacity:0;stroke:#ff0000;stroke-width:0.56779659;stroke-miterlimit:4;stroke-dasharray:none;stroke-opacity:1"
     d="m 15.727032,169.58356 c 0.412688,-1.09301 2.639183,-5.17221 4.947767,-9.0649 l 4.197426,-7.07762 36.095039,-0.0198 36.095036,-0.0198 -1.31819,2.55508 c -0.72501,1.4053 -3.07956,5.49344 -5.23235,9.08475 l -3.91415,6.52966 H 50.787153 c -33.633984,0 -35.764858,-0.12078 -35.060121,-1.98729 z"
     id="path5818"
     inkscape:connector-curvature="0" />
  <path
     style="fill:#000000;fill-opacity:0;stroke:#ff0000;stroke-width:0.56779659;stroke-miterlimit:4;stroke-dasharray:none;stroke-opacity:1"
     d="m 3.7878435,189.45644 c 1.789717,-2.65444 4.166651,-6.74258 5.282074,-9.08474 l 2.0280445,-4.25848 H 47.871743 84.64552 l -2.20287,3.12289 c -1.21159,1.71758 -3.554567,5.80572 -5.20663,9.08474 l -3.00375,5.96187 H 37.383042 0.53381251 Z"
     id="path5820"
     inkscape:connector-curvature="0" />
  <path
     style="fill:#000000;fill-opacity:0;stroke:#ff0000;stroke-width:0.56779659;stroke-miterlimit:4;stroke-dasharray:none;stroke-opacity:1"
     d="m 96.00064,92.408547 -4.95634,-8.674489 2.38877,-4.628215 c 1.31382,-2.545518 4.52311,-8.205334 7.13177,-12.577368 2.60865,-4.372034 5.56284,-9.482203 6.56487,-11.355932 1.00202,-1.873729 3.72794,-6.539728 6.05761,-10.368887 2.32966,-3.829159 4.23575,-7.230095 4.23575,-7.557638 0,-0.327541 2.22137,-4.198482 4.93638,-8.602091 l 4.93637,-8.006562 4.71617,8.242796 c 2.59389,4.533538 4.71617,8.993027 4.71617,9.909977 0,0.916949 -2.29958,5.595548 -5.11017,10.396886 -2.8106,4.801338 -5.11017,9.09406 -5.11017,9.539382 0,0.445322 -0.6949,1.616438 -1.54423,2.602482 -0.84932,0.986045 -3.08929,4.603401 -4.97771,8.03857 -4.94074,8.987562 -15.33023,26.590999 -17.32552,29.355509 -1.63919,2.271123 -1.89019,2.033123 -6.65972,-6.31442 z"
     id="path5822"
     inkscape:connector-curvature="0" />
  <path
     style="fill:#000000;fill-opacity:0;stroke:#ff0000;stroke-width:0.56779659;stroke-miterlimit:4;stroke-dasharray:none;stroke-opacity:1"
     d="m 112.05455,120.24499 c -1.22144,-2.06273 -3.59441,-6.16676 -5.27327,-9.12007 l -3.05246,-5.36967 4.41405,-7.689653 c 2.42773,-4.229318 6.50456,-11.266783 9.05962,-15.638817 2.55507,-4.372034 8.63237,-14.972895 13.50511,-23.557469 4.87275,-8.584574 9.20837,-15.611057 9.63471,-15.614407 0.42634,-0.0033 1.07237,0.930297 1.43561,2.074769 0.36324,1.144473 2.47238,5.089888 4.68698,8.767589 4.44266,7.37777 4.55118,6.392092 -1.93119,17.541383 -1.99726,3.435169 -5.50588,9.567373 -7.79694,13.627118 -5.22238,9.254014 -21.78213,37.924107 -22.17164,38.386007 -0.15937,0.189 -1.28913,-1.34406 -2.51058,-3.40678 z"
     id="path5824"
     inkscape:connector-curvature="0" />
  <path
     style="fill:#000000;fill-opacity:0;stroke:#ff0000;stroke-width:0.56779659;stroke-miterlimit:4;stroke-dasharray:none;stroke-opacity:1"
     d="m 62.564129,123.59204 c -1.048692,-2.02988 -2.403572,-4.45721 -3.010842,-5.39407 C 58.946016,117.26111 55.539523,111.38441 51.9833,105.13865 41.28512,86.349525 38.449762,81.426438 36.613756,78.452204 35.649873,76.890763 33.48645,73.18589 31.806151,70.219153 l -3.055089,-5.394068 h 10.871646 c 9.317612,0 10.976436,0.284071 11.604737,1.987288 0.4032,1.093009 2.00744,4.031356 3.564979,6.529661 1.557539,2.498306 4.359633,7.352967 6.226877,10.788136 1.867243,3.43517 4.3351,7.464466 5.484126,8.953992 1.149025,1.489525 2.089137,3.160485 2.089137,3.713245 0,0.55276 1.334465,3.11894 2.965477,5.702633 1.631012,2.58369 4.113767,6.78943 5.517233,9.34608 1.403466,2.55665 3.945316,7.07579 5.648556,10.04253 l 3.09681,5.39407 H 75.14574 64.470843 Z"
     id="path5826"
     inkscape:connector-curvature="0" />
  <path
     style="fill:#000000;fill-opacity:0;stroke:#ff0000;stroke-width:0.56779659;stroke-miterlimit:4;stroke-dasharray:none;stroke-opacity:1"
     d="m 36.379062,122.76469 c -1.644438,-2.48491 -2.989888,-4.83522 -2.989888,-5.2229 0,-0.38768 -1.737485,-3.5925 -3.861077,-7.12181 C 17.115943,89.791563 3.8637495,66.488075 3.8637495,65.290178 c 0,-0.302676 4.687143,-0.40339 10.4158715,-0.223808 l 10.415873,0.326512 2.449241,4.542373 c 4.426673,8.209721 20.139666,35.139605 22.299176,38.217675 1.163115,1.65786 2.114755,3.37957 2.114755,3.82603 0,0.44646 1.788559,3.75603 3.974576,7.3546 2.186017,3.59858 3.974576,6.85928 3.974576,7.24601 0,0.38673 -4.531245,0.70315 -10.069434,0.70315 H 39.36895 Z"
     id="path5828"
     inkscape:connector-curvature="0" />
</svg>
