<?xml version="1.0" encoding="UTF-8" standalone="no"?>
<!-- Created with Inkscape (http://www.inkscape.org/) -->

<svg
   xmlns:dc="http://purl.org/dc/elements/1.1/"
   xmlns:cc="http://creativecommons.org/ns#"
   xmlns:rdf="http://www.w3.org/1999/02/22-rdf-syntax-ns#"
   xmlns:svg="http://www.w3.org/2000/svg"
   xmlns="http://www.w3.org/2000/svg"
   xmlns:sodipodi="http://sodipodi.sourceforge.net/DTD/sodipodi-0.dtd"
   xmlns:inkscape="http://www.inkscape.org/namespaces/inkscape"
   version="1.1"
   id="svg42"
   width="59.752537mm"
   height="59.93433mm"
   viewBox="0 0 225.83636 226.52345"
   sodipodi:docname="esoterica-wheel_of_hope.svg"
   inkscape:version="0.92.5 (2060ec1f9f, 2020-04-08)">
  <metadata
     id="metadata48">
    <rdf:RDF>
      <cc:Work
         rdf:about="">
        <dc:format>image/svg+xml</dc:format>
        <dc:type
           rdf:resource="http://purl.org/dc/dcmitype/StillImage" />
        <dc:title></dc:title>
      </cc:Work>
    </rdf:RDF>
  </metadata>
  <defs
     id="defs46" />
  <sodipodi:namedview
     pagecolor="#ffffff"
     bordercolor="#666666"
     borderopacity="1"
     objecttolerance="10"
     gridtolerance="10"
     guidetolerance="10"
     inkscape:pageopacity="0"
     inkscape:pageshadow="2"
     inkscape:window-width="1920"
     inkscape:window-height="997"
     id="namedview44"
     showgrid="false"
     units="mm"
     fit-margin-top="0"
     fit-margin-left="0"
     fit-margin-right="0"
     fit-margin-bottom="0"
     inkscape:zoom="0.88059701"
     inkscape:cx="112.27496"
     inkscape:cy="113.83446"
     inkscape:window-x="0"
     inkscape:window-y="28"
     inkscape:window-maximized="1"
     inkscape:current-layer="svg42" />
  <path
     style="fill:#000000;fill-opacity:0;stroke:#ff0000;stroke-width:0.56779659;stroke-miterlimit:4;stroke-dasharray:none;stroke-opacity:1"
     d="M 94.446148,224.88267 C 69.082787,219.9609 51.305189,210.95801 33.844523,194.19297 19.283063,180.21164 8.6350557,162.18389 3.2777707,142.44153 0.7225597,133.02522 0.3424197,129.34296 0.2883077,113.48391 0.2356777,98.059607 0.6233287,93.770237 2.8540267,85.094067 12.467452,47.703227 39.994799,18.177422 76.84445,5.7320196 c 14.202798,-4.79677697 28.876,-6.33795997 47.32578,-4.97080897 24.45168,1.81189797 48.78011,13.13813637 67.31652,31.33958337 27.16537,26.674474 38.46912,61.671153 32.5218,100.688196 -5.20969,34.17784 -30.1057,67.04402 -62.43883,82.42792 -19.44716,9.25282 -48.03634,13.36966 -67.123572,9.66576 z m 5.652232,-19.69961 c -0.460092,-1.09301 -2.237532,-5.56441 -3.949882,-9.93644 -5.30696,-13.54995 -9.24986,-21.1918 -10.62132,-20.58554 -0.71576,0.31641 -4.87849,2.0773 -9.250525,3.9131 -19.94767,8.37592 -21.384036,9.17364 -19.848748,11.02355 2.699668,3.2529 19.828615,11.64028 28.933493,14.1676 4.99661,1.38695 9.59576,2.68013 10.22034,2.87373 3.4494,1.06916 5.325062,0.46452 4.516642,-1.456 z m 40.90709,-1.62359 c 9.03622,-2.63232 28.95763,-13.07032 28.95763,-15.17261 0,-0.76576 -0.89428,-1.67248 -1.98729,-2.01493 -1.09301,-0.34243 -8.11949,-3.15897 -15.61441,-6.25895 -7.49491,-3.09999 -13.94979,-5.44179 -14.34415,-5.20401 -0.39436,0.23779 -2.11558,3.88901 -3.82492,8.11382 -1.70934,4.2248 -4.58053,11.13532 -6.38042,15.3567 -1.79991,4.22139 -3.27254,7.98313 -3.27254,8.35943 0,0.93683 6.92766,-0.40083 16.4661,-3.17945 z m -22.78059,-29.88912 c 2.32606,-5.62119 5.81058,-13.92023 7.74338,-18.44231 1.9328,-4.52208 3.24362,-8.49252 2.91293,-8.82321 -0.33068,-0.33068 -4.09471,0.20894 -8.36449,1.19917 -7.072,1.64011 -8.46794,1.64128 -15.67747,0.0132 -4.35282,-0.98299 -8.132642,-1.56883 -8.399602,-1.30188 -0.26696,0.26697 1.40365,4.99801 3.712472,10.51345 2.30883,5.51543 4.86615,11.81662 5.68294,14.00263 3.65635,9.78569 6.36066,15.06146 7.22661,14.09825 0.51371,-0.57141 2.83716,-5.63808 5.16323,-11.25926 z m -79.387875,-5.16669 c 2.155565,-3.48777 11.065867,-25.86943 11.183507,-28.09168 0.113321,-2.14071 -1.060385,-3.10652 -6.676062,-5.49351 -9.020852,-3.83439 -23.297127,-9.51084 -23.919786,-9.51084 -2.326787,0 3.117829,19.73472 8.302426,30.09322 6.359501,12.7059 9.222509,16.0567 11.109915,13.00281 z m 152.482515,-1.93077 c 3.33937,-4.72734 9.89592,-18.30743 11.92488,-24.69915 1.94053,-6.11307 3.6721,-16.46611 2.75402,-16.46611 -0.99032,0 -14.81979,5.35435 -21.27261,8.23612 -3.43517,1.53411 -7.14004,3.10312 -8.23305,3.4867 -2.7689,0.97172 -2.54368,2.45092 2.03171,13.34418 6.407,15.25406 8.37104,19.22114 9.51603,19.22114 0.59017,0 2.06573,-1.4053 3.27902,-3.12288 z M 79.425598,157.30072 c 0.48276,-0.45647 0.11592,-2.65328 -0.81521,-4.88177 -1.50823,-3.60973 -5.917701,-6.57064 -9.785142,-6.57064 -0.669423,0 -7.879102,17.12295 -7.879102,18.71283 0,0.54497 17.493354,-6.32803 18.479454,-7.26042 z m 81.385132,-2.58219 c -1.98959,-4.56633 -3.77608,-8.48111 -3.97,-8.69949 -0.19392,-0.2184 -2.16579,0.20133 -4.38194,0.93273 -3.31548,1.0942 -4.27697,2.1563 -5.42701,5.99478 -0.85875,2.86621 -0.97643,4.81889 -0.30522,5.06412 0.60086,0.21954 4.66959,1.85554 9.04162,3.63558 4.37203,1.78005 8.10909,2.81756 8.30456,2.30558 0.19548,-0.51199 -1.27243,-4.66697 -3.26201,-9.2333 z m -39.22905,-26.86834 c 11.11633,-6.33821 11.35953,-22.20071 0.45106,-29.419603 -8.5053,-5.62854 -19.35639,-2.95094 -24.444402,6.031853 -3.12719,5.52099 -3.24867,10.62925 -0.38621,16.24014 2.65183,5.198 4.446512,6.77113 10.008682,8.77304 4.75971,1.71311 9.44496,1.18319 14.37087,-1.62543 z m -41.810392,-0.45527 c -2.934422,-10.06627 -3.357399,-14.65039 -1.938448,-21.00847 1.956268,-8.765703 2.045308,-9.975083 0.714998,-9.711123 -0.624575,0.12393 -8.034321,3.10431 -16.4661,6.623063 -8.43178,3.51875 -16.735805,6.97875 -18.45339,7.68889 -5.23602,2.16485 -4.553175,2.93096 6.220096,6.97852 3.917718,1.4719 11.977785,4.73698 17.91126,7.25572 5.933474,2.51875 11.230994,4.61305 11.772274,4.65401 0.54128,0.041 0.64897,-1.07531 0.23931,-2.48061 z m 72.658692,-0.13997 c 3.70973,-1.48228 9.81108,-3.98282 13.55854,-5.55674 3.74746,-1.57393 9.35444,-3.89568 12.45997,-5.15943 6.13401,-2.49615 7.51811,-4.11999 4.33646,-5.08756 -1.86517,-0.56722 -7.56422,-2.97417 -29.13793,-12.306173 -8.34586,-3.61012 -10.07186,-3.501 -7.5843,0.47948 3.13918,5.023183 2.86666,20.070843 -0.51322,28.338193 -1.02086,2.49709 -1.18186,2.51365 6.88048,-0.70777 z M 37.666483,93.637367 c 3.122882,-1.11086 7.532063,-2.91375 9.79818,-4.00642 l 4.120214,-1.98668 -5.03997,-12.063233 C 43.772922,68.946255 40.682759,61.524526 39.677876,59.088301 l -1.827062,-4.429498 -2.107312,2.602421 c -7.048685,8.704757 -16.814307,33.088373 -16.814307,41.983353 0,2.216823 0.200251,2.196883 6.529661,-0.65026 3.591314,-1.61546 9.084746,-3.84609 12.207627,-4.95695 z m 168.042427,0.82535 c -1.40043,-10.35504 -9.24585,-28.437855 -15.86528,-36.567715 l -2.72892,-3.351613 -1.09087,2.783816 c -0.59997,1.531099 -3.23554,7.893985 -5.85679,14.139748 -6.62846,15.793864 -6.59809,16.139344 1.71977,19.563894 3.74746,1.54286 10.13517,4.28294 14.19492,6.08907 10.3076,4.585713 10.59595,4.506123 9.62717,-2.6572 z M 112.61564,77.316989 c 4.82803,0 9.62118,0.723749 12.20763,1.843308 6.29937,2.72672 6.56651,3.72857 -7.89488,-29.609073 -2.24844,-5.183312 -4.45469,-9.015939 -4.90278,-8.51695 -0.4481,0.49899 -2.37155,4.739882 -4.27433,9.424205 -1.90279,4.684322 -5.28224,12.860593 -7.5099,18.169491 -5.184532,12.355647 -5.176782,12.845257 0.16663,10.532327 2.58645,-1.119559 7.3796,-1.843308 12.20763,-1.843308 z m -38.872667,1.000015 c 2.742452,-1.14587 4.384706,-2.800733 5.253975,-5.294314 0.69549,-1.99508 1.12242,-3.769516 0.94875,-3.943191 -0.17368,-0.173675 -3.800736,-1.879369 -8.060132,-3.790431 -7.55986,-3.391879 -11.512408,-4.351417 -10.750156,-2.609755 0.208192,0.475696 1.828503,4.563832 3.600692,9.084745 1.772187,4.520915 3.626093,8.219849 4.119791,8.219849 0.493697,0 2.692883,-0.75011 4.88708,-1.666903 z M 160.63984,71.50665 c 4.18401,-9.730077 4.17602,-9.692239 2.04776,-9.692239 -3.27837,0 -16.57196,6.751116 -16.57196,8.416021 0,4.699892 4.42294,9.093075 9.69793,9.632665 0.64954,0.0664 2.82136,-3.693958 4.82627,-8.356447 z M 89.534008,46.200004 C 95.534068,32.649777 100.42713,20.305133 100.04582,19.67987 99.158428,18.224751 86.301678,21.195728 77.223119,24.953807 67.93921,28.796891 55.268178,36.319357 55.268178,37.987889 c 0,0.826649 8.244834,4.623856 13.525197,6.229109 1.505383,0.457643 5.849028,2.304299 9.652543,4.10368 3.80351,1.799381 7.3169,3.272005 7.80753,3.272498 0.49063,4.93e-4 1.96688,-2.426435 3.28056,-5.393172 z m 60.556202,0.811234 c 3.74746,-1.716154 9.75191,-4.257024 13.34322,-5.646376 3.59132,-1.389355 6.52967,-2.892824 6.52967,-3.341045 0,-1.740999 -12.39168,-9.158625 -21.69542,-12.986834 -9.9609,-4.098605 -22.20147,-6.791283 -23.23922,-5.112162 -0.31624,0.511687 0.45389,2.947117 1.71141,5.412068 1.25753,2.46495 3.52738,7.778671 5.04412,11.80827 1.51673,4.029599 3.59985,8.95508 4.62914,10.945513 2.12409,4.10753 2.3978,4.085927 13.67708,-1.079434 z"
     id="path5310"
     inkscape:connector-curvature="0" />
</svg>
