<?xml version="1.0" encoding="UTF-8" standalone="no"?>
<!-- Created with Inkscape (http://www.inkscape.org/) -->

<svg
   xmlns:dc="http://purl.org/dc/elements/1.1/"
   xmlns:cc="http://creativecommons.org/ns#"
   xmlns:rdf="http://www.w3.org/1999/02/22-rdf-syntax-ns#"
   xmlns:svg="http://www.w3.org/2000/svg"
   xmlns="http://www.w3.org/2000/svg"
   xmlns:sodipodi="http://sodipodi.sourceforge.net/DTD/sodipodi-0.dtd"
   xmlns:inkscape="http://www.inkscape.org/namespaces/inkscape"
   version="1.1"
   id="svg12"
   width="27.902428mm"
   height="62.044792mm"
   viewBox="0 0 105.458 234.5"
   sodipodi:docname="esoterica-ishkur.svg"
   inkscape:version="0.92.5 (2060ec1f9f, 2020-04-08)">
  <metadata
     id="metadata18">
    <rdf:RDF>
      <cc:Work
         rdf:about="">
        <dc:format>image/svg+xml</dc:format>
        <dc:type
           rdf:resource="http://purl.org/dc/dcmitype/StillImage" />
        <dc:title></dc:title>
      </cc:Work>
    </rdf:RDF>
  </metadata>
  <defs
     id="defs16" />
  <sodipodi:namedview
     pagecolor="#ffffff"
     bordercolor="#666666"
     borderopacity="1"
     objecttolerance="10"
     gridtolerance="10"
     guidetolerance="10"
     inkscape:pageopacity="0"
     inkscape:pageshadow="2"
     inkscape:window-width="1920"
     inkscape:window-height="997"
     id="namedview14"
     showgrid="false"
     units="mm"
     fit-margin-top="0"
     fit-margin-left="0"
     fit-margin-right="0"
     fit-margin-bottom="0"
     inkscape:zoom="0.88059701"
     inkscape:cx="52.628728"
     inkscape:cy="116.34153"
     inkscape:window-x="0"
     inkscape:window-y="28"
     inkscape:window-maximized="1"
     inkscape:current-layer="svg12" />
  <path
     style="fill:#000000;fill-opacity:0;stroke:#ff0000;stroke-width:0.56779659;stroke-miterlimit:4;stroke-dasharray:none;stroke-opacity:1"
     d="m 39.910088,213.20762 c 0,-15.1668 -0.36588,-21.00847 -1.31581,-21.00847 -0.72369,0 -5.12556,-1.90837 -9.78192,-4.24082 C 1.7942423,174.42452 -8.0966627,137.94807 8.1678493,111.82391 11.348737,106.71474 11.975632,104.51581 12.414976,96.926404 12.987526,87.035924 11.787918,82.067007 7.0079193,74.52973 2.5134003,67.442608 -0.28001168,54.268991 0.45080232,43.606633 1.1977363,32.709093 3.0023493,26.493565 7.8356533,18.171407 10.099183,14.273979 11.897867,9.3549863 12.299504,5.9637803 l 0.672698,-5.67988201 h 12.829746 12.82975 l -0.4964,3.97457601 c -0.27302,2.186017 -0.71679,5.7447187 -0.98616,7.9082267 -0.26937,2.163507 -3.07996,9.263897 -6.24576,15.778643 -5.0967,10.488241 -5.75601,12.683187 -5.75601,19.162786 0,6.48468 0.65211,8.651281 5.72787,19.030676 10.1038,20.661198 10.08755,35.510964 -0.0615,56.137224 -5.58234,11.34527 -5.9014,12.46168 -5.46587,19.12567 0.81623,12.4888 7.9101,22.66652 17.8807,25.65379 6.44218,1.93012 15.16851,1.57117 20.71868,-0.85224 16.03513,-7.00155 20.84737,-25.72825 11.06543,-43.06089 -9.8223,-17.40414 -10.04312,-40.501329 -0.5422,-56.712177 7.42121,-12.662363 7.48685,-25.099506 0.20176,-38.225266 -3.51749,-6.337564 -7.50797,-19.9386697 -7.50797,-25.5901067 0,-2.20955301 0.65037,-2.33091201 12.49153,-2.33091201 h 12.49152 V 3.3855013 c 0,1.705881 2.93102,9.2433817 6.51338,16.7499987 l 6.513372,13.648398 -0.006,13.059322 -0.006,13.059322 -6.187362,13.059322 c -4.94287,10.43267 -6.27816,14.48421 -6.63885,20.14364 -0.42765,6.71008 -0.10081,7.819886 6.18709,21.008476 l 6.638592,13.92415 6.9e-4,12.52432 c 6.8e-4,12.33021 -0.0715,12.67485 -4.65934,22.23609 -6.151552,12.82015 -12.932022,19.67019 -25.764792,26.02907 l -9.84506,4.87842 v 20.25504 20.25503 h -12.49153 -12.49152 z"
     id="path2497"
     inkscape:connector-curvature="0" />
</svg>
