<?xml version="1.0" encoding="UTF-8" standalone="no"?>
<!-- Created with Inkscape (http://www.inkscape.org/) -->

<svg
   xmlns:dc="http://purl.org/dc/elements/1.1/"
   xmlns:cc="http://creativecommons.org/ns#"
   xmlns:rdf="http://www.w3.org/1999/02/22-rdf-syntax-ns#"
   xmlns:svg="http://www.w3.org/2000/svg"
   xmlns="http://www.w3.org/2000/svg"
   xmlns:sodipodi="http://sodipodi.sourceforge.net/DTD/sodipodi-0.dtd"
   xmlns:inkscape="http://www.inkscape.org/namespaces/inkscape"
   version="1.1"
   id="svg42"
   width="59.938648mm"
   height="59.904701mm"
   viewBox="0 0 226.53977 226.41147"
   sodipodi:docname="esoterica-lovers_knot_interlaced.svg"
   inkscape:version="0.92.5 (2060ec1f9f, 2020-04-08)">
  <metadata
     id="metadata48">
    <rdf:RDF>
      <cc:Work
         rdf:about="">
        <dc:format>image/svg+xml</dc:format>
        <dc:type
           rdf:resource="http://purl.org/dc/dcmitype/StillImage" />
        <dc:title></dc:title>
      </cc:Work>
    </rdf:RDF>
  </metadata>
  <defs
     id="defs46" />
  <sodipodi:namedview
     pagecolor="#ffffff"
     bordercolor="#666666"
     borderopacity="1"
     objecttolerance="10"
     gridtolerance="10"
     guidetolerance="10"
     inkscape:pageopacity="0"
     inkscape:pageshadow="2"
     inkscape:window-width="1920"
     inkscape:window-height="997"
     id="namedview44"
     showgrid="false"
     inkscape:zoom="0.88059701"
     inkscape:cx="113.34043"
     inkscape:cy="112.82595"
     inkscape:window-x="0"
     inkscape:window-y="28"
     inkscape:window-maximized="1"
     inkscape:current-layer="svg42"
     units="mm"
     fit-margin-top="0"
     fit-margin-left="0"
     fit-margin-right="0"
     fit-margin-bottom="0" />
  <path
     style="fill:#ff0000;fill-opacity:0.01829266;stroke:#ff0000;stroke-width:0.56779659;stroke-miterlimit:4;stroke-dasharray:none;stroke-opacity:1"
     d="m 60.356725,99.128383 c -0.359337,-0.58142 -0.125651,-1.38325 0.519301,-1.78185 0.644953,-0.39861 0.929288,-1.11849 0.631857,-1.59974 -0.730809,-1.18247 3.650591,-9.39793 5.978704,-11.21052 1.401123,-1.09086 8.187286,-1.4259 27.154116,-1.34062 l 25.286167,0.1137 v 8.43808 8.438077 H 90.468473 c -16.956243,0 -29.735686,-0.448637 -30.111748,-1.057127 z"
     id="path6629"
     inkscape:connector-curvature="0" />
  <path
     style="fill:#ff0000;fill-opacity:0.01829266;stroke:#ff0000;stroke-width:0.56779659;stroke-miterlimit:4;stroke-dasharray:none;stroke-opacity:1"
     d="m 36.458113,117.90708 c -0.205311,-0.69051 -0.652541,-3.97758 -0.993844,-7.3046 -0.617417,-6.01858 2.086317,-22.907487 3.849201,-24.044087 0.484364,-0.31229 2.202832,-3.82602 3.818818,-7.808287 1.615987,-3.982271 3.842082,-7.926399 4.94688,-8.764732 1.104797,-0.838332 1.511755,-1.540492 0.904351,-1.560356 -0.607405,-0.01986 0.03137,-0.831618 1.419492,-1.803898 1.388124,-0.97228 2.523863,-2.296483 2.523863,-2.942673 0,-2.523176 17.497949,-18.05509 19.305084,-17.136002 0.312289,0.158826 1.418888,-0.439952 2.459111,-1.330618 1.040222,-0.890667 2.19001,-1.320696 2.555084,-0.955622 0.365074,0.365074 0.663772,5.088677 0.663772,10.496895 0,9.102243 -0.217817,10.037752 -2.930471,12.586158 -1.611759,1.514169 -3.14481,2.62528 -3.40678,2.469136 -0.26197,-0.156144 -0.461964,-0.01268 -0.444433,0.318799 0.01753,0.331483 -1.643272,2.132709 -3.690678,4.002724 -2.047404,1.870015 -3.725543,3.770624 -3.729196,4.223574 -0.0036,0.452951 -1.153441,2.672422 -2.555085,4.932162 -1.401643,2.25974 -2.548442,4.68707 -2.548442,5.39407 0,0.707 -0.596187,1.28545 -1.324859,1.28545 -0.728672,0 -0.988615,0.33625 -0.577649,0.74721 0.410965,0.41097 0.168974,1.44394 -0.537759,2.2955 -0.706732,0.85156 -1.479963,3.45367 -1.71829,5.78245 -0.238327,2.328787 -0.9332,5.715707 -1.544162,7.526497 -0.610963,1.81079 -1.112723,5.38791 -1.115025,7.94915 l -0.0042,4.65682 -7.475753,0.11987 c -4.575541,0.0734 -7.620572,-0.36718 -7.849046,-1.13559 z"
     id="path6631"
     inkscape:connector-curvature="0" />
  <path
     style="fill:#ff0000;fill-opacity:0.01829266;stroke:#ff0000;stroke-width:0.56779659;stroke-miterlimit:4;stroke-dasharray:none;stroke-opacity:1"
     d="m 83.345743,52.832566 c -0.17911,-14.241049 0.13043,-26.543936 0.68787,-27.33975 0.55743,-0.795813 0.68962,-1.770829 0.29375,-2.166702 -0.39587,-0.395871 -0.15061,-1.405556 0.54502,-2.243743 0.69563,-0.838187 0.93359,-1.523977 0.52878,-1.523977 -0.4048,0 0.0104,-1.443461 0.92276,-3.207692 1.95531,-3.781154 8.48106,-10.9872227 9.94993,-10.9872227 0.5632,0 1.50855,-0.766525 2.10078,-1.70339 0.59223,-0.936864 1.09243,-1.192373 1.11156,-0.567796 0.0191,0.624576 0.49092,0.415037 1.048427,-0.465642 0.68257,-1.078237 3.99154,-1.77362297 10.1309,-2.12902497 8.62691,-0.499404 9.42055,-0.341171 14.7566,2.94213297 3.10164,1.908457 5.85747,3.251796 6.12406,2.985197 0.2666,-0.266599 1.68303,0.790802 3.14761,2.349781 1.46458,1.5589767 2.32955,2.8345047 1.92214,2.8345047 -0.4074,0 0.78106,2.399623 2.64104,5.332497 3.99331,6.296796 4.80635,15.454117 1.48527,16.728537 -1.04308,0.400265 -2.26349,0.13396 -2.71202,-0.591788 -0.44854,-0.725748 -1.38368,-0.968406 -2.07808,-0.539239 -0.69441,0.429166 -1.26256,0.245152 -1.26256,-0.408921 0,-0.654074 -0.89428,-1.114282 -1.98729,-1.022686 -5.08142,0.425836 -7.09745,-0.251239 -7.09745,-2.383645 0,-3.570647 -7.21333,-10.324578 -11.82635,-11.073169 -2.76097,-0.448043 -4.07196,-0.225762 -4.07196,0.690409 0,0.743157 -0.44505,1.076136 -0.98901,0.739952 -0.54396,-0.336185 -2.20477,0.442346 -3.69068,1.730068 -2.6876,2.329128 -2.70343,2.484789 -3.04098,29.911099 l -0.33931,27.569786 -8.987577,0.21662 -8.98757,0.216619 z"
     id="path6637"
     inkscape:connector-curvature="0" />
  <path
     style="fill:#ff0000;fill-opacity:0.01829266;stroke:#ff0000;stroke-width:0.56779659;stroke-miterlimit:4;stroke-dasharray:none;stroke-opacity:1"
     d="m 156.17284,71.795682 c -3.92607,-3.747457 -7.45897,-6.813559 -7.85089,-6.813559 -0.39192,0 -1.83098,-1.041941 -3.1979,-2.315423 -1.36692,-1.273483 -2.48531,-1.942338 -2.48531,-1.486345 0,0.455994 -0.63878,-0.04108 -1.4195,-1.10462 -0.78072,-1.063536 -2.44152,-2.139986 -3.69067,-2.392113 -6.28234,-1.268017 -13.84242,-3.299473 -15.599,-4.191578 -1.08454,-0.550795 -4.7505,-1.001446 -8.14658,-1.001446 h -6.1747 l -0.37037,-9.201526 -0.37037,-9.201525 7.38135,0.70025 c 12.04281,1.142471 12.91261,1.289039 16.37804,2.759843 1.82529,0.774695 3.98075,1.154488 4.7899,0.843986 0.80916,-0.310501 1.77838,-0.06751 2.15383,0.539973 0.37544,0.607486 1.15833,0.810518 1.73975,0.451181 0.58142,-0.359337 1.05713,-0.112164 1.05713,0.549273 0,0.661437 0.38326,1.118787 0.85169,1.016332 1.75424,-0.383679 7.09746,1.609526 7.09746,2.647594 0,0.593728 0.51102,0.763679 1.13559,0.37767 0.62458,-0.38601 1.1356,-0.130501 1.1356,0.567796 0,0.698298 0.45747,0.9869 1.0166,0.641339 0.55913,-0.345562 1.32204,0.167685 1.69537,1.14055 0.37332,0.972864 1.19339,1.450787 1.82238,1.062051 0.62899,-0.388735 1.14361,-0.152968 1.14361,0.523928 0,0.676895 1.27755,1.71644 2.83899,2.310098 1.56144,0.593659 2.83898,1.688214 2.83898,2.432346 0,0.74413 0.28069,1.07228 0.62374,0.729221 0.90217,-0.902169 9.64472,7.197798 8.96167,8.302985 -0.31517,0.509957 0.68255,1.74989 2.21716,2.755406 1.53461,1.005515 3.31288,3.327541 3.95169,5.160058 0.63882,1.832517 1.78426,3.331849 2.54542,3.331849 0.76117,0 1.06124,0.322698 0.66683,0.717108 -0.39441,0.394409 -0.20609,1.671952 0.41848,2.838983 1.06723,1.994135 0.55907,2.121875 -8.44103,2.121875 h -9.57663 z"
     id="path6639"
     inkscape:connector-curvature="0" />
  <path
     style="fill:#ff0000;fill-opacity:0.01829266;stroke:#ff0000;stroke-width:0.56779659;stroke-miterlimit:4;stroke-dasharray:none;stroke-opacity:1"
     d="m 126.25005,118.62169 c -0.35487,-0.35487 -0.64521,-13.90906 -0.64521,-30.120417 0,-25.677358 0.21307,-29.298378 1.65364,-28.102807 0.90951,0.754822 2.18705,1.042743 2.83899,0.639825 0.65193,-0.402919 1.18533,-0.136731 1.18533,0.591529 0,0.72826 0.72424,1.046193 1.60941,0.70652 0.88518,-0.339674 1.86329,0.04401 2.17359,0.852628 0.31029,0.808619 2.10617,1.778617 3.99084,2.155551 l 3.42668,0.685334 0.11319,26.16258 0.11318,26.162567 -5.99734,0.0869 c -3.29854,0.0478 -6.85678,0.25296 -7.90721,0.45595 -1.05043,0.20298 -2.20022,0.0787 -2.55509,-0.27615 z"
     id="path6641"
     inkscape:connector-curvature="0" />
  <path
     style="fill:#ff0000;fill-opacity:0.01829266;stroke:#ff0000;stroke-width:0.56779659;stroke-miterlimit:4;stroke-dasharray:none;stroke-opacity:1"
     d="m 107.43535,134.25331 v -7.94916 h 29.08073 29.08073 l -0.83345,3.12289 c -0.4584,1.71758 -0.85447,3.76165 -0.88017,4.54237 -0.0257,0.78072 -0.50272,1.41949 -1.06006,1.41949 -0.55734,0 -0.74899,0.42774 -0.42589,0.95053 0.3231,0.52279 -0.18673,2.05584 -1.13297,3.40678 -1.67862,2.39657 -2.3534,2.45625 -27.77467,2.45625 h -26.05425 z"
     id="path6643"
     inkscape:connector-curvature="0" />
  <path
     style="fill:#ff0000;fill-opacity:0.01829266;stroke:#ff0000;stroke-width:0.56779659;stroke-miterlimit:4;stroke-dasharray:none;stroke-opacity:1"
     d="m 100.17326,165.85694 c 0.55296,-0.89471 0.20077,-1.09054 -1.078437,-0.59966 -1.04474,0.40091 -3.3004,0.14972 -5.01256,-0.55819 -1.71216,-0.70791 -3.49628,-1.20459 -3.96471,-1.10374 -0.46843,0.10086 -0.8517,-0.41281 -0.8517,-1.14148 0,-0.72867 -0.29809,-1.02676 -0.66243,-0.66243 -0.36433,0.36434 -1.65162,-0.32677 -2.86065,-1.53579 -2.06174,-2.06174 -2.17925,-3.7656 -1.89265,-27.4435 l 0.30556,-25.24528 8.80085,-0.16066 8.800847,-0.16065 v 29.96998 c 0,20.33636 -0.38657,29.96997 -1.20261,29.96997 -0.661437,0 -0.833117,-0.59786 -0.38151,-1.32857 z"
     id="path6645"
     inkscape:connector-curvature="0" />
  <path
     style="fill:#ff0000;fill-opacity:0.01829266;stroke:#ff0000;stroke-width:0.56779659;stroke-miterlimit:4;stroke-dasharray:none;stroke-opacity:1"
     d="m 23.925167,142.27378 c 0.658626,-1.06568 0.28168,-1.25516 -1.421533,-0.71459 -1.274806,0.40461 -2.651652,0.19551 -3.059659,-0.46466 -0.408009,-0.66017 -1.217539,-0.9063 -1.798958,-0.54697 -0.58142,0.35934 -1.057126,0.082 -1.057126,-0.61629 0,-0.6983 -0.447261,-0.99321 -0.993911,-0.65536 -1.002277,0.61944 -12.5114206,-10.18991 -12.7751566,-11.99839 -0.321693,-2.20589 -0.503098,-2.74373 -1.405226,-4.16627 -1.24603499,-1.96483 -1.58473199,-16.11218 -0.385736,-16.11218 0.512246,0 0.615531,-0.51102 0.229521,-1.13559 -0.38600899,-0.62458 -0.29623899,-1.77437 0.19949,-2.55509 0.849383,-1.33769 1.014794,-1.82592 1.361951,-4.020027 0.29435,-1.86035 9.2622736,-10.89862 11.0782446,-11.16515 1.042616,-0.15303 2.20233,-0.76674 2.577143,-1.36382 1.101084,-1.75402 9.435272,-3.82699 13.740798,-3.41776 3.510638,0.33368 3.928504,0.70916 3.579874,3.21676 -0.217087,1.56144 -0.899852,3.45537 -1.517255,4.20873 -0.617404,0.75336 -0.792892,1.90315 -0.389973,2.55509 0.402919,0.65193 0.136006,1.18533 -0.593141,1.18533 -0.847049,0 -1.068447,1.02506 -0.61318,2.83899 0.525816,2.09501 0.260489,2.838977 -1.012486,2.838977 -0.948764,0 -1.725025,0.49498 -1.725025,1.09995 0,0.60498 -0.762218,0.80747 -1.693818,0.44998 -0.965728,-0.37059 -1.993149,0.13006 -2.390179,1.16471 -0.382999,0.99808 -1.138367,1.54151 -1.678595,1.20764 -1.537593,-0.95029 -4.672835,7.677 -3.939523,10.84043 0.361957,1.56144 0.79909,3.4262 0.971408,4.14392 0.497649,2.07273 3.228491,4.96625 4.149707,4.3969 0.461793,-0.2854 1.809188,0.21499 2.99421,1.11199 1.715638,1.29863 7.186483,1.63825 26.853739,1.66701 l 24.699153,0.0361 v 7.94916 7.94915 H 52.451954 c -14.001883,0 -26.35012,0.34235 -27.440525,0.76078 -1.428244,0.54807 -1.731957,0.3553 -1.086262,-0.68946 z"
     id="path6647"
     inkscape:connector-curvature="0" />
  <path
     style="fill:#ff0000;fill-opacity:0.01829266;stroke:#ff0000;stroke-width:0.56779659;stroke-miterlimit:4;stroke-dasharray:none;stroke-opacity:1"
     d="m 106.86755,191.42375 c -8.760107,-1.04015 -16.425227,-2.88596 -20.400167,-4.9125 -2.39305,-1.22005 -4.78644,-1.94916 -5.31864,-1.62024 -0.5322,0.32892 -0.96763,-0.0283 -0.96763,-0.79385 0,-0.76553 -0.3227,-1.06918 -0.71711,-0.67477 -0.849028,0.84903 -4.183416,-0.81321 -7.612993,-3.79519 -1.351919,-1.17548 -2.841297,-2.15616 -3.30973,-2.17929 -0.468432,-0.0231 -1.80779,-0.93634 -2.976351,-2.02935 -1.16856,-1.09301 -4.490171,-4.12327 -7.381356,-6.73392 -2.891185,-2.61065 -5.256699,-5.23944 -5.256699,-5.84177 0,-0.60232 -1.482568,-2.68223 -3.294595,-4.62201 -1.812026,-1.93978 -3.053067,-3.52688 -2.757869,-3.52688 0.295199,0 -0.270998,-0.80772 -1.258216,-1.79494 -0.987218,-0.98721 -1.531552,-2.22111 -1.209632,-2.74199 0.321921,-0.52088 -0.05665,-1.20586 -0.841257,-1.52218 -0.784612,-0.31633 3.294498,-0.61548 9.064689,-0.66479 8.376717,-0.0716 10.951636,0.30453 12.775424,1.86611 1.256292,1.07567 2.284168,2.51964 2.284168,3.20883 0,1.5292 5.662559,7.01526 5.715746,5.53759 0.02078,-0.5773 1.042813,0.15676 2.271186,1.63125 1.228374,1.47449 2.233407,2.2711 2.233407,1.77024 0,-0.50086 0.750272,0.0813 1.667278,1.29369 0.917,1.21238 1.68352,1.7234 1.70339,1.13559 0.0199,-0.58781 0.78638,-0.0768 1.70339,1.13559 0.917,1.21239 1.68352,1.7794 1.70339,1.26002 0.0199,-0.51937 1.82467,0.16108 4.01069,1.51211 2.18601,1.35104 3.97457,2.09667 3.97457,1.65696 0,-0.4397 0.74414,-0.18188 1.65365,0.57295 0.9095,0.75482 2.18705,1.04274 2.83898,0.63982 0.65194,-0.40292 1.18534,-0.24546 1.18534,0.3499 0,0.59537 1.14979,1.13402 2.555077,1.19702 1.4053,0.063 6.25996,0.2403 10.78814,0.39402 l 8.23305,0.27948 v 8.87788 c 0,5.19009 -0.43912,8.60649 -1.05713,8.22454 -0.58141,-0.35934 -1.3781,-0.13399 -1.7704,0.50077 -0.69595,1.12606 -3.31349,1.23077 -10.23179,0.40931 z"
     id="path6649"
     inkscape:connector-curvature="0" />
  <path
     style="fill:#ff0000;fill-opacity:0.01829266;stroke:#ff0000;stroke-width:0.56779659;stroke-miterlimit:4;stroke-dasharray:none;stroke-opacity:1"
     d="m 104.47342,224.90183 c -0.33099,-0.53554 -1.01743,-0.71683 -1.52544,-0.40286 -0.50801,0.31397 -2.26126,-0.48131 -3.896107,-1.76729 -1.63485,-1.28597 -2.97246,-2.09663 -2.97246,-1.80147 0,0.29516 -1.6608,-1.14014 -3.69067,-3.18956 -3.85988,-3.89703 -8.35067,-10.80938 -7.02262,-10.80938 0.42408,0 0.20189,-0.68579 -0.49374,-1.52397 -0.69563,-0.83819 -0.94089,-1.84788 -0.54502,-2.24375 0.39587,-0.39587 0.20703,-1.37089 -0.41964,-2.1667 -0.62668,-0.79581 -0.90632,-3.30139 -0.62143,-5.56795 l 0.51798,-4.12102 5.73746,2.09711 c 3.15561,1.15342 6.17302,1.82793 6.70537,1.49892 0.53235,-0.32901 0.96791,0.003 0.96791,0.73686 0,0.77597 0.95111,1.08633 2.27118,0.74113 1.749757,-0.45757 2.275027,-0.0317 2.287927,1.85484 0.022,3.21983 2.54627,8.12674 4.18064,8.12674 0.71022,0 1.67458,0.38326 2.14301,0.85169 0.46844,0.46843 2.73221,0.8517 5.03061,0.8517 3.2501,0 5.101,-0.89554 8.32768,-4.02925 l 4.14878,-4.02924 V 173.9444 147.88043 h 8.49517 8.49518 l -0.26213,29.32345 c -0.23023,25.75591 -0.49485,29.55607 -2.17502,31.23553 -1.05209,1.05165 -2.26052,3.05885 -2.68539,4.46045 -0.86432,2.8513 -6.84438,8.89666 -7.82778,7.91326 -0.34829,-0.34829 -0.63325,-0.0715 -0.63325,0.61507 0,1.14526 -4.96965,3.44913 -5.21954,2.41971 -0.0601,-0.24779 -0.91317,0.21658 -1.89561,1.03193 -1.98911,1.65081 -16.40514,1.66902 -17.42305,0.022 z"
     id="path6651"
     inkscape:connector-curvature="0" />
  <path
     style="fill:#ff0000;fill-opacity:0.01829266;stroke:#ff0000;stroke-width:0.56779659;stroke-miterlimit:4;stroke-dasharray:none;stroke-opacity:1"
     d="m 149.45229,171.58139 v -10.36684 l 6.24577,-6.00118 c 3.43517,-3.30064 6.24576,-6.48171 6.24576,-7.06903 0,-0.58733 1.28587,-2.45534 2.8575,-4.15115 1.57162,-1.69581 2.56349,-3.55899 2.20416,-4.1404 -0.35933,-0.58141 -0.082,-1.05711 0.61631,-1.05711 0.69829,0 0.9538,-0.51102 0.56779,-1.13559 -0.38601,-0.62458 -0.0755,-1.1356 0.69005,-1.1356 0.76553,0 1.10934,-0.28253 0.76402,-0.62785 -0.34532,-0.34532 0.092,-3.01958 0.97172,-5.9428 0.87976,-2.92323 1.68397,-9.28392 1.78714,-14.13486 l 0.18757,-8.81991 h 8.70788 8.70787 l 0.66306,8.7672 c 0.41222,5.45041 0.21135,9.31148 -0.53093,10.20588 -0.6567,0.79127 -0.89735,2.21171 -0.53479,3.15653 0.36256,0.94481 0.10955,1.71785 -0.56225,1.71785 -0.6718,0 -0.9512,0.70425 -0.6209,1.56501 0.33031,0.86076 0.16004,2.01054 -0.37837,2.55508 -0.5384,0.54454 -1.21937,2.26762 -1.51325,3.82906 -0.79287,4.21258 -2.01758,7.06624 -4.32173,10.06991 -1.13433,1.47871 -1.78371,3.13952 -1.44307,3.69068 0.34064,0.55117 0.0782,1.00212 -0.58327,1.00212 -0.66144,0 -1.20261,0.69684 -1.20261,1.54854 0,0.85169 -1.34723,2.89576 -2.99384,4.54237 -1.64661,1.64661 -2.60607,2.99384 -2.13214,2.99384 0.47394,0 0.23021,0.7609 -0.54161,1.69088 -0.77182,0.92999 -1.86909,1.40302 -2.43837,1.05119 -0.56928,-0.35184 -0.89464,-0.14138 -0.72303,0.46769 0.3562,1.26412 -9.31756,10.37624 -11.04389,10.40271 -0.62458,0.01 -2.62038,1.29434 -4.43511,2.85502 -1.81473,1.56067 -3.73104,2.83759 -4.25847,2.83759 -0.52743,0 -0.95897,-4.66507 -0.95897,-10.36683 z"
     id="path6653"
     inkscape:connector-curvature="0" />
  <path
     style="fill:#ff0000;fill-opacity:0.01829266;stroke:#ff0000;stroke-width:0.56779659;stroke-miterlimit:4;stroke-dasharray:none;stroke-opacity:1"
     d="m 197.14721,142.40539 c -3.82325,-0.35097 -7.8119,-2.47412 -4.648,-2.47412 0.83836,0 1.20585,-0.7254 0.84452,-1.66702 -0.35184,-0.91686 -0.17332,-1.95526 0.3967,-2.30755 0.57002,-0.3523 0.74854,-1.3907 0.3967,-2.30756 -0.35183,-0.91686 -0.0643,-1.66702 0.63903,-1.66702 0.75742,0 1.01951,-1.04165 0.64289,-2.55508 -0.50019,-2.01 0.0403,-2.8544 2.53345,-3.95807 4.12925,-1.82794 9.58097,-6.56952 8.63782,-7.51267 -0.40529,-0.40529 -0.14071,-0.73689 0.58796,-0.73689 0.74766,0 1.32486,-1.66941 1.32486,-3.83184 0,-2.77864 -1.06753,-4.99732 -3.88398,-8.07216 -2.13619,-2.33218 -4.43577,-3.8993 -5.11017,-3.4825 -0.6744,0.4168 -1.22619,0.21665 -1.22619,-0.44479 0,-0.80913 -7.9884,-1.20261 -24.41525,-1.20261 h -24.41526 v -8.516947 -8.51695 h 25.04799 c 23.98912,0 35.13846,1.145 35.13846,3.60861 0,0.58729 0.45747,0.78507 1.0166,0.43951 0.55913,-0.34556 1.33768,0.20844 1.73012,1.23111 0.39243,1.02267 1.00412,1.5688 1.3593,1.21362 0.94596,-0.94596 7.29571,5.00585 6.57854,6.16626 -0.3345,0.54123 0.1878,1.2895 1.16066,1.66282 0.97287,0.37332 1.48612,1.13624 1.14055,1.69537 -0.34556,0.55913 -0.10315,1.016597 0.53868,1.016597 0.64184,0 0.89267,0.71484 0.5574,1.58852 -0.33526,0.87369 -0.0932,1.90764 0.53783,2.29766 2.00599,1.23977 2.68656,10.20592 1.17648,15.49965 -0.78907,2.76618 -1.3444,5.41269 -1.23406,5.88112 0.11033,0.46843 -0.34057,0.85169 -1.00201,0.85169 -0.66143,0 -0.88678,0.51102 -0.50077,1.1356 0.38601,0.62457 0.14801,1.13559 -0.52889,1.13559 -0.67689,0 -1.71644,1.27754 -2.3101,2.83898 -0.59365,1.56144 -1.53336,2.83899 -2.08822,2.83899 -0.55487,0 -2.3274,1.31855 -3.93896,2.93011 -1.61156,1.61156 -3.59756,3.03123 -4.41333,3.15481 -0.81577,0.12359 -2.12199,0.62376 -2.90271,1.11149 -0.78072,0.48773 -1.98764,0.53564 -2.68204,0.10648 -0.69441,-0.42917 -1.58869,-0.33157 -1.98729,0.21688 -0.39861,0.54844 -2.51329,0.83299 -4.69931,0.63231 z"
     id="path6655"
     inkscape:connector-curvature="0" />
</svg>
