<?xml version="1.0" encoding="UTF-8" standalone="no"?>
<!-- Created with Inkscape (http://www.inkscape.org/) -->

<svg
   xmlns:dc="http://purl.org/dc/elements/1.1/"
   xmlns:cc="http://creativecommons.org/ns#"
   xmlns:rdf="http://www.w3.org/1999/02/22-rdf-syntax-ns#"
   xmlns:svg="http://www.w3.org/2000/svg"
   xmlns="http://www.w3.org/2000/svg"
   xmlns:sodipodi="http://sodipodi.sourceforge.net/DTD/sodipodi-0.dtd"
   xmlns:inkscape="http://www.inkscape.org/namespaces/inkscape"
   version="1.1"
   id="svg52"
   width="57.682308mm"
   height="57.980648mm"
   viewBox="0 0 218.01188 219.13946"
   sodipodi:docname="esoterica-shield_knot_interlaced.svg"
   inkscape:version="0.92.5 (2060ec1f9f, 2020-04-08)">
  <metadata
     id="metadata58">
    <rdf:RDF>
      <cc:Work
         rdf:about="">
        <dc:format>image/svg+xml</dc:format>
        <dc:type
           rdf:resource="http://purl.org/dc/dcmitype/StillImage" />
        <dc:title></dc:title>
      </cc:Work>
    </rdf:RDF>
  </metadata>
  <defs
     id="defs56" />
  <sodipodi:namedview
     pagecolor="#ffffff"
     bordercolor="#666666"
     borderopacity="1"
     objecttolerance="10"
     gridtolerance="10"
     guidetolerance="10"
     inkscape:pageopacity="0"
     inkscape:pageshadow="2"
     inkscape:window-width="1920"
     inkscape:window-height="997"
     id="namedview54"
     showgrid="false"
     units="mm"
     fit-margin-top="0"
     fit-margin-left="0"
     fit-margin-right="0"
     fit-margin-bottom="0"
     inkscape:zoom="0.88059701"
     inkscape:cx="109.50531"
     inkscape:cy="109.51973"
     inkscape:window-x="0"
     inkscape:window-y="28"
     inkscape:window-maximized="1"
     inkscape:current-layer="svg52" />
  <path
     style="fill:#ff0000;fill-opacity:0.01829266;stroke:#ff0000;stroke-width:0.56779659;stroke-miterlimit:4;stroke-dasharray:none;stroke-opacity:1"
     d="m 110.10492,0.28574771 c -0.47654,0.0084 -0.95945,0.04965 -1.42383,0.128906 -1.8575,0.31702 -4.52634,0.66752499 -5.93164,0.77929699 -1.4053,0.111772 -2.55664,0.62991 -2.55664,1.15039 0,0.520478 -0.637252,0.718095 -1.417972,0.439453 -1.79393,-0.640259 -7.92838,2.372264 -9.17773,4.507813 -0.51885,0.886873 -2.16483,2.0787 -3.65821,2.646484 -1.50411,0.5718603 -3.4633,2.8228373 -4.39257,5.0468753 -0.92264,2.208184 -2.24419,4.013672 -2.9375,4.013672 -0.69331,0 -0.94461,0.512143 -0.5586,1.136719 0.38601,0.624577 0.0741,1.134766 -0.6914,1.134766 -0.76553,0 -1.05551,0.337072 -0.64454,0.748047 0.41096,0.410965 0.1132,1.511131 -0.6621,2.445312 -0.880622,1.061028 -1.384905,5.149195 -1.343755,10.892578 0.05383,7.511873 0.542598,9.973818 2.667965,13.453125 1.43076,2.342161 2.16685,4.265791 1.63672,4.275391 -0.53012,0.0096 -0.19663,0.501519 0.74024,1.09375 0.93686,0.592232 1.70312,1.556225 1.70312,2.140625 0,0.5844 2.80053,3.662483 6.22266,6.841797 l 6.2207,5.78125 5.91992,-5.845704 5.917972,-5.845703 -6.179692,-6.828125 c -3.39842,-3.755378 -6.25646,-7.63452 -6.35156,-8.621093 -0.34532,-3.581186 -0.46979,-4.088435 -1.34375,-5.484375 -0.51428,-0.821442 -0.34959,-1.419922 0.39063,-1.419922 0.76236,0 0.98821,-0.917873 0.55859,-2.271485 -0.42962,-1.353613 -0.20377,-2.269531 0.55859,-2.269531 0.70353,0 0.96219,-0.512143 0.57618,-1.136719 -0.38601,-0.624576 -0.12994,-1.134765 0.56836,-1.134765 0.6983,0 0.95436,-0.512143 0.56835,-1.136719 -0.38598,-0.624577 -0.2885,-1.137725 0.2168,-1.140625 0.50529,-0.0029 2.45244,-1.430931 4.32617,-3.173828 6.597742,-6.13706 20.367062,-4.030729 24.042972,3.677734 1.02619,2.151934 2.45504,3.608699 3.24219,3.306641 0.77407,-0.297039 3.38181,0.340621 5.79687,1.416015 2.41507,1.075397 4.6467,2.019067 4.95899,2.097657 0.31229,0.07859 1.71776,0.781938 3.12305,1.5625 1.4053,0.780564 2.56226,1.01775 2.57226,0.527343 0.01,-0.490407 0.51369,-0.124363 1.11914,0.8125 0.89016,1.377429 1.10309,1.21458 1.11719,-0.851562 0.01,-1.405296 -0.55712,-2.556641 -1.25977,-2.556641 -0.81384,0 -1.02975,-1.236005 -0.5957,-3.40625 0.4212,-2.106043 0.2127,-3.40625 -0.54687,-3.40625 -0.67578,0 -0.93568,-0.766261 -0.57618,-1.703125 0.35951,-0.936865 0.12817,-1.703125 -0.51367,-1.703125 -0.64183,0 -0.85085,-0.512141 -0.46484,-1.136718 0.38601,-0.624576 0.13189,-1.134766 -0.56641,-1.134766 -0.69834,0 -0.98662,-0.457741 -0.64062,-1.017578 0.6729,-1.088785 -11.3889,-13.7195343 -13.45703,-14.0917973 -0.67888,-0.1222 -1.55963,-0.66834 -1.95704,-1.214844 -0.39739,-0.546505 -2.05698,-0.99414 -3.68945,-0.99414 -1.63247,0 -2.96875,-0.43013 -2.96875,-0.957032 0,-0.526902 -0.77199,-0.661389 -1.7168,-0.298828 -0.94482,0.36256 -2.36334,0.123561 -3.15234,-0.53125 -0.59175,-0.49111199 -1.95906,-0.76945999 -3.38867,-0.74413999 z m 2.82812,34.34765629 c -7.06106,-0.10241 -13.874572,0.207745 -13.875002,1.023437 -3.8e-4,0.729638 -0.29411,2.089913 -0.65234,3.023438 -0.40864,1.064899 1.42241,3.782895 4.914062,7.292969 5.15256,5.179747 6.10658,5.659296 12.85938,6.472656 4.01153,0.48318 8.18825,0.928987 9.28125,0.992187 1.09301,0.0632 1.98633,0.517074 1.98633,1.007813 0,0.490738 0.38508,0.831772 0.85351,0.757812 0.46843,-0.07396 1.10568,-0.03386 1.41797,0.08789 0.31229,0.121751 1.43144,0.386202 2.48633,0.589844 1.05489,0.203641 3.65822,1.698011 5.78516,3.320312 2.12695,1.622299 4.42888,2.949219 5.11523,2.949219 0.68635,0 2.04334,1.137267 3.01562,2.525391 0.97228,1.388125 1.76758,2.176776 1.76758,1.753906 0,-0.422871 1.26525,0.497676 2.8125,2.044922 1.54724,1.547246 2.80422,3.084082 2.79102,3.416015 -0.0132,0.331934 1.14738,1.580857 2.58008,2.775391 3.21418,2.679866 2.73363,2.686286 5.48437,-0.06445 1.27193,-1.271932 2.8064,-2.008649 3.4082,-1.636719 0.6018,0.37193 1.09375,0.104548 1.09375,-0.59375 0,-0.698297 0.51019,-0.952416 1.13477,-0.566406 0.62457,0.386009 1.13672,0.129933 1.13672,-0.568359 0,-0.698302 0.43619,-1.001018 0.96875,-0.671876 0.53257,0.329141 1.87739,-0.06713 2.99023,-0.880859 1.89383,-1.3848 1.81391,-1.672796 -1.25195,-4.515625 -1.80155,-1.670489 -3.28011,-3.416392 -3.28711,-3.878906 -0.0155,-1.036133 -8.78688,-9.896593 -9.81445,-9.914063 -0.40825,-0.0069 -2.07289,-1.446477 -3.69727,-3.199218 -1.62439,-1.752741 -3.40846,-2.904404 -3.96484,-2.560547 -0.55637,0.343856 -1.30567,-0.142961 -1.66602,-1.082032 -0.36036,-0.939069 -1.05324,-1.602193 -1.53906,-1.472656 -1.61921,0.431749 -5.99219,-1.486848 -5.99219,-2.628906 0,-0.619348 -0.51215,-0.809838 -1.13672,-0.423828 -0.62458,0.386009 -1.13476,0.216928 -1.13476,-0.375 0,-0.591927 -1.91761,-1.477277 -4.25977,-1.966797 -4.96139,-1.036945 -5.85853,-1.264598 -6.24414,-1.585937 -0.99617,-0.830147 -8.30613,-1.344857 -15.36719,-1.447266 z M 67.747496,46.207623 c -0.966085,0.03574 -1.889705,0.700357 -2.666016,2.033203 -0.63662,1.093009 -1.174369,1.656188 -1.19336,1.251953 -0.05667,-1.206225 -14.796874,13.711034 -14.796874,14.974609 0,0.639487 -0.763989,1.456321 -1.697266,1.814453 -0.933277,0.358132 -1.410789,1.112241 -1.0625,1.675782 0.348287,0.563542 -0.163855,1.329802 -1.136719,1.703125 -0.972865,0.373323 -1.484234,1.136181 -1.138672,1.695312 0.345561,0.55913 0.05572,1.015625 -0.642578,1.015625 -0.698298,0 -0.954369,0.512142 -0.568359,1.136719 0.38601,0.624576 0.19552,1.134762 -0.423828,1.134766 -1.193057,0 -2.686196,3.634112 -3.009766,7.324222 -0.10675,1.21741 -0.75475,2.40067 -1.439453,2.6289 -0.684702,0.22824 -0.961099,1.15141 -0.615235,2.05274 0.345875,0.90134 -0.199511,2.90168 -1.210937,4.44531 -2.020103,3.08307 -3.777594,20.991018 -2.542969,25.910158 0.459122,1.82929 1.676011,3.06192 3.283203,3.32812 1.404266,0.23258 3.575066,-0.0433 4.824219,-0.61328 3.751963,-1.71186 9.129598,-8.10116 8.699219,-10.33594 -0.259409,-1.34704 0.06179,-1.78967 0.916015,-1.26172 0.955439,0.5905 1.106588,-0.31203 0.548829,-3.28515 -0.492599,-2.62577 -0.268293,-4.70141 0.623047,-5.775388 0.765242,-0.92207 1.094982,-2.44974 0.732421,-3.39453 -0.362561,-0.94483 -0.08016,-1.71873 0.628907,-1.71876 0.70907,0 0.969599,-0.31945 0.578125,-0.71093 -0.391474,-0.39147 0.01335,-2.11472 0.90039,-3.83008 0.887048,-1.71535 1.291865,-3.44056 0.900391,-3.83203 -0.391474,-0.39147 -0.08388,-0.71094 0.68164,-0.71094 0.765535,0 1.075464,-0.5102 0.689454,-1.13476 -0.38601,-0.62458 -0.129938,-1.13672 0.568359,-1.13672 0.698298,0 0.951235,-0.51359 0.5625,-1.14258 -0.388736,-0.62899 0.08964,-1.44894 1.0625,-1.82227 0.972865,-0.37332 1.486187,-1.13813 1.140625,-1.69726 -0.345561,-0.55913 -0.07166,-1.01563 0.609375,-1.01563 0.681039,0 1.564655,-0.89331 1.964844,-1.986326 0.822023,-2.245141 10.291302,-12.131702 11.828125,-12.34961 0.550616,-0.07807 1.275116,-0.207086 1.609376,-0.285156 0.33426,-0.07807 -0.0319,-1.291967 -0.8125,-2.697266 -0.780569,-1.405297 -1.47513,-2.810758 -1.54297,-3.123046 -0.06784,-0.312288 -1.035269,-2.738139 -2.150391,-5.392578 -1.36332,-3.245267 -3.091031,-4.93262 -4.701171,-4.873047 z m 46.656254,10.861328 c -0.5262,0.01832 -1.20551,0.257219 -2.07227,0.716797 -3.45852,1.833791 -35.077282,33.793184 -34.638672,35.011714 0.19643,0.54569 2.91228,3.72907 6.03516,7.07422 l 5.67773,6.082028 10.787112,-10.710928 c 33.68403,-33.442733 32.0151,-31.576704 30.03516,-33.556644 -1.0049,-1.004901 -2.28634,-1.542224 -2.84766,-1.195312 -0.56131,0.346912 -2.1814,-0.0053 -3.59961,-0.783203 -1.4182,-0.777941 -3.67975,-1.282456 -5.02539,-1.121094 -1.34564,0.161362 -2.78156,-0.248964 -3.19141,-0.912109 -0.25979,-0.420356 -0.63396,-0.62379 -1.16015,-0.605469 z m 68.6875,17.005859 c -3.12288,0 -5.67774,0.443098 -5.67774,0.984375 0,0.541277 -1.021,0.717127 -2.26953,0.390625 -1.24853,-0.326498 -2.5619,-0.12108 -2.91797,0.455082 -0.35607,0.57612 -1.12363,0.75191 -1.70508,0.39257 -0.58141,-0.35933 -1.05664,-0.0811 -1.05664,0.61719 0,0.69829 -0.51018,0.95437 -1.13476,0.56836 -0.62458,-0.38601 -1.13672,-0.13189 -1.13672,0.56641 0,0.69829 -0.47434,0.97782 -1.05469,0.61914 -0.58035,-0.35867 -4.40029,2.69131 -8.48828,6.77929 l -7.43164,7.4336 5.76367,5.64258 c 6.3279,6.196118 8.23029,6.819948 10.10742,3.312498 1.99463,-3.726998 12.50108,-9.818928 16.89844,-9.798828 5.29122,0.0241 12.81288,4.20581 14.81641,8.236328 2.25189,4.53016 2.61585,14.79431 0.5957,16.81445 -0.86493,0.86494 -1.31173,1.83476 -0.99219,2.1543 0.31954,0.31954 -1.47662,2.04149 -3.99218,3.82617 -3.21975,2.28428 -4.39316,3.83149 -3.96485,5.23047 0.33463,1.09301 0.0317,1.98828 -0.67187,1.98828 -0.70352,0 -0.96984,0.49966 -0.5918,1.11133 0.37803,0.61167 0.044,2.27319 -0.74219,3.6914 -0.78615,1.4182 -1.29261,3.04204 -1.12695,3.60938 0.16567,0.56734 -0.30345,1.40549 -1.04102,1.86133 -0.73756,0.45584 -0.9897,1.39738 -0.56054,2.09179 1.04177,1.68561 7.78924,1.61311 9.5039,-0.10156 0.7495,-0.74949 1.3633,-0.96815 1.36328,-0.48633 0,0.48182 0.80771,0.0692 1.79493,-0.91797 0.98722,-0.98722 2.21192,-1.53905 2.7207,-1.22461 0.50877,0.31444 1.21972,-0.19569 1.58008,-1.13476 0.36035,-0.93907 1.08667,-1.576 1.61523,-1.41406 1.46838,0.44988 8.89106,-7.83401 11.49414,-12.82813 1.27278,-2.44189 2.01787,-5.21466 1.6543,-6.16211 -0.36357,-0.94745 -0.2247,-1.72265 0.31055,-1.72265 0.53526,0 0.97461,-3.32111 0.97461,-7.38086 0,-4.05974 -0.43935,-7.38282 -0.97461,-7.38282 -0.53525,0 -0.6826,-0.75593 -0.32813,-1.67968 0.35448,-0.923738 0.0138,-3.180498 -0.75781,-5.015628 -1.83074,-4.35405 -14.14154,-17.44869 -15.57227,-16.56445 -0.60828,0.37593 -1.10548,0.0566 -1.10546,-0.70899 0,-0.76557 -0.32239,-1.07019 -0.7168,-0.67578 -0.39441,0.39441 -1.79988,0.11925 -3.12305,-0.61133 -1.32318,-0.73057 -3.29957,-1.190665 -4.39258,-1.023433 -1.093,0.167233 -1.98828,-0.111448 -1.98828,-0.619141 0,-0.507691 -2.55485,-0.923828 -5.67773,-0.923828 z M 29.188902,75.365826 c -1.458317,-0.0284 -2.667845,0.234384 -2.966797,0.703126 -0.398603,0.62498 -1.291922,0.78463 -1.986328,0.35547 -0.694405,-0.42917 -1.261719,-0.20807 -1.261719,0.49023 0,0.69829 -0.512142,0.95437 -1.136719,0.56836 -0.624576,-0.38601 -1.134765,-0.16144 -1.134765,0.5 0,0.66144 -0.383131,1.14236 -0.851563,1.06836 -0.468432,-0.0739 -1.363705,-0.0744 -1.988281,0 -1.708732,0.20369 -9.6523437,7.53988 -9.6523437,8.91406 0,0.65869 -0.798939,1.50421 -1.77539,1.87891 -0.976455,0.3747 -1.457096,1.19523 -1.06836,1.82422 0.388735,0.62898 0.135798,1.14453 -0.5625,1.14453 -0.698297,0 -0.954368,0.5102 -0.568359,1.13476 0.38601,0.62458 0.271308,1.13672 -0.253907,1.13672 -0.525211,0 -1.069327,1.40546 -1.210937,3.12305 -0.141609,1.71758 -0.765574,3.291808 -1.384766,3.499998 -1.46969201,0.49416 -1.46969201,15.78318 0,16.27734 0.619192,0.20819 1.243157,1.78437 1.384766,3.50196 0.14161,1.71758 0.685726,3.12304 1.210937,3.12304 0.525212,0 0.639917,0.5102 0.253907,1.13477 -0.386009,0.62458 -0.161437,1.13672 0.5,1.13672 0.661437,0 1.203125,0.76625 1.203125,1.70312 0,0.93686 0.452175,1.70313 1.003906,1.70313 0.551731,0 1.280359,1.05996 1.619141,2.35547 0.338782,1.2955 1.6751987,2.63192 2.9707027,2.9707 1.295504,0.33878 2.355468,1.09547 2.355468,1.67969 0,0.58423 1.532523,1.59486 3.40625,2.24805 1.873728,0.65317 3.408204,1.64941 3.408204,2.21289 0,0.56348 0.38313,0.94295 0.851562,0.84375 0.468432,-0.0992 1.617823,0.11655 2.554688,0.47851 0.936864,0.36196 2.469386,0.94468 3.40625,1.29492 3.000876,1.12185 18.025085,-0.059 19.832031,-1.55859 0.959491,-0.79631 1.744141,-1.09353 1.744141,-0.66016 0,0.43338 0.807703,-0.0186 1.794921,-1.00586 0.987218,-0.98722 2.265621,-1.50528 2.839844,-1.15039 0.574223,0.35489 1.042969,0.0873 1.042969,-0.59375 0,-0.68104 0.873995,-1.57281 1.941406,-1.98242 1.067412,-0.4096 4.105395,-2.78086 6.75,-5.26953 4.155429,-3.91041 4.64104,-4.84522 3.582031,-6.88477 -1.895172,-3.64992 -11.113016,-12.16223 -12.345703,-11.40039 -0.604712,0.37374 -0.806602,1.15686 -0.447265,1.73829 0.359337,0.58141 0.156646,1.05664 -0.451172,1.05664 -0.607817,0 -2.927638,1.77126 -5.15625,3.93554 -2.228612,2.16427 -5.570091,4.71914 -7.423828,5.67774 -3.79726,1.96364 -8.025391,2.30199 -8.025391,0.64258 0,-0.60498 -0.766261,-0.80678 -1.703125,-0.44727 -0.936865,0.35951 -1.703125,0.0583 -1.703125,-0.66992 0,-0.72826 -0.51019,-1.00711 -1.134766,-0.6211 -0.624577,0.38601 -1.136718,0.0741 -1.136718,-0.6914 0,-0.76552 -0.302727,-1.08791 -0.673828,-0.7168 -0.93479,0.93479 -7.618365,-6.85704 -7.88086,-9.1875 -0.117557,-1.04368 -0.633156,-2.88792 -1.144531,-4.09961 -0.58674,-1.39028 -0.457641,-2.36048 0.347656,-2.6289 0.701866,-0.23395 1.00014,-1.14178 0.664063,-2.01758 -0.339924,-0.88582 1.195825,-3.49875 3.460937,-5.888678 2.239475,-2.36287 4.076531,-4.70955 4.082031,-5.21484 0.0054,-0.50529 0.494651,-0.6186 1.087891,-0.25195 1.421292,0.8784 3.813566,-3.66125 3.019531,-5.73047 -0.340781,-0.88806 -0.124506,-1.61521 0.480469,-1.61524 0.604974,3e-5 1.038804,-0.38313 0.964844,-0.85156 -0.07397,-0.46843 -0.03031,-1.10763 0.0957,-1.41992 0.126011,-0.31229 0.375035,-1.59068 0.554687,-2.83984 0.179652,-1.24915 0.67899,-3.10253 1.109375,-4.11914 0.611395,-1.44418 -0.03968,-1.97111 -2.976562,-2.41016 -0.516845,-0.07727 -1.031473,-0.119441 -1.517578,-0.128906 z m 97.226568,2.683596 c -1.29212,0 -11.45899,9.82554 -11.45899,11.07422 0,0.6682 9.58217,10.75119 21.29297,22.406248 19.16929,19.07805 21.32689,20.90056 21.65039,18.27148 0.19763,-1.60614 0.86638,-2.91992 1.48633,-2.91992 0.61995,0 0.83394,-0.47715 0.47461,-1.0586 -0.35934,-0.58142 -0.1133,-1.39081 0.54687,-1.79882 0.66018,-0.408 0.86938,-1.78404 0.46485,-3.0586 -0.41143,-1.2963 -0.16143,-2.67127 0.5664,-3.12109 2.66755,-1.64864 -1.08624,-6.5778 -17.55273,-23.044918 -9.21215,-9.2125 -17.07436,-16.75 -17.4707,-16.75 z m -64.623053,9.96289 c -0.747184,0.24906 -1.055561,0.94231 -0.685547,1.54101 0.370016,0.5987 -0.09445,2.25777 -1.03125,3.6875 -0.936796,1.42974 -2.045561,4.88763 -2.464843,7.683598 l -0.763672,5.08398 17.896484,17.79297 c 19.858829,19.74463 17.768709,18.90462 26.017581,10.44727 l 4.54297,-4.65625 -21.076172,-21.01758 C 72.635868,97.015832 62.539603,87.763252 61.792417,88.012312 Z m 118.781253,9.5 c -1.19128,-0.0438 -2.02344,0.38434 -2.02344,1.08984 0,0.77208 -0.28705,1.11725 -0.63672,0.76758 -0.34967,-0.34966 -2.83312,1.736698 -5.51953,4.636718 -4.96735,5.36234 -5.42584,6.87962 -6.66015,22.02344 -0.0891,1.09301 -0.45468,1.98632 -0.8125,1.98632 -0.35783,0 -0.73488,1.11874 -0.8379,2.48633 -0.10302,1.36759 -1.23462,3.90282 -2.51367,5.63281 -1.27904,1.73001 -2.32617,3.67632 -2.32617,4.32618 0,0.64987 -0.51018,1.18164 -1.13476,1.18164 -0.62458,0 -1.13477,0.45107 -1.13477,1.00195 0,1.19147 -13.61933,15.16165 -13.64453,13.99609 -0.01,-0.44157 -0.49772,-0.0444 -1.08399,0.88282 -0.74456,1.17757 -0.4376,2.37591 1.01954,3.97461 3.24726,3.56271 5.81393,9.33853 5.04296,11.34765 -0.76499,1.99355 1.81171,2.01377 3.23047,0.0254 0.44565,-0.62457 1.28799,-1.13476 1.87305,-1.13476 1.55195,0 14.94283,-12.1002 14.38672,-13 -0.25895,-0.41898 1.03358,-2.18181 2.87305,-3.91797 1.83947,-1.73616 3.05566,-3.62565 2.70117,-4.19922 -0.35449,-0.57358 0.15018,-1.34934 1.12304,-1.72266 0.97287,-0.37332 1.52481,-1.07482 1.22461,-1.56054 -0.30019,-0.48572 0.50504,-2.22061 1.79102,-3.85547 1.28597,-1.63485 1.91806,-2.98024 1.4043,-2.99024 -0.51377,-0.01 -0.24602,-0.45486 0.5957,-0.98828 0.84171,-0.53343 1.60998,-2.31249 1.70508,-3.95508 0.0952,-1.64259 0.60928,-2.98783 1.14453,-2.98828 0.53526,-4.4e-4 0.68581,-0.75111 0.33398,-1.66797 -0.35184,-0.91686 -0.19882,-1.93856 0.33985,-2.27148 0.53866,-0.33291 0.71322,-1.62647 0.38672,-2.875 -0.3265,-1.24853 -0.0716,-2.27148 0.5664,-2.27148 0.69779,0 0.91728,-1.80853 0.55078,-4.54102 -0.40003,-2.98243 -0.168,-4.54297 0.67578,-4.54297 0.71165,0 1.28516,-1.77367 1.28516,-3.97461 0,-2.18602 -0.48149,-3.97461 -1.06836,-3.97461 -0.58688,0 -1.22608,-1.91564 -1.41992,-4.25781 -0.28311,-3.420648 -0.85386,-4.329598 -2.90625,-4.621088 -0.18344,-0.0261 -0.36107,-0.0426 -0.53125,-0.0488 z m -50.66602,15.902338 -21.10156,21.04102 c -11.606762,11.57243 -21.103512,21.38872 -21.103512,21.81445 0,0.71299 4.10241,2.7353 9.65234,4.75977 6.358352,2.31936 8.496172,0.9451 26.402342,-16.97657 9.52479,-9.53304 17.31836,-17.80065 17.31836,-18.37304 0,-0.57239 -2.5132,-3.56731 -5.58398,-6.6543 z m -70.203123,29.9336 c -1.539322,0.0468 -3.137495,0.72632 -3.925781,1.95117 -0.38212,0.59374 -1.14838,1.04902 -1.703126,1.01172 -0.554744,-0.0373 -2.671218,0.53479 -4.703124,1.26953 -2.984033,1.07904 -3.555511,1.78169 -2.972657,3.66015 0.39688,1.27909 1.165014,2.49689 1.707031,2.70508 0.542018,0.20819 0.984376,0.76569 0.984376,1.23828 -10e-7,1.10475 13.72147,14.84961 14.824218,14.84961 0.457822,0 1.138972,0.79893 1.513672,1.77539 0.3747,0.97645 1.117945,1.5041 1.652344,1.17383 0.5344,-0.33028 2.070321,0.42389 3.414062,1.67578 1.343741,1.25188 2.44336,1.96522 2.44336,1.58399 0,-0.38124 0.807704,0.11434 1.794922,1.10156 0.987224,0.98722 2.265624,1.50333 2.839844,1.14844 0.57423,-0.35489 1.04297,-0.21213 1.04297,0.3164 0,0.52852 1.14301,1.04719 2.53906,1.15235 1.39605,0.10516 2.70636,0.69526 2.91211,1.3125 0.20575,0.61724 1.1074,0.84206 2.00391,0.49804 0.89651,-0.34403 1.63086,-0.029 1.63086,0.69922 0,0.72826 0.5336,0.99277 1.18554,0.58985 0.65193,-0.40292 1.80133,-0.22269 2.55469,0.40039 0.75336,0.62308 2.90166,1.35688 4.77539,1.63086 1.87373,0.27397 8.043662,0.57632 13.708992,0.66992 l 10.29882,0.16992 -0.0664,-3.97461 c -0.0371,-2.18602 -0.47368,-3.97461 -0.96875,-3.97461 -0.49507,0 -1.21385,-0.89527 -1.59961,-1.98828 -1.44766,-4.10184 -5.25174,-7.09766 -9.01172,-7.09766 -2.04028,0 -4.01171,-0.48863 -4.38086,-1.08593 -0.36915,-0.5973 -1.42871,-0.79435 -2.35352,-0.43946 -0.92482,0.35488 -2.452472,0.004 -3.396482,-0.77929 -0.944,-0.78387 -2.00681,-1.13578 -2.36133,-0.78125 -0.35453,0.35452 -2.85093,-0.29946 -5.54687,-1.45508 -2.69594,-1.15561 -5.20461,-1.7993 -5.57422,-1.42969 -0.36962,0.36962 -0.67188,0.0448 -0.67188,-0.7207 0,-0.76554 -0.51019,-1.07547 -1.13476,-0.68946 -0.62458,0.38601 -1.13477,0.16144 -1.13477,-0.5 0,-0.66143 -0.48133,-1.07607 -1.06836,-0.91992 -1.88793,0.50217 -12.737979,-8.82583 -18.042967,-15.51172 -0.577482,-0.7278 -1.523013,-1.12381 -2.554687,-1.21679 -0.214933,-0.0194 -0.434394,-0.0262 -0.654297,-0.0195 z m 66.234373,7.25781 -6.04687,5.97265 -6.04883,5.97266 3.11133,3.43945 c 1.71126,1.89137 3.62347,3.812 4.24805,4.26758 0.62458,0.45559 1.13476,1.37674 1.13476,2.04688 0,0.67013 0.51214,1.58169 1.13672,2.02734 1.69429,1.20893 2.15576,3.55223 2.05273,10.41992 -0.052,3.46581 -0.65127,6.38962 -1.35742,6.625 -0.69512,0.23171 -1.26367,0.92583 -1.26367,1.54297 0,1.64627 -2.58443,3.9527 -5.44727,4.86133 -1.37617,0.43678 -2.50195,1.21234 -2.50195,1.72266 0,0.51031 -2.55485,0.88889 -5.67773,0.84179 -3.12288,-0.0471 -5.67774,-0.49861 -5.67774,-1.0039 0,-0.5053 -0.63981,-0.91993 -1.42187,-0.91993 -0.78206,0 -3.892212,-2.29878 -6.910162,-5.10937 -3.01794,-2.81059 -6.21138,-5.17385 -7.0957,-5.25195 -1.8285,-0.16143 -3.74259,-0.59767 -4.16211,-0.94727 -0.15614,-0.13012 -1.30554,-0.38285 -2.55469,-0.5625 -1.24916,-0.17965 -3.14408,-0.69486 -4.21094,-1.14453 -3.564254,-1.50228 -3.804739,4.31171 -0.44335,10.74023 1.63442,3.1258 2.58381,5.69885 2.10937,5.71875 -0.47444,0.0199 0.10359,0.76713 1.2832,1.66016 1.17962,0.89304 2.71214,2.73652 3.40625,4.0957 0.69412,1.35919 1.7265,2.35492 2.29492,2.21289 0.56844,-0.14203 1.48932,0.55406 2.04493,1.54688 0.55562,0.99283 2.02204,1.80469 3.25976,1.80469 1.23772,0 2.53259,0.73343 2.87696,1.63086 0.34438,0.89742 1.34919,1.35334 2.23437,1.01367 0.88517,-0.33968 1.60938,-0.0997 1.60938,0.5332 0,0.63295 1.02232,0.88525 2.271482,0.55859 1.2698,-0.33206 2.27148,-0.0351 2.27148,0.67383 0,1.54536 10.52314,1.72369 13.35938,0.22656 3.35952,-1.77334 9.87632,-4.05526 10.77148,-3.77148 0.46843,0.14851 0.85157,-0.24065 0.85157,-0.86523 0,-0.62457 0.5318,-1.13672 1.17968,-1.13672 1.51394,0 11.26987,-10.00907 11.44727,-11.74414 0.074,-0.7234 0.074,-1.69759 0,-2.16602 -0.074,-0.46843 0.40692,-0.85156 1.06836,-0.85156 0.66144,0 0.88601,-0.51214 0.5,-1.13672 -0.38601,-0.62457 -0.12993,-1.13477 0.56836,-1.13477 0.6983,0 0.95437,-0.51019 0.56836,-1.13476 -0.38601,-0.62458 -0.33216,-1.73538 0.12109,-2.46875 1.33887,-2.16634 0.94096,-14.9258 -0.55273,-17.7168 -0.75755,-1.4155 -1.06749,-3.07387 -0.68946,-3.68555 0.37803,-0.61167 0.14582,-1.11328 -0.51562,-1.11328 -0.66144,0 -1.14236,-0.38313 -1.06836,-0.85156 0.37772,-2.39223 -0.6956,-3.95879 -7.13477,-10.41797 z"
     id="path6575"
     inkscape:connector-curvature="0" />
</svg>
