<?xml version="1.0" encoding="UTF-8" standalone="no"?>
<!-- Created with Inkscape (http://www.inkscape.org/) -->

<svg
   xmlns:dc="http://purl.org/dc/elements/1.1/"
   xmlns:cc="http://creativecommons.org/ns#"
   xmlns:rdf="http://www.w3.org/1999/02/22-rdf-syntax-ns#"
   xmlns:svg="http://www.w3.org/2000/svg"
   xmlns="http://www.w3.org/2000/svg"
   xmlns:sodipodi="http://sodipodi.sourceforge.net/DTD/sodipodi-0.dtd"
   xmlns:inkscape="http://www.inkscape.org/namespaces/inkscape"
   version="1.1"
   id="svg22"
   width="58.400547mm"
   height="58.138824mm"
   viewBox="0 0 220.72648 219.73729"
   sodipodi:docname="esoterica-infinite_x.svg"
   inkscape:version="0.92.5 (2060ec1f9f, 2020-04-08)">
  <metadata
     id="metadata28">
    <rdf:RDF>
      <cc:Work
         rdf:about="">
        <dc:format>image/svg+xml</dc:format>
        <dc:type
           rdf:resource="http://purl.org/dc/dcmitype/StillImage" />
        <dc:title></dc:title>
      </cc:Work>
    </rdf:RDF>
  </metadata>
  <defs
     id="defs26" />
  <sodipodi:namedview
     pagecolor="#ffffff"
     bordercolor="#666666"
     borderopacity="1"
     objecttolerance="10"
     gridtolerance="10"
     guidetolerance="10"
     inkscape:pageopacity="0"
     inkscape:pageshadow="2"
     inkscape:window-width="1920"
     inkscape:window-height="997"
     id="namedview24"
     showgrid="false"
     units="mm"
     fit-margin-top="0"
     fit-margin-left="0"
     fit-margin-right="0"
     fit-margin-bottom="0"
     inkscape:zoom="0.88059701"
     inkscape:cx="110.66356"
     inkscape:cy="109.52797"
     inkscape:window-x="0"
     inkscape:window-y="28"
     inkscape:window-maximized="1"
     inkscape:current-layer="svg22" />
  <path
     style="fill:#ff0000;fill-opacity:0.01829266;stroke:#ff0000;stroke-width:0.56779659;stroke-miterlimit:4;stroke-dasharray:none;stroke-opacity:1"
     d="m 0.28389829,110.71182 c 0,-43.871797 0.385416,-79.766905 0.85648001,-79.766905 0.471064,0 23.4717697,22.619574 51.1126807,50.265717 l 50.256201,50.265718 -8.828631,8.77685 -8.82862,8.77685 L 56.487486,120.6485 C 40.887001,105.03864 27.480363,92.266952 26.694958,92.266952 c -1.08553,0 -1.428009,4.2214 -1.428009,17.601688 0,10.13938 0.44935,17.6017 1.0599,17.6017 0.582946,0 3.72861,-2.59941 6.990367,-5.77646 l 5.930466,-5.77645 8.907895,8.90789 8.907897,8.9079 -28.389789,28.37276 -28.38978671,28.37275 z"
     id="path6703"
     inkscape:connector-curvature="0" />
  <path
     style="fill:#ff0000;fill-opacity:0.01829266;stroke:#ff0000;stroke-width:0.56779659;stroke-miterlimit:4;stroke-dasharray:none;stroke-opacity:1"
     d="m 77.759709,95.363122 c -4.512541,-4.54286 -8.204625,-8.6079 -8.204625,-9.03342 0,-0.42552 13.276025,-14.008452 29.502285,-30.184294 16.226251,-16.175841 29.172011,-29.740885 28.768361,-30.14454 -1.01141,-1.011404 -35.558781,-0.931671 -35.558781,0.08207 0,0.448792 2.67201,3.521603 5.9378,6.828469 l 5.937791,6.012483 -8.779921,8.779924 -8.77993,8.779926 L 58.482773,28.383818 30.382854,0.28389829 h 80.051776 80.05178 L 138.82627,51.95339 c -28.41307,28.418222 -51.930531,51.66949 -52.261031,51.66949 -0.33049,0 -4.29298,-3.716888 -8.80553,-8.259758 z"
     id="path6705"
     inkscape:connector-curvature="0" />
  <path
     style="fill:#ff0000;fill-opacity:0.01829266;stroke:#ff0000;stroke-width:0.56779659;stroke-miterlimit:4;stroke-dasharray:none;stroke-opacity:1"
     d="m 168.05673,137.96411 -51.96445,-51.974208 8.82854,-8.77676 8.82854,-8.776762 29.50061,29.516982 c 16.22533,16.234338 30.14306,29.516978 30.92828,29.516978 1.88591,0 2.07011,-33.536718 0.19058,-34.698328 -0.6804,-0.42051 -3.84986,1.86192 -7.04323,5.07208 l -5.80613,5.836648 -8.86424,-8.812248 -8.86424,-8.81225 28.1151,-28.13255 28.1151,-28.132548 0.29833,39.671455 c 0.16408,21.819303 0.16408,57.852411 0,80.073591 l -0.29833,40.40213 z"
     id="path6707"
     inkscape:connector-curvature="0" />
  <path
     style="fill:#ff0000;fill-opacity:0.01829266;stroke:#ff0000;stroke-width:0.56779659;stroke-miterlimit:4;stroke-dasharray:none;stroke-opacity:1"
     d="m 82.290659,167.54295 51.910431,-51.91043 8.84225,9.00423 8.84225,9.00424 -29.80932,29.67053 c -16.39513,16.31879 -29.809321,30.0054 -29.809321,30.41468 0,0.40927 8.176271,0.74414 18.169491,0.74414 9.99322,0 18.16949,-0.40248 18.16949,-0.89439 0,-0.49191 -2.55508,-3.41105 -5.67796,-6.48697 -3.12288,-3.07592 -5.67797,-5.89175 -5.67797,-6.2574 0,-0.94568 15.90792,-17.02226 16.84368,-17.02226 0.42647,0 13.28749,12.51992 28.58005,27.82203 l 27.80465,27.82204 H 110.4293 30.380221 Z"
     id="path6709"
     inkscape:connector-curvature="0" />
</svg>
