<?xml version="1.0" encoding="UTF-8" standalone="no"?>
<!-- Created with Inkscape (http://www.inkscape.org/) -->

<svg
   xmlns:dc="http://purl.org/dc/elements/1.1/"
   xmlns:cc="http://creativecommons.org/ns#"
   xmlns:rdf="http://www.w3.org/1999/02/22-rdf-syntax-ns#"
   xmlns:svg="http://www.w3.org/2000/svg"
   xmlns="http://www.w3.org/2000/svg"
   xmlns:sodipodi="http://sodipodi.sourceforge.net/DTD/sodipodi-0.dtd"
   xmlns:inkscape="http://www.inkscape.org/namespaces/inkscape"
   version="1.1"
   id="svg62"
   width="59.856113mm"
   height="59.903461mm"
   viewBox="0 0 226.22783 226.40679"
   sodipodi:docname="esoterica-arevakhach_spiral.svg"
   inkscape:version="0.92.5 (2060ec1f9f, 2020-04-08)">
  <metadata
     id="metadata68">
    <rdf:RDF>
      <cc:Work
         rdf:about="">
        <dc:format>image/svg+xml</dc:format>
        <dc:type
           rdf:resource="http://purl.org/dc/dcmitype/StillImage" />
        <dc:title></dc:title>
      </cc:Work>
    </rdf:RDF>
  </metadata>
  <defs
     id="defs66" />
  <sodipodi:namedview
     pagecolor="#ffffff"
     bordercolor="#666666"
     borderopacity="1"
     objecttolerance="10"
     gridtolerance="10"
     guidetolerance="10"
     inkscape:pageopacity="0"
     inkscape:pageshadow="2"
     inkscape:window-width="1920"
     inkscape:window-height="997"
     id="namedview64"
     showgrid="false"
     units="mm"
     fit-margin-top="0"
     fit-margin-left="0"
     fit-margin-right="0"
     fit-margin-bottom="0"
     inkscape:zoom="0.88059701"
     inkscape:cx="113.40861"
     inkscape:cy="112.87655"
     inkscape:window-x="0"
     inkscape:window-y="28"
     inkscape:window-maximized="1"
     inkscape:current-layer="svg62" />
  <path
     style="fill:#000000;fill-opacity:0;stroke:#ff0000;stroke-width:0.56779659;stroke-miterlimit:4;stroke-dasharray:none;stroke-opacity:1"
     d="m 95.011996,223.52818 c -4.84146,-1.43886 -11.45963,-4.53464 -15.3358,-7.17362 -4.061728,-2.7653 -8.88294,-4.98759 -11.923726,-5.4961 -26.128478,-4.36949 -46.506198,-24.02093 -51.820941,-49.97398 -0.895318,-4.37204 -2.630253,-9.2267 -3.855413,-10.78814 -3.2460527,-4.13703 -7.2898987,-12.15901 -9.7316097,-19.30508 -1.58528895,-4.63962 -2.11411495,-9.31206 -2.05642095,-18.16949 0.06594,-10.1232 0.541173,-13.124088 3.14715195,-19.872888 1.688217,-4.37203 4.812255,-10.50423 6.9423077,-13.627115 2.517434,-3.690823 4.4606,-8.459966 5.552307,-13.627118 2.777853,-13.147828 7.690539,-22.330912 16.948464,-31.681076 9.509766,-9.604514 18.527528,-14.54291 31.463218,-17.230202 4.679128,-0.972053 9.278281,-2.42871 10.220339,-3.237015 4.943853,-4.2419252 17.019923,-10.0067242 24.067613,-11.4892522 18.846504,-3.964482 36.718524,-0.390228 50.809404,10.1614482 2.14116,1.603358 5.71828,3.226215 7.94916,3.606348 15.06726,2.567402 27.80771,8.994962 37.22927,18.782172 6.46364,6.714481 13.24959,20.181143 15.09013,29.946175 1.07769,5.717739 2.70236,9.708948 5.79858,14.244911 6.14072,8.996154 8.61613,15.454024 9.83429,25.655742 2.07633,17.38858 -1.12758,30.89316 -10.59428,44.65533 -2.14694,3.12111 -3.90353,6.37183 -3.90353,7.22385 0,0.85201 -0.96898,5.33779 -2.1533,9.96843 -5.62164,21.98041 -22.98198,38.24482 -46.78042,43.82726 -5.66798,1.32954 -10.82259,3.54378 -15.7951,6.78499 -14.34362,9.34953 -33.82875,11.94788 -51.101694,6.81442 z m 27.956074,-16.86905 c 0.45973,-0.74386 0.28133,-1.53732 -0.39646,-1.76326 -3.26698,-1.08899 -12.55797,-8.12761 -17.41566,-13.19365 -3.00919,-3.13827 -7.610694,-9.99152 -10.338464,-15.39759 l -4.91566,-9.74219 v -15.33051 c 0,-8.43177 0.46789,-17.09508 1.03976,-19.25178 l 1.03977,-3.92127 -3.65967,2.31714 c -5.42812,3.43685 -12.144832,12.13434 -15.045072,19.48195 -3.576982,9.06209 -3.547225,22.09572 0.07184,31.46719 3.67148,9.50717 14.960152,20.59188 24.502522,24.05979 7.746714,2.81532 23.665524,3.62288 25.117094,1.27418 z m 45.25607,-18.0208 c 4.95665,-2.44015 9.49633,-5.86466 13.32231,-10.04968 6.46018,-7.0664 5.88421,-8.15319 -3.1194,-5.88605 -6.96109,1.75282 -20.23205,1.51135 -28.90658,-0.52598 -4.05974,-0.95347 -10.74689,-3.72953 -14.86031,-6.16902 -8.18225,-4.85249 -20.18137,-16.8513 -22.53567,-22.53507 -0.81935,-1.97809 -2.24214,-3.59653 -3.16176,-3.59653 -1.38467,0 -1.60495,1.90285 -1.28172,11.07204 0.33579,9.52541 0.85266,11.9845 3.70019,17.60426 8.1851,16.15379 23.24282,25.14199 40.60887,24.2401 6.95869,-0.36139 10.23086,-1.1987 16.23407,-4.15407 z M 55.266233,185.93799 c 0,-0.27353 -0.820157,-3.9784 -1.82257,-8.23305 -3.355141,-14.24057 -0.223711,-32.2303 7.781803,-44.70565 4.758704,-7.41569 16.762608,-18.88751 22.09484,-21.11546 5.14507,-2.14974 4.68908,-3.52333 -1.47657,-4.44793 -16.834855,-2.52454 -35.931222,7.71078 -43.936604,23.54925 -8.642581,17.09915 -5.526569,34.96738 8.630189,49.48831 4.91199,5.03834 8.728912,7.42785 8.728912,5.46453 z M 179.40478,153.48508 c 6.12166,-1.8908 8.71178,-3.54531 14.88131,-9.50591 10.05767,-9.71703 12.33207,-14.98041 12.9367,-29.93791 0.30735,-7.6031 0.061,-11.63983 -0.71051,-11.63983 -0.64959,0 -2.77851,2.79206 -4.73095,6.20458 -6.97076,12.1836 -23.98837,24.38917 -38.74865,27.79176 -7.31196,1.68557 -21.4135,1.45458 -27.75755,-0.4547 -3.03686,-0.91396 -5.72295,-1.46035 -5.96909,-1.21421 -0.24614,0.24614 0.49654,2.06205 1.6504,4.03537 2.85575,4.88385 14.27038,13.2901 20.06812,14.77907 2.60792,0.66977 5.25269,1.4054 5.87727,1.63473 3.4467,1.26557 15.97622,0.32295 22.50295,-1.69295 z M 23.306498,119.39262 c 2.229563,-5.03693 12.14846,-15.43124 19.382745,-20.311758 13.011975,-8.77837 32.210859,-12.40186 46.240903,-8.72725 8.45341,2.21404 8.35304,2.21108 8.35304,0.24641 0,-2.41787 -12.74922,-13.683963 -18.927525,-16.725678 -4.723087,-2.325278 -7.149152,-2.701729 -17.411462,-2.701729 -14.220652,0 -19.113653,1.898715 -29.374949,11.398867 -9.768564,9.04397 -15.157851,23.701318 -13.291273,36.148558 0.8724,5.81757 2.64611,6.05482 5.028521,0.67258 z m 138.215492,-1.62349 c 13.58265,-4.04119 25.08041,-15.17023 28.90874,-27.981658 5.21784,-17.46141 0.79623,-33.703192 -12.42761,-45.650147 -4.41803,-3.991424 -6.92097,-5.204696 -6.89409,-3.341829 0.007,0.468432 0.7733,3.360242 1.70339,6.426244 6.95534,22.927609 -6.71851,54.83312 -28.3444,66.13667 -5.24893,2.74354 -5.47842,3.04133 -3.47364,4.50728 2.82302,2.06423 13.43281,2.01432 20.52761,-0.0965 z M 143.63042,90.990372 c 2.60328,-2.60327 6.39881,-8.1165 8.43452,-12.251611 3.36354,-6.832304 3.69782,-8.453217 3.66319,-17.762607 -0.0333,-8.939573 -0.45794,-11.111952 -3.33472,-17.057776 -6.89648,-14.253857 -19.68757,-23.596309 -34.41399,-25.135524 -6.90923,-0.722158 -15.02556,0.1557 -15.00952,1.623421 0.005,0.440131 2.14819,2.02244 4.76306,3.516241 10.81537,6.178516 21.67515,19.300992 25.99559,31.41193 3.15914,8.855615 4.10563,27.040906 1.84292,35.408956 -0.88394,3.26902 -1.36145,6.18939 -1.06112,6.48971 0.92609,0.92609 4.17544,-1.2981 9.12007,-6.24274 z m -25.46026,-6.28352 c 1.49703,-3.9012 0.58595,-15.504765 -1.78433,-22.725127 -2.63241,-8.018869 -10.08236,-17.515876 -17.182694,-21.90404 -15.14758,-9.36155 -36.671042,-8.109161 -49.848823,2.900562 -5.397121,4.509167 -10.17807,10.4994 -9.393286,11.769207 0.284703,0.46066 2.695057,0.08286 5.35634,-0.839535 3.500238,-1.213186 8.480878,-1.570283 18.00564,-1.290946 13.129806,0.385061 13.197069,0.40132 23.847459,5.764302 5.87428,2.957983 12.21356,6.814028 14.087294,8.568989 4.76471,4.462689 11.58476,13.024068 13.20122,16.571818 1.5505,3.40297 2.71707,3.77539 3.71118,1.18477 z"
     id="path5283"
     inkscape:connector-curvature="0" />
</svg>
