<?xml version="1.0" encoding="UTF-8" standalone="no"?>
<!-- Created with Inkscape (http://www.inkscape.org/) -->

<svg
   xmlns:dc="http://purl.org/dc/elements/1.1/"
   xmlns:cc="http://creativecommons.org/ns#"
   xmlns:rdf="http://www.w3.org/1999/02/22-rdf-syntax-ns#"
   xmlns:svg="http://www.w3.org/2000/svg"
   xmlns="http://www.w3.org/2000/svg"
   xmlns:sodipodi="http://sodipodi.sourceforge.net/DTD/sodipodi-0.dtd"
   xmlns:inkscape="http://www.inkscape.org/namespaces/inkscape"
   version="1.1"
   id="svg52"
   width="61.666126mm"
   height="60.781006mm"
   viewBox="0 0 233.06883 229.72349"
   sodipodi:docname="esoterica-baal.svg"
   inkscape:version="0.92.5 (2060ec1f9f, 2020-04-08)">
  <metadata
     id="metadata58">
    <rdf:RDF>
      <cc:Work
         rdf:about="">
        <dc:format>image/svg+xml</dc:format>
        <dc:type
           rdf:resource="http://purl.org/dc/dcmitype/StillImage" />
        <dc:title></dc:title>
      </cc:Work>
    </rdf:RDF>
  </metadata>
  <defs
     id="defs56" />
  <sodipodi:namedview
     pagecolor="#ffffff"
     bordercolor="#666666"
     borderopacity="1"
     objecttolerance="10"
     gridtolerance="10"
     guidetolerance="10"
     inkscape:pageopacity="0"
     inkscape:pageshadow="2"
     inkscape:window-width="1920"
     inkscape:window-height="997"
     id="namedview54"
     showgrid="false"
     units="mm"
     fit-margin-top="0"
     fit-margin-left="0"
     fit-margin-right="0"
     fit-margin-bottom="0"
     inkscape:zoom="0.88059701"
     inkscape:cx="117.23954"
     inkscape:cy="115.10361"
     inkscape:window-x="0"
     inkscape:window-y="28"
     inkscape:window-maximized="1"
     inkscape:current-layer="svg52" />
  <path
     style="fill:#000000;fill-opacity:0;stroke:#ff0000;stroke-width:0.56779659;stroke-miterlimit:4;stroke-dasharray:none;stroke-opacity:1"
     d="m 115.98954,0.285885 c -4.47309,0.04034 -8.9722,0.694003 -15.06836,1.976562 -17.673928,3.718381 -35.45742,16.538008 -45.146482,32.544922 -9.762705,16.128576 -12.319266,38.644055 -6.498047,57.21484 3.411715,10.884031 7.898536,18.515991 15.933594,27.095711 3.077363,3.28595 5.761614,5.80871 5.964844,5.60547 0.203229,-0.20323 -1.184653,-4.07247 -3.085938,-8.59766 -6.118533,-14.56256 -5.555915,-28.218311 1.804688,-43.777345 3.449553,-7.291756 12.737909,-17.232832 20.148433,-21.564454 15.588078,-9.111584 38.062608,-8.831487 53.871098,0.669922 22.0246,13.237483 31.40405,43.046006 20.67969,65.722657 -1.8412,3.89324 -3.15382,7.27199 -2.91602,7.50977 0.7644,0.7644 9.40164,-8.21704 12.85547,-13.36719 C 190.63472,87.308329 191.19539,56.559751 175.9661,32.54565 166.642,17.843091 148.28556,5.39897 130.8997,1.992916 124.90941,0.819362 120.46263,0.245543 115.98954,0.285885 Z M 46.807901,19.45776 c -2.017128,0 -17.759651,15.632543 -23.429687,23.265625 -17.5469988,23.62202 -24.4713118,47.443584 -22.87109382,78.697265 0.60295302,11.77621 1.34789902,15.85432 4.76171902,26.11914 6.9682438,20.95243 16.1037088,35.4403 31.8671868,50.53516 15.405857,14.75243 36.047615,25.13765 59.054686,29.71094 4.269238,0.84863 12.906158,1.58973 19.193358,1.64843 46.30877,0.43229 87.30047,-25.77586 107.40039,-68.66797 9.87724,-21.07748 12.66797,-49.02028 7.33594,-73.441401 C 226.70467,71.680615 219.14477,54.929054 210.16532,43.112057 204.4702,35.61725 188.10176,19.45776 186.20634,19.45776 c -0.54018,0 0.59222,2.331705 2.51562,5.18164 4.4089,6.532733 10.84202,22.209256 12.32617,30.035157 1.657,8.73735 1.35364,26.730882 -0.58984,34.974612 -3.66895,15.562611 -11.89425,30.391061 -23.11328,41.664061 -8.62549,8.66698 -12.52859,11.42027 -24.11524,17.01367 -16.65241,8.03886 -32.54878,10.15748 -52.11523,6.94336 C 70.769153,150.28553 44.737654,127.45552 34.952433,97.244869 31.52498,86.663039 31.280124,84.844799 31.341104,70.559322 c 0.05972,-13.989397 0.369573,-16.243892 3.550782,-25.775391 1.917398,-5.744886 5.601096,-13.794529 8.185547,-17.886718 2.58445,-4.092189 4.262923,-7.439453 3.730468,-7.439453 z m 69.669919,39.876953 c -25.638898,0.03815 -44.154473,24.415436 -34.52734,50.642577 3.184762,8.67622 12.765582,18.29993 20.86718,20.95899 7.40708,2.4311 19.0367,2.54261 26.73047,0.25781 4.87094,-1.44652 7.57254,-3.28848 13.11719,-8.94336 9.17575,-9.35819 11.05452,-14.27532 10.49024,-27.462891 -0.53158,-12.42327 -2.53561,-16.915523 -11.38477,-25.521486 -5.50092,-5.349743 -7.79374,-6.731126 -13.93164,-8.392578 -3.8922,-1.053568 -7.69863,-1.544512 -11.36133,-1.539062 z m 85.25781,83.218747 c 0.32799,-0.0173 0.39298,0.5408 0.40821,1.58008 0.0839,5.72947 -11.54314,24.27459 -21.10742,33.66602 -12.49084,12.26508 -29.67702,21.48601 -46.81836,25.11914 -9.33239,1.97802 -26.85464,1.96008 -35.943358,-0.0371 -22.326927,-4.90618 -44.199053,-19.47226 -57.164066,-38.06836 -4.342858,-6.22909 -11.59866,-21.13766 -10.716797,-22.01953 0.35158,-0.35158 3.760122,2.38787 7.574219,6.08789 14.844514,14.40054 26.361089,21.47511 45.544924,27.97851 l 12.49023,4.23438 20.441408,0.0332 20.4414,0.0352 12.49024,-4.2793 c 19.24713,-6.59175 39.89904,-19.65213 49.33984,-31.20312 1.74206,-2.13145 2.59784,-3.10473 3.01953,-3.12696 z"
     id="path5323"
     inkscape:connector-curvature="0" />
</svg>
