<?xml version="1.0" encoding="UTF-8" standalone="no"?>
<!-- Created with Inkscape (http://www.inkscape.org/) -->

<svg
   xmlns:dc="http://purl.org/dc/elements/1.1/"
   xmlns:cc="http://creativecommons.org/ns#"
   xmlns:rdf="http://www.w3.org/1999/02/22-rdf-syntax-ns#"
   xmlns:svg="http://www.w3.org/2000/svg"
   xmlns="http://www.w3.org/2000/svg"
   xmlns:sodipodi="http://sodipodi.sourceforge.net/DTD/sodipodi-0.dtd"
   xmlns:inkscape="http://www.inkscape.org/namespaces/inkscape"
   version="1.1"
   id="svg52"
   width="62.966396mm"
   height="54.543282mm"
   viewBox="0 0 237.98323 206.14784"
   sodipodi:docname="hermetica-south_node.svg"
   inkscape:version="0.92.5 (2060ec1f9f, 2020-04-08)">
  <metadata
     id="metadata58">
    <rdf:RDF>
      <cc:Work
         rdf:about="">
        <dc:format>image/svg+xml</dc:format>
        <dc:type
           rdf:resource="http://purl.org/dc/dcmitype/StillImage" />
        <dc:title></dc:title>
      </cc:Work>
    </rdf:RDF>
  </metadata>
  <defs
     id="defs56" />
  <sodipodi:namedview
     pagecolor="#ffffff"
     bordercolor="#666666"
     borderopacity="1"
     objecttolerance="10"
     gridtolerance="10"
     guidetolerance="10"
     inkscape:pageopacity="0"
     inkscape:pageshadow="2"
     inkscape:window-width="1920"
     inkscape:window-height="997"
     id="namedview54"
     showgrid="false"
     units="mm"
     fit-margin-top="0"
     fit-margin-left="0"
     fit-margin-right="0"
     fit-margin-bottom="0"
     inkscape:zoom="0.88059701"
     inkscape:cx="474.69764"
     inkscape:cy="47.675798"
     inkscape:window-x="0"
     inkscape:window-y="28"
     inkscape:window-maximized="1"
     inkscape:current-layer="svg52" />
  <path
     style="fill:#ffff00;fill-opacity:0.01829266;stroke:#ff0000;stroke-width:0.56779659;stroke-miterlimit:4;stroke-dasharray:none;stroke-opacity:1"
     d="m 111.64849,205.6789 c -25.968569,-3.66053 -45.000029,-13.64221 -59.379749,-31.1437 -17.4496,-21.23781 -24.15192,-50.903 -17.37942,-76.923234 1.34817,-5.17974 2.14903,-9.90664 1.7797,-10.50424 -0.36934,-0.5976 -1.79115,-1.09776 -3.15959,-1.11148 -3.68143,-0.0369 -11.93141,-4.07242 -17.27218,-8.44878 C -1.0334589,63.395419 -4.8097989,38.207655 7.5023411,19.286661 12.137251,12.163843 16.650591,8.2619073 25.551931,3.6821773 c 6.10079,-3.13884601 7.51532,-3.39827901 18.52876,-3.39827901 11.65807,0 12.10084,0.09624 19.87288,4.31933301 9.71685,5.279849 15.19732,10.9943207 20.10576,20.9642197 3.39373,6.893286 3.7417,8.552786 3.7417,17.844698 0,9.105888 -0.39205,11.071973 -3.52708,17.687771 -1.93989,4.093727 -5.8434,10.051206 -8.67447,13.238836 -7.88544,8.87858 -11.62128,14.86549 -15.08457,24.17396 -2.64352,7.105114 -3.18589,10.399394 -3.27185,19.872884 -0.09,9.91492 0.32826,12.54891 3.29591,20.75737 9.35397,25.87291 32.27264,41.86103 59.626459,41.59553 8.62568,-0.0837 12.47928,-0.7101 19.22488,-3.12488 31.61819,-11.31863 48.33117,-43.57294 39.54461,-76.31698 -2.08081,-7.754354 -8.62658,-18.770934 -16.71429,-28.130254 -7.58608,-8.778821 -10.11343,-14.806343 -11.0374,-26.323166 -1.51771,-18.91791 8.16497,-35.379746 25.62558,-43.5668457 5.56195,-2.60793701 7.84131,-2.99247601 17.73798,-2.99247601 10.27116,0 12.0068,0.319471 18.16949,3.34435701 9.29967,4.564637 16.50865,11.6377277 21.11907,20.7209837 3.63378,7.159127 3.86398,8.29274 3.86398,19.027897 0,9.960744 -0.38128,12.228417 -2.99248,17.797283 -5.43452,11.590207 -16.56091,21.498617 -27.3319,24.339947 -3.12496,0.82435 -5.88571,1.70279 -6.13501,1.95209 -0.24929,0.2493 0.63959,3.47546 1.97532,7.16925 2.05561,5.684544 2.44095,9.332074 2.50906,23.749894 0.0764,16.17341 -0.0936,17.52698 -3.36562,26.79532 -12.76039,36.14497 -41.34521,58.07339 -78.78649,60.43987 -4.68432,0.29608 -10.05,0.32223 -11.92372,0.0581 z M 52.858081,59.943628 c 6.44599,-2.926139 9.38241,-7.917347 9.38786,-15.957108 0.006,-8.37783 -2.77448,-13.477821 -9.12125,-16.732283 -6.05774,-3.10625 -11.46407,-3.210954 -17.77822,-0.344307 -9.26912,4.208212 -12.6121,17.292238 -6.70055,26.225183 5.53947,8.3707 14.94467,11.015464 24.21216,6.808515 z M 205.2519,58.69654 c 13.60921,-9.858462 9.01726,-31.042275 -7.25798,-33.482899 -11.87976,-1.78148 -21.10015,5.529534 -21.92982,17.388541 -0.38036,5.436804 -0.0126,7.164119 2.22701,10.459777 6.65182,9.788383 17.96324,12.152376 26.96079,5.634581 z"
     id="path5306"
     inkscape:connector-curvature="0" />
</svg>
