<?xml version="1.0" encoding="UTF-8" standalone="no"?>
<!-- Created with Inkscape (http://www.inkscape.org/) -->

<svg
   xmlns:dc="http://purl.org/dc/elements/1.1/"
   xmlns:cc="http://creativecommons.org/ns#"
   xmlns:rdf="http://www.w3.org/1999/02/22-rdf-syntax-ns#"
   xmlns:svg="http://www.w3.org/2000/svg"
   xmlns="http://www.w3.org/2000/svg"
   xmlns:sodipodi="http://sodipodi.sourceforge.net/DTD/sodipodi-0.dtd"
   xmlns:inkscape="http://www.inkscape.org/namespaces/inkscape"
   version="1.1"
   id="svg72"
   width="64.988037mm"
   height="59.161488mm"
   viewBox="0 0 245.62408 223.60247"
   sodipodi:docname="esoterica-ingush.svg"
   inkscape:version="0.92.5 (2060ec1f9f, 2020-04-08)">
  <metadata
     id="metadata78">
    <rdf:RDF>
      <cc:Work
         rdf:about="">
        <dc:format>image/svg+xml</dc:format>
        <dc:type
           rdf:resource="http://purl.org/dc/dcmitype/StillImage" />
        <dc:title></dc:title>
      </cc:Work>
    </rdf:RDF>
  </metadata>
  <defs
     id="defs76" />
  <sodipodi:namedview
     pagecolor="#ffffff"
     bordercolor="#666666"
     borderopacity="1"
     objecttolerance="10"
     gridtolerance="10"
     guidetolerance="10"
     inkscape:pageopacity="0"
     inkscape:pageshadow="2"
     inkscape:window-width="1920"
     inkscape:window-height="997"
     id="namedview74"
     showgrid="false"
     units="mm"
     fit-margin-top="0"
     fit-margin-left="0"
     fit-margin-right="0"
     fit-margin-bottom="0"
     inkscape:zoom="0.88059701"
     inkscape:cx="122.9176"
     inkscape:cy="111.77868"
     inkscape:window-x="0"
     inkscape:window-y="28"
     inkscape:window-maximized="1"
     inkscape:current-layer="svg72" />
  <path
     style="fill:#000000;fill-opacity:0;stroke:#ff0000;stroke-width:0.56779659;stroke-miterlimit:4;stroke-dasharray:none;stroke-opacity:1"
     d="M 23.893875,219.92316 C 6.4427413,210.49388 -3.5972238,187.62345 1.7060823,169.38071 4.6703483,159.184 8.3243793,152.86212 14.701664,146.89692 c 6.608107,-6.18112 18.217679,-12.13193 23.671025,-12.13325 2.029873,-4.9e-4 3.690678,-0.21943 3.690678,-0.48652 0,-0.26709 0.535966,-4.33908 1.191035,-9.04885 5.745433,-41.308138 38.653793,-70.303752 79.578078,-70.116392 5.387,0.02466 11.09395,0.370972 12.68212,0.769576 3.8391,0.963555 5.34537,-1.923247 5.34537,-10.244514 0,-9.570211 -3.99815,-15.610535 -12.75445,-19.269148 -5.57114,-2.32777 -10.61427,-2.182776 -16.4656,0.473399 l -4.80479,2.181109 -7.686726,-8.535812 c -4.2277,-4.694697 -7.83494,-8.942633 -8.01608,-9.439858 -0.39524,-1.0848972 8.954256,-7.0420552 14.524256,-9.2543372 2.51846,-1.00027599 8.1349,-1.55187799 15.33051,-1.50563899 9.98206,0.06414 12.15194,0.453653 17.93538,3.21953599 14.62934,6.9963512 24.46082,20.1334132 27.24901,36.4107662 1.18486,6.917131 0.6793,10.697376 -3.20143,23.938316 -0.51423,1.754564 0.0195,2.659458 2.13834,3.62483 4.62033,2.105162 18.23174,15.6323 23.25071,23.10676 2.56955,3.82668 6.34441,11.115818 8.38857,16.198098 3.65736,9.09305 3.71675,9.53042 3.72235,27.40999 0.006,18.13853 -0.001,18.18583 -3.93334,27.76422 -2.16648,5.2771 -6.32553,13.19786 -9.24235,17.60169 -6.02571,9.09769 -5.92554,10.28414 1.25069,14.8143 7.10831,4.48728 12.48309,4.81188 19.86597,1.19977 7.46142,-3.65054 11.94051,-10.12205 11.94051,-17.252 v -4.50299 l 10.50424,-2.51298 c 15.17849,-3.63123 14.47881,-3.89081 14.47881,5.37156 0,40.66801 -48.31209,61.2924 -77.38727,33.03657 -5.85798,-5.69293 -6.2026,-5.85659 -9.48561,-4.50488 -13.97228,5.75273 -19.65042,7.08617 -32.36441,7.60031 -15.98551,0.64645 -25.51452,-1.15575 -38.083397,-7.20264 -9.46621,-4.55418 -18.326052,-11.14783 -25.281805,-18.81517 -5.260262,-5.7984 -13.486721,-19.37761 -14.48062,-23.90281 -0.723479,-3.29397 -0.927346,-3.39245 -5.869703,-2.83537 -11.183646,1.26055 -19.014227,12.62028 -16.807607,24.38257 0.569497,3.03568 2.548067,6.00127 6.922226,10.37543 l 6.124803,6.12481 -2.743854,8.07795 c -1.509119,4.44288 -3.043934,9.48326 -3.410699,11.20084 -0.366766,1.71759 -1.040374,3.11363 -1.496907,3.10231 -0.456532,-0.0113 -3.640652,-1.5392 -7.075822,-3.39531 z M 138.48549,185.9842 c 8.65732,-2.69445 16.58765,-7.73519 23.06672,-14.66184 10.19903,-10.90359 14.47568,-21.87237 14.47568,-37.12738 0,-16.61834 -5.27717,-28.59018 -17.77069,-40.314708 -20.28526,-19.036705 -51.54592,-18.924078 -72.483209,0.26114 -5.642486,5.17032 -8.417118,8.895258 -11.928625,16.014158 -8.398191,17.02572 -8.550475,30.26973 -0.542529,47.18311 6.365515,13.44445 17.488927,23.4901 31.096763,28.08376 9.9063,3.3441 24.37978,3.58265 34.08589,0.56176 z"
     id="path5262"
     inkscape:connector-curvature="0" />
</svg>
