<?xml version="1.0" encoding="UTF-8" standalone="no"?>
<!-- Created with Inkscape (http://www.inkscape.org/) -->

<svg
   xmlns:dc="http://purl.org/dc/elements/1.1/"
   xmlns:cc="http://creativecommons.org/ns#"
   xmlns:rdf="http://www.w3.org/1999/02/22-rdf-syntax-ns#"
   xmlns:svg="http://www.w3.org/2000/svg"
   xmlns="http://www.w3.org/2000/svg"
   xmlns:sodipodi="http://sodipodi.sourceforge.net/DTD/sodipodi-0.dtd"
   xmlns:inkscape="http://www.inkscape.org/namespaces/inkscape"
   version="1.1"
   id="svg2"
   width="61.531979mm"
   height="61.537045mm"
   viewBox="0 0 232.56181 232.58096"
   sodipodi:docname="esoterica-strophalos.svg"
   inkscape:version="0.92.5 (2060ec1f9f, 2020-04-08)">
  <metadata
     id="metadata8">
    <rdf:RDF>
      <cc:Work
         rdf:about="">
        <dc:format>image/svg+xml</dc:format>
        <dc:type
           rdf:resource="http://purl.org/dc/dcmitype/StillImage" />
        <dc:title></dc:title>
      </cc:Work>
    </rdf:RDF>
  </metadata>
  <defs
     id="defs6" />
  <sodipodi:namedview
     pagecolor="#ffffff"
     bordercolor="#666666"
     borderopacity="1"
     objecttolerance="10"
     gridtolerance="10"
     guidetolerance="10"
     inkscape:pageopacity="0"
     inkscape:pageshadow="2"
     inkscape:window-width="1920"
     inkscape:window-height="997"
     id="namedview4"
     showgrid="false"
     units="mm"
     fit-margin-top="0"
     fit-margin-left="0"
     fit-margin-right="0"
     fit-margin-bottom="0"
     inkscape:zoom="0.88059701"
     inkscape:cx="116.21936"
     inkscape:cy="115.96652"
     inkscape:window-x="0"
     inkscape:window-y="28"
     inkscape:window-maximized="1"
     inkscape:current-layer="svg2" />
  <path
     style="fill:#000000;fill-opacity:0;stroke:#ff0000;stroke-width:0.56779659;stroke-miterlimit:4;stroke-dasharray:none;stroke-opacity:1"
     d="m 105.80728,128.66216 c -10.015614,-9.0485 -6.151324,-24.23051 7.07525,-27.79723 8.22777,-2.218733 17.53125,4.3966 19.63155,13.95922 0.95748,4.35938 -3.36255,12.99903 -7.87601,15.75125 -2.15758,1.31565 -5.6368,2.15763 -8.92646,2.16022 -4.59488,0.004 -6.05718,-0.5978 -9.90433,-4.07346 z"
     id="path3151"
     inkscape:connector-curvature="0" />
  <path
     style="fill:#000000;fill-opacity:0;stroke:#ff0000;stroke-width:0.56779659;stroke-miterlimit:4;stroke-dasharray:none;stroke-opacity:1"
     d="M 93.280376,231.46264 C 66.752117,224.05621 52.178963,216.20091 35.55892,200.34933 21.197058,186.65152 11.633812,171.38591 5.118879,151.75854 1.035469,139.45656 0.86168297,138.28323 0.40535897,119.93488 -0.11414603,99.046117 0.82182597,92.891507 7.15413,75.557447 20.121941,40.059346 51.659707,12.283702 89.305796,3.2056072 106.03707,-0.82902385 127.68507,-0.67127985 144.7685,3.6097502 185.61939,13.846795 218.30235,46.366176 229.172,87.590817 c 2.672,10.13391 3.07583,13.864563 3.10475,28.682943 0.0276,14.13288 -0.42089,18.87121 -2.63325,27.82204 -9.80613,39.67366 -38.49569,70.39239 -78.21631,83.74842 -11.98917,4.03135 -12.44238,4.09159 -33.16376,4.40764 -11.55466,0.17624 -22.797044,-0.17891 -24.983054,-0.78922 z m 48.701504,-26.59546 c 8.85297,-2.75068 21.12702,-8.96023 28.06446,-14.19805 7.16461,-5.40933 9.15203,-10.31155 7.03929,-17.36324 -1.55683,-5.19624 -5.27436,-8.42064 -10.93219,-9.48206 -4.24659,-0.79666 -5.1955,-0.41355 -19.61874,7.92092 -9.87866,5.70838 -15.77975,1.52038 -15.77975,-11.19888 0,-5.68655 0.37461,-6.70382 3.47078,-9.42503 14.95794,-13.14648 18.00501,-18.11357 20.29742,-33.08719 1.1164,-7.29206 5.39082,-11.95029 12.12492,-13.21362 9.7888,-1.83639 13.28352,3.20592 12.26715,17.69949 -0.51244,7.30748 -0.26183,9.05076 1.76475,12.27597 4.649,7.39865 14.61145,8.77537 21.50812,2.97219 5.06627,-4.26298 6.17017,-9.1263 5.50023,-24.23169 -1.07914,-24.331393 -10.71283,-45.878445 -27.95692,-62.529441 -9.22527,-8.907974 -23.05218,-17.705194 -30.49841,-19.404283 -9.80508,-2.237331 -17.90494,3.791603 -17.90848,13.329745 -0.002,6.360163 2.89191,9.948283 11.9243,14.782921 9.06382,4.851466 11.10278,6.758147 11.9944,11.216243 0.91181,4.558999 -3.38832,9.833684 -10.10932,12.400452 -4.72111,1.80302 -5.08558,1.77232 -12.6175,-1.06268 -12.64134,-4.75819 -17.76786,-4.882655 -29.87587,-0.725337 -9.756324,3.349857 -10.645154,3.469387 -14.334744,1.927777 -7.26388,-3.035043 -10.21242,-11.745155 -6.100413,-18.020871 1.028913,-1.570321 5.203613,-4.71897 9.277103,-6.996998 6.30453,-3.52569 7.60233,-4.79596 8.723644,-8.538562 1.73188,-5.78051 0.53691,-11.606131 -3.133594,-15.276636 -4.20602,-4.206017 -13.34212,-4.513081 -20.817044,-0.69966 -22.444226,11.45019 -39.12099,30.88806 -47.842284,55.763347 -2.204505,6.28779 -2.557999,9.664 -2.624156,25.063203 -0.0876,20.39099 0.721159,22.64396 9.244183,25.75154 4.096476,1.49362 5.182251,1.49883 9.006564,0.0433 7.090749,-2.69872 9.494831,-7.47497 9.494831,-18.86357 0,-9.06541 0.175665,-9.74763 3.319427,-12.89139 4.015433,-4.01543 10.133814,-4.45561 15.600367,-1.12234 3.982644,2.42844 4.364502,3.28329 5.936623,13.29013 1.865372,11.87344 8.930149,22.88114 18.199339,28.35659 7.937284,4.68867 7.774234,20.23655 -0.2526,24.08532 -3.96715,1.90219 -8.34859,0.56626 -16.006038,-4.88041 -9.387219,-6.67701 -16.783976,-6.42482 -22.845535,0.77893 -3.268484,3.88437 -3.76942,10.52616 -1.172643,15.54777 2.868758,5.54756 24.290862,17.74813 35.936716,20.46709 9.000914,2.10145 10.501284,2.20195 27.148754,1.81867 11.25839,-0.25919 18.40064,-0.98017 22.58286,-2.27962 z"
     id="path3153"
     inkscape:connector-curvature="0" />
</svg>
