<?xml version="1.0" encoding="UTF-8" standalone="no"?>
<!-- Created with Inkscape (http://www.inkscape.org/) -->

<svg
   xmlns:dc="http://purl.org/dc/elements/1.1/"
   xmlns:cc="http://creativecommons.org/ns#"
   xmlns:rdf="http://www.w3.org/1999/02/22-rdf-syntax-ns#"
   xmlns:svg="http://www.w3.org/2000/svg"
   xmlns="http://www.w3.org/2000/svg"
   xmlns:sodipodi="http://sodipodi.sourceforge.net/DTD/sodipodi-0.dtd"
   xmlns:inkscape="http://www.inkscape.org/namespaces/inkscape"
   version="1.1"
   id="svg42"
   width="65.969055mm"
   height="57.68449mm"
   viewBox="0 0 249.33186 218.02012"
   sodipodi:docname="esoterica-dianetics.svg"
   inkscape:version="0.92.5 (2060ec1f9f, 2020-04-08)">
  <metadata
     id="metadata48">
    <rdf:RDF>
      <cc:Work
         rdf:about="">
        <dc:format>image/svg+xml</dc:format>
        <dc:type
           rdf:resource="http://purl.org/dc/dcmitype/StillImage" />
        <dc:title></dc:title>
      </cc:Work>
    </rdf:RDF>
  </metadata>
  <defs
     id="defs46" />
  <sodipodi:namedview
     pagecolor="#ffffff"
     bordercolor="#666666"
     borderopacity="1"
     objecttolerance="10"
     gridtolerance="10"
     guidetolerance="10"
     inkscape:pageopacity="0"
     inkscape:pageshadow="2"
     inkscape:window-width="1920"
     inkscape:window-height="997"
     id="namedview44"
     showgrid="false"
     inkscape:zoom="0.88059701"
     inkscape:cx="124.28976"
     inkscape:cy="109.52804"
     inkscape:window-x="0"
     inkscape:window-y="28"
     inkscape:window-maximized="1"
     inkscape:current-layer="svg42"
     units="mm"
     fit-margin-top="0"
     fit-margin-left="0"
     fit-margin-right="0"
     fit-margin-bottom="0" />
  <path
     style="fill:#000000;fill-opacity:0;stroke:#ff0000;stroke-width:0.56779659;stroke-miterlimit:4;stroke-dasharray:none;stroke-opacity:1"
     d="m 125.38156,0.55458524 -4.12305,6.67187496 c -3.57197,5.7789248 -11.7874,20.0146988 -21.873052,37.9003908 -1.58487,2.810594 -3.2697,5.619564 -3.74414,6.24414 -0.47443,0.624576 -2.4402,4.069885 -4.36914,7.654297 l -3.507811,6.515625 4.429691,2.259766 c 5.5712,2.842217 14.545572,8.870226 15.496092,10.408206 0.39596,0.64068 4.28602,-5.008486 8.64649,-12.552738 4.36043,-7.54425 8.267,-13.712984 8.67968,-13.708984 0.77373,0.0074 1.13062,0.582258 10.76563,17.316406 5.66115,9.832296 5.74983,9.917916 8.07422,7.890626 3.30307,-2.880881 10.85566,-7.768115 14.55859,-9.421876 1.71758,-0.767088 3.12305,-1.910424 3.12305,-2.541015 0,-1.131542 -8.48792,-16.439766 -26.78516,-48.3125 z M 65.613977,71.812397 c -14.610999,0 -14.970177,0.06063 -22.75,3.890628 -30.00429,14.77106 -40.7651743,51.261405 -23.25586,78.857425 3.291077,5.18699 3.607579,5.39892 5.115235,3.4082 0.883824,-1.16701 1.622718,-2.50002 1.642578,-2.96094 0.01986,-0.46091 2.509654,-5.15266 5.533203,-10.42578 5.34801,-9.327 5.46616,-9.73448 4.376953,-15.05859 -1.593939,-7.79128 1.125478,-16.51885 7.34961,-23.58984 6.004183,-6.821115 12.883603,-9.933605 21.953124,-9.933605 10.453546,0 15.37779,2.77846 29.267578,16.517585 6.699772,6.6271 12.181642,12.39719 12.181642,12.82227 0,1.70012 -24.832731,25.05866 -28.062501,26.39648 -2.153705,0.89209 -4.598143,3.43969 -6.470703,6.74609 -1.654856,2.92199 -3.463719,6.07877 -4.021484,7.01563 -5.124646,8.60774 -8.003906,13.7791 -8.003906,14.37695 0,1.56705 15.939736,-0.74861 23.61914,-3.43164 9.776582,-3.41573 17.877704,-9.4257 30.630864,-22.72461 5.16682,-5.38793 9.77675,-9.79687 10.24414,-9.79687 0.46738,0 5.43871,4.64204 11.04687,10.31445 17.42857,17.62821 29.0005,24.1331 45.70899,25.69336 l 7.34179,0.68555 -1.42382,-2.73243 c -7.81126,-14.99718 -14.41631,-25.23351 -17.21289,-26.67968 -1.75799,-0.90909 -8.59375,-6.98572 -15.19141,-13.50391 -10.00953,-9.88894 -11.81293,-12.19191 -10.89648,-13.9043 2.50739,-4.6851 23.04368,-23.17751 28.25585,-25.443355 11.81183,-5.13488 25.61937,-2.14094 33.99219,7.371095 6.45913,7.33795 9.12981,16.16063 7.39453,24.43359 -1.2564,5.98993 -1.17801,6.40035 2.48438,13.09766 7.35546,13.45077 9.2433,16.54959 10.09961,16.55859 1.82107,0.0197 8.48774,-12.23047 10.36718,-19.05078 7.21892,-26.19656 -4.33742,-52.200735 -28.73242,-64.654305 l -8.41406,-4.294918 h -15.43359 -15.43164 l -8.84961,4.882808 c -6.41146,3.53726 -12.33711,8.31001 -21.50391,17.31836 -6.95957,6.839265 -12.99647,12.433605 -13.41406,12.433605 -0.41758,0 -6.69242,-5.83904 -13.94336,-12.976565 C 100.53876,82.968525 96.350168,79.664855 89.242883,76.152245 L 80.45968,71.812397 Z m 1.429687,32.617193 c -1.869544,-0.015 -2.600767,1.07132 -4.949218,5.04492 -1.784464,3.01933 -4.063523,7.02276 -5.066407,8.89649 -3.661877,6.84163 -19.641335,34.1516 -21.697265,37.08203 -1.163116,1.65786 -2.115235,3.32373 -2.115235,3.70117 0,0.37744 -2.892669,5.66385 -6.427734,11.74805 -3.535067,6.08419 -8.052839,13.87342 -10.039063,17.30859 -1.986224,3.43517 -6.503996,11.2244 -10.0390623,17.30859 -3.535066,6.0842 -6.42578141,11.32097 -6.42578141,11.63868 0,0.31771 55.92489571,0.57812 124.27930171,0.57812 h 124.28125 l -9.17774,-16.18164 c -5.04788,-8.90021 -12.61487,-22.31563 -16.81445,-29.81055 -4.19958,-7.49491 -14.34682,-25.34122 -22.55078,-39.6582 -8.20397,-14.31698 -14.91602,-26.50949 -14.91602,-27.0957 0,-1.34238 -7.44007,-0.009 -11.31836,2.02929 -1.58303,0.83184 -4.72748,3.4716 -6.98828,5.86524 l -4.10937,4.35156 8.50781,14.76172 c 4.67934,8.11949 9.92417,17.31853 11.65625,20.44141 1.73206,3.12288 5.17355,9.25491 7.64844,13.62695 2.47488,4.37203 6.80973,12.03854 9.63281,17.03516 2.82309,4.99661 4.90965,9.4671 4.63672,9.93554 -0.80569,1.38279 -160.221385,1.05226 -161.078128,-0.33398 -0.402985,-0.65204 0.170419,-2.56556 1.27539,-4.25196 1.10497,-1.6864 5.824292,-9.71272 10.486328,-17.83593 4.662037,-8.12321 10.264973,-17.83457 12.453126,-21.58203 2.188151,-3.74746 5.873783,-10.13557 8.189453,-14.19532 2.31567,-4.05974 5.62488,-9.84545 7.353515,-12.85742 l 3.142578,-5.47656 -3.833984,-3.98828 c -4.508141,-4.69098 -8.078485,-6.72533 -13.644531,-7.76953 -0.978447,-0.18356 -1.728381,-0.31141 -2.351563,-0.31641 z"
     id="path4765"
     inkscape:connector-curvature="0" />
</svg>
