<?xml version="1.0" encoding="UTF-8" standalone="no"?>
<!-- Created with Inkscape (http://www.inkscape.org/) -->

<svg
   xmlns:dc="http://purl.org/dc/elements/1.1/"
   xmlns:cc="http://creativecommons.org/ns#"
   xmlns:rdf="http://www.w3.org/1999/02/22-rdf-syntax-ns#"
   xmlns:svg="http://www.w3.org/2000/svg"
   xmlns="http://www.w3.org/2000/svg"
   xmlns:sodipodi="http://sodipodi.sourceforge.net/DTD/sodipodi-0.dtd"
   xmlns:inkscape="http://www.inkscape.org/namespaces/inkscape"
   version="1.1"
   id="svg82"
   width="58.260456mm"
   height="64.563988mm"
   viewBox="0 0 220.197 244.02137"
   sodipodi:docname="esoterica-awen.svg"
   inkscape:version="0.92.5 (2060ec1f9f, 2020-04-08)">
  <metadata
     id="metadata88">
    <rdf:RDF>
      <cc:Work
         rdf:about="">
        <dc:format>image/svg+xml</dc:format>
        <dc:type
           rdf:resource="http://purl.org/dc/dcmitype/StillImage" />
        <dc:title></dc:title>
      </cc:Work>
    </rdf:RDF>
  </metadata>
  <defs
     id="defs86" />
  <sodipodi:namedview
     pagecolor="#ffffff"
     bordercolor="#666666"
     borderopacity="1"
     objecttolerance="10"
     gridtolerance="10"
     guidetolerance="10"
     inkscape:pageopacity="0"
     inkscape:pageshadow="2"
     inkscape:window-width="1920"
     inkscape:window-height="997"
     id="namedview84"
     showgrid="false"
     units="mm"
     fit-margin-top="0"
     fit-margin-left="0"
     fit-margin-right="0"
     fit-margin-bottom="0"
     inkscape:zoom="0.88059701"
     inkscape:cx="109.9697"
     inkscape:cy="122.02023"
     inkscape:window-x="0"
     inkscape:window-y="28"
     inkscape:window-maximized="1"
     inkscape:current-layer="svg82" />
  <path
     style="fill:#000000;fill-opacity:0;stroke:#ff0000;stroke-width:0.56779659;stroke-miterlimit:4;stroke-dasharray:none;stroke-opacity:1"
     d="m 147.59275,0.28631114 c -0.51893,0.07372 -5.66994,1.55846696 -11.44727,3.30078196 -6.73286,2.030481 -10.5039,3.739599 -10.5039,4.757812 -1e-5,0.873707 2.30528,8.5860379 5.12304,17.1386719 2.81776,8.552633 7.25222,22.193009 9.85547,30.3125 2.60325,8.119492 5.85232,18.084785 7.2207,22.144531 2.88669,8.564305 7.97752,24.216422 25.47852,78.355472 6.96557,21.54788 14.67351,45.14701 17.12891,52.44336 2.45541,7.29635 4.46289,14.12186 4.46289,15.16797 0,1.34516 0.58281,1.67851 1.98828,1.13867 1.09301,-0.41981 5.30939,-1.69939 9.36914,-2.84375 4.05974,-1.14436 8.77435,-2.62562 10.47656,-3.29297 l 3.09375,-1.21289 -3.28516,-9.4082 c -1.80651,-5.17406 -7.20459,-21.67228 -11.99609,-36.66211 -4.79151,-14.98983 -10.42165,-32.36361 -12.51172,-38.60938 -3.56144,-10.64263 -7.27415,-22.09565 -29.44922,-90.847656 C 151.46021,7.6414711 148.76597,0.11964414 147.59275,0.28631114 Z M 70.969701,1.1456861 c -0.264187,-0.0095 -0.462716,0.0062 -0.583984,0.05274 -0.838557,0.321784 -1.525391,1.46294 -1.525391,2.535156 0,1.072216 -1.996186,7.8590089 -4.4375,15.0820309 -2.441314,7.223021 -8.385639,25.396888 -13.208984,40.386719 -4.823346,14.98983 -10.14699,31.343243 -11.830079,36.339853 -1.683089,4.996615 -5.178356,15.728155 -7.767578,23.847645 -5.939146,18.62445 -20.519474,63.40884 -27.1308593,83.33594 -2.773711,8.36013 -4.62604602,15.60207 -4.11718702,16.09375 0.508858,0.49169 4.05228802,1.69633 7.87500002,2.67773 3.8227123,0.9814 8.6675213,2.50649 10.7656243,3.38868 3.767278,1.58403 3.833568,1.56 5.291016,-1.90625 0.811693,-1.93045 2.691243,-7.63048 4.177734,-12.66797 1.486493,-5.03749 4.085204,-13.24753 5.773438,-18.24414 3.861833,-11.42974 8.176938,-24.65951 19.261719,-59.05079 4.831429,-14.98982 12.612339,-39.007775 17.291015,-53.373042 4.678676,-14.365254 10.560696,-32.50725 13.070316,-40.314453 2.50963,-7.807204 5.77835,-17.672207 7.26562,-21.923828 1.48726,-4.251623 2.70508,-8.1885279 2.70508,-8.7480469 0,-1.276362 -18.912192,-7.368619 -22.875,-7.511719 z m 25.14648,7.523438 V 126.20233 243.73749 h 12.490239 12.49219 V 126.20233 8.6691241 h -12.49219 z"
     id="path6597"
     inkscape:connector-curvature="0" />
</svg>
