<?xml version="1.0" encoding="UTF-8" standalone="no"?>
<!-- Created with Inkscape (http://www.inkscape.org/) -->

<svg
   xmlns:dc="http://purl.org/dc/elements/1.1/"
   xmlns:cc="http://creativecommons.org/ns#"
   xmlns:rdf="http://www.w3.org/1999/02/22-rdf-syntax-ns#"
   xmlns:svg="http://www.w3.org/2000/svg"
   xmlns="http://www.w3.org/2000/svg"
   xmlns:sodipodi="http://sodipodi.sourceforge.net/DTD/sodipodi-0.dtd"
   xmlns:inkscape="http://www.inkscape.org/namespaces/inkscape"
   version="1.1"
   id="svg52"
   width="54.929264mm"
   height="61.894562mm"
   viewBox="0 0 207.60667 233.9322"
   sodipodi:docname="esoterica-amenta.svg"
   inkscape:version="0.92.5 (2060ec1f9f, 2020-04-08)">
  <metadata
     id="metadata58">
    <rdf:RDF>
      <cc:Work
         rdf:about="">
        <dc:format>image/svg+xml</dc:format>
        <dc:type
           rdf:resource="http://purl.org/dc/dcmitype/StillImage" />
        <dc:title></dc:title>
      </cc:Work>
    </rdf:RDF>
  </metadata>
  <defs
     id="defs56" />
  <sodipodi:namedview
     pagecolor="#ffffff"
     bordercolor="#666666"
     borderopacity="1"
     objecttolerance="10"
     gridtolerance="10"
     guidetolerance="10"
     inkscape:pageopacity="0"
     inkscape:pageshadow="2"
     inkscape:window-width="1920"
     inkscape:window-height="997"
     id="namedview54"
     showgrid="false"
     units="mm"
     fit-margin-top="0"
     fit-margin-left="0"
     fit-margin-right="0"
     fit-margin-bottom="0"
     inkscape:zoom="0.88059701"
     inkscape:cx="104.21091"
     inkscape:cy="117.47712"
     inkscape:window-x="0"
     inkscape:window-y="28"
     inkscape:window-maximized="1"
     inkscape:current-layer="svg52" />
  <path
     style="fill:#000000;fill-opacity:0;stroke:#ff0000;stroke-width:0.56779659;stroke-miterlimit:4;stroke-dasharray:none;stroke-opacity:1"
     d="M 118.47049,156.14406 118.17871,78.63983 104.29804,78.321223 C 90.67096,78.008437 90.40571,78.04993 89.77945,80.59241 c -0.35085,1.424386 -0.49226,21.11437 -0.31424,43.75552 l 0.32367,41.16572 -12.77543,-4.7e-4 -12.775421,-4.7e-4 V 121.79237 78.072033 H 32.269875 0.30172051 l 0.686788,-11.273106 C 1.8583515,52.521103 4.2681585,43.126346 9.4570455,33.783898 17.579485,19.159669 30.883804,8.3240203 47.20413,3.0409363 55.681414,0.29673729 55.94849,0.28389829 104.55159,0.28389829 h 48.83051 l 9.186,3.15531301 c 20.75191,7.1281037 37.42876,25.4265717 43.13858,47.3332737 0.88885,3.410247 1.61609,10.947747 1.61609,16.75 V 78.072033 H 175.52616 143.72955 V 155.86016 233.6483 H 131.24591 118.76227 Z M 180.06854,51.871706 c 0,-2.247089 -5.62386,-10.841611 -9.8779,-15.095651 -2.31797,-2.317964 -7.54884,-5.85577 -11.62417,-7.861794 l -7.40968,-3.647313 H 104.00673 56.856673 l -6.776842,3.327337 c -8.590176,4.217661 -15.634807,10.688659 -18.673293,17.152761 -1.304545,2.775298 -2.371899,5.562583 -2.371899,6.193967 0,0.762055 25.386617,1.147969 75.516951,1.147969 52.96586,0 75.51695,-0.363506 75.51695,-1.217276 z"
     id="path5304"
     inkscape:connector-curvature="0" />
</svg>
