<?xml version="1.0" encoding="UTF-8" standalone="no"?>
<!-- Created with Inkscape (http://www.inkscape.org/) -->

<svg
   xmlns:dc="http://purl.org/dc/elements/1.1/"
   xmlns:cc="http://creativecommons.org/ns#"
   xmlns:rdf="http://www.w3.org/1999/02/22-rdf-syntax-ns#"
   xmlns:svg="http://www.w3.org/2000/svg"
   xmlns="http://www.w3.org/2000/svg"
   xmlns:sodipodi="http://sodipodi.sourceforge.net/DTD/sodipodi-0.dtd"
   xmlns:inkscape="http://www.inkscape.org/namespaces/inkscape"
   version="1.1"
   id="svg52"
   width="45.236942mm"
   height="59.901642mm"
   viewBox="0 0 170.97427 226.39991"
   sodipodi:docname="hermetica-lead_alt.svg"
   inkscape:version="0.92.5 (2060ec1f9f, 2020-04-08)">
  <metadata
     id="metadata58">
    <rdf:RDF>
      <cc:Work
         rdf:about="">
        <dc:format>image/svg+xml</dc:format>
        <dc:type
           rdf:resource="http://purl.org/dc/dcmitype/StillImage" />
        <dc:title></dc:title>
      </cc:Work>
    </rdf:RDF>
  </metadata>
  <defs
     id="defs56" />
  <sodipodi:namedview
     pagecolor="#ffffff"
     bordercolor="#666666"
     borderopacity="1"
     objecttolerance="10"
     gridtolerance="10"
     guidetolerance="10"
     inkscape:pageopacity="0"
     inkscape:pageshadow="2"
     inkscape:window-width="1920"
     inkscape:window-height="997"
     id="namedview54"
     showgrid="false"
     inkscape:zoom="0.88059701"
     inkscape:cx="85.748006"
     inkscape:cy="113.9194"
     inkscape:window-x="0"
     inkscape:window-y="28"
     inkscape:window-maximized="1"
     inkscape:current-layer="svg52"
     units="mm"
     fit-margin-top="0"
     fit-margin-left="0"
     fit-margin-right="0"
     fit-margin-bottom="0" />
  <path
     style="fill:#ff0000;fill-opacity:0.01829266;stroke:#ff0000;stroke-width:0.56779659;stroke-miterlimit:4;stroke-dasharray:none;stroke-opacity:1"
     d="m 53.724276,225.87031 c 0,-0.2566 2.01733,-4.48822 4.48296,-9.4036 6.96814,-13.89144 27.31365,-56.11806 27.31365,-56.68886 0,-0.28099 -19.14497,-0.5109 -42.544389,-0.5109 H 0.43210776 L 2.5195738,154.44068 C 3.6676808,151.78623 8.6967158,141.18263 13.695208,130.87712 18.6937,120.57161 26.740743,103.96356 31.577526,93.970338 36.414308,83.977118 44.720023,66.85805 50.034669,55.927966 59.222096,37.033137 63.944616,26.784317 63.944616,25.740599 c 0,-0.260507 -14.308474,-0.47365 -31.79661,-0.47365 H 0.35139576 V 12.775423 0.28389829 H 52.683316 c 28.78256,0 52.152494,0.383263 51.933184,0.85169501 -0.21931,0.468432 -4.664524,9.5389827 -9.878254,20.1567787 -5.21374,10.617797 -13.19538,26.970339 -17.73698,36.338983 C 72.459656,67 64.408356,83.608048 59.109496,94.538138 44.292209,125.10208 41.232752,131.69124 41.232752,133.03929 c 0,0.86926 8.569924,1.24461 28.416764,1.24461 h 28.41676 l 10.060034,-20.72458 10.06002,-20.724572 -20.307304,-0.30952 c -11.16901,-0.17023 -20.30729,-0.48781 -20.30729,-0.70574 0,-0.21792 2.5945,-5.82758 5.76556,-12.46591 l 5.76556,-12.06968 h 34.500504 34.50051 l -3.19012,7.097457 c -3.14841,7.004683 -24.22476,50.667655 -26.30408,54.493065 -2.87795,5.29466 -2.44271,5.40948 20.50444,5.40948 11.86695,0 21.57627,0.23973 21.57627,0.53275 0,0.29302 -2.64258,5.91421 -5.87241,12.49153 l -5.87241,11.95877 h -22.53902 -22.53902 l -13.00867,26.97034 c -7.154764,14.83369 -14.507694,29.78093 -16.339844,33.2161 l -3.33118,6.24576 -13.73178,0.31886 c -7.55247,0.17537 -13.73177,0.1089 -13.73177,-0.1477 z"
     id="path5363"
     inkscape:connector-curvature="0" />
</svg>
