<?xml version="1.0" encoding="UTF-8" standalone="no"?>
<!-- Created with Inkscape (http://www.inkscape.org/) -->

<svg
   xmlns:dc="http://purl.org/dc/elements/1.1/"
   xmlns:cc="http://creativecommons.org/ns#"
   xmlns:rdf="http://www.w3.org/1999/02/22-rdf-syntax-ns#"
   xmlns:svg="http://www.w3.org/2000/svg"
   xmlns="http://www.w3.org/2000/svg"
   xmlns:sodipodi="http://sodipodi.sourceforge.net/DTD/sodipodi-0.dtd"
   xmlns:inkscape="http://www.inkscape.org/namespaces/inkscape"
   version="1.1"
   id="svg52"
   width="61.546833mm"
   height="61.479912mm"
   viewBox="0 0 232.61795 232.36502"
   sodipodi:docname="esoterica-tide_pod.svg"
   inkscape:version="0.92.5 (2060ec1f9f, 2020-04-08)">
  <metadata
     id="metadata58">
    <rdf:RDF>
      <cc:Work
         rdf:about="">
        <dc:format>image/svg+xml</dc:format>
        <dc:type
           rdf:resource="http://purl.org/dc/dcmitype/StillImage" />
        <dc:title></dc:title>
      </cc:Work>
    </rdf:RDF>
  </metadata>
  <defs
     id="defs56" />
  <sodipodi:namedview
     pagecolor="#ffffff"
     bordercolor="#666666"
     borderopacity="1"
     objecttolerance="10"
     gridtolerance="10"
     guidetolerance="10"
     inkscape:pageopacity="0"
     inkscape:pageshadow="2"
     inkscape:window-width="1920"
     inkscape:window-height="997"
     id="namedview54"
     showgrid="false"
     units="mm"
     fit-margin-top="0"
     fit-margin-left="0"
     fit-margin-right="0"
     fit-margin-bottom="0"
     inkscape:zoom="0.88059701"
     inkscape:cx="116.24977"
     inkscape:cy="116.00577"
     inkscape:window-x="0"
     inkscape:window-y="28"
     inkscape:window-maximized="1"
     inkscape:current-layer="svg52" />
  <path
     style="fill:#000000;fill-opacity:0;stroke:#ff0000;stroke-width:0.56779659;stroke-miterlimit:4;stroke-dasharray:none;stroke-opacity:1"
     d="M 93.310793,231.20745 C 66.61434,223.75406 51.11521,215.3859 34.976238,199.71193 21.031819,186.16929 11.591155,170.91057 5.1492957,151.50335 1.0658857,139.20137 0.89209972,138.02804 0.43577572,119.67969 0.05177572,104.23947 0.33762572,99.074213 1.9440367,92.425453 12.887318,47.132486 44.025874,14.844614 87.807343,3.3929536 97.922673,0.74714758 101.84637,0.31498958 116.02265,0.28531358 c 14.23,-0.02979 18.13783,0.385738 28.77626,3.05982602 41.17819,10.3505934 74.14497,43.3973734 84.52205,84.7271334 2.58805,10.30769 3.02325,14.426487 3.01292,28.514097 -0.0142,19.34683 -2.61638,32.16134 -9.61477,47.34823 -14.28963,31.00925 -37.65925,51.93313 -70.92527,63.50258 l -12.49153,4.34438 -21.00847,0.26777 c -11.55466,0.14728 -22.797037,-0.23157 -24.983047,-0.84188 z m 39.273657,-26.33716 c 8.50987,-4.47671 15.02989,-10.93642 18.83028,-18.6561 3.45485,-7.0178 3.78316,-8.586 3.75469,-17.93445 -0.0272,-8.9319 -0.44509,-11.08239 -3.26214,-16.7872 -1.92809,-3.90459 -5.72699,-8.82423 -9.42093,-12.2003 -7.15739,-6.54144 -15.82906,-9.63634 -29.87048,-10.66071 C 86.427573,126.72099 64.848427,110.56425 55.671726,85.996293 52.451659,77.375492 52.029681,74.888422 51.95071,64.065185 51.90172,57.35099 51.718271,51.857558 51.543046,51.857558 c -0.56597,0 -7.271451,7.89647 -10.557171,12.432276 -4.495803,6.206275 -10.70612,18.858789 -13.161057,26.813509 -2.814222,9.118927 -2.931193,41.273677 -0.181515,49.898277 11.03099,34.59965 38.723482,59.71917 72.481047,65.74667 1.56144,0.2788 8.71567,0.38488 15.8983,0.23572 9.42357,-0.1957 14.03442,-0.78416 16.5618,-2.11372 z m 53.27718,-28.90705 c 9.13701,-11.30807 13.17416,-18.63377 17.91897,-32.51527 3.32385,-9.72431 3.55662,-11.45864 3.60528,-26.8616 0.05,-15.82866 -0.098,-16.905717 -3.82273,-27.822037 C 198.23005,73.134332 192.17969,63.377209 180.70576,51.903269 169.8511,41.048618 159.56643,34.439558 146.57367,29.969552 114.69127,19.000796 90.953793,25.514425 80.120015,48.204615 c -4.45451,9.329499 -4.511712,21.877716 -0.142632,31.288619 4.6842,10.089649 8.96711,14.731329 17.94661,19.449919 7.211197,3.789377 9.421427,4.358877 20.667117,5.325217 14.09203,1.21092 21.55851,3.44028 31.26024,9.33377 19.8646,12.06711 32.2642,35.8794 30.62355,58.8097 -0.65005,9.0852 0.37131,9.75856 5.38673,3.5514 z"
     id="path5345"
     inkscape:connector-curvature="0" />
</svg>
