<?xml version="1.0" encoding="UTF-8" standalone="no"?>
<!-- Created with Inkscape (http://www.inkscape.org/) -->

<svg
   xmlns:dc="http://purl.org/dc/elements/1.1/"
   xmlns:cc="http://creativecommons.org/ns#"
   xmlns:rdf="http://www.w3.org/1999/02/22-rdf-syntax-ns#"
   xmlns:svg="http://www.w3.org/2000/svg"
   xmlns="http://www.w3.org/2000/svg"
   xmlns:sodipodi="http://sodipodi.sourceforge.net/DTD/sodipodi-0.dtd"
   xmlns:inkscape="http://www.inkscape.org/namespaces/inkscape"
   version="1.1"
   id="svg62"
   width="61.487907mm"
   height="61.361416mm"
   viewBox="0 0 232.39524 231.91716"
   sodipodi:docname="esoterica-synanon.svg"
   inkscape:version="0.92.5 (2060ec1f9f, 2020-04-08)">
  <metadata
     id="metadata68">
    <rdf:RDF>
      <cc:Work
         rdf:about="">
        <dc:format>image/svg+xml</dc:format>
        <dc:type
           rdf:resource="http://purl.org/dc/dcmitype/StillImage" />
        <dc:title></dc:title>
      </cc:Work>
    </rdf:RDF>
  </metadata>
  <defs
     id="defs66" />
  <sodipodi:namedview
     pagecolor="#ffffff"
     bordercolor="#666666"
     borderopacity="1"
     objecttolerance="10"
     gridtolerance="10"
     guidetolerance="10"
     inkscape:pageopacity="0"
     inkscape:pageshadow="2"
     inkscape:window-width="1920"
     inkscape:window-height="997"
     id="namedview64"
     showgrid="false"
     units="mm"
     fit-margin-top="0"
     fit-margin-left="0"
     fit-margin-right="0"
     fit-margin-bottom="0"
     inkscape:zoom="0.88059701"
     inkscape:cx="116.30209"
     inkscape:cy="116.2887"
     inkscape:window-x="0"
     inkscape:window-y="28"
     inkscape:window-maximized="1"
     inkscape:current-layer="svg62" />
  <path
     style="fill:#000000;fill-opacity:0;stroke:#ff0000;stroke-width:0.56779659;stroke-miterlimit:4;stroke-dasharray:none;stroke-opacity:1"
     d="M 90.524119,228.88753 C 76.610693,225.22974 71.558214,223.3019 61.583731,217.84498 23.859931,197.20673 0.28389829,157.98142 0.28389829,115.85559 0.28389829,70.702775 27.608031,28.599438 69.056506,9.8849311 82.791749,3.6832961 94.904829,1.0456971 112.66819,0.38856715 c 20.30068,-0.750994 36.26119,2.49643495 53.63983,10.91391785 49.8828,24.161125 74.87172,76.607785 62.80139,131.807345 -4.10494,18.77252 -16.31534,40.39659 -30.9861,54.87496 -13.62401,13.44537 -28.25122,22.35532 -45.70936,27.84321 -15.99443,5.02779 -21.3608,5.86376 -37.24657,5.80226 -11.39893,-0.0441 -16.565771,-0.61918 -24.643261,-2.74273 z m 50.075991,-24.98492 c 8.32185,-2.48248 20.64921,-8.21679 26.57656,-12.36261 8.79698,-6.15294 23.00543,-21.54714 28.07376,-30.41662 8.88373,-15.54634 14.64842,-40.34074 12.14216,-52.22433 l -1.0476,-4.96719 -42.86382,-0.29755 -42.86383,-0.29756 V 77.231764 51.126775 h 12.45658 12.45657 l 0.31885,13.911017 0.31885,13.911017 25.4718,0.306171 c 15.5588,0.187016 25.90512,-0.127158 26.58525,-0.807283 C 200.23413,76.438804 188.90347,59.538506 179.5512,50.594344 169.18819,40.683549 157.73848,33.765765 143.91422,29.06288 134.20875,25.761164 132.76186,25.581182 116.07497,25.599873 99.397949,25.618553 97.959669,25.800796 88.696449,29.068981 57.738626,39.991305 34.794363,64.803775 27.541526,95.20336 c -1.631197,6.83701 -2.224077,29.56644 -0.827502,31.72426 0.708025,1.09396 10.669302,1.41949 43.43644,1.41949 H 112.66819 V 155.03355 181.72 h -12.4576 -12.457591 l -0.31783,-14.47882 -0.31783,-14.47881 -26.530978,-0.30515 -26.530982,-0.30514 0.753049,3.14413 c 1.936698,8.08611 18.353657,27.34322 30.316264,35.56102 10.911218,7.49553 24.872797,13.21493 36.178968,14.82083 9.09349,1.2916 32.57071,0.23088 39.29645,-1.77545 z"
     id="path5899"
     inkscape:connector-curvature="0" />
</svg>
