<?xml version="1.0" encoding="UTF-8" standalone="no"?>
<!-- Created with Inkscape (http://www.inkscape.org/) -->

<svg
   xmlns:dc="http://purl.org/dc/elements/1.1/"
   xmlns:cc="http://creativecommons.org/ns#"
   xmlns:rdf="http://www.w3.org/1999/02/22-rdf-syntax-ns#"
   xmlns:svg="http://www.w3.org/2000/svg"
   xmlns="http://www.w3.org/2000/svg"
   xmlns:sodipodi="http://sodipodi.sourceforge.net/DTD/sodipodi-0.dtd"
   xmlns:inkscape="http://www.inkscape.org/namespaces/inkscape"
   version="1.1"
   id="svg62"
   width="61.786678mm"
   height="48.147289mm"
   viewBox="0 0 233.52446 181.97401"
   sodipodi:docname="esoterica-hadibroth.svg"
   inkscape:version="0.92.5 (2060ec1f9f, 2020-04-08)">
  <metadata
     id="metadata68">
    <rdf:RDF>
      <cc:Work
         rdf:about="">
        <dc:format>image/svg+xml</dc:format>
        <dc:type
           rdf:resource="http://purl.org/dc/dcmitype/StillImage" />
        <dc:title></dc:title>
      </cc:Work>
    </rdf:RDF>
  </metadata>
  <defs
     id="defs66" />
  <sodipodi:namedview
     pagecolor="#ffffff"
     bordercolor="#666666"
     borderopacity="1"
     objecttolerance="10"
     gridtolerance="10"
     guidetolerance="10"
     inkscape:pageopacity="0"
     inkscape:pageshadow="2"
     inkscape:window-width="1920"
     inkscape:window-height="997"
     id="namedview64"
     showgrid="false"
     units="mm"
     fit-margin-top="0"
     fit-margin-left="0"
     fit-margin-right="0"
     fit-margin-bottom="0"
     inkscape:zoom="0.88059701"
     inkscape:cx="116.41237"
     inkscape:cy="91.35848"
     inkscape:window-x="0"
     inkscape:window-y="28"
     inkscape:window-maximized="1"
     inkscape:current-layer="svg62" />
  <path
     style="fill:#000000;fill-opacity:0;stroke:#ff0000;stroke-width:0.56779659;stroke-miterlimit:4;stroke-dasharray:none;stroke-opacity:1"
     d="m 0.60389845,114.97399 0.31864,-66.716096 3.92781705,-8.516949 C 14.384168,19.068138 30.279538,6.0953884 51.651476,1.5449634 c 14.826831,-3.156867 32.754103,-0.187641 45.491153,7.534529 3.290821,1.9951396 8.920911,6.4995786 12.511321,10.0098606 l 6.52802,6.382333 5.96351,-5.736996 c 9.42638,-9.068345 18.20573,-14.1460546 29.75259,-17.2079926 32.80542,-8.699182 65.70208,8.5338666 77.54263,40.6210266 l 3.14286,8.51695 0.32777,65.012706 0.32779,65.01272 H 116.76219 0.28525745 Z M 103.45358,105.32145 C 103.12927,54.460063 103.09931,53.877937 100.51651,48.257894 97.063569,40.744453 89.926869,33.555322 81.549657,29.151708 75.371522,25.904073 73.78296,25.569836 64.515759,25.567741 c -8.965889,-0.002 -11.043823,0.400345 -16.929481,3.278245 -7.783664,3.805966 -15.465821,11.342474 -19.119632,18.757138 -2.528035,5.130131 -2.565405,5.867022 -2.898271,57.150536 l -0.337216,51.95339 h 39.275036 39.275035 z m 104.47458,0 -0.32765,-51.38559 -3.16268,-6.002637 C 199.9026,39.32553 193.9857,33.269414 186.09236,29.156141 c -6.22646,-3.244645 -7.8548,-3.587233 -17.10202,-3.5981 -8.71854,-0.01022 -11.17089,0.433551 -16.68925,3.020229 -8.17274,3.830902 -15.27964,10.950339 -19.64974,19.684398 l -3.40678,6.808785 -0.32995,49.310997 c -0.18148,27.12105 -0.0697,49.98905 0.24826,50.8178 0.465,1.21179 8.26407,1.5068 39.83556,1.5068 h 39.25737 z"
     id="path5283"
     inkscape:connector-curvature="0" />
</svg>
