<?xml version="1.0" encoding="UTF-8" standalone="no"?>
<!-- Created with Inkscape (http://www.inkscape.org/) -->

<svg
   xmlns:dc="http://purl.org/dc/elements/1.1/"
   xmlns:cc="http://creativecommons.org/ns#"
   xmlns:rdf="http://www.w3.org/1999/02/22-rdf-syntax-ns#"
   xmlns:svg="http://www.w3.org/2000/svg"
   xmlns="http://www.w3.org/2000/svg"
   xmlns:sodipodi="http://sodipodi.sourceforge.net/DTD/sodipodi-0.dtd"
   xmlns:inkscape="http://www.inkscape.org/namespaces/inkscape"
   version="1.1"
   id="svg42"
   width="61.547272mm"
   height="61.47982mm"
   viewBox="0 0 232.61961 232.36468"
   sodipodi:docname="esoterica-dudeism.svg"
   inkscape:version="0.92.5 (2060ec1f9f, 2020-04-08)">
  <metadata
     id="metadata48">
    <rdf:RDF>
      <cc:Work
         rdf:about="">
        <dc:format>image/svg+xml</dc:format>
        <dc:type
           rdf:resource="http://purl.org/dc/dcmitype/StillImage" />
        <dc:title></dc:title>
      </cc:Work>
    </rdf:RDF>
  </metadata>
  <defs
     id="defs46" />
  <sodipodi:namedview
     pagecolor="#ffffff"
     bordercolor="#666666"
     borderopacity="1"
     objecttolerance="10"
     gridtolerance="10"
     guidetolerance="10"
     inkscape:pageopacity="0"
     inkscape:pageshadow="2"
     inkscape:window-width="1920"
     inkscape:window-height="997"
     id="namedview44"
     showgrid="false"
     inkscape:zoom="0.88059701"
     inkscape:cx="116.25155"
     inkscape:cy="116.00514"
     inkscape:window-x="0"
     inkscape:window-y="28"
     inkscape:window-maximized="1"
     inkscape:current-layer="svg42"
     units="mm"
     fit-margin-top="0"
     fit-margin-left="0"
     fit-margin-right="0"
     fit-margin-bottom="0" />
  <path
     style="fill:#000000;fill-opacity:0;stroke:#ff0000;stroke-width:0.56779659;stroke-miterlimit:4;stroke-dasharray:none;stroke-opacity:1"
     d="M 116.02499,0.28531153 C 101.84871,0.31499153 97.923524,0.74692753 87.808194,3.3927335 43.951016,14.864198 13.115436,46.849026 1.9703043,92.425941 0.33393626,99.117711 0.05061726,104.13974 0.43710126,119.67984 c 0.456324,18.34835 0.63143404,19.52224 4.71484404,31.82422 6.3174687,19.03247 14.5577917,32.6168 28.3085927,46.66016 6.331511,6.46621 21.067216,18.35547 22.75,18.35547 0.364553,0 3.113719,1.44463 6.109375,3.21093 4.807308,2.83449 19.425571,8.24728 30.992191,11.47657 2.18601,0.61031 13.429706,0.98907 24.984366,0.84179 l 21.00781,-0.26757 12.49219,-4.34376 c 33.26602,-11.56944 56.6342,-32.4927 70.92383,-63.50195 6.99839,-15.18689 9.60103,-28.00278 9.61523,-47.34961 0.0103,-14.08761 -0.42562,-18.205979 -3.01367,-28.513669 C 218.94478,46.742664 185.97857,13.696452 144.80038,3.3458585 134.16195,0.67177053 130.25499,0.25552153 116.02499,0.28531153 Z M 107.84921,24.857578 c 1.96551,-0.04643 3.4441,0.189205 4.35546,0.71875 1.99611,1.159823 1.9779,1.231112 -0.31835,1.263672 -1.33951,0.01899 -5.74533,1.055704 -9.78907,2.304687 -13.748006,4.246329 -24.51683,15.629078 -28.253899,29.863282 -2.586735,9.852665 -2.630075,13.878922 -0.253906,23.437502 2.235248,8.99158 8.682839,18.725129 15.783199,23.824219 8.59738,6.17417 14.689796,8.23007 27.408206,9.24804 9.87951,0.79076 12.9892,1.54237 19.4082,4.69532 12.59572,6.18692 20.30771,15.39293 24.15039,28.83007 2.82125,9.86534 2.83128,16.03297 0.043,25.78321 -3.50327,12.25026 -12.62442,22.90823 -25.05274,29.27343 -4.37426,2.24029 -7.07359,2.65508 -18.73828,2.88477 -7.49492,0.14757 -14.9034,0.0419 -16.46484,-0.23633 -33.739198,-6.01122 -61.4519,-31.14792 -72.482418,-65.74609 -2.749678,-8.6246 -2.632581,-40.77951 0.181641,-49.898439 6.138462,-19.890437 20.678199,-39.561774 37.544922,-50.796874 9.211866,-6.136121 11.926155,-7.440832 23.253909,-11.173828 8.21431,-2.706982 14.900466,-4.173251 19.224606,-4.275391 z m -7.84766,23.59375 c 5.66561,0 6.91432,0.418374 9.58789,3.208984 6.37642,6.655544 6.01723,15.971321 -0.81641,21.183594 -5.10288,3.892161 -12.392216,3.911958 -17.294916,0.04687 -7.1948,-5.672081 -7.80886,-14.620826 -1.4414,-20.988281 3.04204,-3.042045 4.22293,-3.451172 9.964836,-3.451172 z m 33.59766,0 c 5.58494,0 6.88366,0.436391 9.70898,3.261719 6.18288,6.18287 5.90274,14.725465 -0.67187,20.498046 -3.10221,2.723778 -5.03356,3.492129 -8.76563,3.486329 -8.72295,-0.01364 -14.32594,-5.688696 -14.39844,-14.583985 -0.0337,-4.13161 0.59101,-5.571476 3.82032,-8.800781 3.48412,-3.484127 4.48925,-3.861328 10.30664,-3.861328 z M 117.23397,76.84 c 5.15371,0 11.9898,4.919296 13.59375,9.779301 2.11989,6.42334 -0.17965,12.0393 -6.82226,16.658199 -6.09709,4.23958 -15.61136,1.21438 -19.6211,-6.240239 -2.39881,-4.45971 -2.47578,-6.60856 -0.41406,-11.54296 C 105.88668,80.90776 112.12098,76.84 117.23397,76.84 Z m -1.46875,53.37305 c -7.13158,0 -13.06291,7.13634 -11.75,14.13476 0.66408,3.53985 5.1648,8.80023 8.60156,10.05078 5.7297,2.0849 13.45106,-2.00782 15.1836,-8.04883 2.46478,-8.59418 -3.16076,-16.13671 -12.03516,-16.13671 z m -15.67773,28.70507 c -0.974496,0.0288 -2.047616,0.29105 -3.546876,0.74024 -5.12999,1.53699 -8.89953,6.62407 -8.89453,12.0039 0.004,3.89082 3.48638,9.78118 6.48242,10.96485 3.16872,1.25189 9.019276,1.08538 12.160156,-0.3457 1.76289,-0.80324 3.57472,-3.16698 4.71484,-6.15235 2.60292,-6.81564 0.88493,-11.69827 -5.34765,-15.20117 -2.59422,-1.45803 -3.9442,-2.05771 -5.56836,-2.00977 z m 34.06836,0.28321 c -6.62466,-0.31195 -12.98846,5.5257 -12.78711,12.6289 0.13015,4.59155 2.90391,9.21672 6.36133,10.60938 9.91001,3.99178 18.84402,-2.52961 17.47265,-12.75391 -0.71404,-5.32353 -3.16219,-8.29339 -8.20898,-9.95898 -0.93868,-0.30979 -1.89151,-0.48083 -2.83789,-0.52539 z"
     id="path5944"
     inkscape:connector-curvature="0" />
</svg>
