<?xml version="1.0" encoding="UTF-8" standalone="no"?>
<!-- Created with Inkscape (http://www.inkscape.org/) -->

<svg
   xmlns:dc="http://purl.org/dc/elements/1.1/"
   xmlns:cc="http://creativecommons.org/ns#"
   xmlns:rdf="http://www.w3.org/1999/02/22-rdf-syntax-ns#"
   xmlns:svg="http://www.w3.org/2000/svg"
   xmlns="http://www.w3.org/2000/svg"
   xmlns:sodipodi="http://sodipodi.sourceforge.net/DTD/sodipodi-0.dtd"
   xmlns:inkscape="http://www.inkscape.org/namespaces/inkscape"
   version="1.1"
   id="svg32"
   width="63.927158mm"
   height="30.734009mm"
   viewBox="0 0 241.61446 116.16003"
   sodipodi:docname="esoterica-double_spiral_alt.svg"
   inkscape:version="0.92.5 (2060ec1f9f, 2020-04-08)">
  <metadata
     id="metadata38">
    <rdf:RDF>
      <cc:Work
         rdf:about="">
        <dc:format>image/svg+xml</dc:format>
        <dc:type
           rdf:resource="http://purl.org/dc/dcmitype/StillImage" />
        <dc:title></dc:title>
      </cc:Work>
    </rdf:RDF>
  </metadata>
  <defs
     id="defs36" />
  <sodipodi:namedview
     pagecolor="#ffffff"
     bordercolor="#666666"
     borderopacity="1"
     objecttolerance="10"
     gridtolerance="10"
     guidetolerance="10"
     inkscape:pageopacity="0"
     inkscape:pageshadow="2"
     inkscape:window-width="1920"
     inkscape:window-height="997"
     id="namedview34"
     showgrid="false"
     units="mm"
     fit-margin-top="0"
     fit-margin-left="0"
     fit-margin-right="0"
     fit-margin-bottom="0"
     inkscape:zoom="0.88059701"
     inkscape:cx="121.2602"
     inkscape:cy="58.211612"
     inkscape:window-x="0"
     inkscape:window-y="28"
     inkscape:window-maximized="1"
     inkscape:current-layer="svg32" />
  <path
     style="fill:#000000;fill-opacity:0;stroke:#ff0000;stroke-width:0.56779659;stroke-miterlimit:4;stroke-dasharray:none;stroke-opacity:1"
     d="M 46.409505,114.94264 C 36.496414,113.49455 22.922743,106.37199 16.330727,99.159274 8.6248024,90.727764 5.8664264,86.123804 2.9433574,76.814644 -6.7452885,45.959004 10.844615,13.22309 42.483235,3.2284536 c 28.848418,-9.113212 59.372645,3.422381 74.589145,30.6320304 3.77107,6.7433 5.27876,11.70699 8.51223,28.02422 4.2371,21.38199 23.18576,40.494736 43.68647,44.064776 23.04235,4.01265 42.74191,-3.9627 54.97858,-22.258026 6.83818,-10.22394 8.58313,-17.34248 7.78564,-31.76167 -0.61983,-11.20683 -1.5319,-13.92792 -7.85329,-23.4296 -4.95159,-7.442757 -10.19255,-11.814337 -19.68283,-16.417849 -6.06018,-2.9396534 -8.00639,-3.3050974 -17.60169,-3.3050974 -9.76702,0 -11.50955,0.341751 -18.40984,3.6106364 -14.42847,6.835208 -23.3493,19.72756 -24.45986,35.3493 -0.50929,7.16395 -0.17459,9.35766 2.44733,16.0405 5.79651,14.77432 18.84453,24.09765 33.85625,24.19162 6.8184,0.0427 8.8905,-0.47756 15.45323,-3.8799 8.67125,-4.49547 15.01246,-12.37237 17.43154,-21.65307 2.93555,-11.26207 -3.20273,-25.13043 -13.74834,-31.06193 -13.98567,-7.866414 -30.2721,-2.33501 -35.10849,11.924 -5.57142,16.4261 10.73305,31.92301 24.01289,22.82352 6.99227,-4.79118 8.49818,-11.70383 3.61375,-16.58827 -1.96116,-1.96116 -3.83586,-2.74837 -5.96187,-2.50347 -2.68593,0.3094 -3.1772,0.96544 -3.66896,4.89961 -0.46977,3.75807 -1.04701,4.61001 -3.34316,4.93411 -6.32814,0.89323 -7.69709,-7.73806 -2.21717,-13.97935 3.20503,-3.65032 4.07186,-4.01409 9.56541,-4.01409 4.90811,0 6.72518,0.57571 9.68932,3.06986 10.86272,9.14038 7.73058,27.08515 -5.74525,32.91602 -10.03224,4.34085 -22.59575,1.03527 -29.56236,-7.77814 -9.75138,-12.33643 -6.87676,-31.30684 6.26262,-41.32874 11.71778,-8.937583 31.06693,-7.825031 42.48742,2.44298 8.08086,7.26538 12.04454,16.58363 12.02928,28.27972 -0.0256,19.59258 -11.58998,33.3802 -32.4883,38.7341 -5.65434,1.44858 -8.23298,1.54179 -14.14953,0.51146 -24.00181,-4.17973 -39.08761,-22.00209 -39.08761,-46.17809 0,-33.831661 34.69341,-57.5046984 67.93537,-46.3556864 14.71662,4.9358 24.90869,14.2257064 32.05159,29.2144964 10.46604,21.96209 5.92589,46.74194 -11.87379,64.80645 -26.94204,27.342876 -71.50709,23.526186 -94.97953,-8.13437 -5.90736,-7.96807 -10.00301,-18.97271 -14.11064,-37.91392 C 109.30534,25.732794 84.383418,6.9712266 58.111413,8.4665076 34.658228,9.8013546 15.360886,25.749634 9.6220814,48.540494 c -0.712204,2.82842 -1.073884,9.34724 -0.803732,14.48627 0.553571,10.53047 4.0141656,19.40606 10.8010696,27.70213 5.679588,6.94253 16.764997,13.756206 24.841814,15.269096 7.928675,1.48515 21.537836,0.59701 27.217823,-1.77624 10.104853,-4.222076 19.096557,-13.598046 23.771977,-24.787886 2.00438,-4.79717 2.32573,-19.65219 0.56245,-26.00072 -0.63771,-2.29602 -3.40683,-7.2274 -6.15359,-10.95861 -4.022057,-5.46358 -6.498128,-7.52444 -12.721325,-10.58812 -6.717431,-3.30698 -8.843325,-3.80048 -16.268046,-3.77645 -10.697221,0.0346 -19.611205,3.93694 -25.401899,11.12033 -14.029577,17.40377 -7.046741,42.83442 13.204006,48.08739 16.736709,4.34145 33.508785,-10.89873 29.279474,-26.6052 -3.197667,-11.87523 -17.580463,-17.50226 -26.600573,-10.40704 -5.335099,4.19659 -5.387683,14.20007 -0.09288,17.66936 3.888298,2.54771 9.036132,0.50473 8.06694,-3.20146 -0.751874,-2.87518 0.990668,-6.5978 3.088395,-6.5978 4.967327,0 6.842873,9.01982 2.914109,14.01444 -5.351088,6.8028 -16.060646,6.37732 -22.442885,-0.89165 -6.171704,-7.02919 -5.66304,-17.36677 1.241478,-25.23058 4.508153,-5.1345 9.300202,-7.1973 16.719957,-7.1973 7.445547,0 12.339344,2.11901 18.025233,7.8049 8.463116,8.46311 10.072716,21.35795 4.124374,33.04121 -3.242898,6.36944 -6.207339,9.11913 -14.200455,13.17173 -16.375612,8.302616 -37.920738,0.0415 -45.744269,-17.53985 -3.083593,-6.92958 -3.837096,-20.39416 -1.553169,-27.75411 6.656858,-21.45171 30.345078,-32.690487 54.311019,-25.767629 6.57257,1.898568 17.069496,10.342629 21.895686,17.613589 10.466967,15.76916 11.148717,31.95678 2.09856,49.82858 -6.21406,12.271226 -22.09987,23.211506 -37.324304,25.704586 -7.408524,1.21319 -7.555697,1.2129 -16.069814,-0.0308 z"
     id="path5402"
     inkscape:connector-curvature="0" />
</svg>
