<?xml version="1.0" encoding="UTF-8" standalone="no"?>
<!-- Created with Inkscape (http://www.inkscape.org/) -->

<svg
   xmlns:dc="http://purl.org/dc/elements/1.1/"
   xmlns:cc="http://creativecommons.org/ns#"
   xmlns:rdf="http://www.w3.org/1999/02/22-rdf-syntax-ns#"
   xmlns:svg="http://www.w3.org/2000/svg"
   xmlns="http://www.w3.org/2000/svg"
   xmlns:sodipodi="http://sodipodi.sourceforge.net/DTD/sodipodi-0.dtd"
   xmlns:inkscape="http://www.inkscape.org/namespaces/inkscape"
   version="1.1"
   id="svg52"
   width="35.217529mm"
   height="62.614063mm"
   viewBox="0 0 133.10562 236.65158"
   sodipodi:docname="hermetica-egeria.svg"
   inkscape:version="0.92.5 (2060ec1f9f, 2020-04-08)">
  <metadata
     id="metadata58">
    <rdf:RDF>
      <cc:Work
         rdf:about="">
        <dc:format>image/svg+xml</dc:format>
        <dc:type
           rdf:resource="http://purl.org/dc/dcmitype/StillImage" />
        <dc:title></dc:title>
      </cc:Work>
    </rdf:RDF>
  </metadata>
  <defs
     id="defs56" />
  <sodipodi:namedview
     pagecolor="#ffffff"
     bordercolor="#666666"
     borderopacity="1"
     objecttolerance="10"
     gridtolerance="10"
     guidetolerance="10"
     inkscape:pageopacity="0"
     inkscape:pageshadow="2"
     inkscape:window-width="1920"
     inkscape:window-height="997"
     id="namedview54"
     showgrid="false"
     units="mm"
     fit-margin-top="0"
     fit-margin-left="0"
     fit-margin-right="0"
     fit-margin-bottom="0"
     inkscape:zoom="0.88059701"
     inkscape:cx="365.25979"
     inkscape:cy="120.88326"
     inkscape:window-x="0"
     inkscape:window-y="28"
     inkscape:window-maximized="1"
     inkscape:current-layer="svg52" />
  <path
     style="fill:#ff0000;fill-opacity:0.01829266;stroke:#ff0000;stroke-width:0.56779659;stroke-miterlimit:4;stroke-dasharray:none;stroke-opacity:1"
     d="m 53.311661,0.36762573 -9.93555,5.65039097 c -5.46504,3.107139 -9.9375,6.2632703 -9.9375,7.0136723 0,0.750402 2.0086,4.800074 4.46289,9 7.51799,12.865196 7.84906,12.201171 -6.08984,12.201171 h -12 v 12.492188 12.490234 h 11.92383 c 8.7936,0 11.92383,0.373092 11.92383,1.421875 0,0.782156 -2.53845,5.737554 -5.64258,11.011719 -3.10413,5.274165 -5.43666,9.797718 -5.18164,10.052734 0.25501,0.255015 4.71107,2.953185 9.90234,5.996095 5.19128,3.04291 9.98468,5.54615 10.65039,5.56055 1.13981,0.0246 3.43461,-3.56907 9.05469,-14.169926 1.32449,-2.498306 3.12876,-4.542969 4.00977,-4.542969 0.88101,0 3.95824,4.089328 6.83789,9.085935 6.03714,10.47536 6.6468,10.65698 16.01757,4.80079 3.31172,-2.06964 7.39295,-4.35271 9.06836,-5.07422 l 3.044929,-1.3125 -4.994149,-8.763676 c -2.74707,-4.820507 -5.524,-9.293541 -6.16992,-9.939454 -0.64591,-0.645914 -1.17382,-1.83844 -1.17382,-2.65039 -1e-5,-1.121828 2.99979,-1.476563 12.492179,-1.476563 h 12.49219 V 46.725048 34.23286 h -12.49219 c -6.870339,0 -12.492179,-0.206696 -12.492179,-0.458984 -1e-5,-0.670848 7.55128,-13.917691 9.60351,-16.847656 2.384829,-3.404823 2.206489,-4.807211 -0.80273,-6.34961 -1.40529,-0.7202973 -3.32096,-1.7863833 -4.25782,-2.3671873 -11.08711,-6.873398 -14.16897,-8.25801597 -15.05078,-6.767578 -0.50838,0.85926 -3.25349,5.522815 -6.10156,10.3632813 -2.84806,4.840466 -5.51369,8.798375 -5.92383,8.796875 -0.41013,-0.0015 -2.68874,-3.449675 -5.0625,-7.664062 -2.37375,-4.2143893 -5.18468,-8.7659133 -6.24609,-10.1152353 z m 79.492189,95.18554927 -12.0586,0.002 h -12.05859 l -0.55859,8.714845 c -0.54298,8.46089 -0.69501,8.84449 -5.21485,13.06055 -3.863149,3.6035 -5.468089,4.34375 -9.419919,4.34375 -5.92581,0 -11.61383,-4.02425 -13.65039,-9.65625 l -1.43555,-3.97266 h -12.26367 c -8.15413,0 -12.26367,0.41832 -12.26367,1.24805 0,3.02585 -3.98674,9.2148 -6.91016,10.72656 -5.69976,2.94746 -11.88608,2.14891 -16.56249,-2.13672 -3.98412,-3.65116 -4.15483,-4.1269 -4.67188,-13.05859 l -0.53711,-9.269535 H 12.747211 0.29409059 l 0.39062,11.072265 c 0.32883001,9.32792 0.88841001,12.08439 3.55078001,17.50586 3.76836,7.67363 10.9616904,15.14128 17.4336004,18.09766 l 4.69531,2.14453 0.45508,19.02539 c 0.44914,18.75717 0.50851,19.14273 4.25586,27.22265 4.21656,9.09164 11.15603,16.34748 18.41015,19.25 l 4.39453,1.75782 v 12.36914 12.36718 h 12.49219 12.49023 v -12.21289 -12.21484 l 5.57031,-2.55469 c 7.53383,-3.45622 16.536559,-13.44009 18.992189,-21.06054 1.34591,-4.17672 2.04996,-11.42422 2.41016,-24.83985 l 0.50781,-18.94336 4.50391,-1.80273 c 5.98938,-2.39647 14.82484,-11.39418 17.98633,-18.31836 1.86277,-4.0798 2.74092,-8.72544 3.25976,-17.22656 z m -66.611329,40.630855 3.88086,2.96094 c 2.13491,1.62837 5.49642,3.52271 7.4707,4.21094 l 3.58985,1.25195 v 16.41016 c 0,17.80197 -0.77446,20.87782 -6.375,25.2832 -3.54557,2.78895 -10.8386,3.10887 -15.32227,0.67187 -6.01739,-3.27063 -6.69141,-5.77249 -6.69141,-24.80859 v -17.50391 l 3.68946,-1.45507 c 2.02987,-0.79996 5.05646,-2.70696 6.72461,-4.23829 z"
     id="path5309"
     inkscape:connector-curvature="0" />
</svg>
