<?xml version="1.0" encoding="UTF-8" standalone="no"?>
<!-- Created with Inkscape (http://www.inkscape.org/) -->

<svg
   xmlns:dc="http://purl.org/dc/elements/1.1/"
   xmlns:cc="http://creativecommons.org/ns#"
   xmlns:rdf="http://www.w3.org/1999/02/22-rdf-syntax-ns#"
   xmlns:svg="http://www.w3.org/2000/svg"
   xmlns="http://www.w3.org/2000/svg"
   xmlns:sodipodi="http://sodipodi.sourceforge.net/DTD/sodipodi-0.dtd"
   xmlns:inkscape="http://www.inkscape.org/namespaces/inkscape"
   version="1.1"
   id="svg32"
   width="65.349838mm"
   height="61.744335mm"
   viewBox="0 0 246.99152 233.36442"
   sodipodi:docname="esoterica-evil.svg"
   inkscape:version="0.92.5 (2060ec1f9f, 2020-04-08)">
  <metadata
     id="metadata38">
    <rdf:RDF>
      <cc:Work
         rdf:about="">
        <dc:format>image/svg+xml</dc:format>
        <dc:type
           rdf:resource="http://purl.org/dc/dcmitype/StillImage" />
        <dc:title></dc:title>
      </cc:Work>
    </rdf:RDF>
  </metadata>
  <defs
     id="defs36" />
  <sodipodi:namedview
     pagecolor="#ffffff"
     bordercolor="#666666"
     borderopacity="1"
     objecttolerance="10"
     gridtolerance="10"
     guidetolerance="10"
     inkscape:pageopacity="0"
     inkscape:pageshadow="2"
     inkscape:window-width="1920"
     inkscape:window-height="997"
     id="namedview34"
     showgrid="false"
     units="mm"
     fit-margin-top="0"
     fit-margin-left="0"
     fit-margin-right="0"
     fit-margin-bottom="0"
     inkscape:zoom="0.88059701"
     inkscape:cx="124.29068"
     inkscape:cy="116.34153"
     inkscape:window-x="0"
     inkscape:window-y="28"
     inkscape:window-maximized="1"
     inkscape:current-layer="svg32" />
  <path
     style="fill:#000000;fill-opacity:0;stroke:#ff0000;stroke-width:0.56779659;stroke-miterlimit:4;stroke-dasharray:none;stroke-opacity:1"
     d="M 111.57204,205.25847 V 177.43644 H 93.970338 76.368644 v -12.49153 -12.49152 h 17.601694 17.601702 v -7.38136 -7.38135 H 93.970338 76.368644 V 125.19915 112.70763 H 93.970338 111.57204 V 90.563561 c 0,-12.179239 -0.44335,-22.14407 -0.98523,-22.14407 -1.07692,0 -13.843422,8.393976 -18.199012,11.965857 -16.119042,13.218713 -31.45749,34.539342 -38.367105,53.330752 -5.074606,13.80091 -8.313066,32.13402 -8.313066,47.06074 v 10.28672 H 22.995763 0.28389829 V 178.00424 164.94491 H 10.990321 21.696743 l 0.79105,-6.33134 c 0.435076,-3.48224 0.344093,-6.72641 -0.202186,-7.20928 -0.546278,-0.48286 -4.551382,-1.72847 -8.900228,-2.76803 -4.348847,-1.03954 -8.274873,-2.26677 -8.724502,-2.72716 -0.630859,-0.64595 4.173771,-22.55149 5.226536,-23.82912 0.126982,-0.15411 4.022588,0.72815 8.656902,1.96056 11.94782,3.17731 11.798522,3.21993 14.075053,-4.01775 2.195484,-6.98003 2.08953,-7.20804 -5.081232,-10.9349 -10.430286,-5.42093 -10.478114,-5.47095 -8.340774,-8.72436 1.079066,-1.642529 3.68963,-6.052509 5.801253,-9.799969 2.111623,-3.74746 4.294069,-7.27971 4.84988,-7.849447 0.604068,-0.619204 2.74079,0.146732 5.311967,1.904147 2.365771,1.61702 6.24169,3.85005 8.613152,4.96229 l 4.31175,2.02227 2.715955,-3.35862 c 6.188484,-7.652816 6.186119,-7.676749 -1.530321,-15.489448 l -7.003294,-7.090658 8.789855,-8.841713 8.789856,-8.841713 7.408919,7.351781 7.40892,7.351782 5.11017,-4.030387 c 2.810593,-2.216713 5.280508,-4.503399 5.4887,-5.081523 0.208193,-0.578125 -1.708121,-1.051136 -4.258475,-1.051136 H 76.368644 V 40.029661 27.538135 l 6.529661,0.0016 c 3.591314,8.54e-4 10.873303,0.766681 16.182203,1.701838 5.308902,0.935156 10.291312,1.700983 11.072032,1.701837 1.06558,0.0011 1.4195,-3.820821 1.4195,-15.328994 V 0.28389829 h 12.49152 12.49153 V 15.614406 c 0,11.508173 0.35392,15.330122 1.41949,15.328957 0.78072,-8.54e-4 5.76313,-0.766681 11.07203,-1.701838 5.3089,-0.935156 12.33538,-1.700983 15.61441,-1.701837 l 5.96186,-0.0016 v 12.491573 12.491525 h -4.0692 c -4.96072,0 -4.72933,0.841167 1.70189,6.186849 l 5.01404,4.167713 7.50505,-7.44754 7.50505,-7.447539 8.90076,8.953277 8.90077,8.953277 -6.94104,6.770819 c -3.81757,3.723949 -6.94105,7.139985 -6.94105,7.591188 0,1.724704 6.98927,10.882121 8.30563,10.882121 0.76063,0 4.90962,-2.06086 9.21998,-4.57969 4.31038,-2.51883 8.20384,-4.179639 8.65215,-3.690679 0.44831,0.488959 3.24646,5.111789 6.21812,10.272959 5.22137,9.068459 5.33527,9.458809 3.3877,11.610839 -1.10842,1.22479 -3.0977,2.57011 -4.42063,2.98959 -1.32293,0.41947 -4.30115,1.95905 -6.61827,3.42127 l -4.21295,2.65859 2.76441,5.96668 c 1.52041,3.28167 3.17668,6.10409 3.68057,6.27206 0.5039,0.16797 4.73286,-0.67517 9.39771,-1.87364 4.66483,-1.19846 8.79846,-1.84254 9.18585,-1.43129 0.68555,0.72779 4.58963,13.5704 5.98849,19.69931 0.84881,3.71899 0.5941,3.88681 -9.76167,6.43238 -7.18617,1.76644 -8.27631,2.36541 -8.20597,4.50875 0.0446,1.35943 0.17236,4.51576 0.2839,7.01406 l 0.20278,4.54237 h 10.22034 10.22034 v 13.05933 13.05932 H 223.99576 201.2839 v -14.81059 c 0,-16.6598 -1.76601,-27.13388 -6.95076,-41.22457 -9.44047,-25.6565 -26.11239,-46.574779 -50.146,-62.918231 -2.985,-2.029873 -5.92335,-3.690678 -6.52966,-3.690678 -0.6751,0 -1.10239,8.583024 -1.10239,22.14407 v 22.144069 h 17.0339 17.03389 v 12.49152 12.49153 h -17.03389 -17.0339 v 7.38135 7.38136 h 17.0339 17.03389 v 12.49152 12.49153 h -17.03389 -17.0339 v 27.82203 27.82204 h -12.49153 -12.49152 z"
     id="path5371"
     inkscape:connector-curvature="0" />
</svg>
