<?xml version="1.0" encoding="UTF-8" standalone="no"?>
<!-- Created with Inkscape (http://www.inkscape.org/) -->

<svg
   xmlns:dc="http://purl.org/dc/elements/1.1/"
   xmlns:cc="http://creativecommons.org/ns#"
   xmlns:rdf="http://www.w3.org/1999/02/22-rdf-syntax-ns#"
   xmlns:svg="http://www.w3.org/2000/svg"
   xmlns="http://www.w3.org/2000/svg"
   xmlns:sodipodi="http://sodipodi.sourceforge.net/DTD/sodipodi-0.dtd"
   xmlns:inkscape="http://www.inkscape.org/namespaces/inkscape"
   version="1.1"
   id="svg82"
   width="69.615532mm"
   height="69.556267mm"
   viewBox="0 0 263.11382 262.88983"
   sodipodi:docname="esoterica-perkonkrusts.svg"
   inkscape:version="0.92.5 (2060ec1f9f, 2020-04-08)">
  <metadata
     id="metadata88">
    <rdf:RDF>
      <cc:Work
         rdf:about="">
        <dc:format>image/svg+xml</dc:format>
        <dc:type
           rdf:resource="http://purl.org/dc/dcmitype/StillImage" />
        <dc:title></dc:title>
      </cc:Work>
    </rdf:RDF>
  </metadata>
  <defs
     id="defs86" />
  <sodipodi:namedview
     pagecolor="#ffffff"
     bordercolor="#666666"
     borderopacity="1"
     objecttolerance="10"
     gridtolerance="10"
     guidetolerance="10"
     inkscape:pageopacity="0"
     inkscape:pageshadow="2"
     inkscape:window-width="1920"
     inkscape:window-height="997"
     id="namedview84"
     showgrid="false"
     units="mm"
     fit-margin-top="0"
     fit-margin-left="0"
     fit-margin-right="0"
     fit-margin-bottom="0"
     inkscape:zoom="0.88059701"
     inkscape:cx="131.55534"
     inkscape:cy="131.10424"
     inkscape:window-x="0"
     inkscape:window-y="28"
     inkscape:window-maximized="1"
     inkscape:current-layer="svg82" />
  <path
     style="fill:#ff0000;fill-opacity:0.01829266;stroke:#ff0000;stroke-width:0.56779659;stroke-miterlimit:4;stroke-dasharray:none;stroke-opacity:1"
     d="m 108.66356,239.60083 -22.984559,-23.00508 28.371939,-28.35493 28.37194,-28.35491 -4.76174,-4.85185 c -2.61895,-2.66852 -5.22694,-4.85186 -5.79553,-4.85186 -0.56861,0 -13.58032,12.549 -28.91496,27.88666 l -27.88114,27.88667 -8.896113,-8.84394 -8.896113,-8.84393 13.632248,-13.66506 c 7.497738,-7.51579 13.63225,-14.19006 13.63225,-14.83171 0,-0.64167 -2.185267,-3.31133 -4.856147,-5.9326 l -4.856146,-4.76595 -14.143975,14.17802 -14.143975,14.178 -8.827348,-8.77557 -8.827348,-8.77558 14.216315,-14.24793 14.216317,-14.24795 -4.885221,-4.79447 c -2.68687,-2.63698 -5.369515,-4.79449 -5.961431,-4.79449 -0.591916,0 -7.225486,6.13451 -14.741269,13.63225 L 18.066496,149.05687 9.2337722,140.17204 0.40104757,131.2872 23.396601,108.32488 46.392153,85.362571 l 28.455026,28.438609 28.455021,28.43861 5.38588,-5.38587 5.38587,-5.38588 -28.500424,-28.51687 -28.500427,-28.516868 5.680356,-5.56249 c 3.124197,-3.05937 7.164842,-6.971668 8.979212,-8.693996 l 3.298854,-3.131508 13.555978,13.630843 c 7.455788,7.496963 14.088351,13.633048 14.739031,13.635744 0.65068,0.0027 3.3859,-2.239638 6.07827,-4.982965 L 114.30002,74.342065 100.146,60.198312 85.991979,46.054557 94.350876,37.364143 c 4.597395,-4.779728 8.735114,-8.690414 9.194944,-8.690414 0.45982,0 7.10386,6.252761 14.76451,13.895024 l 13.92847,13.895024 5.34722,-5.347226 5.34723,-5.347227 -13.86522,-13.72978 C 121.44214,24.488165 115.2028,17.912425 115.2028,17.426787 c 0,-1.059816 15.84887,-17.14288871 16.89325,-17.14288871 0.40136,0 10.94098,10.22081771 23.42137,22.71293071 l 22.69163,22.712929 -28.09635,28.11322 c -15.45299,15.46227 -28.09634,28.514982 -28.09634,29.006032 0,1.41133 8.17936,9.87861 9.5427,9.87861 0.6758,0 13.798,-12.56173 29.16044,-27.914948 l 27.93172,-27.914954 8.81673,8.674827 c 10.26121,10.096045 11.17665,6.857816 -7.02799,24.860383 -6.39966,6.32861 -11.63758,11.896402 -11.63983,12.372872 -0.006,1.31111 8.35069,9.91782 9.63203,9.91996 0.61556,0.001 7.34839,-6.21237 14.96185,-13.807547 l 13.84266,-13.809423 8.8856,9.073191 8.88561,9.073189 -10.78813,10.61174 c -5.93348,5.83646 -12.25035,12.33532 -14.03751,14.44193 l -3.24937,3.83017 4.57969,4.48923 c 2.51883,2.46906 5.0571,4.48921 5.64062,4.48921 0.58352,0 7.19934,-6.09585 14.70183,-13.54635 l 13.64088,-13.54636 8.66702,8.39039 c 4.76686,4.61471 8.66701,8.70533 8.66701,9.09027 0,0.38494 -10.19542,10.93132 -22.65649,23.43639 l -22.65648,22.73651 -27.99387,-27.93296 c -15.39663,-15.36313 -28.60429,-27.93297 -29.35034,-27.93297 -1.60394,0 -9.76655,8.11889 -9.76655,9.71424 0,0.60584 9.07055,10.13488 20.15678,21.17566 11.08623,11.04076 23.66662,23.62823 27.95643,27.97214 l 7.79965,7.89803 -8.66371,8.89144 -8.66372,8.89143 -14.03693,-14.00323 -14.03693,-14.00323 -3.01398,1.97484 c -1.65769,1.08616 -4.09311,3.49033 -5.41205,5.34261 l -2.39807,3.36778 14.05212,14.08595 14.05212,14.08594 -8.92639,8.64156 -8.92638,8.64157 -13.78672,-13.75363 c -7.5827,-7.56448 -14.2411,-13.75361 -14.79645,-13.75361 -1.06617,0 -9.7456,9.00306 -9.7456,10.109 0,0.35548 6.23896,6.90031 13.86436,14.54407 l 13.86436,13.89773 -8.63016,8.54664 c -4.7466,4.70065 -8.8184,8.54663 -9.04848,8.54663 -0.23007,0 -10.76137,-10.3523 -23.40288,-23.0051 z"
     id="path5241"
     inkscape:connector-curvature="0" />
</svg>
