<?xml version="1.0" encoding="UTF-8" standalone="no"?>
<!-- Created with Inkscape (http://www.inkscape.org/) -->

<svg
   xmlns:dc="http://purl.org/dc/elements/1.1/"
   xmlns:cc="http://creativecommons.org/ns#"
   xmlns:rdf="http://www.w3.org/1999/02/22-rdf-syntax-ns#"
   xmlns:svg="http://www.w3.org/2000/svg"
   xmlns="http://www.w3.org/2000/svg"
   xmlns:sodipodi="http://sodipodi.sourceforge.net/DTD/sodipodi-0.dtd"
   xmlns:inkscape="http://www.inkscape.org/namespaces/inkscape"
   version="1.1"
   id="svg92"
   width="62.041218mm"
   height="58.820244mm"
   viewBox="0 0 234.48649 222.31273"
   sodipodi:docname="esoterica-triquetra.svg"
   inkscape:version="0.92.5 (2060ec1f9f, 2020-04-08)">
  <metadata
     id="metadata98">
    <rdf:RDF>
      <cc:Work
         rdf:about="">
        <dc:format>image/svg+xml</dc:format>
        <dc:type
           rdf:resource="http://purl.org/dc/dcmitype/StillImage" />
        <dc:title></dc:title>
      </cc:Work>
    </rdf:RDF>
  </metadata>
  <defs
     id="defs96" />
  <sodipodi:namedview
     pagecolor="#ffffff"
     bordercolor="#666666"
     borderopacity="1"
     objecttolerance="10"
     gridtolerance="10"
     guidetolerance="10"
     inkscape:pageopacity="0"
     inkscape:pageshadow="2"
     inkscape:window-width="1920"
     inkscape:window-height="997"
     id="namedview94"
     showgrid="false"
     units="mm"
     fit-margin-top="0"
     fit-margin-left="0"
     fit-margin-right="0"
     fit-margin-bottom="0"
     inkscape:zoom="0.88059701"
     inkscape:cx="116.34054"
     inkscape:cy="110.58306"
     inkscape:window-x="0"
     inkscape:window-y="28"
     inkscape:window-maximized="1"
     inkscape:current-layer="svg92" />
  <path
     style="fill:#000000;fill-opacity:0;stroke:#ff0000;stroke-width:0.56779659;stroke-miterlimit:4;stroke-dasharray:none;stroke-opacity:1"
     d="M 116.44015,0.32732894 109.18038,4.7238139 C 95.69622,12.888702 81.063168,26.581764 72.254602,39.278501 66.091091,48.16264 59.622219,62.325675 56.508509,73.755064 c -1.655296,6.076039 -2.839243,11.558439 -2.63086,12.183589 0.208383,0.62515 3.700369,-0.62416 7.757813,-2.77734 4.057444,-2.15318 10.250803,-4.75026 13.763672,-5.771484 6.264578,-1.821162 6.444786,-1.992735 9.433596,-8.912109 3.81722,-8.837228 8.80246,-16.681227 15.38281,-24.201172 6.36117,-7.269467 14.43,-14.082031 16.67578,-14.082031 0.93383,0 6.37833,4.726576 12.09961,10.503906 16.14623,16.304417 23.76434,32.120104 26.92969,55.90625 2.12177,15.944107 -1.86744,35.457147 -10.56641,51.691407 -4.41582,8.24093 -14.86179,21.72681 -19.18164,24.76367 -2.45404,1.72521 -2.69716,3.12961 -0.69141,3.99609 0.78073,0.33727 5.50925,2.43016 10.50586,4.65039 4.99661,2.22024 10.1254,4.04278 11.39844,4.05078 4.51339,0.027 17.64233,-18.74699 24.78711,-35.44336 6.44903,-15.0705 8.97636,-29.85784 8.30274,-48.57812 -0.3034,-8.431777 -1.39547,-19.141987 -2.42774,-23.800777 C 174.88254,63.65071 166.14723,45.55752 156.42648,33.149595 148.05146,22.459402 132.46625,9.0494149 121.44992,3.0538919 Z m 0.80859,79.30468406 c -20.26873,-0.0464 -32.35479,2.32355 -48.261716,9.45899 C 28.22513,107.37575 0.27989872,148.85449 0.28389872,191.06951 l 0.002,12.30274 5.96093798,3.38086 c 11.6575073,6.61413 25.2820463,11.49413 38.1289063,13.65625 16.496543,2.77636 41.521307,1.24171 54.523437,-3.34571 7.53198,-2.65744 7.61546,-2.97558 1.73047,-6.61718 -3.03821,-1.88005 -8.36236,-5.86324 -11.83008,-8.85352 l -6.30468,-5.4375 -13.181647,0.64844 c -11.200886,0.55164 -14.859833,0.2644 -24.355468,-1.91992 -6.146057,-1.4138 -13.140339,-3.35237 -15.542969,-4.30664 l -4.369141,-1.73438 0.740234,-6.36328 c 1.566882,-13.48631 7.685155,-28.4783 16.482422,-40.38672 5.689339,-7.70138 17.809422,-19.61947 22.744141,-22.36523 2.186017,-1.21634 5.979566,-3.42118 8.431641,-4.90039 2.452075,-1.47922 9.350377,-4.39112 15.330077,-6.47071 10.48467,-3.64625 11.4795,-3.77977 27.90625,-3.73437 14.22262,0.0393 18.20673,0.44093 24.13282,2.43554 l 7.09765,2.38868 v -4.78125 c 0,-4.4492 -1.65531,-15.716567 -2.9707,-20.220707 -0.98486,-3.37237 -9.02142,-4.7698 -27.69141,-4.8125 z m 73.2461,24.972657 -0.82227,9.63672 c -0.4526,5.30105 -1.52651,12.3124 -2.38476,15.58008 -1.41775,5.39784 -1.37982,6.1049 0.41211,7.72656 7.18858,6.50559 18.75092,32.59948 20.05859,45.26953 0.57565,5.57758 0.4464,5.94546 -2.5625,7.31641 -1.74285,0.7941 -8.31922,2.69191 -14.61328,4.21679 -27.75488,6.72428 -54.30183,1.00423 -78.70313,-16.95898 -13.04416,-9.60256 -23.96407,-25.36691 -29.990232,-43.29102 -2.099849,-6.24577 -3.906562,-11.52902 -4.013672,-11.74023 -0.435122,-0.85799 -10.38104,5.71917 -15.539062,10.27539 l -5.515625,4.87109 1.363281,5.06446 c 1.62513,6.03316 10.461416,23.92773 14.591797,29.55273 19.494193,26.54838 45.681923,43.17016 76.074223,48.28516 26.58896,4.4749 54.27068,-0.39167 78.26757,-13.76172 8.11689,-4.5224 7.91838,-3.80247 5.92383,-21.44531 -3.24124,-28.67069 -14.45717,-52.49503 -33.83984,-71.88672 z"
     id="path6368"
     inkscape:connector-curvature="0" />
</svg>
