<?xml version="1.0" encoding="UTF-8" standalone="no"?>
<!-- Created with Inkscape (http://www.inkscape.org/) -->

<svg
   xmlns:dc="http://purl.org/dc/elements/1.1/"
   xmlns:cc="http://creativecommons.org/ns#"
   xmlns:rdf="http://www.w3.org/1999/02/22-rdf-syntax-ns#"
   xmlns:svg="http://www.w3.org/2000/svg"
   xmlns="http://www.w3.org/2000/svg"
   xmlns:sodipodi="http://sodipodi.sourceforge.net/DTD/sodipodi-0.dtd"
   xmlns:inkscape="http://www.inkscape.org/namespaces/inkscape"
   version="1.1"
   id="svg62"
   width="45.583012mm"
   height="67.091614mm"
   viewBox="0 0 172.28225 253.57461"
   sodipodi:docname="hermetica-ariel.svg"
   inkscape:version="0.92.5 (2060ec1f9f, 2020-04-08)">
  <metadata
     id="metadata68">
    <rdf:RDF>
      <cc:Work
         rdf:about="">
        <dc:format>image/svg+xml</dc:format>
        <dc:type
           rdf:resource="http://purl.org/dc/dcmitype/StillImage" />
        <dc:title></dc:title>
      </cc:Work>
    </rdf:RDF>
  </metadata>
  <defs
     id="defs66" />
  <sodipodi:namedview
     pagecolor="#ffffff"
     bordercolor="#666666"
     borderopacity="1"
     objecttolerance="10"
     gridtolerance="10"
     guidetolerance="10"
     inkscape:pageopacity="0"
     inkscape:pageshadow="2"
     inkscape:window-width="1920"
     inkscape:window-height="997"
     id="namedview64"
     showgrid="false"
     units="mm"
     fit-margin-top="0"
     fit-margin-left="0"
     fit-margin-right="0"
     fit-margin-bottom="0"
     inkscape:zoom="0.88059701"
     inkscape:cx="294.86954"
     inkscape:cy="118.26725"
     inkscape:window-x="0"
     inkscape:window-y="28"
     inkscape:window-maximized="1"
     inkscape:current-layer="svg62" />
  <path
     style="fill:#ff0000;fill-opacity:0.01829266;stroke:#ff0000;stroke-width:0.56779659;stroke-miterlimit:4;stroke-dasharray:none;stroke-opacity:1"
     d="m 74.905137,252.63805 c -9.51403,-2.49419 -18.497017,-10.06914 -23.649127,-19.94223 -3.29612,-6.31643 -3.59108,-7.7678 -3.59108,-17.66982 0,-9.90578 0.29287,-11.34542 3.58085,-17.6017 4.04973,-7.70573 8.71255,-12.49015 16.561897,-16.99379 l 5.39407,-3.0949 v -28.84972 -28.84972 l -13.343217,0.0385 -13.34323,0.0385 -5.01057,8.76236 c -2.75582,4.81931 -6.78883,11.70072 -8.96226,15.29204 l -3.95168,6.52966 H 14.52812 0.46544963 l 1.89986997,-3.69068 c 1.04493,-2.02991 4.7169,-8.54537 8.1599404,-14.47885 3.44305,-5.93347 7.88517,-13.59873 9.8714,-17.0339 1.98622,-3.43517 6.50364,-11.22374 10.03871,-17.307938 3.53506,-6.084199 6.42739,-11.370991 6.42739,-11.74843 0,-0.37744 0.95164,-2.042682 2.11476,-3.700539 2.12977,-3.035689 17.68221,-29.684217 22.366257,-38.323759 1.38613,-2.556652 3.8547,-6.762387 5.48571,-9.346077 1.63101,-2.583692 2.96548,-5.149877 2.96548,-5.702635 0,-0.552759 0.94011,-2.223719 2.08913,-3.713245 1.14903,-1.489526 3.78676,-5.774331 5.86163,-9.521789 2.07488,-3.747457 4.82903,-8.6880223 6.12034,-10.9790353 l 2.34784,-4.16547626 3.51936,6.43666326 c 3.13713,5.7376113 14.017423,24.6563743 25.253593,43.9112383 2.18684,3.747458 5.49861,9.624153 7.35952,13.059322 1.86091,3.43517 4.34007,7.602192 5.50924,9.260048 1.16919,1.657857 2.12579,3.309661 2.12579,3.670676 0,0.361016 2.04406,3.996003 4.54237,8.077751 2.4983,4.081748 4.54237,7.657944 4.54237,7.947104 0,0.289159 1.78856,3.321713 3.97458,6.739003 2.18602,3.417308 3.97458,6.517878 3.97458,6.890168 0,0.3723 1.78855,3.47287 3.97457,6.89016 2.18602,3.41729 3.97458,6.44985 3.97458,6.73901 0,0.28916 2.04407,3.86536 4.54237,7.94711 2.49831,4.08174 4.54237,7.65794 4.54237,7.9471 0,0.28916 1.78856,3.32172 3.97458,6.73901 2.18602,3.4173 3.97458,6.49331 3.97458,6.8356 0,0.34229 -6.3813,0.62235 -14.18068,0.62235 h -14.18066 l -2.66439,-4.25847 c -1.4654,-2.34216 -5.4322,-9.22187 -8.81509,-15.28825 l -6.15071,-11.02978 -13.91102,-0.0423 -13.911013,-0.0423 v 28.82223 28.82224 l 6.332033,3.20371 c 6.32775,3.20156 13.31819,10.31883 16.63807,16.93995 2.69178,5.36847 4.60954,15.08682 3.99687,20.2544 -1.28249,10.81726 -4.10595,17.23396 -10.43619,23.71762 -8.58686,8.79498 -14.67991,11.49577 -26.734853,11.85041 -5.31785,0.15644 -11.20187,-0.11746 -13.07559,-0.60868 z m 14.81607,-23.98493 c 3.01923,0 9.50776,-6.87483 10.25677,-10.86743 1.014483,-5.40764 -0.0868,-8.82776 -4.15134,-12.8923 -3.05868,-3.05867 -4.27676,-3.49451 -9.76648,-3.49451 -5.61871,0 -6.67412,0.40215 -10.13299,3.86101 -3.39046,3.39047 -3.86102,4.57314 -3.86102,9.70416 0,4.72159 0.54599,6.38913 2.84451,8.68765 3.34025,3.34026 9.57229,6.27783 11.72718,5.52781 0.83181,-0.28952 2.21932,-0.52639 3.08337,-0.52639 z M 110.67632,93.770192 c 0,-0.485605 -0.76006,-1.968054 -1.68902,-3.294331 -0.92896,-1.326278 -5.43462,-8.980526 -10.012573,-17.00944 -9.76269,-17.122004 -12.11667,-20.830263 -13.22295,-20.830263 -0.44873,0 -2.85722,3.704873 -5.35219,8.233051 -2.49498,4.528178 -7.69025,13.669074 -11.54505,20.313102 -3.8548,6.644028 -7.00873,12.392971 -7.00873,12.775421 0,0.38246 10.98687,0.69538 24.41526,0.69538 13.42839,0 24.415253,-0.39732 24.415253,-0.88292 z"
     id="path5283"
     inkscape:connector-curvature="0" />
</svg>
