<?xml version="1.0" encoding="UTF-8" standalone="no"?>
<!-- Created with Inkscape (http://www.inkscape.org/) -->

<svg
   xmlns:dc="http://purl.org/dc/elements/1.1/"
   xmlns:cc="http://creativecommons.org/ns#"
   xmlns:rdf="http://www.w3.org/1999/02/22-rdf-syntax-ns#"
   xmlns:svg="http://www.w3.org/2000/svg"
   xmlns="http://www.w3.org/2000/svg"
   xmlns:sodipodi="http://sodipodi.sourceforge.net/DTD/sodipodi-0.dtd"
   xmlns:inkscape="http://www.inkscape.org/namespaces/inkscape"
   version="1.1"
   id="svg62"
   width="52.679775mm"
   height="52.676331mm"
   viewBox="0 0 199.10466 199.09164"
   sodipodi:docname="esoterica-samhain.svg"
   inkscape:version="0.92.5 (2060ec1f9f, 2020-04-08)">
  <metadata
     id="metadata68">
    <rdf:RDF>
      <cc:Work
         rdf:about="">
        <dc:format>image/svg+xml</dc:format>
        <dc:type
           rdf:resource="http://purl.org/dc/dcmitype/StillImage" />
        <dc:title></dc:title>
      </cc:Work>
    </rdf:RDF>
  </metadata>
  <defs
     id="defs66" />
  <sodipodi:namedview
     pagecolor="#ffffff"
     bordercolor="#666666"
     borderopacity="1"
     objecttolerance="10"
     gridtolerance="10"
     guidetolerance="10"
     inkscape:pageopacity="0"
     inkscape:pageshadow="2"
     inkscape:window-width="1920"
     inkscape:window-height="997"
     id="namedview64"
     showgrid="false"
     units="mm"
     fit-margin-top="0"
     fit-margin-left="0"
     fit-margin-right="0"
     fit-margin-bottom="0"
     inkscape:zoom="0.88059701"
     inkscape:cx="99.307336"
     inkscape:cy="99.307344"
     inkscape:window-x="0"
     inkscape:window-y="28"
     inkscape:window-maximized="1"
     inkscape:current-layer="svg62" />
  <path
     style="fill:#000000;fill-opacity:0;stroke:#ff0000;stroke-width:0.56779659;stroke-miterlimit:4;stroke-dasharray:none;stroke-opacity:1"
     d="m 95.105646,149.97753 v -9.08475 h 19.588984 19.58898 v 9.08475 9.08475 H 114.69463 95.105646 Z"
     id="path5295"
     inkscape:connector-curvature="0" />
  <path
     style="fill:#000000;fill-opacity:0;stroke:#ff0000;stroke-width:0.56779659;stroke-miterlimit:4;stroke-dasharray:none;stroke-opacity:1"
     d="M 110.43615,114.77414 V 95.469057 h 9.08475 9.08475 v 19.305083 19.30509 h -9.08475 -9.08475 z"
     id="path5297"
     inkscape:connector-curvature="0" />
  <path
     style="fill:#000000;fill-opacity:0;stroke:#ff0000;stroke-width:0.56779659;stroke-miterlimit:4;stroke-dasharray:none;stroke-opacity:1"
     d="m 95.105646,79.570747 v -9.08475 h 19.588984 19.58898 v 9.08475 9.08475 H 114.69463 95.105646 Z"
     id="path5299"
     inkscape:connector-curvature="0" />
  <path
     style="fill:#000000;fill-opacity:0;stroke:#ff0000;stroke-width:0.56779659;stroke-miterlimit:4;stroke-dasharray:none;stroke-opacity:1"
     d="m 65.012421,48.909731 v -9.084746 h 19.305085 19.305084 v 9.084746 9.084745 H 84.317506 65.012421 Z"
     id="path5301"
     inkscape:connector-curvature="0" />
  <path
     style="fill:#000000;fill-opacity:0;stroke:#ff0000;stroke-width:0.56779659;stroke-miterlimit:4;stroke-dasharray:none;stroke-opacity:1"
     d="m 69.811236,84.397017 0.31135,-19.021185 8.80085,-0.331666 8.80085,-0.331666 v 19.352857 19.352853 h -9.1122 -9.11221 z"
     id="path5303"
     inkscape:connector-curvature="0" />
  <path
     style="fill:#000000;fill-opacity:0;stroke:#ff0000;stroke-width:0.56779659;stroke-miterlimit:4;stroke-dasharray:none;stroke-opacity:1"
     d="m 65.012421,120.45211 v -9.08475 h 19.305085 19.305084 v 9.08475 9.08474 H 84.317506 65.012421 Z"
     id="path5305"
     inkscape:connector-curvature="0" />
  <path
     style="fill:#000000;fill-opacity:0;stroke:#ff0000;stroke-width:0.56779659;stroke-miterlimit:4;stroke-dasharray:none;stroke-opacity:1"
     d="M 40.02937,114.77414 V 95.469057 h 9.084746 9.084745 v 19.305083 19.30509 H 49.114116 40.02937 Z"
     id="path5307"
     inkscape:connector-curvature="0" />
  <path
     style="fill:#000000;fill-opacity:0;stroke:#ff0000;stroke-width:0.56779659;stroke-miterlimit:4;stroke-dasharray:none;stroke-opacity:1"
     d="m 99.744836,0.29016632 c -0.39297,-0.0089 -0.78607,-0.0084 -1.17773,0.002 -0.83555,0.02214 -1.66757,0.08814 -2.49219,0.201172 -5.8679,0.80428498 -14.74762,5.11690198 -18.23242,8.85546898 -3.34488,3.5884537 -6.72816,11.6549937 -7.66407,18.2695307 l -0.76367,5.392578 h 8.91992 8.91797 l 1.3711,-5.126953 c 1.01289,-3.787074 2.33643,-5.714835 5.0625,-7.376953 5.06707,-3.089452 8.122294,-2.831214 12.472654,1.052735 l 3.70899,3.310547 0.35937,19.40039 0.35938,19.402344 h 9.00976 9.00977 V 45.588995 c 0,-10.238682 -0.60385,-20.706144 -1.39258,-24.13086 C 124.56676,9.9654873 111.92688,0.56460132 99.744836,0.29016632 Z m -69.953125,0.189453 C 25.013332,0.39349932 20.057364,1.5136103 15.248742,3.9503233 5.3870933,8.9475993 0.28389829,17.818106 0.28389829,29.958135 c 0,7.741631 0.323203,8.904916 4.04296901,14.535156 6.0299417,9.126921 11.4913237,12.56142 21.0605467,13.246094 l 7.828125,0.560547 V 49.210088 40.120245 L 27.86593,39.516729 c -6.384372,-0.719612 -9.41211,-3.790649 -9.41211,-9.544922 0,-5.112788 1.572522,-7.897044 5.654297,-10.007812 5.018587,-2.595212 7.817361,-2.096702 12.060547,2.146484 l 3.861328,3.859375 v 18.851562 18.851563 h 9.083985 9.083984 v -20.21875 c 0,-19.409916 -0.114405,-20.450257 -2.902344,-26.044922 C 49.958707,6.6995253 40.304145,0.66908532 29.791711,0.47961932 Z m 139.496099,0.04688 c -8.57203,0.106208 -16.80778,3.96612698 -22.32227,10.83593668 -4.30083,5.357871 -5.86914,9.848907 -5.86914,16.814453 v 4.833984 h 9.08594 9.08398 v -3.910156 c 0,-5.230669 3.89781,-9.600733 9.3379,-10.466797 3.7719,-0.600488 4.67635,-0.224037 8.37695,3.476563 3.7006,3.700599 4.07705,4.605046 3.47656,8.376953 -0.40299,2.531344 -1.85478,5.253573 -3.61523,6.783203 -2.8007,2.433489 -3.85558,2.554688 -22.18164,2.554688 h -19.24219 v 9.08398 9.085938 h 20.16406 c 11.09035,0 21.80049,-0.469853 23.79883,-1.042969 8.97796,-2.574845 17.7575,-13.697025 19.2168,-24.34375 C 200.3977,19.480899 191.04399,5.5242263 177.88351,1.6983693 175.04002,0.87174532 172.14515,0.49109132 169.28781,0.52649532 Z M 141.0964,64.807749 v 19.257808 19.257813 l 8.80078,0.38672 c 4.84046,0.21286 8.9298,0.48955 9.08594,0.61524 0.15615,0.12569 0.2832,-8.714463 0.2832,-19.644543 V 64.807745 h -9.08398 z m 24.98438,5.384758 v 9.08594 9.08594 l 4.4375,0.71094 c 3.01967,0.48286 5.381,1.82802 7.38281,4.20703 3.39319,4.03259 3.65327,6.6006 1.16211,11.417973 -2.87271,5.55521 -7.30633,6.66796 -26.57422,6.66796 h -17.07031 v 9.21094 9.21094 l 20.1582,-0.46289 c 17.88346,-0.41064 20.79527,-0.75176 25.82031,-3.02149 7.19784,-3.25113 10.33819,-6.20639 13.77539,-12.95898 3.83691,-7.53784 4.4911,-13.923383 2.22266,-21.726563 -3.37817,-11.62049 -12.34148,-18.9169 -25.35351,-20.63867 z m -120.884772,0.29297 c -9.650189,0 -20.100661,0.5492 -23.222656,1.21875 -7.580054,1.62563 -14.0689137,6.5389 -18.2402347,13.8125 -2.94924101,5.14264 -3.43025301,7.13448 -3.43945301,14.25586 -0.01118,8.686083 1.68687201,13.421833 7.06640601,19.722663 3.2587337,3.81683 11.3404427,8.02497 17.2949217,9.0039 9.103514,1.49662 8.560547,1.99557 8.560547,-7.90234 v -8.93945 l -4.359375,-0.69727 c -2.397709,-0.38341 -5.747176,-1.98272 -7.443359,-3.55469 -2.641344,-2.44792 -3.034608,-3.61559 -2.738281,-8.134763 0.27859,-4.24871 0.970618,-5.74131 3.548828,-7.66211 2.893429,-2.15565 4.998563,-2.42049 21.859375,-2.7461 l 18.658203,-0.35937 v -9.00781 -9.00977 z m 24.076168,65.865243 0.47852,20.25195 c 0.4599,19.48495 0.59922,20.49147 3.67187,26.56445 3.11217,6.1511 6.63224,9.6501 13.6836,13.60547 2.38253,1.33645 6.1064,1.95106 11.97461,1.97656 7.435844,0.0323 9.274884,-0.39744 14.494144,-3.39062 9.4052,-5.39377 15.03125,-15.38591 15.03125,-26.69922 0,-2.71808 -0.20882,-2.7832 -8.93945,-2.7832 h -8.93946 l -0.69922,4.37109 c -1.11069,6.94587 -4.50877,10.39063 -10.248044,10.39063 -5.26804,0 -9.12289,-2.65297 -10.99024,-7.56446 -0.58631,-1.54213 -1.0664,-10.43568 -1.0664,-19.76367 v -16.95898 h -9.22461 z m 71.654304,0 0.36914,22.42773 0.36914,22.42774 3.40625,4.75781 c 1.87373,2.61661 6.16131,6.57692 9.52735,8.80078 5.63024,3.71976 6.79352,4.04297 14.53515,4.04297 5.58939,0 9.63491,-0.62791 12.04883,-1.8711 14.14622,-7.28548 20.35667,-20.65606 16.21289,-34.91015 -3.33602,-11.47549 -15.41424,-21.13281 -26.42773,-21.13281 h -4.88672 v 9.08398 9.08398 h 3.51953 c 4.20331,0 11.24219,6.36425 11.24219,10.16407 0,3.38227 -2.99163,8.84003 -5.61524,10.24414 -3.47457,1.85954 -9.79056,1.36218 -12.71094,-1 -2.60614,-2.108 -2.69192,-2.72594 -3.03906,-22.14453 l -0.35742,-19.97461 h -9.0957 z m -97.320316,4.54297 c -11.525252,0 -20.671162,0.52201 -22.996094,1.31445 -6.142571,2.09366 -12.8202737,7.18512 -16.4023427,12.50586 -2.840033,4.21853 -3.36828901,6.22493 -3.72656301,14.1289 -0.307631,6.78673 0.04982,10.11382 1.35546901,12.63868 2.813517,5.44074 7.642946,10.6347 13.1249997,14.11132 4.390754,2.78453 6.199239,3.21485 13.478515,3.21485 5.154218,0 9.808385,-0.66486 12.029297,-1.71875 9.919722,-4.70722 16.612982,-14.34968 17.515625,-25.23438 l 0.494141,-5.97851 h -9.224609 -9.22461 v 4.0625 c 0,9.24222 -12.285843,14.41533 -18.789062,7.91211 -4.123415,-4.12341 -3.885912,-11.05159 0.53125,-15.46875 l 3.320312,-3.32032 H 43.916711 62.74093 v -9.08398 -9.08398 z"
     id="path5309"
     inkscape:connector-curvature="0" />
</svg>
