<?xml version="1.0" encoding="UTF-8" standalone="no"?>
<!-- Created with Inkscape (http://www.inkscape.org/) -->

<svg
   xmlns:dc="http://purl.org/dc/elements/1.1/"
   xmlns:cc="http://creativecommons.org/ns#"
   xmlns:rdf="http://www.w3.org/1999/02/22-rdf-syntax-ns#"
   xmlns:svg="http://www.w3.org/2000/svg"
   xmlns="http://www.w3.org/2000/svg"
   xmlns:sodipodi="http://sodipodi.sourceforge.net/DTD/sodipodi-0.dtd"
   xmlns:inkscape="http://www.inkscape.org/namespaces/inkscape"
   version="1.1"
   id="svg72"
   width="64.148003mm"
   height="63.148235mm"
   viewBox="0 0 242.44915 238.6705"
   sodipodi:docname="esoterica-yule.svg"
   inkscape:version="0.92.5 (2060ec1f9f, 2020-04-08)">
  <metadata
     id="metadata78">
    <rdf:RDF>
      <cc:Work
         rdf:about="">
        <dc:format>image/svg+xml</dc:format>
        <dc:type
           rdf:resource="http://purl.org/dc/dcmitype/StillImage" />
        <dc:title></dc:title>
      </cc:Work>
    </rdf:RDF>
  </metadata>
  <defs
     id="defs76" />
  <sodipodi:namedview
     pagecolor="#ffffff"
     bordercolor="#666666"
     borderopacity="1"
     objecttolerance="10"
     gridtolerance="10"
     guidetolerance="10"
     inkscape:pageopacity="0"
     inkscape:pageshadow="2"
     inkscape:window-width="1920"
     inkscape:window-height="997"
     id="namedview74"
     showgrid="false"
     units="mm"
     fit-margin-top="0"
     fit-margin-left="0"
     fit-margin-right="0"
     fit-margin-bottom="0"
     inkscape:zoom="0.88059701"
     inkscape:cx="120.8839"
     inkscape:cy="119.37643"
     inkscape:window-x="0"
     inkscape:window-y="28"
     inkscape:window-maximized="1"
     inkscape:current-layer="svg72" />
  <path
     style="fill:#000000;fill-opacity:0;stroke:#ff0000;stroke-width:0.56779659;stroke-miterlimit:4;stroke-dasharray:none;stroke-opacity:1"
     d="m 16.182203,236.85594 c -4.059746,-0.76903 -9.2976687,-1.42208 -11.6398297,-1.45123 -2.529871,-0.0315 -4.25847501,-0.60715 -4.25847501,-1.41814 0,-1.66416 3.33965801,-21.41306 8.50677501,-50.30436 5.4204487,-30.3078 11.9901167,-67.60507 12.5016997,-70.97458 0.71328,-4.69798 8.431736,-48.1429 11.978245,-67.422028 1.823563,-9.913046 3.038158,-18.47258 2.6991,-19.021186 C 35.63066,25.715809 29.251205,25.266948 21.79315,25.266948 H 8.2330513 V 12.775423 0.28389829 H 125.19915 242.16526 V 12.775423 25.266948 h -19.44704 -19.44703 l 0.68395,3.419767 c 0.37618,1.880871 1.2546,6.863287 1.95204,11.072034 2.28275,13.775172 16.37032,93.687981 21.66829,122.914981 1.86809,10.30551 4.11139,23.44718 4.98513,29.20373 0.87375,5.75654 2.88122,16.96153 4.46104,24.89999 3.73666,18.77619 3.74638,18.57425 -0.89358,18.57425 -3.57721,0 -15.09513,1.77321 -19.11757,2.9432 -1.51676,0.44118 -2.01781,-0.60172 -2.62191,-5.45737 -0.41076,-3.30154 -2.47289,-15.4566 -4.58253,-27.01126 -4.536,-24.84402 -9.21704,-51.29004 -11.45722,-64.72881 -0.88496,-5.3089 -3.35092,-19.36186 -5.47989,-31.22881 -2.12898,-11.866953 -5.75899,-32.307634 -8.0667,-45.423736 -2.3077,-13.116101 -4.78131,-27.169067 -5.49691,-31.228813 l -1.30109,-7.381356 -57.28005,-0.294523 c -31.504032,-0.161988 -57.665389,0.09352 -58.136346,0.567797 -0.470958,0.474276 -2.192565,8.527573 -3.825793,17.896217 -3.190542,18.301812 -8.448571,47.960241 -14.797387,83.466104 -2.177773,12.17924 -4.675383,26.48771 -5.550244,31.79661 -4.37288,26.53586 -13.243769,74.90696 -14.167445,77.25209 -0.595385,1.51162 -1.634213,1.55503 -8.064772,0.3369 z"
     id="path5262"
     inkscape:connector-curvature="0" />
  <path
     style="fill:#000000;fill-opacity:0;stroke:#ff0000;stroke-width:0.56779659;stroke-miterlimit:4;stroke-dasharray:none;stroke-opacity:1"
     d="m 116.11441,58.53562 c -3.4944,-1.271523 -7.94422,-6.536723 -8.63461,-10.216795 -0.5584,-2.976522 -0.0686,-4.779416 2.25056,-8.283888 4.77891,-7.221412 12.58664,-8.151209 18.90276,-2.251067 6.02404,5.627292 4.24483,15.876628 -3.44651,19.853971 -3.3519,1.733337 -6.04383,1.999728 -9.0722,0.897779 z"
     id="path5264"
     inkscape:connector-curvature="0" />
  <path
     style="fill:#000000;fill-opacity:0;stroke:#ff0000;stroke-width:0.56779659;stroke-miterlimit:4;stroke-dasharray:none;stroke-opacity:1"
     d="m 74.035464,57.665889 c -4.318617,-2.349018 -7.232106,-8.472918 -6.326831,-13.298449 1.312103,-6.99411 9.238675,-12.166581 15.189672,-9.911994 7.738943,2.931965 10.911873,9.902839 7.846653,17.238945 -2.78031,6.654228 -10.428984,9.387645 -16.709494,5.971498 z"
     id="path5266"
     inkscape:connector-curvature="0" />
  <path
     style="fill:#000000;fill-opacity:0;stroke:#ff0000;stroke-width:0.56779659;stroke-miterlimit:4;stroke-dasharray:none;stroke-opacity:1"
     d="m 91.871148,90.802707 c -4.13075,-3.30553 -5.471452,-11.675103 -2.57767,-16.091578 4.52957,-6.912998 13.598302,-7.846242 19.220492,-1.977941 5.59037,5.835087 4.81399,14.313089 -1.7305,18.897029 -3.79272,2.65652 -11.062632,2.2531 -14.912322,-0.82751 z"
     id="path5268"
     inkscape:connector-curvature="0" />
  <path
     style="fill:#000000;fill-opacity:0;stroke:#ff0000;stroke-width:0.56779659;stroke-miterlimit:4;stroke-dasharray:none;stroke-opacity:1"
     d="m 133.49778,92.045817 c -2.24052,-1.08269 -6.02744,-8.163446 -6.02744,-11.270058 0,-3.408467 3.95496,-8.950836 7.63248,-10.695931 3.39792,-1.612422 4.76416,-1.708034 8.4835,-0.593692 9.90442,2.967437 11.8095,15.671073 3.37371,22.496911 -2.10497,1.70325 -9.99134,1.74002 -13.46225,0.0628 z"
     id="path5270"
     inkscape:connector-curvature="0" />
  <path
     style="fill:#000000;fill-opacity:0;stroke:#ff0000;stroke-width:0.56779659;stroke-miterlimit:4;stroke-dasharray:none;stroke-opacity:1"
     d="m 153.94536,57.12008 c -4.53535,-2.765402 -6.03434,-5.52648 -6.03434,-11.115033 0,-3.475784 0.77141,-5.132787 3.69068,-7.927578 5.727,-5.482822 11.86088,-5.435232 17.43135,0.135242 5.57448,5.574481 5.4045,10.761004 -0.54775,16.71326 -5.06849,5.068487 -8.88206,5.643963 -14.53994,2.194109 z"
     id="path5272"
     inkscape:connector-curvature="0" />
  <path
     style="fill:#000000;fill-opacity:0;stroke:#ff0000;stroke-width:0.56779659;stroke-miterlimit:4;stroke-dasharray:none;stroke-opacity:1"
     d="m 114.32126,126.99454 c -4.37896,-1.90672 -7.74612,-8.49671 -6.72256,-13.15695 0.90261,-4.10957 7.66853,-10.21471 11.32028,-10.21471 3.74497,0 7.50222,1.59635 10.53865,4.47756 1.91139,1.81368 2.55508,3.7108 2.55508,7.53036 0,6.50337 -2.53781,10.35545 -7.782,11.81207 -5.17324,1.43691 -5.62698,1.41638 -9.90945,-0.44833 z"
     id="path5274"
     inkscape:connector-curvature="0" />
</svg>
