<?xml version="1.0" encoding="UTF-8" standalone="no"?>
<!-- Created with Inkscape (http://www.inkscape.org/) -->

<svg
   xmlns:dc="http://purl.org/dc/elements/1.1/"
   xmlns:cc="http://creativecommons.org/ns#"
   xmlns:rdf="http://www.w3.org/1999/02/22-rdf-syntax-ns#"
   xmlns:svg="http://www.w3.org/2000/svg"
   xmlns="http://www.w3.org/2000/svg"
   xmlns:sodipodi="http://sodipodi.sourceforge.net/DTD/sodipodi-0.dtd"
   xmlns:inkscape="http://www.inkscape.org/namespaces/inkscape"
   version="1.1"
   id="svg62"
   width="61.564899mm"
   height="38.008446mm"
   viewBox="0 0 232.68624 143.65397"
   sodipodi:docname="esoterica-spiritual_technology.svg"
   inkscape:version="0.92.5 (2060ec1f9f, 2020-04-08)">
  <metadata
     id="metadata68">
    <rdf:RDF>
      <cc:Work
         rdf:about="">
        <dc:format>image/svg+xml</dc:format>
        <dc:type
           rdf:resource="http://purl.org/dc/dcmitype/StillImage" />
        <dc:title></dc:title>
      </cc:Work>
    </rdf:RDF>
  </metadata>
  <defs
     id="defs66" />
  <sodipodi:namedview
     pagecolor="#ffffff"
     bordercolor="#666666"
     borderopacity="1"
     objecttolerance="10"
     gridtolerance="10"
     guidetolerance="10"
     inkscape:pageopacity="0"
     inkscape:pageshadow="2"
     inkscape:window-width="1920"
     inkscape:window-height="997"
     id="namedview64"
     showgrid="false"
     units="mm"
     fit-margin-top="0"
     fit-margin-left="0"
     fit-margin-right="0"
     fit-margin-bottom="0"
     inkscape:zoom="0.88059701"
     inkscape:cx="116.25571"
     inkscape:cy="71.928637"
     inkscape:window-x="0"
     inkscape:window-y="28"
     inkscape:window-maximized="1"
     inkscape:current-layer="svg62" />
  <path
     style="fill:#000000;fill-opacity:0;stroke:#ff0000;stroke-width:0.56779659;stroke-miterlimit:4;stroke-dasharray:none;stroke-opacity:1"
     d="m 59.816722,143.02399 c -0.624576,-0.23664 -4.96822,-1.59573 -9.652542,-3.02021 -8.715103,-2.65021 -9.905494,-3.22961 -20.067141,-9.76727 C 18.097589,122.51646 7.716935,107.79943 1.962599,90.349269 0.36295605,85.498309 0.06283805,81.422999 0.41547205,69.340789 0.82353705,55.359329 1.111296,53.739499 4.692317,45.266009 16.619075,17.044625 41.614338,0.25411829 71.628439,0.30183129 c 15.758926,0.02505 28.011816,3.68108401 40.312351,12.02844971 3.85025,2.61285 4.56761,2.76342 6.20784,1.302983 4.0591,-3.614157 20.43117,-10.8888267 27.19382,-12.0831447 3.9434,-0.69642201 10.95629,-1.26622101 15.58422,-1.26622101 25.05735,0 46.84004,12.00716771 60.85766,33.54627071 10.56642,16.23608 13.57969,39.96254 7.52064,59.21755 -11.67346,37.096991 -50.76204,58.244971 -87.88239,47.546771 -5.53492,-1.59518 -13.49048,-4.9619 -17.67903,-7.4816 l -7.61556,-4.5813 -6.57936,4.05267 c -11.217185,6.90941 -21.808215,9.97571 -36.104789,10.45299 -6.870339,0.22935 -13.002543,0.22339 -13.627119,-0.0133 z m 31.591093,-29.03508 c 4.17278,-2.14022 7.58687,-4.21607 7.58687,-4.61301 0,-0.39694 -1.50009,-3.74168 -3.33354,-7.43275 -8.71522,-17.545381 -8.51722,-44.019781 0.46163,-61.726571 l 3.13634,-6.185028 -2.42287,-1.961919 c -2.98866,-2.42007 -14.818211,-6.422168 -21.689015,-7.337686 -6.016613,-0.8017 -18.278284,1.789982 -25.291162,5.345653 -9.096405,4.612061 -16.797432,12.99653 -21.697066,23.6226 -3.477764,7.54239 -3.487915,28.96093 -0.01726,36.42174 5.433546,11.680411 14.650736,20.343061 27.319948,25.676291 5.773507,2.43041 8.024611,2.74385 17.492739,2.43567 9.773426,-0.31811 11.629696,-0.74513 18.453386,-4.24499 z m 89.055525,0.0915 c 17.81418,-8.32913 28.7778,-26.849311 27.17959,-45.912811 -1.27875,-15.2528 -12.26375,-31.990601 -25.04285,-38.157664 -7.78676,-3.757802 -18.74429,-6.080669 -25.13878,-5.329122 -6.6612,0.782894 -17.19319,4.201348 -21.36437,6.934414 l -2.86838,1.879439 3.48698,8.156843 c 5.14935,12.04547 6.53883,18.35879 6.55382,29.77843 0.0151,11.5322 -1.78527,19.73777 -6.71738,30.615311 l -3.36136,7.41334 2.75951,1.80811 c 1.51773,0.99445 5.7048,3.04347 9.30459,4.55336 5.57316,2.3376 8.06273,2.69772 16.76541,2.42513 8.85566,-0.27738 11.3183,-0.83348 18.44322,-4.16478 z M 117.80768,78.089259 c 0.76596,-5.10777 0.0192,-16.07302 -1.17603,-17.26823 -2.08077,-2.08078 -3.61102,9.07351 -2.37528,17.314 0.9947,6.63311 2.55276,6.61303 3.55131,-0.0458 z"
     id="path4719"
     inkscape:connector-curvature="0" />
  <path
     style="fill:#000000;fill-opacity:0;stroke:#ff0000;stroke-width:0.56779659;stroke-miterlimit:4;stroke-dasharray:none;stroke-opacity:1"
     d="m 154.17593,82.144159 -6.37509,-10.25738 1.84963,-3.65784 c 1.0173,-2.01182 2.99111,-5.1909 4.38625,-7.06463 1.39513,-1.87373 3.40131,-5.08559 4.45817,-7.13748 l 1.92156,-3.7307 3.65352,5.43409 c 2.00945,2.98875 5.0229,7.77311 6.69657,10.63191 l 3.04303,5.19783 -4.66618,7.8615 c -2.56639,4.32382 -5.54957,9.01318 -6.62927,10.42079 l -1.96309,2.5593 z"
     id="path4721"
     inkscape:connector-curvature="0" />
  <path
     style="fill:#000000;fill-opacity:0;stroke:#ff0000;stroke-width:0.56779659;stroke-miterlimit:4;stroke-dasharray:none;stroke-opacity:1"
     d="m 69.185366,89.507419 c -1.093008,-1.45843 -1.987288,-2.92159 -1.987288,-3.25146 0,-0.32987 -2.030709,-3.74166 -4.512686,-7.58176 -3.493734,-5.40549 -4.250007,-7.40135 -3.349346,-8.83917 0.639838,-1.02143 3.327586,-5.39778 5.972775,-9.72521 2.645189,-4.32743 5.330528,-8.04175 5.96742,-8.25405 0.63689,-0.21229 2.3027,1.65076 3.701799,4.14012 1.399098,2.48936 4.228658,7.02977 6.287911,10.08981 l 3.744094,5.5637 -2.979221,4.41 c -1.638572,2.4255 -4.374787,6.81092 -6.080475,9.74537 -3.89845,6.70687 -4.334597,6.94559 -6.764983,3.70265 z"
     id="path4723"
     inkscape:connector-curvature="0" />
</svg>
