<?xml version="1.0" encoding="UTF-8" standalone="no"?>
<!-- Created with Inkscape (http://www.inkscape.org/) -->

<svg
   xmlns:dc="http://purl.org/dc/elements/1.1/"
   xmlns:cc="http://creativecommons.org/ns#"
   xmlns:rdf="http://www.w3.org/1999/02/22-rdf-syntax-ns#"
   xmlns:svg="http://www.w3.org/2000/svg"
   xmlns="http://www.w3.org/2000/svg"
   xmlns:sodipodi="http://sodipodi.sourceforge.net/DTD/sodipodi-0.dtd"
   xmlns:inkscape="http://www.inkscape.org/namespaces/inkscape"
   version="1.1"
   id="svg62"
   width="61.577946mm"
   height="61.486118mm"
   viewBox="0 0 232.73554 232.38848"
   sodipodi:docname="hermetica-magnesium.svg"
   inkscape:version="0.92.5 (2060ec1f9f, 2020-04-08)">
  <metadata
     id="metadata68">
    <rdf:RDF>
      <cc:Work
         rdf:about="">
        <dc:format>image/svg+xml</dc:format>
        <dc:type
           rdf:resource="http://purl.org/dc/dcmitype/StillImage" />
        <dc:title></dc:title>
      </cc:Work>
    </rdf:RDF>
  </metadata>
  <defs
     id="defs66" />
  <sodipodi:namedview
     pagecolor="#ffffff"
     bordercolor="#666666"
     borderopacity="1"
     objecttolerance="10"
     gridtolerance="10"
     guidetolerance="10"
     inkscape:pageopacity="0"
     inkscape:pageshadow="2"
     inkscape:window-width="1920"
     inkscape:window-height="997"
     id="namedview64"
     showgrid="false"
     units="mm"
     fit-margin-top="0"
     fit-margin-left="0"
     fit-margin-right="0"
     fit-margin-bottom="0"
     inkscape:zoom="0.88059701"
     inkscape:cx="116.33275"
     inkscape:cy="116.05334"
     inkscape:window-x="0"
     inkscape:window-y="28"
     inkscape:window-maximized="1"
     inkscape:current-layer="svg62" />
  <path
     style="fill:#ff0000;fill-opacity:0.01829266;stroke:#ff0000;stroke-width:0.56779659;stroke-miterlimit:4;stroke-dasharray:none;stroke-opacity:1"
     d="M 117.24095,0.28435974 C 97.676767,0.24443074 85.211927,2.7804747 68.979231,10.100766 26.922522,29.066641 0.30915133,69.951719 0.28391933,115.63592 c -0.01159,20.98103 4.76282597,39.83189 14.54492167,57.42188 6.178546,11.11015 8.275998,13.80741 19.566406,25.16015 17.158111,17.25283 31.315487,25.18647 57.86328,32.42774 4.72181,1.28794 11.232363,1.62733 26.685553,1.38672 20.21973,-0.31483 20.57522,-0.36449 32.84765,-4.53516 39.28702,-13.35132 67.05085,-42.45668 77.66016,-81.41016 2.57093,-9.43951 2.94669,-13.0589 2.99609,-28.95703 0.048,-15.44355 -0.3467,-19.787429 -2.63281,-28.957029 C 219.49049,46.760889 187.227,14.421678 145.18431,3.3429527 135.33349,0.74714974 131.37466,0.31320974 117.24095,0.28435974 Z M 116.04369,24.671079 c 9.53949,-0.08453 19.14458,1.371208 28.45117,4.492187 28.92219,9.6991 49.41388,29.990764 59.08203,58.501955 6.62591,19.539709 6.432,38.612659 -0.60156,58.900389 -9.63267,27.7846 -32.03341,49.05219 -61.20899,58.11523 -5.7644,1.79063 -32.98623,3.10169 -41.55859,2.00196 C 90.778547,205.47315 73.61818,198.32275 64.436263,191.77655 46.81702,179.215 32.563574,158.57034 27.403059,138.13787 25.399093,130.2034 25.418391,101.02068 27.432356,93.850761 29.947069,84.898141 36.508561,71.126315 41.774153,63.74725 59.396441,39.051826 87.425207,24.924668 116.04369,24.671079 Z M 104.74877,52.969907 V 73.40936 c 0,11.421821 -0.4518,20.441411 -1.0254,20.441401 -0.99492,0 -14.283813,-7.24188 -16.576173,-9.0332 -0.62457,-0.48806 -4.20176,-2.562104 -7.949216,-4.609373 -3.747458,-2.047268 -7.777843,-4.384304 -8.957031,-5.193359 -1.906274,-1.30792 -2.356144,-1.069367 -4.056641,2.152343 -1.051897,1.992895 -3.8003,7.002949 -6.107421,11.132809 l -4.19336,7.50782 12.792969,7.185539 c 16.5142,9.27513 21.4655,12.53513 21.0293,13.84375 -0.19451,0.58353 -3.14963,2.58675 -6.56641,4.45117 -3.416777,1.86443 -7.999529,4.51395 -10.185546,5.88868 -2.186017,1.37472 -5.847515,3.47479 -8.136719,4.66601 -9.726994,5.06157 -9.613359,4.51727 -3.220703,15.37891 3.121267,5.30328 5.841615,10.14009 6.044922,10.75 0.203306,0.60992 3.908399,-0.99495 8.234375,-3.56641 17.642431,-10.48706 26.063784,-15.13086 27.431644,-15.13086 1.1138,0 1.44141,4.66463 1.44141,20.43946 v 20.4414 h 11.92382 11.92383 v -20.4414 c 0,-15.60963 0.33592,-20.43437 1.41992,-20.41407 0.78072,0.0146 3.97477,1.51391 7.09766,3.33204 3.12288,1.81812 8.08403,4.61667 11.02539,6.21679 2.94136,1.60011 7.76831,4.44424 10.72656,6.32031 2.95825,1.87606 5.70934,3.41016 6.11328,3.41016 0.40395,0 1.70903,-1.91565 2.9004,-4.25781 1.19136,-2.34216 3.87789,-7.02954 5.96874,-10.41602 l 3.80079,-6.1582 -2.66602,-2.03125 c -1.46628,-1.11777 -4.45227,-2.94752 -6.63672,-4.06445 -2.18446,-1.11693 -5.76164,-3.14253 -7.94922,-4.50196 -2.18758,-1.35942 -6.78944,-4.00432 -10.22461,-5.8789 -3.43517,-1.87459 -6.24414,-4.02285 -6.24414,-4.77344 0,-0.75059 6.8983,-5.36909 15.33008,-10.26367 8.43178,-4.89458 16.07599,-9.342739 16.98828,-9.884769 1.38088,-0.82044 1.07368,-1.921 -1.83594,-6.56836 -1.92226,-3.07032 -4.67975,-7.753752 -6.12695,-10.408201 -2.6109,-4.788909 -4.16936,-5.746289 -6.24414,-3.832031 -0.59335,0.54744 -3.3769,2.280168 -6.1875,3.84961 -2.81059,1.569438 -9.60602,5.464242 -15.09961,8.656252 -5.4936,3.19202 -10.47624,5.80469 -11.07226,5.80468 -0.64771,2e-5 -1.08399,-8.22417 -1.08399,-20.441401 V 52.969907 h -11.92383 z"
     id="path5283"
     inkscape:connector-curvature="0" />
</svg>
