<?xml version="1.0" encoding="UTF-8" standalone="no"?>
<!-- Created with Inkscape (http://www.inkscape.org/) -->

<svg
   xmlns:dc="http://purl.org/dc/elements/1.1/"
   xmlns:cc="http://creativecommons.org/ns#"
   xmlns:rdf="http://www.w3.org/1999/02/22-rdf-syntax-ns#"
   xmlns:svg="http://www.w3.org/2000/svg"
   xmlns="http://www.w3.org/2000/svg"
   xmlns:sodipodi="http://sodipodi.sourceforge.net/DTD/sodipodi-0.dtd"
   xmlns:inkscape="http://www.inkscape.org/namespaces/inkscape"
   version="1.1"
   id="svg32"
   width="66.303703mm"
   height="40.247715mm"
   viewBox="0 0 250.59668 152.11735"
   sodipodi:docname="esoterica-caves.svg"
   inkscape:version="0.92.5 (2060ec1f9f, 2020-04-08)">
  <metadata
     id="metadata38">
    <rdf:RDF>
      <cc:Work
         rdf:about="">
        <dc:format>image/svg+xml</dc:format>
        <dc:type
           rdf:resource="http://purl.org/dc/dcmitype/StillImage" />
        <dc:title></dc:title>
      </cc:Work>
    </rdf:RDF>
  </metadata>
  <defs
     id="defs36" />
  <sodipodi:namedview
     pagecolor="#ffffff"
     bordercolor="#666666"
     borderopacity="1"
     objecttolerance="10"
     gridtolerance="10"
     guidetolerance="10"
     inkscape:pageopacity="0"
     inkscape:pageshadow="2"
     inkscape:window-width="1920"
     inkscape:window-height="997"
     id="namedview34"
     showgrid="false"
     units="mm"
     fit-margin-top="0"
     fit-margin-left="0"
     fit-margin-right="0"
     fit-margin-bottom="0"
     inkscape:zoom="0.88059701"
     inkscape:cx="-86.830474"
     inkscape:cy="75.394485"
     inkscape:window-x="0"
     inkscape:window-y="28"
     inkscape:window-maximized="1"
     inkscape:current-layer="svg32" />
  <path
     style="fill:#000000;fill-opacity:0;stroke:#ff0000;stroke-width:0.56779659;stroke-miterlimit:4;stroke-dasharray:none;stroke-opacity:1"
     d="m 85.143166,114.21619 -37.31618,-37.550845 14.32042,-14.35229 c 7.87623,-7.89375 14.32043,-14.83685 14.32043,-15.4291 0,-0.59225 -2.15894,-3.27661 -4.79763,-5.965238 l -4.79762,-4.888422 -24.46199,24.44303 -24.46198,24.44303 -8.7738398,-8.8256 -8.77383001,-8.8256 L 33.733296,33.947168 67.065646,0.62918039 78.867916,12.387039 c 6.49125,6.466823 12.97187,12.750789 14.40139,13.964367 l 2.59911,2.206507 14.112334,-14.078444 14.11233,-14.07844361 15.0429,15.00892561 15.0429,15.008927 14.7831,-14.787874 14.7831,-14.78787361 33.22533,33.21101261 33.22533,33.211012 -8.77384,8.8256 -8.77383,8.8256 -24.43334,-24.38279 -24.43334,-24.382794 -6.03705,5.789156 -6.03705,5.789158 3.76586,3.94748 c 2.07123,2.17111 8.48019,8.61806 14.24214,14.32655 l 10.47626,10.37907 -37.72414,37.758485 c -20.74829,20.76716 -38.23803,37.72875 -38.8661,37.69243 -0.62807,-0.0363 -17.93424,-16.96394 -38.458144,-37.61691 z m 59.422244,-17.355255 19.81052,-19.83482 -2.7888,-3.07629 c -1.53383,-1.69196 -10.65864,-10.91889 -20.27737,-20.5043 L 123.8212,36.017523 105.20591,54.496465 c -10.238414,10.16342 -19.158734,19.44121 -19.822934,20.61733 -1.0507,1.86051 1.35199,4.70114 18.490004,21.86017 10.83369,10.846985 19.96409,19.721785 20.28977,19.721785 0.32567,0 9.50687,-8.92567 20.40266,-19.834815 z"
     id="path3065"
     inkscape:connector-curvature="0" />
</svg>
