<?xml version="1.0" encoding="UTF-8" standalone="no"?>
<!-- Created with Inkscape (http://www.inkscape.org/) -->

<svg
   xmlns:dc="http://purl.org/dc/elements/1.1/"
   xmlns:cc="http://creativecommons.org/ns#"
   xmlns:rdf="http://www.w3.org/1999/02/22-rdf-syntax-ns#"
   xmlns:svg="http://www.w3.org/2000/svg"
   xmlns="http://www.w3.org/2000/svg"
   xmlns:sodipodi="http://sodipodi.sourceforge.net/DTD/sodipodi-0.dtd"
   xmlns:inkscape="http://www.inkscape.org/namespaces/inkscape"
   version="1.1"
   id="svg72"
   width="61.443874mm"
   height="61.444901mm"
   viewBox="0 0 232.22882 232.2327"
   sodipodi:docname="esoterica-saules_alt.svg"
   inkscape:version="0.92.5 (2060ec1f9f, 2020-04-08)">
  <metadata
     id="metadata78">
    <rdf:RDF>
      <cc:Work
         rdf:about="">
        <dc:format>image/svg+xml</dc:format>
        <dc:type
           rdf:resource="http://purl.org/dc/dcmitype/StillImage" />
        <dc:title></dc:title>
      </cc:Work>
    </rdf:RDF>
  </metadata>
  <defs
     id="defs76" />
  <sodipodi:namedview
     pagecolor="#ffffff"
     bordercolor="#666666"
     borderopacity="1"
     objecttolerance="10"
     gridtolerance="10"
     guidetolerance="10"
     inkscape:pageopacity="0"
     inkscape:pageshadow="2"
     inkscape:window-width="1920"
     inkscape:window-height="997"
     id="namedview74"
     showgrid="false"
     units="mm"
     fit-margin-top="0"
     fit-margin-left="0"
     fit-margin-right="0"
     fit-margin-bottom="0"
     inkscape:zoom="0.88059701"
     inkscape:cx="-157.33644"
     inkscape:cy="106.12286"
     inkscape:window-x="0"
     inkscape:window-y="28"
     inkscape:window-maximized="1"
     inkscape:current-layer="svg72" />
  <path
     style="fill:#000000;fill-opacity:0;stroke:#ff0000;stroke-width:0.56779659;stroke-miterlimit:4;stroke-dasharray:none;stroke-opacity:1"
     d="m 49.988248,207.24797 -0.30605,-24.69915 -24.69915,-0.30604 -24.69914971,-0.30604 V 151.86566 121.79458 H 20.156778 40.029658 v 12.49153 12.49153 h -6.81356 -6.81356 v 5.14989 5.1499 l 11.63983,-0.32363 11.63983,-0.32362 V 115.54882 74.667465 h -11.35593 -11.35593 l -0.34919,4.826271 -0.3492,4.826273 h 6.87886 6.87885 V 97.379328 110.43865 H 20.156778 0.28389829 V 80.345431 50.252211 L 23.563558,50.110262 c 12.80381,-0.07807 23.91843,-0.205827 24.69915,-0.283899 1.07734,-0.107733 1.49326,-6.09535 1.72554,-24.841101 l 0.30604,-24.69915326 h 30.07108 30.071082 V 19.591194 38.896279 H 97.944918 85.453388 v -6.878854 -6.878854 l -4.82627,0.349193 -4.82627,0.349193 v 11.923728 11.923729 l 38.610172,0.316994 c 21.23559,0.174347 39.77767,0.03241 41.20464,-0.315418 2.51923,-0.614074 2.58509,-0.968983 2.27118,-12.240721 l -0.32328,-11.608312 -5.39406,-0.346119 -5.39407,-0.346119 v 6.87578 6.87578 H 134.2839 121.79238 V 19.591194 0.28610874 l 30.37712,-0.0011 30.37711,-0.0011 -0.37541,23.51293226 c -0.34246,21.44927 -0.19882,23.642053 1.63654,24.984103 1.49088,1.090163 7.9848,1.471173 25.07456,1.471173 h 23.06262 v 30.09322 30.093223 H 212.63984 193.33475 V 97.379238 84.319919 h 6.87886 6.87885 l -0.34919,-4.826277 -0.3492,-4.826271 -11.6083,-0.323277 c -11.27174,-0.313903 -11.62666,-0.248052 -12.24073,2.271186 -0.34782,1.426955 -0.48976,19.969048 -0.31541,41.20464 l 0.31698,38.61017 h 11.92373 11.92373 l 0.3492,-4.82627 0.34919,-4.82627 h -6.87885 -6.87886 v -12.49153 -12.49153 h 19.30509 19.30508 v 30.07108 30.07108 l -24.69915,0.30604 -24.69916,0.30604 v 24.70003 24.70003 l -30.37711,-8.8e-4 -30.37712,-8.7e-4 v -19.87288 -19.87289 h 12.43486 12.43484 l 0.34058,6.52967 0.34056,6.52966 h 5.11017 5.11017 v -11.35594 -11.35593 l -41.20513,-0.2981 -41.205142,-0.29811 0.32378,11.65404 0.32378,11.65404 4.82627,0.34919 4.82627,0.3492 v -6.87886 -6.87886 h 12.49153 12.491532 v 19.87289 19.87288 H 80.365368 50.294288 Z M 157.86235,116.81871 c 0.21496,-28.498471 -0.0663,-40.051415 -1.00266,-41.179617 -1.07057,-1.289953 -8.37598,-1.515232 -41.18014,-1.269886 l -39.878702,0.298258 -0.29893,39.739305 c -0.16441,21.85661 -0.0502,40.38745 0.25377,41.17963 0.43516,1.13401 9.19308,1.37689 41.180292,1.14205 l 40.62758,-0.29827 z"
     id="path5262"
     inkscape:connector-curvature="0" />
</svg>
