<?xml version="1.0" encoding="UTF-8" standalone="no"?>
<!-- Created with Inkscape (http://www.inkscape.org/) -->

<svg
   xmlns:dc="http://purl.org/dc/elements/1.1/"
   xmlns:cc="http://creativecommons.org/ns#"
   xmlns:rdf="http://www.w3.org/1999/02/22-rdf-syntax-ns#"
   xmlns:svg="http://www.w3.org/2000/svg"
   xmlns="http://www.w3.org/2000/svg"
   xmlns:sodipodi="http://sodipodi.sourceforge.net/DTD/sodipodi-0.dtd"
   xmlns:inkscape="http://www.inkscape.org/namespaces/inkscape"
   version="1.1"
   id="svg2"
   width="63.790493mm"
   height="57.194763mm"
   viewBox="0 0 241.09793 216.16919"
   sodipodi:docname="esoterica-biohazard.svg"
   inkscape:version="0.92.5 (2060ec1f9f, 2020-04-08)">
  <metadata
     id="metadata8">
    <rdf:RDF>
      <cc:Work
         rdf:about="">
        <dc:format>image/svg+xml</dc:format>
        <dc:type
           rdf:resource="http://purl.org/dc/dcmitype/StillImage" />
        <dc:title></dc:title>
      </cc:Work>
    </rdf:RDF>
  </metadata>
  <defs
     id="defs6" />
  <sodipodi:namedview
     pagecolor="#ffffff"
     bordercolor="#666666"
     borderopacity="1"
     objecttolerance="10"
     gridtolerance="10"
     guidetolerance="10"
     inkscape:pageopacity="0"
     inkscape:pageshadow="2"
     inkscape:window-width="1920"
     inkscape:window-height="997"
     id="namedview4"
     showgrid="false"
     units="mm"
     fit-margin-top="0"
     fit-margin-left="0"
     fit-margin-right="0"
     fit-margin-bottom="0"
     inkscape:zoom="0.88059701"
     inkscape:cx="120.89903"
     inkscape:cy="112.77396"
     inkscape:window-x="0"
     inkscape:window-y="28"
     inkscape:window-maximized="1"
     inkscape:current-layer="svg2" />
  <path
     style="fill:#000000;fill-opacity:0;stroke:#ff0000;stroke-width:0.56779659;stroke-miterlimit:4;stroke-dasharray:none;stroke-opacity:1"
     d="m 84.889264,0.28389829 c -1.713713,0 -12.442626,10.59457671 -16.410156,16.20507771 -12.761392,18.045935 -15.260584,40.431472 -6.871094,61.55078 1.880822,4.7347 3.419922,8.7767 3.419922,8.98242 0,0.20571 -3.194054,0.68157 -7.097656,1.0586 -13.728065,1.3259 -28.740918,8.1711 -38.707031,17.646484 -9.2339259,8.77924 -16.7624629,23.61352 -18.25976585,35.98242 l -0.681641,5.63282 1.56640695,-4.00782 c 9.2723899,-23.73232 28.0393779,-37.4414 51.2558589,-37.4414 14.739384,0 28.064196,5.87835 38.416012,16.94531 5.13229,5.48683 5.14573,5.49101 8.25977,3.60742 2.62448,-1.58746 3.15335,-2.73731 3.34375,-7.25586 0.27843,-6.60783 4.86767,-14.0896 9.66992,-15.76367 2.89958,-1.0108 3.33594,-1.72559 3.33594,-5.472664 0,-4.65194 -1.23639,-5.6875 -6.78906,-5.6875 -4.89082,0 -19.13537,-7.87345 -25.193363,-13.92578 C 64.305363,58.517384 63.038494,27.44911 81.184186,5.6764763 83.656716,2.7097393 85.324088,0.28389829 84.889264,0.28389829 Z M 159.61778,2.9655383 c -0.56611,0.08816 0.0319,1.402735 2.29297,4.089844 1.60169,1.903502 4.55525,6.7957627 6.5625,10.8730467 3.15001,6.39859 3.72233,8.932654 4.18359,18.511719 0.30599,6.354378 -0.0299,13.739878 -0.78711,17.279297 -1.56033,7.293849 -8.52585,19.325821 -14.55273,25.136721 -6.13263,5.91287 -18.20478,12.141 -26.29688,13.5664 l -6.9414,1.22266 v 4.29688 c 0,3.492664 0.47832,4.429264 2.55469,4.998044 6.27965,1.72019 11.24453,8.75773 11.35546,16.0957 0.0701,4.64017 0.50684,5.5425 3.58985,7.4375 l 3.50781,2.15821 3.12109,-3.84766 c 13.3609,-16.47212 37.66822,-23.15632 57.84961,-15.9082 9.80172,3.52028 13.07698,5.65133 21.14649,13.76172 5.44686,5.47448 12.41775,17.31351 12.875,21.86719 0.0941,0.93686 0.38364,0.29131 0.64453,-1.4336 0.63651,-4.20822 -2.20088,-13.58089 -6.53125,-21.56836 -10.01709,-18.47679 -29.72995,-31.478144 -50.69141,-33.435544 -3.9515,-0.369 -7.18554,-0.87055 -7.18554,-1.11329 0,-0.24273 1.2004,-2.8509 2.66601,-5.79687 5.7112,-11.47995 7.40021,-31.250954 3.82617,-44.785158 -2.38029,-9.01364 -9.09647,-20.546712 -16.28906,-27.9726557 -3.5194,-3.633579 -6.17253,-5.546941 -6.90039,-5.433594 z M 120.37169,54.201867 c -6.71849,0.07534 -13.62114,1.151571 -20.14063,3.224609 -5.30889,1.688101 -11.09811,4.22294 -12.86523,5.632812 l -3.212894,2.564454 4.732424,5.375004 c 2.60253,2.95663 5.86622,5.66147 7.2539,6.00976 1.38767,0.34828 5.13749,-0.39707 8.33204,-1.65625 11.38539,-4.4877 23.14357,-4.13651 34.69921,1.03711 2.96528,1.32759 5.3059,1.73609 6.42579,1.12109 3.53801,-1.94293 11.65846,-11.184779 10.90234,-12.408199 -1.12189,-1.815259 -7.94611,-5.056443 -17.08984,-8.115234 -5.78455,-1.935067 -12.31863,-2.860494 -19.03711,-2.785156 z M 54.807233,114.13546 v 5.47657 c 0,18.97251 11.14437,40.35004 27.253906,52.27929 4.059746,3.00627 8.227421,5.48416 9.261721,5.50586 1.23904,0.0259 2.49874,-1.77319 3.6914,-5.27343 2.04097,-5.98995 2.39328,-12.85743 0.66016,-12.85743 -0.63214,0 -4.08197,-2.93798 -7.66797,-6.52929 -7.619274,-7.63057 -12.476808,-16.9175 -14.160154,-27.07618 -1.32353,-7.98725 -1.747903,-8.31486 -13.644532,-10.52343 z m 128.482417,0.91993 c -0.29449,-0.008 -0.62934,9.3e-4 -1.01171,0.0117 -1.71758,0.0484 -5.6779,0.98449 -8.80079,2.08203 -5.58536,1.96299 -5.68911,2.08744 -6.39648,7.57812 -1.57059,12.1909 -9.30157,25.65972 -18.3125,31.9043 -4.73917,3.28424 -4.65553,2.56515 -1.81055,15.41015 1.55808,7.0347 1.47215,7.04052 13.01953,-0.85156 14.10475,-9.63992 25.42383,-31.72553 25.42383,-49.60547 0,-5.66243 -0.0498,-6.47305 -2.11133,-6.52929 z m -49.35156,17.44726 c -1.1031,0.0775 -2.37096,0.63031 -4.61133,1.71485 -6.10098,2.95342 -11.48336,2.96536 -17.21484,0.041 -4.30494,-2.19649 -4.65374,-2.21169 -8.10742,-0.35351 -3.47639,1.87041 -3.55038,2.05725 -1.99024,5.07421 0.89081,1.72264 2.18268,6.92022 2.8711,11.54883 2.33421,15.69411 -2.30978,31.3209 -12.85156,43.25 -5.226419,5.91422 -17.358884,13.53433 -24.734379,15.53321 -6.024652,1.63278 -21.370039,1.9969 -27.822266,0.66015 -7.232719,-1.49845 -3.698128,0.49004 5.939453,3.3418 26.307929,7.78452 56.746752,-2.62957 71.013672,-24.29688 1.72645,-2.62197 3.53171,-4.76757 4.01367,-4.76757 0.48197,0 3.79516,3.57227 7.36133,7.9375 7.57124,9.26771 18.50589,16.98674 29.20508,20.61718 10.5997,3.5967 30.59708,3.64164 40.31445,0.0899 l 6.8125,-2.49024 -7.51758,0.56641 c -33.81175,2.54978 -60.04882,-20.46794 -60.04882,-52.68164 0,-4.7788 0.51018,-10.3473 1.13476,-12.37305 0.62458,-2.02575 1.61271,-5.22022 2.19531,-7.09961 0.96535,-3.11411 0.75708,-3.57228 -2.34375,-5.17578 -1.57861,-0.81633 -2.51604,-1.21419 -3.61914,-1.13672 z"
     id="path1980"
     inkscape:connector-curvature="0" />
</svg>
