<?xml version="1.0" encoding="UTF-8" standalone="no"?>
<!-- Created with Inkscape (http://www.inkscape.org/) -->

<svg
   xmlns:dc="http://purl.org/dc/elements/1.1/"
   xmlns:cc="http://creativecommons.org/ns#"
   xmlns:rdf="http://www.w3.org/1999/02/22-rdf-syntax-ns#"
   xmlns:svg="http://www.w3.org/2000/svg"
   xmlns="http://www.w3.org/2000/svg"
   xmlns:sodipodi="http://sodipodi.sourceforge.net/DTD/sodipodi-0.dtd"
   xmlns:inkscape="http://www.inkscape.org/namespaces/inkscape"
   version="1.1"
   id="svg12"
   width="45.767628mm"
   height="61.781654mm"
   viewBox="0 0 172.98001 233.50547"
   sodipodi:docname="hermetica-moon.svg"
   inkscape:version="0.92.5 (2060ec1f9f, 2020-04-08)">
  <metadata
     id="metadata18">
    <rdf:RDF>
      <cc:Work
         rdf:about="">
        <dc:format>image/svg+xml</dc:format>
        <dc:type
           rdf:resource="http://purl.org/dc/dcmitype/StillImage" />
        <dc:title></dc:title>
      </cc:Work>
    </rdf:RDF>
  </metadata>
  <defs
     id="defs16" />
  <sodipodi:namedview
     pagecolor="#ffffff"
     bordercolor="#666666"
     borderopacity="1"
     objecttolerance="10"
     gridtolerance="10"
     guidetolerance="10"
     inkscape:pageopacity="0"
     inkscape:pageshadow="2"
     inkscape:window-width="1920"
     inkscape:window-height="997"
     id="namedview14"
     showgrid="false"
     units="mm"
     fit-margin-top="0"
     fit-margin-left="0"
     fit-margin-right="0"
     fit-margin-bottom="0"
     inkscape:zoom="0.88059701"
     inkscape:cx="306.09833"
     inkscape:cy="85.523276"
     inkscape:window-x="0"
     inkscape:window-y="28"
     inkscape:window-maximized="1"
     inkscape:current-layer="svg12" />
  <path
     style="fill:#ffff00;fill-opacity:0.01829266;stroke:#ff0000;stroke-width:0.56779659;stroke-miterlimit:4;stroke-dasharray:none;stroke-opacity:1"
     d="M 100.59465,232.42864 C 95.910326,231.91362 86.848426,229.69237 80.457086,227.49251 46.675566,215.86516 22.735266,193.71992 8.9956558,161.38932 -7.0686542,123.58849 -0.43710425,75.257673 25.021136,44.595512 38.542236,28.310565 49.359996,19.781061 67.226956,11.317401 97.312826,-2.934409 133.75127,-3.406943 163.46955,10.069327 l 8.62878,3.912864 -5.94252,1.369936 c -12.48869,2.879036 -32.47765,14.031865 -43.71684,24.391794 -12.07883,11.13388 -22.05726,26.89654 -28.353194,44.78878 l -4.27926,12.16114 0.0213,19.872879 c 0.0209,19.46954 0.0982,20.10336 3.80786,31.22881 5.9105,17.72567 13.423054,29.79497 26.860364,43.15254 13.19325,13.11498 23.51921,19.58773 40.22951,25.21754 l 10.80794,3.64128 -7.60869,3.44995 c -18.40043,8.34316 -41.0422,11.62225 -63.33016,9.1718 z m -1.443934,-32.51592 c -14.65069,-14.4363 -25.68412,-33.58309 -31.10571,-53.97906 -2.78045,-10.46005 -3.12472,-13.71792 -3.10328,-29.36694 0.0213,-15.56385 0.38149,-18.916439 3.11084,-28.957629 5.54636,-20.404816 15.01813,-37.221062 29.38319,-52.167105 4.235704,-4.407005 7.701274,-8.397483 7.701274,-8.86773 0,-0.470247 -1.07742,-0.854994 -2.39425,-0.854994 -3.733964,0 -26.109944,7.820476 -30.537964,10.673117 -10.73797,6.917666 -13.44192,8.913923 -18.17365,13.417153 -19.13675,18.212648 -28.87547,40.715159 -28.89142,66.757188 -0.016,26.20198 9.55063,48.4952 28.50799,66.4322 8.95345,8.47154 12.04503,10.60727 23.40518,16.16881 9.63914,4.71899 20.2738,7.94224 26.910094,8.15617 2.45875,0.0793 1.87139,-0.82531 -4.812294,-7.41118 z"
     id="path5391"
     inkscape:connector-curvature="0" />
</svg>
