<?xml version="1.0" encoding="UTF-8" standalone="no"?>
<!-- Created with Inkscape (http://www.inkscape.org/) -->

<svg
   xmlns:dc="http://purl.org/dc/elements/1.1/"
   xmlns:cc="http://creativecommons.org/ns#"
   xmlns:rdf="http://www.w3.org/1999/02/22-rdf-syntax-ns#"
   xmlns:svg="http://www.w3.org/2000/svg"
   xmlns="http://www.w3.org/2000/svg"
   xmlns:sodipodi="http://sodipodi.sourceforge.net/DTD/sodipodi-0.dtd"
   xmlns:inkscape="http://www.inkscape.org/namespaces/inkscape"
   version="1.1"
   id="svg2"
   width="40.3592mm"
   height="59.641121mm"
   viewBox="0 0 152.53871 225.41526"
   sodipodi:docname="hermetica-phosphorus.svg"
   inkscape:version="0.92.5 (2060ec1f9f, 2020-04-08)">
  <metadata
     id="metadata8">
    <rdf:RDF>
      <cc:Work
         rdf:about="">
        <dc:format>image/svg+xml</dc:format>
        <dc:type
           rdf:resource="http://purl.org/dc/dcmitype/StillImage" />
        <dc:title></dc:title>
      </cc:Work>
    </rdf:RDF>
  </metadata>
  <defs
     id="defs6" />
  <sodipodi:namedview
     pagecolor="#ffffff"
     bordercolor="#666666"
     borderopacity="1"
     objecttolerance="10"
     gridtolerance="10"
     guidetolerance="10"
     inkscape:pageopacity="0"
     inkscape:pageshadow="2"
     inkscape:window-width="1920"
     inkscape:window-height="997"
     id="namedview4"
     showgrid="false"
     units="mm"
     fit-margin-top="0"
     fit-margin-left="0"
     fit-margin-right="0"
     fit-margin-bottom="0"
     inkscape:zoom="0.88059701"
     inkscape:cx="75.892312"
     inkscape:cy="112.93475"
     inkscape:window-x="0"
     inkscape:window-y="28"
     inkscape:window-maximized="1"
     inkscape:current-layer="svg2" />
  <path
     style="fill:#ff0000;fill-opacity:0.01829266;stroke:#ff0000;stroke-width:0.56779659;stroke-miterlimit:4;stroke-dasharray:none;stroke-opacity:1"
     d="m 2.768952,221.44068 c 1.244087,-2.02987 8.007281,-13.65551 15.029318,-25.83475 7.022038,-12.17923 14.401234,-24.95466 16.398215,-28.38983 11.515597,-19.80892 16.893987,-29.09218 23.163527,-39.98092 l 7.00086,-12.15887 -0.3097,-20.773332 L 63.741462,73.529661 41.313498,73.221756 18.885532,72.913851 V 60.470339 48.026826 l 22.427966,-0.307905 22.427964,-0.307905 0.30694,-23.563559 0.30694,-23.56355871 h 11.90069 11.90069 V 24.131355 c 0,18.302436 0.33006,23.855509 1.41949,23.882087 0.78072,0.01904 11.128808,0.1468 22.995758,0.283898 l 21.57627,0.24927 0.32208,12.183992 0.32208,12.183993 -23.03394,0.307532 -23.033948,0.307534 -0.30938,20.690297 -0.30938,20.690292 6.48387,11.10632 c 6.009618,10.29398 12.161628,21.05045 16.283898,28.47157 0.93959,1.69148 3.22011,5.63051 5.06782,8.75339 1.84773,3.12288 4.18186,7.21101 5.18697,9.08474 1.00512,1.87373 4.5301,8.00593 7.8333,13.62712 3.30322,5.62119 7.29519,12.51992 8.87108,15.33051 1.57588,2.81059 3.25868,5.62119 3.73955,6.24576 0.48088,0.62458 2.09876,3.43517 3.5953,6.24577 1.49655,2.81059 3.64858,6.51546 4.7823,8.23305 l 2.06131,3.12288 H 76.259062 0.50697499 Z M 107.4618,199.06315 c 0,-0.59685 -1.14979,-2.87015 -2.55508,-5.05178 -1.4053,-2.18164 -4.66277,-7.69776 -7.238828,-12.25806 -2.57605,-4.56029 -8.40439,-14.65296 -12.95186,-22.42814 -7.70439,-13.17281 -8.37818,-13.9858 -9.88225,-11.92373 -1.93269,2.64973 -28.68746,49.13726 -29.5032,51.26306 -0.46021,1.19927 5.4424,1.48381 30.78091,1.48381 19.17185,0 31.350308,-0.42155 31.350308,-1.08516 z"
     id="path5241"
     inkscape:connector-curvature="0" />
</svg>
