<?xml version="1.0" encoding="UTF-8" standalone="no"?>
<!-- Created with Inkscape (http://www.inkscape.org/) -->

<svg
   xmlns:dc="http://purl.org/dc/elements/1.1/"
   xmlns:cc="http://creativecommons.org/ns#"
   xmlns:rdf="http://www.w3.org/1999/02/22-rdf-syntax-ns#"
   xmlns:svg="http://www.w3.org/2000/svg"
   xmlns="http://www.w3.org/2000/svg"
   xmlns:sodipodi="http://sodipodi.sourceforge.net/DTD/sodipodi-0.dtd"
   xmlns:inkscape="http://www.inkscape.org/namespaces/inkscape"
   version="1.1"
   id="svg22"
   width="61.928104mm"
   height="42.849228mm"
   viewBox="0 0 234.05898 161.94984"
   sodipodi:docname="hermetica-aqua_fortis.svg"
   inkscape:version="0.92.5 (2060ec1f9f, 2020-04-08)">
  <metadata
     id="metadata28">
    <rdf:RDF>
      <cc:Work
         rdf:about="">
        <dc:format>image/svg+xml</dc:format>
        <dc:type
           rdf:resource="http://purl.org/dc/dcmitype/StillImage" />
        <dc:title></dc:title>
      </cc:Work>
    </rdf:RDF>
  </metadata>
  <defs
     id="defs26" />
  <sodipodi:namedview
     pagecolor="#ffffff"
     bordercolor="#666666"
     borderopacity="1"
     objecttolerance="10"
     gridtolerance="10"
     guidetolerance="10"
     inkscape:pageopacity="0"
     inkscape:pageshadow="2"
     inkscape:window-width="1920"
     inkscape:window-height="997"
     id="namedview24"
     showgrid="false"
     units="mm"
     fit-margin-top="0"
     fit-margin-left="0"
     fit-margin-right="0"
     fit-margin-bottom="0"
     inkscape:zoom="0.88059701"
     inkscape:cx="358.87235"
     inkscape:cy="-52.734061"
     inkscape:window-x="0"
     inkscape:window-y="28"
     inkscape:window-maximized="1"
     inkscape:current-layer="svg22" />
  <path
     style="fill:#ff0000;fill-opacity:0.01829266;stroke:#ff0000;stroke-width:0.56779659;stroke-miterlimit:4;stroke-dasharray:none;stroke-opacity:1"
     d="m 91.124852,157.76262 c -1.142,-1.98321 -3.62913,-6.41643 -5.52695,-9.8516 -1.89783,-3.43517 -4.40025,-7.6022 -5.56095,-9.26005 -1.1607,-1.65785 -2.11036,-3.24533 -2.11036,-3.52772 0,-0.64101 -9.92482,-17.92253 -14.00402,-24.38441 -1.66643,-2.6398 -3.02988,-5.07546 -3.02988,-5.41257 0,-0.33711 -1.36477,-2.77459 -3.03282,-5.416632 -1.66806,-2.64204 -4.56057,-7.6143 -6.42782,-11.04947 -1.86724,-3.43517 -4.3351,-7.46446 -5.48412,-8.95399 -1.14903,-1.48953 -2.08914,-3.16049 -2.08914,-3.71325 0,-0.55275 -1.33446,-3.11894 -2.96548,-5.70263 -1.63101,-2.58369 -4.10141,-6.78943 -5.48978,-9.34608 -1.38837,-2.55665 -5.22375,-9.24761 -8.52306,-14.868795 -3.29931,-5.621186 -7.54572,-13.030932 -9.43646,-16.466101 -1.89074,-3.43517 -3.9183,-6.861153 -4.5057,-7.613298 -0.58739,-0.752143 -1.94801,-3.051719 -3.0235903,-5.110169 -1.07559,-2.058449 -3.63629,-6.680982 -5.69045,-10.2722957 L 0.48944166,0.28389829 H 117.03263 233.57585 L 230.5709,5.6779663 c -1.65271,2.966737 -4.86299,8.5781347 -7.13395,12.4697727 l -4.129,7.075705 -23.84746,0.02894 -23.84746,0.02893 -2.22562,3.683499 c -1.22409,2.025917 -3.82226,6.494085 -5.77371,9.929254 -1.95145,3.43517 -5.42131,9.488711 -7.71081,13.452311 -2.28951,3.9636 -4.16274,7.66848 -4.16274,8.23305 0,0.57839 10.21167,1.0265 23.39184,1.0265 h 23.39182 l -2.56282,4.25848 c -1.40954,2.34216 -4.8005,8.19833 -7.53546,13.0137 l -4.97266,8.75522 -23.94373,-0.005 c -13.16904,-0.003 -24.11945,0.17031 -24.33424,0.3851 -0.2148,0.21479 -2.36568,3.94263 -4.77976,8.2841 -4.14581,7.455812 -8.5457,15.081322 -23.72011,41.109682 -3.55022,6.08962 -8.034188,13.9722 -9.964378,17.51685 l -3.50943,6.44484 -2.07637,-3.60585 z m 4.31182,-51.32031 c 1.67038,-2.54933 20.135938,-34.346372 31.313728,-53.921122 2.31824,-4.05975 6.58972,-11.543151 9.4922,-16.629788 2.90246,-5.086637 5.27721,-9.558035 5.27721,-9.936441 0,-0.378405 -21.71823,-0.68801 -48.262718,-0.68801 -36.55271,0 -48.26271,0.327849 -48.26271,1.351227 0,0.743176 2.12126,4.959066 4.71391,9.368645 2.59265,4.409578 6.62384,11.339027 8.95819,15.398767 12.10672,21.05513 21.01089,36.42245 24.34557,42.01695 2.04758,3.43517 4.81748,8.417592 6.15534,11.072042 1.33786,2.65445 2.87433,4.82627 3.41438,4.82627 0.54005,0 1.82475,-1.28635 2.8549,-2.85854 z"
     id="path5429"
     inkscape:connector-curvature="0" />
</svg>
