<?xml version="1.0" encoding="UTF-8" standalone="no"?>
<!-- Created with Inkscape (http://www.inkscape.org/) -->

<svg
   xmlns:dc="http://purl.org/dc/elements/1.1/"
   xmlns:cc="http://creativecommons.org/ns#"
   xmlns:rdf="http://www.w3.org/1999/02/22-rdf-syntax-ns#"
   xmlns:svg="http://www.w3.org/2000/svg"
   xmlns="http://www.w3.org/2000/svg"
   xmlns:sodipodi="http://sodipodi.sourceforge.net/DTD/sodipodi-0.dtd"
   xmlns:inkscape="http://www.inkscape.org/namespaces/inkscape"
   version="1.1"
   id="svg42"
   width="59.964867mm"
   height="54.76767mm"
   viewBox="0 0 226.63887 206.99592"
   sodipodi:docname="hermetica-silver_alt.svg"
   inkscape:version="0.92.5 (2060ec1f9f, 2020-04-08)">
  <metadata
     id="metadata48">
    <rdf:RDF>
      <cc:Work
         rdf:about="">
        <dc:format>image/svg+xml</dc:format>
        <dc:type
           rdf:resource="http://purl.org/dc/dcmitype/StillImage" />
        <dc:title></dc:title>
      </cc:Work>
    </rdf:RDF>
  </metadata>
  <defs
     id="defs46" />
  <sodipodi:namedview
     pagecolor="#ffffff"
     bordercolor="#666666"
     borderopacity="1"
     objecttolerance="10"
     gridtolerance="10"
     guidetolerance="10"
     inkscape:pageopacity="0"
     inkscape:pageshadow="2"
     inkscape:window-width="1920"
     inkscape:window-height="997"
     id="namedview44"
     showgrid="false"
     units="mm"
     fit-margin-top="0"
     fit-margin-left="0"
     fit-margin-right="0"
     fit-margin-bottom="0"
     inkscape:zoom="0.88059701"
     inkscape:cx="-292.02747"
     inkscape:cy="19.494388"
     inkscape:window-x="0"
     inkscape:window-y="28"
     inkscape:window-maximized="1"
     inkscape:current-layer="svg42" />
  <path
     style="fill:#ff0000;fill-opacity:0.01829266;stroke:#ff0000;stroke-width:0.56779659;stroke-miterlimit:4;stroke-dasharray:none;stroke-opacity:1"
     d="m 26.710215,204.48445 c -8.27262,-2.89925 -14.2206,-6.93263 -18.478,-12.53011 -8.41554001,-11.06445 -10.37582,-27.49829 -4.77094,-39.99687 5.7371,-12.79342 17.88183,-21.66288 31.43315,-22.95604 l 6.34393,-0.60538 1.32723,-9.79556 c 1.75007,-12.91646 4.87939,-22.550795 9.91656,-30.530515 5.29859,-8.39386 14.22609,-17.62069 21.77598,-22.506121 3.27903,-2.121811 5.96187,-4.140052 5.96187,-4.484981 0,-0.344927 -0.96289,-2.523097 -2.13975,-4.840376 -3.52371,-6.938277 -5.03172,-16.481247 -3.63418,-22.997735 4.87989,-22.754155 23.91271,-35.872159 47.019255,-32.40711799 6.7433,1.01121999 17.47705,7.68627799 22.66409,14.09425999 8.07986,9.981701 10.40654,26.307339 5.52975,38.800748 -1.34092,3.435169 -2.43737,6.75678 -2.43657,7.381356 8e-4,0.624576 2.342,2.614306 5.20265,4.421621 8.19398,5.176816 18.8063,16.662696 23.32537,25.245396 5.32788,10.118845 6.36793,13.532845 8.08677,26.545285 l 1.42498,10.7877 6.34043,0.68181 c 22.91233,2.46388 38.20195,23.22283 34.08244,46.27422 -4.14018,23.16703 -27.70038,36.70381 -51.211,29.42389 -7.35135,-2.27629 -15.84549,-8.78536 -19.27962,-14.77399 -1.34309,-2.34217 -2.86726,-4.25848 -3.38704,-4.25848 -0.5198,0 -4.7348,1.79973 -9.3667,3.99941 -17.86472,8.48392 -40.79341,8.45114 -58.743385,-0.0839 l -8.58766,-4.08343 -2.81549,3.77465 c -8.18472,10.97305 -17.94456,16.45342 -31.17736,17.5068 -5.32291,0.42372 -8.59723,-0.0505 -14.40676,-2.08652 z m 22.2748,-26.97017 c 6.56611,-6.36412 5.94217,-15.81684 -1.42662,-21.61313 -4.25863,-3.34983 -12.74499,-3.06363 -17.07008,0.57569 -7.57788,6.37636 -7.59897,14.81075 -0.0541,21.62711 4.24448,3.83464 5.10814,4.15801 9.71765,3.63845 3.68654,-0.41553 6.08307,-1.56267 8.83311,-4.22812 z m 144.900905,2.77788 c 6.81056,-3.52187 9.60611,-11.97782 6.16184,-18.63828 -5.44105,-10.52183 -20.07656,-10.83874 -24.96338,-0.54054 -5.96286,12.5658 6.67008,25.45224 18.80154,19.17882 z m -66.27204,-11.76798 c 29.80971,-9.06554 41.34911,-45.84195 22.44247,-71.524815 -3.56084,-4.83706 -7.15594,-8.03953 -12.70228,-11.31504 -9.81081,-5.79399 -16.32614,-7.39707 -27.36059,-6.732 -26.171295,1.5774 -47.038085,27.572405 -42.388605,52.806015 5.24658,28.47425 32.456405,45.14495 60.009005,36.76584 z M 119.86944,51.739599 c 4.26204,-2.181998 8.04546,-8.235078 8.04546,-12.871905 0,-3.726447 -4.2815,-10.202996 -7.98324,-12.076096 -5.99798,-3.035013 -14.86725,-0.906789 -18.63426,4.47138 -2.340925,3.342143 -2.257825,11.640818 0.15751,15.729664 1.93126,3.269354 7.99357,6.568997 12.26508,6.67573 1.24915,0.03122 4.01641,-0.836735 6.14945,-1.928773 z"
     id="path5384"
     inkscape:connector-curvature="0" />
</svg>
