<?xml version="1.0" encoding="UTF-8" standalone="no"?>
<!-- Created with Inkscape (http://www.inkscape.org/) -->

<svg
   xmlns:dc="http://purl.org/dc/elements/1.1/"
   xmlns:cc="http://creativecommons.org/ns#"
   xmlns:rdf="http://www.w3.org/1999/02/22-rdf-syntax-ns#"
   xmlns:svg="http://www.w3.org/2000/svg"
   xmlns="http://www.w3.org/2000/svg"
   xmlns:sodipodi="http://sodipodi.sourceforge.net/DTD/sodipodi-0.dtd"
   xmlns:inkscape="http://www.inkscape.org/namespaces/inkscape"
   version="1.1"
   id="svg52"
   width="64.519402mm"
   height="48.317062mm"
   viewBox="0 0 243.85286 182.61567"
   sodipodi:docname="hermetica-summer.svg"
   inkscape:version="0.92.5 (2060ec1f9f, 2020-04-08)">
  <metadata
     id="metadata58">
    <rdf:RDF>
      <cc:Work
         rdf:about="">
        <dc:format>image/svg+xml</dc:format>
        <dc:type
           rdf:resource="http://purl.org/dc/dcmitype/StillImage" />
        <dc:title></dc:title>
      </cc:Work>
    </rdf:RDF>
  </metadata>
  <defs
     id="defs56" />
  <sodipodi:namedview
     pagecolor="#ffffff"
     bordercolor="#666666"
     borderopacity="1"
     objecttolerance="10"
     gridtolerance="10"
     guidetolerance="10"
     inkscape:pageopacity="0"
     inkscape:pageshadow="2"
     inkscape:window-width="1920"
     inkscape:window-height="997"
     id="namedview54"
     showgrid="false"
     units="mm"
     fit-margin-top="0"
     fit-margin-left="0"
     fit-margin-right="0"
     fit-margin-bottom="0"
     inkscape:zoom="0.88059701"
     inkscape:cx="122.01949"
     inkscape:cy="91.061923"
     inkscape:window-x="0"
     inkscape:window-y="28"
     inkscape:window-maximized="1"
     inkscape:current-layer="svg52" />
  <path
     style="fill:#ff0000;fill-opacity:0.01829266;stroke:#ff0000;stroke-width:0.56779659;stroke-miterlimit:4;stroke-dasharray:none;stroke-opacity:1"
     d="M 13.12774,173.32683 4.2932013,164.44017 34.361022,134.35628 c 16.537302,-16.54614 29.560421,-30.09912 28.940264,-30.11774 -0.620156,-0.0186 -15.05277,-0.004 -32.072473,0.0329 l -30.94491471,0.0668 V 91.813796 79.289366 H 31.323445 c 17.071753,0 31.399739,-0.36019 31.839972,-0.80042 0.440232,-0.44023 -12.614315,-14.22233 -29.010104,-30.626877 L 4.3427873,18.035614 13.179074,9.2848502 22.015363,0.5340862 57.999403,36.504948 c 19.791222,19.783974 36.489158,35.970858 37.106528,35.970858 0.61737,0 17.345309,-16.216877 37.173199,-36.037509 l 36.05071,-36.0375118 8.52788,8.470956 c 4.69033,4.6590258 8.52787,8.7964418 8.52787,9.1942568 0,0.397815 -13.03093,13.74164 -28.95763,29.652943 -15.92669,15.911305 -28.95762,29.523815 -28.95762,30.250035 0,0.97203 8.38912,1.32039 31.79661,1.32039 h 31.79661 v 9.19831 c 0,8.94669 0.10561,9.30392 3.86101,13.059324 3.22931,3.2293 4.66925,3.85443 8.80085,3.82078 10.18548,-0.083 14.57363,-5.452104 14.58489,-17.845364 l 0.007,-8.23305 h 12.62032 12.62032 l -0.44296,11.63983 c -0.34593,9.090334 -0.99716,12.777924 -2.9732,16.835824 -4.09676,8.41297 -9.87894,14.24462 -18.16446,18.31988 -6.90853,3.39799 -8.53271,3.73625 -17.83793,3.71504 -9.24719,-0.0211 -10.89636,-0.3681 -17.05091,-3.58787 -7.7257,-4.04172 -12.54663,-8.69546 -17.21743,-16.62032 l -3.22325,-5.46881 -19.58907,-0.20916 c -12.34971,-0.13186 -19.58904,0.20755 -19.58898,0.9184 4e-5,0.62016 13.15487,14.28965 29.23294,30.37664 l 29.23285,29.24908 -8.79342,8.79342 -8.79344,8.79343 -36.06037,-36.04718 C 112.4551,126.17162 95.767431,109.95039 95.204611,109.95039 c -0.56283,0 -17.272708,16.25921 -37.133071,36.13157 l -36.109751,36.13156 z"
     id="path5347"
     inkscape:connector-curvature="0" />
</svg>
