<?xml version="1.0" encoding="UTF-8" standalone="no"?>
<!-- Created with Inkscape (http://www.inkscape.org/) -->

<svg
   xmlns:dc="http://purl.org/dc/elements/1.1/"
   xmlns:cc="http://creativecommons.org/ns#"
   xmlns:rdf="http://www.w3.org/1999/02/22-rdf-syntax-ns#"
   xmlns:svg="http://www.w3.org/2000/svg"
   xmlns="http://www.w3.org/2000/svg"
   xmlns:sodipodi="http://sodipodi.sourceforge.net/DTD/sodipodi-0.dtd"
   xmlns:inkscape="http://www.inkscape.org/namespaces/inkscape"
   version="1.1"
   id="svg52"
   width="51.011173mm"
   height="49.0863mm"
   viewBox="0 0 192.79814 185.52302"
   sodipodi:docname="hermetica-odins_horns.svg"
   inkscape:version="0.92.5 (2060ec1f9f, 2020-04-08)">
  <metadata
     id="metadata58">
    <rdf:RDF>
      <cc:Work
         rdf:about="">
        <dc:format>image/svg+xml</dc:format>
        <dc:type
           rdf:resource="http://purl.org/dc/dcmitype/StillImage" />
        <dc:title></dc:title>
      </cc:Work>
    </rdf:RDF>
  </metadata>
  <defs
     id="defs56" />
  <sodipodi:namedview
     pagecolor="#ffffff"
     bordercolor="#666666"
     borderopacity="1"
     objecttolerance="10"
     gridtolerance="10"
     guidetolerance="10"
     inkscape:pageopacity="0"
     inkscape:pageshadow="2"
     inkscape:window-width="1920"
     inkscape:window-height="997"
     id="namedview54"
     showgrid="false"
     units="mm"
     fit-margin-top="0"
     fit-margin-left="0"
     fit-margin-right="0"
     fit-margin-bottom="0"
     inkscape:zoom="0.88059701"
     inkscape:cx="93.457845"
     inkscape:cy="84.456731"
     inkscape:window-x="0"
     inkscape:window-y="28"
     inkscape:window-maximized="1"
     inkscape:current-layer="svg52" />
  <path
     style="fill:#ff0000;fill-opacity:0.01829266;stroke:#ff0000;stroke-width:0.56779659;stroke-miterlimit:4;stroke-dasharray:none;stroke-opacity:1"
     d="m 35.883269,142.311 c -8.224211,-2.38168 -11.928277,-4.29059 -11.910321,-6.13804 0.0074,-0.75875 0.956486,-5.21217 2.109136,-9.89649 5.935682,-24.12236 24.116156,-45.23358 48.135521,-55.89512 11.83068,-5.251313 20.22997,-6.775668 34.850275,-6.324843 l 10.70619,0.330132 1.30164,5.112821 c 1.86443,7.32348 2.89314,17.37881 1.93329,18.89741 -0.58769,0.9298 -2.59362,1.00012 -7.0664,0.24772 -3.43517,-0.57786 -9.05636,-0.74367 -12.49153,-0.36845 -27.653335,3.02048 -47.865248,21.00559 -54.268414,48.2895 -2.112336,9.00066 -2.090696,8.99132 -13.299387,5.74536 z"
     id="path6471"
     inkscape:connector-curvature="0" />
  <path
     style="fill:#ff0000;fill-opacity:0.01829266;stroke:#ff0000;stroke-width:0.56779659;stroke-miterlimit:4;stroke-dasharray:none;stroke-opacity:1"
     d="m 64.840895,170.04098 c -0.93686,-0.22402 -5.536016,-1.00477 -10.220338,-1.73501 -17.343533,-2.70368 -38.76713,-16.06232 -50.588573,-31.5444 -5.519914,-7.22921 -4.86879997,-8.27318 1.474166,-2.36361 7.33395,6.83283 17.424013,12.72142 26.970339,15.73996 10.825267,3.42293 28.239676,4.26779 37.587526,1.82354 l 6.9265,-1.81112 4.59569,4.37177 c 2.52763,2.40448 7.25836,6.09713 10.51273,8.20589 l 5.91705,3.83412 -6.6511,1.39147 c -7.02029,1.46871 -23.64109,2.77674 -26.52399,2.08739 z"
     id="path6473"
     inkscape:connector-curvature="0" />
  <path
     style="fill:#ff0000;fill-opacity:0.01829266;stroke:#ff0000;stroke-width:0.56779659;stroke-miterlimit:4;stroke-dasharray:none;stroke-opacity:1"
     d="m 128.43412,168.68585 c -6.90478,-1.19264 -12.98885,-3.28066 -21.37257,-7.33493 -10.239755,-4.95184 -13.042185,-6.9869 -22.188135,-16.11259 -7.63334,-7.61642 -11.64304,-12.70657 -14.80682,-18.79666 l -4.3387,-8.35175 5.51837,-5.61171 c 4.76116,-4.8417 13.64052,-11.18479 15.65702,-11.18479 0.35721,0 0.64948,1.16593 0.64948,2.59097 0,1.42503 2.34935,6.53869 5.22078,11.36368 14.777415,24.83116 44.205795,36.13355 70.263255,26.98561 3.72935,-1.30925 7.37267,-2.15328 8.09627,-1.87561 1.76957,0.67905 4.87779,10.06474 5.72759,17.29527 0.62984,5.35888 0.45649,5.99036 -2.00844,7.31671 -3.84171,2.06719 -23.12717,5.50363 -30.51979,5.43827 -3.43517,-0.0304 -10.58941,-0.80548 -15.89831,-1.72247 z"
     id="path6475"
     inkscape:connector-curvature="0" />
  <path
     style="fill:#ff0000;fill-opacity:0.01829266;stroke:#ff0000;stroke-width:0.56779659;stroke-miterlimit:4;stroke-dasharray:none;stroke-opacity:1"
     d="m 128.90776,134.35716 c -3.79925,-1.08782 -8.53993,-3.14009 -10.53485,-4.5606 l -3.62712,-2.58274 3.36307,-3.83033 C 130.0537,109.77906 134.86048,87.42984 129.71296,69.4299 125.67907,55.324147 119.41794,46.083222 107.72625,36.979303 l -3.10617,-2.418669 5.37736,-5.680545 c 2.95755,-3.1243 7.19308,-7.000973 9.41228,-8.614829 l 4.03493,-2.934283 5.91605,5.175221 c 16.51458,14.446554 27.45631,39.190849 27.4617,62.103592 0.004,17.66312 -5.61959,36.51066 -14.38086,48.19634 -3.14044,4.18867 -3.98404,4.28535 -13.53378,1.55103 z"
     id="path6477"
     inkscape:connector-curvature="0" />
  <path
     style="fill:#ff0000;fill-opacity:0.01829266;stroke:#ff0000;stroke-width:0.56779659;stroke-miterlimit:4;stroke-dasharray:none;stroke-opacity:1"
     d="m 184.55544,181.92054 c 1.72953,-8.84028 2.01905,-19.35516 0.7375,-26.78378 -2.56811,-14.88621 -11.50697,-32.5421 -20.84119,-41.16519 -2.4379,-2.25217 -2.72261,-3.17009 -1.88697,-6.08378 0.54126,-1.88728 1.56952,-7.43502 2.28502,-12.32831 1.50808,-10.31387 1.95683,-10.34428 9.66219,-0.65459 6.78117,8.52748 12.40782,19.35732 15.41414,29.66819 2.21764,7.60588 2.63822,11.58034 2.58369,24.41525 -0.0577,13.589 -0.42382,16.42702 -3.22267,24.98305 -3.38085,10.33519 -6.08841,14.88383 -4.73171,7.94916 z"
     id="path6479"
     inkscape:connector-curvature="0" />
  <path
     style="fill:#ff0000;fill-opacity:0.01829266;stroke:#ff0000;stroke-width:0.56779659;stroke-miterlimit:4;stroke-dasharray:none;stroke-opacity:1"
     d="m 61.434115,65.390564 c 0,-3.825451 9.44413,-23.787411 14.13861,-29.884652 4.23598,-5.501725 7.11278,-8.494748 17.81073,-18.53029 1.16515,-1.093008 2.34001,-1.987288 2.6108,-1.987288 0.27079,0 2.95363,-1.512354 5.961865,-3.360785 9.21169,-5.6601807 28.24663,-11.48856672 37.03813,-11.34085772 3.17542,0.05335 2.84544,0.316564 -2.61098,2.08269202 -8.35797,2.7053 -17.90149,7.6467937 -22.46748,11.6333307 -2.0516,1.791244 -4.14825,3.256806 -4.65922,3.256806 -0.51096,0 -3.69371,3.289523 -7.07276,7.31005 -6.975415,8.299607 -12.912595,19.159447 -14.949265,27.343999 -1.28212,5.152382 -1.70111,5.631823 -5.63192,6.444519 -2.33571,0.482909 -7.82914,2.682083 -12.20763,4.887052 -6.50898,3.277871 -7.96088,3.669151 -7.96088,2.145424 z"
     id="path6481"
     inkscape:connector-curvature="0" />
</svg>
