<?xml version="1.0" encoding="UTF-8" standalone="no"?>
<!-- Created with Inkscape (http://www.inkscape.org/) -->

<svg
   xmlns:dc="http://purl.org/dc/elements/1.1/"
   xmlns:cc="http://creativecommons.org/ns#"
   xmlns:rdf="http://www.w3.org/1999/02/22-rdf-syntax-ns#"
   xmlns:svg="http://www.w3.org/2000/svg"
   xmlns="http://www.w3.org/2000/svg"
   xmlns:sodipodi="http://sodipodi.sourceforge.net/DTD/sodipodi-0.dtd"
   xmlns:inkscape="http://www.inkscape.org/namespaces/inkscape"
   version="1.1"
   id="svg72"
   width="52.430103mm"
   height="61.787041mm"
   viewBox="0 0 198.16102 233.52582"
   sodipodi:docname="hermetica-titan.svg"
   inkscape:version="0.92.5 (2060ec1f9f, 2020-04-08)">
  <metadata
     id="metadata78">
    <rdf:RDF>
      <cc:Work
         rdf:about="">
        <dc:format>image/svg+xml</dc:format>
        <dc:type
           rdf:resource="http://purl.org/dc/dcmitype/StillImage" />
        <dc:title></dc:title>
      </cc:Work>
    </rdf:RDF>
  </metadata>
  <defs
     id="defs76" />
  <sodipodi:namedview
     pagecolor="#ffffff"
     bordercolor="#666666"
     borderopacity="1"
     objecttolerance="10"
     gridtolerance="10"
     guidetolerance="10"
     inkscape:pageopacity="0"
     inkscape:pageshadow="2"
     inkscape:window-width="1920"
     inkscape:window-height="997"
     id="namedview74"
     showgrid="false"
     inkscape:zoom="0.88059701"
     inkscape:cx="506.9856"
     inkscape:cy="91.933839"
     inkscape:window-x="0"
     inkscape:window-y="28"
     inkscape:window-maximized="1"
     inkscape:current-layer="svg72"
     units="mm"
     fit-margin-top="0"
     fit-margin-left="0"
     fit-margin-right="0"
     fit-margin-bottom="0" />
  <path
     style="fill:#ff0000;fill-opacity:0.01829266;stroke:#ff0000;stroke-width:0.56779659;stroke-miterlimit:4;stroke-dasharray:none;stroke-opacity:1"
     d="m 163.49546,233.01905 c -2.57014,-0.29557 -7.12026,-2.42538 -11.35593,-5.31549 -5.81564,-3.96816 -7.71966,-6.11802 -10.74939,-12.1373 -3.07132,-6.10191 -3.68336,-8.59827 -3.69068,-15.05359 -0.0102,-9.16724 1.69375,-13.59695 12.53887,-32.59311 12.77385,-22.37451 14.14572,-25.69056 14.0865,-34.04961 -0.0591,-8.33235 -2.61246,-14.41377 -8.54131,-20.34262 -5.13959,-5.1396 -9.65674,-7.13407 -17.60193,-7.77183 -9.98933,-0.80185 -17.12741,1.81478 -23.41411,8.58298 -4.3318,4.66358 -5.7572,7.54298 -8.40387,16.97638 -0.28627,1.02033 -3.75563,1.41949 -12.337792,1.41949 h -11.93953 l -0.30374,-28.0897 -0.30373,-28.089695 -5.45282,-2.588179 C 69.395308,70.819521 61.681808,63.113599 58.828568,56.786238 l -2.10994,-4.679002 H 28.501268 0.28389829 V 39.635549 27.163862 l 28.08969971,-0.303736 28.0897,-0.303737 2.46407,-5.11017 c 3.29177,-6.826728 12.04028,-14.9246736 19.71246,-18.2465886 9.34518,-4.04629099 21.983642,-3.85931899 31.372032,0.464115 7.96061,3.665926 14.27646,9.6245746 18.50787,17.4611176 l 2.93281,5.431526 28.10213,0.303737 28.10211,0.303736 v 12.471687 12.471687 h -28.37069 -28.37071 l -2.76251,5.394068 c -3.35447,6.549915 -10.99785,14.096949 -17.14863,16.932472 -4.26595,1.966612 -4.56344,2.422127 -4.88849,7.485446 -0.19037,2.965269 0.13114,5.391399 0.71447,5.391399 0.58332,0 4.06068,-1.40529 7.72747,-3.12288 6.15831,-2.884655 7.74972,-3.122878 20.8618,-3.122878 13.1405,0 14.69441,0.233926 20.91921,3.149158 20.91975,9.79727 32.87109,27.804969 32.95559,49.655929 0.0456,11.79228 -2.7849,20.18469 -13.06646,38.74195 -16.00623,28.88979 -15.42903,27.52833 -13.14716,31.01091 2.87055,4.38101 6.97143,5.64738 11.29819,3.48891 3.38184,-1.68709 3.72055,-1.61428 9.80984,2.10885 3.46889,2.12094 7.96787,4.69995 9.99774,5.73114 2.02988,1.03118 3.69068,2.58484 3.69068,3.45258 0,2.04406 -9.7892,10.73186 -14.19491,12.59782 -4.01979,1.70251 -14.13364,2.71302 -20.18675,2.01694 z M 103.75648,48.834056 c 3.60435,-3.604352 4.408,-5.21015 4.40453,-8.800848 -0.008,-8.529757 -6.7565,-15.180209 -15.403472,-15.180209 -3.3235,0 -5.05495,0.890381 -8.57334,4.408774 -3.87991,3.879908 -4.40877,5.053828 -4.40877,9.786141 0,4.732313 0.52886,5.906233 4.40877,9.786142 3.87991,3.879908 5.05383,4.408773 9.78614,4.408773 4.73232,0 5.90623,-0.528865 9.786142,-4.408773 z"
     id="path5262"
     inkscape:connector-curvature="0" />
</svg>
