<?xml version="1.0" encoding="UTF-8" standalone="no"?>
<!-- Created with Inkscape (http://www.inkscape.org/) -->

<svg
   xmlns:dc="http://purl.org/dc/elements/1.1/"
   xmlns:cc="http://creativecommons.org/ns#"
   xmlns:rdf="http://www.w3.org/1999/02/22-rdf-syntax-ns#"
   xmlns:svg="http://www.w3.org/2000/svg"
   xmlns="http://www.w3.org/2000/svg"
   xmlns:sodipodi="http://sodipodi.sourceforge.net/DTD/sodipodi-0.dtd"
   xmlns:inkscape="http://www.inkscape.org/namespaces/inkscape"
   version="1.1"
   id="svg32"
   width="60.348473mm"
   height="54.214386mm"
   viewBox="0 0 228.08872 204.90477"
   sodipodi:docname="hermetica-capricorn.svg"
   inkscape:version="0.92.5 (2060ec1f9f, 2020-04-08)">
  <metadata
     id="metadata38">
    <rdf:RDF>
      <cc:Work
         rdf:about="">
        <dc:format>image/svg+xml</dc:format>
        <dc:type
           rdf:resource="http://purl.org/dc/dcmitype/StillImage" />
        <dc:title></dc:title>
      </cc:Work>
    </rdf:RDF>
  </metadata>
  <defs
     id="defs36" />
  <sodipodi:namedview
     pagecolor="#ffffff"
     bordercolor="#666666"
     borderopacity="1"
     objecttolerance="10"
     gridtolerance="10"
     guidetolerance="10"
     inkscape:pageopacity="0"
     inkscape:pageshadow="2"
     inkscape:window-width="1920"
     inkscape:window-height="997"
     id="namedview34"
     showgrid="false"
     units="mm"
     fit-margin-top="0"
     fit-margin-left="0"
     fit-margin-right="0"
     fit-margin-bottom="0"
     inkscape:zoom="0.88059701"
     inkscape:cx="394.56187"
     inkscape:cy="-48.840323"
     inkscape:window-x="0"
     inkscape:window-y="28"
     inkscape:window-maximized="1"
     inkscape:current-layer="svg32" />
  <path
     style="fill:#ffff00;fill-opacity:0.01829266;stroke:#ff0000;stroke-width:0.56779659;stroke-miterlimit:4;stroke-dasharray:none;stroke-opacity:1"
     d="m 175.27918,203.44218 c -3.99709,-0.89868 -9.29444,-3.03868 -11.77188,-4.75555 -5.2015,-3.60464 -13.23597,-11.75119 -13.23321,-13.41781 0.001,-0.62458 4.65924,-3.80173 10.35159,-7.06034 l 10.34972,-5.92475 3.77404,3.31365 c 8.99696,7.89945 21.77976,4.78638 26.78218,-6.52239 3.60903,-8.15881 3.71597,-7.89832 -20.1206,-49.01518 -2.49831,-4.30945 -8.04884,-14.01288 -12.33452,-21.563182 l -7.79215,-13.72781 h -12.28351 c -9.65272,0 -12.66572,0.38219 -14.06803,1.7845 -0.98148,0.98148 -1.7845,2.2491 -1.7845,2.81693 0,0.56784 -1.78856,3.8284 -3.97458,7.2457 -2.18602,3.417292 -3.97458,6.428802 -3.97458,6.692242 0,0.26344 -3.38026,6.29243 -7.51171,13.39777 -7.63237,13.12631 -8.48259,14.59862 -16.18843,28.03291 -16.749972,29.20176 -19.807092,34.36935 -20.635712,34.88147 -0.51238,0.31667 -3.19166,-3.39305 -5.95396,-8.24381 -6.11281,-10.73448 -24.33493,-42.23104 -25.79768,-44.59076 -1.01749,-1.64141 -8.54476,-14.80971 -18.98704,-33.216112 l -4.99287,-8.80084 H 12.707828 0.28389829 V 72.277288 59.785764 H 20.184888 40.085878 l 1.05839,2.783775 c 0.58211,1.531076 2.46253,4.980441 4.1787,7.665259 1.71617,2.68481 3.96133,6.41453 4.98926,8.28825 6.82444,12.43983 28.43292,49.790132 29.44173,50.890092 1.03487,1.1284 0.75767,1.58074 26.663062,-43.508732 7.35621,-12.80381 13.8876,-23.918432 14.51419,-24.699152 0.78677,-0.9803 4.99872,-1.419492 13.61323,-1.419492 11.05968,0 12.3935,-0.209707 11.76422,-1.849601 -2.1652,-5.642423 -3.1728,-12.663047 -2.63705,-18.374071 1.52524,-16.258785 10.28435,-28.702886 24.97415,-35.4808556 7.20772,-3.32568999 9.37546,-3.79448999 17.55877,-3.79731999 8.63331,-0.003 9.99799,0.33433 18.13408,4.48235999 15.39315,7.8478896 23.26433,20.7178496 23.26433,38.0388526 0,7.9469 -1.75778,15.662026 -4.64499,20.387415 -6.25855,10.243114 -15.97872,17.790534 -26.55522,20.619314 -2.93654,0.78541 -5.33917,1.7134 -5.33917,2.0622 0,0.34881 2.04407,4.13211 4.54237,8.40735 2.49831,4.27524 4.54238,7.962082 4.54238,8.192982 0,0.2309 1.78856,3.21579 3.97457,6.63308 2.18602,3.4173 3.97458,6.48432 3.97458,6.81561 0,0.33129 2.04407,3.94196 4.54237,8.0237 2.49831,4.08175 4.54237,7.69242 4.54237,8.02371 0,0.33128 1.6925,3.26064 3.7611,6.50966 4.6725,7.33878 6.89223,15.11175 6.8612,24.02628 -0.0973,27.95678 -24.7606,47.17818 -52.52532,40.93575 z M 195.07702,57.5914 c 3.29162,-2.069973 7.41994,-8.759032 8.13843,-13.186577 0.81883,-5.04586 -3.38703,-13.679956 -8.04843,-16.522389 -8.22522,-5.015582 -20.14918,-1.685069 -24.71265,6.902562 -3.05061,5.740709 -2.62397,10.69477 1.588,18.439537 l 3.69068,6.78623 8.51695,-0.483322 c 4.68432,-0.265828 9.55648,-1.137046 10.82702,-1.936041 z"
     id="path5350"
     inkscape:connector-curvature="0" />
</svg>
