<?xml version="1.0" encoding="UTF-8" standalone="no"?>
<!-- Created with Inkscape (http://www.inkscape.org/) -->

<svg
   xmlns:dc="http://purl.org/dc/elements/1.1/"
   xmlns:cc="http://creativecommons.org/ns#"
   xmlns:rdf="http://www.w3.org/1999/02/22-rdf-syntax-ns#"
   xmlns:svg="http://www.w3.org/2000/svg"
   xmlns="http://www.w3.org/2000/svg"
   xmlns:sodipodi="http://sodipodi.sourceforge.net/DTD/sodipodi-0.dtd"
   xmlns:inkscape="http://www.inkscape.org/namespaces/inkscape"
   version="1.1"
   id="svg2"
   width="37.681004mm"
   height="61.721592mm"
   viewBox="0 0 142.41639 233.27846"
   sodipodi:docname="hermetica-vesica_pisces.svg"
   inkscape:version="0.92.5 (2060ec1f9f, 2020-04-08)">
  <metadata
     id="metadata8">
    <rdf:RDF>
      <cc:Work
         rdf:about="">
        <dc:format>image/svg+xml</dc:format>
        <dc:type
           rdf:resource="http://purl.org/dc/dcmitype/StillImage" />
        <dc:title></dc:title>
      </cc:Work>
    </rdf:RDF>
  </metadata>
  <defs
     id="defs6" />
  <sodipodi:namedview
     pagecolor="#ffffff"
     bordercolor="#666666"
     borderopacity="1"
     objecttolerance="10"
     gridtolerance="10"
     guidetolerance="10"
     inkscape:pageopacity="0"
     inkscape:pageshadow="2"
     inkscape:window-width="1920"
     inkscape:window-height="997"
     id="namedview4"
     showgrid="false"
     units="mm"
     fit-margin-top="0"
     fit-margin-left="0"
     fit-margin-right="0"
     fit-margin-bottom="0"
     inkscape:zoom="0.88059701"
     inkscape:cx="72.060693"
     inkscape:cy="116.33231"
     inkscape:window-x="0"
     inkscape:window-y="28"
     inkscape:window-maximized="1"
     inkscape:current-layer="svg2" />
  <path
     style="fill:#ff0000;fill-opacity:0.01829266;stroke:#ff0000;stroke-width:0.56779659;stroke-miterlimit:4;stroke-dasharray:none;stroke-opacity:1"
     d="M 59.342053,225.94139 C 46.322113,217.44031 30.169485,201.63465 22.485373,189.8764 -2.6201766,151.45983 -6.6906956,104.3907 11.582976,63.807404 19.09679,47.120264 24.786041,38.972226 39.233593,24.206713 c 8.3512,-8.534999 11.17209,-10.738354 24.46726,-19.1110511 l 7.56492,-4.764045 5.11017,2.95849 c 15.90329,9.2070761 32.561617,24.2022371 42.186757,37.9748391 11.01884,15.766859 20.47209,38.728181 22.56122,54.799762 1.35001,10.385592 1.3402,30.769882 -0.0199,41.239492 -1.37299,10.56931 -7.82196,30.01283 -13.19599,39.7857 -4.41709,8.03263 -13.15797,20.94649 -16.31413,24.10265 -1.02075,1.02075 -2.59141,2.84691 -3.49035,4.05815 -4.97136,6.69838 -32.860277,27.7722 -36.715937,27.74382 -0.69158,-0.005 -6.11211,-3.179 -12.04558,-7.05313 z m 19.32702,-27.38492 C 96.915343,184.23224 111.53519,159.802 115.47884,137.04615 120.46423,108.27916 114.63931,79.903077 99.065173,57.086955 93.550053,49.007302 80.249203,35.444543 74.533433,32.072158 l -3.77416,-2.226808 -5.42471,4.302524 C 49.548443,46.668377 36.86892,64.919805 30.160697,84.778588 c -4.216901,12.48357 -4.22992,12.58073 -4.264246,31.826882 l -0.03443,19.30509 4.226161,12.5304 c 5.583354,16.55444 13.851431,30.27377 24.871441,41.26947 9.3392,9.31859 14.49952,13.66249 16.30616,13.72636 0.62457,0.022 3.95606,-2.17407 7.40329,-4.88032 z"
     id="path5241"
     inkscape:connector-curvature="0" />
</svg>
