<?xml version="1.0" encoding="UTF-8" standalone="no"?>
<!-- Created with Inkscape (http://www.inkscape.org/) -->

<svg
   xmlns:dc="http://purl.org/dc/elements/1.1/"
   xmlns:cc="http://creativecommons.org/ns#"
   xmlns:rdf="http://www.w3.org/1999/02/22-rdf-syntax-ns#"
   xmlns:svg="http://www.w3.org/2000/svg"
   xmlns="http://www.w3.org/2000/svg"
   xmlns:sodipodi="http://sodipodi.sourceforge.net/DTD/sodipodi-0.dtd"
   xmlns:inkscape="http://www.inkscape.org/namespaces/inkscape"
   version="1.1"
   id="svg62"
   width="63.357796mm"
   height="54.831352mm"
   viewBox="0 0 239.46254 207.23661"
   sodipodi:docname="hermetica-eye_of_providence.svg"
   inkscape:version="0.92.5 (2060ec1f9f, 2020-04-08)">
  <metadata
     id="metadata68">
    <rdf:RDF>
      <cc:Work
         rdf:about="">
        <dc:format>image/svg+xml</dc:format>
        <dc:type
           rdf:resource="http://purl.org/dc/dcmitype/StillImage" />
        <dc:title></dc:title>
      </cc:Work>
    </rdf:RDF>
  </metadata>
  <defs
     id="defs66" />
  <sodipodi:namedview
     pagecolor="#ffffff"
     bordercolor="#666666"
     borderopacity="1"
     objecttolerance="10"
     gridtolerance="10"
     guidetolerance="10"
     inkscape:pageopacity="0"
     inkscape:pageshadow="2"
     inkscape:window-width="1920"
     inkscape:window-height="997"
     id="namedview64"
     showgrid="false"
     units="mm"
     fit-margin-top="0"
     fit-margin-left="0"
     fit-margin-right="0"
     fit-margin-bottom="0"
     inkscape:zoom="0.88059701"
     inkscape:cx="119.72765"
     inkscape:cy="103.85"
     inkscape:window-x="0"
     inkscape:window-y="28"
     inkscape:window-maximized="1"
     inkscape:current-layer="svg62" />
  <path
     style="fill:#ff0000;fill-opacity:0.01829266;stroke:#ff0000;stroke-width:0.56779659;stroke-miterlimit:4;stroke-dasharray:none;stroke-opacity:1"
     d="m 0.28381554,206.10101 c 0.02291,-0.94856 3.27552496,-6.84555 12.84042546,-23.27966 16.286875,-27.98361 19.587713,-33.69133 23.477986,-40.59746 2.286882,-4.05975 7.055051,-12.36377 10.595933,-18.45339 3.540881,-6.08962 9.248559,-15.9267 12.683728,-21.86017 3.43517,-5.933476 9.134198,-15.770546 12.664506,-21.860166 3.530308,-6.08962 11.275396,-19.503814 17.211307,-29.809323 5.93591,-10.305508 12.574969,-21.80339 14.753479,-25.550847 2.1785,-3.747458 6.21722,-10.773941 8.97494,-15.6144066 2.75771,-4.840466 5.36686,-8.79671901 5.79811,-8.79167201 0.43126,0.005 2.35286,2.94339401 4.27026,6.52966101 3.05647,5.7168076 12.34842,21.9121956 25.24176,43.9950616 2.188,3.747458 5.22803,9.113135 6.75563,11.923729 1.5276,2.810593 3.17161,5.621186 3.65335,6.245762 0.48174,0.624575 2.43354,3.946185 4.33733,7.381355 1.90378,3.43517 6.05351,10.58941 9.22161,15.89831 3.1681,5.30889 6.38327,10.930076 7.14481,12.491516 0.76155,1.56144 3.0672,5.53175 5.12368,8.8229 2.05648,3.29116 3.73906,6.2205 3.73906,6.50965 0,0.28917 2.04407,3.86537 4.54237,7.94711 2.49831,4.08175 4.54237,7.62623 4.54237,7.87663 0,0.25039 3.12946,5.73482 6.95435,12.18762 3.82489,6.4528 8.48383,14.54296 10.3532,17.97813 1.86936,3.43517 4.36109,7.60219 5.53717,9.26004 1.17609,1.65786 2.13833,3.24534 2.13833,3.52772 0,0.47779 7.7528,14.08736 13.57787,23.83512 l 2.54478,4.25847 H 119.61271 c -65.64221,0 -119.34020946,-0.38326 -119.32889446,-0.85169 z M 205.15153,186.22813 c -0.44394,-1.4053 -3.62452,-7.40975 -7.06797,-13.34322 -3.44345,-5.93348 -9.37463,-16.27063 -13.1804,-22.97144 -3.80577,-6.70082 -7.55835,-12.19425 -8.33907,-12.20763 -0.78072,-0.0134 -1.41949,0.41474 -1.41949,0.95139 0,0.53665 -2.12768,3.39288 -4.72817,6.34719 -18.47884,20.99307 -48.31877,28.61851 -74.417129,19.0169 -11.880065,-4.37068 -20.210875,-9.92875 -28.593046,-19.0764 -7.385679,-8.06017 -6.991584,-8.10135 -11.995724,1.25354 -1.670498,3.12289 -4.966246,8.99958 -7.323885,13.05933 -2.357638,4.05974 -6.928155,11.92608 -10.156704,17.48075 -3.228548,5.55466 -5.870088,10.53708 -5.870088,11.07203 0,0.53495 39.127233,0.97264 86.949406,0.97264 h 86.94941 z M 100.19545,145.01689 c 0,-0.33758 -1.135599,-2.14976 -2.523539,-4.02705 -2.07336,-2.80437 -2.52354,-4.91392 -2.52354,-11.82527 0,-7.00755 0.43802,-9.00446 2.62353,-11.96053 1.44295,-1.95168 2.328239,-3.84382 1.96732,-4.20473 -2.24031,-2.24032 -21.120045,11.93734 -21.120045,15.86002 0,2.22046 10.034685,11.60004 15.330505,14.32968 4.70834,2.42683 6.245769,2.87677 6.245769,1.82788 z m 43.93932,-1.83907 c 4.99818,-2.83569 15.13337,-12.23435 15.06537,-13.97057 -0.14004,-3.57529 -19.30012,-19.2242 -20.20689,-16.50389 -0.229,0.68702 0.65712,3.74454 1.96919,6.79449 3.11341,7.23734 2.99881,12.84419 -0.41228,20.17095 -1.52661,3.27903 -2.31735,5.96187 -1.75722,5.96187 0.56015,0 2.96397,-1.10379 5.34183,-2.45285 z m -21.48014,-9.53527 c 2.98862,-2.09331 3.26154,-5.75522 0.64447,-8.64704 -2.55523,-2.8235 -6.70028,-2.61393 -8.84435,0.44716 -2.33634,3.33559 -2.22987,4.96319 0.50341,7.69647 2.73328,2.73328 4.36088,2.83975 7.69647,0.50341 z M 103.66461,91.676874 c 15.09857,-3.17609 32.55593,-1.35805 44.35052,4.61872 3.17847,1.61065 6.04496,2.66253 6.36996,2.33752 0.51004,-0.51003 -6.8547,-13.69669 -22.31201,-39.949945 -2.23058,-3.788497 -5.84416,-10.033259 -8.03018,-13.877244 -2.18601,-3.843986 -4.49714,-7.004263 -5.13583,-7.022838 -0.63868,-0.01858 -2.15346,1.882542 -3.36617,4.224703 -1.21271,2.342161 -3.884,6.951237 -5.93621,10.242389 -2.0522,3.291154 -3.73128,6.239656 -3.73128,6.552228 0,0.312572 -1.19633,2.474471 -2.65852,4.804221 -2.72617,4.343694 -5.790719,9.687146 -13.445959,23.444796 -2.4033,4.31912 -4.868706,8.45427 -5.478663,9.18923 -2.233427,2.69111 0.423115,2.65803 5.811293,-0.0724 3.0403,-1.54064 9.14367,-3.56177 13.563049,-4.49142 z"
     id="path6471"
     inkscape:connector-curvature="0" />
</svg>
