<?xml version="1.0" encoding="UTF-8" standalone="no"?>
<!-- Created with Inkscape (http://www.inkscape.org/) -->

<svg
   xmlns:dc="http://purl.org/dc/elements/1.1/"
   xmlns:cc="http://creativecommons.org/ns#"
   xmlns:rdf="http://www.w3.org/1999/02/22-rdf-syntax-ns#"
   xmlns:svg="http://www.w3.org/2000/svg"
   xmlns="http://www.w3.org/2000/svg"
   xmlns:sodipodi="http://sodipodi.sourceforge.net/DTD/sodipodi-0.dtd"
   xmlns:inkscape="http://www.inkscape.org/namespaces/inkscape"
   version="1.1"
   id="svg22"
   width="61.417339mm"
   height="61.673088mm"
   viewBox="0 0 232.12853 233.09514"
   sodipodi:docname="hermetica-amphitrite.svg"
   inkscape:version="0.92.5 (2060ec1f9f, 2020-04-08)">
  <metadata
     id="metadata28">
    <rdf:RDF>
      <cc:Work
         rdf:about="">
        <dc:format>image/svg+xml</dc:format>
        <dc:type
           rdf:resource="http://purl.org/dc/dcmitype/StillImage" />
        <dc:title></dc:title>
      </cc:Work>
    </rdf:RDF>
  </metadata>
  <defs
     id="defs26" />
  <sodipodi:namedview
     pagecolor="#ffffff"
     bordercolor="#666666"
     borderopacity="1"
     objecttolerance="10"
     gridtolerance="10"
     guidetolerance="10"
     inkscape:pageopacity="0"
     inkscape:pageshadow="2"
     inkscape:window-width="1920"
     inkscape:window-height="997"
     id="namedview24"
     showgrid="false"
     units="mm"
     fit-margin-top="0"
     fit-margin-left="0"
     fit-margin-right="0"
     fit-margin-bottom="0"
     inkscape:zoom="0.88059701"
     inkscape:cx="383.76066"
     inkscape:cy="103.49875"
     inkscape:window-x="0"
     inkscape:window-y="28"
     inkscape:window-maximized="1"
     inkscape:current-layer="svg22" />
  <path
     style="fill:#ff0000;fill-opacity:0.01829266;stroke:#ff0000;stroke-width:0.56779659;stroke-miterlimit:4;stroke-dasharray:none;stroke-opacity:1"
     d="M 102.87004,0.40174299 98.717687,3.222056 c -2.28346,1.551647 -4.51112,2.8222654 -4.94922,2.8222654 -0.43809,0 -3.36587,1.596905 -6.50586,3.548828 -6.49715,4.0388546 -6.60187,2.8841796 1.48047,16.2558596 2.24289,3.710714 4.07813,7.416911 4.07813,8.234375 0,1.130298 -2.85608,1.486328 -11.92383,1.486328 h -11.92383 l -0.002,12.207031 -0.002,12.207031 11.92579,-0.355468 c 9.28395,-0.27788 11.92225,-0.02712 11.90625,1.134765 -0.0196,1.422316 -3.46571,7.989951 -8.91797,16.996094 l -2.51172,4.148437 7.14453,4.359376 c 3.92938,2.3984 8.67705,5.21713 10.55078,6.26172 4.070093,2.26904 3.947103,2.38167 11.082033,-10.115236 2.5853,-4.528178 5.03769,-8.234375 5.44922,-8.234375 0.78818,0 7.42094,10.474091 10.61523,16.761721 l 1.88086,3.70117 3.65625,-1.86133 c 2.01068,-1.02433 7.12243,-3.90951 11.35938,-6.41016 6.87365,-4.056828 7.52994,-4.743429 6.09961,-6.380854 -3.00389,-3.438842 -10.97105,-18.509006 -10.33203,-19.542969 0.35025,-0.566715 5.91868,-1.029297 12.37304,-1.029297 h 11.73438 l 0.1582,-11.923828 0.15625,-11.923828 h -12.52734 c -7.76965,0 -12.52734,-0.440731 -12.52734,-1.160156 0,-0.637967 1.19002,-3.065762 2.64453,-5.394532 1.45451,-2.32877 4.18739,-6.823794 6.07226,-9.990234 l 3.42774,-5.757813 -3.51758,-2.085937 c -1.93409,-1.146796 -6.91872,-3.9842776 -11.07813,-6.306641 l -7.5625,-4.22265601 -3.1582,5.81835941 c -1.73651,3.200431 -4.55895,8.0365556 -6.27148,10.7460936 l -3.11329,4.925781 -2.91601,-4.61914 c -1.60405,-2.540983 -2.91602,-4.878043 -2.91602,-5.19336 0,-0.315316 -1.57287,-3.1275276 -3.49414,-6.2499996 z m 115.18945,60.85742201 -0.76367,5.089844 c -0.98791,6.587912 -9.24269,24.822699 -14.85547,32.814444 -10.22896,14.564507 -24.3426,26.604777 -40.91602,34.910157 -13.25258,6.64122 -25.61443,9.61263 -42.58398,10.23437 -12.61527,0.46222 -15.62741,0.17715 -27.068363,-2.5625 -36.19399,-8.66696 -64.15024,-34.37331 -76.13086,-70.003893 l -3.18945,-9.486328 -1.77149,3.419921 C 9.8064365,67.55557 7.0488665,74.709941 4.6512865,81.573618 l -4.35938,12.47852 -0.004,22.712882 -0.004,22.71093 4.30859,12.77344 c 6.5842005,19.52283 16.0108505,34.72533 29.8945305,48.20899 16.29157,15.82216 31.38512,23.97028 58.33399,31.49414 2.18601,0.61031 13.429713,0.98014 24.984373,0.82226 20.86414,-0.2851 21.09077,-0.31421 33.22852,-4.44336 32.98669,-11.22179 56.87788,-32.5808 71.19531,-63.65039 6.99839,-15.18689 9.60103,-28.00278 9.61523,-47.34961 0.0104,-14.13024 -0.42094,-18.194897 -3.04492,-28.650382 -1.68177,-6.701134 -4.78776,-15.612139 -6.90039,-19.802732 z M 25.217687,127.55213 c 0.30681,0 2.70449,2.32947 5.32813,5.17578 14.78806,16.04315 40.70062,30.52634 61.14062,34.17383 42.844453,7.64549 81.401843,-4.72641 110.339843,-35.40626 1.9879,-2.10756 3.99133,-3.60061 4.45118,-3.3164 1.91694,1.18474 -5.65955,25.45449 -10.17774,32.60351 -1.27763,2.02156 -3.32282,5.46438 -4.54492,7.65039 -1.2221,2.18602 -5.20122,7.07285 -8.84375,10.85938 -15.99381,16.62614 -35.76425,26.88001 -54.65625,28.3457 -4.8105,0.37321 -9.76843,0.80378 -11.01758,0.95703 -2.9624,0.3634 -9.47775,-0.18357 -19.187503,-1.60937 -20.50971,-3.01169 -44.5813,-18.73072 -57.50976,-37.55469 -5.09678,-7.42096 -11.71974,-21.14804 -13.35547,-27.68359 -1.53767,-6.14374 -2.6526,-14.19531 -1.9668,-14.19531 z"
     id="path5379"
     inkscape:connector-curvature="0" />
</svg>
