<?xml version="1.0" encoding="UTF-8" standalone="no"?>
<!-- Created with Inkscape (http://www.inkscape.org/) -->

<svg
   xmlns:dc="http://purl.org/dc/elements/1.1/"
   xmlns:cc="http://creativecommons.org/ns#"
   xmlns:rdf="http://www.w3.org/1999/02/22-rdf-syntax-ns#"
   xmlns:svg="http://www.w3.org/2000/svg"
   xmlns="http://www.w3.org/2000/svg"
   xmlns:sodipodi="http://sodipodi.sourceforge.net/DTD/sodipodi-0.dtd"
   xmlns:inkscape="http://www.inkscape.org/namespaces/inkscape"
   version="1.1"
   id="svg42"
   width="49.778675mm"
   height="59.691811mm"
   viewBox="0 0 188.13988 225.60684"
   sodipodi:docname="esoterica-krupitis.svg"
   inkscape:version="0.92.5 (2060ec1f9f, 2020-04-08)">
  <metadata
     id="metadata48">
    <rdf:RDF>
      <cc:Work
         rdf:about="">
        <dc:format>image/svg+xml</dc:format>
        <dc:type
           rdf:resource="http://purl.org/dc/dcmitype/StillImage" />
        <dc:title></dc:title>
      </cc:Work>
    </rdf:RDF>
  </metadata>
  <defs
     id="defs46" />
  <sodipodi:namedview
     pagecolor="#ffffff"
     bordercolor="#666666"
     borderopacity="1"
     objecttolerance="10"
     gridtolerance="10"
     guidetolerance="10"
     inkscape:pageopacity="0"
     inkscape:pageshadow="2"
     inkscape:window-width="1920"
     inkscape:window-height="997"
     id="namedview44"
     showgrid="false"
     units="mm"
     fit-margin-top="0"
     fit-margin-left="0"
     fit-margin-right="0"
     fit-margin-bottom="0"
     inkscape:zoom="0.88059701"
     inkscape:cx="93.765953"
     inkscape:cy="112.46274"
     inkscape:window-x="0"
     inkscape:window-y="28"
     inkscape:window-maximized="1"
     inkscape:current-layer="svg42" />
  <path
     style="fill:#000000;fill-opacity:0;stroke:#ff0000;stroke-width:0.56779659;stroke-miterlimit:4;stroke-dasharray:none;stroke-opacity:1"
     d="m 27.940549,197.10361 -27.538528,-27.55574 8.855907,-8.80397 8.855907,-8.80397 18.950446,19.04148 18.950445,19.04149 9.677307,-9.62704 c 5.32252,-5.29487 9.67731,-10.14558 9.67731,-10.77936 0,-0.63376 -12.54215,-13.70198 -27.871439,-29.04048 L 19.626464,112.68785 47.479567,84.923598 C 62.798773,69.653264 75.340923,56.74691 75.351003,56.242816 75.384453,54.570773 57.81989,37.286471 56.087285,37.286471 c -0.935743,0 -9.892087,8.179453 -19.902988,18.176562 L 17.98266,73.639593 9.209619,64.814795 0.436579,55.989998 28.248309,28.195645 56.060038,0.40129187 74.648803,18.96445 c 16.13855,16.116309 18.87058,18.404976 20.72669,17.363094 1.17585,-0.660035 9.749197,-8.890563 19.051867,-18.29006 9.30269,-9.3994981 17.22346,-17.08140513 17.6017,-17.07090513 0.37825,0.0105 13.06751,12.42696413 28.19835,27.59214113 l 27.51061,27.573051 -8.94574,8.893268 -8.94573,8.893267 -18.31593,-18.315918 c -10.07374,-10.073754 -18.95095,-18.315917 -19.7271,-18.315917 -1.64769,0 -18.9596,17.124229 -18.9596,18.75406 0,0.606163 12.54148,13.651128 27.86995,28.988807 l 27.86997,27.886702 -27.84291,27.76572 c -15.3136,15.27115 -27.85509,28.28802 -27.86996,28.9264 -0.0149,0.63836 4.31942,5.48456 9.63178,10.76932 l 9.65883,9.60866 19.0149,-18.84907 19.01489,-18.84905 8.59941,8.85754 8.59941,8.85753 -27.61849,27.60123 -27.61847,27.60123 -18.46804,-18.44259 c -10.15742,-10.14342 -18.973407,-18.43545 -19.591097,-18.42671 -0.61768,0.009 -9.25695,8.185 -19.19837,18.16949 -9.94143,9.98449 -18.377121,18.15361 -18.745984,18.15361 -0.368864,0 -13.062998,-12.40008 -28.20919,-27.55574 z M 132.149,112.97902 c 0,-0.97917 -32.759637,-34.054718 -36.695237,-37.049101 -1.87522,-1.426755 -3.78186,0.152897 -21.29272,17.641029 l -19.23307,19.208112 19.57716,19.60116 19.57715,19.60117 19.033357,-19.00866 C 123.58399,122.51797 132.149,113.5208 132.149,112.97902 Z"
     id="path5325"
     inkscape:connector-curvature="0" />
</svg>
