<?xml version="1.0" encoding="UTF-8" standalone="no"?>
<!-- Created with Inkscape (http://www.inkscape.org/) -->

<svg
   xmlns:dc="http://purl.org/dc/elements/1.1/"
   xmlns:cc="http://creativecommons.org/ns#"
   xmlns:rdf="http://www.w3.org/1999/02/22-rdf-syntax-ns#"
   xmlns:svg="http://www.w3.org/2000/svg"
   xmlns="http://www.w3.org/2000/svg"
   xmlns:sodipodi="http://sodipodi.sourceforge.net/DTD/sodipodi-0.dtd"
   xmlns:inkscape="http://www.inkscape.org/namespaces/inkscape"
   version="1.1"
   id="svg12"
   width="35.155231mm"
   height="49.125053mm"
   viewBox="0 0 132.87017 185.66949"
   sodipodi:docname="esoterica-psychick_cross.svg"
   inkscape:version="0.92.5 (2060ec1f9f, 2020-04-08)">
  <metadata
     id="metadata18">
    <rdf:RDF>
      <cc:Work
         rdf:about="">
        <dc:format>image/svg+xml</dc:format>
        <dc:type
           rdf:resource="http://purl.org/dc/dcmitype/StillImage" />
        <dc:title></dc:title>
      </cc:Work>
    </rdf:RDF>
  </metadata>
  <defs
     id="defs16" />
  <sodipodi:namedview
     pagecolor="#ffffff"
     bordercolor="#666666"
     borderopacity="1"
     objecttolerance="10"
     gridtolerance="10"
     guidetolerance="10"
     inkscape:pageopacity="0"
     inkscape:pageshadow="2"
     inkscape:window-width="1920"
     inkscape:window-height="997"
     id="namedview14"
     showgrid="false"
     units="mm"
     fit-margin-top="0"
     fit-margin-left="0"
     fit-margin-right="0"
     fit-margin-bottom="0"
     inkscape:zoom="0.88059701"
     inkscape:cx="66.376437"
     inkscape:cy="92.494065"
     inkscape:window-x="0"
     inkscape:window-y="28"
     inkscape:window-maximized="1"
     inkscape:current-layer="svg12" />
  <path
     style="fill:#000000;fill-opacity:0;stroke:#ff0000;stroke-width:0.56779659;stroke-miterlimit:4;stroke-dasharray:none;stroke-opacity:1"
     d="M 53.657797,172.32627 V 159.26695 H 26.971352 0.28491197 V 146.77542 134.28389 H 26.971352 53.657797 V 120.08898 105.89406 H 40.030677 26.403556 V 93.402543 80.911013 h 13.661051 13.66104 L 53.407827,66.432203 53.089997,51.953389 26.687454,51.648562 0.28491197,51.343733 0.28441097,39.157036 0.28390997,26.970338 H 26.686953 53.089997 l 0.31994,-13.34322 0.31993,-13.34321971 h 12.45549 12.45549 V 13.221724 c 0,11.035771 0.27868,13.044767 1.8956,13.665237 1.04258,0.400075 13.0886,0.673029 26.768943,0.606563 l 24.87334,-0.120845 0.2014,11.986839 0.20139,11.986839 -26.68644,0.303516 -26.686443,0.303516 -0.31782,14.478814 -0.31783,14.47881 h 13.66105 13.661043 v 12.49153 12.491517 H 92.267967 78.640847 v 14.19492 14.19491 h 26.970343 26.97033 v 12.49153 12.49153 H 105.61119 78.640847 v 13.05932 13.05932 h -12.49153 -12.49152 z"
     id="path6081"
     inkscape:connector-curvature="0" />
</svg>
