<?xml version="1.0" encoding="UTF-8" standalone="no"?>
<!-- Created with Inkscape (http://www.inkscape.org/) -->

<svg
   xmlns:dc="http://purl.org/dc/elements/1.1/"
   xmlns:cc="http://creativecommons.org/ns#"
   xmlns:rdf="http://www.w3.org/1999/02/22-rdf-syntax-ns#"
   xmlns:svg="http://www.w3.org/2000/svg"
   xmlns="http://www.w3.org/2000/svg"
   xmlns:sodipodi="http://sodipodi.sourceforge.net/DTD/sodipodi-0.dtd"
   xmlns:inkscape="http://www.inkscape.org/namespaces/inkscape"
   version="1.1"
   id="svg12"
   width="64.148003mm"
   height="64.479797mm"
   viewBox="0 0 242.44915 243.70317"
   sodipodi:docname="esoterica-khatim.svg"
   inkscape:version="0.92.5 (2060ec1f9f, 2020-04-08)">
  <metadata
     id="metadata18">
    <rdf:RDF>
      <cc:Work
         rdf:about="">
        <dc:format>image/svg+xml</dc:format>
        <dc:type
           rdf:resource="http://purl.org/dc/dcmitype/StillImage" />
        <dc:title></dc:title>
      </cc:Work>
    </rdf:RDF>
  </metadata>
  <defs
     id="defs16" />
  <sodipodi:namedview
     pagecolor="#ffffff"
     bordercolor="#666666"
     borderopacity="1"
     objecttolerance="10"
     gridtolerance="10"
     guidetolerance="10"
     inkscape:pageopacity="0"
     inkscape:pageshadow="2"
     inkscape:window-width="1920"
     inkscape:window-height="997"
     id="namedview14"
     showgrid="false"
     units="mm"
     fit-margin-top="0"
     fit-margin-left="0"
     fit-margin-right="0"
     fit-margin-bottom="0"
     inkscape:zoom="0.88059701"
     inkscape:cx="-138.03135"
     inkscape:cy="120.8839"
     inkscape:window-x="0"
     inkscape:window-y="28"
     inkscape:window-maximized="1"
     inkscape:current-layer="svg12" />
  <path
     style="fill:#000000;fill-opacity:0;stroke:#ff0000;stroke-width:0.56779659;stroke-miterlimit:4;stroke-dasharray:none;stroke-opacity:1"
     d="m 103.28937,225.81759 -17.594922,-17.6017 h -25.10358 -25.10358 v -25.099 -25.099 L 17.885598,140.45 C 8.2046683,130.78767 0.28389829,122.52964 0.28389829,122.09883 c 0,-0.43081 7.92077001,-8.6917 17.60169971,-18.35751 l 17.60169,-17.574221 v -25.28069 -25.28069 h 25.28069 25.28069 L 103.6233,18.003611 121.19793,0.40150239 138.82586,18.003611 156.45379,35.605719 h 25.25404 25.25404 v 25.28069 25.28069 l 17.60169,17.574221 c 9.68093,9.66581 17.6017,18.01583 17.6017,18.5556 0,0.53976 -7.92077,8.88693 -17.6017,18.54927 l -17.60169,17.56788 v 24.90091 24.90091 h -24.86688 -24.86688 l -17.63557,17.6017 c -9.69957,9.68093 -17.87692,17.60169 -18.17191,17.60169 -0.29498,0 -8.45405,-7.92076 -18.13126,-17.60169 z m 30.91823,-30.37712 12.4641,-12.20763 h 17.65356 17.65356 l 0.0209,-17.88559 0.0209,-17.88559 12.47067,-12.34816 c 6.85879,-6.7915 12.47059,-12.6769 12.47059,-13.0787 0,-0.40178 -5.62119,-6.33428 -12.49153,-13.18331 L 181.97882,96.398688 V 78.493729 60.58877 H 164.07293 146.16705 L 134.2839,48.665041 c -6.53574,-6.558051 -12.41243,-11.923729 -13.05932,-11.923729 -0.64689,0 -6.51148,5.353531 -13.03242,11.896734 l -11.856252,11.896733 -18.21668,0.310894 -18.21668,0.310893 -0.31024,18.169492 -0.31024,18.16949 -12.16192,12.207632 -12.16192,12.20763 12.26687,12.30501 12.26686,12.30503 0.20529,18.07209 0.2053,18.07211 18.25372,0.31107 18.25372,0.31107 11.839502,12.29666 c 6.51172,6.76316 12.21176,12.24436 12.66675,12.18045 0.45499,-0.0639 6.4361,-5.60964 13.29136,-12.32383 z"
     id="path5416"
     inkscape:connector-curvature="0" />
</svg>
