<?xml version="1.0" encoding="UTF-8" standalone="no"?>
<!-- Created with Inkscape (http://www.inkscape.org/) -->

<svg
   xmlns:dc="http://purl.org/dc/elements/1.1/"
   xmlns:cc="http://creativecommons.org/ns#"
   xmlns:rdf="http://www.w3.org/1999/02/22-rdf-syntax-ns#"
   xmlns:svg="http://www.w3.org/2000/svg"
   xmlns="http://www.w3.org/2000/svg"
   xmlns:sodipodi="http://sodipodi.sourceforge.net/DTD/sodipodi-0.dtd"
   xmlns:inkscape="http://www.inkscape.org/namespaces/inkscape"
   version="1.1"
   id="svg52"
   width="65.149994mm"
   height="65.112228mm"
   viewBox="0 0 246.23619 246.09346"
   sodipodi:docname="esoterica-berber.svg"
   inkscape:version="0.92.5 (2060ec1f9f, 2020-04-08)">
  <metadata
     id="metadata58">
    <rdf:RDF>
      <cc:Work
         rdf:about="">
        <dc:format>image/svg+xml</dc:format>
        <dc:type
           rdf:resource="http://purl.org/dc/dcmitype/StillImage" />
        <dc:title></dc:title>
      </cc:Work>
    </rdf:RDF>
  </metadata>
  <defs
     id="defs56" />
  <sodipodi:namedview
     pagecolor="#ffffff"
     bordercolor="#666666"
     borderopacity="1"
     objecttolerance="10"
     gridtolerance="10"
     guidetolerance="10"
     inkscape:pageopacity="0"
     inkscape:pageshadow="2"
     inkscape:window-width="1920"
     inkscape:window-height="997"
     id="namedview54"
     showgrid="false"
     fit-margin-top="0"
     fit-margin-left="0"
     fit-margin-right="0"
     fit-margin-bottom="0"
     units="mm"
     inkscape:zoom="0.88059701"
     inkscape:cx="-277.9995"
     inkscape:cy="151.65482"
     inkscape:window-x="0"
     inkscape:window-y="28"
     inkscape:window-maximized="1"
     inkscape:current-layer="svg52" />
  <path
     style="fill:#000000;fill-opacity:0;stroke:#ff0000;stroke-width:0.56779659;stroke-miterlimit:4;stroke-dasharray:none;stroke-opacity:1"
     d="m 85.770154,232.11178 -13.51678,-13.55209 16.10746,-16.16193 c 8.85911,-8.88905 16.107466,-16.62541 16.107466,-17.19189 0,-0.56649 -9.759656,-10.76502 -21.688146,-22.6634 l -21.68814,-21.63343 -16.64789,16.62015 -16.6479,16.62014 -13.69599,-13.69598 -13.69599037,-13.69599 8.89668997,-8.65777 8.8966904,-8.65778 4.28915,4.18824 c 2.35903,2.30354 4.7638,4.18825 5.34393,4.18825 1.6152,0 14.17997,-12.79141 14.17997,-14.43574 0,-1.43738 -12.78876,-15.08968 -14.13521,-15.08968 -0.38677,0 -2.49177,1.78856 -4.67779,3.97457 -2.18601,2.18602 -4.35359,3.97458 -4.81683,3.97458 -0.46325,0 -4.65171,-3.83504 -9.3077004,-8.52231 L 0.60771363,99.19741 14.195984,85.57365 27.784254,71.949888 44.555314,88.692991 61.326374,105.43609 83.502794,83.259668 105.67922,61.083243 88.891564,44.398786 72.103894,27.71433 85.717834,14.058345 99.331764,0.40236104 108.42969,9.55082 l 9.09793,9.14846 -4.25847,3.457793 c -2.34216,1.901786 -4.25848,4.310662 -4.25848,5.353057 0,1.958168 12.45447,14.91834 14.33623,14.91834 0.58295,0 4.35664,-3.326314 8.38599,-7.391808 l 7.32611,-7.391809 -4.86863,-4.725508 -4.86862,-4.725507 8.82499,-8.87706 8.825,-8.87705996 13.58851,13.67771196 13.5885,13.677713 -16.10293,16.131718 c -8.85662,8.872446 -16.10294,16.654011 -16.10294,17.292368 0,0.638355 9.69063,10.802627 21.53474,22.587268 19.30286,19.205933 21.73253,21.262483 23.44303,19.842893 1.04955,-0.87105 8.60574,-8.34732 16.79152,-16.613919 l 14.88325,-15.030185 13.34322,13.299773 c 7.33877,7.314871 13.34322,13.578291 13.34322,13.918711 0,0.63933 -10.30601,11.36293 -14.63997,15.23317 -2.44485,2.18326 -2.46449,2.17712 -6.90441,-2.15834 l -4.45259,-4.34784 -3.89811,3.4226 c -2.14397,1.88242 -5.70709,5.42489 -7.91802,7.87214 l -4.0199,4.44954 7.03739,7.06163 c 3.87057,3.8839 7.51251,7.06163 8.0932,7.06163 0.58069,0 3.00374,-1.90211 5.38455,-4.22692 l 4.32876,-4.22691 8.77097,8.77097 8.77097,8.77097 -13.64797,13.64798 -13.64798,13.64797 -16.32006,-16.46036 -16.32006,-16.46037 -3.52449,3.1428 c -6.72999,6.00116 -40.43126,40.03371 -40.43126,40.82869 0,0.43971 7.27469,8.08717 16.16598,16.99436 l 16.16598,16.19487 -13.58947,13.62498 -13.58948,13.62497 -8.81416,-8.76246 -8.81414,-8.76246 4.67627,-4.76477 4.67626,-4.76476 -6.10387,-6.09586 c -9.99932,-9.98617 -8.87744,-9.84668 -16.76162,-2.08396 -3.81918,3.76034 -6.94396,7.45753 -6.94396,8.216 0,0.75846 1.84648,3.26998 4.10329,5.58116 l 4.10327,4.20214 -5.52276,5.27933 c -3.03753,2.90364 -7.07185,6.77511 -8.96516,8.60328 l -3.442376,3.32392 z M 143.8901,146.88433 c 11.28469,-11.25266 21.17407,-21.25037 21.97641,-22.21713 1.25356,-1.51045 -1.56337,-4.78307 -20.02205,-23.26096 -11.81448,-11.82676 -21.992,-21.503194 -22.61674,-21.503194 -1.1525,0 -43.742466,42.043524 -43.742466,43.181244 0,0.71895 42.263046,43.80385 43.236006,44.07675 0.35819,0.1005 9.88417,-9.02404 21.16884,-20.27671 z"
     id="path5304"
     inkscape:connector-curvature="0" />
</svg>
