<?xml version="1.0" encoding="UTF-8" standalone="no"?>
<!-- Created with Inkscape (http://www.inkscape.org/) -->

<svg
   xmlns:dc="http://purl.org/dc/elements/1.1/"
   xmlns:cc="http://creativecommons.org/ns#"
   xmlns:rdf="http://www.w3.org/1999/02/22-rdf-syntax-ns#"
   xmlns:svg="http://www.w3.org/2000/svg"
   xmlns="http://www.w3.org/2000/svg"
   xmlns:sodipodi="http://sodipodi.sourceforge.net/DTD/sodipodi-0.dtd"
   xmlns:inkscape="http://www.inkscape.org/namespaces/inkscape"
   version="1.1"
   id="svg2"
   width="61.610905mm"
   height="61.535145mm"
   viewBox="0 0 232.86011 232.57378"
   sodipodi:docname="hermetica-moon_phase_waxing_gibbous.svg"
   inkscape:version="0.92.5 (2060ec1f9f, 2020-04-08)">
  <metadata
     id="metadata8">
    <rdf:RDF>
      <cc:Work
         rdf:about="">
        <dc:format>image/svg+xml</dc:format>
        <dc:type
           rdf:resource="http://purl.org/dc/dcmitype/StillImage" />
        <dc:title></dc:title>
      </cc:Work>
    </rdf:RDF>
  </metadata>
  <defs
     id="defs6" />
  <sodipodi:namedview
     pagecolor="#ffffff"
     bordercolor="#666666"
     borderopacity="1"
     objecttolerance="10"
     gridtolerance="10"
     guidetolerance="10"
     inkscape:pageopacity="0"
     inkscape:pageshadow="2"
     inkscape:window-width="1920"
     inkscape:window-height="997"
     id="namedview4"
     showgrid="false"
     units="mm"
     fit-margin-top="0"
     fit-margin-left="0"
     fit-margin-right="0"
     fit-margin-bottom="0"
     inkscape:zoom="0.88059701"
     inkscape:cx="433.08028"
     inkscape:cy="87.824695"
     inkscape:window-x="0"
     inkscape:window-y="28"
     inkscape:window-maximized="1"
     inkscape:current-layer="svg2" />
  <path
     style="fill:#ffff00;fill-opacity:0.01829266;stroke:#ff0000;stroke-width:0.56779659;stroke-miterlimit:4;stroke-dasharray:none;stroke-opacity:1"
     d="M 93.878578,231.14549 C 50.710118,221.23102 18.781318,192.57218 5.1492883,151.50335 1.0658783,139.20137 0.89209831,138.02804 0.43576831,119.67969 0.05176831,104.23947 0.33766831,99.074213 1.9440383,92.425453 12.917538,47.007383 43.904938,14.876245 87.807338,3.3929541 97.922668,0.74714758 101.84637,0.31498958 116.02265,0.28531358 c 14.23,-0.02979 18.13783,0.385738 28.77626,3.05982652 41.17966,10.3509599 74.15581,43.4084379 84.51873,84.7271329 4.21454,16.804117 4.34905,38.579347 0.34096,55.200537 -9.02904,37.44269 -36.91798,69.27212 -71.76984,81.91034 -17.08406,6.19514 -23.01805,7.2015 -41.86611,7.10019 -9.68093,-0.052 -19.645762,-0.56407 -22.144072,-1.13785 z m 48.133712,-26.58068 c 19.39741,-5.87729 39.09583,-20.4525 50.1657,-37.1185 6.24543,-9.40268 7.49624,-11.98811 11.6102,-23.99834 3.35168,-9.78479 3.56036,-11.36284 3.55205,-26.8616 -0.008,-15.58178 -0.20976,-17.069287 -3.75058,-27.697367 -2.05796,-6.17719 -5.86663,-14.843908 -8.46371,-19.259369 -6.12546,-10.414323 -21.7539,-26.046753 -32.02189,-32.03008 -13.56205,-7.902822 -30.76288,-12.937756 -44.33164,-12.976515 -5.77501,-0.0165 -7.72307,0.528388 -11.92372,3.33515 -11.946162,7.982092 -21.394562,27.029033 -27.346812,55.128184 -2.87736,13.58336 -3.49657,46.673957 -1.1396,60.901227 4.82682,29.13604 18.11282,56.31802 30.279012,61.94817 4.44195,2.05561 24.82574,1.21819 33.37099,-1.37096 z"
     id="path9112"
     inkscape:connector-curvature="0" />
</svg>
