<?xml version="1.0" encoding="UTF-8" standalone="no"?>
<!-- Created with Inkscape (http://www.inkscape.org/) -->

<svg
   xmlns:dc="http://purl.org/dc/elements/1.1/"
   xmlns:cc="http://creativecommons.org/ns#"
   xmlns:rdf="http://www.w3.org/1999/02/22-rdf-syntax-ns#"
   xmlns:svg="http://www.w3.org/2000/svg"
   xmlns="http://www.w3.org/2000/svg"
   xmlns:sodipodi="http://sodipodi.sourceforge.net/DTD/sodipodi-0.dtd"
   xmlns:inkscape="http://www.inkscape.org/namespaces/inkscape"
   version="1.1"
   id="svg12"
   width="64.171906mm"
   height="61.581573mm"
   viewBox="0 0 242.53949 232.74926"
   sodipodi:docname="hermetica-borromean_knot.svg"
   inkscape:version="0.92.5 (2060ec1f9f, 2020-04-08)">
  <metadata
     id="metadata18">
    <rdf:RDF>
      <cc:Work
         rdf:about="">
        <dc:format>image/svg+xml</dc:format>
        <dc:type
           rdf:resource="http://purl.org/dc/dcmitype/StillImage" />
        <dc:title></dc:title>
      </cc:Work>
    </rdf:RDF>
  </metadata>
  <defs
     id="defs16" />
  <sodipodi:namedview
     pagecolor="#ffffff"
     bordercolor="#666666"
     borderopacity="1"
     objecttolerance="10"
     gridtolerance="10"
     guidetolerance="10"
     inkscape:pageopacity="0"
     inkscape:pageshadow="2"
     inkscape:window-width="1920"
     inkscape:window-height="997"
     id="namedview14"
     showgrid="false"
     units="mm"
     fit-margin-top="0"
     fit-margin-left="0"
     fit-margin-right="0"
     fit-margin-bottom="0"
     inkscape:zoom="0.88059701"
     inkscape:cx="121.315"
     inkscape:cy="116.45957"
     inkscape:window-x="0"
     inkscape:window-y="28"
     inkscape:window-maximized="1"
     inkscape:current-layer="svg12" />
  <path
     style="fill:#ff0000;fill-opacity:0.01829266;stroke:#ff0000;stroke-width:0.56779659;stroke-miterlimit:4;stroke-dasharray:none;stroke-opacity:1"
     d="M 61.469232,229.60654 C 46.205357,224.53889 36.448081,219.10217 26.911165,210.35092 22.607296,206.40163 13.20652,195.46148 13.20652,194.40216 c 0,-0.347 -1.544018,-3.14025 -3.4311507,-6.20724 -1.887134,-3.06698 -4.794724,-9.84563 -6.461312,-15.06367 -2.68707901,-8.41316 -3.03015901,-11.28737 -3.03015901,-25.38564 0,-14.04098 0.348759,-16.98916 2.98530601,-25.23579 C 12.649621,93.169619 38.935733,69.663252 68.569591,64.114918 c 7.785156,-1.457611 33.544349,-0.666652 38.147029,1.171339 l 3.23044,1.290011 -7.13112,5.249633 c -3.922125,2.887298 -9.515225,7.736205 -12.429135,10.775348 -4.552145,4.7478 -5.921444,5.52808 -9.726432,5.5425 -12.56687,0.0476 -29.596278,7.76063 -39.276806,17.789321 -22.069378,22.86313 -22.437076,58.93767 -0.841578,82.56659 10.223247,11.18586 26.37868,18.8646 39.68956,18.8646 4.474859,0 5.583208,0.48338 7.712806,3.36383 1.36785,1.85011 6.57412,6.53193 11.5695,10.40405 4.995375,3.87211 9.082505,7.4079 9.082505,7.85729 0,1.874 -11.028905,3.3546 -24.634228,3.30707 -12.090925,-0.0422 -15.884382,-0.4959 -22.4929,-2.68996 z"
     id="path6576"
     inkscape:connector-curvature="0" />
  <path
     style="fill:#ff0000;fill-opacity:0.01829266;stroke:#ff0000;stroke-width:0.56779659;stroke-miterlimit:4;stroke-dasharray:none;stroke-opacity:1"
     d="m 178.53977,142.0206 c -0.37047,-3.097 -1.78343,-10.37003 -3.13992,-16.16229 l -2.46635,-10.53136 3.03105,-6.50254 c 10.40784,-22.328001 5.4629,-48.033504 -12.74224,-66.238647 -26.58832,-26.588312 -68.155845,-23.362149 -90.750564,7.043388 -3.499729,4.709558 -5.737538,6.701206 -7.529454,6.701206 -3.135037,0 -12.996642,3.361966 -20.198145,6.885843 -2.953034,1.444995 -5.686804,2.309613 -6.075043,1.921373 C 36.96904,63.437509 45.462545,44.103038 51.416193,36.120313 64.140866,19.058914 78.22836,8.8777776 96.902415,3.2470816 105.47958,0.66085264 108.90115,0.24207464 121.08788,0.28693464 c 18.00341,0.06627 29.41885,3.11677496 43.50635,11.62602736 17.88052,10.800346 30.69707,26.80658 37.38461,46.688581 3.36851,10.014569 3.62887,11.887415 3.63099,26.118646 0.002,14.15959 -0.26836,16.135561 -3.54119,25.870861 -3.91265,11.63844 -10.2766,22.82526 -17.87964,31.42955 l -4.97567,5.63093 z"
     id="path6578"
     inkscape:connector-curvature="0" />
  <path
     style="fill:#ff0000;fill-opacity:0.01829266;stroke:#ff0000;stroke-width:0.56779659;stroke-miterlimit:4;stroke-dasharray:none;stroke-opacity:1"
     d="M 92.017395,127.45762 C 83.002849,120.89821 78.789122,115.8456 79.707336,112.69682 80.839989,108.81268 90.257545,95.024239 95.891915,89.000639 105.11359,79.141931 119.327,70.596022 135.2828,65.316602 c 2.74667,-0.908811 10.13621,-1.523116 18.69242,-1.55393 l 14.15006,-0.05096 2.09597,5.620011 c 1.15279,3.091006 2.39185,8.788425 2.75347,12.660931 l 0.65749,7.040925 -11.79335,-0.57365 c -8.62452,-0.41951 -13.90011,-0.0771 -19.63402,1.27443 -18.18766,4.28688 -34.40246,19.015761 -41.49039,37.688211 l -1.892725,4.98619 z"
     id="path6580"
     inkscape:connector-curvature="0" />
  <path
     style="fill:#ff0000;fill-opacity:0.01829266;stroke:#ff0000;stroke-width:0.56779659;stroke-miterlimit:4;stroke-dasharray:none;stroke-opacity:1"
     d="m 109.16415,169.16628 c -19.125765,-4.20608 -23.853372,-6.0425 -35.69188,-13.8643 -11.708827,-7.73613 -24.985258,-23.04061 -29.523022,-34.03284 -1.540655,-3.73206 -1.506007,-3.81352 4.008371,-9.42307 3.059354,-3.11215 7.709722,-6.86181 10.334153,-8.33257 l 4.771691,-2.67411 1.818896,5.47618 c 2.89213,8.70739 12.036122,20.72258 20.128948,26.44942 13.556988,9.5935 24.133313,12.71942 40.193063,11.87939 l 10.64622,-0.55686 -0.0694,6.37142 c -0.0382,3.50428 -0.94936,9.18201 -2.02489,12.61718 l -1.95552,6.24576 -10.18274,0.17194 c -5.6005,0.0946 -11.20476,-0.0528 -12.45392,-0.32754 z"
     id="path6582"
     inkscape:connector-curvature="0" />
  <path
     style="fill:#ff0000;fill-opacity:0.01829266;stroke:#ff0000;stroke-width:0.56779659;stroke-miterlimit:4;stroke-dasharray:none;stroke-opacity:1"
     d="m 143.54532,197.73535 c -2.95053,-0.81217 -7.66562,-2.82516 -10.47798,-4.47331 l -5.11338,-2.99664 4.94587,-6.7185 c 2.72023,-3.69517 6.41329,-10.70704 8.20679,-15.58192 2.78254,-7.56316 3.26092,-10.52936 3.26092,-20.21937 0,-9.69001 -0.47838,-12.6562 -3.26092,-20.21936 -1.7935,-4.87489 -5.47656,-11.87318 -8.18457,-15.55175 l -4.92366,-6.68832 3.65486,-2.25882 c 5.02695,-3.106831 9.48223,-4.720351 15.87621,-5.749721 5.0373,-0.81095 5.58535,-0.65907 7.52273,2.08479 8.15726,11.552831 14.8662,33.387591 14.8662,48.383181 0,15.09229 -6.71087,36.83689 -14.98256,48.54661 -2.43891,3.4526 -3.56978,3.59588 -11.39051,1.44313 z"
     id="path6584"
     inkscape:connector-curvature="0" />
  <path
     style="fill:#ff0000;fill-opacity:0.01829266;stroke:#ff0000;stroke-width:0.56779659;stroke-miterlimit:4;stroke-dasharray:none;stroke-opacity:1"
     d="m 133.57941,229.58943 c -21.94839,-7.66388 -35.452865,-17.7027 -47.465601,-35.2845 -3.972824,-5.81461 -11.585255,-23.41319 -11.585255,-26.78304 0,-0.59249 2.440021,0.1592 5.422269,1.67042 2.982248,1.51122 9.671622,3.91223 14.865282,5.33557 7.012285,1.92174 9.928175,3.30419 11.327735,5.37059 8.25488,12.18792 22.41668,22.53794 35.38472,25.86058 8.98267,2.30152 28.4723,1.67657 36.2905,-1.16369 22.98689,-8.35085 39.74763,-32.07758 39.758,-56.28195 0.003,-7.66133 -2.54415,-19.19966 -5.82314,-26.37523 -2.4053,-5.26367 -2.41416,-5.48182 -0.46092,-11.35594 1.09533,-3.29404 2.27154,-10.49046 2.61381,-15.992041 l 0.62231,-10.00287 3.904,3.75711 c 11.95939,11.5094 21.16332,30.767051 23.17971,48.499641 4.97491,43.75023 -19.18694,79.91292 -62.28794,93.22547 -10.98448,3.39275 -35.38754,3.13663 -45.74548,-0.48012 z"
     id="path6586"
     inkscape:connector-curvature="0" />
</svg>
