<?xml version="1.0" encoding="UTF-8" standalone="no"?>
<!-- Created with Inkscape (http://www.inkscape.org/) -->

<svg
   xmlns:dc="http://purl.org/dc/elements/1.1/"
   xmlns:cc="http://creativecommons.org/ns#"
   xmlns:rdf="http://www.w3.org/1999/02/22-rdf-syntax-ns#"
   xmlns:svg="http://www.w3.org/2000/svg"
   xmlns="http://www.w3.org/2000/svg"
   xmlns:sodipodi="http://sodipodi.sourceforge.net/DTD/sodipodi-0.dtd"
   xmlns:inkscape="http://www.inkscape.org/namespaces/inkscape"
   version="1.1"
   id="svg72"
   width="61.766003mm"
   height="59.429264mm"
   viewBox="0 0 233.44631 224.61454"
   sodipodi:docname="esoterica-masonic_trowel.svg"
   inkscape:version="0.92.5 (2060ec1f9f, 2020-04-08)">
  <metadata
     id="metadata78">
    <rdf:RDF>
      <cc:Work
         rdf:about="">
        <dc:format>image/svg+xml</dc:format>
        <dc:type
           rdf:resource="http://purl.org/dc/dcmitype/StillImage" />
        <dc:title></dc:title>
      </cc:Work>
    </rdf:RDF>
  </metadata>
  <defs
     id="defs76" />
  <sodipodi:namedview
     pagecolor="#ffffff"
     bordercolor="#666666"
     borderopacity="1"
     objecttolerance="10"
     gridtolerance="10"
     guidetolerance="10"
     inkscape:pageopacity="0"
     inkscape:pageshadow="2"
     inkscape:window-width="1920"
     inkscape:window-height="997"
     id="namedview74"
     showgrid="false"
     units="mm"
     fit-margin-top="0"
     fit-margin-left="0"
     fit-margin-right="0"
     fit-margin-bottom="0"
     inkscape:zoom="0.88059701"
     inkscape:cx="116.56864"
     inkscape:cy="111.79947"
     inkscape:window-x="0"
     inkscape:window-y="28"
     inkscape:window-maximized="1"
     inkscape:current-layer="svg72" />
  <path
     style="fill:#000000;fill-opacity:0;stroke:#ff0000;stroke-width:0.56779659;stroke-miterlimit:4;stroke-dasharray:none;stroke-opacity:1"
     d="M 105.49011,204.74134 C 99.969174,193.9674 90.349164,175.27482 84.112314,163.20227 72.990795,141.67456 72.812655,141.20758 74.854518,138.93375 c 1.145057,-1.27515 8.086376,-8.3647 15.425146,-15.75456 L 103.62288,109.74307 V 91.276406 c 0,-20.71423 -0.14379,-20.88945 -6.833776,-8.32744 -1.99574,3.74746 -4.01963,7.32457 -4.49753,7.94915 -0.47791,0.62458 -4.69363,7.77881 -9.36828,15.898314 -4.674639,8.11949 -11.383401,19.74068 -14.908355,25.82488 -3.524953,6.0842 -6.409007,11.27751 -6.409007,11.54071 0,0.2632 -1.788559,3.19433 -3.974576,6.51363 -2.186017,3.3193 -3.974576,6.40947 -3.974576,6.86703 0,0.45758 -2.039214,4.04635 -4.531585,7.97506 -7.247779,11.42461 -7.632562,11.11669 13.900229,11.12353 l 18.453389,0.006 6.475601,12.48566 6.47561,12.48585 H 47.356958 c -25.890183,0 -47.07305971,-0.38443 -47.07305971,-0.85431 0,-0.73515 4.44769801,-8.66158 13.01375971,-23.19235 1.224092,-2.07646 3.812801,-6.58597 5.752684,-10.02114 1.939882,-3.43517 6.505539,-11.35593 10.145904,-17.60169 11.141507,-19.11545 18.496305,-31.86005 25.066797,-43.43644 3.456327,-6.08962 6.748096,-11.838564 7.315044,-12.775434 0.566948,-0.93686 5.325637,-9.11313 10.574867,-18.169488 5.24923,-9.056356 12.43331,-21.44408 15.96462,-27.528275 3.53131,-6.084196 6.42056,-11.409635 6.42056,-11.834312 0,-0.424676 0.71464,-1.5789 1.58808,-2.564944 0.87345,-0.986045 3.12348,-4.603401 5.000076,-8.03857 5.89945,-10.799142 13.73499,-24.1841647 14.75359,-25.2027657 0.54782,-0.547818 1.93971,0.909895 3.16167,3.311205 1.20067,2.359426 3.41872,6.3321047 4.929,8.8281747 4.3726,7.226631 13.72012,23.572677 13.72012,23.992425 0,0.210535 1.78856,3.178761 3.97458,6.596055 2.18602,3.417294 3.97458,6.505845 3.97458,6.863444 0,0.357599 2.04406,3.886734 4.54237,7.842519 2.4983,3.955787 4.54237,7.544928 4.54237,7.975869 0,0.430941 1.78856,3.579499 3.97458,6.996793 2.18602,3.417294 3.97457,6.469 3.97457,6.78157 0,0.31258 1.33447,2.68225 2.96548,5.26594 1.63101,2.58369 4.10142,6.78942 5.48979,9.34608 1.38837,2.55665 5.22375,9.247614 8.52306,14.868794 3.2993,5.62119 7.54571,13.03093 9.43646,16.4661 1.89074,3.43517 3.9183,6.86116 4.50569,7.6133 0.5874,0.75214 1.95588,3.05172 3.04109,5.11017 1.0852,2.05845 4.67282,8.34179 7.97246,13.96297 3.29965,5.62119 7.53322,13.03094 9.40793,16.46611 1.87471,3.43517 3.86618,6.81041 4.42549,7.50054 0.55932,0.69014 2.22976,3.50073 3.71211,6.24577 1.48235,2.74503 4.51964,8.18483 6.74954,12.08843 l 4.05436,7.09746 h -47.06546 c -25.88599,0 -47.0532,-0.38326 -47.03823,-0.8517 0.015,-0.46843 2.70924,-5.96186 5.98726,-12.20762 l 5.96006,-11.35593 17.57628,-0.29468 c 9.66697,-0.16207 18.25404,-0.54424 19.08239,-0.84929 1.63789,-0.60314 0.50149,-2.91924 -11.69664,-23.83909 -3.64183,-6.24576 -11.47817,-19.78771 -17.41408,-30.09322 -5.93591,-10.3055 -12.50129,-21.67563 -14.58973,-25.266944 -2.08844,-3.59132 -5.61977,-9.72352 -7.8474,-13.62712 -7.28535,-12.766568 -7.3057,-12.745065 -7.3057,7.72102 v 18.144154 l 15.71254,15.68247 15.71254,15.68246 -8.20759,16.09893 c -7.75983,15.22064 -19.22153,37.47134 -30.0827,58.39978 -2.6741,5.15275 -5.16588,9.36864 -5.53728,9.36864 -0.37138,0 -5.19239,-8.81504 -10.71333,-19.58898 z m 17.82411,-47.30951 c 4.32076,-8.82341 5.25079,-11.67423 4.34802,-13.32812 -1.41413,-2.59068 -9.85551,-10.62129 -11.16287,-10.61966 -0.52402,6.3e-4 -3.65739,2.59558 -6.96305,5.76652 -4.04183,3.87711 -5.80871,6.3872 -5.39483,7.66407 1.61482,4.98192 11.12054,21.76984 12.31904,21.75651 0.7465,-0.008 3.83065,-5.06599 6.85369,-11.23932 z"
     id="path4688"
     inkscape:connector-curvature="0" />
</svg>
