<?xml version="1.0" encoding="UTF-8" standalone="no"?>
<!-- Created with Inkscape (http://www.inkscape.org/) -->

<svg
   xmlns:dc="http://purl.org/dc/elements/1.1/"
   xmlns:cc="http://creativecommons.org/ns#"
   xmlns:rdf="http://www.w3.org/1999/02/22-rdf-syntax-ns#"
   xmlns:svg="http://www.w3.org/2000/svg"
   xmlns="http://www.w3.org/2000/svg"
   xmlns:sodipodi="http://sodipodi.sourceforge.net/DTD/sodipodi-0.dtd"
   xmlns:inkscape="http://www.inkscape.org/namespaces/inkscape"
   version="1.1"
   id="svg22"
   width="54.60783mm"
   height="26.4596mm"
   viewBox="0 0 206.3918 100.00479"
   sodipodi:docname="esoterica-infinite.svg"
   inkscape:version="0.92.5 (2060ec1f9f, 2020-04-08)">
  <metadata
     id="metadata28">
    <rdf:RDF>
      <cc:Work
         rdf:about="">
        <dc:format>image/svg+xml</dc:format>
        <dc:type
           rdf:resource="http://purl.org/dc/dcmitype/StillImage" />
        <dc:title></dc:title>
      </cc:Work>
    </rdf:RDF>
  </metadata>
  <defs
     id="defs26" />
  <sodipodi:namedview
     pagecolor="#ffffff"
     bordercolor="#666666"
     borderopacity="1"
     objecttolerance="10"
     gridtolerance="10"
     guidetolerance="10"
     inkscape:pageopacity="0"
     inkscape:pageshadow="2"
     inkscape:window-width="1920"
     inkscape:window-height="997"
     id="namedview24"
     showgrid="false"
     units="mm"
     fit-margin-top="0"
     fit-margin-left="0"
     fit-margin-right="0"
     fit-margin-bottom="0"
     inkscape:zoom="0.88059701"
     inkscape:cx="103.56382"
     inkscape:cy="49.203115"
     inkscape:window-x="0"
     inkscape:window-y="28"
     inkscape:window-maximized="1"
     inkscape:current-layer="svg22" />
  <path
     style="fill:#000000;fill-opacity:0;stroke:#ff0000;stroke-width:0.56779659;stroke-miterlimit:4;stroke-dasharray:none;stroke-opacity:1"
     d="m 29.523147,95.734084 c -9.812591,-4.8219 -19.8266072,-14.25525 -23.7615362,-22.38373 -1.391942,-2.87537 -3.322837,-9.2482 -4.290876,-14.16184 -1.59557504,-8.09892 -1.59238904,-9.75615 0.03408,-17.73181 2.401486,-11.77608 5.518478,-17.816 13.2962392,-25.764657 C 26.252825,3.9886491 43.501921,-1.8631119 58.088773,1.0066761 68.553002,3.0653871 78.002515,7.9056231 85.697155,15.148261 l 6.77569,6.377683 -8.93668,8.98941 -8.93669,8.98941 -5.061739,-5.06174 c -7.043387,-7.04339 -10.935938,-8.86122 -19.095168,-8.91748 -5.750386,-0.0397 -7.830536,0.52609 -12.461504,3.3892 -9.852244,6.09117 -15.118268,18.50139 -11.938727,28.1355 3.601706,10.91328 12.586579,17.75945 23.353691,17.79473 11.591844,0.038 11.592671,0.0374 45.553637,-33.9937 C 123.35586,12.386428 127.37814,8.7741801 134.01493,5.7683511 c 11.10566,-5.029793 20.02778,-6.478644 29.48651,-4.788275 17.43415,3.115656 29.98794,12.4885459 37.77502,28.2035279 4.72717,9.53983 4.83143,9.99897 4.83143,21.27739 0,11.25384 -0.11277,11.754 -4.75475,21.09409 -5.60585,11.2794 -11.39442,17.29455 -22.49949,23.38022 l -7.94915,4.3562 h -14.2492 c -14.02898,0 -14.37079,-0.0614 -22.11763,-3.97458 -4.32764,-2.18601 -10.85568,-6.78517 -14.50674,-10.22033 l -6.63829,-6.24577 8.99312,-8.78358 8.99311,-8.78358 6.1357,5.67406 c 7.04378,6.51384 12.2542,8.36499 21.63493,7.68645 12.94558,-0.9364 21.54949,-10.55179 21.54949,-24.08287 0,-9.33584 -2.19072,-14.06897 -8.94875,-19.33411 -8.6031,-6.70262 -17.95043,-7.84574 -26.78745,-3.27594 -1.95758,1.0123 -17.45181,15.72825 -34.43162,32.7021 -37.774605,37.76135 -38.836015,38.457 -59.431752,38.95205 -13.023886,0.31304 -13.082432,0.30254 -21.576271,-3.87132 z"
     id="path3086"
     inkscape:connector-curvature="0" />
</svg>
