<?xml version="1.0" encoding="UTF-8" standalone="no"?>
<!-- Created with Inkscape (http://www.inkscape.org/) -->

<svg
   xmlns:dc="http://purl.org/dc/elements/1.1/"
   xmlns:cc="http://creativecommons.org/ns#"
   xmlns:rdf="http://www.w3.org/1999/02/22-rdf-syntax-ns#"
   xmlns:svg="http://www.w3.org/2000/svg"
   xmlns="http://www.w3.org/2000/svg"
   xmlns:sodipodi="http://sodipodi.sourceforge.net/DTD/sodipodi-0.dtd"
   xmlns:inkscape="http://www.inkscape.org/namespaces/inkscape"
   version="1.1"
   id="svg2"
   width="52.027634mm"
   height="67.095551mm"
   viewBox="0 0 196.63988 253.58948"
   sodipodi:docname="esoterica-srivatsa.svg"
   inkscape:version="0.92.5 (2060ec1f9f, 2020-04-08)">
  <metadata
     id="metadata8">
    <rdf:RDF>
      <cc:Work
         rdf:about="">
        <dc:format>image/svg+xml</dc:format>
        <dc:type
           rdf:resource="http://purl.org/dc/dcmitype/StillImage" />
        <dc:title></dc:title>
      </cc:Work>
    </rdf:RDF>
  </metadata>
  <defs
     id="defs6" />
  <sodipodi:namedview
     pagecolor="#ffffff"
     bordercolor="#666666"
     borderopacity="1"
     objecttolerance="10"
     gridtolerance="10"
     guidetolerance="10"
     inkscape:pageopacity="0"
     inkscape:pageshadow="2"
     inkscape:window-width="1920"
     inkscape:window-height="997"
     id="namedview4"
     showgrid="false"
     units="mm"
     fit-margin-top="0"
     fit-margin-left="0"
     fit-margin-right="0"
     fit-margin-bottom="0"
     inkscape:zoom="0.88059701"
     inkscape:cx="98.496477"
     inkscape:cy="126.56133"
     inkscape:window-x="0"
     inkscape:window-y="28"
     inkscape:window-maximized="1"
     inkscape:current-layer="svg2" />
  <path
     style="fill:#000000;fill-opacity:0;stroke:#ff0000;stroke-width:0.56779659;stroke-miterlimit:4;stroke-dasharray:none;stroke-opacity:1"
     d="M 98.332417,0.39925552 77.547257,20.95785 56.762102,41.518396 83.023817,67.912928 c 14.44384,14.517699 26.593793,26.271594 27.000003,26.119144 1.37972,-0.51779 12.32032,-11.151397 12.32032,-11.974613 0,-0.450294 -8.68689,-9.495593 -19.30469,-20.099609 C 92.421657,51.353833 83.732807,42.146423 83.732807,41.496912 c 0,-0.649509 3.20852,-4.35861 7.1289,-8.244141 l 7.12891,-7.064453 7.917973,7.980469 7.91797,7.982422 -5.39453,4.955078 c -2.96674,2.724917 -5.39258,5.473194 -5.39258,6.107422 0,0.634229 2.64307,3.883609 5.87305,7.220703 l 5.87109,6.066406 L 127.36562,54.018396 139.9457,41.535974 119.13906,20.967615 Z M 41.469133,57.129724 23.139055,75.537928 C 13.058001,85.662686 3.8155847,95.076882 2.5999927,96.457852 L 0.38905473,98.969572 26.437883,125.03597 c 14.326602,14.33677 26.563692,26.01076 27.19336,25.94336 0.629669,-0.0674 3.671837,-2.9006 6.759765,-6.29687 L 66.004287,138.50668 45.900774,118.37972 25.797258,98.252772 32.93593,91.178553 c 3.926284,-3.891383 7.657143,-7.076172 8.291016,-7.076172 0.633875,0 3.40958,2.300735 6.167969,5.111328 2.758389,2.810593 5.318233,5.109373 5.689453,5.109373 0.925115,0 12.480469,-11.379886 12.480469,-12.291014 0,-0.40239 -5.422468,-6.169433 -12.048829,-12.816406 z M 155.28359,57.98324 c -0.44357,0 -12.58454,11.770628 -26.98047,26.15625 l -26.17578,26.15625 6.41797,6.49219 6.41797,6.49218 19.63281,-19.66797 c 10.79865,-10.817729 20.08196,-19.504636 20.62891,-19.304681 1.13622,0.415382 14.81445,13.355913 14.81445,14.015623 0,0.23832 -2.47484,2.908438 -5.5,5.933598 l -5.50195,5.50195 4.08203,4.51367 c 9.10497,10.07257 7.49842,10.33988 21.10547,-3.5 6.60319,-6.71618 11.86185,-12.386608 11.68554,-12.599608 -2.6277,-3.17461 -40.04543,-40.189452 -40.62695,-40.189452 z M 81.855857,73.782068 63.416399,92.174646 44.974993,110.56722 l 5.998046,6.07227 c 3.298705,3.34019 6.316575,6.07422 6.707032,6.07422 0.964133,0 36.273436,-35.258022 36.273436,-36.220704 0,-0.420495 -2.72202,-3.45279 -6.04883,-6.738282 z m 4.76367,28.509762 -6.56446,6.4961 -6.56445,6.49414 17.88281,17.91015 c 9.836013,9.85044 18.162973,17.91016 18.503913,17.91016 0.34095,0 3.40131,-2.81558 6.80078,-6.25781 l 6.18164,-6.25977 -18.12109,-18.14648 z m 56.775393,0.004 -6.58594,6.51758 -6.58789,6.51757 19.91016,19.76368 c 10.94963,10.87055 19.9082,19.99878 19.9082,20.28515 0,0.28637 -3.40311,3.82493 -7.5625,7.86328 l -7.5625,7.34375 -5.75781,-5.75781 -5.75782,-5.75781 -6.56054,6.49219 -6.5625,6.49414 12.19726,12.23437 c 6.70823,6.72911 12.26501,12.23438 12.34961,12.23438 0.0846,0 9.43798,-9.3028 20.78516,-20.67383 l 20.63086,-20.67578 -26.42188,-26.43946 z m -4.95703,28.06836 -18.36524,18.46679 -18.36523,18.46875 6.02148,6.09571 c 3.31142,3.35307 6.3781,6.09765 6.81446,6.09765 1.08208,0 36.18945,-35.04298 36.18945,-36.12304 0,-0.47371 -2.76487,-3.59399 -6.14649,-6.9336 z M 24.992571,130.47747 14.900774,140.64739 C 9.3507007,146.24094 3.8168707,151.92679 2.6019457,153.28216 L 0.39296073,155.747 20.721086,176.09856 c 19.743856,19.76674 20.396603,20.2985 22.59375,18.4043 5.190561,-4.47487 50.638671,-50.38762 50.638671,-51.15625 0,-0.46065 -2.72657,-3.53164 -6.05859,-6.82227 l -6.05664,-5.98242 -20.097659,20.14649 -20.09961,20.14648 -7.34375,-7.27734 c -4.039076,-4.00317 -7.34375,-7.72825 -7.34375,-8.27735 0,-0.54912 2.300734,-3.33078 5.111328,-6.18164 2.810593,-2.85087 5.109375,-5.49986 5.109375,-5.88672 0,-0.38686 -2.741657,-3.41023 -6.091796,-6.71875 z m 61.621096,28.59766 -6.5625,6.49414 -6.5625,6.49414 20.15039,20.17382 20.148443,20.17188 -7.79493,7.49219 -7.792973,7.49414 -7.23242,-7.16797 c -3.97795,-3.94259 -7.23437,-7.61759 -7.23437,-8.16602 0,-0.54843 2.49962,-3.44409 5.55469,-6.43554 l 5.55468,-5.43946 -6.54101,-6.47461 -6.54102,-6.47265 -12.56836,12.30859 -12.568357,12.30859 20.640627,20.72461 c 11.35242,11.39852 20.69848,20.72461 20.76758,20.72461 0.0691,0 9.423113,-9.29866 20.787113,-20.66406 l 20.66211,-20.66406 -26.4336,-26.45117 z"
     id="path817"
     inkscape:connector-curvature="0" />
</svg>
