<?xml version="1.0" encoding="UTF-8" standalone="no"?>
<!-- Created with Inkscape (http://www.inkscape.org/) -->

<svg
   xmlns:dc="http://purl.org/dc/elements/1.1/"
   xmlns:cc="http://creativecommons.org/ns#"
   xmlns:rdf="http://www.w3.org/1999/02/22-rdf-syntax-ns#"
   xmlns:svg="http://www.w3.org/2000/svg"
   xmlns="http://www.w3.org/2000/svg"
   xmlns:sodipodi="http://sodipodi.sourceforge.net/DTD/sodipodi-0.dtd"
   xmlns:inkscape="http://www.inkscape.org/namespaces/inkscape"
   version="1.1"
   id="svg2"
   width="46.290764mm"
   height="64.628571mm"
   viewBox="0 0 174.95722 244.26547"
   sodipodi:docname="esoterica-masonic_cult.svg"
   inkscape:version="0.92.5 (2060ec1f9f, 2020-04-08)">
  <metadata
     id="metadata8">
    <rdf:RDF>
      <cc:Work
         rdf:about="">
        <dc:format>image/svg+xml</dc:format>
        <dc:type
           rdf:resource="http://purl.org/dc/dcmitype/StillImage" />
        <dc:title></dc:title>
      </cc:Work>
    </rdf:RDF>
  </metadata>
  <defs
     id="defs6" />
  <sodipodi:namedview
     pagecolor="#ffffff"
     bordercolor="#666666"
     borderopacity="1"
     objecttolerance="10"
     gridtolerance="10"
     guidetolerance="10"
     inkscape:pageopacity="0"
     inkscape:pageshadow="2"
     inkscape:window-width="1920"
     inkscape:window-height="997"
     id="namedview4"
     showgrid="false"
     units="mm"
     fit-margin-top="0"
     fit-margin-left="0"
     fit-margin-right="0"
     fit-margin-bottom="0"
     inkscape:zoom="0.88059701"
     inkscape:cx="88.052374"
     inkscape:cy="122.15757"
     inkscape:window-x="0"
     inkscape:window-y="28"
     inkscape:window-maximized="1"
     inkscape:current-layer="svg2" />
  <path
     style="fill:#000000;fill-opacity:0;stroke:#ff0000;stroke-width:0.56779659;stroke-miterlimit:4;stroke-dasharray:none;stroke-opacity:1"
     d="M 9.1768867,235.03573 0.40096572,226.20804 28.171821,198.45454 c 15.273971,-15.26443 27.581893,-27.94248 27.350933,-28.17344 -0.23096,-0.23096 -11.453995,-0.36408 -24.940071,-0.29582 l -24.5201403,0.1241 V 157.57813 145.04688 H 30.410778 c 14.435216,0 24.624246,-0.4466 25.026186,-1.09693 0.37286,-0.60332 -11.812559,-13.5578 -27.078726,-28.78774 L 0.60157072,87.471422 44.147569,43.93644 87.693564,0.40145934 131.12467,43.829069 l 43.4311,43.427612 -27.61352,27.630789 c -16.19967,16.2098 -27.29055,28.15339 -26.83214,28.8951 0.53465,0.86508 8.46986,1.26431 25.12962,1.26431 h 24.34823 v 12.553 12.55298 l -24.98423,-0.34535 c -13.74132,-0.18996 -24.9837,-0.0524 -24.98305,0.30581 6.5e-4,0.35816 12.26559,12.86179 27.25542,27.78587 14.98983,14.92406 27.25424,27.60108 27.25424,28.17113 0,0.57006 -3.8998,4.75105 -8.6662,9.29111 l -8.66622,8.25463 L 122.1213,209.00737 87.444674,174.39869 52.69874,209.13105 17.952808,243.86342 Z M 113.91258,112.71382 139.41318,87.194303 114.25692,62.179913 C 100.42097,48.421999 88.497064,37.165523 87.759334,37.165523 c -1.41143,0 -51.522425,49.827728 -50.854767,50.567302 3.929892,4.353201 50.412517,50.500495 50.867457,50.500495 0.35198,0 12.11523,-11.48377 26.140556,-25.5195 z"
     id="path3107"
     inkscape:connector-curvature="0" />
</svg>
