<?xml version="1.0" encoding="UTF-8" standalone="no"?>
<!-- Created with Inkscape (http://www.inkscape.org/) -->

<svg
   xmlns:dc="http://purl.org/dc/elements/1.1/"
   xmlns:cc="http://creativecommons.org/ns#"
   xmlns:rdf="http://www.w3.org/1999/02/22-rdf-syntax-ns#"
   xmlns:svg="http://www.w3.org/2000/svg"
   xmlns="http://www.w3.org/2000/svg"
   xmlns:sodipodi="http://sodipodi.sourceforge.net/DTD/sodipodi-0.dtd"
   xmlns:inkscape="http://www.inkscape.org/namespaces/inkscape"
   version="1.1"
   id="svg2"
   width="49.972057mm"
   height="65.061798mm"
   viewBox="0 0 188.87077 245.90286"
   sodipodi:docname="esoterica-masonic_hall.svg"
   inkscape:version="0.92.5 (2060ec1f9f, 2020-04-08)">
  <metadata
     id="metadata8">
    <rdf:RDF>
      <cc:Work
         rdf:about="">
        <dc:format>image/svg+xml</dc:format>
        <dc:type
           rdf:resource="http://purl.org/dc/dcmitype/StillImage" />
        <dc:title></dc:title>
      </cc:Work>
    </rdf:RDF>
  </metadata>
  <defs
     id="defs6" />
  <sodipodi:namedview
     pagecolor="#ffffff"
     bordercolor="#666666"
     borderopacity="1"
     objecttolerance="10"
     gridtolerance="10"
     guidetolerance="10"
     inkscape:pageopacity="0"
     inkscape:pageshadow="2"
     inkscape:window-width="1920"
     inkscape:window-height="997"
     id="namedview4"
     showgrid="false"
     inkscape:zoom="0.88059701"
     inkscape:cx="94.332623"
     inkscape:cy="124.00656"
     inkscape:window-x="0"
     inkscape:window-y="28"
     inkscape:window-maximized="1"
     inkscape:current-layer="svg2"
     units="mm"
     fit-margin-top="0"
     fit-margin-left="0"
     fit-margin-right="0"
     fit-margin-bottom="0" />
  <path
     style="fill:#000000;fill-opacity:0;stroke:#ff0000;stroke-width:0.56779659;stroke-miterlimit:4;stroke-dasharray:none;stroke-opacity:1"
     d="m 0.65934594,242.96364 c 0.39397396,-1.81848 2.68213596,-9.18302 5.08480396,-16.36565 2.402669,-7.18262 8.3320291,-25.32372 13.1763571,-40.31355 4.844327,-14.98983 12.218043,-37.73009 16.386034,-50.5339 4.167991,-12.80382 11.529188,-35.54407 16.358215,-50.533901 4.829028,-14.989831 10.493697,-32.364407 12.588147,-38.61017 2.09445,-6.245762 6.23709,-19.021186 9.20585,-28.38983 2.96876,-9.3686442 5.69918,-17.40477721 6.06761,-17.85807321 0.79406,-0.976986 3.58305,6.97851101 16.01425,45.68010721 5.115747,15.926695 12.813457,39.573923 17.106017,52.549397 4.29254,12.97547 7.80463,24.34561 7.80463,25.26695 0,3.08193 3.21687,1.72751 12.87841,-5.42228 5.27496,-3.9036 12.4741,-9.14152 15.99808,-11.63983 3.52399,-2.4983 10.60507,-7.72339 15.73573,-11.61131 l 9.32846,-7.06893 2.52128,3.09436 c 5.90454,7.24663 11.67364,15.62852 11.67364,16.96057 0,0.78969 -1.91632,2.69366 -4.25848,4.23104 -2.34216,1.53739 -9.87966,6.91023 -16.75,11.93965 -6.87034,5.02943 -18.21757,13.25595 -25.21606,18.28118 l -12.72454,9.13675 3.18381,9.31496 c 1.75108,5.12323 5.63316,16.9802 8.62685,26.34885 2.99368,9.36864 6.81033,20.89037 8.48146,25.60383 l 3.03841,8.56994 -10.86446,3.79368 c -5.97545,2.08651 -11.48183,4.02545 -12.23639,4.30873 -0.78781,0.29577 -1.68451,-0.85853 -2.10606,-2.71107 -0.40378,-1.77437 -4.51523,-14.72401 -9.13656,-28.77698 -4.62133,-14.05296 -8.4005,-26.20565 -8.39816,-27.00597 0.002,-0.80033 -0.73417,-1.73849 -1.63668,-2.08482 -1.46021,-0.56034 -4.77318,1.45672 -15.171247,9.23682 -1.68339,1.25956 -7.33812,5.34769 -12.56607,9.08475 -5.22795,3.73705 -11.22338,8.07219 -13.32319,9.63363 -6.51528,4.84485 -30.129559,22.05314 -32.724948,23.84746 -1.35513,0.93686 -8.738086,6.30254 -16.406568,11.92373 -7.668483,5.62118 -14.9579521,10.94165 -16.1988211,11.82327 -2.13045796,1.51366 -2.21622596,1.41878 -1.53980996,-1.70339 z M 59.911181,171.80562 c 5.325152,-3.9036 15.120692,-11.08656 21.767872,-15.96212 6.64717,-4.87557 13.48784,-9.73023 15.20147,-10.78814 1.71364,-1.05791 3.11894,-2.52372 3.122887,-3.25736 0.004,-0.73362 -3.220307,-11.20947 -7.165007,-23.27966 -3.9447,-12.07017 -8.16165,-25.18015 -9.371,-29.13329 -1.20934,-3.95313 -2.6655,-7.175231 -3.23591,-7.160221 -0.98571,0.02594 -8.72594,22.638231 -24.541405,71.695201 -3.926461,12.17924 -7.368691,22.78284 -7.649399,23.56356 -1.042277,2.89883 2.447425,1.22962 11.870492,-5.67797 z"
     id="path817"
     inkscape:connector-curvature="0" />
</svg>
