<?xml version="1.0" encoding="UTF-8" standalone="no"?>
<!-- Created with Inkscape (http://www.inkscape.org/) -->

<svg
   xmlns:dc="http://purl.org/dc/elements/1.1/"
   xmlns:cc="http://creativecommons.org/ns#"
   xmlns:rdf="http://www.w3.org/1999/02/22-rdf-syntax-ns#"
   xmlns:svg="http://www.w3.org/2000/svg"
   xmlns="http://www.w3.org/2000/svg"
   xmlns:sodipodi="http://sodipodi.sourceforge.net/DTD/sodipodi-0.dtd"
   xmlns:inkscape="http://www.inkscape.org/namespaces/inkscape"
   version="1.1"
   id="svg82"
   width="60.263626mm"
   height="52.129642mm"
   viewBox="0 0 227.76804 197.02542"
   sodipodi:docname="esoterica-tetraktys.svg"
   inkscape:version="0.92.5 (2060ec1f9f, 2020-04-08)">
  <metadata
     id="metadata88">
    <rdf:RDF>
      <cc:Work
         rdf:about="">
        <dc:format>image/svg+xml</dc:format>
        <dc:type
           rdf:resource="http://purl.org/dc/dcmitype/StillImage" />
        <dc:title></dc:title>
      </cc:Work>
    </rdf:RDF>
  </metadata>
  <defs
     id="defs86" />
  <sodipodi:namedview
     pagecolor="#ffffff"
     bordercolor="#666666"
     borderopacity="1"
     objecttolerance="10"
     gridtolerance="10"
     guidetolerance="10"
     inkscape:pageopacity="0"
     inkscape:pageshadow="2"
     inkscape:window-width="1920"
     inkscape:window-height="997"
     id="namedview84"
     showgrid="false"
     units="mm"
     fit-margin-top="0"
     fit-margin-left="0"
     fit-margin-right="0"
     fit-margin-bottom="0"
     inkscape:zoom="0.88059701"
     inkscape:cx="114.0538"
     inkscape:cy="99.30763"
     inkscape:window-x="0"
     inkscape:window-y="28"
     inkscape:window-maximized="1"
     inkscape:current-layer="svg82" />
  <path
     style="fill:#000000;fill-opacity:0;stroke:#ff0000;stroke-width:0.56779659;stroke-miterlimit:4;stroke-dasharray:none;stroke-opacity:1"
     d="m 0.48580944,194.75424 c 0.93832596,-1.09301 3.22585396,-4.79788 5.08339496,-8.23305 1.857541,-3.43517 6.2791896,-11.22818 9.8258866,-17.3178 13.391425,-22.99285 43.421873,-74.920614 48.433632,-83.750004 2.304404,-4.05974 7.086908,-12.36377 10.62779,-18.45339 L 87.33244,44.855932 c 3.54089,-6.089619 8.31854,-14.393644 10.61701,-18.45339 12.17158,-21.4984047 15.01341,-26.11864371 16.0651,-26.11864371 0.42743,0 2.2668,2.68283901 4.08749,5.96186401 1.8207,3.279026 5.2577,9.2834747 7.63778,13.3432197 2.38008,4.059746 6.21444,10.702967 8.52078,14.762712 4.50511,7.930098 19.39157,33.716102 25.8957,44.855932 2.188,3.74746 5.12192,8.90537 6.51982,11.46202 1.39791,2.55665 3.87611,6.76238 5.50712,9.346084 1.63101,2.58369 2.96548,4.95336 2.96548,5.26593 0,0.31257 1.78855,3.36428 3.97457,6.78157 2.18602,3.4173 3.97458,6.50584 3.97458,6.86344 0,0.35761 2.04407,3.88674 4.54237,7.84252 2.49831,3.9558 4.54237,7.54493 4.54237,7.97588 0,0.43093 1.78856,3.57949 3.97458,6.99678 2.18602,3.4173 3.97458,6.38552 3.97458,6.59606 0,0.21054 2.63435,4.92752 5.85412,10.48219 3.21975,5.55467 7.88846,13.67651 10.37489,18.04855 2.48643,4.37203 5.37041,9.22669 6.40887,10.78813 1.03846,1.56144 2.491,4.24428 3.22789,5.96187 l 1.33977,3.12288 H 113.05853 c -108.7297836,0 -114.1959296,-0.0965 -112.57272056,-1.98729 z M 66.131766,183.96349 c 0,-0.78215 -2.457853,-5.59819 -5.461897,-10.7023 -3.004042,-5.10411 -7.730949,-13.39198 -10.504237,-18.41749 -2.773287,-5.02551 -5.637422,-9.15228 -6.364744,-9.17058 -0.727323,-0.0183 -2.558116,2.13854 -4.068429,4.79299 -1.510313,2.65444 -5.642137,9.80424 -9.181832,15.88844 -3.539695,6.08419 -6.43581,11.51505 -6.43581,12.06858 0,0.55352 -0.766525,1.64256 -1.70339,2.42009 -0.936864,0.77753 -1.70339,2.11765 -1.70339,2.97803 0,1.27659 4.177827,1.56435 22.711865,1.56435 17.434674,0 22.711864,-0.33044 22.711864,-1.42211 z m 71.542374,0.66983 c 0,-0.41375 -1.45914,-3.09659 -3.24253,-5.96186 -1.78339,-2.86527 -7.20994,-11.98057 -12.05899,-20.2562 -4.84905,-8.27564 -9.18369,-15.04661 -9.63252,-15.04661 -0.44884,0 -2.21186,2.68284 -3.91781,5.96186 -1.70596,3.27903 -5.60543,10.05 -8.66548,15.04661 -5.89966,9.63326 -11.31318,19.39635 -11.31318,20.40293 0,0.33305 10.98686,0.60555 24.41525,0.60555 13.42839,0 24.41526,-0.33852 24.41526,-0.75228 z m 69.27119,-0.40588 c 0,-0.63699 -1.33447,-3.27209 -2.96548,-5.85578 -1.63101,-2.58369 -4.11473,-6.78943 -5.51938,-9.34608 -6.34527,-11.54926 -11.10797,-19.63414 -13.10726,-22.25015 l -2.16971,-2.83899 -2.0301,2.79746 c -1.11656,1.5386 -3.59678,5.62674 -5.51161,9.08474 -1.91481,3.45802 -6.38621,11.26527 -9.93644,17.34947 -3.55022,6.08419 -6.45494,11.32212 -6.45494,11.63983 0,0.31771 10.73136,0.57766 23.84746,0.57766 15.45102,0 23.84746,-0.40778 23.84746,-1.15816 z M 82.9855,170.66063 c 2.59541,-4.35126 5.67606,-9.58919 6.84588,-11.63983 1.16983,-2.05063 4.45513,-7.64075 7.30069,-12.42248 2.84555,-4.78173 4.87017,-8.99762 4.49914,-9.36864 -0.83531,-0.83532 -47.990969,-0.90603 -47.990969,-0.072 0,0.33145 2.12209,4.29183 4.715756,8.80085 5.226266,9.08573 12.491052,21.82182 16.168622,28.34563 1.317405,2.33701 2.698283,4.25332 3.068616,4.25848 0.370334,0.006 2.796855,-3.55076 5.392265,-7.90204 z m 72.29033,-2.83379 c 1.87373,-3.2666 5.41627,-9.46727 7.8723,-13.77924 2.45604,-4.31199 5.6273,-9.58614 7.04724,-11.72035 1.41995,-2.13421 2.31864,-4.30603 1.99712,-4.82627 -0.72653,-1.17554 -48.15888,-1.26841 -48.11005,-0.0941 0.0195,0.46843 3.07119,5.96186 6.78157,12.20763 3.71039,6.24576 7.85752,13.4 9.21585,15.8983 1.35833,2.49831 3.74881,6.56974 5.31219,9.04764 l 2.84249,4.50525 1.81726,-2.64974 c 0.99949,-1.45735 3.35031,-5.32241 5.22403,-8.58902 z m -52.80508,-43.03821 c 0,-0.38169 -3.83756,-7.3406 -13.23762,-24.00473 -2.11391,-3.747464 -4.95671,-8.985384 -6.31734,-11.639834 -1.36064,-2.65445 -3.100197,-4.82627 -3.865694,-4.82627 -0.765496,0 -2.876625,2.68284 -4.691399,5.96186 -1.814773,3.27903 -6.702274,11.838564 -10.861114,19.021194 -4.15884,7.18263 -7.567069,13.69809 -7.573842,14.47881 -0.0094,1.08983 5.394113,1.4195 23.267347,1.4195 12.803812,0 23.279662,-0.18474 23.279662,-0.41053 z m 69.59716,-0.29398 c 0.38747,-0.38748 -1.06041,-3.46351 -3.21751,-6.83561 -2.15712,-3.37211 -3.92202,-6.45971 -3.92202,-6.86133 0,-0.40162 -1.4499,-3.07454 -3.22198,-5.93981 -1.77208,-2.86528 -5.45147,-8.986714 -8.17644,-13.603194 -5.85934,-9.92657 -3.91441,-11.4091 -18.64253,14.210264 -2.46955,4.29575 -5.91892,10.08232 -7.66526,12.85905 -1.74633,2.77673 -3.17515,5.45957 -3.17515,5.96187 0,1.05925 46.96623,1.26343 48.02089,0.20876 z M 123.53154,101.6356 c 14.26144,-23.967394 14.1426,-23.761094 14.1426,-24.549304 0,-0.39471 -10.76579,-0.71765 -23.92399,-0.71765 -23.74595,0 -23.91837,0.0176 -23.17115,2.37194 0.70706,2.22777 2.50293,5.47865 13.11824,23.746704 2.35906,4.05975 5.18688,9.29767 6.28405,11.63983 1.09718,2.34216 2.35228,4.25848 2.78913,4.25848 0.43685,0 5.27935,-7.5375 10.76112,-16.75 z m 13.76179,-38.248489 c -0.75658,-1.971624 -16.36695,-29.099565 -20.63998,-35.868479 -3.41664,-5.412322 -3.05758,-5.602958 -8.59234,4.561876 -1.87045,3.435169 -4.47502,8.034322 -5.78794,10.220339 -6.51715,10.851115 -11.11491,18.933863 -11.78888,20.724576 -0.69768,1.853713 0.87133,1.987293 23.34249,1.987293 20.43483,0 23.99579,-0.24668 23.46665,-1.625605 z"
     id="path6389"
     inkscape:connector-curvature="0" />
</svg>
