<?xml version="1.0" encoding="UTF-8" standalone="no"?>
<!-- Created with Inkscape (http://www.inkscape.org/) -->

<svg
   xmlns:dc="http://purl.org/dc/elements/1.1/"
   xmlns:cc="http://creativecommons.org/ns#"
   xmlns:rdf="http://www.w3.org/1999/02/22-rdf-syntax-ns#"
   xmlns:svg="http://www.w3.org/2000/svg"
   xmlns="http://www.w3.org/2000/svg"
   xmlns:sodipodi="http://sodipodi.sourceforge.net/DTD/sodipodi-0.dtd"
   xmlns:inkscape="http://www.inkscape.org/namespaces/inkscape"
   version="1.1"
   id="svg12"
   width="42.432148mm"
   height="62.044792mm"
   viewBox="0 0 160.37347 234.5"
   sodipodi:docname="esoterica-nauthiz.svg"
   inkscape:version="0.92.5 (2060ec1f9f, 2020-04-08)">
  <metadata
     id="metadata18">
    <rdf:RDF>
      <cc:Work
         rdf:about="">
        <dc:format>image/svg+xml</dc:format>
        <dc:type
           rdf:resource="http://purl.org/dc/dcmitype/StillImage" />
        <dc:title></dc:title>
      </cc:Work>
    </rdf:RDF>
  </metadata>
  <defs
     id="defs16" />
  <sodipodi:namedview
     pagecolor="#ffffff"
     bordercolor="#666666"
     borderopacity="1"
     objecttolerance="10"
     gridtolerance="10"
     guidetolerance="10"
     inkscape:pageopacity="0"
     inkscape:pageshadow="2"
     inkscape:window-width="1920"
     inkscape:window-height="997"
     id="namedview14"
     showgrid="false"
     units="mm"
     fit-margin-top="0"
     fit-margin-left="0"
     fit-margin-right="0"
     fit-margin-bottom="0"
     inkscape:zoom="0.88059701"
     inkscape:cx="79.639844"
     inkscape:cy="117.47712"
     inkscape:window-x="0"
     inkscape:window-y="28"
     inkscape:window-maximized="1"
     inkscape:current-layer="svg12" />
  <path
     style="fill:#ff0000;fill-opacity:0.01829266;stroke:#ff0000;stroke-width:0.56779659;stroke-miterlimit:4;stroke-dasharray:none;stroke-opacity:1"
     d="m 66.648004,178.33555 -0.2946,-55.88057 -5.20297,-4.02198 C 58.288804,116.22091 45.818314,106.23474 33.438235,96.241521 21.058158,86.248301 8.6828879,76.388216 5.9376339,74.330216 3.1923809,72.272217 0.66801292,69.863288 0.32792792,68.977039 -0.02913408,68.046552 2.3682639,64.231783 6.0016219,59.948987 9.4622399,55.869805 12.755343,51.7073 13.319632,50.698973 c 0.85597,-1.529535 3.641357,0.264382 16.809535,10.826114 8.680958,6.962689 16.562737,13.278615 17.515067,14.035394 0.95233,0.756777 5.35286,4.314307 9.77895,7.90562 4.4261,3.59131 8.37383,6.52966 8.77273,6.52966 0.39891,0 0.72529,-20.185168 0.72529,-44.855931 V 0.28389829 h 12.49152 12.49153 V 55.729683 111.17547 l 7.09745,5.69892 c 20.687816,16.61134 35.594156,28.50834 38.887326,31.03663 2.03382,1.56144 7.83646,6.23636 12.89475,10.3887 l 9.19688,7.54972 -2.49312,3.23841 c -1.37123,1.78114 -4.87326,6.12907 -7.78231,9.6621 l -5.28917,6.42367 -20.7224,-16.64401 c -11.39733,-9.15421 -22.44596,-17.80124 -24.552516,-19.21564 -2.10656,-1.41439 -3.83011,-3.07519 -3.83011,-3.69068 0,-0.61548 -0.76653,-1.11905 -1.70339,-1.11905 -1.48538,0 -1.70339,5.74106 -1.70339,44.85593 v 44.85593 h -12.48083 -12.48082 z"
     id="path5388"
     inkscape:connector-curvature="0" />
</svg>
