<?xml version="1.0" encoding="UTF-8" standalone="no"?>
<!-- Created with Inkscape (http://www.inkscape.org/) -->

<svg
   xmlns:dc="http://purl.org/dc/elements/1.1/"
   xmlns:cc="http://creativecommons.org/ns#"
   xmlns:rdf="http://www.w3.org/1999/02/22-rdf-syntax-ns#"
   xmlns:svg="http://www.w3.org/2000/svg"
   xmlns="http://www.w3.org/2000/svg"
   xmlns:sodipodi="http://sodipodi.sourceforge.net/DTD/sodipodi-0.dtd"
   xmlns:inkscape="http://www.inkscape.org/namespaces/inkscape"
   version="1.1"
   id="svg102"
   width="59.516792mm"
   height="68.718788mm"
   viewBox="0 0 224.94536 259.72456"
   sodipodi:docname="hermetica-hexagram_interlaced.svg"
   inkscape:version="0.92.5 (2060ec1f9f, 2020-04-08)">
  <metadata
     id="metadata108">
    <rdf:RDF>
      <cc:Work
         rdf:about="">
        <dc:format>image/svg+xml</dc:format>
        <dc:type
           rdf:resource="http://purl.org/dc/dcmitype/StillImage" />
        <dc:title></dc:title>
      </cc:Work>
    </rdf:RDF>
  </metadata>
  <defs
     id="defs106" />
  <sodipodi:namedview
     pagecolor="#ffffff"
     bordercolor="#666666"
     borderopacity="1"
     objecttolerance="10"
     gridtolerance="10"
     guidetolerance="10"
     inkscape:pageopacity="0"
     inkscape:pageshadow="2"
     inkscape:window-width="1920"
     inkscape:window-height="997"
     id="namedview104"
     showgrid="false"
     units="mm"
     fit-margin-top="0"
     fit-margin-left="0"
     fit-margin-right="0"
     fit-margin-bottom="0"
     inkscape:zoom="0.88059701"
     inkscape:cx="-69.270202"
     inkscape:cy="130.12712"
     inkscape:window-x="0"
     inkscape:window-y="28"
     inkscape:window-maximized="1"
     inkscape:current-layer="svg102" />
  <path
     style="fill:#ff0000;fill-opacity:0.01829266;stroke:#ff0000;stroke-width:0.56779659;stroke-miterlimit:4;stroke-dasharray:none;stroke-opacity:1"
     d="m 3.2341899,189.72709 c 1.510313,-2.65445 5.719979,-9.93644 9.3548121,-16.1822 3.634836,-6.24577 11.465444,-19.78771 17.401354,-30.09322 5.935909,-10.30551 12.425828,-21.54788 14.422042,-24.98305 1.996214,-3.43517 7.08042,-12.25022 11.298236,-19.588989 L 63.37939,85.536414 h 6.741718 6.741718 l -3.05509,5.394068 c -1.680299,2.966737 -3.839402,6.668569 -4.798007,8.226289 -0.958605,1.557719 -5.557312,9.478479 -10.219349,17.601689 -4.662036,8.12321 -10.110019,17.58007 -12.106625,21.01524 -18.939668,32.58576 -25.20074,43.84656 -24.78232,44.57204 0.270169,0.46843 8.811621,0.85169 18.981005,0.85169 h 18.489791 l 3.090336,5.67797 3.090336,5.67796 H 33.020536 0.48816591 Z"
     id="path6347"
     inkscape:connector-curvature="0" />
  <path
     style="fill:#ff0000;fill-opacity:0.01829266;stroke:#ff0000;stroke-width:0.56779659;stroke-miterlimit:4;stroke-dasharray:none;stroke-opacity:1"
     d="M 27.306267,111.47326 C 22.5189,103.11216 20.257639,99.140891 12.241397,85.016069 11.192814,83.168439 8.1547569,78.058269 5.4901589,73.660137 L 0.64543591,65.663533 62.837617,65.368535 c 34.205703,-0.162249 62.807863,-0.05939 63.560363,0.22857 1.20879,0.462568 6.01317,8.645321 6.01317,10.241527 0,0.33717 -24.75416,0.613036 -55.009248,0.613036 -30.255089,0 -55.272319,0.425651 -55.593845,0.945893 -0.321526,0.52024 0.571208,2.692062 1.983854,4.826271 1.412646,2.134208 5.55243,9.153624 9.199518,15.598699 l 6.631071,11.718319 -2.59878,4.74778 c -1.429328,2.61128 -2.980368,5.17699 -3.446754,5.70158 -0.466387,0.52458 -3.288201,-3.30804 -6.270699,-8.51695 z"
     id="path6349"
     inkscape:connector-curvature="0" />
  <path
     style="fill:#ff0000;fill-opacity:0.01829266;stroke:#ff0000;stroke-width:0.56779659;stroke-miterlimit:4;stroke-dasharray:none;stroke-opacity:1"
     d="m 166.99281,117.65912 c -1.9053,-2.90785 -13.75371,-23.305347 -22.94695,-39.504062 -2.12679,-3.747458 -5.78852,-10.135169 -8.13718,-14.194915 -2.34865,-4.059746 -8.23187,-14.280085 -13.07381,-22.711865 -4.84193,-8.431779 -9.02022,-15.551949 -9.28509,-15.822598 -0.96547,-0.986568 -3.44224,2.563476 -11.26881,16.151994 l -7.98612,13.86552 -7.24856,0.342967 c -5.84683,0.276644 -7.01295,0.05704 -6.03019,-1.135593 0.67011,-0.813209 5.17365,-8.37729 10.00786,-16.809069 4.83422,-8.43178 10.4313,-18.141102 12.43796,-21.576271 2.00667,-3.43517 4.88566,-8.3735977 6.39777,-10.9742852 l 2.74928,-4.7285225 2.11289,3.5929293 c 4.22176,7.1790254 19.31757,33.2874704 23.08848,39.9319124 4.24644,7.482322 9.48559,16.537879 17.99379,31.101146 3.06056,5.238683 6.88348,11.881903 8.49538,14.762712 1.6119,2.88081 4.7849,8.443881 7.05111,12.36238 l 4.12037,7.12454 -2.81549,5.29521 c -3.60168,6.77383 -3.25782,6.59616 -5.66269,2.92587 z"
     id="path6351"
     inkscape:connector-curvature="0" />
  <path
     style="fill:#ff0000;fill-opacity:0.01829266;stroke:#ff0000;stroke-width:0.56779659;stroke-miterlimit:4;stroke-dasharray:none;stroke-opacity:1"
     d="m 151.26881,168.71862 c 1.6803,-2.96674 3.84853,-6.67161 4.81829,-8.23305 0.96977,-1.56145 3.62765,-6.1606 5.9064,-10.22034 2.27876,-4.05975 5.9335,-10.44746 8.12165,-14.19492 8.26637,-14.15709 21.85715,-37.750329 25.83905,-44.85593 2.27504,-4.059746 5.00738,-8.699691 6.07187,-10.310989 1.06448,-1.611297 1.59295,-3.272103 1.17438,-3.690678 -0.41858,-0.418575 -8.81735,-0.761045 -18.66395,-0.761045 h -17.9029 l -2.19952,-3.122881 c -1.20974,-1.717585 -2.55652,-4.27267 -2.99284,-5.677966 l -0.79331,-2.555085 h 31.81553 31.81552 l -4.59683,8.233051 c -2.52826,4.528178 -6.68137,11.735832 -9.22914,16.017011 -2.54778,4.281177 -5.43569,9.242233 -6.4176,11.024572 -4.35292,7.9014 -20.10786,35.27379 -31.65966,55.00503 -2.19398,3.74745 -5.47871,9.49639 -7.2994,12.77542 l -3.31036,5.96186 h -6.77613 -6.77614 z"
     id="path6353"
     inkscape:connector-curvature="0" />
  <path
     style="fill:#ff0000;fill-opacity:0.01829266;stroke:#ff0000;stroke-width:0.56779659;stroke-miterlimit:4;stroke-dasharray:none;stroke-opacity:1"
     d="m 95.50437,188.8754 -2.87724,-5.67797 h 55.02838 c 30.26561,0 55.27845,-0.40462 55.58409,-0.89915 0.30564,-0.49454 -3.58969,-7.97847 -8.65628,-16.63097 l -9.21199,-15.73181 3.27016,-6.04534 c 1.7986,-3.32493 3.35768,-5.93358 3.46465,-5.797 0.10696,0.13659 4.02046,6.89156 8.69667,15.01105 4.6762,8.11949 11.30734,19.61737 14.73585,25.55085 3.42851,5.93347 6.84156,11.93792 7.58455,13.34322 l 1.35091,2.55508 H 161.42787 98.38162 Z"
     id="path6355"
     inkscape:connector-curvature="0" />
  <path
     style="fill:#ff0000;fill-opacity:0.01829266;stroke:#ff0000;stroke-width:0.56779659;stroke-miterlimit:4;stroke-dasharray:none;stroke-opacity:1"
     d="m 109.90187,254.38141 c -1.34684,-2.61348 -4.40816,-8.07339 -6.80295,-12.13313 -4.001,-6.78268 -10.9244,-18.70061 -27.87198,-47.97882 -3.524953,-6.08961 -9.308846,-16.05445 -12.853095,-22.14406 -3.544249,-6.08962 -7.858412,-13.61213 -9.587031,-16.71669 l -3.142942,-5.64466 2.976106,-5.46808 c 3.579162,-6.5761 3.391722,-6.70791 12.122734,8.52434 3.490524,6.08962 9.230462,16.05445 12.755415,22.14407 3.524953,6.08962 10.254553,17.71525 14.954673,25.83474 4.70011,8.1195 10.88661,18.81527 13.74777,23.7684 2.86116,4.95312 5.71313,9.1563 6.3377,9.34039 0.62458,0.18409 5.16653,-6.80681 10.09323,-15.53534 l 8.95763,-15.87006 h 6.65677 c 3.66123,0 6.65678,0.26647 6.65678,0.59215 0,0.32568 -1.19976,2.4975 -2.66615,4.82627 -1.46637,2.32877 -4.73729,7.81125 -7.2687,12.18328 -2.53141,4.37203 -8.65585,14.94211 -13.60987,23.48906 l -9.0073,15.53992 z"
     id="path6357"
     inkscape:connector-curvature="0" />
</svg>
