<?xml version="1.0" encoding="UTF-8" standalone="no"?>
<!-- Created with Inkscape (http://www.inkscape.org/) -->

<svg
   xmlns:dc="http://purl.org/dc/elements/1.1/"
   xmlns:cc="http://creativecommons.org/ns#"
   xmlns:rdf="http://www.w3.org/1999/02/22-rdf-syntax-ns#"
   xmlns:svg="http://www.w3.org/2000/svg"
   xmlns="http://www.w3.org/2000/svg"
   xmlns:sodipodi="http://sodipodi.sourceforge.net/DTD/sodipodi-0.dtd"
   xmlns:inkscape="http://www.inkscape.org/namespaces/inkscape"
   version="1.1"
   id="svg62"
   width="68.836121mm"
   height="68.882622mm"
   viewBox="0 0 260.16802 260.34377"
   sodipodi:docname="esoterica-druwi_rata.svg"
   inkscape:version="0.92.5 (2060ec1f9f, 2020-04-08)">
  <metadata
     id="metadata68">
    <rdf:RDF>
      <cc:Work
         rdf:about="">
        <dc:format>image/svg+xml</dc:format>
        <dc:type
           rdf:resource="http://purl.org/dc/dcmitype/StillImage" />
        <dc:title></dc:title>
      </cc:Work>
    </rdf:RDF>
  </metadata>
  <defs
     id="defs66" />
  <sodipodi:namedview
     pagecolor="#ffffff"
     bordercolor="#666666"
     borderopacity="1"
     objecttolerance="10"
     gridtolerance="10"
     guidetolerance="10"
     inkscape:pageopacity="0"
     inkscape:pageshadow="2"
     inkscape:window-width="1920"
     inkscape:window-height="997"
     id="namedview64"
     showgrid="false"
     units="mm"
     fit-margin-top="0"
     fit-margin-left="0"
     fit-margin-right="0"
     fit-margin-bottom="0"
     inkscape:zoom="0.88059701"
     inkscape:cx="130.11762"
     inkscape:cy="130.36848"
     inkscape:window-x="0"
     inkscape:window-y="28"
     inkscape:window-maximized="1"
     inkscape:current-layer="svg62" />
  <path
     style="fill:#000000;fill-opacity:0;stroke:#ff0000;stroke-width:0.56779659;stroke-miterlimit:4;stroke-dasharray:none;stroke-opacity:1"
     d="M 119.08567,259.59181 C 87.464932,256.55327 57.48134,242.25088 36.690073,220.28852 30.32598,213.56595 22.009148,203.40912 22.009148,202.35959 c 0,-0.42536 -1.45797,-2.90953 -3.239933,-5.52036 C 14.61465,190.75218 6.8612833,173.31305 5.0464861,165.97361 -3.0285462,133.31639 -0.91173764,105.59731 11.942421,75.673074 17.79131,62.056971 31.618724,43.613843 44.721013,31.952695 56.8034,21.199266 72.193316,12.522137 89.576945,6.6620597 107.59805,0.58708348 124.70458,-1.0394563 145.78881,1.3172648 c 13.80934,1.5435607 16.99603,2.297276 31.22881,7.3862339 20.15604,7.2068353 42.45211,23.9290733 56.15941,42.1200313 21.21875,28.159424 29.73659,59.4775 25.75889,94.7094 -3.90947,34.62745 -19.37852,62.30741 -48.4183,86.63853 -22.69883,19.01832 -60.59555,30.38351 -91.43195,27.42035 z m 30.39381,-26.22217 c 2.96674,-0.63362 5.39407,-1.54807 5.39407,-2.03212 0,-0.94435 -9.26954,-6.79093 -19.10048,-12.04726 -5.23027,-2.79647 -6.35627,-3.03326 -8.38864,-1.76402 -1.2911,0.80631 -4.03269,2.41255 -6.0924,3.56942 -2.05972,1.15688 -5.69458,3.31798 -8.07748,4.80245 -2.38288,1.48448 -5.2268,3.02894 -6.31981,3.43214 -4.99298,1.84186 0.48453,4.11064 13.91102,5.76192 5.47771,0.67368 22.14117,-0.32735 28.67372,-1.72253 z m 29.24153,-20.61375 c 0,-3.41082 -6.17495,-13.48506 -10.2381,-16.70313 -2.40991,-1.90869 -7.68399,-4.96768 -11.7202,-6.79778 -4.03619,-1.83011 -8.35779,-4.62324 -9.60356,-6.20696 -3.5925,-4.56713 -4.77712,-3.59511 -4.77712,3.91982 0,7.61682 -0.63169,6.9698 16.4661,16.8658 19.4485,11.25656 19.87288,11.44709 19.87288,8.92225 z m -92.912236,-2.77805 c 4.973089,-5.35066 6.97341,-12.62509 6.36442,-23.14502 -0.295215,-5.09966 -0.105463,-11.58069 0.42168,-14.40233 0.527138,-2.82164 0.757272,-5.3314 0.511411,-5.57727 -0.245863,-0.24585 -3.049495,0.9887 -6.230295,2.74346 l -5.783272,3.19048 -0.01636,20.15678 c -0.009,11.08623 0.399049,20.15678 0.906772,20.15678 0.507724,0 2.229264,-1.40529 3.825644,-3.12288 z m 21.291936,-9.57021 10.29827,-5.87954 v -11.72215 c 0,-9.81587 -0.28541,-11.72217 -1.75501,-11.72217 -4.32308,0 -10.30337,9.3983 -14.31515,22.49686 -1.27962,4.178 -3.041977,8.40312 -3.916347,9.38917 -1.556325,1.75509 -2.074306,3.31736 -1.09989,3.31736 0.26943,0 5.124087,-2.64579 10.788127,-5.87953 z M 55.829529,186.91835 55.509148,172.84623 43.025613,165.69527 c -7.01901,-4.02071 -12.664758,-6.6073 -12.897531,-5.90898 -0.635449,1.90636 3.934863,13.61739 8.565867,21.94931 5.420315,9.75201 15.0505,21.66033 16.413961,20.29687 0.5731,-0.5731 0.897829,-7.37445 0.721619,-15.11412 z m 153.712051,11.70356 c 4.75997,-5.20541 10.73027,-14.09587 14.29868,-21.29237 4.39696,-8.86746 7.61087,-17.48739 6.81636,-18.28191 -0.34627,-0.34626 -6.28073,2.60348 -13.1877,6.55498 l -12.55814,7.18455 -0.0356,14.47882 c -0.0195,7.96335 0.37985,14.47881 0.88757,14.47881 0.50772,0 2.20817,-1.4053 3.77879,-3.12288 z m -29.72345,-13.62712 -0.0385,-12.20763 -8.51756,-4.9428 c -11.68128,-6.77874 -12.98174,-7.03176 -12.98174,-2.52575 0,4.90609 3.38016,11.12032 10.00337,18.39061 3.06234,3.36152 6.42111,7.77265 7.46395,9.80252 1.04285,2.02987 2.39398,3.69068 3.00252,3.69068 0.65195,0 1.09063,-5.01445 1.06796,-12.20763 z M 84.199405,142.40851 c 2.663539,-1.34991 4.678845,-2.94625 4.478456,-3.54741 -0.730449,-2.19134 -9.318824,-4.24454 -15.567018,-3.72156 -8.967309,0.75058 -24.983051,3.39013 -24.983051,4.11745 0,0.33994 4.471399,3.24946 9.936441,6.4656 l 9.936441,5.84754 5.677966,-3.35361 c 3.122881,-1.84449 7.857225,-4.45809 10.520765,-5.80801 z m 115.926705,4.40397 c 3.52931,-2.10684 8.20549,-4.89904 10.39151,-6.20489 2.18602,-1.30586 6.93244,-3.94293 10.54762,-5.86018 3.61517,-1.91724 6.30477,-3.91997 5.97687,-4.45051 -1.0082,-1.6313 -12.40911,-2.53632 -17.51082,-1.39005 -2.6553,0.59661 -8.24654,3.36231 -12.42498,6.14601 -4.17844,2.78369 -9.51348,5.68135 -11.85564,6.43924 -2.34216,0.75788 -4.25479,1.72162 -4.2503,2.1416 0.0119,1.11358 9.37451,6.97025 11.17659,6.99141 0.84272,0.0102 4.41984,-1.70579 7.94915,-3.81263 z m -62.59382,-1.80626 c 16.18274,-7.34611 10.30211,-31.83734 -7.64179,-31.82597 -18.4388,0.0117 -22.86955,26.21991 -5.49614,32.51008 5.32829,1.92915 7.64717,1.8084 13.13793,-0.68411 z M 56.921622,128.47498 c 2.970597,-1.59962 7.888347,-4.53102 10.928333,-6.51422 4.729761,-3.08557 6.692935,-3.64334 13.606445,-3.86582 4.791157,-0.15419 8.253714,-0.78356 8.508013,-1.54645 0.235849,-0.70754 -1.982792,-3.53224 -4.930316,-6.27711 C 80.78884,106.31801 77.708647,104.68096 70.2145,102.39511 59.851487,99.234194 52.348586,94.308065 48.897646,88.399241 45.92772,83.314025 47.133146,82.753475 52.311,86.811955 c 6.377071,4.998446 11.7538,6.337107 22.213331,5.530526 10.752621,-0.829182 19.061036,0.740527 23.445112,4.429483 C 107.37561,104.68673 101.65455,85.841038 91.39834,75.126151 83.025107,66.378454 81.059996,62.16195 81.059996,52.943352 c 0,-7.204879 -0.244871,-8.018509 -2.9459,-9.788291 -2.791081,-1.828787 -3.156062,-1.81705 -6.944807,0.223324 -5.469308,2.945417 -18.697729,15.362574 -24.612394,23.10298 -11.102241,14.529286 -19.498007,35.496015 -20.80589,51.958515 -0.736916,9.27566 -0.351652,9.73646 10.453059,12.50241 7.438831,1.90431 14.064541,1.11525 20.717558,-2.46731 z M 232.6927,127.91944 c 2.89581,-1.10099 2.98558,-1.38801 2.21994,-7.09745 -2.65534,-19.80084 -10.13124,-40.348639 -18.14514,-49.872619 -1.56371,-1.858358 -2.8431,-3.780288 -2.8431,-4.270955 0,-0.490668 -3.86039,-4.77764 -8.57866,-9.526606 -8.96711,-9.025468 -17.56427,-15.525659 -20.53426,-15.525659 -0.95966,0 -4.46042,2.781474 -7.77947,6.181053 -8.09669,8.293136 -10.19665,14.53208 -9.14415,27.167156 0.9176,11.015692 -0.66184,18.692577 -4.60866,22.400414 -3.75141,3.524276 -3.43308,4.441946 1.53079,4.412876 6.04466,-0.0354 12.29564,-3.276306 20.15678,-10.450575 8.91874,-8.139444 13.10616,-10.170064 22.09275,-10.713505 l 7.43268,-0.449473 -6.24577,2.92783 c -8.51305,3.990666 -13.13104,8.744479 -17.62454,18.142863 -4.17355,8.72924 -9.0783,14.15484 -15.71357,17.38229 l -4.32687,2.10463 3.07856,2.01714 c 4.49199,2.94326 14.73689,3.56076 22.3513,1.34719 10.07453,-2.92874 17.96421,-2.44439 25.47575,1.56401 7.20793,3.84636 7.0927,3.82313 11.20564,2.25939 z M 148.14789,86.725143 c 4.36794,-3.752158 7.17783,-8.546466 9.46026,-16.141364 1.1262,-3.747458 3.10659,-8.724157 4.40086,-11.05933 1.29428,-2.335174 2.03818,-4.560815 1.65313,-4.94587 -0.38506,-0.385055 -5.3306,1.972322 -10.99011,5.238615 l -10.29,5.938713 v 11.782581 c 0,12.847069 0.52708,13.686867 5.76586,9.186655 z M 116.97884,66.016702 c -0.29856,-0.778034 -3.26451,-2.932093 -6.59101,-4.786799 -12.226707,-6.817072 -22.010666,-12.399781 -24.449918,-13.95108 -3.489867,-2.219461 -4.340681,-0.771937 -2.721938,4.630943 2.064857,6.89188 8.530279,13.306036 17.701646,17.561297 4.38042,2.032393 9.75297,5.233588 11.93898,7.113768 l 3.97458,3.418508 0.34524,-6.286016 c 0.18988,-3.457309 0.10096,-6.922589 -0.19758,-7.700621 z m 20.28271,-26.135609 c 3.66829,-2.208934 9.13166,-5.356251 12.14082,-6.994038 3.00915,-1.637786 5.47118,-3.371365 5.47118,-3.852396 0,-1.76158 -13.37463,-3.791184 -24.98305,-3.791184 -11.31707,0 -25.00415,2.021829 -24.96487,3.687764 0.0166,0.70331 23.55762,14.703993 25.03168,14.887217 0.34902,0.04338 3.63593,-1.728428 7.30424,-3.937363 z"
     id="path6431"
     inkscape:connector-curvature="0" />
</svg>
