<?xml version="1.0" encoding="UTF-8" standalone="no"?>
<!-- Created with Inkscape (http://www.inkscape.org/) -->

<svg
   xmlns:dc="http://purl.org/dc/elements/1.1/"
   xmlns:cc="http://creativecommons.org/ns#"
   xmlns:rdf="http://www.w3.org/1999/02/22-rdf-syntax-ns#"
   xmlns:svg="http://www.w3.org/2000/svg"
   xmlns="http://www.w3.org/2000/svg"
   xmlns:sodipodi="http://sodipodi.sourceforge.net/DTD/sodipodi-0.dtd"
   xmlns:inkscape="http://www.inkscape.org/namespaces/inkscape"
   version="1.1"
   id="svg32"
   width="63.629665mm"
   height="63.482979mm"
   viewBox="0 0 240.49008 239.93567"
   sodipodi:docname="hermetica-gold_alt.svg"
   inkscape:version="0.92.5 (2060ec1f9f, 2020-04-08)">
  <metadata
     id="metadata38">
    <rdf:RDF>
      <cc:Work
         rdf:about="">
        <dc:format>image/svg+xml</dc:format>
        <dc:type
           rdf:resource="http://purl.org/dc/dcmitype/StillImage" />
        <dc:title></dc:title>
      </cc:Work>
    </rdf:RDF>
  </metadata>
  <defs
     id="defs36" />
  <sodipodi:namedview
     pagecolor="#ffffff"
     bordercolor="#666666"
     borderopacity="1"
     objecttolerance="10"
     gridtolerance="10"
     guidetolerance="10"
     inkscape:pageopacity="0"
     inkscape:pageshadow="2"
     inkscape:window-width="1920"
     inkscape:window-height="997"
     id="namedview34"
     showgrid="false"
     units="mm"
     fit-margin-top="0"
     fit-margin-left="0"
     fit-margin-right="0"
     fit-margin-bottom="0"
     inkscape:zoom="0.88059701"
     inkscape:cx="119.90316"
     inkscape:cy="119.75626"
     inkscape:window-x="0"
     inkscape:window-y="28"
     inkscape:window-maximized="1"
     inkscape:current-layer="svg32" />
  <path
     style="fill:#ff0000;fill-opacity:0.01829266;stroke:#ff0000;stroke-width:0.56779659;stroke-miterlimit:4;stroke-dasharray:none;stroke-opacity:1"
     d="M 120.81136,0.31221377 V 13.087605 25.861043 l 4.45508,0.71289 c 8.23401,1.31667 15.90104,10.814436 15.96094,19.771485 0.0482,7.210338 -5.01845,15.694704 -11.33008,18.970703 -1.56144,0.810453 -5.65007,1.655693 -9.08398,1.878906 l -6.24219,0.40625 -0.71485,-5.839844 C 112.43012,50.114873 104.86159,38.019105 94.326987,30.548543 79.390439,19.956354 56.446436,19.863701 42.172688,30.337605 c -2.966737,2.176956 -5.394531,4.309365 -5.394531,4.740235 0,0.430869 3.798745,4.556291 8.441406,9.167968 8.239913,8.184919 8.50415,8.343326 11.144532,6.613282 7.686554,-5.036425 16.880485,-4.611273 24.40625,1.128906 9.584912,7.310768 10.561062,22.644595 1.970703,30.970703 l -3.794922,3.679683 -7.44336,-4.701168 C 62.378689,76.174839 55.183598,74.52464 42.364095,75.255574 31.143971,75.895318 24.873253,78.426533 16.715657,85.607136 7.7078973,93.536092 3.3469293,101.7323 1.0672193,115.01338 L 0.33675127,119.2712 H 12.700032 25.06136 l 1.285156,-4.25782 c 1.986942,-6.59372 7.09313,-11.94407 13.652344,-14.30273 13.023686,-4.683248 25.385435,3.53414 27.375,18.19531 0.458025,3.37521 0.531428,6.30461 0.164063,6.51172 -0.367367,0.2071 -3.0249,0.71938 -5.90625,1.13672 -7.649042,1.10789 -20.14172,7.52692 -25.826172,13.26953 -7.240154,7.31422 -12.663491,19.25336 -13.44336,29.59961 -0.531166,7.04678 -0.179581,9.61684 2.279297,16.68164 2.957816,8.49832 8.109127,17.19922 10.183594,17.19922 0.630298,0 4.944944,-3.79847 9.587891,-8.44141 l 8.441406,-8.4414 -2.644531,-3.57813 c -3.964418,-5.36217 -3.729439,-14.97191 0.523437,-21.39844 4.956442,-7.48968 8.939854,-9.42715 18.513672,-9.0039 6.789614,0.30018 8.721415,0.86327 12.291016,3.58594 5.615214,4.28294 6.062984,5.94389 2.58789,9.58789 -6.031498,6.32467 -10.567619,21.64668 -9.482422,32.02929 1.97708,18.91568 14.826746,34.97651 31.892579,39.86328 3.7923,1.08591 8.3,2.01019 10.01758,2.05469 l 3.12305,0.082 v -12.49218 c 0,-12.2842 -0.0439,-12.49219 -2.61719,-12.49219 -1.43916,0 -4.94229,-1.47446 -7.78516,-3.27735 -10.387173,-6.58735 -13.126823,-20.29788 -5.87695,-29.41406 4.23655,-5.32714 11.96462,-9.32422 18.02734,-9.32422 h 4.67188 l 1.39258,7.66407 c 2.77957,15.30439 10.84082,25.98363 24.83594,32.90039 8.30377,4.10394 9.18064,4.29101 20.09765,4.29101 10.52167,0 11.99112,-0.28314 18.79492,-3.61133 4.05975,-1.98589 8.65927,-4.64899 10.22071,-5.91992 l 2.83984,-2.3125 -8.62305,-8.65429 -8.625,-8.6543 -4.41797,2.36914 c -5.80727,3.11251 -15.56261,3.20249 -20.5039,0.18945 -12.45695,-7.59589 -14.0974,-25.10894 -3.30274,-35.25 l 2.76954,-2.60156 4.63281,3.66992 c 17.73357,14.04525 47.04494,11.18837 62.1914,-6.0625 4.65863,-5.30587 10.17839,-17.11677 11.05469,-23.6543 l 0.71289,-5.32226 -12.50976,-0.35547 -12.50782,-0.35547 -2.02929,6.2461 c -1.71028,5.26569 -2.89493,6.82399 -7.55078,9.93554 -4.44792,2.9726 -6.65696,3.6896 -11.35547,3.6836 -12.26958,-0.0147 -21.16407,-9.05988 -21.16407,-21.52344 0,-5.48317 0.13115,-5.72333 3.12305,-5.73633 4.19465,-0.0181 13.60967,-2.59083 18.22852,-4.98047 5.14033,-2.65943 16.34107,-14.061378 18.70312,-19.039058 3.53422,-7.447806 5.67796,-18.121748 4.97656,-24.781251 -0.91976,-8.732917 -4.56151,-18.646679 -8.82617,-24.03125 l -3.60742,-4.55664 -8.80859,8.755859 -8.80664,8.753906 2.72851,5.132813 c 3.54264,6.6628 3.44399,11.114537 -0.41015,18.492187 -6.79282,13.002946 -21.91907,15.002276 -34.15235,4.515625 -3.06068,-2.62369 -3.17953,-2.111277 2.375,-10.3125 6.21503,-9.176472 8.59109,-20.853062 6.64453,-32.658203 -1.63528,-9.917302 -4.90438,-16.326071 -12.42773,-24.36914 C 146.77489,8.0711318 134.16127,1.5822008 126.20589,0.82585577 Z m 0.17578,92.95702823 c 8.56414,-0.12036 12.9141,1.93339 18.84375,8.203128 4.68621,4.95499 5.96301,7.21674 7.0586,12.49414 2.76008,13.29523 -3.1801,25.38857 -15.22656,30.99805 -17.56775,8.18048 -37.217073,-3.60948 -38.896493,-23.33985 -0.47158,-5.54033 -0.0661,-7.23555 3.25,-13.61914 5.223543,-10.055588 10.665493,-13.825148 21.025393,-14.558588 1.41242,-0.1 2.72187,-0.16054 3.94531,-0.17774 z m -0.16796,14.820318 c -4.09225,-0.15673 -8.25307,1.39139 -10.28907,4.73046 -2.42795,3.98192 -2.87077,9.90848 -1.00195,13.4004 0.66444,1.24151 2.83616,3.24949 4.82617,4.46289 4.3512,2.65311 6.64767,2.76118 10.98633,0.51757 6.42771,-3.3239 8.73972,-10.92052 5.35742,-17.60742 -1.76252,-3.48455 -5.78666,-5.34718 -9.8789,-5.5039 z"
     id="path5405"
     inkscape:connector-curvature="0" />
</svg>
