<?xml version="1.0" encoding="UTF-8" standalone="no"?>
<!-- Created with Inkscape (http://www.inkscape.org/) -->

<svg
   xmlns:dc="http://purl.org/dc/elements/1.1/"
   xmlns:cc="http://creativecommons.org/ns#"
   xmlns:rdf="http://www.w3.org/1999/02/22-rdf-syntax-ns#"
   xmlns:svg="http://www.w3.org/2000/svg"
   xmlns="http://www.w3.org/2000/svg"
   xmlns:sodipodi="http://sodipodi.sourceforge.net/DTD/sodipodi-0.dtd"
   xmlns:inkscape="http://www.inkscape.org/namespaces/inkscape"
   version="1.1"
   id="svg42"
   width="61.479725mm"
   height="63.49345mm"
   viewBox="0 0 232.36432 239.97525"
   sodipodi:docname="hermetica-decompose.svg"
   inkscape:version="0.92.5 (2060ec1f9f, 2020-04-08)">
  <metadata
     id="metadata48">
    <rdf:RDF>
      <cc:Work
         rdf:about="">
        <dc:format>image/svg+xml</dc:format>
        <dc:type
           rdf:resource="http://purl.org/dc/dcmitype/StillImage" />
        <dc:title></dc:title>
      </cc:Work>
    </rdf:RDF>
  </metadata>
  <defs
     id="defs46" />
  <sodipodi:namedview
     pagecolor="#ffffff"
     bordercolor="#666666"
     borderopacity="1"
     objecttolerance="10"
     gridtolerance="10"
     guidetolerance="10"
     inkscape:pageopacity="0"
     inkscape:pageshadow="2"
     inkscape:window-width="1920"
     inkscape:window-height="997"
     id="namedview44"
     showgrid="false"
     inkscape:zoom="0.88059701"
     inkscape:cx="116.3106"
     inkscape:cy="120.8839"
     inkscape:window-x="0"
     inkscape:window-y="28"
     inkscape:window-maximized="1"
     inkscape:current-layer="svg42"
     units="mm"
     fit-margin-top="0"
     fit-margin-left="0"
     fit-margin-right="0"
     fit-margin-bottom="0" />
  <path
     style="fill:#ff0000;fill-opacity:0.01829266;stroke:#ff0000;stroke-width:0.56779659;stroke-miterlimit:4;stroke-dasharray:none;stroke-opacity:1"
     d="M 103.59196,190.96066 V 142.22997 L 98.765685,141.4808 C 87.385315,139.71425 67.689112,133.69968 58.469629,129.17571 42.909088,121.5402 32.353608,114.05912 21.092109,102.68477 11.974437,93.475736 -0.89186349,76.760913 0.37045251,75.764927 1.5035755,74.870877 14.82973,67.157553 18.092598,65.507155 l 3.644705,-1.843536 4.535513,6.53505 c 2.494533,3.594278 6.828896,9.090135 9.631917,12.213016 L 41.001136,88.089656 84.777515,44.385394 128.5539,0.68113771 128.84836,58.57644 l 0.29444,57.8953 4.54238,-0.35478 c 7.09923,-0.55449 27.56807,-7.8578 36.33898,-12.9658 12.69834,-7.395264 21.55446,-14.976884 32.84806,-28.120831 0.80497,-0.936864 2.88193,-3.875212 4.61544,-6.529661 1.73353,-2.654449 3.23141,-4.826271 3.32864,-4.826271 0.62919,0 8.96034,4.678407 13.71633,7.702477 3.12289,1.985666 6.32399,3.620011 7.11358,3.631879 3.29022,0.04946 -12.97321,21.327913 -24.07977,31.505057 -19.63282,17.98991 -46.43381,30.62383 -74.16516,34.96129 l -4.82627,0.75487 v 48.73069 48.73069 h -12.49153 -12.49152 z m 0,-101.802434 c 0,-14.640683 -0.38874,-26.619422 -0.86387,-26.619422 -0.47512,0 -9.801175,8.968496 -20.724569,19.929991 -22.797408,22.876935 -22.280363,20.424955 -5.705829,27.058795 9.663833,3.86788 24.722538,7.70083 26.442568,6.73052 0.46843,-0.26425 0.8517,-12.4592 0.8517,-27.099884 z"
     id="path5368"
     inkscape:connector-curvature="0" />
</svg>
