<?xml version="1.0" encoding="UTF-8" standalone="no"?>
<!-- Created with Inkscape (http://www.inkscape.org/) -->

<svg
   xmlns:dc="http://purl.org/dc/elements/1.1/"
   xmlns:cc="http://creativecommons.org/ns#"
   xmlns:rdf="http://www.w3.org/1999/02/22-rdf-syntax-ns#"
   xmlns:svg="http://www.w3.org/2000/svg"
   xmlns="http://www.w3.org/2000/svg"
   xmlns:sodipodi="http://sodipodi.sourceforge.net/DTD/sodipodi-0.dtd"
   xmlns:inkscape="http://www.inkscape.org/namespaces/inkscape"
   version="1.1"
   id="svg72"
   width="63.673344mm"
   height="54.533318mm"
   viewBox="0 0 240.65516 206.11018"
   sodipodi:docname="hermetica-red_arsenic.svg"
   inkscape:version="0.92.5 (2060ec1f9f, 2020-04-08)">
  <metadata
     id="metadata78">
    <rdf:RDF>
      <cc:Work
         rdf:about="">
        <dc:format>image/svg+xml</dc:format>
        <dc:type
           rdf:resource="http://purl.org/dc/dcmitype/StillImage" />
        <dc:title></dc:title>
      </cc:Work>
    </rdf:RDF>
  </metadata>
  <defs
     id="defs76" />
  <sodipodi:namedview
     pagecolor="#ffffff"
     bordercolor="#666666"
     borderopacity="1"
     objecttolerance="10"
     gridtolerance="10"
     guidetolerance="10"
     inkscape:pageopacity="0"
     inkscape:pageshadow="2"
     inkscape:window-width="1920"
     inkscape:window-height="997"
     id="namedview74"
     showgrid="false"
     units="mm"
     fit-margin-top="0"
     fit-margin-left="0"
     fit-margin-right="0"
     fit-margin-bottom="0"
     inkscape:zoom="0.88059701"
     inkscape:cx="119.81671"
     inkscape:cy="102.71441"
     inkscape:window-x="0"
     inkscape:window-y="28"
     inkscape:window-maximized="1"
     inkscape:current-layer="svg72" />
  <path
     style="fill:#ff0000;fill-opacity:0.01829266;stroke:#ff0000;stroke-width:0.56779659;stroke-miterlimit:4;stroke-dasharray:none;stroke-opacity:1"
     d="m 118.52218,203.27118 c -1.74448,-2.76207 -7.01229,-11.82295 -13.69938,-23.56356 -2.31231,-4.05974 -6.706696,-11.67083 -9.765306,-16.91353 -8.51192,-14.59008 -12.581252,-21.68013 -16.363412,-28.51019 -1.902232,-3.43517 -4.379293,-7.44734 -5.50458,-8.91592 l -2.045978,-2.67014 -3.414187,5.50912 c -3.280927,5.29411 -6.473858,10.74025 -17.876805,30.49219 l -5.244691,9.08475 13.075622,0.31994 13.075624,0.31993 v 13.02329 13.02328 H 35.625588 0.49208919 L 8.2071702,181.12712 c 4.2432938,-7.33878 10.5207388,-18.19789 13.9498748,-24.13136 3.429137,-5.93347 6.441366,-11.29915 6.693842,-11.92373 0.252476,-0.62458 4.214995,-7.5233 8.805597,-15.33051 C 57.952157,95.224822 56.802185,97.643372 54.799993,93.686442 53.09714,90.321092 44.689639,75.513422 34.651019,58.199152 26.919877,44.864746 7.7618002,11.634395 4.0439742,5.1101693 L 1.2937262,0.28389829 H 120.06031 c 65.32161,0 118.76657,0.408813 118.76657,0.90847401 0,0.499661 -0.48197,1.393941 -1.07105,1.987288 -0.58907,0.593348 -3.06714,4.655933 -5.50683,9.0279657 -2.43968,4.372034 -6.2261,11.015255 -8.41426,14.762712 -7.23287,12.387132 -21.67805,37.371225 -25.27798,43.720344 -3.5889,6.32962 -5.19994,9.10632 -11.49457,19.81138 l -3.50198,5.95568 13.60777,23.739348 c 7.48427,13.05664 15.24485,26.54994 17.24575,29.98511 2.00089,3.43517 7.58987,13.14449 12.41997,21.57627 4.83008,8.43178 9.80169,16.99132 11.04799,19.02119 l 2.26602,3.69068 H 205.4195 170.69129 v -13.05933 -13.05932 h 12.49152 c 6.87034,0 12.49153,-0.21386 12.49153,-0.47527 0,-0.26139 -3.12946,-5.75482 -6.95435,-12.20762 -3.82489,-6.4528 -8.48383,-14.54296 -10.3532,-17.97812 -1.86936,-3.43517 -4.36109,-7.6022 -5.53717,-9.26005 -1.17609,-1.65785 -2.13833,-3.61675 -2.13833,-4.35311 0,-2.84212 -2.99012,-0.13102 -6.3494,5.75692 -5.84672,10.24778 -24.67939,42.90253 -31.71004,54.98335 -3.63483,6.24577 -7.8445,13.52776 -9.35482,16.18221 -1.51031,2.65445 -2.83491,4.82627 -2.94357,4.82627 -0.10867,0 -0.92372,-1.14979 -1.81128,-2.55509 z m 4.0822,-51.66949 c 1.26846,-1.71758 4.3514,-6.7 6.85096,-11.07203 2.49957,-4.37204 7.17902,-12.49388 10.39878,-18.04855 3.21977,-5.55467 5.85412,-10.22934 5.85412,-10.38817 0,-0.15883 2.075,-3.70432 4.61112,-7.87885 l 4.61113,-7.590068 -4.61113,-7.35429 c -2.53612,-4.04486 -4.61112,-7.71969 -4.61112,-8.1663 0,-0.4466 -1.78856,-3.52779 -3.97458,-6.84709 -2.18602,-3.3193 -3.97458,-6.250431 -3.97458,-6.513627 0,-0.263196 -2.73935,-5.201007 -6.08745,-10.972915 -8.64755,-14.907833 -11.12657,-19.011326 -11.48523,-19.011326 -0.32979,0 -8.59017,14.079989 -28.300616,48.238968 -2.87562,4.98355 -5.22839,9.86828 -5.22839,10.85494 0,0.98667 1.66766,4.574468 3.70591,7.972898 5.78066,9.63821 21.482426,36.88877 25.195976,43.72784 1.84308,3.3943 3.66329,6.17145 4.04492,6.17145 0.38162,0 1.73171,-1.40529 3.00018,-3.12288 z M 77.048621,61.793544 c 1.187962,-2.289204 4.091428,-7.283512 6.452148,-11.098464 2.360715,-3.81495 4.292215,-7.254392 4.292215,-7.643203 0,-0.388811 1.7624,-3.462001 3.91644,-6.829311 2.15404,-3.367309 4.25351,-7.465367 4.66548,-9.106796 l 0.74904,-2.984415 H 71.639257 c -14.01658,0 -25.786416,0.301726 -26.155192,0.670503 -0.368777,0.368776 0.47216,2.796107 1.86875,5.394068 3.470857,6.456552 19.573778,34.246971 21.911102,37.814179 l 1.894356,2.891157 1.865208,-2.472767 c 1.025866,-1.360019 2.837178,-4.345748 4.02514,-6.634951 z m 97.532199,0.339906 c 2.85737,-4.706475 5.19521,-8.784688 5.19521,-9.062696 0,-0.278007 1.78856,-3.301437 3.97458,-6.718731 2.18602,-3.417294 3.98766,-6.621073 4.00365,-7.119507 0.016,-0.498436 1.78728,-3.665797 3.93623,-7.038583 2.14894,-3.372784 3.63875,-6.56664 3.31069,-7.097458 -0.64858,-1.04943 -50.78109,-1.369627 -51.81974,-0.330974 -0.6468,0.646791 2.71697,7.004234 14.38532,27.187888 8.59143,14.861285 10.95558,18.737293 11.42871,18.737293 0.21457,0 2.72798,-3.850757 5.58535,-8.557232 z"
     id="path5262"
     inkscape:connector-curvature="0" />
</svg>
