<?xml version="1.0" encoding="UTF-8" standalone="no"?>
<!-- Created with Inkscape (http://www.inkscape.org/) -->

<svg
   xmlns:dc="http://purl.org/dc/elements/1.1/"
   xmlns:cc="http://creativecommons.org/ns#"
   xmlns:rdf="http://www.w3.org/1999/02/22-rdf-syntax-ns#"
   xmlns:svg="http://www.w3.org/2000/svg"
   xmlns="http://www.w3.org/2000/svg"
   xmlns:sodipodi="http://sodipodi.sourceforge.net/DTD/sodipodi-0.dtd"
   xmlns:inkscape="http://www.inkscape.org/namespaces/inkscape"
   version="1.1"
   id="svg32"
   width="40.325153mm"
   height="62.40641mm"
   viewBox="0 0 152.41003 235.86675"
   sodipodi:docname="hermetica-sulfur.svg"
   inkscape:version="0.92.5 (2060ec1f9f, 2020-04-08)">
  <metadata
     id="metadata38">
    <rdf:RDF>
      <cc:Work
         rdf:about="">
        <dc:format>image/svg+xml</dc:format>
        <dc:type
           rdf:resource="http://purl.org/dc/dcmitype/StillImage" />
        <dc:title></dc:title>
      </cc:Work>
    </rdf:RDF>
  </metadata>
  <defs
     id="defs36" />
  <sodipodi:namedview
     pagecolor="#ffffff"
     bordercolor="#666666"
     borderopacity="1"
     objecttolerance="10"
     gridtolerance="10"
     guidetolerance="10"
     inkscape:pageopacity="0"
     inkscape:pageshadow="2"
     inkscape:window-width="1920"
     inkscape:window-height="997"
     id="namedview34"
     showgrid="false"
     units="mm"
     fit-margin-top="0"
     fit-margin-left="0"
     fit-margin-right="0"
     fit-margin-bottom="0"
     inkscape:zoom="0.88059701"
     inkscape:cx="75.901932"
     inkscape:cy="119.74831"
     inkscape:window-x="0"
     inkscape:window-y="28"
     inkscape:window-maximized="1"
     inkscape:current-layer="svg32" />
  <path
     style="fill:#ff0000;fill-opacity:0.01829266;stroke:#ff0000;stroke-width:0.56779659;stroke-miterlimit:4;stroke-dasharray:none;stroke-opacity:1"
     d="M 62.047692,212.87098 V 190.15912 H 39.903627 17.759559 v -12.49153 -12.49152 h 22.144068 22.144065 v -18.16949 -18.1695 H 31.274508 0.50132171 l 2.55412399,-4.25847 c 1.404768,-2.34216 6.382749,-10.9017 11.0621793,-19.02119 4.67943,-8.11949 12.188517,-21.15042 16.686859,-28.957624 8.300992,-14.406984 15.390668,-26.647041 27.296938,-47.127119 3.63103,-6.245762 8.48436,-14.739465 10.78518,-18.874894 7.93687,-14.2655023 6.21893,-14.7491693 17.58766,4.951622 5.50036,9.531528 11.63695,20.140645 13.636858,23.575815 1.99992,3.435169 5.69472,9.822881 8.21068,14.194915 4.65575,8.090377 17.257,29.907955 25.57963,44.288135 2.53034,4.37203 5.97961,10.24873 7.66501,13.05932 1.68541,2.8106 4.70585,8.04852 6.71209,11.63983 l 3.64771,6.52966 H 119.47849 87.030742 v 18.1695 18.16949 h 22.711868 22.71186 v 12.46752 12.46752 l -22.42796,0.3079 -22.427968,0.3079 -0.3079,22.42797 -0.30791,22.42797 H 74.515212 62.047692 Z M 107.47142,102.85602 c 0,-0.5489 -1.76008,-3.99827 -3.91128,-7.66525 C 96.443612,83.05982 93.735592,78.400457 88.134992,68.650643 78.634712,52.112066 76.893422,49.345454 75.986672,49.348967 c -0.48381,0.0019 -2.47385,2.940222 -4.42232,6.529661 -1.94847,3.589439 -6.24904,11.125405 -9.55682,16.746592 -3.30779,5.621186 -7.1501,12.31214 -8.53847,14.8688 -1.38837,2.55665 -3.85878,6.76238 -5.48979,9.34607 -1.63101,2.5837 -2.96548,5.2188 -2.96548,5.85578 0,0.75908 10.76102,1.15816 31.22882,1.15816 17.1921,0 31.228808,-0.44858 31.228808,-0.99801 z"
     id="path5350"
     inkscape:connector-curvature="0" />
</svg>
