<?xml version="1.0" encoding="UTF-8" standalone="no"?>
<!-- Created with Inkscape (http://www.inkscape.org/) -->

<svg
   xmlns:dc="http://purl.org/dc/elements/1.1/"
   xmlns:cc="http://creativecommons.org/ns#"
   xmlns:rdf="http://www.w3.org/1999/02/22-rdf-syntax-ns#"
   xmlns:svg="http://www.w3.org/2000/svg"
   xmlns="http://www.w3.org/2000/svg"
   xmlns:sodipodi="http://sodipodi.sourceforge.net/DTD/sodipodi-0.dtd"
   xmlns:inkscape="http://www.inkscape.org/namespaces/inkscape"
   version="1.1"
   id="svg82"
   width="64.293762mm"
   height="64.479683mm"
   viewBox="0 0 243.00005 243.70274"
   sodipodi:docname="hermetica-gungnir.svg"
   inkscape:version="0.92.5 (2060ec1f9f, 2020-04-08)">
  <metadata
     id="metadata88">
    <rdf:RDF>
      <cc:Work
         rdf:about="">
        <dc:format>image/svg+xml</dc:format>
        <dc:type
           rdf:resource="http://purl.org/dc/dcmitype/StillImage" />
        <dc:title></dc:title>
      </cc:Work>
    </rdf:RDF>
  </metadata>
  <defs
     id="defs86" />
  <sodipodi:namedview
     pagecolor="#ffffff"
     bordercolor="#666666"
     borderopacity="1"
     objecttolerance="10"
     gridtolerance="10"
     guidetolerance="10"
     inkscape:pageopacity="0"
     inkscape:pageshadow="2"
     inkscape:window-width="1920"
     inkscape:window-height="997"
     id="namedview84"
     showgrid="false"
     inkscape:zoom="0.88059701"
     inkscape:cx="121.43479"
     inkscape:cy="122.01949"
     inkscape:window-x="0"
     inkscape:window-y="28"
     inkscape:window-maximized="1"
     inkscape:current-layer="svg82"
     units="mm"
     fit-margin-top="0"
     fit-margin-left="0"
     fit-margin-right="0"
     fit-margin-bottom="0" />
  <path
     style="fill:#ff0000;fill-opacity:0.01829266;stroke:#ff0000;stroke-width:0.56779659;stroke-miterlimit:4;stroke-dasharray:none;stroke-opacity:1"
     d="M 95.731669,217.68091 69.934596,191.94297 48.50916,213.34614 27.083724,234.74932 18.35503,225.99227 c -8.6587897,-8.68692 -8.7116047,-8.77595 -6.594807,-11.11656 1.173638,-1.29774 10.437913,-10.68013 20.587278,-20.84977 10.149364,-10.16963 18.45339,-19.12345 18.45339,-19.89737 0,-0.77391 -10.348094,-11.73279 -22.995763,-24.35307 C 15.157458,137.15522 3.8147903,125.69942 2.5991983,124.31816 L 0.38903134,121.80677 26.163981,96.013543 51.938932,70.220303 30.929234,49.233629 C 19.373899,37.690957 9.9195353,27.92765 9.9195353,27.53739 c 0,-1.394138 15.4800617,-16.915154 16.8705207,-16.915154 0.780018,0 10.576829,9.198305 21.770693,20.440678 11.193864,11.242373 20.752862,20.440678 21.242216,20.440678 0.489354,0 12.379189,-11.497971 26.421854,-25.551047 L 121.75694,0.40149602 147.32611,25.952545 c 14.06305,14.053076 26.044,25.551047 26.62435,25.551047 0.58033,0 10.37218,-9.378768 21.75963,-20.841707 l 20.70448,-20.841706 8.87337,8.925721 8.87337,8.92572 -21.2727,21.294824 -21.27269,21.294825 25.55011,25.531184 c 14.05256,14.042157 25.55012,25.969197 25.55012,26.504547 0,0.53535 -11.24238,12.19506 -24.98305,25.91048 -13.74068,13.71542 -24.98306,25.40962 -24.98306,25.9871 0,0.57748 9.19831,10.25169 20.44068,21.49823 11.24238,11.24654 20.44068,20.80649 20.44068,21.24432 0,0.43784 -3.92016,4.56655 -8.71145,9.1749 l -8.71147,8.37884 -21.18075,-21.15875 -21.18075,-21.15875 -25.66852,25.62273 c -14.11768,14.09251 -25.88928,25.62274 -26.15911,25.62274 -0.26984,0 -12.0993,-11.58207 -26.287681,-25.73793 z m 43.118591,-26.38384 c 9.03386,-8.97784 16.42521,-16.64335 16.42521,-17.03447 0,-1.03695 -33.92739,-34.744 -34.31145,-34.0886 -0.17828,0.30424 -7.72106,8.06655 -16.76174,17.24957 l -16.437601,16.6964 16.437601,16.87059 c 9.04068,9.27882 16.83925,16.81641 17.33018,16.7502 0.49093,-0.0662 8.28394,-7.46586 17.3178,-16.44369 z M 87.223507,139.19509 104.13504,122.41202 86.822851,105.12685 69.51066,87.841693 52.50472,104.87603 l -17.00594,17.03434 17.005501,17.0339 c 9.353025,9.36864 17.185994,17.0339 17.406596,17.0339 0.220603,0 8.011287,-7.55239 17.31263,-16.78308 z M 192.144,138.09238 c 7.05089,-7.0266 13.48258,-13.57422 14.29263,-14.55028 1.27091,-1.53136 -0.84886,-4.10023 -15.46154,-18.73732 L 174.0407,87.842123 157.27674,104.57815 c -9.22019,9.20481 -16.76398,17.15937 -16.76398,17.67679 0,0.51742 7.46884,8.35038 16.59742,17.40658 l 16.59743,16.46579 2.80829,-2.62966 c 1.54456,-1.44631 8.5772,-8.37869 15.6281,-15.40527 z M 139.63997,86.7913 c 8.57633,-8.478154 15.60282,-15.91945 15.61441,-16.536212 0.0278,-1.479827 -31.97282,-33.514208 -33.47891,-33.514208 -0.64074,0 -8.52951,7.377706 -17.53062,16.394902 -14.986531,15.013312 -16.229341,16.568259 -14.748031,18.452063 0.8897,1.131437 8.41475,8.84273 16.722341,17.136208 9.351,9.3351 15.6233,14.774887 16.4661,14.280557 0.74876,-0.43917 8.3784,-7.735157 16.95471,-16.21331 z"
     id="path6389"
     inkscape:connector-curvature="0" />
</svg>
