<?xml version="1.0" encoding="UTF-8" standalone="no"?>
<!-- Created with Inkscape (http://www.inkscape.org/) -->

<svg
   xmlns:dc="http://purl.org/dc/elements/1.1/"
   xmlns:cc="http://creativecommons.org/ns#"
   xmlns:rdf="http://www.w3.org/1999/02/22-rdf-syntax-ns#"
   xmlns:svg="http://www.w3.org/2000/svg"
   xmlns="http://www.w3.org/2000/svg"
   xmlns:sodipodi="http://sodipodi.sourceforge.net/DTD/sodipodi-0.dtd"
   xmlns:inkscape="http://www.inkscape.org/namespaces/inkscape"
   version="1.1"
   id="svg42"
   width="59.087212mm"
   height="59.103302mm"
   viewBox="0 0 223.32175 223.38256"
   sodipodi:docname="esoterica-ozolins.svg"
   inkscape:version="0.92.5 (2060ec1f9f, 2020-04-08)">
  <metadata
     id="metadata48">
    <rdf:RDF>
      <cc:Work
         rdf:about="">
        <dc:format>image/svg+xml</dc:format>
        <dc:type
           rdf:resource="http://purl.org/dc/dcmitype/StillImage" />
        <dc:title></dc:title>
      </cc:Work>
    </rdf:RDF>
  </metadata>
  <defs
     id="defs46" />
  <sodipodi:namedview
     pagecolor="#ffffff"
     bordercolor="#666666"
     borderopacity="1"
     objecttolerance="10"
     gridtolerance="10"
     guidetolerance="10"
     inkscape:pageopacity="0"
     inkscape:pageshadow="2"
     inkscape:window-width="1920"
     inkscape:window-height="997"
     id="namedview44"
     showgrid="false"
     units="mm"
     fit-margin-top="0"
     fit-margin-left="0"
     fit-margin-right="0"
     fit-margin-bottom="0"
     inkscape:zoom="0.88059701"
     inkscape:cx="111.32028"
     inkscape:cy="111.92513"
     inkscape:window-x="0"
     inkscape:window-y="28"
     inkscape:window-maximized="1"
     inkscape:current-layer="svg42" />
  <path
     style="fill:#000000;fill-opacity:0;stroke:#ff0000;stroke-width:0.56779659;stroke-miterlimit:4;stroke-dasharray:none;stroke-opacity:1"
     d="m 77.766288,214.06209 -8.86639,-8.9187 12.01188,-11.93934 c 6.60654,-6.56664 12.01189,-12.35996 12.01189,-12.87405 0,-1.04808 -49.016183,-50.44913 -50.072348,-50.4655 -0.370723,-0.006 -6.108422,5.48297 -12.75044,12.19717 L 18.024483,154.26929 9.2129222,145.47356 0.40136124,136.67782 12.802827,124.23778 25.204293,111.79774 13.356353,99.797033 C 6.8399872,93.196633 1.3774572,87.412623 1.2173982,86.943653 c -0.160058,-0.46896 3.546653,-4.66471 8.237137,-9.32389 l 8.5281528,-8.471232 11.655134,11.615472 c 6.410324,6.3885 12.41739,11.61546 13.349039,11.61546 1.838554,0 49.936807,-47.571039 49.936807,-49.38944 0,-0.609052 -5.3675,-6.491564 -11.92778,-13.07225 L 69.068102,17.952889 77.895698,9.1770667 86.723298,0.40124375 98.604038,12.322559 c 6.534412,6.556723 12.410022,11.921315 13.056922,11.921315 0.64689,0 6.5225,-5.364592 13.05691,-11.921315 l 11.88075,-11.92131525 8.82759,8.77582295 8.8276,8.7758223 -11.92778,11.964884 c -6.56028,6.580686 -11.92778,12.472013 -11.92778,13.091838 0,1.778459 48.09659,49.369852 49.89393,49.369852 0.88652,0 6.84847,-5.2876 13.24876,-11.75023 l 11.6369,-11.750225 8.86263,8.914905 8.86261,8.9149 -12.44916,12.48787 -12.44914,12.487867 12.45789,12.49663 12.45789,12.49664 -8.78147,8.78147 -8.78147,8.78147 -12.50149,-12.46273 -12.50149,-12.46273 -24.97819,24.95884 c -13.73801,13.72737 -24.9782,25.46587 -24.9782,26.08558 0,0.61969 5.3675,6.51092 11.92778,13.09161 l 11.92778,11.96488 -8.80918,8.75752 -8.80918,8.75752 -11.91945,-11.87946 c -6.5557,-6.53369 -12.42212,-11.89004 -13.0365,-11.903 -0.61438,-0.0129 -6.50125,5.34394 -13.081932,11.90422 l -11.96488,11.92778 z M 137.51534,136.61998 162.64855,111.58931 137.16104,86.082913 111.67354,60.57651 86.122808,86.127253 60.572063,111.67799 85.539038,136.66432 c 13.73183,13.74248 25.389092,24.98633 25.905022,24.98633 0.51593,0 12.248,-11.2638 26.07128,-25.03067 z"
     id="path5344"
     inkscape:connector-curvature="0" />
</svg>
