<?xml version="1.0" encoding="UTF-8" standalone="no"?>
<!-- Created with Inkscape (http://www.inkscape.org/) -->

<svg
   xmlns:dc="http://purl.org/dc/elements/1.1/"
   xmlns:cc="http://creativecommons.org/ns#"
   xmlns:rdf="http://www.w3.org/1999/02/22-rdf-syntax-ns#"
   xmlns:svg="http://www.w3.org/2000/svg"
   xmlns="http://www.w3.org/2000/svg"
   xmlns:sodipodi="http://sodipodi.sourceforge.net/DTD/sodipodi-0.dtd"
   xmlns:inkscape="http://www.inkscape.org/namespaces/inkscape"
   version="1.1"
   id="svg22"
   width="57.710594mm"
   height="63.03928mm"
   viewBox="0 0 218.11878 238.2587"
   sodipodi:docname="hermetica-leo.svg"
   inkscape:version="0.92.5 (2060ec1f9f, 2020-04-08)">
  <metadata
     id="metadata28">
    <rdf:RDF>
      <cc:Work
         rdf:about="">
        <dc:format>image/svg+xml</dc:format>
        <dc:type
           rdf:resource="http://purl.org/dc/dcmitype/StillImage" />
        <dc:title></dc:title>
      </cc:Work>
    </rdf:RDF>
  </metadata>
  <defs
     id="defs26" />
  <sodipodi:namedview
     pagecolor="#ffffff"
     bordercolor="#666666"
     borderopacity="1"
     objecttolerance="10"
     gridtolerance="10"
     guidetolerance="10"
     inkscape:pageopacity="0"
     inkscape:pageshadow="2"
     inkscape:window-width="1920"
     inkscape:window-height="997"
     id="namedview24"
     showgrid="false"
     units="mm"
     fit-margin-top="0"
     fit-margin-left="0"
     fit-margin-right="0"
     fit-margin-bottom="0"
     inkscape:zoom="0.88059701"
     inkscape:cx="334.87016"
     inkscape:cy="66.887797"
     inkscape:window-x="0"
     inkscape:window-y="28"
     inkscape:window-maximized="1"
     inkscape:current-layer="svg22" />
  <path
     style="fill:#ffff00;fill-opacity:0.01829266;stroke:#ff0000;stroke-width:0.56779659;stroke-miterlimit:4;stroke-dasharray:none;stroke-opacity:1"
     d="m 170.17017,236.90371 c -3.95627,-0.88489 -9.33953,-2.86672 -11.9628,-4.40406 -6.77097,-3.96805 -15.12328,-13.31571 -18.68189,-20.90823 -2.63162,-5.61474 -3.04345,-7.95322 -3.04345,-17.28154 0,-9.99836 0.28618,-11.37007 3.90914,-18.73729 2.15002,-4.37203 4.75981,-9.22669 5.79952,-10.78813 1.03971,-1.56144 3.17014,-5.13856 4.73429,-7.94916 1.56415,-2.81059 5.54682,-9.70932 8.85038,-15.3305 3.30355,-5.62119 6.84282,-11.75339 7.86502,-13.62712 1.0222,-1.87373 3.22583,-5.71891 4.89695,-8.54483 C 184.03448,99.890732 183.48442,72.742224 171.20934,53.789515 154.3616,27.776623 119.73368,18.033438 92.070784,31.522461 c -22.16382,10.80755 -35.0037,31.355001 -35.01984,56.041661 -0.0111,17.107528 4.56385,28.822748 16.75213,42.896958 9.75706,11.2668 12.34798,16.98303 13.01714,28.71905 0.68053,11.93559 -0.79042,18.70086 -5.81139,26.72794 -10.54598,16.85998 -30.67561,24.41912 -49.71809,18.67028 -13.60837,-4.10831 -23.9205202,-13.67245 -29.4376602,-27.30237 -2.31305002,-5.7143 -2.00385002,-24.20569 0.50319,-30.09322 5.8552,-13.75033 17.9924002,-24.31941 31.2788102,-27.23759 2.77688,-0.60991 3.4711,-1.24684 2.9205,-2.67955 -4.31781,-11.23544 -5.5441,-35.978998 -2.46573,-49.752478 8.27552,-37.026987 42.39302,-65.3144843 80.969216,-67.13318334 43.78347,-2.06419896 82.60788,29.36495834 89.53189,72.47791734 3.6782,22.902566 -0.45451,42.705444 -13.46469,64.519484 -2.09893,3.51925 -7.52101,12.78633 -12.04906,20.59354 -4.52807,7.8072 -10.23782,17.58431 -12.68835,21.72691 -5.16906,8.73823 -6.20731,13.4147 -4.4375,19.98728 1.47924,5.4935 7.4361,11.03042 13.99254,13.00614 5.27238,1.58876 11.64077,-0.0615 16.71559,-4.33174 4.02427,-3.3862 4.0922,-3.37057 16.2298,3.73424 l 8.81403,5.15932 -3.2942,4.47942 c -9.29575,12.64025 -27.55653,18.90259 -44.23894,15.17124 z M 54.757894,177.89135 c 13.08558,-9.98087 7.99541,-30.97552 -8.30022,-34.23465 -4.11605,-0.8232 -10.29658,1.02949 -14.52193,4.35315 -3.61837,2.8462 -7.24972,10.32185 -7.28471,14.99659 -0.0407,5.4333 4.00494,12.28981 9.31233,15.78258 6.43441,4.23446 14.52379,3.88526 20.79453,-0.89767 z"
     id="path5371"
     inkscape:connector-curvature="0" />
</svg>
