<?xml version="1.0" encoding="UTF-8" standalone="no"?>
<!-- Created with Inkscape (http://www.inkscape.org/) -->

<svg
   xmlns:dc="http://purl.org/dc/elements/1.1/"
   xmlns:cc="http://creativecommons.org/ns#"
   xmlns:rdf="http://www.w3.org/1999/02/22-rdf-syntax-ns#"
   xmlns:svg="http://www.w3.org/2000/svg"
   xmlns="http://www.w3.org/2000/svg"
   xmlns:sodipodi="http://sodipodi.sourceforge.net/DTD/sodipodi-0.dtd"
   xmlns:inkscape="http://www.inkscape.org/namespaces/inkscape"
   version="1.1"
   id="svg22"
   width="60.718334mm"
   height="57.878605mm"
   viewBox="0 0 229.48662 218.75378"
   sodipodi:docname="esoterica-pythagorean_pentacle.svg"
   inkscape:version="0.92.5 (2060ec1f9f, 2020-04-08)">
  <metadata
     id="metadata28">
    <rdf:RDF>
      <cc:Work
         rdf:about="">
        <dc:format>image/svg+xml</dc:format>
        <dc:type
           rdf:resource="http://purl.org/dc/dcmitype/StillImage" />
        <dc:title></dc:title>
      </cc:Work>
    </rdf:RDF>
  </metadata>
  <defs
     id="defs26" />
  <sodipodi:namedview
     pagecolor="#ffffff"
     bordercolor="#666666"
     borderopacity="1"
     objecttolerance="10"
     gridtolerance="10"
     guidetolerance="10"
     inkscape:pageopacity="0"
     inkscape:pageshadow="2"
     inkscape:window-width="1920"
     inkscape:window-height="997"
     id="namedview24"
     showgrid="false"
     inkscape:zoom="0.88059701"
     inkscape:cx="115.20593"
     inkscape:cy="109.52797"
     inkscape:window-x="0"
     inkscape:window-y="28"
     inkscape:window-maximized="1"
     inkscape:current-layer="svg22"
     units="mm"
     fit-margin-top="0"
     fit-margin-left="0"
     fit-margin-right="0"
     fit-margin-bottom="0" />
  <path
     style="fill:#000000;fill-opacity:0;stroke:#ff0000;stroke-width:0.56779659;stroke-miterlimit:4;stroke-dasharray:none;stroke-opacity:1"
     d="m 42.506265,214.77921 c -1.166616,-3.89186 -12.9613,-40.5825 -27.105051,-84.3178 C 10.75557,116.09616 5.4536843,99.989275 3.6192443,94.668345 c -1.83444,-5.32093 -3.33534601,-10.02468 -3.33534601,-10.45278 0,-0.64733 10.26624171,-8.36517 26.09652671,-19.618564 2.735995,-1.944956 22.912758,-16.679869 32.680615,-23.866366 1.711979,-1.259552 7.390103,-5.347688 12.618054,-9.084746 5.227949,-3.737058 11.215568,-8.072193 13.305828,-9.633633 2.09025,-1.561441 9.75353,-7.074627 17.029508,-12.2515246 l 13.22904,-9.41254097 2.86627,2.03118497 c 1.57645,1.117152 4.27484,3.05322 5.99644,4.302372 12.94463,9.3923606 30.41316,22.0925216 33.85406,24.6129516 2.28013,1.670175 7.4673,5.413839 11.52705,8.319252 4.05974,2.905413 9.23106,6.649076 11.49182,8.319251 3.86538,2.855608 26.93335,19.636114 33.83514,24.612952 13.6446,9.839021 14.92848,11.053191 14.24831,13.474731 -1.21721,4.33359 -19.8663,62.292675 -23.79951,73.965955 -2.10446,6.24576 -7.23651,21.95953 -11.40456,34.91949 l -7.57828,23.56356 H 114.94639 43.612576 Z m 119.031865,-8.69042 c 0,-0.56385 -2.68284,-2.888 -5.96186,-5.16478 -3.27903,-2.27678 -7.5059,-5.26482 -9.39305,-6.64008 -13.4898,-9.83074 -20.05386,-14.56504 -25.24254,-18.2061 l -5.96187,-4.18364 -5.96186,4.17181 c -3.27903,2.2945 -11.583048,8.34079 -18.453388,13.43623 -6.87034,5.09543 -14.66335,10.69946 -17.317799,12.45338 -2.65445,1.75394 -4.826272,3.63207 -4.826272,4.17366 0,0.54158 20.951691,0.98469 46.559319,0.98469 26.93918,0 46.55932,-0.43201 46.55932,-1.02517 z M 69.871539,190.33494 c 3.885696,-2.98269 12.175073,-9.10712 18.420833,-13.60985 6.24576,-4.50272 12.557128,-9.1298 14.025258,-10.28238 l 2.66933,-2.09562 -9.281178,-6.7225 c -5.10465,-3.69737 -11.10302,-8.1278 -13.32972,-9.84538 -2.226691,-1.71758 -4.39548,-3.12288 -4.81953,-3.12288 -0.42405,0 -3.002789,6.77097 -5.730532,15.04661 -2.727743,8.27563 -6.398662,19.30322 -8.157597,24.50574 -1.758936,5.20251 -3.198064,9.92942 -3.198064,10.50423 0,2.09036 2.477794,0.93651 9.4012,-4.37797 z m 99.627191,4.57139 c 0.0223,-1.65428 -15.05618,-48.55998 -15.90916,-49.48995 -1.00281,-1.09334 -27.26752,17.29836 -27.22931,19.06714 0.0141,0.64971 2.61026,2.96984 5.7694,5.15586 3.15913,2.18602 7.22943,5.16444 9.04511,6.61872 5.9019,4.7272 26.58562,19.36432 27.46082,19.43305 0.46843,0.0368 0.85685,-0.31639 0.86314,-0.78482 z M 52.341661,181.27921 c 6.802229,-19.27967 13.953611,-42.39902 13.59839,-43.96154 -0.325993,-1.43397 -14.212265,-12.11379 -31.06277,-23.89016 -3.574764,-2.4983 -8.2063,-5.98723 -10.292302,-7.75318 -2.086003,-1.76595 -4.294556,-2.90067 -4.907897,-2.5216 -0.674944,0.41714 0.175837,4.37433 2.155201,10.02436 1.7987,5.13435 7.190169,21.59958 11.981043,36.58941 12.028313,37.63455 13.338487,41.44915 14.23624,41.44915 0.432483,0 2.363926,-4.4714 4.292095,-9.93644 z m 139.280859,-17.0339 c 4.84186,-14.83368 10.79155,-33.10254 13.22152,-40.59746 2.42997,-7.49491 4.91371,-15.12647 5.51941,-16.95901 0.60572,-1.83254 0.88433,-3.54885 0.61917,-3.81401 -0.26516,-0.26516 -6.69458,4.04479 -14.28761,9.57766 -15.04842,10.96545 -22.07425,15.99574 -28.62722,20.49624 -2.34216,1.60856 -4.26268,3.49552 -4.26784,4.19325 -0.009,1.19661 13.63389,44.24161 16.1484,50.95079 0.64372,1.71758 1.55299,3.12288 2.02059,3.12288 0.46761,0 4.81172,-12.13665 9.65358,-26.97034 z m -61.6479,-17.63867 c 7.05443,-5.23373 14.23152,-10.42749 15.94911,-11.54167 1.71758,-1.11419 3.12288,-2.69455 3.12288,-3.51192 0,-2.21844 -11.55219,-37.201725 -12.83735,-38.875115 -0.84161,-1.09586 -6.07275,-1.36994 -21.67415,-1.13559 l -20.564768,0.30889 -6.47522,19.305095 c -3.56137,10.6178 -6.498268,19.8161 -6.526448,20.44068 -0.02819,0.62457 6.207278,5.60595 13.856568,11.06973 7.649298,5.46378 15.185348,10.94815 16.746788,12.18748 1.56144,1.23934 3.4549,2.03171 4.20767,1.76082 0.75277,-0.27088 7.14049,-4.77465 14.19492,-10.0084 z M 73.475037,117.11819 c 1.071428,-3.9036 3.203665,-10.63502 4.738302,-14.9587 1.534637,-4.323695 2.529951,-8.539585 2.211807,-9.368655 -0.820901,-2.13923 -52.908481,-2.22588 -52.844592,-0.0879 0.02332,0.78072 4.405626,4.48559 9.738436,8.233055 5.332809,3.74746 14.63978,10.50423 20.682157,15.01506 6.042378,4.51083 11.557573,8.2157 12.25599,8.23305 0.698416,0.0174 2.146471,-3.16231 3.2179,-7.06591 z m 95.544283,1.1356 c 4.42084,-3.27903 13.72815,-10.05 20.68292,-15.04661 6.95477,-4.996615 12.66129,-9.723525 12.68114,-10.504245 0.0278,-1.09539 -5.91203,-1.41949 -26.01551,-1.41949 -14.32839,0 -26.31577,0.42739 -26.63861,0.94975 -1.00969,1.63371 8.99859,31.982455 10.54704,31.982455 0.38782,0 4.32218,-2.68284 8.74302,-5.96186 z M 88.905072,69.383476 c 3.4932,-11.113497 13.206728,-40.652665 14.176998,-43.112746 1.26206,-3.199883 -1.48432,-2.365498 -7.475618,2.271187 -3.02643,2.342161 -8.20976,6.212136 -11.51851,8.599945 -3.308748,2.387808 -10.304919,7.497978 -15.547044,11.355932 -5.242125,3.857954 -11.705625,8.547513 -14.363333,10.421241 -2.65771,1.873729 -8.015267,5.706356 -11.905683,8.516949 -3.890418,2.810594 -8.797045,6.267399 -10.903617,7.681788 -2.106571,1.414393 -3.83013,3.066263 -3.83013,3.670843 0,1.80855 55.909197,2.04911 57.501747,0.2474 0.70944,-0.80261 2.44877,-5.14625 3.86519,-9.652539 z M 202.95398,79.981405 c 0.36768,-0.59493 -3.56254,-4.13622 -8.73384,-7.869536 -5.17128,-3.733315 -11.1909,-8.138159 -13.37692,-9.788544 -2.18602,-1.650384 -9.59576,-7.009613 -16.4661,-11.909398 -6.87034,-4.899784 -13.89379,-10.009359 -15.60766,-11.354613 -8.99122,-7.057384 -20.52748,-14.790462 -21.14431,-14.17363 -0.38649,0.386496 0.9051,5.391519 2.87021,11.122273 1.96511,5.730754 5.98498,17.948412 8.93305,27.150352 l 5.36012,16.730796 28.53158,0.3235 c 15.69237,0.17792 28.62918,0.44207 28.74846,0.58699 0.11928,0.14493 0.51772,-0.22325 0.88541,-0.81819 z m -70.94127,-1.2901 c 0,-2.58683 -16.21884,-49.86549 -17.10624,-49.86549 -0.51275,0 -2.08064,3.704873 -3.4842,8.233051 -1.40355,4.528178 -5.01014,15.799227 -8.01464,25.046776 -3.00449,9.247549 -5.462718,17.040553 -5.462718,17.317793 0,0.27724 7.665258,0.50407 17.033898,0.50407 11.52314,0 17.0339,-0.39993 17.0339,-1.2362 z"
     id="path3111"
     inkscape:connector-curvature="0" />
</svg>
