<?xml version="1.0" encoding="UTF-8" standalone="no"?>
<!-- Created with Inkscape (http://www.inkscape.org/) -->

<svg
   xmlns:dc="http://purl.org/dc/elements/1.1/"
   xmlns:cc="http://creativecommons.org/ns#"
   xmlns:rdf="http://www.w3.org/1999/02/22-rdf-syntax-ns#"
   xmlns:svg="http://www.w3.org/2000/svg"
   xmlns="http://www.w3.org/2000/svg"
   xmlns:sodipodi="http://sodipodi.sourceforge.net/DTD/sodipodi-0.dtd"
   xmlns:inkscape="http://www.inkscape.org/namespaces/inkscape"
   version="1.1"
   id="svg72"
   width="61.986771mm"
   height="61.744556mm"
   viewBox="0 0 234.28071 233.36525"
   sodipodi:docname="hermetica-canis_major.svg"
   inkscape:version="0.92.5 (2060ec1f9f, 2020-04-08)">
  <metadata
     id="metadata78">
    <rdf:RDF>
      <cc:Work
         rdf:about="">
        <dc:format>image/svg+xml</dc:format>
        <dc:type
           rdf:resource="http://purl.org/dc/dcmitype/StillImage" />
        <dc:title></dc:title>
      </cc:Work>
    </rdf:RDF>
  </metadata>
  <defs
     id="defs76" />
  <sodipodi:namedview
     pagecolor="#ffffff"
     bordercolor="#666666"
     borderopacity="1"
     objecttolerance="10"
     gridtolerance="10"
     guidetolerance="10"
     inkscape:pageopacity="0"
     inkscape:pageshadow="2"
     inkscape:window-width="1920"
     inkscape:window-height="997"
     id="namedview74"
     showgrid="false"
     units="mm"
     fit-margin-top="0"
     fit-margin-left="0"
     fit-margin-right="0"
     fit-margin-bottom="0"
     inkscape:zoom="0.88059701"
     inkscape:cx="116.81335"
     inkscape:cy="116.20843"
     inkscape:window-x="0"
     inkscape:window-y="28"
     inkscape:window-maximized="1"
     inkscape:current-layer="svg72" />
  <path
     style="fill:#ff0000;fill-opacity:0.01829266;stroke:#ff0000;stroke-width:0.56779659;stroke-miterlimit:4;stroke-dasharray:none;stroke-opacity:1"
     d="M 95.123868,231.45743 C 77.536092,227.64227 59.047155,219.69472 47.88284,211.15068 26.412193,194.71919 13.693364,177.23254 5.0921153,152.31928 L 0.28389829,138.39242 V 116.81615 95.239878 L 5.0447683,81.452149 C 12.008104,61.28596 20.629672,47.403521 34.828967,33.49366 48.936849,19.673351 66.520642,9.7276573 86.578828,4.2230563 l 11.27011,-3.092876 67.972492,-0.42162899 67.97249,-0.421628 -3.70467,6.59512199 c -2.03757,3.6273167 -5.34736,9.4057147 -7.3551,12.8408847 -3.37425,5.773236 -18.31199,31.69131 -21.27102,36.906779 -0.70872,1.249153 -3.8235,6.614831 -6.92175,11.923729 -11.71997,20.08233 -13.63626,23.40445 -16.10967,27.92812 -1.39791,2.55665 -3.87611,6.762392 -5.50712,9.346082 -1.63101,2.58369 -2.96548,5.06357 -2.96548,5.51084 0,0.44727 -1.33987,2.74667 -2.97751,5.10977 l -2.9775,4.29655 -2.13267,-2.71124 c -1.17296,-1.49118 -2.13266,-3.01833 -2.13266,-3.39367 0,-0.37535 -2.81059,-5.53266 -6.24576,-11.46072 C 150.05784,97.251118 144.43666,87.546238 141.00149,81.61276 137.56632,75.679286 131.85705,65.842209 128.31423,59.752591 116.34368,39.17687 113.31759,33.931052 110.91926,29.59795 108.54781,25.313389 108.48457,25.284527 103.1886,26.069492 93.765378,27.466191 77.71753,33.245765 69.522581,38.194179 51.26709,49.217524 37.3454,66.239467 28.903738,87.858518 c -1.747915,4.47641 -4.291488,21.491892 -4.296237,28.740112 -0.0049,7.47359 1.812125,20.9726 3.621384,26.90396 4.1859,13.7228 13.47432,28.35081 24.918356,39.24307 9.30888,8.86006 15.32073,12.88922 26.532209,17.782 13.628228,5.94745 19.580468,7.05491 37.47458,6.97244 14.11489,-0.0651 16.89283,-0.41185 24.76407,-3.09153 13.87426,-4.72334 29.63726,-13.63215 35.41331,-20.01462 l 2.14285,-2.36782 8.83964,8.7878 c 10.27807,10.21778 10.46439,9.0911 -3.18162,19.23989 -13.93025,10.3602 -30.40203,17.56069 -49.03131,21.4336 -10.2432,2.1295 -31.09226,2.11425 -40.977102,-0.03 z M 168.54975,63.727167 c 1.81698,-3.279025 7.22104,-12.7721 12.00902,-21.095721 4.78798,-8.323622 8.70543,-15.605614 8.70543,-16.182203 0,-0.609672 -10.69164,-1.048347 -25.55085,-1.048347 -21.4897,0 -25.55085,0.26009 -25.55085,1.63637 0,0.900005 0.43479,1.905079 0.96618,2.233501 0.95637,0.591068 18.53518,30.686799 21.66673,37.094432 0.89343,1.828107 2.26035,3.323832 3.03759,3.323832 0.77723,0 2.89977,-2.682839 4.71675,-5.961864 z"
     id="path5262"
     inkscape:connector-curvature="0" />
</svg>
