<?xml version="1.0" encoding="UTF-8" standalone="no"?>
<!-- Created with Inkscape (http://www.inkscape.org/) -->

<svg
   xmlns:dc="http://purl.org/dc/elements/1.1/"
   xmlns:cc="http://creativecommons.org/ns#"
   xmlns:rdf="http://www.w3.org/1999/02/22-rdf-syntax-ns#"
   xmlns:svg="http://www.w3.org/2000/svg"
   xmlns="http://www.w3.org/2000/svg"
   xmlns:sodipodi="http://sodipodi.sourceforge.net/DTD/sodipodi-0.dtd"
   xmlns:inkscape="http://www.inkscape.org/namespaces/inkscape"
   version="1.1"
   id="svg42"
   width="42.021515mm"
   height="62.044792mm"
   viewBox="0 0 158.82147 234.5"
   sodipodi:docname="esoterica-algiz.svg"
   inkscape:version="0.92.5 (2060ec1f9f, 2020-04-08)">
  <metadata
     id="metadata48">
    <rdf:RDF>
      <cc:Work
         rdf:about="">
        <dc:format>image/svg+xml</dc:format>
        <dc:type
           rdf:resource="http://purl.org/dc/dcmitype/StillImage" />
        <dc:title></dc:title>
      </cc:Work>
    </rdf:RDF>
  </metadata>
  <defs
     id="defs46" />
  <sodipodi:namedview
     pagecolor="#ffffff"
     bordercolor="#666666"
     borderopacity="1"
     objecttolerance="10"
     gridtolerance="10"
     guidetolerance="10"
     inkscape:pageopacity="0"
     inkscape:pageshadow="2"
     inkscape:window-width="1920"
     inkscape:window-height="997"
     id="namedview44"
     showgrid="false"
     units="mm"
     fit-margin-top="0"
     fit-margin-left="0"
     fit-margin-right="0"
     fit-margin-bottom="0"
     inkscape:zoom="0.88059701"
     inkscape:cx="79.639844"
     inkscape:cy="117.47712"
     inkscape:window-x="0"
     inkscape:window-y="28"
     inkscape:window-maximized="1"
     inkscape:current-layer="svg42" />
  <path
     style="fill:#ff0000;fill-opacity:0.01829266;stroke:#ff0000;stroke-width:0.56779659;stroke-miterlimit:4;stroke-dasharray:none;stroke-opacity:1"
     d="m 66.648004,178.33555 -0.2946,-55.88057 -5.20297,-4.02198 C 58.288804,116.22091 45.818314,106.23474 33.438235,96.241521 21.058158,86.248301 8.6828879,76.388216 5.9376339,74.330216 3.1923809,72.272217 0.66801292,69.863288 0.32792792,68.977039 -0.02913408,68.046552 2.3682639,64.231783 6.0016219,59.948987 9.4622399,55.869805 12.755343,51.7073 13.319632,50.698973 c 0.85597,-1.529535 3.641357,0.264382 16.809535,10.826114 8.680958,6.962689 16.562737,13.278615 17.515067,14.035394 0.95233,0.756777 5.35286,4.314307 9.77895,7.90562 4.4261,3.59131 8.37383,6.52966 8.77273,6.52966 0.39891,0 0.72529,-20.185168 0.72529,-44.855931 V 0.28389829 h 12.49152 12.49153 V 44.505014 c 0,24.321615 0.40689,44.472587 0.9042,44.779947 0.49731,0.30735 8.801326,-5.82765 18.453386,-13.633338 16.06992,-12.995866 26.85626,-21.548701 31.60515,-25.060734 1.57632,-1.165764 2.87843,-0.0426 9.01784,7.778518 3.94651,5.02756 6.9283,9.78517 6.62618,10.572466 -0.459,1.196143 -24.6973,21.283208 -37.73741,31.274227 -2.03797,1.56144 -9.36729,7.38882 -16.28737,12.94973 l -12.581976,10.11073 v 55.46977 55.46977 h -12.48083 -12.48082 z"
     id="path5325"
     inkscape:connector-curvature="0" />
</svg>
