<?xml version="1.0" encoding="UTF-8" standalone="no"?>
<!-- Created with Inkscape (http://www.inkscape.org/) -->

<svg
   xmlns:dc="http://purl.org/dc/elements/1.1/"
   xmlns:cc="http://creativecommons.org/ns#"
   xmlns:rdf="http://www.w3.org/1999/02/22-rdf-syntax-ns#"
   xmlns:svg="http://www.w3.org/2000/svg"
   xmlns="http://www.w3.org/2000/svg"
   xmlns:sodipodi="http://sodipodi.sourceforge.net/DTD/sodipodi-0.dtd"
   xmlns:inkscape="http://www.inkscape.org/namespaces/inkscape"
   version="1.1"
   id="svg52"
   width="62.912357mm"
   height="61.626232mm"
   viewBox="0 0 237.77899 232.91804"
   sodipodi:docname="hermetica-mosca.svg"
   inkscape:version="0.92.5 (2060ec1f9f, 2020-04-08)">
  <metadata
     id="metadata58">
    <rdf:RDF>
      <cc:Work
         rdf:about="">
        <dc:format>image/svg+xml</dc:format>
        <dc:type
           rdf:resource="http://purl.org/dc/dcmitype/StillImage" />
        <dc:title></dc:title>
      </cc:Work>
    </rdf:RDF>
  </metadata>
  <defs
     id="defs56" />
  <sodipodi:namedview
     pagecolor="#ffffff"
     bordercolor="#666666"
     borderopacity="1"
     objecttolerance="10"
     gridtolerance="10"
     guidetolerance="10"
     inkscape:pageopacity="0"
     inkscape:pageshadow="2"
     inkscape:window-width="1920"
     inkscape:window-height="997"
     id="namedview54"
     showgrid="false"
     units="mm"
     fit-margin-top="0"
     fit-margin-left="0"
     fit-margin-right="0"
     fit-margin-bottom="0"
     inkscape:zoom="0.88059701"
     inkscape:cx="118.65358"
     inkscape:cy="116.3211"
     inkscape:window-x="0"
     inkscape:window-y="28"
     inkscape:window-maximized="1"
     inkscape:current-layer="svg52" />
  <path
     style="fill:#ff0000;fill-opacity:0.01829266;stroke:#ff0000;stroke-width:0.56779659;stroke-miterlimit:4;stroke-dasharray:none;stroke-opacity:1"
     d="M 101.39256,229.17489 C 89.375014,222.55876 82.316921,213.08353 79.80568,200.1953 c -1.139592,-5.84864 -1.05786,-7.93909 0.532795,-13.62711 1.033386,-3.69529 1.977415,-7.56788 2.097843,-8.60577 C 82.566573,176.83985 68.364643,161.65805 47.380449,140.48785 8.6674503,101.43168 5.2642003,97.004263 1.9895413,81.437082 -2.8799807,58.28818 2.7598043,36.528742 17.763747,20.57698 39.878867,-2.9351798 76.649023,-6.4675728 103.43916,12.346411 c 4.34329,3.050171 9.47597,7.461477 11.40598,9.802903 l 3.5091,4.25714 5.43018,-5.622422 c 7.25562,-7.512495 16.75853,-13.6264308 26.74402,-17.2064588 7.03336,-2.52162 10.08537,-2.94403896 21.2709,-2.94403896 11.2674,0 14.21681,0.41442096 21.49501,3.02026196 24.92078,8.9224858 42.54164,32.1819058 44.08881,58.1969388 0.30052,5.05323 -0.0316,11.882648 -0.73796,15.176485 -1.72437,8.040453 -6.63377,20.153433 -10.14635,25.03413 -1.57327,2.18601 -18.43981,19.6466 -37.48125,38.80131 l -34.62077,34.82674 1.97541,9.14278 c 1.66712,7.7159 1.76538,10.16726 0.62963,15.70716 -1.83338,8.94264 -3.77094,13.29186 -8.25555,18.53111 -8.50497,9.93615 -16.78941,13.59124 -30.74244,13.56354 -9.38585,-0.0186 -10.95588,-0.34556 -16.61132,-3.4591 z m 26.73307,-25.29746 c 4.23174,-4.23174 5.68543,-8.33626 4.55191,-12.85251 -0.41681,-1.66071 -2.46517,-4.72681 -4.55191,-6.81356 -3.08263,-3.08263 -4.67772,-3.79408 -8.50641,-3.79408 -9.32747,0 -14.81988,5.08724 -14.81988,13.72665 0,8.7891 4.9077,13.31448 14.59238,13.4556 4.13669,0.0603 5.55668,-0.54487 8.73391,-3.7221 z M 105.71476,109.88065 C 106.1431,51.972146 105.67911,49.001684 94.382774,37.332536 73.677952,15.944403 37.306889,23.747601 27.40282,51.702692 c -4.119254,11.62695 -2.493939,26.618232 3.920776,36.163741 1.25917,1.87373 17.357288,18.566067 35.773591,37.094087 28.853007,29.02802 33.815143,33.5649 35.877073,32.80236 2.37281,-0.87753 2.3958,-1.27918 2.7405,-47.88223 z M 208.83222,82.23209 c 2.61365,-5.708935 3.09141,-8.285814 3.09141,-16.673505 0,-8.844417 -0.3902,-10.713598 -3.59597,-17.22542 -4.27652,-8.686863 -11.48569,-15.709762 -20.43111,-19.903217 -5.52171,-2.588475 -7.90834,-3.01406 -16.665,-2.971697 -9.17962,0.04441 -10.91416,0.410347 -17.0339,3.593667 -8.68994,4.520261 -15.49724,11.562123 -19.53135,20.204347 l -3.18052,6.813559 -0.32856,50.270066 -0.32856,50.27007 2.59975,1.0286 c 2.35689,0.93252 5.85593,-2.22617 37.45608,-33.81266 30.03315,-30.020197 35.28409,-35.775637 37.94773,-41.59381 z"
     id="path5304"
     inkscape:connector-curvature="0" />
</svg>
