<?xml version="1.0" encoding="UTF-8" standalone="no"?>
<!-- Created with Inkscape (http://www.inkscape.org/) -->

<svg
   xmlns:dc="http://purl.org/dc/elements/1.1/"
   xmlns:cc="http://creativecommons.org/ns#"
   xmlns:rdf="http://www.w3.org/1999/02/22-rdf-syntax-ns#"
   xmlns:svg="http://www.w3.org/2000/svg"
   xmlns="http://www.w3.org/2000/svg"
   xmlns:sodipodi="http://sodipodi.sourceforge.net/DTD/sodipodi-0.dtd"
   xmlns:inkscape="http://www.inkscape.org/namespaces/inkscape"
   version="1.1"
   id="svg42"
   width="54.533314mm"
   height="62.878941mm"
   viewBox="0 0 206.11016 237.65269"
   sodipodi:docname="esoterica-gromoviti_znaci_alt.svg"
   inkscape:version="0.92.5 (2060ec1f9f, 2020-04-08)">
  <metadata
     id="metadata48">
    <rdf:RDF>
      <cc:Work
         rdf:about="">
        <dc:format>image/svg+xml</dc:format>
        <dc:type
           rdf:resource="http://purl.org/dc/dcmitype/StillImage" />
        <dc:title></dc:title>
      </cc:Work>
    </rdf:RDF>
  </metadata>
  <defs
     id="defs46" />
  <sodipodi:namedview
     pagecolor="#ffffff"
     bordercolor="#666666"
     borderopacity="1"
     objecttolerance="10"
     gridtolerance="10"
     guidetolerance="10"
     inkscape:pageopacity="0"
     inkscape:pageshadow="2"
     inkscape:window-width="1920"
     inkscape:window-height="997"
     id="namedview44"
     showgrid="false"
     units="mm"
     fit-margin-top="0"
     fit-margin-left="0"
     fit-margin-right="0"
     fit-margin-bottom="0"
     inkscape:zoom="0.88059701"
     inkscape:cx="102.71441"
     inkscape:cy="118.52654"
     inkscape:window-x="0"
     inkscape:window-y="28"
     inkscape:window-maximized="1"
     inkscape:current-layer="svg42" />
  <path
     style="fill:#000000;fill-opacity:0;stroke:#ff0000;stroke-width:0.56779659;stroke-miterlimit:4;stroke-dasharray:none;stroke-opacity:1"
     d="m 99.653176,235.96869 c -1.24647,-0.74399 -3.54605,-2.18156 -5.11017,-3.1946 -1.56412,-1.01302 -5.65445,-3.35663 -9.08962,-5.208 -3.43517,-1.85137 -10.84491,-6.06099 -16.4661,-9.3547 C 57.842169,211.68095 55.04388,210.06137 43.652832,203.54842 28.31247,194.77743 13.177311,185.99263 6.8135593,182.16603 L 0.28389829,178.23967 V 118.78855 59.337419 L 6.2457623,56.027064 C 9.5247873,54.20637 15.273728,50.92648 19.021186,48.738421 37.48129,37.959962 46.072863,33.048188 46.466211,33.048188 c 0.237972,0 3.614007,-1.950511 7.502301,-4.334467 13.924573,-8.537318 21.050354,-12.699431 21.742164,-12.699431 0.38671,0 2.81703,-1.334466 5.40072,-2.965477 2.58369,-1.631013 6.78943,-4.1022044 9.34608,-5.4915354 2.55665,-1.389332 6.43701,-3.583987 8.62303,-4.87701 l 3.974584,-2.350951 10.78813,6.302548 c 20.91347,12.2178764 40.36463,23.4639724 44.85594,25.9344004 2.4983,1.374183 9.14152,5.190986 14.76271,8.481783 5.62118,3.290798 13.28644,7.778824 17.0339,9.973392 3.74745,2.194568 8.72987,4.978461 11.07203,6.18643 l 4.25847,2.196308 v 59.387802 59.3878 l -4.25847,2.53769 c -2.34216,1.39573 -5.94966,3.4986 -8.01666,4.67305 -10.07004,5.72171 -19.8839,11.37446 -29.17402,16.80414 -5.62118,3.28534 -13.03093,7.50463 -16.4661,9.3762 -3.43517,1.87158 -7.05252,4.1175 -8.03857,4.99094 -0.98605,0.87344 -2.14027,1.58808 -2.56494,1.58808 -0.42468,0 -5.75012,2.89984 -11.83431,6.44409 -15.60325,9.08942 -22.32913,12.8271 -22.98591,12.77364 -0.31229,-0.0254 -1.58764,-0.65493 -2.834114,-1.39892 z m -9.65741,-65.02246 v -29.03415 l -2.48933,0.79009 c -1.36914,0.43454 -5.72178,2.76855 -9.67255,5.18669 -3.95077,2.41814 -7.4198,4.39661 -7.70896,4.39661 -0.28916,0 -3.32171,1.78856 -6.739004,3.97458 -3.417295,2.18602 -6.517867,3.97457 -6.89016,3.97457 -0.372293,0 -3.375793,1.72647 -6.674442,3.83658 -3.298651,2.11013 -7.106731,4.18864 -8.4624,4.6189 -2.261888,0.7179 -3.585965,4.03605 -1.610546,4.03605 0.903288,0 12.019039,6.34306 38.891452,22.19292 4.68433,2.7629 9.15572,5.03197 9.93644,5.04239 1.09908,0.0147 1.4195,-6.53487 1.4195,-29.01523 z m 42.374374,20.95845 c 7.61062,-4.44164 17.41461,-10.14448 21.78664,-12.67298 12.72141,-7.35722 13.35261,-7.8056 12.32902,-8.75799 -0.92021,-0.85621 -15.5,-9.42987 -30.49851,-17.93469 -3.74746,-2.12498 -9.36864,-5.33897 -12.49152,-7.14222 -3.12289,-1.80324 -6.31674,-3.29055 -7.09746,-3.30514 -1.09918,-0.0205 -1.41949,6.50791 -1.41949,28.9311 0,25.51566 0.21121,28.95763 1.77692,28.95763 0.97731,0 8.00379,-3.63407 15.6144,-8.07571 z M 44.100463,138.47419 c 9.940296,-5.72247 21.267121,-12.20525 25.170723,-14.40619 3.9036,-2.20093 7.09746,-4.35886 7.09746,-4.7954 0,-1.28401 -1.00871,-1.89379 -42.409942,-25.637426 -3.651315,-2.09403 -7.100679,-3.80733 -7.665254,-3.80733 -0.585286,0 -1.026502,12.690766 -1.026502,29.525426 0,16.23898 0.171057,29.52542 0.380125,29.52542 0.20907,0 8.513095,-4.68203 18.45339,-10.4045 z M 180.84322,119.35327 c 0,-16.23898 -0.43351,-29.525426 -0.96335,-29.525426 -0.52985,0 -4.49023,2.01602 -8.80085,4.48003 -4.31062,2.46401 -10.64808,6.037156 -14.08325,7.940316 -16.85514,9.33815 -26.68644,15.57026 -26.68644,16.91665 0,0.81824 2.81059,3.02537 6.24576,4.90473 3.43517,1.87935 7.41657,4.16766 8.84756,5.08512 1.431,0.91744 4.75261,2.85567 7.38136,4.30717 15.02661,8.29708 18.77402,10.45422 22.25582,12.81119 2.11703,1.43311 4.28885,2.60564 4.82627,2.60564 0.53742,0 0.97712,-13.28644 0.97712,-29.52542 z M 89.995766,67.115985 c 0,-16.238984 -0.30961,-29.525424 -0.68801,-29.525424 -0.37841,0 -4.84981,2.383967 -9.93645,5.297703 -5.08663,2.913737 -12.314527,7.040031 -16.061985,9.169543 -3.747457,2.129511 -10.614282,6.037544 -15.259611,8.684519 -4.645328,2.646973 -8.602197,5.291653 -8.793041,5.877067 -0.338567,1.038548 2.200151,2.76366 11.667212,7.928121 2.556652,1.394702 6.762387,3.870286 9.346077,5.501299 2.583692,1.631011 4.949518,2.965477 5.257394,2.965477 0.494895,0 14.424094,8.198424 20.493834,12.062224 1.24915,0.79517 2.65445,1.47257 3.12288,1.50533 0.46843,0.0328 0.8517,-13.226876 0.8517,-29.465859 z m 28.920494,28.449919 c 0.36558,-0.59152 3.84511,-2.80184 7.73226,-4.91182 14.12408,-7.666615 37.76585,-21.470322 39.26057,-22.923049 1.27412,-1.238305 0.0317,-2.336673 -7.38135,-6.525361 -4.90234,-2.770039 -16.1511,-9.216637 -24.99726,-14.325774 -8.84617,-5.109137 -16.63918,-9.289339 -17.3178,-9.289339 -0.85645,0 -1.23386,9.031155 -1.23386,29.525424 0,24.950319 0.25356,29.525419 1.63636,29.525419 0.90001,0 1.93549,-0.48397 2.30108,-1.0755 z"
     id="path6473"
     inkscape:connector-curvature="0" />
</svg>
