<?xml version="1.0" encoding="UTF-8" standalone="no"?>
<!-- Created with Inkscape (http://www.inkscape.org/) -->

<svg
   xmlns:dc="http://purl.org/dc/elements/1.1/"
   xmlns:cc="http://creativecommons.org/ns#"
   xmlns:rdf="http://www.w3.org/1999/02/22-rdf-syntax-ns#"
   xmlns:svg="http://www.w3.org/2000/svg"
   xmlns="http://www.w3.org/2000/svg"
   xmlns:sodipodi="http://sodipodi.sourceforge.net/DTD/sodipodi-0.dtd"
   xmlns:inkscape="http://www.inkscape.org/namespaces/inkscape"
   version="1.1"
   id="svg82"
   width="55.986652mm"
   height="63.403053mm"
   viewBox="0 0 211.6031 239.63359"
   sodipodi:docname="hermetica-hiiaka.svg"
   inkscape:version="0.92.5 (2060ec1f9f, 2020-04-08)">
  <metadata
     id="metadata88">
    <rdf:RDF>
      <cc:Work
         rdf:about="">
        <dc:format>image/svg+xml</dc:format>
        <dc:type
           rdf:resource="http://purl.org/dc/dcmitype/StillImage" />
        <dc:title></dc:title>
      </cc:Work>
    </rdf:RDF>
  </metadata>
  <defs
     id="defs86" />
  <sodipodi:namedview
     pagecolor="#ffffff"
     bordercolor="#666666"
     borderopacity="1"
     objecttolerance="10"
     gridtolerance="10"
     guidetolerance="10"
     inkscape:pageopacity="0"
     inkscape:pageshadow="2"
     inkscape:window-width="1920"
     inkscape:window-height="997"
     id="namedview84"
     showgrid="false"
     units="mm"
     fit-margin-top="0"
     fit-margin-left="0"
     fit-margin-right="0"
     fit-margin-bottom="0"
     inkscape:zoom="0.88059701"
     inkscape:cx="242.18543"
     inkscape:cy="62.528176"
     inkscape:window-x="0"
     inkscape:window-y="28"
     inkscape:window-maximized="1"
     inkscape:current-layer="svg82" />
  <path
     style="fill:#ff0000;fill-opacity:0.01829266;stroke:#ff0000;stroke-width:0.56779659;stroke-miterlimit:4;stroke-dasharray:none;stroke-opacity:1"
     d="M 10.403128,230.87053 C 5.2773579,227.29442 0.74637795,224.03134 0.33428795,223.61924 -0.07781205,223.20715 2.0962879,218.6285 5.1656179,213.44447 22.261308,184.57022 30.510848,153.97374 30.510848,119.4423 30.510848,84.598917 21.824868,52.476739 4.7747979,24.266218 2.0230279,19.713219 0.09806795,15.459767 0.49710795,14.814103 1.0968479,13.84371 5.6529479,10.688415 18.709618,2.2011743 c 2.3485,-1.52659396 14.69996,20.1100827 22.50777,39.4279687 5.47514,13.546464 11.76227,38.115249 13.20351,51.59653 0.63862,5.9736 1.38285,11.505307 1.65386,12.292667 0.38833,1.12825 10.90609,1.36887 49.638142,1.1356 l 49.14541,-0.29599 0.78303,-8.631817 c 1.85078,-20.402629 10.41183,-50.063883 20.45206,-70.859702 4.03969,-8.367208 13.1679,-24.1374587 14.41887,-24.9106067 0.73522,-0.454389 10.81647,5.988494 17.25632,11.0284337 l 3.41606,2.673469 -4.79197,7.875538 c -11.43359,18.790971 -21.81051,47.388239 -24.9253,68.690468 -0.85833,5.87013 -1.13392,17.720967 -0.77222,33.207147 0.50205,21.49506 0.88991,25.29848 3.61366,35.43555 4.38495,16.3196 7.77378,25.92493 13.02099,36.90678 4.56663,9.55742 6.15587,12.4777 11.2696,20.70812 l 2.63566,4.24203 -3.20533,2.81954 c -1.76294,1.55076 -3.61926,2.8357 -4.12515,2.85544 -0.50591,0.0198 -3.26223,1.82444 -6.12517,4.01046 -2.86294,2.18602 -5.83487,3.97458 -6.60429,3.97458 -1.34667,0 -9.62838,-13.55782 -15.71877,-25.73287 -8.77474,-17.54125 -17.69558,-48.86176 -19.70925,-69.19796 l -0.8888,-8.97595 -49.49578,-0.2957 -49.495792,-0.2957 -1.34346,12.21943 c -3.09271,28.12976 -15.57294,63.72523 -30.21439,86.17593 -1.27324,1.95235 -2.826,4.34674 -3.45058,5.32086 -0.96763,1.50918 -2.51403,0.80944 -10.45518,-4.73089 z"
     id="path5241"
     inkscape:connector-curvature="0" />
  <path
     style="fill:#ff0000;fill-opacity:0.01829266;stroke:#ff0000;stroke-width:0.56779659;stroke-miterlimit:4;stroke-dasharray:none;stroke-opacity:1"
     d="M 103.6902,0.28669134 C 95.212038,0.20948134 90.651968,1.6954353 83.883558,6.2534873 72.431688,13.965521 66.498788,25.0698 66.498788,38.790597 c 0,16.343766 9.93148,30.778958 25.85157,37.576172 1.27708,0.545261 7.43196,0.867008 13.677732,0.714843 13.11756,-0.319583 16.84357,-1.721373 25.6582,-9.646484 10.51253,-9.451668 15.19932,-23.733378 11.95118,-36.412109 -2.48113,-9.68479 -5.34089,-14.831154 -11.28321,-20.308594 -8.12993,-7.4939047 -13.50772,-9.73176966 -24.77148,-10.30273366 -1.38894,-0.07041 -2.68141,-0.11397 -3.89258,-0.125 z m 0.91992,24.87695266 c 6.78705,0 12.26645,3.727525 14.37695,9.783203 1.45644,4.178941 1.40387,5.00114 -0.56835,8.974609 -1.19409,2.40577 -3.44833,5.25226 -5.00977,6.324219 -6.21193,4.264615 -13.826862,3.256368 -18.642582,-2.466797 -5.561,-6.608873 -5.24622,-12.581916 0.99414,-18.822266 3.16544,-3.165448 4.631502,-3.792968 8.849612,-3.792968 z m 0.0391,136.085936 c -10.912822,0.0393 -20.484242,4.45572 -28.378902,13.09375 -12.12776,13.26969 -13.03488,35.60084 -2.03125,50.02734 5.83856,7.65475 13.10088,11.75082 26.111332,14.73047 3.46798,0.79424 13.92012,-0.44956 19.08398,-2.27148 16.2904,-5.74759 27.83494,-25.59126 24.65234,-42.37305 -3.83241,-20.20818 -19.35634,-33.27933 -39.4375,-33.20703 z m 1.19336,25.07617 c 5.64046,0.13471 11.15811,3.423 13.25782,9.78516 2.28651,6.92819 -0.97747,13.43366 -8.74024,17.42187 -4.92741,2.53151 -9.50098,1.41444 -14.824222,-3.61914 -4.29752,-4.06368 -5.70437,-9.57923 -3.68554,-14.45312 2.58891,-6.25019 8.351732,-9.26948 13.992182,-9.13477 z"
     id="path5243"
     inkscape:connector-curvature="0" />
</svg>
