<?xml version="1.0" encoding="UTF-8" standalone="no"?>
<!-- Created with Inkscape (http://www.inkscape.org/) -->

<svg
   xmlns:dc="http://purl.org/dc/elements/1.1/"
   xmlns:cc="http://creativecommons.org/ns#"
   xmlns:rdf="http://www.w3.org/1999/02/22-rdf-syntax-ns#"
   xmlns:svg="http://www.w3.org/2000/svg"
   xmlns="http://www.w3.org/2000/svg"
   xmlns:sodipodi="http://sodipodi.sourceforge.net/DTD/sodipodi-0.dtd"
   xmlns:inkscape="http://www.inkscape.org/namespaces/inkscape"
   version="1.1"
   id="svg52"
   width="61.185104mm"
   height="61.536911mm"
   viewBox="0 0 231.25079 232.58045"
   sodipodi:docname="esoterica-forn.svg"
   inkscape:version="0.92.5 (2060ec1f9f, 2020-04-08)">
  <metadata
     id="metadata58">
    <rdf:RDF>
      <cc:Work
         rdf:about="">
        <dc:format>image/svg+xml</dc:format>
        <dc:type
           rdf:resource="http://purl.org/dc/dcmitype/StillImage" />
        <dc:title></dc:title>
      </cc:Work>
    </rdf:RDF>
  </metadata>
  <defs
     id="defs56" />
  <sodipodi:namedview
     pagecolor="#ffffff"
     bordercolor="#666666"
     borderopacity="1"
     objecttolerance="10"
     gridtolerance="10"
     guidetolerance="10"
     inkscape:pageopacity="0"
     inkscape:pageshadow="2"
     inkscape:window-width="1920"
     inkscape:window-height="997"
     id="namedview54"
     showgrid="false"
     units="mm"
     fit-margin-top="0"
     fit-margin-left="0"
     fit-margin-right="0"
     fit-margin-bottom="0"
     inkscape:zoom="0.88059701"
     inkscape:cx="115.77375"
     inkscape:cy="115.98708"
     inkscape:window-x="0"
     inkscape:window-y="28"
     inkscape:window-maximized="1"
     inkscape:current-layer="svg52" />
  <path
     style="fill:#ff0000;fill-opacity:0.01829266;stroke:#ff0000;stroke-width:0.56779659;stroke-miterlimit:4;stroke-dasharray:none;stroke-opacity:1"
     d="M 94.084272,230.96047 C 77.025771,227.10403 58.469744,219.14401 47.197424,210.8473 42.735266,207.56304 25.109148,189.91936 21.189624,184.81359 15.888556,177.90815 7.9511677,161.89316 4.0940587,150.32049 0.31185273,138.97255 0.30917973,138.94858 0.29655473,116.25269 L 0.28392473,93.540833 4.4947057,81.319107 C 18.432001,40.866327 48.155916,13.29641 88.860192,3.0673178 c 14.864288,-3.73543404 37.603598,-3.70285104 53.372878,0.07648 21.27885,5.099777 39.92764,15.6103952 55.74243,31.4169112 14.57848,14.570849 25.17035,33.11887 30.33123,53.114754 3.5628,13.804057 3.53043,42.577937 -0.0643,57.157987 -8.0439,32.62567 -31.46597,61.27137 -62.16191,76.02533 -17.45079,8.3877 -27.95743,10.88743 -47.69491,11.34755 -12.04037,0.28069 -19.164368,-0.0845 -24.301338,-1.24586 z m 6.930748,-25.03775 c 1.37921,-1.37921 -2.809908,-16.098 -6.974918,-24.50687 -9.89493,-19.97721 -23.497928,-33.76731 -42.837493,-43.42669 -8.05503,-4.02319 -23.730235,-8.42209 -25.106679,-7.04565 -1.235871,1.23587 1.707553,12.62855 5.498394,21.28181 6.769794,15.45327 15.984117,27.1715 28.885747,36.73522 9.480128,7.02742 16.788369,10.85744 28.014091,14.68131 8.37332,2.85223 11.39843,3.4033 12.520858,2.28087 z m 37.28879,-1.00998 c 9.36766,-2.44692 24.74119,-9.93674 31.7513,-15.46888 18.63954,-14.70972 28.69243,-30.41205 35.04399,-54.73778 1.31293,-5.02833 1.32975,-5.02393 -9.56103,-2.49819 -10.16172,2.35665 -23.32519,9.13287 -33.55688,17.27421 -13.73522,10.9291 -23.87842,25.79605 -29.43532,43.14357 -4.92122,15.36302 -5.04082,15.1078 5.75794,12.28707 z m -17.12635,-46.927 c 10.19597,-15.70337 24.76006,-29.82033 38.69028,-37.50245 3.08675,-1.70226 5.61964,-3.42906 5.62863,-3.83735 0.009,-0.40829 -4.11671,-3.3936 -9.16822,-6.63402 -12.02982,-7.71681 -26.23906,-21.932517 -34.51083,-34.526557 l -6.63784,-10.106314 -2.3715,4.255279 c -8.35645,14.994245 -23.485418,30.979522 -38.426601,40.601562 -4.840466,3.11724 -8.791059,6.00176 -8.779095,6.41005 0.01197,0.40829 3.20582,2.62182 7.097458,4.91897 3.891638,2.29713 10.56353,7.09466 14.82642,10.66117 7.31967,6.12394 20.596528,22.09088 24.844768,29.87868 1.06396,1.95043 2.36088,3.54624 2.88204,3.54624 0.52115,0 3.18718,-3.44937 5.92449,-7.66526 z M 42.146683,98.255333 c 21.852705,-7.36891 41.886169,-25.518762 52.002399,-47.11294 5.18348,-11.064722 8.351478,-23.882079 6.114918,-24.740327 -2.011438,-0.77186 -21.890723,5.924965 -27.302112,9.197384 -2.498305,1.510794 -6.330933,3.749709 -8.51695,4.975365 -5.443094,3.051836 -16.698177,14.083407 -22.692015,22.24138 -8.293263,11.287632 -15.918154,29.038118 -15.918154,37.056918 0,2.892087 0.226377,3.029327 3.690678,2.237377 2.029873,-0.46404 7.70943,-2.198857 12.621236,-3.855157 z m 163.111817,1.58988 c 0,-1.21691 -1.33134,-6.45483 -2.95852,-11.63983 C 196.07527,68.370421 180.308,48.56789 162.36299,38.047453 154.27966,33.308524 135.17125,25.973034 130.91002,25.973034 c -2.43279,0 -2.20595,1.918011 1.64358,13.897438 8.74595,27.216637 29.64414,48.920831 56.23879,58.407791 12.20851,4.355077 16.46611,4.760237 16.46611,1.56695 z"
     id="path5304"
     inkscape:connector-curvature="0" />
</svg>
