<?xml version="1.0" encoding="UTF-8" standalone="no"?>
<!-- Created with Inkscape (http://www.inkscape.org/) -->

<svg
   xmlns:dc="http://purl.org/dc/elements/1.1/"
   xmlns:cc="http://creativecommons.org/ns#"
   xmlns:rdf="http://www.w3.org/1999/02/22-rdf-syntax-ns#"
   xmlns:svg="http://www.w3.org/2000/svg"
   xmlns="http://www.w3.org/2000/svg"
   xmlns:sodipodi="http://sodipodi.sourceforge.net/DTD/sodipodi-0.dtd"
   xmlns:inkscape="http://www.inkscape.org/namespaces/inkscape"
   version="1.1"
   id="svg42"
   width="54.352013mm"
   height="61.917973mm"
   viewBox="0 0 205.42493 234.02069"
   sodipodi:docname="hermetica-sulfur_alt.svg"
   inkscape:version="0.92.5 (2060ec1f9f, 2020-04-08)">
  <metadata
     id="metadata48">
    <rdf:RDF>
      <cc:Work
         rdf:about="">
        <dc:format>image/svg+xml</dc:format>
        <dc:type
           rdf:resource="http://purl.org/dc/dcmitype/StillImage" />
        <dc:title></dc:title>
      </cc:Work>
    </rdf:RDF>
  </metadata>
  <defs
     id="defs46" />
  <sodipodi:namedview
     pagecolor="#ffffff"
     bordercolor="#666666"
     borderopacity="1"
     objecttolerance="10"
     gridtolerance="10"
     guidetolerance="10"
     inkscape:pageopacity="0"
     inkscape:pageshadow="2"
     inkscape:window-width="1920"
     inkscape:window-height="997"
     id="namedview44"
     showgrid="false"
     units="mm"
     fit-margin-top="0"
     fit-margin-left="0"
     fit-margin-right="0"
     fit-margin-bottom="0"
     inkscape:zoom="0.88059701"
     inkscape:cx="102.59696"
     inkscape:cy="116.9952"
     inkscape:window-x="0"
     inkscape:window-y="28"
     inkscape:window-maximized="1"
     inkscape:current-layer="svg42" />
  <path
     style="fill:#ff0000;fill-opacity:0.01829266;stroke:#ff0000;stroke-width:0.56779659;stroke-miterlimit:4;stroke-dasharray:none;stroke-opacity:1"
     d="M 40.480013,233.51759 C 32.553108,232.34076 18.738064,224.50394 12.930769,217.88979 -0.88866391,202.15033 -3.6624489,179.04015 5.9956371,160.10873 10.144809,151.97568 21.227531,141.97851 30.259674,138.22135 c 6.946805,-2.88971 9.381076,-3.31047 19.305085,-3.33686 14.130764,-0.0376 22.341583,2.85117 32.998723,11.60963 3.98985,3.27903 7.52341,5.96187 7.85235,5.96187 0.32894,0 0.59808,-10.73136 0.59808,-23.84746 V 104.76107 H 59.785098 28.556284 V 92.287803 79.814528 l 30.944915,-0.30215 30.944913,-0.302149 V 66.150907 53.091585 L 78.806282,52.76796 67.166454,52.444335 V 40.032263 27.62019 l 11.639828,-0.323625 11.63983,-0.323624 V 13.628435 0.28392862 l 12.171588,0.0013 12.17159,0.0013 0.31993,13.34322038 0.31994,13.343221 11.63983,0.323624 11.63983,0.323625 v 12.451799 12.451799 h -11.95977 -11.95976 l 0.31993,13.34322 0.31994,13.343221 30.37712,0.302446 30.37712,0.302447 V 92.288133 104.7611 h -30.66102 -30.66101 v 23.09039 c 0,12.69973 0.3232,23.4136 0.71821,23.80861 0.39502,0.39503 4.02122,-2.02341 8.05822,-5.37428 25.29884,-20.99907 62.18303,-13.36521 77.06241,15.9495 4.40684,8.68215 4.44082,8.85001 4.44082,21.93675 0,12.72693 -0.13621,13.4645 -3.89895,21.11291 -5.40547,10.98755 -12.99976,18.667 -23.7082,23.97402 -8.52445,4.22466 -9.03096,4.32768 -21.32644,4.33785 -12.36302,0.0102 -12.7596,-0.0711 -21.56746,-4.42422 -6.96177,-3.44069 -11.47219,-6.87183 -20.12414,-15.30867 -6.1332,-5.98073 -11.32524,-11.03711 -11.53786,-11.23642 -0.21262,-0.19932 -5.519288,4.74169 -11.792598,10.98 -14.85773,14.77484 -23.29256,19.24353 -37.646047,19.94446 -5.308898,0.25927 -11.185593,0.24379 -13.059322,-0.0344 z m 18.156802,-26.15668 c 4.233345,-1.44245 7.978576,-4.3392 16.241957,-12.56239 l 10.7399,-10.68764 -10.11585,-10.00098 C 62.674915,161.42767 57.915899,158.87091 48.279914,159.48448 c -5.727791,0.36472 -8.118115,1.14835 -12.017307,3.93967 -10.459779,7.48786 -13.797526,20.12577 -8.385228,31.74948 5.487194,11.78456 17.718512,16.63077 30.759436,12.18728 z m 104.772325,0.54891 c 12.15715,-3.06121 19.33072,-16.27228 16.26774,-29.95914 -3.2034,-14.31433 -20.16249,-22.66593 -33.61612,-16.55446 -5.14564,2.33747 -24.38583,19.99406 -24.38583,22.3787 0,0.85045 4.6369,6.1305 10.30422,11.73344 13.30318,13.15204 19.20345,15.48013 31.42999,12.40146 z"
     id="path5329"
     inkscape:connector-curvature="0" />
</svg>
