<?xml version="1.0" encoding="UTF-8" standalone="no"?>
<!-- Created with Inkscape (http://www.inkscape.org/) -->

<svg
   xmlns:dc="http://purl.org/dc/elements/1.1/"
   xmlns:cc="http://creativecommons.org/ns#"
   xmlns:rdf="http://www.w3.org/1999/02/22-rdf-syntax-ns#"
   xmlns:svg="http://www.w3.org/2000/svg"
   xmlns="http://www.w3.org/2000/svg"
   xmlns:sodipodi="http://sodipodi.sourceforge.net/DTD/sodipodi-0.dtd"
   xmlns:inkscape="http://www.inkscape.org/namespaces/inkscape"
   version="1.1"
   id="svg42"
   width="33.80616mm"
   height="47.622757mm"
   viewBox="0 0 127.77131 179.99152"
   sodipodi:docname="hermetica-europa.svg"
   inkscape:version="0.92.5 (2060ec1f9f, 2020-04-08)">
  <metadata
     id="metadata48">
    <rdf:RDF>
      <cc:Work
         rdf:about="">
        <dc:format>image/svg+xml</dc:format>
        <dc:type
           rdf:resource="http://purl.org/dc/dcmitype/StillImage" />
        <dc:title></dc:title>
      </cc:Work>
    </rdf:RDF>
  </metadata>
  <defs
     id="defs46" />
  <sodipodi:namedview
     pagecolor="#ffffff"
     bordercolor="#666666"
     borderopacity="1"
     objecttolerance="10"
     gridtolerance="10"
     guidetolerance="10"
     inkscape:pageopacity="0"
     inkscape:pageshadow="2"
     inkscape:window-width="1920"
     inkscape:window-height="997"
     id="namedview44"
     showgrid="false"
     units="mm"
     fit-margin-top="0"
     fit-margin-left="0"
     fit-margin-right="0"
     fit-margin-bottom="0"
     inkscape:zoom="0.88059701"
     inkscape:cx="301.4603"
     inkscape:cy="78.86695"
     inkscape:window-x="0"
     inkscape:window-y="28"
     inkscape:window-maximized="1"
     inkscape:current-layer="svg42" />
  <path
     style="fill:#ff0000;fill-opacity:0.01829266;stroke:#ff0000;stroke-width:0.56779659;stroke-miterlimit:4;stroke-dasharray:none;stroke-opacity:1"
     d="m 75.250122,166.66382 v -13.0438 L 38.059455,153.3206 0.86876546,153.02119 0.57687546,76.652546 0.28498546,0.28389829 H 63.886205 127.48741 V 12.763733 25.243567 l -50.817788,0.295589 -50.817807,0.29559 v 18.737288 18.73729 l 13.34323,0.31993 13.34322,0.31994 v 12.419452 12.41945 l -13.34322,0.31994 -13.34323,0.31993 -0.31125,18.291644 c -0.24829,14.59178 0.0108,18.55891 1.28082,19.61294 1.12383,0.9327 8.39603,1.23076 24.72651,1.01344 l 23.134437,-0.30785 0.31993,-13.34322 0.31994,-13.34322 h 12.41945 12.419448 l 0.31993,13.34322 0.31994,13.34322 13.34322,0.31994 13.34322,0.31993 v 12.4555 12.45548 h -13.62712 -13.62712 v 13.05932 13.05932 H 87.741652 75.250122 Z"
     id="path5344"
     inkscape:connector-curvature="0" />
</svg>
