<?xml version="1.0" encoding="UTF-8" standalone="no"?>
<!-- Created with Inkscape (http://www.inkscape.org/) -->

<svg
   xmlns:dc="http://purl.org/dc/elements/1.1/"
   xmlns:cc="http://creativecommons.org/ns#"
   xmlns:rdf="http://www.w3.org/1999/02/22-rdf-syntax-ns#"
   xmlns:svg="http://www.w3.org/2000/svg"
   xmlns="http://www.w3.org/2000/svg"
   xmlns:sodipodi="http://sodipodi.sourceforge.net/DTD/sodipodi-0.dtd"
   xmlns:inkscape="http://www.inkscape.org/namespaces/inkscape"
   version="1.1"
   id="svg32"
   width="47.121609mm"
   height="63.240433mm"
   viewBox="0 0 178.09742 239.01896"
   sodipodi:docname="esoterica-phi_paw.svg"
   inkscape:version="0.92.5 (2060ec1f9f, 2020-04-08)">
  <metadata
     id="metadata38">
    <rdf:RDF>
      <cc:Work
         rdf:about="">
        <dc:format>image/svg+xml</dc:format>
        <dc:type
           rdf:resource="http://purl.org/dc/dcmitype/StillImage" />
        <dc:title></dc:title>
      </cc:Work>
    </rdf:RDF>
  </metadata>
  <defs
     id="defs36" />
  <sodipodi:namedview
     pagecolor="#ffffff"
     bordercolor="#666666"
     borderopacity="1"
     objecttolerance="10"
     gridtolerance="10"
     guidetolerance="10"
     inkscape:pageopacity="0"
     inkscape:pageshadow="2"
     inkscape:window-width="1920"
     inkscape:window-height="997"
     id="namedview34"
     showgrid="false"
     units="mm"
     fit-margin-top="0"
     fit-margin-left="0"
     fit-margin-right="0"
     fit-margin-bottom="0"
     inkscape:zoom="0.88059701"
     inkscape:cx="89.390937"
     inkscape:cy="119.74874"
     inkscape:window-x="0"
     inkscape:window-y="28"
     inkscape:window-maximized="1"
     inkscape:current-layer="svg32" />
  <path
     style="fill:#000000;fill-opacity:0;stroke:#ff0000;stroke-width:0.56779659;stroke-miterlimit:4;stroke-dasharray:none;stroke-opacity:1"
     d="m 63.529607,0.28389849 c -3.81976,6.32e-4 -7.70618,1.53940701 -11.318358,4.71093701 -11.057788,9.7088675 -13.510331,30.4871935 -5.36914,45.4960935 2.984759,5.502629 6.370889,8.43254 11.562498,10.005859 4.0869,1.238541 4.16834,1.236189 9.83008,-0.189453 3.65965,-0.921512 6.00311,-2.463052 8.46875,-5.576171 5.82165,-7.350429 7.10172,-11.822104 7.04492,-24.597657 -0.0467,-10.495115 -0.3496,-12.126081 -3.25,-17.455078 C 76.077897,4.5565915 69.895877,0.28284449 63.529607,0.28389849 Z m 51.943363,0.544922 c -9.05885,0 -14.69527,4.41053301 -18.470703,14.45703051 -6.73468,17.921106 -0.75095,40.095355 12.035153,44.597656 5.5712,1.961756 5.788,1.970136 11.11719,0.490235 9.56829,-2.657084 15.56836,-14.00947 15.56836,-29.453125 0,-11.967588 -2.40406,-18.983656 -8.58203,-25.0468745 -4.88048,-4.789828 -5.47265,-5.04492201 -11.66797,-5.04492201 z M 159.1761,40.36007 c -11.05948,0.03794 -18.81055,10.312657 -18.81055,25.763672 0,11.196787 3.87505,19.546504 11.25586,24.250004 8.12118,5.17532 20.41831,-0.55783 24.08203,-11.226567 5.75556,-16.76018 -0.82543,-36.244789 -12.99219,-38.464844 -1.20995,-0.220778 -2.39107,-0.32619 -3.53515,-0.322265 z M 19.121406,40.654992 c -7.58203,0 -11.1889632,2.544251 -15.5117192,10.945312 -6.496641,12.625898 -3.10852504,30.967176 6.9882812,37.828122 8.520668,5.78994 19.063336,2.15475 24.236328,-8.357419 3.752046,-7.624623 3.723742,-22.32199 -0.05664,-30.011719 -3.659809,-7.44447 -8.114268,-10.404296 -15.65625,-10.404296 z m 93.359374,32.966796 c -14.222943,-0.161006 -26.244213,7.317837 -32.625003,20.658208 -2.39859,5.01474 -2.57925,7.074534 -2.9414,33.451174 -0.3024,22.02517 -0.70304,28.10547 -1.85352,28.10547 -2.40772,0 -11.61461,-7.59727 -14.06445,-11.60547 -2.69992,-4.41735 -5.900392,-14.80089 -5.900392,-19.14258 0,-6.02996 4.419972,-17.42729 8.447262,-21.7832 8.28116,-8.956864 5.80882,-20.111464 -5.04101,-22.750008 C 48.219,78.054619 33.473982,97.718426 31.293281,116.83859 c -3.258089,28.56659 10.495631,52.43561 36.291016,62.98242 l 9.08789,3.7168 v 27.59765 27.59961 h 12.49219 12.490233 v -27.85742 c 0,-25.52815 0.16718,-27.91236 1.98828,-28.5039 21.16524,-6.87499 34.97551,-19.98111 41.25391,-39.1504 2.41362,-7.36928 2.75,-10.47658 2.75,-25.42968 0,-16.18274 -0.15571,-17.36407 -3.10352,-23.656254 -5.1186,-10.925835 -14.45038,-18.140078 -25.84179,-19.974612 -2.11169,-0.340077 -4.18886,-0.518015 -6.22071,-0.541016 z m -0.2207,24.730468 c 2.90427,-0.0761 5.64124,1.35733 8.10156,4.281254 2.65881,3.15981 2.86928,4.2591 2.86328,14.96289 -0.003,6.35398 -0.56089,13.5974 -1.23828,16.09571 -1.83127,6.75393 -7.17436,14.46706 -12.84179,18.5371 -2.76181,1.98338 -5.57724,3.60743 -6.25586,3.60743 -1.32279,0 -1.83954,-48.20134 -0.55274,-51.55469 0.37426,-0.97531 2.4166,-2.84644 4.53907,-4.1582 1.84009,-1.137244 3.6422,-1.725844 5.38476,-1.771494 z"
     id="path4772"
     inkscape:connector-curvature="0" />
</svg>
