<?xml version="1.0" encoding="UTF-8" standalone="no"?>
<svg
   xmlns:dc="http://purl.org/dc/elements/1.1/"
   xmlns:cc="http://creativecommons.org/ns#"
   xmlns:rdf="http://www.w3.org/1999/02/22-rdf-syntax-ns#"
   xmlns:svg="http://www.w3.org/2000/svg"
   xmlns="http://www.w3.org/2000/svg"
   viewBox="0 0 233.89704 220.86656"
   height="58.437611mm"
   width="61.885258mm"
   id="svg2"
   version="1.1">
  <metadata
     id="metadata8">
    <rdf:RDF>
      <cc:Work
         rdf:about="">
        <dc:format>image/svg+xml</dc:format>
        <dc:type
           rdf:resource="http://purl.org/dc/dcmitype/StillImage" />
        <dc:title></dc:title>
      </cc:Work>
    </rdf:RDF>
  </metadata>
  <defs
     id="defs6" />
  <path
     id="path817"
     d="m 104.27841,137.94317 -0.31252,-82.639512 -3.73241,-7.58038 c -4.124051,-8.37579 -10.353081,-14.59005 -19.104341,-19.05905 -4.7722,-2.43702 -7.07014,-2.83503 -16.34122,-2.83034 -9.61861,0.005 -11.44523,0.35095 -16.84937,3.19236 -8.1234,4.27117 -15.60882,11.98263 -19.27659,19.8587 -2.52897,5.43065 -3.00764,8.01969 -2.9824,16.1311 0.0321,10.301854 2.26419,16.957239 7.95586,23.721399 l 2.63686,3.13374 -8.98774,8.935033 c -4.94327,4.91427 -9.20203,8.70677 -9.46393,8.42778 C 6.1815094,96.835187 -1.0645906,75.858906 0.49493943,59.078988 3.5187894,26.543588 32.133909,0.30854787 64.623999,0.28391787 c 16.48698,-0.0125 31.37408,5.95259003 44.281111,17.74294013 l 8.346,7.62393 4.71332,-4.7451 C 135.73122,7.0460879 151.35079,0.26189787 169.42641,0.29105787 c 30.65663,0.0495 56.34843,21.55361013 63.07211,52.79161013 3.85467,17.908679 -2.5254,40.427549 -15.75335,55.602402 -0.57195,0.65613 -4.53973,-2.47118 -9.9143,-7.81423 l -8.9607,-8.908163 3.67913,-5.24509 c 5.59176,-7.97179 6.87887,-12.199209 6.81656,-22.388689 -0.0474,-7.74327 -0.56912,-10.24277 -3.30584,-15.83645 -3.97457,-8.12372 -10.89223,-15.2305 -18.94816,-19.4662 -5.40414,-2.84141 -7.23075,-3.18749 -16.84936,-3.19236 -9.27109,-0.005 -11.56903,0.39332 -16.34123,2.83034 -8.75126,4.469 -14.98027,10.68326 -19.10433,19.05905 l -3.73241,7.58038 -0.31252,82.639512 -0.31252,82.6395 h -12.43428 -12.43428 z"
     style="fill:#ffff00;fill-opacity:0.01829266;stroke:#ff0000;stroke-width:0.56779659;stroke-miterlimit:4;stroke-dasharray:none;stroke-opacity:1" />
</svg>
