<?xml version="1.0" encoding="UTF-8" standalone="no"?>
<!-- Created with Inkscape (http://www.inkscape.org/) -->

<svg
   xmlns:dc="http://purl.org/dc/elements/1.1/"
   xmlns:cc="http://creativecommons.org/ns#"
   xmlns:rdf="http://www.w3.org/1999/02/22-rdf-syntax-ns#"
   xmlns:svg="http://www.w3.org/2000/svg"
   xmlns="http://www.w3.org/2000/svg"
   xmlns:sodipodi="http://sodipodi.sourceforge.net/DTD/sodipodi-0.dtd"
   xmlns:inkscape="http://www.inkscape.org/namespaces/inkscape"
   version="1.1"
   id="svg12"
   width="63.345646mm"
   height="58.771576mm"
   viewBox="0 0 239.41662 222.12879"
   sodipodi:docname="esoterica-triple_spiral.svg"
   inkscape:version="0.92.5 (2060ec1f9f, 2020-04-08)">
  <metadata
     id="metadata18">
    <rdf:RDF>
      <cc:Work
         rdf:about="">
        <dc:format>image/svg+xml</dc:format>
        <dc:type
           rdf:resource="http://purl.org/dc/dcmitype/StillImage" />
        <dc:title></dc:title>
      </cc:Work>
    </rdf:RDF>
  </metadata>
  <defs
     id="defs16" />
  <sodipodi:namedview
     pagecolor="#ffffff"
     bordercolor="#666666"
     borderopacity="1"
     objecttolerance="10"
     gridtolerance="10"
     guidetolerance="10"
     inkscape:pageopacity="0"
     inkscape:pageshadow="2"
     inkscape:window-width="1920"
     inkscape:window-height="997"
     id="namedview14"
     showgrid="false"
     units="mm"
     fit-margin-top="0"
     fit-margin-left="0"
     fit-margin-right="0"
     fit-margin-bottom="0"
     inkscape:zoom="0.88059701"
     inkscape:cx="119.57556"
     inkscape:cy="111.35168"
     inkscape:window-x="0"
     inkscape:window-y="28"
     inkscape:window-maximized="1"
     inkscape:current-layer="svg12" />
  <path
     style="fill:#000000;fill-opacity:0;stroke:#ff0000;stroke-width:0.56779659;stroke-miterlimit:4;stroke-dasharray:none;stroke-opacity:1"
     d="M 42.413309,220.63465 C 6.3979034,212.48427 -10.904228,170.0073 8.0784884,136.34219 16.356563,121.66134 28.157677,111.86513 43.263693,107.13463 c 16.649313,-5.2138 25.857924,-4.89548 45.991524,1.58978 17.510293,5.64026 27.020273,5.55106 44.666113,-0.41894 14.62937,-4.94947 25.41137,-16.000712 30.0271,-30.776932 4.97626,-15.93037 2.38881,-32.165418 -7.35785,-46.167171 -5.20928,-7.483494 -10.23367,-11.66261 -19.64044,-16.336283 -6.19251,-3.07669 -7.84866,-3.385254 -18.1695,-3.385254 -10.47388,0 -11.93986,0.283824 -18.873823,3.654115 -18.605732,9.043428 -27.25129,27.991361 -21.468414,47.051005 2.10453,6.936273 3.519415,9.331401 8.377884,14.182142 4.7153,4.707806 7.3511,6.299856 13.630583,8.233046 4.28168,1.31815 9.39185,2.39917 11.35594,2.40226 10.58,0.0166 23.23952,-9.00166 25.77049,-18.358212 1.62089,-5.992139 0.83518,-16.377055 -1.59456,-21.075648 -2.65081,-5.126101 -11.44223,-10.538809 -17.10888,-10.533616 -11.50045,0.01056 -20.348373,13.108119 -13.76745,20.379951 2.52378,2.78874 4.63735,2.905174 10.24028,0.564119 3.82521,-1.598275 4.47676,-1.595822 6.95224,0.02617 3.56655,2.33689 3.46372,5.709573 -0.27987,9.179005 -7.21444,6.686127 -18.00736,6.095746 -25.048643,-1.370183 -11.59139,-12.290458 -4.62018,-33.277749 12.983423,-39.087462 2.29302,-0.756766 7.10825,-1.09081 11.10238,-0.770199 16.94517,1.360199 29.42908,16.180616 29.41621,34.921807 -0.0134,19.508558 -16.06931,35.887698 -36.49608,37.230798 C 80.854906,100.44645 56.812284,67.750932 67.693947,35.335021 72.471301,21.103528 81.368916,11.327848 96.068777,4.1600073 103.83084,0.37512829 104.35442,0.28389829 118.3143,0.28389829 h 14.29637 l 10.87879,5.39792201 c 12.98573,6.4433577 21.50434,14.9597507 27.57744,27.5702227 8.34921,17.336691 9.35755,32.49837 3.28351,49.371605 -4.18208,11.61748 -7.89031,16.76178 -22.09513,30.651782 -10.5173,10.2842 -12.83826,13.25096 -16.87954,21.57627 -3.58548,7.3863 -4.88754,11.65216 -5.54584,18.16949 -1.20446,11.92434 0.10777,21.53942 3.91385,28.67845 4.49122,8.42408 16.5283,20.18279 24.78266,24.20953 6.46719,3.15491 7.56402,3.32388 21.57627,3.32388 13.51093,0 15.29231,-0.24902 21.00847,-2.93682 9.16355,-4.3088 18.00859,-12.94996 22.71187,-22.18835 3.67169,-7.21209 3.97457,-8.58768 3.97457,-18.05125 0,-9.26736 -0.35271,-10.96068 -3.69888,-17.75772 -3.96501,-8.05408 -11.05255,-15.32221 -18.93905,-19.42164 -6.36102,-3.30647 -23.1392,-3.51414 -29.03156,-0.35933 -6.89807,3.69326 -11.03093,7.39904 -15.51863,13.91499 -4.0638,5.90045 -4.352,6.86214 -4.32052,14.41708 0.0668,16.01251 10.36415,26.83219 25.53704,26.83219 6.86337,0 10.89616,-1.8804 15.6538,-7.29907 6.35333,-7.23603 5.90353,-15.75024 -1.14543,-21.68155 -6.25406,-5.26244 -13.3927,-2.59021 -13.3927,5.01334 0,5.38141 -1.82885,8.06898 -5.4908,8.06898 -4.67354,0 -5.86513,-1.96072 -5.86513,-9.6509 0,-6.51824 0.26333,-7.19952 4.4782,-11.58595 4.96479,-5.16686 10.35319,-6.78098 18.20722,-5.45405 6.27099,1.05947 11.27814,4.75168 15.32161,11.29798 2.99318,4.84587 3.44212,6.63334 3.44212,13.70462 0,7.46273 -0.3417,8.64651 -4.15234,14.38533 -7.44716,11.21541 -17.13918,15.56778 -31.72223,14.24544 -12.54795,-1.13781 -22.99317,-8.61544 -28.90051,-20.68961 -2.80828,-5.73992 -3.20566,-7.84395 -3.20566,-16.97338 0,-12.45374 2.11295,-17.78305 10.83366,-27.32491 10.22999,-11.19323 23.8017,-16.42851 38.75045,-14.94795 9.80303,0.97092 14.02863,2.36082 21.23562,6.98489 7.76557,4.98247 14.76117,13.25072 19.55585,23.11347 3.48794,7.17475 3.67862,8.2374 3.70062,20.62383 0.0231,12.99367 -3e-4,13.10786 -4.64703,22.71187 -5.80501,11.99794 -11.76702,18.80065 -21.6935,24.75247 -10.07262,6.03943 -19.78885,8.56415 -32.68713,8.4936 -12.68345,-0.0694 -22.87661,-2.64475 -31.79661,-8.03363 -16.82548,-10.16483 -25.87382,-23.44163 -30.50525,-44.76093 -3.30607,-15.21843 -6.50027,-22.62894 -13.66459,-31.70179 -6.010043,-7.61106 -17.337833,-16.60491 -23.838237,-18.92668 -6.659388,-2.37855 -21.298796,-3.07837 -28.924793,-1.38271 -14.999023,3.33506 -27.273177,13.5102 -34.881068,28.91603 -4.298806,8.70499 -4.456548,9.43162 -4.43742,20.44068 0.01816,10.44977 0.326272,12.0653 3.644441,19.10876 4.201805,8.91917 12.314488,17.4326 20.4108,21.41904 4.72837,2.32815 7.105036,2.68363 17.941875,2.68363 13.936445,0 17.355766,-1.16791 26.248049,-8.96536 14.63839,-12.83609 14.74399,-39.23834 0.20291,-50.73241 -12.286549,-9.71196 -26.408074,-8.89231 -36.326299,2.10847 -11.456086,12.70648 -5.715308,32.03845 9.514067,32.03845 11.193985,0 16.259414,-10.76967 7.11617,-15.12978 -4.383283,-2.09024 -6.184575,-6.5519 -3.803485,-9.42093 2.144298,-2.58373 10.567232,-1.46356 14.124617,1.87843 3.802781,3.57253 6.669187,11.54366 5.769217,16.04352 -2.260763,11.30381 -10.812132,18.00457 -22.919882,17.95976 -8.408115,-0.0311 -14.506681,-2.70166 -19.945089,-8.73388 -5.236231,-5.80797 -7.177192,-11.46983 -7.119068,-20.76661 0.05868,-9.38505 3.105229,-16.41784 10.025733,-23.1438 9.606036,-9.33599 21.947576,-12.80341 34.864172,-9.79527 19.405957,4.51946 33.07184,24.41741 31.29837,45.57142 -0.73593,8.77818 -6.404263,21.98139 -11.972593,27.88767 -11.980871,12.70803 -31.384296,18.52399 -48.715408,14.60192 z m 81.931111,-89.80763 c 1.8109,-4.05372 3.05461,-7.60835 2.76376,-7.8992 -0.29084,-0.29085 -2.28015,-0.0266 -4.42067,0.58736 -2.14053,0.6139 -5.81156,1.11618 -8.15784,1.11618 -2.34629,0 -4.26597,0.25204 -4.26597,0.56011 0,0.85554 9.57282,13.06203 10.22033,13.03215 0.31229,-0.0144 2.04947,-3.34288 3.86039,-7.3966 z"
     id="path5444"
     inkscape:connector-curvature="0" />
</svg>
