<?xml version="1.0" encoding="UTF-8" standalone="no"?>
<!-- Created with Inkscape (http://www.inkscape.org/) -->

<svg
   xmlns:dc="http://purl.org/dc/elements/1.1/"
   xmlns:cc="http://creativecommons.org/ns#"
   xmlns:rdf="http://www.w3.org/1999/02/22-rdf-syntax-ns#"
   xmlns:svg="http://www.w3.org/2000/svg"
   xmlns="http://www.w3.org/2000/svg"
   xmlns:sodipodi="http://sodipodi.sourceforge.net/DTD/sodipodi-0.dtd"
   xmlns:inkscape="http://www.inkscape.org/namespaces/inkscape"
   version="1.1"
   id="svg12"
   width="59.999256mm"
   height="58.271278mm"
   viewBox="0 0 226.76884 220.2379"
   sodipodi:docname="esoterica-recycle.svg"
   inkscape:version="0.92.5 (2060ec1f9f, 2020-04-08)">
  <metadata
     id="metadata18">
    <rdf:RDF>
      <cc:Work
         rdf:about="">
        <dc:format>image/svg+xml</dc:format>
        <dc:type
           rdf:resource="http://purl.org/dc/dcmitype/StillImage" />
        <dc:title></dc:title>
      </cc:Work>
    </rdf:RDF>
  </metadata>
  <defs
     id="defs16" />
  <sodipodi:namedview
     pagecolor="#ffffff"
     bordercolor="#666666"
     borderopacity="1"
     objecttolerance="10"
     gridtolerance="10"
     guidetolerance="10"
     inkscape:pageopacity="0"
     inkscape:pageshadow="2"
     inkscape:window-width="1920"
     inkscape:window-height="997"
     id="namedview14"
     showgrid="false"
     units="mm"
     fit-margin-top="0"
     fit-margin-left="0"
     fit-margin-right="0"
     fit-margin-bottom="0"
     inkscape:zoom="0.88059701"
     inkscape:cx="113.4289"
     inkscape:cy="109.46078"
     inkscape:window-x="0"
     inkscape:window-y="28"
     inkscape:window-maximized="1"
     inkscape:current-layer="svg12" />
  <path
     style="fill:#000000;fill-opacity:0;stroke:#ff0000;stroke-width:0.56779659;stroke-miterlimit:4;stroke-dasharray:none;stroke-opacity:1"
     d="m 57.467109,89.144068 c -3.411517,-2.02987 -7.597345,-4.4158 -9.301839,-5.30206 -3.758446,-1.95423 -3.802814,-2.79882 -0.452239,-8.608958 1.440716,-2.498305 6.620524,-11.441101 11.510685,-19.872881 4.890161,-8.43178 11.953357,-20.696187 15.695989,-27.254237 8.324946,-14.58743 12.511346,-19.1246727 22.168576,-24.0264297 6.644959,-3.37280501 8.499179,-3.79560401 16.645869,-3.79560401 8.0178,0 10.09093,0.45505 16.52541,3.62731501 11.02193,5.433931 14.82256,9.9439697 26.72098,31.7086147 10.10927,18.491933 12.18782,22.07681 13.14239,22.666765 0.59275,0.366344 3.11872,-0.397742 5.61327,-1.697969 2.49453,-1.300227 4.75263,-2.364048 5.01797,-2.364048 0.26535,0 -0.27581,2.149186 -1.20261,4.775969 -0.92678,2.626782 -2.97205,9.612931 -4.54504,15.524776 -1.57299,5.911847 -3.08123,11.106787 -3.35163,11.544317 -0.50429,0.81595 -15.08443,-2.78831 -27.2243,-6.72994 l -6.81355,-2.21226 4.06497,-1.73328 c 5.67904,-2.421504 7.04651,-4.297456 5.14059,-7.052058 -0.83485,-1.206588 -5.94705,-10.114558 -11.36046,-19.79549 -5.41341,-9.680933 -11.13201,-18.751484 -12.708,-20.15678 -2.21948,-1.979085 -4.2449,-2.555085 -8.98456,-2.555085 -8.80792,0 -10.12418,1.41835 -22.756219,24.521339 -1.3979,2.556652 -3.87611,6.762387 -5.50712,9.346078 -1.63101,2.583691 -2.96548,5.012152 -2.96548,5.396579 0,0.384427 -0.94405,2.055388 -2.09789,3.713245 -1.153847,1.657856 -3.635909,5.824878 -5.515696,9.260052 -6.218878,11.36453 -8.493852,14.76271 -9.88318,14.76271 -0.75577,0 -4.16537,-1.66081 -7.576886,-3.69068 z"
     id="path1955"
     inkscape:connector-curvature="0" />
  <path
     style="fill:#000000;fill-opacity:0;stroke:#ff0000;stroke-width:0.56779659;stroke-miterlimit:4;stroke-dasharray:none;stroke-opacity:1"
     d="M 31.150542,207.43237 C 19.183151,204.61187 8.4422161,195.89663 3.2796531,184.8178 0.90715908,179.72644 0.35453308,176.78795 0.28974108,168.91949 c -0.09158,-11.12169 0.654545,-12.9177 17.40736792,-41.90151 7.567958,-13.09322 9.122604,-16.53434 7.803483,-17.27255 -3.3277,-1.86228 -7.10228,-5.3779 -6.463313,-6.0199 0.840694,-0.84468 25.710013,-6.594142 29.31716,-6.777742 2.509585,-0.12773 2.957416,0.74176 5.777558,11.217472 3.506526,13.02535 4.760744,19.87474 3.63822,19.86863 -0.429165,-0.002 -2.498737,-1.0519 -4.599049,-2.33238 -2.100313,-1.28047 -3.954805,-2.17284 -4.121093,-1.98304 -0.871279,0.99447 -8.526259,13.3671 -8.526259,13.78087 0,0.26705 -3.577118,6.66936 -7.949152,14.22735 -8.668902,14.98603 -9.465019,18.44658 -5.660066,24.60312 4.392271,7.10685 5.94287,7.35239 46.429144,7.35239 H 109.795 v 12.49153 12.49153 l -37.190675,-0.11408 c -20.454873,-0.0627 -39.109076,-0.5662 -41.453783,-1.11881 z"
     id="path1957"
     inkscape:connector-curvature="0" />
  <path
     style="fill:#000000;fill-opacity:0;stroke:#ff0000;stroke-width:0.56779659;stroke-miterlimit:4;stroke-dasharray:none;stroke-opacity:1"
     d="m 130.53623,207.5947 -11.62317,-11.98509 12.19097,-12.23807 12.19097,-12.23806 0.34057,6.27436 0.34057,6.27436 h 22.69167 c 16.76612,0 23.67482,-0.41078 26.45663,-1.5731 4.51839,-1.8879 8.65361,-8.12934 8.65361,-13.06121 0,-3.97349 -2.52979,-8.91227 -21.00847,-41.01369 -8.74683,-15.1951 -15.46783,-27.48986 -15.11682,-27.65326 0.19476,-0.0907 2.90919,-1.589202 6.03207,-3.330092 13.44935,-7.49752 15.55668,-8.31833 16.65529,-6.48729 0.56211,0.93687 3.89129,6.81356 7.39818,13.059322 3.50688,6.24577 11.39528,20.15652 17.52978,30.9128 8.91409,15.63004 11.42791,21.04541 12.51962,26.97033 1.85215,10.05204 -0.026,20.32098 -5.17182,28.27657 -5.05576,7.81642 -7.76763,10.11969 -17.13444,14.55275 l -7.94915,3.76213 -26.34635,0.37477 -26.34635,0.37477 -0.34009,5.36639 -0.34009,5.3664 z"
     id="path1959"
     inkscape:connector-curvature="0" />
</svg>
