<?xml version="1.0" encoding="UTF-8" standalone="no"?>
<!-- Created with Inkscape (http://www.inkscape.org/) -->

<svg
   xmlns:dc="http://purl.org/dc/elements/1.1/"
   xmlns:cc="http://creativecommons.org/ns#"
   xmlns:rdf="http://www.w3.org/1999/02/22-rdf-syntax-ns#"
   xmlns:svg="http://www.w3.org/2000/svg"
   xmlns="http://www.w3.org/2000/svg"
   xmlns:sodipodi="http://sodipodi.sourceforge.net/DTD/sodipodi-0.dtd"
   xmlns:inkscape="http://www.inkscape.org/namespaces/inkscape"
   version="1.1"
   id="svg2"
   width="28.093241mm"
   height="62.946167mm"
   viewBox="0 0 106.17918 237.90677"
   sodipodi:docname="esoterica-djed.svg"
   inkscape:version="0.92.5 (2060ec1f9f, 2020-04-08)">
  <metadata
     id="metadata8">
    <rdf:RDF>
      <cc:Work
         rdf:about="">
        <dc:format>image/svg+xml</dc:format>
        <dc:type
           rdf:resource="http://purl.org/dc/dcmitype/StillImage" />
        <dc:title></dc:title>
      </cc:Work>
    </rdf:RDF>
  </metadata>
  <defs
     id="defs6" />
  <sodipodi:namedview
     pagecolor="#ffffff"
     bordercolor="#666666"
     borderopacity="1"
     objecttolerance="10"
     gridtolerance="10"
     guidetolerance="10"
     inkscape:pageopacity="0"
     inkscape:pageshadow="2"
     inkscape:window-width="1920"
     inkscape:window-height="997"
     id="namedview4"
     showgrid="false"
     units="mm"
     fit-margin-top="0"
     fit-margin-left="0"
     fit-margin-right="0"
     fit-margin-bottom="0"
     inkscape:zoom="0.88059701"
     inkscape:cx="52.748305"
     inkscape:cy="118.61271"
     inkscape:window-x="0"
     inkscape:window-y="28"
     inkscape:window-maximized="1"
     inkscape:current-layer="svg2" />
  <path
     style="fill:#000000;fill-opacity:0;stroke:#ff0000;stroke-width:0.56779659;stroke-miterlimit:4;stroke-dasharray:none;stroke-opacity:1"
     d="m 0.28389829,225.38587 v -12.23702 l 4.82627101,-2.2418 c 7.9721107,-3.70303 8.7970127,-6.60131 8.7990827,-30.91552 l 0.0018,-20.72458 H 7.0974933 0.28393329 V 146.77543 134.2839 H 7.1493783 14.014822 l -0.335783,-7.66525 -0.335784,-7.66526 -6.5296607,-0.34056 -6.52966101,-0.34058 V 105.8374 93.402537 H 7.0974933 13.911052 V 86.021187 78.63983 H 7.0974933 0.28393329 V 66.148304 53.656779 H 7.0974933 13.911052 V 46.275423 38.894067 H 7.0974933 0.28393329 V 26.402542 13.911016 H 7.0974933 13.911052 V 7.0974573 0.28389829 h 39.177963 39.17796 V 7.0974573 13.911016 h 6.81356 6.813565 v 12.491526 12.491525 h -6.813565 -6.81356 v 7.381356 7.381356 h 6.81356 6.813565 V 66.148304 78.63983 h -6.813565 -6.81356 v 7.381357 7.38135 h 6.81356 6.813565 v 12.434863 12.43485 l -6.529665,0.34058 -6.52966,0.34056 -0.33578,7.66526 -0.33579,7.66525 h 6.86545 6.865445 v 12.49153 12.49152 h -6.813565 -6.81356 l 0.002,20.72458 c 0.002,24.25868 0.82934,27.18173 8.757935,30.94491 l 4.78512,2.27119 0.0412,12.20763 0.0411,12.20762 H 53.088985 0.28389829 Z M 68.992605,209.51695 c -0.45499,-1.71758 -1.07023,-13.72648 -1.36721,-26.68644 l -0.53997,-23.56356 h -13.99969 -13.99968 l -0.43871,24.69915 c -0.24129,13.58454 -0.85017,25.59344 -1.35308,26.68644 -0.84848,1.84408 0.29054,1.98729 15.80561,1.98729 h 16.71998 z m -1.94072,-82.8983 -0.33578,-7.66526 h -13.62712 -13.62712 l -0.33578,7.66526 -0.33579,7.66525 h 14.29869 14.29868 z m 0.23201,-40.597463 V 78.63983 h -14.19491 -14.19492 v 7.381357 7.38135 h 14.19492 14.19491 z m 0,-39.745764 v -7.381356 h -14.19491 -14.19492 v 7.381356 7.381356 h 14.19492 14.19491 z"
     id="path5409"
     inkscape:connector-curvature="0" />
</svg>
