<?xml version="1.0" encoding="UTF-8" standalone="no"?>
<!-- Created with Inkscape (http://www.inkscape.org/) -->

<svg
   xmlns:dc="http://purl.org/dc/elements/1.1/"
   xmlns:cc="http://creativecommons.org/ns#"
   xmlns:rdf="http://www.w3.org/1999/02/22-rdf-syntax-ns#"
   xmlns:svg="http://www.w3.org/2000/svg"
   xmlns="http://www.w3.org/2000/svg"
   xmlns:sodipodi="http://sodipodi.sourceforge.net/DTD/sodipodi-0.dtd"
   xmlns:inkscape="http://www.inkscape.org/namespaces/inkscape"
   version="1.1"
   id="svg42"
   width="39.054935mm"
   height="61.744331mm"
   viewBox="0 0 147.60921 233.3644"
   sodipodi:docname="hermetica-draco.svg"
   inkscape:version="0.92.5 (2060ec1f9f, 2020-04-08)">
  <metadata
     id="metadata48">
    <rdf:RDF>
      <cc:Work
         rdf:about="">
        <dc:format>image/svg+xml</dc:format>
        <dc:type
           rdf:resource="http://purl.org/dc/dcmitype/StillImage" />
        <dc:title></dc:title>
      </cc:Work>
    </rdf:RDF>
  </metadata>
  <defs
     id="defs46" />
  <sodipodi:namedview
     pagecolor="#ffffff"
     bordercolor="#666666"
     borderopacity="1"
     objecttolerance="10"
     gridtolerance="10"
     guidetolerance="10"
     inkscape:pageopacity="0"
     inkscape:pageshadow="2"
     inkscape:window-width="1920"
     inkscape:window-height="997"
     id="namedview44"
     showgrid="false"
     units="mm"
     fit-margin-top="0"
     fit-margin-left="0"
     fit-margin-right="0"
     fit-margin-bottom="0"
     inkscape:zoom="0.88059701"
     inkscape:cx="328.69746"
     inkscape:cy="102.71441"
     inkscape:window-x="0"
     inkscape:window-y="28"
     inkscape:window-maximized="1"
     inkscape:current-layer="svg42" />
  <path
     style="fill:#ff0000;fill-opacity:0.01829266;stroke:#ff0000;stroke-width:0.56779659;stroke-miterlimit:4;stroke-dasharray:none;stroke-opacity:1"
     d="M 0.28389829,220.58898 V 208.09746 H 16.749998 c 9.05636,0 16.46265,-0.38327 16.45842,-0.8517 -0.004,-0.46843 -4.85888,-5.66309 -10.78813,-11.54369 -5.92925,-5.8806 -10.78046,-11.00356 -10.78046,-11.38436 0,-0.38079 3.83645,-4.50319 8.52544,-9.16088 l 8.52544,-8.46854 20.93926,20.91631 20.93927,20.91632 7.08203,-1.31704 c 10.72881,-1.99524 18.662129,-6.51304 28.298362,-16.11513 7.14753,-7.12222 9.20343,-10.05226 12.36814,-17.62689 3.13163,-7.4955 3.88981,-10.97196 4.33407,-19.87288 0.47365,-9.49013 0.18119,-11.84957 -2.43074,-19.61002 -1.63304,-4.85204 -4.33419,-10.98425 -6.00255,-13.62712 -5.11026,-8.09526 -15.004773,-16.7516 -23.864462,-20.87812 -13.92552,-6.486009 -12.84985,-8.734569 -12.84985,26.86102 v 30.66102 l -18.45339,-0.0135 c -19.84075,-0.0145 -25.85946,-1.02584 -35.48729,-5.96322 C 9.0395383,143.57079 -1.2391517,123.93882 0.80772829,107.55614 2.4692983,94.257321 13.973258,77.974877 25.007088,73.30489 c 7.10933,-3.008972 15.2879,-4.857748 21.55224,-4.87191 l 5.96186,-0.01348 V 46.84322 25.266949 H 26.402538 0.28389829 V 12.775423 0.28389829 H 65.012718 129.74153 V 12.754104 25.224308 l -25.83475,0.305219 -25.834742,0.305218 -0.30797,21.731946 -0.30797,21.731945 8.25712,1.994553 c 28.444132,6.870837 52.309042,30.773751 59.489212,59.583931 3.02028,12.11876 2.79299,29.41193 -0.55223,42.01695 -7.34659,27.68244 -28.39064,48.89683 -57.329142,57.79319 -7.28469,2.23948 -10.33087,2.39325 -47.41101,2.39325 H 0.28389829 Z M 52.265358,112.28965 l 0.31196,-19.155269 -7.16297,0.45611 c -12.03572,0.76637 -19.01181,7.815399 -19.01181,19.210609 0,11.62125 8.70309,19.43287 21.00848,18.85656 l 4.54237,-0.21275 z"
     id="path5325"
     inkscape:connector-curvature="0" />
</svg>
