<?xml version="1.0" encoding="UTF-8" standalone="no"?>
<!-- Created with Inkscape (http://www.inkscape.org/) -->

<svg
   xmlns:dc="http://purl.org/dc/elements/1.1/"
   xmlns:cc="http://creativecommons.org/ns#"
   xmlns:rdf="http://www.w3.org/1999/02/22-rdf-syntax-ns#"
   xmlns:svg="http://www.w3.org/2000/svg"
   xmlns="http://www.w3.org/2000/svg"
   xmlns:sodipodi="http://sodipodi.sourceforge.net/DTD/sodipodi-0.dtd"
   xmlns:inkscape="http://www.inkscape.org/namespaces/inkscape"
   version="1.1"
   id="svg42"
   width="38.631428mm"
   height="62.678013mm"
   viewBox="0 0 146.00855 236.89328"
   sodipodi:docname="hermetica-zeus.svg"
   inkscape:version="0.92.5 (2060ec1f9f, 2020-04-08)">
  <metadata
     id="metadata48">
    <rdf:RDF>
      <cc:Work
         rdf:about="">
        <dc:format>image/svg+xml</dc:format>
        <dc:type
           rdf:resource="http://purl.org/dc/dcmitype/StillImage" />
        <dc:title></dc:title>
      </cc:Work>
    </rdf:RDF>
  </metadata>
  <defs
     id="defs46" />
  <sodipodi:namedview
     pagecolor="#ffffff"
     bordercolor="#666666"
     borderopacity="1"
     objecttolerance="10"
     gridtolerance="10"
     guidetolerance="10"
     inkscape:pageopacity="0"
     inkscape:pageshadow="2"
     inkscape:window-width="1920"
     inkscape:window-height="997"
     id="namedview44"
     showgrid="false"
     units="mm"
     fit-margin-top="0"
     fit-margin-left="0"
     fit-margin-right="0"
     fit-margin-bottom="0"
     inkscape:zoom="0.88059701"
     inkscape:cx="325.94612"
     inkscape:cy="100.44322"
     inkscape:window-x="0"
     inkscape:window-y="28"
     inkscape:window-maximized="1"
     inkscape:current-layer="svg42" />
  <path
     style="fill:#ffff00;fill-opacity:0.01829266;stroke:#ff0000;stroke-width:0.56779659;stroke-miterlimit:4;stroke-dasharray:none;stroke-opacity:1"
     d="m 60.330866,209.84641 v -26.76297 l -2.55509,0.78928 c -2.19906,0.6793 -5.43191,2.45357 -13.34322,7.32312 -0.93686,0.57666 -6.55805,3.80513 -12.49152,7.17439 -5.93348,3.36924 -12.59443,7.20474 -14.80213,8.52333 l -4.01399,2.39742 -3.8340903,-7.06538 c -2.10875,-3.88596 -4.77385,-8.42181 -5.92245,-10.07966 -1.1486,-1.65786 -2.08836,-3.53999 -2.08836,-4.18252 0,-0.64253 3.19386,-2.89868 7.09746,-5.01367 18.5201803,-10.03431 38.3051603,-21.98548 38.3151603,-23.14437 0.006,-0.70787 -0.88317,-1.59673 -1.97618,-1.97522 -1.09301,-0.37849 -6.33093,-3.29177 -11.63983,-6.47394 -5.3089,-3.18217 -12.46314,-7.34341 -15.8983,-9.24719 -3.43517,-1.90379 -6.83159,-3.92341 -7.5476003,-4.48805 -0.71601,-0.56464 -3.08581,-1.90226 -5.26623,-2.9725 l -3.96439004,-1.94589 6.40182004,-10.86746 6.4018203,-10.86746 3.97458,2.22342 c 5.63616,3.15293 16.89743,9.66839 30.07563,17.40091 6.23608,3.65913 11.72952,6.82331 12.20762,7.03149 0.47811,0.2082 0.86929,-19.33819 0.86929,-43.43643 0,-24.098237 -0.37808,-43.814975 -0.84018,-43.814975 -0.4621,0 -9.91651,9.065828 -21.00981,20.146285 L 18.311236,90.66465 9.5174057,81.870823 0.72357566,73.076992 37.061306,36.739262 73.399036,0.40152958 109.50401,36.519723 l 36.10497,36.118193 -8.85516,9.023864 -8.85516,9.02386 -20.10297,-20.257049 C 96.739056,59.287212 87.157486,50.502329 86.503316,50.906627 c -1.38542,0.856234 -1.71649,85.317433 -0.33771,86.152083 0.46844,0.28355 8.00594,-3.59329 16.750004,-8.61524 8.74407,-5.02194 19.21992,-11.04084 23.27966,-13.37531 l 7.38136,-4.2445 3.60256,6.3971 c 1.9814,3.51839 4.68357,8.33092 6.00481,10.69451 2.31217,4.13627 2.28549,6.49071 -0.0736,6.49071 -0.61616,0 -6.33494,3.13686 -12.70841,6.9708 -6.37347,3.83393 -14.14321,8.37045 -17.26609,10.08116 -10.91479,5.97907 -13.04502,7.37188 -13.05215,8.53396 -0.006,1.05005 19.28217,12.59711 38.39582,22.98554 4.06955,2.21184 6.94875,4.48666 6.65327,5.25667 -0.2865,0.7466 -3.05921,5.78429 -6.16158,11.19487 l -5.64068,9.83741 -6.12276,-3.90114 c -3.36753,-2.14562 -6.49611,-3.91422 -6.95241,-3.9302 -0.45631,-0.016 -3.65148,-1.83417 -7.10038,-4.0404 -3.44889,-2.20623 -7.16369,-4.34698 -8.2551,-4.75723 -1.0914,-0.41024 -4.60177,-2.4116 -7.800804,-4.44748 -3.19904,-2.03587 -7.15942,-4.03865 -8.80085,-4.45062 l -2.98437,-0.74905 v 26.80955 26.80955 h -12.49153 -12.49152 z"
     id="path5285"
     inkscape:connector-curvature="0" />
</svg>
