<?xml version="1.0" encoding="UTF-8" standalone="no"?>
<!-- Created with Inkscape (http://www.inkscape.org/) -->

<svg
   xmlns:dc="http://purl.org/dc/elements/1.1/"
   xmlns:cc="http://creativecommons.org/ns#"
   xmlns:rdf="http://www.w3.org/1999/02/22-rdf-syntax-ns#"
   xmlns:svg="http://www.w3.org/2000/svg"
   xmlns="http://www.w3.org/2000/svg"
   xmlns:sodipodi="http://sodipodi.sourceforge.net/DTD/sodipodi-0.dtd"
   xmlns:inkscape="http://www.inkscape.org/namespaces/inkscape"
   version="1.1"
   id="svg12"
   width="61.643509mm"
   height="61.531029mm"
   viewBox="0 0 232.98334 232.55822"
   sodipodi:docname="esoterica-nihilism.svg"
   inkscape:version="0.92.5 (2060ec1f9f, 2020-04-08)">
  <metadata
     id="metadata18">
    <rdf:RDF>
      <cc:Work
         rdf:about="">
        <dc:format>image/svg+xml</dc:format>
        <dc:type
           rdf:resource="http://purl.org/dc/dcmitype/StillImage" />
        <dc:title></dc:title>
      </cc:Work>
    </rdf:RDF>
  </metadata>
  <defs
     id="defs16" />
  <sodipodi:namedview
     pagecolor="#ffffff"
     bordercolor="#666666"
     borderopacity="1"
     objecttolerance="10"
     gridtolerance="10"
     guidetolerance="10"
     inkscape:pageopacity="0"
     inkscape:pageshadow="2"
     inkscape:window-width="1920"
     inkscape:window-height="997"
     id="namedview14"
     showgrid="false"
     units="mm"
     fit-margin-top="0"
     fit-margin-left="0"
     fit-margin-right="0"
     fit-margin-bottom="0"
     inkscape:zoom="0.88059701"
     inkscape:cx="116.4261"
     inkscape:cy="116.21447"
     inkscape:window-x="0"
     inkscape:window-y="28"
     inkscape:window-maximized="1"
     inkscape:current-layer="svg12" />
  <path
     style="fill:#000000;fill-opacity:0;stroke:#ff0000;stroke-width:0.56779659;stroke-miterlimit:4;stroke-dasharray:none;stroke-opacity:1"
     d="M 94.054912,231.12999 C 46.69021,220.25177 13.151799,187.12782 2.1217764,140.33293 -0.51618562,129.14137 -0.24803562,101.74413 2.6081314,90.641428 5.8513694,78.034077 9.1146874,69.311956 13.72564,60.926799 29.776104,31.738554 55.957699,11.492979 88.376952,3.2008018 97.976712,0.74537978 102.27933,0.29429678 116.19898,0.28395978 c 19.61138,-0.01456 32.1524,2.54503802 48.26271,9.85033922 14.11721,6.401516 22.1383,12.052219 34.12997,24.043889 11.99167,11.991669 17.64238,20.012765 24.04388,34.129967 13.3365,29.410843 13.42046,66.656065 0.21554,95.610945 -13.07624,28.67273 -36.87062,51.12394 -64.99125,61.32259 -16.86149,6.11524 -22.86181,7.1272 -41.66085,7.02615 -9.68093,-0.052 -19.645758,-0.56407 -22.144068,-1.13785 z m 48.262718,-26.60015 c 11.67697,-3.5695 33.95122,-16.35832 34.03183,-19.53948 0.0283,-1.1182 -12.7392,-1.41949 -60.15048,-1.41949 -37.232031,0 -60.186437,0.41122 -60.186437,1.07821 0,1.75985 13.608877,10.92393 21.748407,14.64516 7.610462,3.47933 16.814812,6.43102 23.10752,7.41022 7.55192,1.17512 35.24377,-0.27772 41.44916,-2.17462 z M 71.346023,143.82213 98.585492,116.56492 71.043756,89.029758 43.502027,61.494595 l -2.773415,3.40678 c -3.61065,4.435214 -10.223804,18.092823 -12.777347,26.388023 -2.604442,8.46054 -2.88869,39.827282 -0.440066,48.561132 2.86347,10.21353 13.53179,31.22881 15.853173,31.22881 0.408203,0 12.999946,-12.26574 27.981651,-27.25721 z m 121.335287,23.56654 c 1.07461,-2.02988 3.19898,-5.73475 4.72082,-8.23306 3.42194,-5.61757 7.97756,-19.47571 9.75207,-29.66565 2.04385,-11.73667 0.75058,-27.39624 -3.29698,-39.921562 -3.50484,-10.845822 -12.17971,-27.506006 -14.32222,-27.506006 -1.7434,0 -54.03093,52.502828 -54.03093,54.253388 0,1.68999 52.19008,54.50417 54.01425,54.66017 0.66504,0.0569 2.08839,-1.55741 3.16299,-3.58728 z m -64.27394,-20.99451 -12.19366,-12.19366 -11.3633,11.32066 c -6.249808,6.22636 -11.363288,11.71351 -11.363288,12.19366 0,0.48015 10.600628,0.873 23.556958,0.873 h 23.55695 z m 0.62543,-60.257962 c 6.0983,-6.121263 10.73044,-11.486941 10.29366,-11.923724 -1.32508,-1.325086 -45.839338,-0.953333 -45.839338,0.382821 0,1.835657 20.797388,22.503883 22.733168,22.591993 0.94858,0.0432 6.71421,-4.92982 12.81251,-11.05109 z m 47.35262,-38.644012 c 0,-1.134698 -7.45332,-6.574247 -15.52583,-11.330989 -3.23031,-1.903465 -10.89556,-5.134456 -17.0339,-7.179979 -10.54783,-3.514931 -12.06469,-3.719616 -27.62671,-3.727946 -15.49876,-0.0083 -17.076808,0.200378 -26.861608,3.552053 -11.095298,3.800573 -14.854049,5.529302 -21.653661,9.958979 -7.868976,5.126323 -11.608351,7.959557 -11.639907,8.819275 -0.01719,0.468432 27.052638,0.851694 60.155176,0.851694 33.10254,0 60.18644,-0.424389 60.18644,-0.943087 z"
     id="path4844"
     inkscape:connector-curvature="0" />
</svg>
