<?xml version="1.0" encoding="UTF-8" standalone="no"?>
<!-- Created with Inkscape (http://www.inkscape.org/) -->

<svg
   xmlns:dc="http://purl.org/dc/elements/1.1/"
   xmlns:cc="http://creativecommons.org/ns#"
   xmlns:rdf="http://www.w3.org/1999/02/22-rdf-syntax-ns#"
   xmlns:svg="http://www.w3.org/2000/svg"
   xmlns="http://www.w3.org/2000/svg"
   xmlns:sodipodi="http://sodipodi.sourceforge.net/DTD/sodipodi-0.dtd"
   xmlns:inkscape="http://www.inkscape.org/namespaces/inkscape"
   version="1.1"
   id="svg82"
   width="46.668739mm"
   height="61.844631mm"
   viewBox="0 0 176.38579 233.74349"
   sodipodi:docname="esoterica-hundun.svg"
   inkscape:version="0.92.5 (2060ec1f9f, 2020-04-08)">
  <metadata
     id="metadata88">
    <rdf:RDF>
      <cc:Work
         rdf:about="">
        <dc:format>image/svg+xml</dc:format>
        <dc:type
           rdf:resource="http://purl.org/dc/dcmitype/StillImage" />
        <dc:title></dc:title>
      </cc:Work>
    </rdf:RDF>
  </metadata>
  <defs
     id="defs86" />
  <sodipodi:namedview
     pagecolor="#ffffff"
     bordercolor="#666666"
     borderopacity="1"
     objecttolerance="10"
     gridtolerance="10"
     guidetolerance="10"
     inkscape:pageopacity="0"
     inkscape:pageshadow="2"
     inkscape:window-width="1920"
     inkscape:window-height="997"
     id="namedview84"
     showgrid="false"
     units="mm"
     fit-margin-top="0"
     fit-margin-left="0"
     fit-margin-right="0"
     fit-margin-bottom="0"
     inkscape:zoom="0.88059701"
     inkscape:cx="88.324826"
     inkscape:cy="116.88172"
     inkscape:window-x="0"
     inkscape:window-y="28"
     inkscape:window-maximized="1"
     inkscape:current-layer="svg82" />
  <path
     style="fill:#000000;fill-opacity:0;stroke:#ff0000;stroke-width:0.56779659;stroke-miterlimit:4;stroke-dasharray:none;stroke-opacity:1"
     d="M 73.334996,232.94226 C 56.273416,231.1133 34.323158,220.76512 20.928205,208.23571 2.8941652,191.36698 -4.2589998,164.51639 3.2159362,141.7498 8.6408852,125.2269 19.034169,112.6658 36.363942,101.68781 l 8.475966,-5.369324 -3.960426,-4.62686 C 38.701248,89.146846 35.531074,84.238616 33.834653,80.784452 31.13635,75.290306 30.75025,73.153709 30.75025,63.716013 c 0,-9.734643 0.33255,-11.444472 3.405441,-17.509252 C 38.492681,37.647098 45.575272,29.768483 53.17538,25.049416 70.414966,14.344998 73.830986,11.816124 76.500906,7.7816138 c 6.66772,-10.075604 17.03378,-9.985344 23.46624,0.204326 1.818194,2.8802092 5.822064,6.2504592 11.633654,9.7926102 20.0252,12.205324 24.98303,16.756764 30.24737,27.767972 3.13095,6.548906 3.53152,8.533978 3.55181,17.601695 0.0268,11.986915 -2.90805,20.885649 -9.17674,27.824339 -3.72791,4.12636 -4.85494,6.81125 -2.85915,6.81125 2.7908,0 18.95111,12.247914 24.99285,18.942104 14.0492,15.56633 19.7825,33.50629 17.10706,53.52923 -1.21524,9.09471 -7.41259,24.0771 -12.29847,29.73206 -12.3579,14.30319 -24.1847,22.21758 -42.5389,28.46662 -10.94055,3.72493 -14.42619,4.38304 -25.715364,4.85522 -7.18263,0.30041 -16.89195,0.13536 -21.57627,-0.36678 z m 29.415344,-25.61117 c 14.58472,-2.36531 25.45699,-7.78529 35.41559,-17.65519 9.3967,-9.313 12.80986,-17.00446 12.80986,-28.86666 0,-11.48141 -3.40308,-19.39917 -12.18637,-28.35335 -7.18861,-7.32847 -18.28154,-13.89111 -27.82337,-16.46045 -2.68474,-0.72292 -6.71863,-2.99816 -8.96421,-5.05607 -3.652924,-3.34766 -4.126634,-4.44657 -4.498564,-10.4359 -0.53716,-8.649834 0.85988,-11.134604 9.745094,-17.332604 9.51297,-6.635895 13.78154,-12.556048 13.78154,-19.113832 0,-8.451183 -4.833,-14.66739 -16.70487,-21.485786 -2.99156,-1.718148 -7.575334,-4.562183 -10.186174,-6.320078 -5.75893,-3.877525 -6.36965,-3.906428 -10.9432,-0.517891 -1.9882,1.473057 -6.33689,4.130658 -9.66375,5.905782 -22.540666,12.0271 -24.127902,29.29884 -3.84644,41.855695 6.29089,3.89488 9.319,8.90696 9.319,15.42465 0,8.845404 -4.75871,14.365774 -15.05479,17.464444 -7.95586,2.39437 -19.727392,9.39423 -25.739762,15.30598 -3.006493,2.95618 -7.069526,8.75322 -9.249661,13.19722 -3.308558,6.74419 -3.887979,9.11705 -3.887979,15.92219 0,25.64491 27.966758,47.39917 61.889832,48.14172 2.81059,0.0616 9.91529,-0.66742 15.788224,-1.61987 z"
     id="path5241"
     inkscape:connector-curvature="0" />
</svg>
