<?xml version="1.0" encoding="UTF-8" standalone="no"?>
<!-- Created with Inkscape (http://www.inkscape.org/) -->

<svg
   xmlns:dc="http://purl.org/dc/elements/1.1/"
   xmlns:cc="http://creativecommons.org/ns#"
   xmlns:rdf="http://www.w3.org/1999/02/22-rdf-syntax-ns#"
   xmlns:svg="http://www.w3.org/2000/svg"
   xmlns="http://www.w3.org/2000/svg"
   xmlns:sodipodi="http://sodipodi.sourceforge.net/DTD/sodipodi-0.dtd"
   xmlns:inkscape="http://www.inkscape.org/namespaces/inkscape"
   version="1.1"
   id="svg72"
   width="54.986168mm"
   height="61.744335mm"
   viewBox="0 0 207.82174 233.36442"
   sodipodi:docname="esoterica-torah.svg"
   inkscape:version="0.92.5 (2060ec1f9f, 2020-04-08)">
  <metadata
     id="metadata78">
    <rdf:RDF>
      <cc:Work
         rdf:about="">
        <dc:format>image/svg+xml</dc:format>
        <dc:type
           rdf:resource="http://purl.org/dc/dcmitype/StillImage" />
        <dc:title></dc:title>
      </cc:Work>
    </rdf:RDF>
  </metadata>
  <defs
     id="defs76" />
  <sodipodi:namedview
     pagecolor="#ffffff"
     bordercolor="#666666"
     borderopacity="1"
     objecttolerance="10"
     gridtolerance="10"
     guidetolerance="10"
     inkscape:pageopacity="0"
     inkscape:pageshadow="2"
     inkscape:window-width="1920"
     inkscape:window-height="997"
     id="namedview74"
     showgrid="false"
     units="mm"
     fit-margin-top="0"
     fit-margin-left="0"
     fit-margin-right="0"
     fit-margin-bottom="0"
     inkscape:zoom="0.88059701"
     inkscape:cx="104.42597"
     inkscape:cy="116.34153"
     inkscape:window-x="0"
     inkscape:window-y="28"
     inkscape:window-maximized="1"
     inkscape:current-layer="svg72" />
  <path
     style="fill:#000000;fill-opacity:0;stroke:#ff0000;stroke-width:0.56779659;stroke-miterlimit:4;stroke-dasharray:none;stroke-opacity:1"
     d="m 26.978515,223.42796 v -9.65254 l -13.34322,0.002 -13.34322,0.002 0.354741,-12.49375 0.354741,-12.49384 h 12.988479 12.988479 v -10.22034 -10.22034 h 3.40678 3.40678 V 117.25 66.148305 h -3.40678 -3.40678 V 55.927966 45.707627 l -13.34322,0.0023 -13.34322,0.0023 0.354741,-12.493753 0.354741,-12.49384 H 13.990036 26.978515 V 10.504237 0.28389829 h 77.220335 77.22034 V 10.504237 20.724576 h 13.05932 13.05932 v 12.491525 12.491526 h -13.05932 -13.05932 v 10.220339 10.220339 h -3.40678 -3.40678 V 117.25 168.35169 h 3.40678 3.40678 v 10.22034 10.22034 h 13.05932 13.05932 v 12.49153 12.49152 h -13.05932 -13.05932 v 9.65254 9.65255 H 104.19885 26.978515 Z M 156.43614,202.51237 c 0,-10.0488 5.02394,-9.17763 -52.92658,-9.17763 H 51.961566 v 7.38136 7.38136 h 52.237284 52.23729 z M 149.62258,117.25 V 66.148305 H 104.19885 58.775126 V 117.25 168.35169 h 45.423724 45.42373 z m 6.24576,-84.601695 v -6.81356 L 103.91495,25.539391 51.961566,25.244038 v 7.404267 7.404266 l 51.953384,-0.295353 51.95339,-0.295354 z"
     id="path5262"
     inkscape:connector-curvature="0" />
</svg>
