<?xml version="1.0" encoding="UTF-8" standalone="no"?>
<!-- Created with Inkscape (http://www.inkscape.org/) -->

<svg
   xmlns:dc="http://purl.org/dc/elements/1.1/"
   xmlns:cc="http://creativecommons.org/ns#"
   xmlns:rdf="http://www.w3.org/1999/02/22-rdf-syntax-ns#"
   xmlns:svg="http://www.w3.org/2000/svg"
   xmlns="http://www.w3.org/2000/svg"
   xmlns:sodipodi="http://sodipodi.sourceforge.net/DTD/sodipodi-0.dtd"
   xmlns:inkscape="http://www.inkscape.org/namespaces/inkscape"
   version="1.1"
   id="svg52"
   width="42.490173mm"
   height="60.813412mm"
   viewBox="0 0 160.59278 229.84597"
   sodipodi:docname="hermetica-philosophers_sulfur.svg"
   inkscape:version="0.92.5 (2060ec1f9f, 2020-04-08)">
  <metadata
     id="metadata58">
    <rdf:RDF>
      <cc:Work
         rdf:about="">
        <dc:format>image/svg+xml</dc:format>
        <dc:type
           rdf:resource="http://purl.org/dc/dcmitype/StillImage" />
        <dc:title></dc:title>
      </cc:Work>
    </rdf:RDF>
  </metadata>
  <defs
     id="defs56" />
  <sodipodi:namedview
     pagecolor="#ffffff"
     bordercolor="#666666"
     borderopacity="1"
     objecttolerance="10"
     gridtolerance="10"
     guidetolerance="10"
     inkscape:pageopacity="0"
     inkscape:pageshadow="2"
     inkscape:window-width="1920"
     inkscape:window-height="997"
     id="namedview54"
     showgrid="false"
     units="mm"
     fit-margin-top="0"
     fit-margin-left="0"
     fit-margin-right="0"
     fit-margin-bottom="0"
     inkscape:zoom="0.88059701"
     inkscape:cx="79.779636"
     inkscape:cy="116.34153"
     inkscape:window-x="0"
     inkscape:window-y="28"
     inkscape:window-maximized="1"
     inkscape:current-layer="svg52" />
  <path
     style="fill:#ff0000;fill-opacity:0.01829266;stroke:#ff0000;stroke-width:0.56779659;stroke-miterlimit:4;stroke-dasharray:none;stroke-opacity:1"
     d="m 5.7389578,229.15722 c 0,-0.3615 2.972467,-5.56374 15.3412672,-26.8494 11.44167,-19.69015 21.873838,-37.75426 25.248841,-43.72034 2.11994,-3.74746 5.6078,-9.8064 7.7508,-13.46432 2.14301,-3.65792 3.89638,-6.84314 3.89638,-7.07829 0,-0.23513 -12.934558,-0.5639 -28.743462,-0.73059 L 0.48932085,137.01121 9.3609498,121.6807 c 4.8793962,-8.43178 10.4322652,-18.1411 12.3397112,-21.57627 1.907445,-3.435167 5.402454,-9.567367 7.766688,-13.627117 2.364232,-4.05974 8.28813,-14.280083 13.164218,-22.711863 4.876089,-8.43178 10.503639,-18.141102 12.505679,-21.576271 2.00203,-3.43517 7.87754,-13.655509 13.05668,-22.711865 13.25784,-23.1829308 11.64097,-21.6740288 15.59397,-14.5526328 1.84268,3.319626 5.29768,9.3572938 7.67776,13.4170398 2.38008,4.059746 6.21443,10.702966 8.52078,14.762712 2.306354,4.059746 8.172074,14.280085 13.034934,22.711864 4.86286,8.43178 10.13167,17.630085 11.70847,20.440678 1.57678,2.810594 4.06584,6.889598 5.53122,9.064458 1.46539,2.17486 2.66434,4.39555 2.66434,4.93487 0,0.53932 0.94898,2.33701 2.10886,3.99486 1.15986,1.65786 3.40287,5.31386 4.98446,8.124457 1.58158,2.81059 5.57194,9.70932 8.86747,15.3305 3.29551,5.62119 7.17033,12.39217 8.61069,15.04662 l 2.61886,4.82627 h -28.92567 c -15.90913,0 -28.91432,0.38326 -28.90043,0.85169 0.0139,0.46843 1.02456,2.12924 2.24593,3.69068 1.22138,1.56144 2.23205,3.29478 2.24594,3.85186 0.0139,0.55708 2.06932,4.24943 4.56762,8.20522 2.49831,3.95578 4.54237,7.48491 4.54237,7.84252 0,0.3576 1.78856,3.44614 3.97458,6.86344 2.18602,3.41729 3.97458,6.47138 3.97458,6.78685 0,0.31546 2.04406,3.81013 4.54237,7.76591 2.4983,3.95579 4.54237,7.54493 4.54237,7.97587 0,0.43094 1.78856,3.57949 3.97458,6.99679 2.18602,3.41729 3.97458,6.50958 3.97458,6.87175 0,0.64082 5.63223,10.31799 10.97797,18.86205 1.45702,2.32877 2.64914,4.51586 2.64914,4.8602 0,0.34434 -6.49451,0.48305 -14.43224,0.30825 l -14.43225,-0.31783 -3.55225,-6.24576 c -1.95373,-3.43517 -7.57179,-13.14449 -12.48455,-21.57627 -4.91277,-8.43178 -10.233944,-17.75354 -11.824834,-20.71503 -5.25657,-9.78526 -5.7315,-8.02168 -5.7315,21.28282 v 26.68644 l -12.20763,9.4e-4 -12.20763,9.3e-4 0.32391,-26.68738 c 0.19356,-15.94759 -0.10155,-26.68737 -0.73331,-26.68737 -1.27806,0 -4.73987,5.48807 -17.54982,27.82204 -5.37352,9.36864 -11.055869,19.20572 -12.627448,21.86017 l -2.857416,4.82627 H 19.96183 c -7.82258,0 -14.2228722,-0.18219 -14.2228722,-0.40484 z M 114.62051,108.90528 c -0.74299,-1.4053 -4.1619,-7.40975 -7.59758,-13.343217 -3.43567,-5.93348 -9.906494,-17.178894 -14.379594,-24.989817 -4.47311,-7.810923 -9.08275,-15.651312 -10.24366,-17.423087 l -2.11075,-3.221408 -2.02042,2.660375 c -1.11122,1.463206 -2.68221,3.925162 -3.49108,5.471013 -0.80887,1.545852 -3.82309,6.91153 -6.69828,11.923729 -15.52969,27.072315 -21.72347,37.611852 -22.6734,38.581732 -0.58114,0.59335 -1.056618,1.48763 -1.056618,1.98729 0,0.49966 16.115018,0.90847 35.811138,0.90847 h 35.811154 z"
     id="path5308"
     inkscape:connector-curvature="0" />
</svg>
