<?xml version="1.0" encoding="UTF-8" standalone="no"?>
<!-- Created with Inkscape (http://www.inkscape.org/) -->

<svg
   xmlns:dc="http://purl.org/dc/elements/1.1/"
   xmlns:cc="http://creativecommons.org/ns#"
   xmlns:rdf="http://www.w3.org/1999/02/22-rdf-syntax-ns#"
   xmlns:svg="http://www.w3.org/2000/svg"
   xmlns="http://www.w3.org/2000/svg"
   xmlns:sodipodi="http://sodipodi.sourceforge.net/DTD/sodipodi-0.dtd"
   xmlns:inkscape="http://www.inkscape.org/namespaces/inkscape"
   version="1.1"
   id="svg82"
   width="37.761585mm"
   height="59.958057mm"
   viewBox="0 0 142.72095 226.61313"
   sodipodi:docname="esoterica-food_for_work.svg"
   inkscape:version="0.92.5 (2060ec1f9f, 2020-04-08)">
  <metadata
     id="metadata88">
    <rdf:RDF>
      <cc:Work
         rdf:about="">
        <dc:format>image/svg+xml</dc:format>
        <dc:type
           rdf:resource="http://purl.org/dc/dcmitype/StillImage" />
        <dc:title></dc:title>
      </cc:Work>
    </rdf:RDF>
  </metadata>
  <defs
     id="defs86" />
  <sodipodi:namedview
     pagecolor="#ffffff"
     bordercolor="#666666"
     borderopacity="1"
     objecttolerance="10"
     gridtolerance="10"
     guidetolerance="10"
     inkscape:pageopacity="0"
     inkscape:pageshadow="2"
     inkscape:window-width="1920"
     inkscape:window-height="997"
     id="namedview84"
     showgrid="false"
     units="mm"
     fit-margin-top="0"
     fit-margin-left="0"
     fit-margin-right="0"
     fit-margin-bottom="0"
     inkscape:zoom="0.88059701"
     inkscape:cx="71.334756"
     inkscape:cy="112.91542"
     inkscape:window-x="0"
     inkscape:window-y="28"
     inkscape:window-maximized="1"
     inkscape:current-layer="svg82" />
  <path
     style="fill:#000000;fill-opacity:0;stroke:#ff0000;stroke-width:0.56779659;stroke-miterlimit:4;stroke-dasharray:none;stroke-opacity:1"
     d="m 18.472894,219.23126 c -4.966214,-8.48002 -8.082351,-14.59514 -7.578652,-14.87239 0.202198,-0.11128 2.667209,-1.4274 5.477802,-2.92472 2.810593,-1.4973 6.328872,-3.65833 7.818399,-4.80228 1.489526,-1.14396 3.174878,-2.07992 3.745228,-2.07992 0.570349,0 3.832967,-1.78856 7.250262,-3.97458 3.417293,-2.18602 6.509583,-3.97458 6.871743,-3.97458 0.36216,0 3.67385,-1.86119 7.35931,-4.13598 6.56615,-4.05287 7.74113,-5.67902 5.66806,-7.84452 -0.9482,-0.99049 -8.74568,-14.20697 -15.71101,-26.62966 -1.57588,-2.8106 -3.258681,-5.62119 -3.739553,-6.24577 -0.480873,-0.62457 -2.120245,-3.43517 -3.643048,-6.24576 C 30.468631,132.69051 24.768411,122.72568 19.32428,113.35703 13.880149,103.98839 8.9842059,95.55661 8.4444069,94.61974 7.9046079,93.68288 5.8951039,90.23352 3.9788429,86.95449 L 0.49473288,80.99263 H 18.653728 36.812722 V 66.79771 52.602795 H 23.185603 9.5584849 V 40.147307 27.691821 l 13.3432201,-0.319937 13.34322,-0.319937 0.319937,-13.34322 0.319937,-13.34321972 h 12.455487 12.45549 V 13.992625 27.619744 h 12.98848 12.98848 l 0.35474,12.49384 0.35474,12.493839 -13.34322,-0.0023 -13.34322,-0.0023 V 66.79771 80.99263 h 27.25423 27.254244 V 40.641874 0.29112328 l 12.77543,0.32109 12.77542,0.32109 0.29054,92.83474672 0.29053,92.83474 H 129.37022 116.30425 V 146.28924 105.97568 H 80.533066 c -24.01846,0 -35.77119,0.38821 -35.77119,1.18157 0,0.64987 0.96557,2.56618 2.14572,4.25848 1.18014,1.69229 5.34548,8.69808 9.25631,15.56842 7.52416,13.21806 19.73717,34.46348 29.08078,50.58817 l 5.62471,9.70682 -8.94482,5.05589 c -4.91965,2.78075 -10.56694,6.10068 -12.54952,7.37764 -1.98259,1.27697 -6.4153,3.86833 -9.85047,5.7586 -3.43517,1.89026 -13.00065,7.36093 -21.25663,12.15706 -8.25597,4.79613 -15.154699,8.7113 -15.330504,8.70039 -0.175805,-0.0114 -2.184856,-3.20477 -4.464558,-7.09746 z"
     id="path5241"
     inkscape:connector-curvature="0" />
</svg>
