<?xml version="1.0" encoding="UTF-8" standalone="no"?>
<!-- Created with Inkscape (http://www.inkscape.org/) -->

<svg
   xmlns:dc="http://purl.org/dc/elements/1.1/"
   xmlns:cc="http://creativecommons.org/ns#"
   xmlns:rdf="http://www.w3.org/1999/02/22-rdf-syntax-ns#"
   xmlns:svg="http://www.w3.org/2000/svg"
   xmlns="http://www.w3.org/2000/svg"
   xmlns:sodipodi="http://sodipodi.sourceforge.net/DTD/sodipodi-0.dtd"
   xmlns:inkscape="http://www.inkscape.org/namespaces/inkscape"
   version="1.1"
   id="svg2"
   width="67.753502mm"
   height="53.535221mm"
   viewBox="0 0 256.07623 202.33784"
   sodipodi:docname="esoterica-flying_spaghetti_monster.svg"
   inkscape:version="0.92.5 (2060ec1f9f, 2020-04-08)">
  <metadata
     id="metadata8">
    <rdf:RDF>
      <cc:Work
         rdf:about="">
        <dc:format>image/svg+xml</dc:format>
        <dc:type
           rdf:resource="http://purl.org/dc/dcmitype/StillImage" />
        <dc:title></dc:title>
      </cc:Work>
    </rdf:RDF>
  </metadata>
  <defs
     id="defs6" />
  <sodipodi:namedview
     pagecolor="#ffffff"
     bordercolor="#666666"
     borderopacity="1"
     objecttolerance="10"
     gridtolerance="10"
     guidetolerance="10"
     inkscape:pageopacity="0"
     inkscape:pageshadow="2"
     inkscape:window-width="1920"
     inkscape:window-height="997"
     id="namedview4"
     showgrid="false"
     units="mm"
     fit-margin-top="0"
     fit-margin-left="0"
     fit-margin-right="0"
     fit-margin-bottom="0"
     inkscape:zoom="0.88059701"
     inkscape:cx="127.69746"
     inkscape:cy="101.81892"
     inkscape:window-x="0"
     inkscape:window-y="28"
     inkscape:window-maximized="1"
     inkscape:current-layer="svg2" />
  <path
     style="fill:#000000;fill-opacity:0;stroke:#ff0000;stroke-width:0.56779659;stroke-miterlimit:4;stroke-dasharray:none;stroke-opacity:1"
     d="m 50.25,189.48322 v -12.56401 l 9.936441,-0.32812 9.936441,-0.3281 0.601637,-9.08475 c 0.488746,-7.38007 1.287812,-10.34782 4.258475,-15.81606 2.01126,-3.70223 3.656837,-7.4071 3.656837,-8.23305 0,-2.3242 -3.287587,-1.78739 -8.78527,1.43445 -3.806072,2.23051 -4.811945,3.39047 -4.1852,4.82628 2.747765,6.29487 0.811975,14.61134 -4.000527,17.18693 -1.246242,0.66696 -10.265995,1.16925 -20.996721,1.16925 H 21.86017 v -11.92373 -11.92373 h 9.147571 9.14757 l 2.846432,-6.21743 c 2.538331,-5.54444 10.550436,-14.22325 13.130629,-14.22325 0.512153,0 0.931188,-0.76652 0.931188,-1.70339 0,-1.30453 -1.440716,-1.70339 -6.152886,-1.70339 -7.649364,0 -9.745419,0.771 -9.745419,3.58467 0,3.65777 -3.333462,8.93519 -6.374081,10.09124 -1.572185,0.59774 -9.979488,1.08681 -18.682897,1.08681 H 0.28389829 V 122.89011 110.96638 H 8.8252086 17.36652 l 6.138457,-6.04116 c 7.167969,-7.054357 11.626259,-8.714377 23.469995,-8.738937 4.611859,-0.01 8.896215,-0.39283 9.520791,-0.8517 0.624576,-0.45887 3.046612,-3.21342 5.382301,-6.12123 2.335689,-2.90781 7.573613,-7.93422 11.63983,-11.16981 l 7.393123,-5.88289 -0.04299,-8.135271 -0.04299,-8.135273 -4.963635,-3.886391 C 63.19865,42.089122 61.451325,22.456288 72.14746,10.274065 c 12.16269,-13.8525387 33.25244,-12.9604157 45.00179,1.903632 4.97773,6.297294 6.69414,13.858549 5.1943,22.882251 -1.18652,7.138523 -3.10333,10.234242 -10.31899,16.665451 -7.8114,6.96219 -7.87815,9.817111 -0.19736,8.441199 6.38138,-1.143138 25.00705,-1.112959 31.82534,0.05157 5.27083,0.900226 5.39407,0.854818 5.39407,-1.987288 0,-1.59971 -0.41903,-2.908564 -0.93118,-2.908564 -2.39008,0 -10.62026,-8.631406 -12.68854,-13.307098 -3.42232,-7.736706 -3.90045,-12.828781 -1.86276,-19.838188 3.87738,-13.3377117 14.81421,-21.89313171 27.9871,-21.89313171 8.07564,0 17.68074,4.67593201 22.87032,11.13365871 9.9703,12.406712 6.71586,33.412215 -6.50291,41.972356 -3.78641,2.451983 -3.86113,2.654604 -3.87492,10.506764 l -0.0141,8.006566 7.91366,6.51031 c 4.35251,3.58067 10.05369,9.04827 12.66929,12.15021 l 4.75562,5.63991 h 8.49135 c 12.23482,0 16.81794,1.69669 23.65495,8.757217 l 5.81536,6.00549 h 9.23125 9.23124 v 11.92373 11.92373 h -16.5225 c -18.70664,0 -22.03734,-0.96578 -24.29269,-7.04391 -2.60371,-7.01696 -2.75989,-7.13253 -10.12069,-7.4891 -5.6881,-0.27553 -6.97938,-0.0129 -6.97938,1.41949 0,0.96668 0.41903,1.75758 0.93119,1.75758 2.51941,0 10.6201,8.71074 13.22876,14.225 l 2.94048,6.21568 h 8.48369 8.48368 v 11.92373 11.92373 h -18.82464 -18.82465 l -3.47129,-3.47129 c -3.28341,-3.28342 -3.43817,-3.83671 -2.85912,-10.22248 0.56684,-6.25134 0.39628,-6.921 -2.30383,-9.04491 -5.96164,-4.68942 -13.33541,-3.85719 -8.93235,1.00815 3.28166,3.62619 6.56265,13.88342 7.2234,22.58222 l 0.62539,8.23305 h 10.05642 10.05643 v 12.60823 12.60824 l -18.45339,-0.43004 c -19.30541,-0.44991 -22.30147,-1.14515 -24.95702,-5.79127 -0.87396,-1.52905 -1.67003,-8.51376 -2.01332,-17.66465 l -0.5678,-15.13559 -4.36532,-3.9988 c -3.671,-3.36277 -4.93537,-3.88995 -7.94915,-3.3145 -8.81014,1.6822 -23.94968,2.04538 -31.88715,0.76493 -7.16175,-1.15532 -8.94554,-1.10425 -11.73038,0.33585 -6.014072,3.11001 -6.457212,4.44274 -7.080082,21.29366 l -0.58114,15.72184 -3.711942,3.70868 -3.711946,3.70868 -18.71602,0.4006 -18.71602,0.40061 z m 86.79236,-58.02845 c 10.71818,-1.38063 24.75172,-8.39971 33.11094,-16.56092 l 6.32142,-6.17167 -2.42463,-3.40508 c -5.31947,-7.470507 -20.94027,-16.960027 -33.52043,-20.363417 -6.67857,-1.80679 -20.83595,-1.50759 -27.89793,0.58959 -13.913392,4.13184 -32.856306,17.092327 -32.856306,22.479857 0,3.49504 11.381202,13.07903 21.314846,17.94902 12.09111,5.9277 21.43488,7.3526 35.95209,5.48262 z M 96.582208,32.38333 c 1.8963,-1.896301 1.70037,-4.89252 -0.43587,-6.665441 -3.540154,-2.938066 -7.976398,2.756476 -4.969707,6.379316 1.664122,2.005145 3.584887,2.106813 5.405577,0.286125 z m 67.713802,-0.421792 c 0.98148,-0.981477 1.7845,-2.222518 1.7845,-2.757869 0,-1.261523 -3.28085,-4.542373 -4.54237,-4.542373 -1.53021,0 -4.54237,3.405057 -4.54237,5.134855 0,1.435503 2.9055,3.832919 4.74515,3.915358 0.42383,0.01899 1.57362,-0.768494 2.55509,-1.749971 z"
     id="path5394"
     inkscape:connector-curvature="0" />
</svg>
