<?xml version="1.0" encoding="UTF-8" standalone="no"?>
<!-- Created with Inkscape (http://www.inkscape.org/) -->

<svg
   xmlns:dc="http://purl.org/dc/elements/1.1/"
   xmlns:cc="http://creativecommons.org/ns#"
   xmlns:rdf="http://www.w3.org/1999/02/22-rdf-syntax-ns#"
   xmlns:svg="http://www.w3.org/2000/svg"
   xmlns="http://www.w3.org/2000/svg"
   xmlns:sodipodi="http://sodipodi.sourceforge.net/DTD/sodipodi-0.dtd"
   xmlns:inkscape="http://www.inkscape.org/namespaces/inkscape"
   version="1.1"
   id="svg42"
   width="60.172176mm"
   height="48.524899mm"
   viewBox="0 0 227.4224 183.40119"
   sodipodi:docname="esoterica-menorah.svg"
   inkscape:version="0.92.5 (2060ec1f9f, 2020-04-08)">
  <metadata
     id="metadata48">
    <rdf:RDF>
      <cc:Work
         rdf:about="">
        <dc:format>image/svg+xml</dc:format>
        <dc:type
           rdf:resource="http://purl.org/dc/dcmitype/StillImage" />
        <dc:title></dc:title>
      </cc:Work>
    </rdf:RDF>
  </metadata>
  <defs
     id="defs46" />
  <sodipodi:namedview
     pagecolor="#ffffff"
     bordercolor="#666666"
     borderopacity="1"
     objecttolerance="10"
     gridtolerance="10"
     guidetolerance="10"
     inkscape:pageopacity="0"
     inkscape:pageshadow="2"
     inkscape:window-width="1920"
     inkscape:window-height="997"
     id="namedview44"
     showgrid="false"
     units="mm"
     fit-margin-top="0"
     fit-margin-left="0"
     fit-margin-right="0"
     fit-margin-bottom="0"
     inkscape:zoom="0.88059701"
     inkscape:cx="113.51686"
     inkscape:cy="91.3584"
     inkscape:window-x="0"
     inkscape:window-y="28"
     inkscape:window-maximized="1"
     inkscape:current-layer="svg42" />
  <path
     style="fill:#000000;fill-opacity:0;stroke:#ff0000;stroke-width:0.56779659;stroke-miterlimit:4;stroke-dasharray:none;stroke-opacity:1"
     d="M 73.543981,170.62585 V 158.13433 H 87.171102 100.79822 V 141.7378 125.34129 l -5.394068,-0.69071 C 83.947272,123.18353 68.824486,117.41173 52.067142,108.11048 45.845076,104.65689 27.806364,87.127526 21.398221,78.307536 14.525228,68.847746 6.7103942,52.00166 4.0935362,41.004603 2.8024032,35.578763 1.5064152,24.829082 1.0668852,15.899806 L 0.29821821,0.28393362 l 12.66400579,0.0015 12.664005,0.0015 0.480404,15.04661038 c 0.400953,12.558162 0.993853,16.571876 3.585023,24.269259 5.747986,17.075078 17.982237,34.343083 31.179203,44.007813 7.912403,5.79461 23.079613,13.08117 29.914593,14.37143 3.321,0.62692 6.93247,1.42117 8.02548,1.765 1.669388,0.525144 1.987288,-0.11372 1.987288,-3.99376 0,-4.10454 -0.30025,-4.61889 -2.696208,-4.61889 -5.7574,0 -22.331138,-7.368 -31.031462,-13.79531 C 46.279649,61.979876 35.564654,41.078333 34.119641,13.062288 L 33.460709,0.28686362 H 45.97512 58.489533 L 59.019974,12.494491 c 0.45275,10.419645 1.054798,13.455057 4.110541,20.724576 5.678773,13.509633 16.821157,25.014769 29.259117,30.211679 6.44092,2.69119 8.408588,2.16081 8.408588,-2.26654 0,-3.06929 -0.52922,-3.984292 -2.605878,-4.505501 C 92.998432,55.355119 81.954712,47.110939 77.331357,41.085911 70.700962,32.445358 67.866015,23.297514 67.866015,10.543025 V 0.28686362 h 12.491527 12.49152 V 9.7120956 c 0,8.3351634 0.35769,9.9768674 3.09272,14.1949164 1.701,2.623325 3.48956,4.769682 3.97458,4.769682 0.485018,0 0.881858,-6.387712 0.881858,-14.194915 V 0.28686362 h 12.49152 12.49153 V 14.481779 c 0,7.807203 0.43182,14.194915 0.95958,14.194915 0.52778,0 1.69961,-0.894279 2.60407,-1.987288 3.76079,-4.544776 4.9533,-8.753776 4.9533,-17.4827634 V 0.29178262 l 12.77542,-0.0025 12.77542,-0.0025 V 5.3147806 c 0,9.1359184 -2.39829,22.7157554 -4.90602,27.7793304 -4.85859,9.81041 -17.72843,21.34896 -26.17735,23.469507 -2.48831,0.624522 -2.98442,1.389299 -2.98442,4.600508 0,3.39447 0.35169,3.85147 2.96392,3.85147 4.81457,0 16.44088,-6.85085 23.15472,-13.64404 11.07591,-11.206789 15.84933,-23.745165 15.88152,-41.7161294 l 0.0168,-9.36864398 h 12.66298 12.66299 L 192.44565,14.765596 c -0.74584,15.914481 -2.4547,23.04037 -8.23741,34.349807 -10.18075,19.910853 -30.1644,35.888033 -51.6134,41.265593 -5.51281,1.38213 -6.2895,1.93424 -6.61845,4.70469 -0.20497,1.72634 0.058,3.56951 0.58446,4.09593 1.65631,1.656304 18.29401,-3.27051 27.97387,-8.28371 7.29372,-3.7774 11.73717,-7.2567 20.68691,-16.19821 9.79654,-9.78751 12.14807,-12.90326 16.73649,-22.175625 6.15283,-12.433744 8.56774,-22.548441 9.55719,-40.029661 l 0.69096,-12.20762738 h 12.45756 12.45756 L 226.3402,13.630003 c -1.12317,19.184765 -2.44942,26.379723 -7.13887,38.728755 -8.98917,23.671768 -23.27948,41.486008 -44.58954,55.585162 -10.54161,6.97453 -29.1278,14.50046 -40.22373,16.28739 -3.70559,0.59678 -7.15804,1.34499 -7.67211,1.66271 -0.51407,0.31771 -0.93467,7.70174 -0.93467,16.40894 v 15.83129 h 13.62712 13.62711 v 12.49152 12.49153 H 113.28974 73.543981 Z"
     id="path5325"
     inkscape:connector-curvature="0" />
</svg>
