<?xml version="1.0" encoding="UTF-8" standalone="no"?>
<!-- Created with Inkscape (http://www.inkscape.org/) -->

<svg
   xmlns:dc="http://purl.org/dc/elements/1.1/"
   xmlns:cc="http://creativecommons.org/ns#"
   xmlns:rdf="http://www.w3.org/1999/02/22-rdf-syntax-ns#"
   xmlns:svg="http://www.w3.org/2000/svg"
   xmlns="http://www.w3.org/2000/svg"
   xmlns:sodipodi="http://sodipodi.sourceforge.net/DTD/sodipodi-0.dtd"
   xmlns:inkscape="http://www.inkscape.org/namespaces/inkscape"
   version="1.1"
   id="svg32"
   width="42.823112mm"
   height="61.543999mm"
   viewBox="0 0 161.85113 232.60724"
   sodipodi:docname="esoterica-eihwaz.svg"
   inkscape:version="0.92.5 (2060ec1f9f, 2020-04-08)">
  <metadata
     id="metadata38">
    <rdf:RDF>
      <cc:Work
         rdf:about="">
        <dc:format>image/svg+xml</dc:format>
        <dc:type
           rdf:resource="http://purl.org/dc/dcmitype/StillImage" />
        <dc:title></dc:title>
      </cc:Work>
    </rdf:RDF>
  </metadata>
  <defs
     id="defs36" />
  <sodipodi:namedview
     pagecolor="#ffffff"
     bordercolor="#666666"
     borderopacity="1"
     objecttolerance="10"
     gridtolerance="10"
     guidetolerance="10"
     inkscape:pageopacity="0"
     inkscape:pageshadow="2"
     inkscape:window-width="1920"
     inkscape:window-height="997"
     id="namedview34"
     showgrid="false"
     units="mm"
     fit-margin-top="0"
     fit-margin-left="0"
     fit-margin-right="0"
     fit-margin-bottom="0"
     inkscape:zoom="0.88059701"
     inkscape:cx="81.073611"
     inkscape:cy="115.19487"
     inkscape:window-x="0"
     inkscape:window-y="28"
     inkscape:window-maximized="1"
     inkscape:current-layer="svg32" />
  <path
     style="fill:#ff0000;fill-opacity:0.01829266;stroke:#ff0000;stroke-width:0.56779659;stroke-miterlimit:4;stroke-dasharray:none;stroke-opacity:1"
     d="m 91.066831,232.18764 c -1.75316,-1.73749 -32.57081,-26.58499 -39.25442,-31.64985 -4.17953,-3.16726 -27.881073,-22.17716 -42.1338611,-33.7936 l -9.27811197,-7.56194 3.03234897,-3.68581 c 1.667792,-2.0272 5.076417,-6.2569 7.5747221,-9.39934 2.498305,-3.14242 4.797882,-5.7198 5.11017,-5.72749 0.51543,-0.0127 18.948744,14.37569 24.415254,19.05767 7.686168,6.58307 25.948058,20.66984 26.796108,20.66984 0.58161,0 1.13594,-38.18312 1.30299,-89.752979 l 0.29073,-89.75298394 12.40441,9.97755594 c 6.82243,5.487656 14.09548,11.255099 16.16235,12.816539 3.659469,2.764587 35.574829,28.381283 45.274059,36.338983 2.66442,2.186017 7.95904,6.493483 11.76582,9.572146 l 6.92141,5.59757 -2.84779,3.487176 c -1.56629,1.917946 -4.92094,6.199874 -7.45479,9.515394 -2.53386,3.31552 -5.06477,5.8706 -5.62425,5.67797 -0.5595,-0.19264 -7.97936,-5.97144 -16.48861,-12.841781 -8.50925,-6.870339 -16.6091,-13.258051 -17.99967,-14.194915 -1.39057,-0.936865 -5.35774,-4.130721 -8.81593,-7.097458 -3.458199,-2.966737 -6.868229,-5.394068 -7.577859,-5.394068 -0.94992,0 -1.3669,23.715281 -1.58095,89.914771 -0.25841,79.91635 -0.48015,89.72705 -1.99413,88.2266 z"
     id="path5346"
     inkscape:connector-curvature="0" />
</svg>
