<?xml version="1.0" encoding="UTF-8" standalone="no"?>
<!-- Created with Inkscape (http://www.inkscape.org/) -->

<svg
   xmlns:dc="http://purl.org/dc/elements/1.1/"
   xmlns:cc="http://creativecommons.org/ns#"
   xmlns:rdf="http://www.w3.org/1999/02/22-rdf-syntax-ns#"
   xmlns:svg="http://www.w3.org/2000/svg"
   xmlns="http://www.w3.org/2000/svg"
   xmlns:sodipodi="http://sodipodi.sourceforge.net/DTD/sodipodi-0.dtd"
   xmlns:inkscape="http://www.inkscape.org/namespaces/inkscape"
   version="1.1"
   id="svg32"
   width="233.94899"
   height="233.36441"
   viewBox="0 0 233.94899 233.36441"
   sodipodi:docname="esoterica-lammas.svg"
   inkscape:version="0.92.5 (2060ec1f9f, 2020-04-08)">
  <metadata
     id="metadata38">
    <rdf:RDF>
      <cc:Work
         rdf:about="">
        <dc:format>image/svg+xml</dc:format>
        <dc:type
           rdf:resource="http://purl.org/dc/dcmitype/StillImage" />
        <dc:title></dc:title>
      </cc:Work>
    </rdf:RDF>
  </metadata>
  <defs
     id="defs36" />
  <sodipodi:namedview
     pagecolor="#ffffff"
     bordercolor="#666666"
     borderopacity="1"
     objecttolerance="10"
     gridtolerance="10"
     guidetolerance="10"
     inkscape:pageopacity="0"
     inkscape:pageshadow="2"
     inkscape:window-width="1920"
     inkscape:window-height="997"
     id="namedview34"
     showgrid="false"
     fit-margin-top="0"
     fit-margin-left="0"
     fit-margin-right="0"
     fit-margin-bottom="0"
     inkscape:zoom="0.88059701"
     inkscape:cx="116.59187"
     inkscape:cy="116.34153"
     inkscape:window-x="0"
     inkscape:window-y="28"
     inkscape:window-maximized="1"
     inkscape:current-layer="svg32" />
  <path
     style="fill:#000000;fill-opacity:0;stroke:#ff0000;stroke-width:0.56779659;stroke-miterlimit:4;stroke-dasharray:none;stroke-opacity:1"
     d="m 103.61147,208.38135 -0.30604,-24.69915 -51.506667,-0.29555 -51.50666602,-0.29556 0.495606,-17.30613 C 1.237811,150.06758 1.623613,147.43629 4.990177,137.12288 12.704608,113.48985 26.493116,93.426211 44.675104,79.377414 59.969409,67.559863 82.135869,57.687556 97.059668,56.046831 l 6.245762,-0.686662 0.30409,-27.538135 0.30408,-27.53813571 h 12.45115 12.45115 l 0.30408,27.53813571 0.30409,27.538135 6.25437,0.672772 c 14.94242,1.607331 37.44861,11.400498 52.36274,22.784712 7.90564,6.034508 18.97291,17.866968 24.79436,26.508617 13.01541,19.32073 19.02282,38.03411 20.13775,62.72996 l 0.67877,15.03504 -52.11399,0.29547 -52.114,0.29546 -0.30604,24.69915 -0.30604,24.69916 h -12.44724 -12.44723 z m 0.26176,-88.86016 c 0,-30.141589 -0.31135,-38.605849 -1.4195,-38.590455 -5.085242,0.07064 -17.722222,3.846956 -24.830061,7.419986 -16.331429,8.20963 -27.360166,17.535479 -36.190682,30.602669 -8.0334,11.88764 -14.75804,28.29898 -14.773769,36.05508 l -0.0063,3.12288 h 38.610169 38.610173 z m 103.33898,36.40359 c 0,-4.4491 -7.12542,-23.55688 -11.53952,-30.9448 -5.43729,-9.10042 -15.86616,-20.72884 -24.65736,-27.493509 -7.9958,-6.15263 -21.41956,-12.59001 -30.92722,-14.831182 -12.50696,-2.948177 -11.23183,-7.133484 -11.23183,36.865901 v 38.61016 h 39.17796 c 38.03851,0 39.17797,-0.0642 39.17797,-2.20657 z"
     id="path6497"
     inkscape:connector-curvature="0" />
</svg>
