<?xml version="1.0" encoding="UTF-8" standalone="no"?>
<!-- Created with Inkscape (http://www.inkscape.org/) -->

<svg
   xmlns:dc="http://purl.org/dc/elements/1.1/"
   xmlns:cc="http://creativecommons.org/ns#"
   xmlns:rdf="http://www.w3.org/1999/02/22-rdf-syntax-ns#"
   xmlns:svg="http://www.w3.org/2000/svg"
   xmlns="http://www.w3.org/2000/svg"
   xmlns:sodipodi="http://sodipodi.sourceforge.net/DTD/sodipodi-0.dtd"
   xmlns:inkscape="http://www.inkscape.org/namespaces/inkscape"
   version="1.1"
   id="svg82"
   width="61.594654mm"
   height="61.625984mm"
   viewBox="0 0 232.79869 232.91711"
   sodipodi:docname="hermetica-centaurus.svg"
   inkscape:version="0.92.5 (2060ec1f9f, 2020-04-08)">
  <metadata
     id="metadata88">
    <rdf:RDF>
      <cc:Work
         rdf:about="">
        <dc:format>image/svg+xml</dc:format>
        <dc:type
           rdf:resource="http://purl.org/dc/dcmitype/StillImage" />
        <dc:title></dc:title>
      </cc:Work>
    </rdf:RDF>
  </metadata>
  <defs
     id="defs86" />
  <sodipodi:namedview
     pagecolor="#ffffff"
     bordercolor="#666666"
     borderopacity="1"
     objecttolerance="10"
     gridtolerance="10"
     guidetolerance="10"
     inkscape:pageopacity="0"
     inkscape:pageshadow="2"
     inkscape:window-width="1920"
     inkscape:window-height="997"
     id="namedview84"
     showgrid="false"
     units="mm"
     fit-margin-top="0"
     fit-margin-left="0"
     fit-margin-right="0"
     fit-margin-bottom="0"
     inkscape:zoom="0.88059701"
     inkscape:cx="116.34153"
     inkscape:cy="116.34242"
     inkscape:window-x="0"
     inkscape:window-y="28"
     inkscape:window-maximized="1"
     inkscape:current-layer="svg82" />
  <path
     style="fill:#ff0000;fill-opacity:0.01829266;stroke:#ff0000;stroke-width:0.56779659;stroke-miterlimit:4;stroke-dasharray:none;stroke-opacity:1"
     d="M 26.402542,175.85266 V 119.073 H 13.34322 0.28389829 V 106.61866 94.164328 l 12.77542371,-0.32109 12.775423,-0.32109 v -8.51695 -8.516951 L 21.293644,74.272409 C 14.965087,71.184377 7.0091663,62.87402 3.3608473,55.540704 0.69328429,50.178761 0.28389829,47.979847 0.28389829,39.013671 c 0,-8.968638 0.408646,-11.162248 3.07689101,-16.516717 C 7.2990693,14.593855 15.054662,7.059831 22.995762,3.422931 31.704008,-0.56531004 45.991788,-0.76696504 54.134116,2.983449 62.2033,6.700174 68.42162,12.260111 72.961864,19.817752 c 3.90278,6.496527 3.974576,6.842484 3.974576,19.151741 0,10.102403 -0.425518,13.393189 -2.192157,16.953235 -3.130532,6.308501 -13.163021,16.16483 -18.714843,18.386228 l -4.734293,1.894288 0.329121,8.659454 0.329121,8.65945 12.775424,0.32109 12.775424,0.32109 V 106.61866 119.073 H 64.409962 51.315688 l 0.318851,13.91101 0.31885,13.91102 89.968961,0.29073 89.96895,0.29073 0.31071,42.57835 0.31071,42.57836 -12.18878,-4.4e-4 -12.18876,-4.4e-4 -0.30277,-29.80932 -0.30274,-29.80933 -78.07204,-0.29172 -78.072037,-0.29172 v 30.10104 30.10105 H 38.894067 26.402542 Z M 46.373419,51.336561 c 8.430735,-5.52403 8.05602,-20.304191 -0.628621,-24.795193 -6.918327,-3.577606 -15.543303,-1.157421 -18.881648,5.298227 -1.284036,2.483051 -1.680741,5.326967 -1.298287,9.307224 0.458144,4.768005 1.188124,6.263726 4.341989,8.896688 4.463149,3.726003 11.866194,4.307335 16.466567,1.293054 z"
     id="path5241"
     inkscape:connector-curvature="0" />
</svg>
