<?xml version="1.0" encoding="UTF-8" standalone="no"?>
<!-- Created with Inkscape (http://www.inkscape.org/) -->

<svg
   xmlns:dc="http://purl.org/dc/elements/1.1/"
   xmlns:cc="http://creativecommons.org/ns#"
   xmlns:rdf="http://www.w3.org/1999/02/22-rdf-syntax-ns#"
   xmlns:svg="http://www.w3.org/2000/svg"
   xmlns="http://www.w3.org/2000/svg"
   xmlns:sodipodi="http://sodipodi.sourceforge.net/DTD/sodipodi-0.dtd"
   xmlns:inkscape="http://www.inkscape.org/namespaces/inkscape"
   version="1.1"
   id="svg12"
   width="58.007851mm"
   height="65.176987mm"
   viewBox="0 0 219.24227 246.33822"
   sodipodi:docname="esoterica-club.svg"
   inkscape:version="0.92.5 (2060ec1f9f, 2020-04-08)">
  <metadata
     id="metadata18">
    <rdf:RDF>
      <cc:Work
         rdf:about="">
        <dc:format>image/svg+xml</dc:format>
        <dc:type
           rdf:resource="http://purl.org/dc/dcmitype/StillImage" />
        <dc:title></dc:title>
      </cc:Work>
    </rdf:RDF>
  </metadata>
  <defs
     id="defs16" />
  <sodipodi:namedview
     pagecolor="#ffffff"
     bordercolor="#666666"
     borderopacity="1"
     objecttolerance="10"
     gridtolerance="10"
     guidetolerance="10"
     inkscape:pageopacity="0"
     inkscape:pageshadow="2"
     inkscape:window-width="1920"
     inkscape:window-height="997"
     id="namedview14"
     showgrid="false"
     units="mm"
     fit-margin-top="0"
     fit-margin-left="0"
     fit-margin-right="0"
     fit-margin-bottom="0"
     inkscape:zoom="0.88059701"
     inkscape:cx="109.30584"
     inkscape:cy="123.15509"
     inkscape:window-x="0"
     inkscape:window-y="28"
     inkscape:window-maximized="1"
     inkscape:current-layer="svg12" />
  <path
     style="fill:#000000;fill-opacity:0;stroke:#ff0000;stroke-width:0.56779659;stroke-miterlimit:4;stroke-dasharray:none;stroke-opacity:1"
     d="m 61.383807,233.78999 v -12.26433 l 6.628316,-1.36905 c 7.809328,-1.61299 15.771488,-6.5685 21.080708,-13.12028 3.9736,-4.90359 6.13538,-9.81253 4.32118,-9.81253 -0.58028,0 -4.31958,1.4794 -8.30958,3.28755 C 55.8835,213.7535 21.264557,200.928 6.4233899,171.36189 -7.5428791,143.53872 3.1257829,108.18374 30.285483,92.285075 c 4.754943,-2.78343 11.317635,-5.52551 15.192294,-6.347768 3.751707,-0.796167 6.803081,-2.016519 6.780832,-2.711895 -0.02225,-0.695377 -0.780791,-4.330423 -1.68565,-8.07788 -9.179056,-38.014877 19.07909,-74.52704408 57.937961,-74.86127108 18.21285,-0.156649 35.74068,7.48887598 46.89279,20.45432708 5.45877,6.346364 12.02472,19.027592 13.76486,26.58491 1.65953,7.207216 1.48565,21.118786 -0.34774,27.822034 -0.85413,3.122881 -1.74234,6.403427 -1.97381,7.290102 -0.29987,1.148724 2.09413,2.325561 8.32836,4.094027 9.25352,2.624954 11.57305,3.839684 20.98307,10.988754 16.99581,12.912215 26.34937,38.519055 21.53672,58.960145 -3.32235,14.11125 -9.49441,24.95415 -19.47238,34.20856 -1.87373,1.73785 -8.2127,5.57989 -14.0866,8.53789 l -10.67983,5.37814 h -13.16763 c -13.71493,0 -18.62159,-1.18405 -30.93188,-7.46427 -2.52995,-1.2907 -4.8202,-2.12642 -5.08943,-1.85719 -0.77275,0.77275 1.56286,6.18747 4.59133,10.64426 4.78143,7.03653 18.6165,15.11368 25.9276,15.13697 1.77183,0.006 1.98729,1.36064 1.98729,12.49786 v 12.49153 H 109.07872 61.383807 Z m 10.426582,-54.77395 c 11.083452,-3.07836 21.414802,-14.41669 23.841422,-26.1652 l 1.3898,-6.72874 h 12.151049 12.15106 l 1.34525,5.60764 c 4.7416,19.76519 27.16336,32.61415 46.9002,26.8765 7.79414,-2.26582 17.05207,-10.70247 21.31573,-19.42481 3.87042,-7.91786 3.87512,-21.49563 0.0102,-28.95763 -4.65319,-8.98352 -8.921,-13.36801 -16.77671,-17.23537 -9.6702,-4.76062 -18.78046,-5.53384 -27.23813,-2.3118 l -5.89898,2.24728 -2.90187,-4.38503 c -1.59622,-2.41177 -2.90206,-4.64382 -2.90206,-4.96012 0,-0.31629 -1.55288,-3.09882 -3.45083,-6.183385 l -3.45083,-5.60832 5.67435,-5.307702 c 8.33385,-7.795338 10.80565,-13.666834 10.74632,-25.526736 -0.0563,-11.259781 -1.63259,-15.710728 -8.41056,-23.748995 -6.73557,-7.987986 -15.93378,-12.035591 -27.2271,-11.981088 -7.27461,0.03511 -9.520759,0.559953 -15.398629,3.598101 -12.60422,6.514857 -19.804758,18.176033 -19.804758,32.073531 0,10.359096 3.593928,18.314684 11.509678,25.478027 l 6.59668,5.969652 -6.32915,9.572335 c -3.48103,5.26478 -6.69411,9.96348 -7.14019,10.44155 -0.44608,0.47807 -2.56617,-0.0274 -4.711321,-1.12328 -2.683839,-1.37107 -6.556577,-1.99634 -12.417223,-2.00482 -27.77104,-0.0401 -44.371803,27.59407 -31.714327,52.79278 1.798379,3.58024 7.395785,9.55378 12.68238,13.53461 5.671797,4.27089 20.3385,5.99405 29.458529,3.46102 z"
     id="path6544"
     inkscape:connector-curvature="0" />
</svg>
