<?xml version="1.0" encoding="UTF-8" standalone="no"?>
<!-- Created with Inkscape (http://www.inkscape.org/) -->

<svg
   xmlns:dc="http://purl.org/dc/elements/1.1/"
   xmlns:cc="http://creativecommons.org/ns#"
   xmlns:rdf="http://www.w3.org/1999/02/22-rdf-syntax-ns#"
   xmlns:svg="http://www.w3.org/2000/svg"
   xmlns="http://www.w3.org/2000/svg"
   xmlns:sodipodi="http://sodipodi.sourceforge.net/DTD/sodipodi-0.dtd"
   xmlns:inkscape="http://www.inkscape.org/namespaces/inkscape"
   version="1.1"
   id="svg32"
   width="63.246628mm"
   height="63.568047mm"
   viewBox="0 0 239.04237 240.25719"
   sodipodi:docname="hermetica-mater_misericordia.svg"
   inkscape:version="0.92.5 (2060ec1f9f, 2020-04-08)">
  <metadata
     id="metadata38">
    <rdf:RDF>
      <cc:Work
         rdf:about="">
        <dc:format>image/svg+xml</dc:format>
        <dc:type
           rdf:resource="http://purl.org/dc/dcmitype/StillImage" />
        <dc:title></dc:title>
      </cc:Work>
    </rdf:RDF>
  </metadata>
  <defs
     id="defs36" />
  <sodipodi:namedview
     pagecolor="#ffffff"
     bordercolor="#666666"
     borderopacity="1"
     objecttolerance="10"
     gridtolerance="10"
     guidetolerance="10"
     inkscape:pageopacity="0"
     inkscape:pageshadow="2"
     inkscape:window-width="1920"
     inkscape:window-height="997"
     id="namedview34"
     showgrid="false"
     units="mm"
     fit-margin-top="0"
     fit-margin-left="0"
     fit-margin-right="0"
     fit-margin-bottom="0"
     inkscape:zoom="0.88059701"
     inkscape:cx="119.74831"
     inkscape:cy="119.74855"
     inkscape:window-x="0"
     inkscape:window-y="28"
     inkscape:window-maximized="1"
     inkscape:current-layer="svg32" />
  <path
     style="fill:#ff0000;fill-opacity:0.01829266;stroke:#ff0000;stroke-width:0.56779659;stroke-miterlimit:4;stroke-dasharray:none;stroke-opacity:1"
     d="M 0.28389829,120.13192 V 0.29079678 l 13.33009471,0.319937 c 12.983635,0.311622 13.36333,0.39372402 14.608759,3.15892002 0.703265,1.561441 9.902704,21.3633472 20.4432,44.0042372 16.975406,36.463021 22.024726,45.500766 22.024726,39.421916 0,-0.958844 0.73161,-2.875158 1.625801,-4.25848 1.350714,-2.089566 9.38227,-19.155378 28.439911,-60.430385 1.44191,-3.122881 3.74436,-8.105297 5.11656,-11.072034 l 2.49491,-5.3940682 10.97074,0.02874 10.97073,0.02874 3.59146,7.6365152 c 1.97531,4.200084 5.47589,11.724651 7.77906,16.721262 7.48732,16.243304 10.94898,23.653597 16.44496,35.203389 2.97205,6.245763 6.56,14.05767 7.97323,17.359794 1.41321,3.302123 3.13719,5.817787 3.83106,5.590377 0.69387,-0.22742 10.46996,-20.048223 21.72465,-44.046236 l 20.46308,-43.63274822 13.32082,-0.319937 13.32083,-0.319937 V 120.13192 239.97305 h -13.44633 -13.44633 l -17.34257,-37.19068 c -9.53841,-20.45487 -18.69032,-40.10337 -20.33756,-43.66333 -1.64726,-3.55995 -3.51975,-6.4983 -4.1611,-6.52966 -0.64135,-0.0314 -9.84546,18.46735 -20.45357,41.10824 l -19.28747,41.16526 -10.79818,0.32187 -10.79817,0.32187 -19.282165,-41.45224 C 78.799851,171.25566 69.590239,152.58645 68.939232,152.56725 c -0.651007,-0.0192 -10.360329,19.63659 -21.576271,43.67952 l -20.392622,43.71439 -13.34322,0.006 -13.34322071,0.006 z m 137.72332171,39.3039 17.91823,-38.45038 -2.39857,-6.0867 c -1.31922,-3.34769 -3.58403,-8.38629 -5.03291,-11.19688 -1.44889,-2.81059 -4.408,-8.942803 -6.5758,-13.627123 -8.17996,-17.675817 -10.92866,-23.604012 -16.19093,-34.91949 -2.97722,-6.401907 -5.87516,-11.63983 -6.43987,-11.63983 -0.56472,0 -2.27596,2.824697 -3.80278,6.277105 -3.1239,7.063679 -9.28463,20.42936 -14.11834,30.629674 -1.775835,3.747458 -5.110915,10.901691 -7.411275,15.898301 -2.30037,4.996613 -5.74701,12.358953 -7.6592,16.360763 -2.853645,5.97206 -3.272076,7.80366 -2.334844,10.22034 2.632724,6.78855 34.944959,75.05155 35.510439,75.01954 0.33969,-0.0192 8.68082,-17.33761 18.53585,-38.48532 z m -97.031333,-8.6179 14.005547,-30.05674 -5.9292,-12.78813 C 45.791173,100.93957 41.119198,90.841267 38.670067,85.532366 29.616489,65.907235 26.950151,60.606112 26.118644,60.578053 c -0.468432,-0.01581 -0.851695,27.055164 -0.851695,60.157707 0,33.10254 0.383263,60.17574 0.851695,60.16266 0.468432,-0.0131 7.154192,-13.54931 14.857243,-30.0805 z M 213.77543,120.73576 c 0,-33.102543 -0.42467,-60.186445 -0.9437,-60.186445 -0.51904,0 -1.51559,1.149788 -2.21456,2.555085 -4.41257,8.871574 -26.36717,56.80118 -26.36717,57.5628 0,1.90397 27.68197,60.255 28.58523,60.255 0.51711,0 0.9402,-27.0839 0.9402,-60.18644 z"
     id="path5367"
     inkscape:connector-curvature="0" />
</svg>
