<?xml version="1.0" encoding="UTF-8" standalone="no"?>
<!-- Created with Inkscape (http://www.inkscape.org/) -->

<svg
   xmlns:dc="http://purl.org/dc/elements/1.1/"
   xmlns:cc="http://creativecommons.org/ns#"
   xmlns:rdf="http://www.w3.org/1999/02/22-rdf-syntax-ns#"
   xmlns:svg="http://www.w3.org/2000/svg"
   xmlns="http://www.w3.org/2000/svg"
   xmlns:sodipodi="http://sodipodi.sourceforge.net/DTD/sodipodi-0.dtd"
   xmlns:inkscape="http://www.inkscape.org/namespaces/inkscape"
   version="1.1"
   id="svg2"
   width="61.533817mm"
   height="61.47982mm"
   viewBox="0 0 232.56876 232.36468"
   sodipodi:docname="hermetica-saffron.svg"
   inkscape:version="0.92.5 (2060ec1f9f, 2020-04-08)">
  <metadata
     id="metadata8">
    <rdf:RDF>
      <cc:Work
         rdf:about="">
        <dc:format>image/svg+xml</dc:format>
        <dc:type
           rdf:resource="http://purl.org/dc/dcmitype/StillImage" />
        <dc:title></dc:title>
      </cc:Work>
    </rdf:RDF>
  </metadata>
  <defs
     id="defs6" />
  <sodipodi:namedview
     pagecolor="#ffffff"
     bordercolor="#666666"
     borderopacity="1"
     objecttolerance="10"
     gridtolerance="10"
     guidetolerance="10"
     inkscape:pageopacity="0"
     inkscape:pageshadow="2"
     inkscape:window-width="1920"
     inkscape:window-height="997"
     id="namedview4"
     showgrid="false"
     units="mm"
     fit-margin-top="0"
     fit-margin-left="0"
     fit-margin-right="0"
     fit-margin-bottom="0"
     inkscape:zoom="0.88059701"
     inkscape:cx="116.2503"
     inkscape:cy="116.00514"
     inkscape:window-x="0"
     inkscape:window-y="28"
     inkscape:window-maximized="1"
     inkscape:current-layer="svg2" />
  <path
     style="fill:#ff0000;fill-opacity:0.01829266;stroke:#ff0000;stroke-width:0.56779659;stroke-miterlimit:4;stroke-dasharray:none;stroke-opacity:1"
     d="M 116.02374,0.28531153 C 101.84746,0.31499153 97.922271,0.74692753 87.806941,3.3927335 43.985688,14.854802 12.896887,47.091798 1.9436604,92.425941 0.33724942,99.074701 0.05184842,104.23962 0.43584842,119.67984 c 0.456324,18.34835 0.63143398,19.52224 4.71484398,31.82422 6.3174686,19.03247 14.5577916,32.6168 28.3085926,46.66016 6.331511,6.46621 21.067216,18.35547 22.75,18.35547 0.364553,0 3.113719,1.44463 6.109375,3.21093 4.807308,2.83449 19.425568,8.24728 30.992191,11.47657 2.18601,0.61031 13.429709,0.98907 24.984369,0.84179 l 21.00781,-0.26757 12.49219,-4.34376 c 33.01538,-11.48228 56.60407,-32.48783 70.67774,-62.9375 7.1417,-15.4517 9.69984,-27.80878 9.80273,-47.3457 0.0784,-14.88496 -0.29379,-18.553969 -2.94531,-29.082029 C 218.91348,46.711525 185.97322,13.695422 144.79913,3.3458585 134.1607,0.67177053 130.25374,0.25552153 116.02374,0.28531153 Z M 132.29913,25.822422 c 2.06777,-0.09532 5.23447,1.365082 10.06836,2.888671 22.0347,6.945097 39.07125,19.796243 51.30078,38.701172 5.07499,7.845125 13.20312,28.943886 13.20312,34.271485 v 2.41211 H 167.69171 128.51397 V 64.918125 c 0,-31.147884 -0.76393,-38.886005 3.78516,-39.095703 z m -32.759769,0.11914 c 4.825659,0.05978 3.992189,7.780521 3.992189,38.976563 V 104.09586 H 64.922176 26.310848 v -4.01172 c 0,-2.205709 1.052701,-7.136199 2.339844,-10.957029 9.766993,-28.99288 31.685928,-50.84206 60.191409,-60.003908 5.14136,-1.652469 8.50378,-3.208815 10.69726,-3.181641 z m 58.332029,36.375 c -1.67584,0.0053 -3.28479,0.243681 -4.59765,0.75 -9.36387,3.611277 -8.97518,18.221375 0.59375,22.310549 5.55304,2.37303 12.83461,-0.0956 15.61719,-5.294924 1.83457,-3.427938 0.62053,-12.121652 -2.06836,-14.810547 -1.85331,-1.853307 -5.85806,-2.96676 -9.54493,-2.955078 z m -82.824214,0.01172 c -1.298942,-0.04774 -2.606574,0.199457 -4.359375,0.724609 -10.519758,3.151796 -11.223154,17.377624 -1.115234,22.57226 3.611758,1.85618 6.131852,1.7901 10.099609,-0.26171 9.455905,-4.889854 9.258395,-18.345762 -0.322266,-21.99219 -1.714587,-0.652577 -3.003792,-0.995233 -4.302734,-1.042969 z M 26.310848,129.07828 h 38.611328 38.609374 v 38.60937 38.61133 l -4.257809,-0.0664 c -4.56912,-0.0715 -15.82892,-3.76108 -24.132815,-7.90821 C 62.91981,192.22091 49.893937,180.97639 41.619442,169.39078 33.688732,158.28652 26.35099,140.71741 26.32452,132.76969 Z m 102.203122,0 h 39.17774 c 38.44213,0 39.17968,0.0432 39.17968,2.27539 0,3.68501 -6.64593,22.88882 -9.62695,27.81836 -1.5108,2.49831 -3.74428,6.32961 -4.96289,8.51562 -2.92649,5.24975 -14.23289,16.73916 -22.43555,22.79883 -7.64793,5.64985 -19.16693,11.46889 -27.75586,14.01953 -3.32144,0.98636 -7.73399,1.79297 -9.80664,1.79297 h -3.76953 v -38.61133 z m 30.85547,17.36328 c -1.5066,-0.0352 -3.1143,0.18573 -4.78906,0.6875 -3.39572,1.01738 -4.79622,2.30559 -6.63477,6.10352 -3.20426,6.61913 -1.37723,12.9871 4.69141,16.35742 4.83543,2.68543 9.83043,1.8473 14.0332,-2.35547 2.98041,-2.98042 3.86133,-4.8066 3.86133,-8.00586 0,-7.6791 -4.6335,-12.63452 -11.16211,-12.78711 z m -85.955077,0.80664 c -7.051494,0 -11.90039,4.70564 -11.90039,11.55078 0,5.6906 1.479881,8.43925 6.035156,11.2168 5.506276,3.35742 9.388079,2.67831 15.257812,-2.66797 1.98581,-1.80873 2.55469,-3.56758 2.55469,-7.89453 0,-4.63929 -0.55229,-6.12064 -3.318361,-8.88672 -2.722267,-2.72227 -4.274406,-3.31836 -8.628907,-3.31836 z"
     id="path5409"
     inkscape:connector-curvature="0" />
</svg>
