<?xml version="1.0" encoding="UTF-8" standalone="no"?>
<!-- Created with Inkscape (http://www.inkscape.org/) -->

<svg
   xmlns:dc="http://purl.org/dc/elements/1.1/"
   xmlns:cc="http://creativecommons.org/ns#"
   xmlns:rdf="http://www.w3.org/1999/02/22-rdf-syntax-ns#"
   xmlns:svg="http://www.w3.org/2000/svg"
   xmlns="http://www.w3.org/2000/svg"
   xmlns:sodipodi="http://sodipodi.sourceforge.net/DTD/sodipodi-0.dtd"
   xmlns:inkscape="http://www.inkscape.org/namespaces/inkscape"
   version="1.1"
   id="svg52"
   width="227.25171"
   height="261.97754"
   viewBox="0 0 227.25171 261.97754"
   sodipodi:docname="esoterica-star_of_david.svg"
   inkscape:version="0.92.5 (2060ec1f9f, 2020-04-08)">
  <metadata
     id="metadata58">
    <rdf:RDF>
      <cc:Work
         rdf:about="">
        <dc:format>image/svg+xml</dc:format>
        <dc:type
           rdf:resource="http://purl.org/dc/dcmitype/StillImage" />
        <dc:title></dc:title>
      </cc:Work>
    </rdf:RDF>
  </metadata>
  <defs
     id="defs56" />
  <sodipodi:namedview
     pagecolor="#ffffff"
     bordercolor="#666666"
     borderopacity="1"
     objecttolerance="10"
     gridtolerance="10"
     guidetolerance="10"
     inkscape:pageopacity="0"
     inkscape:pageshadow="2"
     inkscape:window-width="1920"
     inkscape:window-height="997"
     id="namedview54"
     showgrid="false"
     fit-margin-top="0"
     fit-margin-left="0"
     fit-margin-right="0"
     fit-margin-bottom="0"
     inkscape:zoom="0.88059701"
     inkscape:cx="113.26655"
     inkscape:cy="131.32753"
     inkscape:window-x="0"
     inkscape:window-y="28"
     inkscape:window-maximized="1"
     inkscape:current-layer="svg52" />
  <path
     style="fill:#000000;fill-opacity:0;stroke:#ff0000;stroke-width:0.56779659;stroke-miterlimit:4;stroke-dasharray:none;stroke-opacity:1"
     d="M 109.68995,254.90825 C 92.253903,225.01785 84.713793,211.9182 79.967843,203.27119 l -3.583826,-6.52966 H 37.793018 c -30.7308905,0 -38.35607746,-0.28913 -37.43759146,-1.4195 1.71933696,-2.11597 13.88739746,-23.42149 13.88739746,-24.31598 0,-0.42466 0.714637,-1.57889 1.588081,-2.56494 0.873445,-0.98605 3.105894,-4.6034 4.960998,-8.03857 1.855105,-3.43517 4.973095,-8.9286 6.928868,-12.20762 1.955773,-3.27903 5.097283,-8.56423 6.981133,-11.74489 l 3.425181,-5.78303 -3.862537,-6.4246 C 29.922561,117.02033 19.393363,98.86486 13.086155,87.724576 10.787683,83.664831 7.0415465,77.100273 4.7614095,73.136671 2.4812715,69.173068 0.61570554,65.723703 0.61570554,65.471417 c 0,-0.252288 17.00198746,-0.458705 37.78219246,-0.458705 h 37.782193 l 2.812211,-5.394068 c 1.546721,-2.966737 3.634811,-6.67161 4.640211,-8.233051 1.00541,-1.56144 3.12203,-5.138559 4.70362,-7.949152 1.58159,-2.810594 5.57824,-9.709322 8.88145,-15.330509 3.303207,-5.621186 6.828187,-11.75339 7.833307,-13.627118 2.99662,-5.586301 8.17915,-14.19491571 8.54557,-14.19491571 0.18767,0 1.33573,1.91631361 2.55124,4.25847461 1.21551,2.3421611 4.91687,8.8576271 8.22524,14.4788131 3.30838,5.621187 7.29031,12.519916 8.84875,15.330509 1.55845,2.810593 3.22697,5.621186 3.70784,6.245763 0.48088,0.624576 2.13398,3.435169 3.67358,6.245762 1.53959,2.810594 4.37777,7.920763 6.30705,11.355933 l 3.5078,6.245762 38.01036,0.567797 38.01036,0.567796 -6.92345,11.923729 c -3.80789,6.558051 -8.8018,15.245339 -11.09757,19.305083 -2.29576,4.05975 -7.63199,13.38956 -11.85827,20.73291 l -7.68415,13.35156 4.95074,8.22456 c 2.72291,4.52351 5.15732,8.73565 5.40979,9.3603 0.41735,1.03262 6.37703,11.42114 16.93819,29.52559 2.18608,3.74745 5.46433,9.4964 7.28503,12.77542 l 3.31035,5.96187 h -38.03058 -38.03058 l -2.76717,4.82627 c -1.52194,2.65445 -4.55647,7.89237 -6.7434,11.63983 -7.87334,13.49153 -21.77354,37.58335 -24.71512,42.83621 l -3.00249,5.36163 z m 7.80851,-50.63971 c 1.91956,-3.35505 3.49012,-6.42115 3.49012,-6.81356 0,-0.3924 -3.54451,-0.71345 -7.8767,-0.71345 h -7.8767 l 3.61823,6.81015 c 1.99002,3.74558 3.96398,6.81168 4.38658,6.81356 0.42259,0.002 2.3389,-2.74164 4.25847,-6.0967 z M 60.606459,169.77119 c -2.00837,-4.44344 -7.424033,-12.74557 -8.321262,-12.75637 -1.058341,-0.0127 -7.381356,10.93004 -7.381356,12.77437 0,0.45853 3.619704,0.83369 8.043785,0.83369 4.424083,0 7.870557,-0.38326 7.658833,-0.85169 z m 78.591611,-3.12288 c 1.0652,-1.87373 4.63712,-8.00594 7.9376,-13.62712 11.84598,-20.17537 12.64661,-21.94164 11.20795,-24.72582 -0.71857,-1.39064 -5.90147,-10.57694 -11.51753,-20.41401 L 136.61506,89.995763 H 113.60192 90.588783 l -1.93806,2.957844 c -1.06593,1.626815 -6.44664,10.833173 -11.957137,20.458573 l -10.019085,17.50073 5.171816,8.78295 c 2.844499,4.83062 6.37788,10.59898 7.851956,12.81857 1.47408,2.21958 2.68014,4.41596 2.68014,4.88082 0,0.46486 1.78885,3.64162 3.97521,7.05945 l 3.97521,6.21425 23.466257,-0.30693 23.46625,-0.30694 z m 43.11255,3.26111 c 0,-1.3215 -6.97234,-12.91366 -7.76719,-12.91366 -0.7911,0 -8.13112,11.69267 -8.13112,12.95289 0,0.37082 3.57712,0.67423 7.94916,0.67423 4.37203,0 7.94915,-0.32105 7.94915,-0.71346 z M 57.172728,97.42904 c 1.8451,-3.406615 3.075855,-6.472716 2.73501,-6.81356 -1.133881,-1.133882 -15.003897,-0.649301 -15.003897,0.524196 0,2.264239 6.155322,12.483204 7.519171,12.483204 0.767243,0 2.904615,-2.78723 4.749716,-6.19384 z m 121.901532,0.42932 c 4.57921,-7.523019 4.37566,-7.862597 -4.71279,-7.862597 -4.46155,0 -7.94916,0.490744 -7.94916,1.118533 0,2.219291 7.1018,12.601774 8.33798,12.189714 0.69637,-0.23213 2.64215,-2.68267 4.32397,-5.44565 z M 120.98858,63.894179 c 0,-1.617606 -6.84884,-12.508586 -7.86608,-12.508586 -1.01852,0 -6.89663,10.535733 -6.89663,12.361305 0,0.800862 2.71128,1.265814 7.38136,1.265814 4.08879,0 7.38135,-0.498939 7.38135,-1.118533 z"
     id="path5304"
     inkscape:connector-curvature="0" />
</svg>
