<?xml version="1.0" encoding="UTF-8" standalone="no"?>
<!-- Created with Inkscape (http://www.inkscape.org/) -->

<svg
   xmlns:dc="http://purl.org/dc/elements/1.1/"
   xmlns:cc="http://creativecommons.org/ns#"
   xmlns:rdf="http://www.w3.org/1999/02/22-rdf-syntax-ns#"
   xmlns:svg="http://www.w3.org/2000/svg"
   xmlns="http://www.w3.org/2000/svg"
   xmlns:sodipodi="http://sodipodi.sourceforge.net/DTD/sodipodi-0.dtd"
   xmlns:inkscape="http://www.inkscape.org/namespaces/inkscape"
   version="1.1"
   id="svg72"
   width="44.683842mm"
   height="42.252289mm"
   viewBox="0 0 168.88381 159.69369"
   sodipodi:docname="esoterica-communist.svg"
   inkscape:version="0.92.5 (2060ec1f9f, 2020-04-08)">
  <metadata
     id="metadata78">
    <rdf:RDF>
      <cc:Work
         rdf:about="">
        <dc:format>image/svg+xml</dc:format>
        <dc:type
           rdf:resource="http://purl.org/dc/dcmitype/StillImage" />
        <dc:title></dc:title>
      </cc:Work>
    </rdf:RDF>
  </metadata>
  <defs
     id="defs76" />
  <sodipodi:namedview
     pagecolor="#ffffff"
     bordercolor="#666666"
     borderopacity="1"
     objecttolerance="10"
     gridtolerance="10"
     guidetolerance="10"
     inkscape:pageopacity="0"
     inkscape:pageshadow="2"
     inkscape:window-width="1920"
     inkscape:window-height="997"
     id="namedview74"
     showgrid="false"
     units="mm"
     fit-margin-top="0"
     fit-margin-left="0"
     fit-margin-right="0"
     fit-margin-bottom="0"
     inkscape:zoom="0.88059701"
     inkscape:cx="84.671234"
     inkscape:cy="80.102585"
     inkscape:window-x="0"
     inkscape:window-y="28"
     inkscape:window-maximized="1"
     inkscape:current-layer="svg72" />
  <path
     style="fill:#000000;fill-opacity:0;stroke:#ff0000;stroke-width:0.56779659;stroke-miterlimit:4;stroke-dasharray:none;stroke-opacity:1"
     d="m 141.08361,149.53326 -9.75952,-9.75951 -4.78982,3.02367 c -20.35501,12.84956 -48.627386,15.39775 -71.047786,6.40355 -4.996606,-2.00445 -11.028886,-4.98241 -13.405063,-6.61769 l -4.320321,-2.97323 -9.547099,9.49751 -9.547099,9.4975 -2.584111,-2.20274 c -4.906899,-4.18273 -14.5369814,-14.08039 -14.5369814,-14.9409 0,-0.47472 8.026441,-8.90136 17.8365374,-18.72584 l 17.836536,-17.86271 7.99821,7.72215 c 4.399014,4.24718 10.297781,9.05131 13.108381,10.67583 5.9775,3.45501 18.24176,6.51347 26.11864,6.51347 10.63636,0 27.254236,-5.16539 27.254236,-8.47154 0,-0.64256 -16.729306,-17.90336 -37.176236,-38.357328 l -37.176239,-37.18905 -9.691546,9.64664 -9.691545,9.64665 L 9.1818576,56.226962 0.40093259,47.394232 22.521714,25.279953 C 34.688144,13.117102 45.804851,2.8333543 47.225509,2.4271793 c 1.420657,-0.406174 8.842975,-0.789437 16.494035,-0.851695 l 13.91101,-0.113196 V 13.953814 26.445339 h -10.78813 c -7.89988,0 -10.78814,0.381788 -10.78814,1.426044 0,1.771916 72.773156,74.658697 74.542316,74.658697 2.75485,0 8.28082,-17.533508 8.33627,-26.450408 0.0385,-6.18793 -3.62142,-20.75808 -6.6052,-26.2955 -4.6225,-8.578628 -13.73225,-17.696877 -22.74981,-22.771036 -9.03053,-5.081464 -9.12547,-5.444012 -3.56846,-13.627119 1.69656,-2.498305 3.97788,-6.4450457 5.0696,-8.7705367 l 1.98496,-4.22816399 3.57567,1.84291799 c 17.25609,8.8938767 31.24406,22.7164717 38.8187,38.3597927 6.42076,13.260275 7.57841,18.682475 7.5267,35.253615 -0.0509,16.31722 -1.70175,23.28553 -8.71877,36.802158 l -5.05959,9.74614 9.63776,9.68262 9.63776,9.68261 -8.81953,8.76781 -8.81953,8.7678 z"
     id="path6416"
     inkscape:connector-curvature="0" />
</svg>
