<?xml version="1.0" encoding="UTF-8" standalone="no"?>
<!-- Created with Inkscape (http://www.inkscape.org/) -->

<svg
   xmlns:dc="http://purl.org/dc/elements/1.1/"
   xmlns:cc="http://creativecommons.org/ns#"
   xmlns:rdf="http://www.w3.org/1999/02/22-rdf-syntax-ns#"
   xmlns:svg="http://www.w3.org/2000/svg"
   xmlns="http://www.w3.org/2000/svg"
   xmlns:sodipodi="http://sodipodi.sourceforge.net/DTD/sodipodi-0.dtd"
   xmlns:inkscape="http://www.inkscape.org/namespaces/inkscape"
   version="1.1"
   id="svg72"
   width="46.996319mm"
   height="61.78875mm"
   viewBox="0 0 177.62388 233.53228"
   sodipodi:docname="esoterica-orphic_egg.svg"
   inkscape:version="0.92.5 (2060ec1f9f, 2020-04-08)">
  <metadata
     id="metadata78">
    <rdf:RDF>
      <cc:Work
         rdf:about="">
        <dc:format>image/svg+xml</dc:format>
        <dc:type
           rdf:resource="http://purl.org/dc/dcmitype/StillImage" />
        <dc:title></dc:title>
      </cc:Work>
    </rdf:RDF>
  </metadata>
  <defs
     id="defs76" />
  <sodipodi:namedview
     pagecolor="#ffffff"
     bordercolor="#666666"
     borderopacity="1"
     objecttolerance="10"
     gridtolerance="10"
     guidetolerance="10"
     inkscape:pageopacity="0"
     inkscape:pageshadow="2"
     inkscape:window-width="1920"
     inkscape:window-height="997"
     id="namedview74"
     showgrid="false"
     units="mm"
     fit-margin-top="0"
     fit-margin-left="0"
     fit-margin-right="0"
     fit-margin-bottom="0"
     inkscape:zoom="0.88059701"
     inkscape:cx="89.242736"
     inkscape:cy="117.02612"
     inkscape:window-x="0"
     inkscape:window-y="28"
     inkscape:window-maximized="1"
     inkscape:current-layer="svg72" />
  <path
     style="fill:#000000;fill-opacity:0;stroke:#ff0000;stroke-width:0.56779659;stroke-miterlimit:4;stroke-dasharray:none;stroke-opacity:1"
     d="m 76.971426,232.69563 c -8.3577,-2.16507 -22.384652,-11.91615 -33.260292,-23.12147 -3.261016,-3.35988 -6.219273,-5.39026 -7.859155,-5.39407 -3.130289,-0.007 -6.647061,-1.70173 -10.145684,-4.88837 -1.946065,-1.77251 -2.555084,-3.57928 -2.555084,-7.58012 0,-2.88909 0.506233,-5.75913 1.124964,-6.37786 1.391891,-1.3919 -4.604204,-17.61503 -6.92668,-18.74095 -0.868802,-0.42119 -3.028534,-1.44572 -4.799404,-2.27674 -7.7422317,-3.63319 -8.4980767,-13.54844 -1.609775,-21.11718 1.939242,-2.13081 2.153744,-3.40655 1.479769,-8.80085 -0.631992,-5.05829 -1.198419,-6.30881 -2.8576107,-6.30881 -2.980608,0 -9.10018701,-6.12128 -9.25389701,-9.25646 -0.35495,-7.23987 3.10842301,-13.60819 9.90039271,-18.20445 2.658607,-1.799126 4.27859,-4.056706 5.118102,-7.132496 2.583932,-9.46694 9.817498,-21.655405 17.750616,-29.90955 4.32138,-4.496253 8.137493,-8.175005 8.48025,-8.175005 0.342756,0 3.558348,-1.767458 7.145758,-3.927683 13.98956,-8.424075 34.99094,-13.182208 48.40537,-10.966861 12.294124,2.03033 25.684094,6.839078 34.266544,12.306162 4.24843,2.706274 8.20881,4.621123 8.80085,4.255218 1.43416,-0.886361 1.36752,-6.422531 -0.12511,-10.393757 -0.66086,-1.758244 -3.33499,-5.381521 -5.94253,-8.051727 -9.41721,-9.64358 -39.601544,-16.3263 -58.152524,-12.874797 -11.56539,2.151798 -25.050025,6.948406 -34.211713,12.169419 -4.818386,2.745874 -9.056739,4.974716 -9.418563,4.952981 C 31.465036,42.828481 17.115033,23.56534 17.639301,23.165062 17.860258,22.996361 21.362651,20.85668 25.422397,18.410215 53.642811,1.4041603 85.957466,-3.8723627 116.21912,3.5844083 c 24.15303,5.951549 37.89855,15.2535277 45.56577,30.8356587 3.61833,7.353545 3.87905,8.629389 3.82132,18.70006 -0.0561,9.797317 -0.41996,11.58794 -3.89018,19.147261 l -3.82822,8.33919 3.10891,9.546406 c 2.73506,8.39842 3.43138,9.5464 5.79034,9.5464 3.99358,0 9.46998,5.164396 10.32835,9.739916 0.97234,5.18302 -1.20058,10.29065 -6.48486,15.24313 -3.8778,3.63432 -4.34638,4.74747 -5.47352,13.00287 -1.03497,7.5803 -0.971,9.17474 0.39888,9.94136 0.89736,0.50218 2.48784,3.15521 3.53441,5.89561 1.81586,4.75476 1.8014,5.21189 -0.31621,9.9991 -1.6377,3.7023 -3.90739,6.13721 -8.66349,9.29412 -4.75297,3.15485 -7.13523,5.70953 -9.07635,9.73326 -8.45496,17.52632 -27.3848,36.28434 -46.29443,45.87427 -6.649964,3.37249 -9.955884,4.32796 -16.292024,4.70869 -4.37203,0.26271 -9.53641,0.0664 -11.47639,-0.43608 z m 15.00281,-25.80586 c 5.76451,-2.40857 13.381264,-7.6909 20.037144,-13.8961 5.49084,-5.11903 7.10259,-8.76643 3.40678,-7.70955 -1.093,0.31258 -10.16356,0.8842 -20.156784,1.27029 -19.07754,0.73708 -34.63559,2.55763 -34.63559,4.05296 0,1.69018 13.88113,13.43447 18.56642,15.70833 5.80199,2.81581 7.26005,2.8813 12.78203,0.57407 z m -40.79102,-40.28388 c 5.87847,-2.26011 15.51336,-3.36866 38.96799,-4.48348 22.086694,-1.04981 31.551504,-2.11014 41.116934,-4.60624 3.80972,-0.99415 4.39278,-1.67805 6.13051,-7.19076 2.95386,-9.37072 2.49855,-9.72438 -9.37735,-7.28388 -5.52643,1.13569 -20.01288,2.582 -32.192124,3.21405 -30.45673,1.58057 -40.42862,2.97182 -49.658595,6.92825 -5.427313,2.32643 -5.438352,2.38903 -1.932809,10.96047 1.659007,4.05645 2.251282,4.26636 6.945444,2.46159 z m 1.493418,-41.10676 c 8.968502,-2.33701 14.714712,-2.94595 34.067792,-3.61029 23.709054,-0.81386 36.855074,-2.4371 47.450594,-5.85906 5.45614,-1.76215 5.9218,-2.18962 5.91596,-5.43087 -0.008,-4.25535 -2.06128,-12.041546 -3.16992,-12.018596 -0.43908,0.009 -3.0979,0.82328 -5.90849,1.809316 -10.55463,3.70285 -20.53555,5.11039 -43.217244,6.09463 -23.59344,1.0238 -32.739543,2.43065 -44.564277,6.85486 l -6.47272,2.42175 v 6.86435 c 0,6.53624 0.122133,6.83616 2.555085,6.2747 1.405297,-0.3243 7.409746,-1.85466 13.34322,-3.40079 z m 5.110172,-41.753086 c 2.4983,-0.62505 14.76271,-1.620049 27.25424,-2.211109 26.362374,-1.247385 32.597794,-1.933937 35.262774,-3.882614 1.71964,-1.257426 1.23948,-1.811891 -4.25371,-4.912054 -16.559234,-9.345452 -36.945874,-9.585573 -53.153134,-0.626057 -6.97545,3.85609 -12.224765,7.930949 -13.651825,10.597434 -1.022158,1.90992 -0.82329,2.22119 1.40424,2.19794 1.427272,-0.0149 4.639105,-0.5385 7.137415,-1.16354 z"
     id="path6410"
     inkscape:connector-curvature="0" />
</svg>
