<?xml version="1.0" encoding="UTF-8" standalone="no"?>
<!-- Created with Inkscape (http://www.inkscape.org/) -->

<svg
   xmlns:dc="http://purl.org/dc/elements/1.1/"
   xmlns:cc="http://creativecommons.org/ns#"
   xmlns:rdf="http://www.w3.org/1999/02/22-rdf-syntax-ns#"
   xmlns:svg="http://www.w3.org/2000/svg"
   xmlns="http://www.w3.org/2000/svg"
   xmlns:sodipodi="http://sodipodi.sourceforge.net/DTD/sodipodi-0.dtd"
   xmlns:inkscape="http://www.inkscape.org/namespaces/inkscape"
   version="1.1"
   id="svg12"
   width="36.079327mm"
   height="61.453384mm"
   viewBox="0 0 136.36281 232.26476"
   sodipodi:docname="hermetica-fortuna.svg"
   inkscape:version="0.92.5 (2060ec1f9f, 2020-04-08)">
  <metadata
     id="metadata18">
    <rdf:RDF>
      <cc:Work
         rdf:about="">
        <dc:format>image/svg+xml</dc:format>
        <dc:type
           rdf:resource="http://purl.org/dc/dcmitype/StillImage" />
        <dc:title></dc:title>
      </cc:Work>
    </rdf:RDF>
  </metadata>
  <defs
     id="defs16" />
  <sodipodi:namedview
     pagecolor="#ffffff"
     bordercolor="#666666"
     borderopacity="1"
     objecttolerance="10"
     gridtolerance="10"
     guidetolerance="10"
     inkscape:pageopacity="0"
     inkscape:pageshadow="2"
     inkscape:window-width="1920"
     inkscape:window-height="997"
     id="namedview14"
     showgrid="false"
     units="mm"
     fit-margin-top="0"
     fit-margin-left="0"
     fit-margin-right="0"
     fit-margin-bottom="0"
     inkscape:zoom="0.88059701"
     inkscape:cx="280.85709"
     inkscape:cy="87.826813"
     inkscape:window-x="0"
     inkscape:window-y="28"
     inkscape:window-maximized="1"
     inkscape:current-layer="svg12" />
  <path
     style="fill:#ff0000;fill-opacity:0.01829266;stroke:#ff0000;stroke-width:0.56779659;stroke-miterlimit:4;stroke-dasharray:none;stroke-opacity:1"
     d="m 52.197598,0.42115781 -2.9043,2.28320349 c -1.59644,1.255757 -3.371835,2.283203 -3.945315,2.283203 -0.57349,0 -2.77832,1.179109 -4.90039,2.621094 l -3.85742,2.6210937 3.3457,5.044921 c 1.84024,2.773905 3.34661,5.416741 3.34961,5.873047 0.003,0.456304 1.79445,3.625675 3.980475,7.042969 2.18602,3.417294 3.97461,6.747765 3.97461,7.402344 0,0.771023 -5.398365,1.191406 -15.330085,1.191406 h -15.33202 v 9.083984 9.083985 h 15.33202 c 10.38625,0 15.330085,0.404272 15.330085,1.25 0,0.686579 -1.86586,4.390823 -4.14648,8.232422 -2.280635,3.841598 -5.558225,9.373767 -7.283215,12.294922 l -3.13672,5.3125 7.56641,4.617189 c 4.161765,2.54007 7.856235,4.621 8.208985,4.625 0.35276,0.0038 1.48495,-1.65373 2.51563,-3.6836 2.59043,-5.10172 9.91571,-18.008785 11.66211,-20.546871 1.31738,-1.914582 1.79037,-1.548376 5.51953,4.28125 2.24251,3.505611 4.07617,6.701892 4.07617,7.103516 0,0.548378 5.08742,9.134905 7.50586,12.667965 0.41938,0.61266 15.15959,-8.24773 15.1836,-9.126949 0.01195,-0.437952 -3.04356,-6.130076 -6.79102,-12.648438 -3.74746,-6.518363 -6.81445,-12.420491 -6.81445,-13.115234 0,-0.862385 4.68494,-1.263672 14.763672,-1.263672 h 14.76367 v -9.083985 -9.083984 h -14.76367 c -11.058862,0 -14.759962,-0.35657 -14.751962,-1.419922 0.0059,-0.780721 2.0506,-4.633793 4.54297,-8.5625 2.49238,-3.928706 4.53125,-7.516217 4.53125,-7.970703 0,-0.454486 1.23075,-2.637863 2.73633,-4.853515 l 2.73828,-4.0292967 -2.41015,-1.503907 c -4.25405,-2.656699 -12.45912,-6.865234 -13.38672,-6.865234 -0.49437,0 -3.15177,3.962268 -5.90625,8.8027337 -10.87364,19.108266 -9.81148,18.401143 -14.50391,9.619141 -1.72871,-3.235318 -5.0143,-8.963315 -7.30273,-12.7304687 z M 65.012048,95.995381 c -10.68235,0.11385 -17.6714,2.03942 -27.988285,7.123039 -14.30653,7.04953 -22.6878,15.57667 -30.2167899,30.7461 -5.40925,10.89858 -5.66855,11.86138 -6.29882995,23.29297 -0.86965,15.77334 0.70533995,25.08365 6.05077995,35.75 9.7390899,19.43348 23.9112399,30.87941 45.8164149,37 14.33952,4.00664 29.15698,2.2238 45.42382,-5.46485 6.413002,-3.03114 10.644832,-6.15888 17.130862,-12.66015 9.74633,-9.76927 13.43719,-15.50861 17.56055,-27.31055 8.27791,-23.69321 2.02175,-49.58486 -16.5293,-68.41211 -7.31728,-7.42623 -10.46592,-9.67199 -19.697262,-14.04492 -10.39042,-4.921989 -11.6511,-5.238979 -23.17969,-5.826179 -2.94477,-0.14997 -5.60711,-0.21963 -8.07227,-0.19335 z m -5.82226,18.853509 v 12.07031 c 0,9.02437 -0.36656,12.06836 -1.44922,12.06836 -0.79636,0 -5.18199,-3.76071 -9.74609,-8.35547 l -8.296885,-8.35351 5.05859,-2.96485 c 2.783045,-1.63097 7.168695,-3.30269 9.746105,-3.71484 z m 20.50976,0.29102 c 3.3311,0 14.69336,5.57617 14.69336,7.21093 0,0.75211 -3.4618,4.80282 -7.69336,9.00196 -4.23157,4.19913 -8.06482,7.63476 -8.51757,7.63476 -0.45276,0 -0.82227,-5.36575 -0.82227,-11.92383 0,-11.28603 0.12356,-11.92382 2.33984,-11.92382 z m -53.193355,20.17773 8.39257,8.33594 c 4.61564,4.58483 8.39258,8.98685 8.39258,9.7832 0,1.0827 -3.04629,1.44922 -12.07421,1.44922 h -12.07227 l 0.60938,-4.54297 c 0.33506,-2.49812 1.9901,-6.90014 3.67968,-9.7832 z m 82.208987,1.39844 c 1.45157,0 6.86798,10.76641 7.42578,14.76172 l 0.39649,2.83984 -12.20899,0.32227 c -9.474282,0.25015 -12.207032,-0.0109 -12.207032,-1.16602 0,-1.76512 14.845872,-16.75781 16.593752,-16.75781 z m 0.10547,36.32617 c 9.93367,-0.006 8.83191,0.54079 4.82617,9.66602 -4.21155,9.59401 -4.03428,9.59942 -14.119142,-0.54493 l -9.05664,-9.10937 h 13.392582 c 1.89328,0 3.53793,-0.0109 4.95703,-0.0117 z m -89.673837,0.0117 h 12.07227 c 6.63976,0 12.07226,0.38663 12.07226,0.85742 0,0.47078 -2.71397,3.66484 -6.03125,7.09766 -11.06798,11.45348 -10.34447,11.17508 -13.80078,5.27734 -1.64729,-2.81089 -3.29186,-6.93651 -3.65429,-9.16992 z m 38.632815,14.76367 c 1.15201,0 1.41387,2.72537 1.16406,12.11524 -0.18214,6.84673 -0.81527,12.24135 -1.45703,12.40625 -1.61006,0.41373 -8.32203,-2.20293 -13.435545,-5.23829 l -4.34766,-2.58007 8.294925,-8.35157 c 4.5625,-4.59315 8.96376,-8.35156 9.78125,-8.35156 z m 20.46094,0 c 1.40151,0 16.15234,15.24667 16.15234,16.69531 0,0.71911 -2.68386,2.5813 -5.96289,4.13868 -11.77627,5.59317 -11.07031,6.1193 -11.07031,-8.26563 0,-6.91243 0.39568,-12.56836 0.88086,-12.56836 z"
     id="path5403"
     inkscape:connector-curvature="0" />
</svg>
