<?xml version="1.0" encoding="UTF-8" standalone="no"?>
<!-- Created with Inkscape (http://www.inkscape.org/) -->

<svg
   xmlns:dc="http://purl.org/dc/elements/1.1/"
   xmlns:cc="http://creativecommons.org/ns#"
   xmlns:rdf="http://www.w3.org/1999/02/22-rdf-syntax-ns#"
   xmlns:svg="http://www.w3.org/2000/svg"
   xmlns="http://www.w3.org/2000/svg"
   xmlns:sodipodi="http://sodipodi.sourceforge.net/DTD/sodipodi-0.dtd"
   xmlns:inkscape="http://www.inkscape.org/namespaces/inkscape"
   version="1.1"
   id="svg62"
   width="62.685665mm"
   height="62.946167mm"
   viewBox="0 0 236.9222 237.90677"
   sodipodi:docname="hermetica-mjolnir.svg"
   inkscape:version="0.92.5 (2060ec1f9f, 2020-04-08)">
  <metadata
     id="metadata68">
    <rdf:RDF>
      <cc:Work
         rdf:about="">
        <dc:format>image/svg+xml</dc:format>
        <dc:type
           rdf:resource="http://purl.org/dc/dcmitype/StillImage" />
        <dc:title></dc:title>
      </cc:Work>
    </rdf:RDF>
  </metadata>
  <defs
     id="defs66" />
  <sodipodi:namedview
     pagecolor="#ffffff"
     bordercolor="#666666"
     borderopacity="1"
     objecttolerance="10"
     gridtolerance="10"
     guidetolerance="10"
     inkscape:pageopacity="0"
     inkscape:pageshadow="2"
     inkscape:window-width="1920"
     inkscape:window-height="997"
     id="namedview64"
     showgrid="false"
     units="mm"
     fit-margin-top="0"
     fit-margin-left="0"
     fit-margin-right="0"
     fit-margin-bottom="0"
     inkscape:zoom="0.88059701"
     inkscape:cx="118.60951"
     inkscape:cy="118.61271"
     inkscape:window-x="0"
     inkscape:window-y="28"
     inkscape:window-maximized="1"
     inkscape:current-layer="svg62" />
  <path
     style="fill:#ff0000;fill-opacity:0.01829266;stroke:#ff0000;stroke-width:0.56779659;stroke-miterlimit:4;stroke-dasharray:none;stroke-opacity:1"
     d="M 113.21243,233.29933 C 96.202364,216.89271 59.771204,206.96187 16.593854,206.96187 c -12.2951669,0 -16.31236585,-0.34963 -16.30995485,-1.41949 0.0062,-2.75167 2.28025595,-22.12394 5.33216195,-45.42373 l 3.086454,-23.56356 H 29.836343 c 28.616802,0 34.184501,-1.60672 42.148176,-12.16308 3.413027,-4.52418 5.001357,-8.78001 9.446578,-25.311503 7.106187,-26.427442 9.909207,-36.613135 10.547097,-38.326271 0.40293,-1.082117 -2.46922,-1.419491 -12.084472,-1.419491 H 67.2807 V 29.809321 0.28389829 h 52.23728 52.23729 V 29.809321 59.334745 H 158.0767 144.39812 l 0.76381,4.258475 c 0.4201,2.342161 2.43044,10.135169 4.46742,17.317796 2.03698,7.182631 4.84351,17.658471 6.23671,23.279664 3.16641,12.77555 6.48715,19.43158 12.32655,24.70712 7.1613,6.46981 13.03446,7.65729 37.87222,7.65729 16.10992,0 21.52531,0.35118 21.88888,1.41949 0.26571,0.78072 1.0482,7.55169 1.73887,15.04661 1.12778,12.23832 4.67923,40.66112 6.27877,50.25 l 0.61566,3.69068 h -16.36462 c -17.2062,0 -45.1759,3.14242 -56.41627,6.33842 -18.85153,5.36011 -28.54303,10.19059 -39.01688,19.44698 -3.0343,2.68159 -5.87179,4.87561 -6.30557,4.87561 -0.43376,0 -2.80582,-1.9456 -5.27124,-4.32355 z m 9.17576,-30.14585 c 4.05595,-2.78341 20.83729,-9.906 27.49903,-11.67153 3.59565,-0.95295 10.37017,-2.73506 15.05449,-3.96025 4.68433,-1.22518 16.16789,-3.0018 25.51902,-3.94805 9.35114,-0.94625 17.13405,-1.85241 17.29533,-2.0137 0.16129,-0.16129 -0.30067,-4.73219 -1.02657,-10.15754 l -1.31983,-9.86427 H 118.2427 c -47.941816,0 -87.434084,0.43224 -87.76059,0.96054 -1.127861,1.82492 -2.144574,19.47999 -1.123155,19.50344 0.558231,0.0128 8.424712,0.74714 17.481067,1.63185 22.199749,2.16865 44.702042,7.9692 59.050848,15.2219 12.15006,6.14132 13.35379,6.45489 16.49732,4.29761 z m 17.15804,-68.58568 c -6.37225,-18.69632 -8.81835,-26.54969 -10.41774,-33.44676 -1.05685,-4.557463 -3.65156,-14.215673 -5.76602,-21.462699 -2.11447,-7.247023 -3.84449,-14.060583 -3.84449,-15.141244 0,-4.756882 -2.91252,-0.325675 -4.85428,7.385446 -1.169,4.642372 -3.82479,14.572884 -5.90175,22.067794 -2.07696,7.494923 -4.66977,17.204243 -5.7618,21.576273 -1.09203,4.37204 -3.187926,10.3595 -4.657556,13.30548 -1.46964,2.94596 -2.67206,5.88431 -2.67206,6.52966 0,0.76751 7.704736,1.17334 22.276506,1.17334 20.71669,0 22.22909,-0.13916 21.59919,-1.98729 z M 147.69587,29.525423 147.34002,25.834745 119.80188,25.530657 92.263754,25.22657 v 3.994765 3.994766 h 27.893976 27.89399 z"
     id="path6450"
     inkscape:connector-curvature="0" />
</svg>
