<?xml version="1.0" encoding="UTF-8" standalone="no"?>
<!-- Created with Inkscape (http://www.inkscape.org/) -->

<svg
   xmlns:dc="http://purl.org/dc/elements/1.1/"
   xmlns:cc="http://creativecommons.org/ns#"
   xmlns:rdf="http://www.w3.org/1999/02/22-rdf-syntax-ns#"
   xmlns:svg="http://www.w3.org/2000/svg"
   xmlns="http://www.w3.org/2000/svg"
   xmlns:sodipodi="http://sodipodi.sourceforge.net/DTD/sodipodi-0.dtd"
   xmlns:inkscape="http://www.inkscape.org/namespaces/inkscape"
   version="1.1"
   id="svg82"
   width="44.870201mm"
   height="63.568588mm"
   viewBox="0 0 169.58816 240.25923"
   sodipodi:docname="hermetica-ninos_cross.svg"
   inkscape:version="0.92.5 (2060ec1f9f, 2020-04-08)">
  <metadata
     id="metadata88">
    <rdf:RDF>
      <cc:Work
         rdf:about="">
        <dc:format>image/svg+xml</dc:format>
        <dc:type
           rdf:resource="http://purl.org/dc/dcmitype/StillImage" />
        <dc:title></dc:title>
      </cc:Work>
    </rdf:RDF>
  </metadata>
  <defs
     id="defs86" />
  <sodipodi:namedview
     pagecolor="#ffffff"
     bordercolor="#666666"
     borderopacity="1"
     objecttolerance="10"
     gridtolerance="10"
     guidetolerance="10"
     inkscape:pageopacity="0"
     inkscape:pageshadow="2"
     inkscape:window-width="1920"
     inkscape:window-height="997"
     id="namedview84"
     showgrid="false"
     units="mm"
     fit-margin-top="0"
     fit-margin-left="0"
     fit-margin-right="0"
     fit-margin-bottom="0"
     inkscape:zoom="0.88059701"
     inkscape:cx="279.86695"
     inkscape:cy="122.0195"
     inkscape:window-x="0"
     inkscape:window-y="28"
     inkscape:window-maximized="1"
     inkscape:current-layer="svg82" />
  <path
     style="fill:#ff0000;fill-opacity:0.01829266;stroke:#ff0000;stroke-width:0.56779659;stroke-miterlimit:4;stroke-dasharray:none;stroke-opacity:1"
     d="m 69.559204,170.98804 c 0.0358,-65.37619 -0.0673,-68.96714 -1.97043,-68.60231 -1.10455,0.21174 -3.54132,1.30483 -5.41505,2.4291 -10.31997,6.19216 -50.991096,26.13161 -51.717296,25.35496 -1.3048797,-1.39554 -10.17252971,-19.19884 -10.17252971,-20.42306 0,-0.59146 9.07055001,-5.7326 20.15677971,-11.424756 11.08623,-5.69215 26.54449,-13.66143 34.351696,-17.70949 l 14.19491,-7.360117 0.29968,-36.48065 0.29968,-36.48064795 12.75964,0.320942 12.75965,0.320943 0.29992,36.10976995 0.29993,36.10977 7.081426,3.223465 c 8.05557,3.666894 65.94344,31.901061 66.49061,32.430061 0.521,0.50369 -9.98689,22.15236 -10.75238,22.15236 -0.3547,0 -13.51795,-6.32108 -29.25166,-14.04684 -15.73371,-7.72575 -29.730246,-14.40341 -31.103406,-14.83923 l -2.49665,-0.79241 v 69.34771 69.34772 h -13.07618 -13.07617 l 0.0378,-68.98729 z"
     id="path5283"
     inkscape:connector-curvature="0" />
</svg>
