<?xml version="1.0" encoding="UTF-8" standalone="no"?>
<!-- Created with Inkscape (http://www.inkscape.org/) -->

<svg
   xmlns:dc="http://purl.org/dc/elements/1.1/"
   xmlns:cc="http://creativecommons.org/ns#"
   xmlns:rdf="http://www.w3.org/1999/02/22-rdf-syntax-ns#"
   xmlns:svg="http://www.w3.org/2000/svg"
   xmlns="http://www.w3.org/2000/svg"
   xmlns:sodipodi="http://sodipodi.sourceforge.net/DTD/sodipodi-0.dtd"
   xmlns:inkscape="http://www.inkscape.org/namespaces/inkscape"
   version="1.1"
   id="svg12"
   width="28.280706mm"
   height="61.785534mm"
   viewBox="0 0 106.88771 233.52013"
   sodipodi:docname="esoterica-sema.svg"
   inkscape:version="0.92.5 (2060ec1f9f, 2020-04-08)">
  <metadata
     id="metadata18">
    <rdf:RDF>
      <cc:Work
         rdf:about="">
        <dc:format>image/svg+xml</dc:format>
        <dc:type
           rdf:resource="http://purl.org/dc/dcmitype/StillImage" />
        <dc:title></dc:title>
      </cc:Work>
    </rdf:RDF>
  </metadata>
  <defs
     id="defs16" />
  <sodipodi:namedview
     pagecolor="#ffffff"
     bordercolor="#666666"
     borderopacity="1"
     objecttolerance="10"
     gridtolerance="10"
     guidetolerance="10"
     inkscape:pageopacity="0"
     inkscape:pageshadow="2"
     inkscape:window-width="1920"
     inkscape:window-height="997"
     id="namedview14"
     showgrid="false"
     units="mm"
     fit-margin-top="0"
     fit-margin-left="0"
     fit-margin-right="0"
     fit-margin-bottom="0"
     inkscape:zoom="0.88059701"
     inkscape:cx="53.189448"
     inkscape:cy="116.49725"
     inkscape:window-x="0"
     inkscape:window-y="28"
     inkscape:window-maximized="1"
     inkscape:current-layer="svg12" />
  <path
     style="fill:#000000;fill-opacity:0;stroke:#ff0000;stroke-width:0.56779659;stroke-miterlimit:4;stroke-dasharray:none;stroke-opacity:1"
     d="M 39.725128,230.74221 C 28.222398,225.04839 22.371148,215.4075 21.099268,200.05304 20.146138,188.54654 17.884434,183.20457 9.6651316,173.04647 2.4226766,164.09564 0.14335356,158.26041 0.29043156,149.04661 0.54942456,132.82172 12.295281,119.86927 28.801408,117.60686 l 5.1553,-0.70661 -0.77235,-10.32937 c -0.71529,-9.566239 -2.32295,-22.437229 -5.26177,-42.125965 -0.65259,-4.372034 -2.86111,-14.847881 -4.90783,-23.279661 L 19.293458,25.834745 11.144844,25.501097 2.9962276,25.167449 V 12.725673 0.28389829 H 54.097918 105.19962 V 12.775423 25.266949 h -8.485232 -8.48522 l -1.82036,6.529661 c -1.0012,3.591313 -2.27777,8.062712 -2.83683,9.93644 -3.097,10.379794 -10.16897,58.61424 -10.16897,69.35757 v 5.85067 l 5.09555,0.69842 c 2.80255,0.38414 8.04047,2.20378 11.63983,4.04366 10.930052,5.58709 16.384062,14.65776 16.463712,27.3811 0.0643,10.2649 -1.60667,14.5378 -9.428732,24.11102 -7.68317,9.40324 -9.81227,14.63572 -11.35805,27.91353 -1.69987,14.60139 -7.3714,23.64974 -18.33642,29.2539 -7.21564,3.68787 -20.71769,3.88213 -27.75377,0.39929 z m 19.10753,-24.63204 c 0.96438,-1.14081 2.25999,-6.8029 3.0417,-13.29286 1.56434,-12.98768 6.06193,-23.42877 14.54091,-33.75647 6.28378,-7.65388 6.86596,-9.54199 4.09273,-13.27358 -3.16605,-4.26016 -6.95983,-4.32385 -12.14415,-0.20386 -8.96896,7.12763 -21.66845,7.16963 -29.72226,0.0982 -4.5506,-3.99543 -8.57794,-4.39736 -11.7979,-1.17739 -3.01814,3.01813 -2.8742,7.44937 0.34659,10.67017 10.43366,10.43366 18.91046,29.55463 18.94501,42.73392 0.0178,6.79075 2.44698,10.18913 7.28323,10.18913 2.15931,0 4.44269,-0.83813 5.41414,-1.98729 z M 58.117718,42.430416 c 2.04729,-8.494271 3.48325,-15.83098 3.19103,-16.303798 -0.29222,-0.472818 -3.88078,-0.859669 -7.97458,-0.859669 h -7.44328 l 0.73954,5.394068 c 0.81653,5.955626 4.98903,25.987031 5.97268,28.673728 0.8401,2.294599 1.02084,1.740565 5.51461,-16.904329 z"
     id="path5413"
     inkscape:connector-curvature="0" />
</svg>
