<?xml version="1.0" encoding="UTF-8" standalone="no"?>
<!-- Created with Inkscape (http://www.inkscape.org/) -->

<svg
   xmlns:dc="http://purl.org/dc/elements/1.1/"
   xmlns:cc="http://creativecommons.org/ns#"
   xmlns:rdf="http://www.w3.org/1999/02/22-rdf-syntax-ns#"
   xmlns:svg="http://www.w3.org/2000/svg"
   xmlns="http://www.w3.org/2000/svg"
   xmlns:sodipodi="http://sodipodi.sourceforge.net/DTD/sodipodi-0.dtd"
   xmlns:inkscape="http://www.inkscape.org/namespaces/inkscape"
   version="1.1"
   id="svg62"
   width="61.631554mm"
   height="61.531162mm"
   viewBox="0 0 232.93816 232.55873"
   sodipodi:docname="esoterica-cancel.svg"
   inkscape:version="0.92.5 (2060ec1f9f, 2020-04-08)">
  <metadata
     id="metadata68">
    <rdf:RDF>
      <cc:Work
         rdf:about="">
        <dc:format>image/svg+xml</dc:format>
        <dc:type
           rdf:resource="http://purl.org/dc/dcmitype/StillImage" />
        <dc:title></dc:title>
      </cc:Work>
    </rdf:RDF>
  </metadata>
  <defs
     id="defs66" />
  <sodipodi:namedview
     pagecolor="#ffffff"
     bordercolor="#666666"
     borderopacity="1"
     objecttolerance="10"
     gridtolerance="10"
     guidetolerance="10"
     inkscape:pageopacity="0"
     inkscape:pageshadow="2"
     inkscape:window-width="1920"
     inkscape:window-height="997"
     id="namedview64"
     showgrid="false"
     units="mm"
     fit-margin-top="0"
     fit-margin-left="0"
     fit-margin-right="0"
     fit-margin-bottom="0"
     inkscape:zoom="0.88059701"
     inkscape:cx="-139.082"
     inkscape:cy="116.21422"
     inkscape:window-x="0"
     inkscape:window-y="28"
     inkscape:window-maximized="1"
     inkscape:current-layer="svg62" />
  <path
     style="fill:#000000;fill-opacity:0;stroke:#ff0000;stroke-width:0.56779659;stroke-miterlimit:4;stroke-dasharray:none;stroke-opacity:1"
     d="M 116.19991,0.28395975 C 102.28026,0.29429975 97.977398,0.74650675 88.377638,3.2019288 55.958398,11.494106 29.775768,31.740246 13.725298,60.928491 9.1143478,69.313648 5.8513478,78.034026 2.6081178,90.641387 c -2.85616997,11.102683 -3.12428997,38.499843 -0.48633,49.691403 11.0300202,46.79489 44.5688802,79.92061 91.9335902,90.79883 2.49831,0.57378 12.463602,1.08472 22.144532,1.13672 18.79904,0.10105 24.79866,-0.91015 41.66015,-7.02539 28.12063,-10.19865 51.91595,-32.64954 64.99219,-61.32227 13.41128,-29.40736 13.02095,-68.674983 -0.9668,-97.298829 C 214.98204,52.495053 209.96359,45.49659 198.61788,34.178491 186.58679,22.176683 178.56246,16.529613 164.46163,10.135523 148.35132,2.8302218 135.81129,0.26939975 116.19991,0.28395975 Z M 115.5417,24.592554 c 1.10538,-0.02076 2.20856,-0.02074 3.31055,0 22.66945,0.426761 44.53822,9.626404 62.07617,27.226562 11.4793,11.520002 17.6977,21.615952 22.82617,37.054691 3.48375,10.4874 3.73493,12.285533 3.79493,27.130863 0.0604,14.97442 -0.15067,16.55788 -3.64844,27.2539 -2.04246,6.24576 -4.95436,13.40014 -6.4707,15.89844 -1.51635,2.49831 -3.75405,6.32961 -4.97266,8.51562 -2.92649,5.24975 -14.23289,16.73916 -22.43555,22.79883 -7.55003,5.57752 -18.98304,11.37818 -27.83398,14.1211 -6.0009,1.85971 -33.42427,3.28177 -41.32031,2.14257 -10.534392,-1.51982 -25.616342,-7.57061 -35.681642,-14.31445 -7.4322,-4.97964 -18.86713,-16.30492 -23.98047,-23.75 -4.995,-7.27277 -11.51123,-20.70637 -13.70312,-28.25195 -2.3956,-8.24683 -2.08912,-40.947563 0.46093,-49.201173 6.38705,-20.672616 21.713,-41.343481 38.20118,-51.523441 15.88004,-9.804496 32.79637,-14.790152 49.376942,-15.101562 z m -37.062492,36.064453 -8.96875,8.916016 -8.96875,8.917968 19.01562,19.039066 19.01562,19.041013 -18.89843,19.02149 -18.89648,19.02148 8.68945,8.68945 8.68945,8.68946 19.02148,-18.89649 19.021492,-18.89843 19.04101,19.01562 19.03907,19.01563 8.91796,-8.96875 8.91602,-8.96875 -18.30469,-18.24415 c -10.06778,-10.03434 -18.30469,-18.89919 -18.30469,-19.69921 1e-5,-0.80001 8.20768,-9.67431 18.24024,-19.720713 l 18.24219,-18.267575 -8.78907,-8.787109 -8.7871,-8.789063 -18.26758,18.242188 c -10.0464,10.032559 -18.9207,18.240239 -19.72071,18.240239 -0.80002,-10e-6 -9.66486,-8.23691 -19.699212,-18.304692 z"
     id="path5262"
     inkscape:connector-curvature="0" />
</svg>
