<?xml version="1.0" encoding="UTF-8" standalone="no"?>
<!-- Created with Inkscape (http://www.inkscape.org/) -->

<svg
   xmlns:dc="http://purl.org/dc/elements/1.1/"
   xmlns:cc="http://creativecommons.org/ns#"
   xmlns:rdf="http://www.w3.org/1999/02/22-rdf-syntax-ns#"
   xmlns:svg="http://www.w3.org/2000/svg"
   xmlns="http://www.w3.org/2000/svg"
   xmlns:sodipodi="http://sodipodi.sourceforge.net/DTD/sodipodi-0.dtd"
   xmlns:inkscape="http://www.inkscape.org/namespaces/inkscape"
   version="1.1"
   id="svg82"
   width="54.882675mm"
   height="61.913937mm"
   viewBox="0 0 207.43058 234.00543"
   sodipodi:docname="hermetica-honey.svg"
   inkscape:version="0.92.5 (2060ec1f9f, 2020-04-08)">
  <metadata
     id="metadata88">
    <rdf:RDF>
      <cc:Work
         rdf:about="">
        <dc:format>image/svg+xml</dc:format>
        <dc:type
           rdf:resource="http://purl.org/dc/dcmitype/StillImage" />
        <dc:title></dc:title>
      </cc:Work>
    </rdf:RDF>
  </metadata>
  <defs
     id="defs86" />
  <sodipodi:namedview
     pagecolor="#ffffff"
     bordercolor="#666666"
     borderopacity="1"
     objecttolerance="10"
     gridtolerance="10"
     guidetolerance="10"
     inkscape:pageopacity="0"
     inkscape:pageshadow="2"
     inkscape:window-width="1920"
     inkscape:window-height="997"
     id="namedview84"
     showgrid="false"
     units="mm"
     fit-margin-top="0"
     fit-margin-left="0"
     fit-margin-right="0"
     fit-margin-bottom="0"
     inkscape:zoom="0.88059701"
     inkscape:cx="-78.75339"
     inkscape:cy="116.66092"
     inkscape:window-x="0"
     inkscape:window-y="28"
     inkscape:window-maximized="1"
     inkscape:current-layer="svg82" />
  <path
     style="fill:#ff0000;fill-opacity:0.01829266;stroke:#ff0000;stroke-width:0.56779659;stroke-miterlimit:4;stroke-dasharray:none;stroke-opacity:1"
     d="m 0.28389829,221.22996 v -12.47582 l 9.40455301,-0.72288 c 11.9585397,-0.91921 19.3990047,-3.12948 31.4768027,-9.35051 9.8156,-5.05583 23.279553,-15.91019 29.638108,-23.89365 9.49236,-11.9181 17.56588,-30.97732 19.69298,-46.48936 l 0.78711,-5.74001 -5.47886,-2.98196 c -13.5785,-7.39034 -32.155702,-6.32487 -43.298956,2.48337 -10.018901,7.91948 -14.674253,15.49111 -16.625461,27.0402 l -0.812859,4.81127 H 12.675607 c -9.1683017,0 -12.38585671,-0.36925 -12.36921371,-1.41949 0.23239,-14.66477 7.88521401,-32.14931 19.01546171,-43.44498 9.538984,-9.680746 24.213157,-17.228546 36.648431,-18.850476 8.369063,-1.09158 21.157706,-0.479 27.404986,1.3127 3.91083,1.12161 4.08208,-0.0174 1.159,-7.70845 C 78.044742,66.72499 62.307002,48.222449 46.267175,38.810084 35.484129,32.482459 19.297312,27.029551 8.2487903,26.0027 L 0.28389829,25.262441 V 12.787255 0.31206975 L 8.5169493,1.0921668 C 28.679787,3.0026348 48.892939,10.144978 65.151944,21.104216 c 10.118518,6.820296 26.797588,24.087091 32.694088,33.846137 2.724328,4.508924 5.398688,8.049591 5.943018,7.868149 0.54433,-0.181442 2.90144,-3.487917 5.23803,-7.347723 11.02766,-18.216576 28.07287,-33.150075 49.67207,-43.518264 11.95276,-5.7376402 25.89945,-9.5214832 40.02966,-10.8603482 l 8.23305,-0.78009705 V 12.950326 25.588582 l -4.25847,0.01971 c -2.34216,0.0109 -7.68865,0.746664 -11.88108,1.635154 -37.34295,7.913991 -65.14046,35.317259 -72.53299,71.504278 -1.25938,6.164756 -2.01541,11.923626 -1.68008,12.797476 0.33533,0.87386 4.06605,3.21345 8.29048,5.19908 6.50529,3.05772 8.98425,3.60886 16.19774,3.60121 20.12019,-0.0214 36.45439,-14.16774 40.35276,-34.947866 l 0.78135,-4.164978 h 12.43472 12.43474 l -0.80737,5.394068 c -2.55269,17.054586 -8.17242,28.649246 -19.12649,39.461866 -8.69242,8.58019 -17.493,13.77168 -28.11138,16.58302 -9.19492,2.43446 -25.15271,2.97108 -31.57796,1.06186 -5.80699,-1.7255 -6.82105,-1.48592 -6.82105,1.61153 0,3.2504 8.93189,20.6957 13.97893,27.30291 8.52385,11.15877 20.53617,20.91675 33.53939,27.24503 10.62763,5.17216 18.24612,7.28234 29.38221,8.13833 l 9.40455,0.72288 v 12.47582 12.47582 l -11.07203,-0.59802 c -13.17345,-0.71154 -30.83324,-6.04842 -43.77151,-13.22797 -17.65358,-9.79612 -35.68732,-27.08222 -44.23972,-42.40562 -2.0044,-3.59131 -3.90968,-6.50881 -4.23394,-6.48332 -0.32427,0.0254 -2.88357,3.73036 -5.687328,8.23305 -18.97155,30.46726 -53.755039,52.10972 -86.6014,53.88386 l -11.07203371,0.59802 z"
     id="path5241"
     inkscape:connector-curvature="0" />
</svg>
