<?xml version="1.0" encoding="UTF-8" standalone="no"?>
<!-- Created with Inkscape (http://www.inkscape.org/) -->

<svg
   xmlns:dc="http://purl.org/dc/elements/1.1/"
   xmlns:cc="http://creativecommons.org/ns#"
   xmlns:rdf="http://www.w3.org/1999/02/22-rdf-syntax-ns#"
   xmlns:svg="http://www.w3.org/2000/svg"
   xmlns="http://www.w3.org/2000/svg"
   xmlns:sodipodi="http://sodipodi.sourceforge.net/DTD/sodipodi-0.dtd"
   xmlns:inkscape="http://www.inkscape.org/namespaces/inkscape"
   version="1.1"
   id="svg2"
   width="66.933296mm"
   height="66.847404mm"
   viewBox="0 0 252.97624 252.65161"
   sodipodi:docname="esoterica-perkonkrusts_alt.svg"
   inkscape:version="0.92.5 (2060ec1f9f, 2020-04-08)">
  <metadata
     id="metadata8">
    <rdf:RDF>
      <cc:Work
         rdf:about="">
        <dc:format>image/svg+xml</dc:format>
        <dc:type
           rdf:resource="http://purl.org/dc/dcmitype/StillImage" />
        <dc:title></dc:title>
      </cc:Work>
    </rdf:RDF>
  </metadata>
  <defs
     id="defs6" />
  <sodipodi:namedview
     pagecolor="#ffffff"
     bordercolor="#666666"
     borderopacity="1"
     objecttolerance="10"
     gridtolerance="10"
     guidetolerance="10"
     inkscape:pageopacity="0"
     inkscape:pageshadow="2"
     inkscape:window-width="1920"
     inkscape:window-height="997"
     id="namedview4"
     showgrid="false"
     inkscape:zoom="0.88059701"
     inkscape:cx="127.12142"
     inkscape:cy="125.42627"
     inkscape:window-x="0"
     inkscape:window-y="28"
     inkscape:window-maximized="1"
     inkscape:current-layer="svg2"
     units="mm"
     fit-margin-top="0"
     fit-margin-left="0"
     fit-margin-right="0"
     fit-margin-bottom="0" />
  <path
     style="fill:#000000;fill-opacity:0;stroke:#ff0000;stroke-width:0.56779659;stroke-miterlimit:4;stroke-dasharray:none;stroke-opacity:1"
     d="m 90.548563,216.58324 -35.764426,-35.78447 26.986822,-26.92387 26.986811,-26.92388 -4.56277,-4.56277 -4.562765,-4.56277 -27.120877,27.10321 -27.120882,27.10323 -8.64639,-8.33873 c -4.755515,-4.58631 -8.64639,-8.75814 -8.64639,-9.27073 0,-0.5126 12.075489,-12.9764 26.834419,-27.69735 L 81.766532,99.959767 77.072267,95.265497 72.378002,90.571236 45.182788,117.74875 17.987574,144.92625 9.1945148,136.1332 0.40145486,127.34014 36.102986,91.625102 C 55.738827,71.981835 72.21359,55.910073 72.713567,55.910073 c 0.499979,0 12.616906,11.75339 26.926498,26.118644 14.309595,14.36525 26.447525,26.118643 26.973175,26.118643 0.52565,0 2.83931,-1.92897 5.14149,-4.28661 l 4.18576,-4.286613 -27.14279,-27.12512 -27.142787,-27.125119 8.70868,-8.81724 8.708682,-8.81724 27.285485,27.192366 27.28549,27.192366 4.22722,-4.329071 c 2.32497,-2.380988 4.22722,-4.814629 4.22722,-5.40809 0,-0.593461 -11.99126,-13.091831 -26.64726,-27.774154 L 108.80317,17.8677 117.63865,9.1340344 126.47413,0.40036919 162.52382,36.463266 198.5735,72.526162 171.74575,99.359937 c -29.44578,29.452373 -28.71994,28.276243 -20.89078,33.851093 l 3.52461,2.50974 27.03788,-27.02028 27.03787,-27.020277 8.66373,8.920443 8.66372,8.920441 -26.73237,26.749803 c -14.70281,14.71238 -26.73238,27.29911 -26.73238,27.97052 0,0.67141 2.09936,2.90784 4.66523,4.96982 l 4.66524,3.74909 27.00914,-26.99156 27.00914,-26.99155 8.66397,8.83429 c 4.76518,4.85888 8.52506,8.99849 8.35529,9.19916 -0.16978,0.20067 -16.39968,16.4814 -36.06644,36.17941 l -35.75775,35.81456 -27.29745,-27.28039 -27.29745,-27.28039 -4.41171,4.65569 -4.41171,4.65569 26.86945,26.88695 c 14.77821,14.78783 26.86946,27.21964 26.86946,27.62625 0,0.4066 -3.86465,4.51726 -8.58812,9.1348 l -8.58811,8.39553 -26.44647,-26.46129 c -14.54557,-14.55372 -27.05879,-26.4613 -27.807155,-26.4613 -0.74838,0 -3.22533,1.81092 -5.50434,4.02427 l -4.143655,4.02427 27.15488,27.17257 27.1549,27.17259 -3.36597,3.54392 c -7.48194,7.87752 -13.35621,13.5539 -14.02638,13.5539 -0.38997,0 -16.80303,-16.103 -36.473457,-35.78446 z"
     id="path5386"
     inkscape:connector-curvature="0" />
</svg>
