<?xml version="1.0" encoding="UTF-8" standalone="no"?>
<!-- Created with Inkscape (http://www.inkscape.org/) -->

<svg
   xmlns:dc="http://purl.org/dc/elements/1.1/"
   xmlns:cc="http://creativecommons.org/ns#"
   xmlns:rdf="http://www.w3.org/1999/02/22-rdf-syntax-ns#"
   xmlns:svg="http://www.w3.org/2000/svg"
   xmlns="http://www.w3.org/2000/svg"
   xmlns:sodipodi="http://sodipodi.sourceforge.net/DTD/sodipodi-0.dtd"
   xmlns:inkscape="http://www.inkscape.org/namespaces/inkscape"
   version="1.1"
   id="svg2"
   width="62.842896mm"
   height="54.299931mm"
   viewBox="0 0 237.51646 205.22809"
   sodipodi:docname="hermetica-water.svg"
   inkscape:version="0.92.5 (2060ec1f9f, 2020-04-08)">
  <metadata
     id="metadata8">
    <rdf:RDF>
      <cc:Work
         rdf:about="">
        <dc:format>image/svg+xml</dc:format>
        <dc:type
           rdf:resource="http://purl.org/dc/dcmitype/StillImage" />
        <dc:title></dc:title>
      </cc:Work>
    </rdf:RDF>
  </metadata>
  <defs
     id="defs6" />
  <sodipodi:namedview
     pagecolor="#ffffff"
     bordercolor="#666666"
     borderopacity="1"
     objecttolerance="10"
     gridtolerance="10"
     guidetolerance="10"
     inkscape:pageopacity="0"
     inkscape:pageshadow="2"
     inkscape:window-width="1920"
     inkscape:window-height="997"
     id="namedview4"
     showgrid="false"
     units="mm"
     fit-margin-top="0"
     fit-margin-left="0"
     fit-margin-right="0"
     fit-margin-bottom="0"
     inkscape:zoom="0.88059701"
     inkscape:cx="118.32839"
     inkscape:cy="102.02483"
     inkscape:window-x="0"
     inkscape:window-y="28"
     inkscape:window-maximized="1"
     inkscape:current-layer="svg2" />
  <path
     style="fill:#ff0000;fill-opacity:0.01829266;stroke:#ff0000;stroke-width:0.56779659;stroke-miterlimit:4;stroke-dasharray:none;stroke-opacity:1"
     d="m 114.34651,199.11589 c -2.16343,-3.59778 -6.8028,-11.52385 -10.30971,-17.61347 C 96.294906,168.05893 87.346416,152.59874 78.731099,137.78208 75.190217,131.69246 70.412564,123.38844 68.11409,119.32869 65.815618,115.26895 62.144742,108.88124 59.95659,105.13378 52.398558,92.189786 38.200015,67.636251 34.346147,60.845639 32.219357,57.098181 28.557626,50.710469 26.208967,46.650724 18.826361,33.889611 4.3439511,8.7718138 2.0694971,4.7840548 0.86982611,2.6806928 0.08603311,0.76200283 0.32773611,0.52029983 0.56943911,0.27859683 53.924927,0.21097083 118.89549,0.37001883 l 118.12829,0.289179 -6.27021,10.78813617 c -3.44861,5.933474 -7.89521,13.598729 -9.88132,17.033898 -1.98612,3.43517 -6.50344,11.223741 -10.0385,17.307936 -3.53507,6.084197 -6.42739,11.370988 -6.42739,11.748428 0,0.377439 -0.95164,2.042681 -2.11476,3.700538 -2.11801,3.018929 -18.2848,30.673942 -21.67774,37.082082 -0.99209,1.873734 -3.74574,6.728394 -6.11922,10.788134 -2.37349,4.05975 -4.76076,8.14789 -5.30504,9.08475 -0.54428,0.93686 -5.44389,9.36864 -10.88802,18.73729 -5.44414,9.36864 -11.03824,19.12571 -12.43134,21.68236 -1.39311,2.55665 -3.8674,6.76239 -5.49841,9.34608 -1.631,2.58369 -2.96547,4.95335 -2.96547,5.26592 0,0.31258 -1.78856,3.36429 -3.97458,6.78159 -2.18602,3.41729 -3.97458,6.50583 -3.97458,6.86343 0,0.35761 -2.04406,3.88674 -4.54237,7.84252 -2.4983,3.95579 -4.54237,7.74573 -4.54237,8.4221 0,3.49362 -2.51877,1.81394 -6.02595,-4.0185 z m 11.49519,-56.00473 c 3.41819,-5.89772 8.95166,-15.45005 12.29656,-21.22738 3.34491,-5.77733 8.97874,-15.48665 12.51962,-21.57627 3.54088,-6.089624 8.31854,-14.393654 10.61701,-18.453394 2.29848,-4.05975 5.96935,-10.44746 8.1575,-14.194918 2.18815,-3.747457 7.79285,-13.459823 12.45489,-21.583035 4.66203,-8.12321 9.33825,-16.084766 10.39157,-17.692343 1.05333,-1.607579 1.57267,-3.265341 1.15409,-3.683916 -1.05398,-1.053977 -150.285726,-0.963948 -150.260254,0.09066 0.02509,1.038344 3.608844,7.495953 15.282772,27.538135 4.91124,8.43178 10.800387,18.652127 13.086992,22.711857 4.005845,7.11218 9.75408,17.04602 23.491776,40.597464 5.695924,9.76488 10.524944,18.20069 16.278734,28.43728 4.52798,8.05574 6.23999,10.45029 7.23454,10.11877 0.59361,-0.19786 3.876,-5.18517 7.2942,-11.08291 z"
     id="path5416"
     inkscape:connector-curvature="0" />
</svg>
