<?xml version="1.0" encoding="UTF-8" standalone="no"?>
<!-- Created with Inkscape (http://www.inkscape.org/) -->

<svg
   xmlns:dc="http://purl.org/dc/elements/1.1/"
   xmlns:cc="http://creativecommons.org/ns#"
   xmlns:rdf="http://www.w3.org/1999/02/22-rdf-syntax-ns#"
   xmlns:svg="http://www.w3.org/2000/svg"
   xmlns="http://www.w3.org/2000/svg"
   xmlns:sodipodi="http://sodipodi.sourceforge.net/DTD/sodipodi-0.dtd"
   xmlns:inkscape="http://www.inkscape.org/namespaces/inkscape"
   version="1.1"
   id="svg42"
   width="61.533611mm"
   height="61.469524mm"
   viewBox="0 0 232.56798 232.32576"
   sodipodi:docname="esoterica-gankyil.svg"
   inkscape:version="0.92.5 (2060ec1f9f, 2020-04-08)">
  <metadata
     id="metadata48">
    <rdf:RDF>
      <cc:Work
         rdf:about="">
        <dc:format>image/svg+xml</dc:format>
        <dc:type
           rdf:resource="http://purl.org/dc/dcmitype/StillImage" />
        <dc:title></dc:title>
      </cc:Work>
    </rdf:RDF>
  </metadata>
  <defs
     id="defs46" />
  <sodipodi:namedview
     pagecolor="#ffffff"
     bordercolor="#666666"
     borderopacity="1"
     objecttolerance="10"
     gridtolerance="10"
     guidetolerance="10"
     inkscape:pageopacity="0"
     inkscape:pageshadow="2"
     inkscape:window-width="1920"
     inkscape:window-height="997"
     id="namedview44"
     showgrid="false"
     units="mm"
     fit-margin-top="0"
     fit-margin-left="0"
     fit-margin-right="0"
     fit-margin-bottom="0"
     inkscape:zoom="0.88059701"
     inkscape:cx="116.24977"
     inkscape:cy="115.96652"
     inkscape:window-x="0"
     inkscape:window-y="28"
     inkscape:window-maximized="1"
     inkscape:current-layer="svg42" />
  <path
     style="fill:#000000;fill-opacity:0;stroke:#ff0000;stroke-width:0.56779659;stroke-miterlimit:4;stroke-dasharray:none;stroke-opacity:1"
     d="M 93.310793,231.20745 C 66.922351,223.84005 51.130282,215.30358 34.985969,199.6797 20.99348,186.13827 11.624074,171.00971 5.1491287,151.50283 1.0659127,139.20145 0.89209672,138.0279 0.43577572,119.67969 0.05177572,104.23947 0.33762572,99.074213 1.9440367,92.425453 12.887318,47.132486 44.025874,14.844614 87.807343,3.3929536 97.922673,0.74714758 101.84637,0.31498958 116.02265,0.28531358 c 14.23,-0.02979 18.13783,0.385738 28.77626,3.05982602 41.17409,10.3495634 74.11447,43.3662334 84.53137,84.7271334 2.65152,10.52806 3.02301,14.196937 2.94462,29.081897 -0.0755,14.34148 -0.53829,18.73909 -2.9277,27.82203 -10.38788,39.4878 -38.58762,69.39757 -77.8896,82.61283 -11.98917,4.03135 -12.44238,4.09159 -33.16376,4.40764 -11.55466,0.17624 -22.797037,-0.17891 -24.983047,-0.78922 z m 48.701497,-26.59546 c 24.21043,-7.52236 44.81001,-24.85832 56.01953,-47.14427 2.06518,-4.10585 2.57252,-7.01191 2.58143,-14.78659 0.0102,-8.67098 -0.37963,-10.47009 -3.74928,-17.31482 -6.5758,-13.35737 -20.53405,-22.24709 -35.10984,-22.36075 -8.868,-0.0692 -20.01355,4.01356 -25.97915,9.51641 l -5.02174,4.6322 2.37254,7.38135 c 1.98364,6.17141 2.30352,9.52204 1.95148,20.44068 -0.39494,12.24935 -0.69759,13.69321 -4.87957,23.27966 -3.74662,8.58848 -5.8235,11.5976 -13.00746,18.84611 -6.00016,6.0541 -10.84517,9.74553 -16.25084,12.38157 -4.236047,2.06568 -7.517717,4.31629 -7.292587,5.00134 0.67977,2.06852 8.451667,2.79198 25.782627,2.40003 11.27638,-0.25503 18.39395,-0.97139 22.58286,-2.27292 z M 87.352343,178.51576 c 7.43224,-3.46018 16.725327,-12.61412 19.751847,-19.45607 2.6164,-5.91482 3.89424,-19.33182 2.46241,-25.85478 -0.95827,-4.36557 -1.01707,-4.4052 -10.596997,-7.1448 C 79.333406,120.44473 64.418253,107.38995 56.951548,89.283003 52.584668,78.693212 50.811846,68.263509 51.777159,58.841505 l 0.767144,-7.487761 -3.035694,2.806992 c -7.930765,7.33328 -17.684341,23.957095 -21.675079,36.942607 -1.63752,5.32835 -2.074946,10.563447 -2.081827,24.915227 -0.0097,20.22595 0.751571,24.18271 7.428481,38.61017 5.378447,11.62175 11.726771,18.7739 20.599238,23.20753 6.243383,3.11985 8.027347,3.47777 17.284781,3.46782 8.551609,-0.009 11.34641,-0.48763 16.28814,-2.78833 z M 117.1259,95.861793 c 10.33844,-9.54541 19.79414,-14.220561 33.46579,-16.546404 10.07722,-1.714352 11.6698,-1.711458 21.9325,0.03984 8.58708,1.465356 12.95277,2.925408 19.48701,6.517184 4.6314,2.54582 9.11516,5.20508 9.96388,5.90946 2.65488,2.20335 2.69085,0.46102 0.14614,-7.07886 -5.86013,-17.363242 -22.31498,-37.098254 -39.18843,-47.000375 -4.87727,-2.862207 -13.72243,-6.810694 -19.6559,-8.774417 -9.45888,-3.130478 -12.39723,-3.581905 -23.84746,-3.663751 -12.23367,-0.08745 -13.48704,0.116656 -19.824507,3.228289 -8.4014,4.124996 -15.43268,11.233356 -19.498108,19.711859 -2.641343,5.508554 -3.112409,7.954058 -3.109829,16.144469 0.0027,8.603657 0.39504,10.419062 3.610474,16.706571 1.984093,3.879715 5.416383,8.862975 7.627333,11.073925 4.29276,4.29276 15.624277,10.684687 19.101857,10.775047 1.15617,0.03 5.56134,-3.139237 9.78925,-7.042837 z"
     id="path5366"
     inkscape:connector-curvature="0" />
</svg>
