<?xml version="1.0" encoding="UTF-8" standalone="no"?>
<!-- Created with Inkscape (http://www.inkscape.org/) -->

<svg
   xmlns:dc="http://purl.org/dc/elements/1.1/"
   xmlns:cc="http://creativecommons.org/ns#"
   xmlns:rdf="http://www.w3.org/1999/02/22-rdf-syntax-ns#"
   xmlns:svg="http://www.w3.org/2000/svg"
   xmlns="http://www.w3.org/2000/svg"
   xmlns:sodipodi="http://sodipodi.sourceforge.net/DTD/sodipodi-0.dtd"
   xmlns:inkscape="http://www.inkscape.org/namespaces/inkscape"
   version="1.1"
   id="svg92"
   width="26.991123mm"
   height="62.045662mm"
   viewBox="0 0 102.01369 234.50329"
   sodipodi:docname="esoterica-rod_of_asclepius.svg"
   inkscape:version="0.92.5 (2060ec1f9f, 2020-04-08)">
  <metadata
     id="metadata98">
    <rdf:RDF>
      <cc:Work
         rdf:about="">
        <dc:format>image/svg+xml</dc:format>
        <dc:type
           rdf:resource="http://purl.org/dc/dcmitype/StillImage" />
        <dc:title></dc:title>
      </cc:Work>
    </rdf:RDF>
  </metadata>
  <defs
     id="defs96" />
  <sodipodi:namedview
     pagecolor="#ffffff"
     bordercolor="#666666"
     borderopacity="1"
     objecttolerance="10"
     gridtolerance="10"
     guidetolerance="10"
     inkscape:pageopacity="0"
     inkscape:pageshadow="2"
     inkscape:window-width="1920"
     inkscape:window-height="997"
     id="namedview94"
     showgrid="false"
     units="mm"
     fit-margin-top="0"
     fit-margin-left="0"
     fit-margin-right="0"
     fit-margin-bottom="0"
     inkscape:zoom="0.88059701"
     inkscape:cx="51.058095"
     inkscape:cy="117.47712"
     inkscape:window-x="0"
     inkscape:window-y="28"
     inkscape:window-maximized="1"
     inkscape:current-layer="svg92" />
  <path
     style="fill:#ff0000;fill-opacity:0.01829266;stroke:#ff0000;stroke-width:0.56779659;stroke-miterlimit:4;stroke-dasharray:none;stroke-opacity:1"
     d="m 40.350255,211.24941 -0.30741,-22.96999 -5.67797,-1.31884 c -8.78782,-2.04118 -13.21937,-4.38843 -18.353847,-9.72149 -14.9918067,-15.57161 -11.1697557,-39.95857 7.984267,-50.94433 3.91273,-2.24415 7.40573,-3.34569 10.63184,-3.35285 5.78933,-0.0128 6.25512,-1.11594 5.75481,-13.62881 l -0.3391,-8.48124 -7.38136,-1.226197 C 10.432986,95.913053 -3.0758307,76.151506 1.0078323,53.30072 3.7138863,38.158565 16.579527,25.495482 32.191625,22.607892 l 7.85122,-1.45215 V 10.71982 0.28389829 h 12.49152 12.49153 V 10.789781 21.295665 l 13.34322,0.319936 13.34322,0.319937 v 12.419449 12.419448 l -13.34322,0.319937 -13.34322,0.319937 v 13.537319 13.537319 l 6.51819,1.480361 c 13.01976,2.956945 20.83725,8.656035 26.07286,19.007595 6.973665,13.787927 4.987735,29.137977 -5.20623,40.240967 -4.65367,5.06864 -16.1606,11.5436 -20.57126,11.57546 -6.72056,0.0485 -7.50437,0.95633 -7.14787,8.27852 l 0.33431,6.86628 6.79173,1.53823 c 8.66978,1.96358 13.23414,5.08246 18.45425,12.60999 3.50553,5.05506 4.25425,7.19053 4.63887,13.23089 0.56589,8.88712 -0.98794,13.81296 -6.59468,20.90601 -4.5181,5.71583 -10.07165,8.7427 -18.7478,10.21819 l -4.54237,0.77249 -0.34057,6.50274 -0.34057,6.50272 h -11.84355 -11.84354 z m 29.2582,-18.03801 c 0.86141,-2.71404 -1.90287,-6.28875 -3.90579,-5.05089 -1.36109,0.8412 -1.69905,5.48011 -0.48751,6.69164 1.50612,1.50613 3.64846,0.70604 4.3933,-1.64075 z m -29.22753,-38.21104 c 0.29707,-6.22629 0.0866,-7.08605 -1.73461,-7.08605 -6.46548,0 -9.22174,7.2694 -4.61537,12.17266 4.16535,4.43382 5.96451,2.99262 6.34998,-5.08661 z m 33.74317,-36.83458 c 3.23818,-3.84835 3.65327,-8.81385 1.06678,-12.76133 -1.96948,-3.0058 -7.68346,-5.800007 -9.52865,-4.65962 -1.788,1.10505 -1.58993,20.73176 0.21536,21.33917 2.53476,0.85285 5.36243,-0.49068 8.24651,-3.91822 z m -33.7584,-56.47442 c 0.17756,-7.122497 -0.15865,-13.431494 -0.74715,-14.019993 -1.76797,-1.767972 -8.97164,1.303159 -11.54997,4.924083 -5.20737,7.313083 -3.10042,16.794044 4.59291,20.667386 6.95438,3.501304 7.34299,2.917634 7.70421,-11.571476 z"
     id="path6368"
     inkscape:connector-curvature="0" />
</svg>
