<?xml version="1.0" encoding="UTF-8" standalone="no"?>
<!-- Created with Inkscape (http://www.inkscape.org/) -->

<svg
   xmlns:dc="http://purl.org/dc/elements/1.1/"
   xmlns:cc="http://creativecommons.org/ns#"
   xmlns:rdf="http://www.w3.org/1999/02/22-rdf-syntax-ns#"
   xmlns:svg="http://www.w3.org/2000/svg"
   xmlns="http://www.w3.org/2000/svg"
   xmlns:sodipodi="http://sodipodi.sourceforge.net/DTD/sodipodi-0.dtd"
   xmlns:inkscape="http://www.inkscape.org/namespaces/inkscape"
   version="1.1"
   id="svg12"
   width="61.764141mm"
   height="51.195278mm"
   viewBox="0 0 233.43928 193.49397"
   sodipodi:docname="esoterica-akhet.svg"
   inkscape:version="0.92.5 (2060ec1f9f, 2020-04-08)">
  <metadata
     id="metadata18">
    <rdf:RDF>
      <cc:Work
         rdf:about="">
        <dc:format>image/svg+xml</dc:format>
        <dc:type
           rdf:resource="http://purl.org/dc/dcmitype/StillImage" />
        <dc:title></dc:title>
      </cc:Work>
    </rdf:RDF>
  </metadata>
  <defs
     id="defs16" />
  <sodipodi:namedview
     pagecolor="#ffffff"
     bordercolor="#666666"
     borderopacity="1"
     objecttolerance="10"
     gridtolerance="10"
     guidetolerance="10"
     inkscape:pageopacity="0"
     inkscape:pageshadow="2"
     inkscape:window-width="1920"
     inkscape:window-height="997"
     id="namedview14"
     showgrid="false"
     units="mm"
     fit-margin-top="0"
     fit-margin-left="0"
     fit-margin-right="0"
     fit-margin-bottom="0"
     inkscape:zoom="0.88059701"
     inkscape:cx="116.34153"
     inkscape:cy="95.90085"
     inkscape:window-x="0"
     inkscape:window-y="28"
     inkscape:window-maximized="1"
     inkscape:current-layer="svg12" />
  <path
     style="fill:#000000;fill-opacity:0;stroke:#ff0000;stroke-width:0.56779659;stroke-miterlimit:4;stroke-dasharray:none;stroke-opacity:1"
     d="m 0.28389829,130.54317 c 0,-60.290079 0.08591,-62.844349 2.26513001,-67.346012 2.849645,-5.886583 8.0155447,-11.207602 14.6908117,-15.131943 4.461989,-2.623169 6.459639,-3.05006 14.272871,-3.05006 4.996611,0 10.362289,0.255508 11.923729,0.567797 2.420646,0.484129 3.191432,-0.130023 5.230822,-4.167845 C 58.854874,21.244487 79.891135,5.8063559 102.4035,1.9790559 c 13.19651,-2.24352295 15.42302,-2.25153095 28.04097,-0.100853 11.22382,1.913055 23.81157,7.416689 32.23968,14.0958871 8.83478,7.001472 19.1546,19.464868 22.24866,26.869991 1.30276,3.117919 2.1551,3.887649 3.63255,3.280459 3.6678,-1.507356 16.70844,-1.925852 21.23549,-0.681482 6.93159,1.905319 15.40555,8.959741 19.30509,16.071159 l 3.40678,6.212804 0.3206,62.741519 0.3206,62.74153 H 116.71891 0.28389829 Z M 208.09746,121.0999 c 0,-45.612999 -0.073,-47.200089 -2.27118,-49.398309 -4.88412,-4.88411 -12.49153,-1.514 -12.49153,5.5338 0,12.12121 -6.0898,31.075539 -13.46033,41.894939 -5.2944,7.77176 -15.54365,17.65396 -23.61314,22.76748 -3.21456,2.03703 -10.3688,5.32474 -15.89831,7.30603 -9.15315,3.2797 -11.2742,3.60423 -23.68076,3.62333 -12.07532,0.0186 -14.7238,-0.35243 -23.257575,-3.25816 -21.246928,-7.23454 -35.878775,-20.02988 -45.541112,-39.82504 -4.725029,-9.68014 -5.728042,-12.947939 -6.796855,-22.144069 -1.76717,-15.20485 -1.814165,-15.36132 -5.057789,-16.83921 -3.980832,-1.81379 -6.231481,-1.6715 -8.685224,0.54911 -1.948851,1.76369 -2.076706,4.80495 -2.076706,49.398309 v 47.51891 h 91.415261 91.41525 z m -80.71291,6.16777 c 19.86424,-4.5785 37.3477,-23.3597 39.70321,-42.650299 2.1914,-17.94644 -3.26862,-33.523903 -15.82506,-45.148944 C 143.75964,32.521918 137.98947,29.437205 127.47034,26.749144 102.09469,20.264636 73.917437,37.0628 67.190365,62.685691 c -2.751511,10.48029 -2.751511,17.77186 0,28.25215 2.44578,9.315779 8.114095,18.432899 15.32857,24.655009 4.80451,4.14365 18.408325,11.16511 23.375135,12.06484 5.3522,0.96953 16.46708,0.76782 21.49048,-0.39002 z"
     id="path5388"
     inkscape:connector-curvature="0" />
</svg>
