<?xml version="1.0" encoding="UTF-8" standalone="no"?>
<!-- Created with Inkscape (http://www.inkscape.org/) -->

<svg
   xmlns:dc="http://purl.org/dc/elements/1.1/"
   xmlns:cc="http://creativecommons.org/ns#"
   xmlns:rdf="http://www.w3.org/1999/02/22-rdf-syntax-ns#"
   xmlns:svg="http://www.w3.org/2000/svg"
   xmlns="http://www.w3.org/2000/svg"
   xmlns:sodipodi="http://sodipodi.sourceforge.net/DTD/sodipodi-0.dtd"
   xmlns:inkscape="http://www.inkscape.org/namespaces/inkscape"
   version="1.1"
   id="svg2"
   width="61.533611mm"
   height="61.479912mm"
   viewBox="0 0 232.56798 232.36502"
   sodipodi:docname="esoterica-alcoholics_anon.jpg.svg"
   inkscape:version="0.92.5 (2060ec1f9f, 2020-04-08)">
  <metadata
     id="metadata8">
    <rdf:RDF>
      <cc:Work
         rdf:about="">
        <dc:format>image/svg+xml</dc:format>
        <dc:type
           rdf:resource="http://purl.org/dc/dcmitype/StillImage" />
        <dc:title></dc:title>
      </cc:Work>
    </rdf:RDF>
  </metadata>
  <defs
     id="defs6" />
  <sodipodi:namedview
     pagecolor="#ffffff"
     bordercolor="#666666"
     borderopacity="1"
     objecttolerance="10"
     gridtolerance="10"
     guidetolerance="10"
     inkscape:pageopacity="0"
     inkscape:pageshadow="2"
     inkscape:window-width="1920"
     inkscape:window-height="997"
     id="namedview4"
     showgrid="false"
     units="mm"
     fit-margin-top="0"
     fit-margin-left="0"
     fit-margin-right="0"
     fit-margin-bottom="0"
     inkscape:zoom="0.88059701"
     inkscape:cx="116.24977"
     inkscape:cy="116.00577"
     inkscape:window-x="0"
     inkscape:window-y="28"
     inkscape:window-maximized="1"
     inkscape:current-layer="svg2" />
  <path
     style="fill:#000000;fill-opacity:0;stroke:#ff0000;stroke-width:0.56779659;stroke-miterlimit:4;stroke-dasharray:none;stroke-opacity:1"
     d="m 93.310793,231.20745 c -11.566611,-3.22929 -26.184977,-8.64293 -30.992285,-11.47742 -2.995656,-1.7663 -5.744917,-3.21146 -6.10947,-3.21146 -1.682784,0 -16.417805,-11.88874 -22.749316,-18.35495 C 19.708921,184.12026 11.466765,170.53582 5.1492957,151.50335 1.0658857,139.20137 0.89209972,138.02804 0.43577572,119.67969 0.05177572,104.23947 0.33762572,99.074213 1.9440367,92.425453 12.897264,47.091326 43.986086,14.855022 87.807343,3.3929536 97.922673,0.74714758 101.84637,0.31498958 116.02265,0.28531358 c 14.23,-0.02979 18.13783,0.385738 28.77626,3.05982602 41.17409,10.3495634 74.11447,43.3662334 84.53137,84.7271334 2.65152,10.52806 3.02301,14.196937 2.94462,29.081897 -0.10289,19.53692 -2.66148,31.89393 -9.80318,47.34564 -14.07367,30.44967 -37.6625,51.45509 -70.67788,62.93737 l -12.49153,4.34438 -21.00847,0.26777 c -11.55466,0.14728 -22.797037,-0.23157 -24.983047,-0.84188 z m 48.701497,-26.59546 c 7.88512,-2.44996 19.87311,-8.30723 25.77171,-12.59191 6.27995,-4.56169 11.83187,-9.28398 11.83187,-10.06379 0,-0.35261 -28.70602,-0.64111 -63.79116,-0.64111 H 52.033534 l 2.753035,2.96548 c 8.688592,9.35907 29.271904,19.56287 45.337781,22.47539 6.68589,1.21206 35.89894,-0.28323 41.88794,-2.14406 z m 41.52448,-49.32859 c 0.35648,-0.57681 -1.31438,-4.28169 -3.71304,-8.23305 -6.73548,-11.09556 -12.16049,-20.33157 -15.11627,-25.73521 -3.78382,-6.91746 -5.61974,-10.14601 -9.46944,-16.6525 -1.84772,-3.12288 -4.18185,-7.211017 -5.18697,-9.084747 -1.00511,-1.87372 -4.53319,-8.00593 -7.8402,-13.627115 -3.30699,-5.621186 -7.56802,-13.030932 -9.46895,-16.466101 -1.90093,-3.43517 -4.39634,-7.464466 -5.54536,-8.953993 -1.14903,-1.489526 -2.08914,-3.169825 -2.08914,-3.733998 0,-0.564174 -1.95633,-4.102704 -4.34739,-7.863402 -3.79055,-5.961814 -4.53678,-6.609444 -5.8259,-5.056138 -0.81319,0.979822 -7.10738,11.613751 -13.9871,23.630954 -6.879717,12.017201 -14.141157,24.660053 -16.136527,28.095223 -1.99538,3.43517 -6.538119,11.355927 -10.09498,17.601687 -7.854646,13.79258 -7.195913,12.654 -17.394556,30.06529 -4.564061,7.79184 -8.298293,14.81832 -8.298293,15.6144 0,1.15647 13.454661,1.44743 66.932976,1.44743 39.70138,0 67.19668,-0.42668 67.58114,-1.04873 z M 33.303919,131.06518 c 2.204898,-3.9036 8.001205,-13.99618 12.880686,-22.42796 4.879479,-8.43178 10.758794,-18.652117 13.065143,-22.711867 2.30635,-4.059744 6.135811,-10.702964 8.509914,-14.76271 2.374103,-4.059746 5.459929,-9.425424 6.85739,-11.923729 4.340978,-7.76056 13.950961,-24.189302 15.802221,-27.014692 0.97014,-1.480617 1.47219,-2.983734 1.11566,-3.340259 -0.35652,-0.356524 -3.53073,0.364891 -7.05378,1.603147 -25.425054,8.936185 -46.562855,31.130579 -55.820113,58.610333 -4.0417,11.997597 -4.612988,49.065197 -0.756195,49.065197 0.764595,0 3.194178,-3.19386 5.399074,-7.09746 z m 172.921001,4.54238 c 1.58619,-5.3659 2.05712,-25.58673 0.76828,-32.98786 C 205.0927,91.706273 200.9555,80.248615 195.32088,70.29415 188.9616,59.05946 174.985,44.818616 163.7747,38.15155 c -8.07943,-4.805052 -21.61089,-10.542502 -22.57949,-9.573895 -0.51763,0.517621 3.72087,8.303395 15.76434,28.957869 4.55232,7.807204 10.15199,17.516526 12.4437,21.576271 6.07202,10.756508 24.43887,42.481435 29.7492,51.385595 2.5143,4.21589 4.96424,7.66525 5.44431,7.66525 0.48008,0 1.21275,-1.14979 1.62816,-2.55508 z"
     id="path4865"
     inkscape:connector-curvature="0" />
</svg>
