<?xml version="1.0" encoding="UTF-8" standalone="no"?>
<!-- Created with Inkscape (http://www.inkscape.org/) -->

<svg
   xmlns:dc="http://purl.org/dc/elements/1.1/"
   xmlns:cc="http://creativecommons.org/ns#"
   xmlns:rdf="http://www.w3.org/1999/02/22-rdf-syntax-ns#"
   xmlns:svg="http://www.w3.org/2000/svg"
   xmlns="http://www.w3.org/2000/svg"
   xmlns:sodipodi="http://sodipodi.sourceforge.net/DTD/sodipodi-0.dtd"
   xmlns:inkscape="http://www.inkscape.org/namespaces/inkscape"
   version="1.1"
   id="svg2"
   width="31.516905mm"
   height="58.156467mm"
   viewBox="0 0 119.11901 219.80397"
   sodipodi:docname="hermetica-populus.svg"
   inkscape:version="0.92.5 (2060ec1f9f, 2020-04-08)">
  <metadata
     id="metadata8">
    <rdf:RDF>
      <cc:Work
         rdf:about="">
        <dc:format>image/svg+xml</dc:format>
        <dc:type
           rdf:resource="http://purl.org/dc/dcmitype/StillImage" />
        <dc:title></dc:title>
      </cc:Work>
    </rdf:RDF>
  </metadata>
  <defs
     id="defs6" />
  <sodipodi:namedview
     pagecolor="#ffffff"
     bordercolor="#666666"
     borderopacity="1"
     objecttolerance="10"
     gridtolerance="10"
     guidetolerance="10"
     inkscape:pageopacity="0"
     inkscape:pageshadow="2"
     inkscape:window-width="1920"
     inkscape:window-height="997"
     id="namedview4"
     showgrid="false"
     units="mm"
     fit-margin-top="0"
     fit-margin-left="0"
     fit-margin-right="0"
     fit-margin-bottom="0"
     inkscape:zoom="0.88059701"
     inkscape:cx="59.397437"
     inkscape:cy="109.45964"
     inkscape:window-x="0"
     inkscape:window-y="28"
     inkscape:window-maximized="1"
     inkscape:current-layer="svg2" />
  <path
     style="fill:#ff0000;fill-opacity:0.01829266;stroke:#ff0000;stroke-width:0.56779659;stroke-miterlimit:4;stroke-dasharray:none;stroke-opacity:1"
     d="M 19.920875,0.28574022 C 16.212743,0.22827022 12.404713,1.5138602 8.5751713,4.1529282 2.1636683,8.5713132 -0.38570068,14.213131 0.59860932,21.805272 1.5237873,28.941315 4.4253403,33.025182 10.885718,36.287693 c 6.794449,3.431217 12.439137,3.052357 19.011719,-1.277343 6.104,-4.021023 8.0344,-8.449124 7.48047,-17.148438 -0.38622,-6.065445 -0.97863,-7.732405 -3.81055,-10.7109368 -4.27509,-4.496417 -8.878891,-6.79135098 -13.646482,-6.86523498 z m 79.679682,0.164063 c -3.28711,-0.05016 -6.59211,0.80281898 -9.56835,2.68163998 -12.99312,8.2021978 -12.15613,26.7558948 1.50195,33.2734378 4.10997,1.961253 6.8383,2.540724 9.878903,2.095703 C 114.48045,36.588057 122.3009,23.868189 117.32517,12.619725 113.97466,5.0453442 106.83221,0.56016322 99.600557,0.44980322 Z M 99.411107,60.748631 c -2.54691,0.03396 -5.08799,0.777482 -8.10156,2.236328 -13.75345,6.657928 -14.01653,26.431505 -0.44727,33.589845 6.12141,3.22929 11.293843,3.35032 17.076183,0.40039 14.56339,-7.42968 14.33314,-27.517459 -0.39258,-34.205079 -3.03474,-1.378209 -5.58785,-2.05544 -8.134773,-2.021484 z M 19.252906,61.055272 C 11.796005,60.936107 4.6134253,65.06544 1.6650153,72.78574 c -1.67606898,4.388734 -1.76804098,6.043004 -0.634766,11.519534 1.390144,6.71783 4.134894,10.03572 11.0136717,13.32031 5.375582,2.566816 13.490646,1.41857 18.498046,-2.61719 6.05743,-4.88205 7.20048,-7.65952 6.7793,-16.47851 -0.31522,-6.600507 -0.80711,-8.089053 -3.64649,-11.052738 -4.09032,-4.269373 -9.319781,-6.340341 -14.421871,-6.421874 z m 80.472651,60.593748 c -17.68682,-0.54372 -26.92932,23.50393 -10.19531,34.875 7.28062,4.94731 17.609583,3.64912 23.810553,-2.99219 9.87563,-10.57692 5.78877,-26.60338 -7.875,-30.88477 -1.99099,-0.62385 -3.91056,-0.9418 -5.740243,-0.99804 z m -80.634761,0.0781 c -8.373767,0.0964 -16.7418857,5.13177 -18.41406168,15.0293 -1.297975,7.68265 1.18434398,14.18816 7.15624998,18.74805 4.2121627,3.21622 6.0784227,3.89843 10.6757807,3.89843 12.671222,0 21.210532,-10.3542 19.027342,-23.07031 -1.69263,-9.85878 -10.07154,-14.70189 -18.445311,-14.60547 z m 80.277341,60.4375 c -6.74624,-0.0596 -11.91402,2.84096 -16.14062,9.06055 -5.57388,8.20217 -1.15024,22.67603 8.16992,26.73242 7.30042,3.17735 16.832153,1.35159 21.943363,-4.20117 6.82038,-7.40959 7.32641,-16.86211 1.3125,-24.50586 -4.19095,-5.32674 -7.84186,-7.02014 -15.285163,-7.08594 z m -79.339841,0.0215 c -2.921933,-0.11433 -5.868425,0.2556 -8.195312,1.13476 -14.6958327,5.55247 -15.3362967,28.19428 -0.982422,34.74024 2.219826,1.01229 5.858463,1.39998 10.132813,1.08008 5.856632,-0.43836 7.200302,-1.01927 11.044922,-4.77344 9.22552,-9.00848 7.12638,-25.15258 -3.95313,-30.41016 -2.22829,-1.05739 -5.124937,-1.65715 -8.046871,-1.77148 z"
     id="path5440"
     inkscape:connector-curvature="0" />
</svg>
