<?xml version="1.0" encoding="UTF-8" standalone="no"?>
<!-- Created with Inkscape (http://www.inkscape.org/) -->

<svg
   xmlns:dc="http://purl.org/dc/elements/1.1/"
   xmlns:cc="http://creativecommons.org/ns#"
   xmlns:rdf="http://www.w3.org/1999/02/22-rdf-syntax-ns#"
   xmlns:svg="http://www.w3.org/2000/svg"
   xmlns="http://www.w3.org/2000/svg"
   xmlns:sodipodi="http://sodipodi.sourceforge.net/DTD/sodipodi-0.dtd"
   xmlns:inkscape="http://www.inkscape.org/namespaces/inkscape"
   version="1.1"
   id="svg32"
   width="55.538349mm"
   height="62.286533mm"
   viewBox="0 0 209.90872 235.41367"
   sodipodi:docname="esoterica-shankha.svg"
   inkscape:version="0.92.5 (2060ec1f9f, 2020-04-08)">
  <metadata
     id="metadata38">
    <rdf:RDF>
      <cc:Work
         rdf:about="">
        <dc:format>image/svg+xml</dc:format>
        <dc:type
           rdf:resource="http://purl.org/dc/dcmitype/StillImage" />
        <dc:title></dc:title>
      </cc:Work>
    </rdf:RDF>
  </metadata>
  <defs
     id="defs36" />
  <sodipodi:namedview
     pagecolor="#ffffff"
     bordercolor="#666666"
     borderopacity="1"
     objecttolerance="10"
     gridtolerance="10"
     guidetolerance="10"
     inkscape:pageopacity="0"
     inkscape:pageshadow="2"
     inkscape:window-width="1920"
     inkscape:window-height="997"
     id="namedview34"
     showgrid="false"
     units="mm"
     fit-margin-top="0"
     fit-margin-left="0"
     fit-margin-right="0"
     fit-margin-bottom="0"
     inkscape:zoom="0.88059701"
     inkscape:cx="104.56691"
     inkscape:cy="116.70537"
     inkscape:window-x="0"
     inkscape:window-y="28"
     inkscape:window-maximized="1"
     inkscape:current-layer="svg32" />
  <path
     style="fill:#000000;fill-opacity:0;stroke:#ff0000;stroke-width:0.56779659;stroke-miterlimit:4;stroke-dasharray:none;stroke-opacity:1"
     d="M 96.694874,230.35357 C 83.818064,221.62471 66.017026,206.45461 54.240106,194.17349 26.635285,165.38683 10.801963,139.06836 3.5422944,109.9026 -0.6656716,92.997071 -0.8063646,72.477436 3.1954524,59.316776 7.7793074,44.241985 17.041897,32.00484 31.094033,22.458941 48.29561,10.773564 70.186398,3.8737307 100.90112,0.45620067 c 12.16038,-1.353046 45.23039,5.54801303 61.33448,12.79929633 12.3545,5.56293 24.8708,14.463656 31.37778,22.31369 13.46435,16.243426 17.8492,32.886707 15.34182,58.231814 -2.90071,29.320919 -15.59,56.635269 -39.8866,85.857969 -15.5131,18.65837 -45.90274,45.34231 -63.11652,55.42011 -0.67468,0.39499 -4.84043,-1.73149 -9.257206,-4.72551 z m -3.71101,-78.36632 c 0,-39.43231 0.14113,-42.35428 2.39883,-49.66384 4.25621,-13.780029 14.664236,-25.377649 29.118426,-32.446562 7.42226,-3.629904 8.10252,-3.746513 21.85562,-3.746513 h 14.19492 l 8.78438,4.451658 c 4.83141,2.448412 9.9029,5.642268 11.26999,7.097458 3.79382,4.038346 4.74051,3.301894 3.90003,-3.033941 C 181.87752,54.830556 167.82389,40.656942 142.68414,32.466499 128.14,27.728072 117.31331,25.816776 105.01625,25.816776 c -12.996846,0 -20.494256,1.293284 -36.476462,6.292097 -20.477495,6.40482 -32.961811,15.734234 -39.345995,29.4029 -10.533365,22.552149 -2.053293,56.513147 22.908714,91.744827 8.097921,11.42951 36.175107,40.62797 39.067777,40.62797 1.62827,0 1.81358,-4.28095 1.81358,-41.89732 z m 41.288916,27.9863 c 11.62941,-11.65376 30.25345,-34.07011 30.25345,-36.41378 0,-0.36467 1.47739,-2.86048 3.28307,-5.54624 9.64876,-14.35149 9.18687,-28.45387 -1.28377,-39.195549 -13.85825,-14.216985 -37.44513,-9.83523 -46.55257,8.648109 -2.50745,5.08881 -2.58255,6.27091 -2.91124,45.82102 -0.3054,36.74711 -0.16353,40.59746 1.49587,40.59746 1.00829,0 8.08013,-6.25996 15.71519,-13.91102 z"
     id="path5387"
     inkscape:connector-curvature="0" />
</svg>
