<?xml version="1.0" encoding="UTF-8" standalone="no"?>
<!-- Created with Inkscape (http://www.inkscape.org/) -->

<svg
   xmlns:dc="http://purl.org/dc/elements/1.1/"
   xmlns:cc="http://creativecommons.org/ns#"
   xmlns:rdf="http://www.w3.org/1999/02/22-rdf-syntax-ns#"
   xmlns:svg="http://www.w3.org/2000/svg"
   xmlns="http://www.w3.org/2000/svg"
   xmlns:sodipodi="http://sodipodi.sourceforge.net/DTD/sodipodi-0.dtd"
   xmlns:inkscape="http://www.inkscape.org/namespaces/inkscape"
   version="1.1"
   id="svg42"
   width="64.497253mm"
   height="59.260429mm"
   viewBox="0 0 243.76915 223.97643"
   sodipodi:docname="esoterica-wedjat.svg"
   inkscape:version="0.92.5 (2060ec1f9f, 2020-04-08)">
  <metadata
     id="metadata48">
    <rdf:RDF>
      <cc:Work
         rdf:about="">
        <dc:format>image/svg+xml</dc:format>
        <dc:type
           rdf:resource="http://purl.org/dc/dcmitype/StillImage" />
        <dc:title></dc:title>
      </cc:Work>
    </rdf:RDF>
  </metadata>
  <defs
     id="defs46" />
  <sodipodi:namedview
     pagecolor="#ffffff"
     bordercolor="#666666"
     borderopacity="1"
     objecttolerance="10"
     gridtolerance="10"
     guidetolerance="10"
     inkscape:pageopacity="0"
     inkscape:pageshadow="2"
     inkscape:window-width="1920"
     inkscape:window-height="997"
     id="namedview44"
     showgrid="false"
     units="mm"
     fit-margin-top="0"
     fit-margin-left="0"
     fit-margin-right="0"
     fit-margin-bottom="0"
     inkscape:zoom="0.88059701"
     inkscape:cx="122.2039"
     inkscape:cy="111.79915"
     inkscape:window-x="0"
     inkscape:window-y="28"
     inkscape:window-maximized="1"
     inkscape:current-layer="svg42" />
  <path
     style="fill:#000000;fill-opacity:0;stroke:#ff0000;stroke-width:0.56779659;stroke-miterlimit:4;stroke-dasharray:none;stroke-opacity:1"
     d="M 9.209323,59.256906 0.40580795,50.401453 9.287306,41.941062 C 23.157269,28.72873 31.000187,23.194416 47.413866,15.037256 71.393302,3.1201157 97.654063,-1.5755693 126.23526,0.94320776 154.02974,3.3926537 178.96397,13.539098 204.10098,32.628977 l 6.35509,4.826271 h 16.51459 16.5146 v 12.491526 12.491525 h -21.67818 -21.67819 l -6.42775,-5.764683 c -18.19532,-16.31835 -40.33388,-26.762374 -63.68898,-30.045729 -14.86471,-2.089742 -21.64673,-2.089742 -36.511437,0 -26.188625,3.681704 -47.531916,14.528794 -68.645742,34.887147 l -6.842142,6.597325 z"
     id="path3065"
     inkscape:connector-curvature="0" />
  <path
     style="fill:#000000;fill-opacity:0;stroke:#ff0000;stroke-width:0.56779659;stroke-miterlimit:4;stroke-dasharray:none;stroke-opacity:1"
     d="M 42.485259,204.95525 V 186.21796 H 31.413225 20.341191 V 173.72643 161.23491 H 31.413225 42.485259 V 144.86975 128.5046 l -3.690678,-3.11202 C 34.09992,121.434 28.814749,119.21796 24.068343,119.21796 H 20.341191 V 106.15864 93.099312 h 4.079864 c 5.269647,0 11.979913,-3.65144 20.093108,-10.93381 3.568425,-3.203 8.276604,-7.345772 10.462621,-9.206152 6.409513,-5.454728 20.229472,-12.424119 31.228814,-15.74866 8.947805,-2.704467 12.129135,-3.089089 25.550842,-3.089089 13.43054,0 16.59716,0.383384 25.55085,3.093449 14.04825,4.252065 26.51466,11.427712 38.61017,22.223972 15.49052,13.8266 14.96082,13.66029 43.51107,13.66029 h 24.05673 v 13.168828 13.16884 l -25.26695,-0.47049 c -13.89683,-0.25877 -26.03348,-0.80972 -26.97034,-1.22434 -1.15098,-0.50938 -2.72111,0.62043 -4.8416,3.48386 -3.49003,4.71279 -11.7918,13.17597 -17.87027,18.21773 -11.39464,9.45123 -32.34514,17.51615 -49.55307,19.07549 -4.5992,0.41677 -8.36218,1.09073 -8.36218,1.4977 0,0.40697 8.30402,8.98442 18.45339,19.061 11.3719,11.29034 19.65466,18.62047 21.58373,19.10128 7.38707,1.84121 15.59868,-2.87872 17.35244,-9.97396 l 0.77191,-3.12289 h 12.49735 12.49737 l -0.76075,5.39407 c -1.72517,12.2325 -10.45807,23.8466 -22.19476,29.51736 -5.26732,2.545 -7.79065,3.02566 -15.91255,3.03108 -17.32382,0.0116 -17.77633,-0.29526 -54.37269,-36.87214 -17.461554,-17.45226 -32.045213,-31.73138 -32.40813,-31.73138 -0.362918,0 -0.65985,15.58601 -0.65985,34.63559 v 34.63559 H 54.976784 42.485259 Z m 84.367311,-72.66463 c 11.88048,-3.09448 22.97965,-9.23088 31.48873,-17.4092 4.35799,-4.18858 7.88579,-8.37574 7.83955,-9.30479 -0.0462,-0.92905 -3.73117,-4.89432 -8.18873,-8.811708 -16.88077,-14.83514 -39.27203,-21.359026 -58.877397,-17.15443 -8.21678,1.76219 -20.959441,7.35052 -26.624948,11.67646 -7.941892,6.06408 -16.601785,14.209308 -16.194632,15.232178 0.211768,0.532 4.217658,4.40395 8.90198,8.60432 10.225766,9.16932 23.85838,16.16756 35.203387,18.07148 6.71477,1.12688 20.45755,0.65706 26.45206,-0.90431 z"
     id="path3067"
     inkscape:connector-curvature="0" />
</svg>
