<?xml version="1.0" encoding="UTF-8" standalone="no"?>
<!-- Created with Inkscape (http://www.inkscape.org/) -->

<svg
   xmlns:dc="http://purl.org/dc/elements/1.1/"
   xmlns:cc="http://creativecommons.org/ns#"
   xmlns:rdf="http://www.w3.org/1999/02/22-rdf-syntax-ns#"
   xmlns:svg="http://www.w3.org/2000/svg"
   xmlns="http://www.w3.org/2000/svg"
   xmlns:sodipodi="http://sodipodi.sourceforge.net/DTD/sodipodi-0.dtd"
   xmlns:inkscape="http://www.inkscape.org/namespaces/inkscape"
   version="1.1"
   id="svg2"
   width="62.044792mm"
   height="56.457661mm"
   viewBox="0 0 234.5 213.38329"
   sodipodi:docname="esoterica-pizza_party.svg"
   inkscape:version="0.92.5 (2060ec1f9f, 2020-04-08)">
  <metadata
     id="metadata8">
    <rdf:RDF>
      <cc:Work
         rdf:about="">
        <dc:format>image/svg+xml</dc:format>
        <dc:type
           rdf:resource="http://purl.org/dc/dcmitype/StillImage" />
        <dc:title></dc:title>
      </cc:Work>
    </rdf:RDF>
  </metadata>
  <defs
     id="defs6" />
  <sodipodi:namedview
     pagecolor="#ffffff"
     bordercolor="#666666"
     borderopacity="1"
     objecttolerance="10"
     gridtolerance="10"
     guidetolerance="10"
     inkscape:pageopacity="0"
     inkscape:pageshadow="2"
     inkscape:window-width="1920"
     inkscape:window-height="997"
     id="namedview4"
     showgrid="false"
     units="mm"
     fit-margin-top="0"
     fit-margin-left="0"
     fit-margin-right="0"
     fit-margin-bottom="0"
     inkscape:zoom="0.88059701"
     inkscape:cx="117.25"
     inkscape:cy="107.11199"
     inkscape:window-x="0"
     inkscape:window-y="28"
     inkscape:window-maximized="1"
     inkscape:current-layer="svg2" />
  <path
     style="fill:#000000;fill-opacity:0;stroke:#ff0000;stroke-width:0.56779659;stroke-miterlimit:4;stroke-dasharray:none;stroke-opacity:1"
     d="m 66.740543,212.14814 c -0.372566,-0.60283 -4.285866,-2.99225 -8.696222,-5.30983 -4.410355,-2.31757 -8.279895,-4.8941 -8.598976,-5.72561 -0.319081,-0.83152 1.519991,-5.0469 4.086829,-9.36754 2.566839,-4.32062 4.666979,-8.19847 4.666979,-8.61743 0,-0.41897 0.994542,-2.15846 2.210092,-3.86555 2.159554,-3.03281 16.983042,-28.53559 22.492029,-38.69596 1.523916,-2.8106 3.164906,-5.62119 3.646646,-6.24577 1.32442,-1.71709 7.99022,-13.98161 7.99022,-14.70133 0,-0.34605 -21.207208,-0.62918 -47.127123,-0.62918 H 0.28389829 V 106.49842 94.006891 H 47.411017 c 27.322034,0 47.127123,-0.43138 47.127123,-1.0265 0,-0.9758 -2.74907,-5.96924 -12.094861,-21.969259 C 80.163141,67.10753 76.417233,60.592064 74.119037,56.532318 69.930641,49.133548 54.94367,23.259208 50.339461,15.477937 l -2.454152,-4.147601 4.873023,-2.8756279 c 2.680164,-1.581595 7.563805,-4.273382 10.852539,-5.981747 6.964477,-3.617768 6.355922,-4.010753 13.372658,8.6356279 2.252515,4.059746 6.020114,10.702966 8.372441,14.762712 11.21609,19.357205 22.37569,38.686174 25.89761,44.855932 2.1392,3.747458 4.3911,7.324578 5.00424,7.949148 1.25363,1.27701 3.78659,-1.61381 7.29828,-8.329332 1.19706,-2.289204 3.84502,-6.820481 5.88435,-10.069503 2.03932,-3.249023 3.70786,-6.211918 3.70786,-6.584211 0,-0.372293 1.78855,-3.472866 3.97457,-6.89016 2.18602,-3.417294 3.97458,-6.509579 3.97458,-6.871742 0,-0.362164 1.82175,-3.60995 4.04833,-7.217303 2.22659,-3.607351 4.90943,-8.128462 5.96187,-10.046912 14.09381,-25.6910059 12.44336,-24.0061149 19.78147,-20.1942569 3.28874,1.708365 8.17238,4.400152 10.85254,5.981747 l 4.87302,2.8756279 -2.45415,4.147601 c -5.01316,8.472399 -19.73824,33.916587 -23.75903,41.054381 -2.2869,4.059746 -7.82138,13.695874 -12.29883,21.413613 -4.47745,7.71775 -8.14082,14.48872 -8.14082,15.04662 0,0.5791 20.22151,1.01434 47.12712,1.01434 h 47.12712 v 12.491529 12.49152 h -47.12712 c -25.91991,0 -47.12712,0.18357 -47.12712,0.40794 0,0.82743 7.17338,13.88482 9.23015,16.80126 1.16919,1.65786 2.12579,3.24534 2.12579,3.52772 0,0.64101 9.92481,17.92254 14.00402,24.38442 1.66642,2.6398 3.02987,5.08985 3.02987,5.44454 0,0.3547 1.69188,3.30321 3.75973,6.55224 2.06784,3.24902 4.09537,6.80028 4.50561,7.89169 0.41025,1.09141 2.551,4.80619 4.75723,8.25509 2.20623,3.4489 4.01133,7.00579 4.01133,7.9042 0,0.89841 -2.42733,3.0044 -5.39406,4.67998 -2.96674,1.67558 -7.37192,4.30017 -9.78928,5.83244 -3.65781,2.31851 -4.63678,2.52989 -5.835,1.25983 -0.79188,-0.83935 -5.41146,-8.42482 -10.26574,-16.8566 -4.85427,-8.43178 -10.60956,-18.39661 -12.78953,-22.14407 -2.17995,-3.74746 -5.85545,-10.13517 -8.16775,-14.19491 -2.31231,-4.05975 -6.60937,-11.59725 -9.54902,-16.75 -2.93966,-5.15276 -5.78489,-9.36865 -6.32275,-9.36865 -0.53785,0 -5.4341,7.79301 -10.88052,17.3178 -5.44644,9.52479 -11.84827,20.63941 -14.2263,24.69915 -2.37802,4.05975 -8.31048,14.4051 -13.183221,22.98968 -8.268285,14.56667 -10.545769,17.2688 -12.241876,14.52445 z"
     id="path817"
     inkscape:connector-curvature="0" />
  <path
     style="fill:#000000;fill-opacity:0;stroke:#ff0000;stroke-width:0.56779659;stroke-miterlimit:4;stroke-dasharray:none;stroke-opacity:1"
     d="m 175.45633,80.347041 c -3.25034,-1.30677 -7.09489,-7.5701 -7.10039,-11.567582 -0.005,-3.798516 5.71312,-10.590205 9.77488,-11.609644 7.54604,-1.893935 15.22174,4.321532 15.17867,12.291072 -0.0497,9.203354 -8.78713,14.531074 -17.85316,10.886154 z"
     id="path819"
     inkscape:connector-curvature="0" />
  <path
     style="fill:#000000;fill-opacity:0;stroke:#ff0000;stroke-width:0.56779659;stroke-miterlimit:4;stroke-dasharray:none;stroke-opacity:1"
     d="m 110.78219,42.955262 c -2.44226,-1.489145 -4.07337,-3.696428 -4.9884,-6.750504 -4.35741,-14.543739 15.28648,-22.652894 22.25083,-9.185322 2.1521,4.161701 2.14528,7.182342 -0.0257,11.380562 -1.89808,3.670488 -6.94516,6.778728 -10.99642,6.772143 -1.43631,-0.0024 -4.24445,-0.99993 -6.2403,-2.216879 z"
     id="path821"
     inkscape:connector-curvature="0" />
  <path
     style="fill:#000000;fill-opacity:0;stroke:#ff0000;stroke-width:0.56779659;stroke-miterlimit:4;stroke-dasharray:none;stroke-opacity:1"
     d="m 47.411017,80.197301 c -6.383779,-3.51065 -8.370418,-12.70848 -3.956819,-18.319462 2.748581,-3.494254 8.865927,-5.724271 12.914978,-4.708024 4.061767,1.019439 9.780114,7.811128 9.774884,11.609644 -0.01255,9.112962 -10.879812,15.736592 -18.733043,11.417842 z"
     id="path823"
     inkscape:connector-curvature="0" />
  <path
     style="fill:#000000;fill-opacity:0;stroke:#ff0000;stroke-width:0.56779659;stroke-miterlimit:4;stroke-dasharray:none;stroke-opacity:1"
     d="m 45.026271,151.46791 c -3.174487,-3.17449 -3.861017,-4.71553 -3.861017,-8.66676 0,-4.03946 0.646641,-5.4156 4.055433,-8.63051 5.79915,-5.4693 10.636557,-5.29828 16.518844,0.58401 4.852084,4.85208 5.531377,8.29585 2.71187,13.74818 -2.377008,4.59662 -6.022258,6.8261 -11.160857,6.8261 -3.4935,0 -5.20098,-0.79773 -8.264273,-3.86102 z"
     id="path825"
     inkscape:connector-curvature="0" />
  <path
     style="fill:#000000;fill-opacity:0;stroke:#ff0000;stroke-width:0.56779659;stroke-miterlimit:4;stroke-dasharray:none;stroke-opacity:1"
     d="m 110.78002,190.30856 c -2.58802,-1.25039 -6.02155,-7.2424 -6.02155,-10.50849 0,-2.87851 3.10918,-8.2356 5.92416,-10.20729 6.22616,-4.36097 16.85332,-0.14436 18.49698,7.33918 1.08912,4.95874 -1.325,11.07213 -5.15424,13.05231 -3.73933,1.93368 -9.61644,2.07757 -13.24535,0.32429 z"
     id="path827"
     inkscape:connector-curvature="0" />
  <path
     style="fill:#000000;fill-opacity:0;stroke:#ff0000;stroke-width:0.56779659;stroke-miterlimit:4;stroke-dasharray:none;stroke-opacity:1"
     d="m 174.27585,153.5566 c -1.39169,-0.97478 -3.29395,-3.24898 -4.22725,-5.05377 -2.81951,-5.45233 -2.14022,-8.8961 2.71187,-13.74818 5.68104,-5.68104 10.25218,-5.93821 16.34096,-0.91932 3.82,3.14877 4.23332,4.02426 4.23332,8.96711 0,4.84867 -0.46093,5.88235 -4.01409,9.00207 -4.57336,4.01546 -10.78123,4.73842 -15.04481,1.75209 z"
     id="path829"
     inkscape:connector-curvature="0" />
</svg>
