<?xml version="1.0" encoding="UTF-8" standalone="no"?>
<!-- Created with Inkscape (http://www.inkscape.org/) -->

<svg
   xmlns:dc="http://purl.org/dc/elements/1.1/"
   xmlns:cc="http://creativecommons.org/ns#"
   xmlns:rdf="http://www.w3.org/1999/02/22-rdf-syntax-ns#"
   xmlns:svg="http://www.w3.org/2000/svg"
   xmlns="http://www.w3.org/2000/svg"
   xmlns:sodipodi="http://sodipodi.sourceforge.net/DTD/sodipodi-0.dtd"
   xmlns:inkscape="http://www.inkscape.org/namespaces/inkscape"
   version="1.1"
   id="svg2"
   width="55.495384mm"
   height="62.044792mm"
   viewBox="0 0 209.74634 234.5"
   sodipodi:docname="esoterica-khanda.svg"
   inkscape:version="0.92.5 (2060ec1f9f, 2020-04-08)">
  <metadata
     id="metadata8">
    <rdf:RDF>
      <cc:Work
         rdf:about="">
        <dc:format>image/svg+xml</dc:format>
        <dc:type
           rdf:resource="http://purl.org/dc/dcmitype/StillImage" />
        <dc:title></dc:title>
      </cc:Work>
    </rdf:RDF>
  </metadata>
  <defs
     id="defs6" />
  <sodipodi:namedview
     pagecolor="#ffffff"
     bordercolor="#666666"
     borderopacity="1"
     objecttolerance="10"
     gridtolerance="10"
     guidetolerance="10"
     inkscape:pageopacity="0"
     inkscape:pageshadow="2"
     inkscape:window-width="1920"
     inkscape:window-height="997"
     id="namedview4"
     showgrid="false"
     units="mm"
     fit-margin-top="0"
     fit-margin-left="0"
     fit-margin-right="0"
     fit-margin-bottom="0"
     inkscape:zoom="0.88059701"
     inkscape:cx="105.77481"
     inkscape:cy="116.34153"
     inkscape:window-x="0"
     inkscape:window-y="28"
     inkscape:window-maximized="1"
     inkscape:current-layer="svg2" />
  <path
     style="fill:#000000;fill-opacity:0;stroke:#ff0000;stroke-width:0.56779659;stroke-miterlimit:4;stroke-dasharray:none;stroke-opacity:1"
     d="m 91.92057,210.93644 c 0,-12.80382 -0.38326,-23.2773 -0.85169,-23.27441 -3.64012,0.0225 -13.86951,15.27045 -13.89993,20.71932 -0.01,1.7725 -1.37196,1.98729 -12.602431,1.98729 H 51.975177 l 0.804184,-4.82627 c 1.485791,-8.91691 4.989948,-18.50516 8.41983,-23.03878 1.872178,-2.47465 3.411004,-5.01037 3.419613,-5.63495 0.0086,-0.62458 -4.067418,-3.33125 -9.057838,-6.01483 C 24.951499,154.39369 5.4676373,125.26764 0.90128132,89.144064 -1.4332137,70.676323 2.9564263,48.149631 12.442747,29.915722 l 4.707738,-9.048868 3.033349,1.952956 c 1.668342,1.074125 6.409463,4.155347 10.535825,6.84716 l 7.502477,4.894206 -3.830564,7.560514 c -8.120895,16.028488 -11.080873,33.084493 -8.419146,48.512874 1.718632,9.961846 7.808289,25.042066 13.378204,33.129326 4.798093,6.96663 16.464494,18.32773 22.84156,22.24383 7.012912,4.30658 19.80434,9.70748 24.90211,10.51438 l 4.82627,0.76394 v -7.43843 -7.43843 L 87.6621,141.02867 C 67.817242,134.59535 53.022612,121.28288 45.418594,103.01721 38.634397,86.720844 38.663687,70.493442 45.506492,54.316714 53.234917,36.04634 68.42325,22.224677 86.8104,16.729394 l 4.54238,-1.357558 0.33578,-7.5439687 0.33578,-7.54396901 h 12.43964 12.43964 V 7.6214833 14.959069 l 4.79762,1.291864 c 10.82519,2.914923 23.72849,11.05642 32.24126,20.343033 5.35786,5.844915 11.92879,18.67184 13.63417,26.614877 3.38745,15.777468 1.21289,32.958401 -5.78427,45.700907 -8.7494,15.93347 -21.79192,26.52018 -40.03532,32.49696 l -4.28566,1.40404 v 6.8086 6.80861 l 4.81137,-0.21352 c 6.27605,-0.27852 21.82983,-7.3135 29.99214,-13.56545 16.38898,-12.55318 27.8867,-30.94482 31.0574,-49.679096 2.12645,-12.564247 2.12443,-15.776965 -0.0179,-28.524979 -1.24643,-7.416576 -3.07313,-12.948476 -6.65872,-20.165004 l -4.9411,-9.944663 6.94625,-4.868702 c 9.17705,-6.432302 13.31248,-9.005704 13.73782,-8.548809 2.16446,2.324974 8.081,14.361191 11.35085,23.091428 5.03909,13.453948 6.71534,28.592432 5.14502,46.465709 -2.9229,33.267956 -24.6891,64.859236 -56.00393,81.283596 -7.84919,4.11683 -8.84807,5.49727 -5.80515,8.02267 4.01211,3.32976 10.69955,20.44708 10.69955,27.38683 v 3.20067 h -12.44011 -12.44006 l -0.77104,-4.25848 c -1.04605,-5.77754 -3.04051,-9.45072 -7.78331,-14.33451 -7.26953,-7.48562 -7.44688,-7.02932 -7.44688,19.16079 V 234.2161 H 104.4121 91.92057 Z m 0,-131.728813 c 0,-35.914894 -0.0599,-36.90678 -2.22864,-36.90678 -3.16783,0 -13.35407,8.662763 -17.80951,15.145881 -5.020872,7.30588 -6.428869,13.107108 -5.832748,24.032085 0.550751,10.093481 2.585699,15.101581 9.298478,22.883987 3.82414,4.43348 13.55841,11.7516 15.63152,11.7516 0.5175,0 0.9409,-16.608046 0.9409,-36.906773 z m 32.99378,33.683903 C 142.02993,101.96548 148.71292,81.855618 141.29505,63.600138 137.2361,53.611 125.70104,42.300847 119.57222,42.300847 h -2.6686 v 36.149717 c 0,19.88235 0.34068,36.490396 0.75707,36.906776 1.19461,1.19461 1.88989,0.95826 7.25366,-2.46581 z"
     id="path5454"
     inkscape:connector-curvature="0" />
</svg>
