<?xml version="1.0" encoding="UTF-8" standalone="no"?>
<!-- Created with Inkscape (http://www.inkscape.org/) -->

<svg
   xmlns:dc="http://purl.org/dc/elements/1.1/"
   xmlns:cc="http://creativecommons.org/ns#"
   xmlns:rdf="http://www.w3.org/1999/02/22-rdf-syntax-ns#"
   xmlns:svg="http://www.w3.org/2000/svg"
   xmlns="http://www.w3.org/2000/svg"
   xmlns:sodipodi="http://sodipodi.sourceforge.net/DTD/sodipodi-0.dtd"
   xmlns:inkscape="http://www.inkscape.org/namespaces/inkscape"
   version="1.1"
   id="svg22"
   width="59.45467mm"
   height="54.657352mm"
   viewBox="0 0 224.71057 206.57897"
   sodipodi:docname="esoterica-heart.svg"
   inkscape:version="0.92.5 (2060ec1f9f, 2020-04-08)">
  <metadata
     id="metadata28">
    <rdf:RDF>
      <cc:Work
         rdf:about="">
        <dc:format>image/svg+xml</dc:format>
        <dc:type
           rdf:resource="http://purl.org/dc/dcmitype/StillImage" />
        <dc:title></dc:title>
      </cc:Work>
    </rdf:RDF>
  </metadata>
  <defs
     id="defs26" />
  <sodipodi:namedview
     pagecolor="#ffffff"
     bordercolor="#666666"
     borderopacity="1"
     objecttolerance="10"
     gridtolerance="10"
     guidetolerance="10"
     inkscape:pageopacity="0"
     inkscape:pageshadow="2"
     inkscape:window-width="1920"
     inkscape:window-height="997"
     id="namedview24"
     showgrid="false"
     units="mm"
     fit-margin-top="0"
     fit-margin-left="0"
     fit-margin-right="0"
     fit-margin-bottom="0"
     inkscape:zoom="0.88059701"
     inkscape:cx="112.79772"
     inkscape:cy="103.25032"
     inkscape:window-x="0"
     inkscape:window-y="28"
     inkscape:window-maximized="1"
     inkscape:current-layer="svg22" />
  <path
     style="fill:#000000;fill-opacity:0;stroke:#ff0000;stroke-width:0.56779659;stroke-miterlimit:4;stroke-dasharray:none;stroke-opacity:1"
     d="M 63.008069,156.27501 C 8.6403457,101.79815 6.9905307,99.797086 2.3834207,82.743376 0.31078368,75.071276 -0.01628232,71.592556 0.49656068,62.674419 1.5810117,43.816281 8.5228527,28.83665 21.616222,17.100821 28.429462,10.993987 42.922704,3.332366 51.24857,1.436152 c 7.482324,-1.70409603 22.410461,-1.46936303 29.853993,0.469432 8.6705,2.258377 21.392137,8.777598 26.980097,13.825989 l 4.54018,4.101778 5.66836,-4.77963 c 6.17158,-5.203961 19.40235,-11.803182 27.32652,-13.629886 7.40815,-1.70775103 22.33956,-1.44558403 29.90546,0.525084 19.15835,4.990119 34.63458,17.643507 43.58778,35.637446 l 5.31557,10.683134 -0.0368,17.706697 -0.0368,17.7067 -4.95748,10.22034 -4.95748,10.220344 -50.81398,51.02664 -50.81398,51.02664 -49.801871,-49.90185 z M 152.90444,130.6252 c 21.3467,-21.33724 40.11037,-40.883644 41.69705,-43.436444 4.03339,-6.4893 6.86787,-18.71042 5.89279,-25.407398 -3.43081,-23.563297 -22.7331,-38.817021 -45.7034,-36.117313 -10.7077,1.258481 -17.2137,5.083332 -30.29469,17.810161 L 112.59885,55.049435 100.1497,43.022001 C 86.307513,29.648713 84.300873,28.340255 74.551777,26.330481 55.735914,22.451597 37.623376,31.020866 29.420895,47.682468 c -3.416916,6.940742 -3.723172,8.452199 -3.723172,18.374852 0,17.233646 -0.118677,17.070796 46.396679,63.66828 21.793531,21.83202 40.158588,39.69459 40.811238,39.69459 0.65264,0 18.6521,-17.45775 39.9988,-38.79499 z"
     id="path6523"
     inkscape:connector-curvature="0" />
</svg>
