<?xml version="1.0" encoding="UTF-8" standalone="no"?>
<!-- Created with Inkscape (http://www.inkscape.org/) -->

<svg
   xmlns:dc="http://purl.org/dc/elements/1.1/"
   xmlns:cc="http://creativecommons.org/ns#"
   xmlns:rdf="http://www.w3.org/1999/02/22-rdf-syntax-ns#"
   xmlns:svg="http://www.w3.org/2000/svg"
   xmlns="http://www.w3.org/2000/svg"
   xmlns:sodipodi="http://sodipodi.sourceforge.net/DTD/sodipodi-0.dtd"
   xmlns:inkscape="http://www.inkscape.org/namespaces/inkscape"
   version="1.1"
   id="svg42"
   width="34.448128mm"
   height="65.647308mm"
   viewBox="0 0 130.19765 248.11581"
   sodipodi:docname="hermetica-wolfsangel_alt.svg"
   inkscape:version="0.92.5 (2060ec1f9f, 2020-04-08)">
  <metadata
     id="metadata48">
    <rdf:RDF>
      <cc:Work
         rdf:about="">
        <dc:format>image/svg+xml</dc:format>
        <dc:type
           rdf:resource="http://purl.org/dc/dcmitype/StillImage" />
        <dc:title></dc:title>
      </cc:Work>
    </rdf:RDF>
  </metadata>
  <defs
     id="defs46" />
  <sodipodi:namedview
     pagecolor="#ffffff"
     bordercolor="#666666"
     borderopacity="1"
     objecttolerance="10"
     gridtolerance="10"
     guidetolerance="10"
     inkscape:pageopacity="0"
     inkscape:pageshadow="2"
     inkscape:window-width="1920"
     inkscape:window-height="997"
     id="namedview44"
     showgrid="false"
     units="mm"
     fit-margin-top="0"
     fit-margin-left="0"
     fit-margin-right="0"
     fit-margin-bottom="0"
     inkscape:zoom="0.88059701"
     inkscape:cx="65.232357"
     inkscape:cy="124.251"
     inkscape:window-x="0"
     inkscape:window-y="28"
     inkscape:window-maximized="1"
     inkscape:current-layer="svg42" />
  <path
     style="fill:#ff0000;fill-opacity:0.01829266;stroke:#ff0000;stroke-width:0.56779659;stroke-miterlimit:4;stroke-dasharray:none;stroke-opacity:1"
     d="m 69.951067,243.48697 c -3.83785,-2.27278 -8.69251,-5.11977 -10.78814,-6.32666 -2.09562,-1.20687 -13.51955,-7.80615 -25.3865,-14.66505 C 21.909476,215.63637 9.517315,208.53691 6.238289,206.7187 c -3.279025,-1.81821 -5.95849697,-3.90622 -5.95438197,-4.64003 0.0041,-0.73381 1.05275997,-2.86725 2.33031997,-4.74098 1.27756,-1.87373 3.840364,-6.35252 5.69512,-9.95286 l 3.372283,-6.54608 3.098245,1.75208 c 1.704035,0.96364 7.697397,4.51747 13.318584,7.89739 5.621188,3.37993 10.585858,6.176 11.032598,6.21349 0.44674,0.0375 3.22963,1.60124 6.18419,3.47496 2.95456,1.87373 5.7829,3.40678 6.2852,3.40678 0.5023,0 0.91327,-14.81949 0.91327,-32.9322 v -32.9322 H 38.886597 25.259476 V 125.22752 112.736 h 13.627121 13.62712 V 56.610577 0.48515793 l 8.23305,4.62593597 c 4.52817,2.544265 9.91723,5.5282991 11.97568,6.6311881 2.05845,1.102887 4.35803,2.504973 5.11017,3.115745 0.75215,0.610772 4.17813,2.644351 7.6133,4.519065 3.43517,1.874713 10.84491,6.096577 16.466103,9.38192 5.62119,3.285343 13.79746,8.002826 18.16949,10.483297 11.42614,6.482606 11.03276,5.926957 8.0694,11.398035 -5.01553,9.259902 -9.2041,15.536329 -10.3682,15.536329 -1.10934,0 -5.93186,-2.702353 -28.661863,-16.06098 -5.16141,-3.03341 -9.89592,-5.515291 -10.52113,-5.515291 -0.73987,0 -1.03173,11.795149 -0.83595,33.783899 l 0.30079,33.783899 13.34322,0.31994 13.343223,0.31993 v 12.4555 12.45548 H 91.134687 77.518367 l -0.2947,54.95013 -0.2947,54.95013 z"
     id="path6502"
     inkscape:connector-curvature="0" />
</svg>
