<?xml version="1.0" encoding="UTF-8" standalone="no"?>
<!-- Created with Inkscape (http://www.inkscape.org/) -->

<svg
   xmlns:dc="http://purl.org/dc/elements/1.1/"
   xmlns:cc="http://creativecommons.org/ns#"
   xmlns:rdf="http://www.w3.org/1999/02/22-rdf-syntax-ns#"
   xmlns:svg="http://www.w3.org/2000/svg"
   xmlns="http://www.w3.org/2000/svg"
   xmlns:sodipodi="http://sodipodi.sourceforge.net/DTD/sodipodi-0.dtd"
   xmlns:inkscape="http://www.inkscape.org/namespaces/inkscape"
   version="1.1"
   id="svg52"
   width="63.574875mm"
   height="63.54768mm"
   viewBox="0 0 240.28299 240.18021"
   sodipodi:docname="esoterica-redos_rata2.svg"
   inkscape:version="0.92.5 (2060ec1f9f, 2020-04-08)">
  <metadata
     id="metadata58">
    <rdf:RDF>
      <cc:Work
         rdf:about="">
        <dc:format>image/svg+xml</dc:format>
        <dc:type
           rdf:resource="http://purl.org/dc/dcmitype/StillImage" />
        <dc:title></dc:title>
      </cc:Work>
    </rdf:RDF>
  </metadata>
  <defs
     id="defs56" />
  <sodipodi:namedview
     pagecolor="#ffffff"
     bordercolor="#666666"
     borderopacity="1"
     objecttolerance="10"
     gridtolerance="10"
     guidetolerance="10"
     inkscape:pageopacity="0"
     inkscape:pageshadow="2"
     inkscape:window-width="1920"
     inkscape:window-height="997"
     id="namedview54"
     showgrid="false"
     units="mm"
     fit-margin-top="0"
     fit-margin-left="0"
     fit-margin-right="0"
     fit-margin-bottom="0"
     inkscape:zoom="0.88059701"
     inkscape:cx="119.74831"
     inkscape:cy="119.74831"
     inkscape:window-x="0"
     inkscape:window-y="28"
     inkscape:window-maximized="1"
     inkscape:current-layer="svg52" />
  <path
     style="fill:#000000;fill-opacity:0;stroke:#ff0000;stroke-width:0.56779659;stroke-miterlimit:4;stroke-dasharray:none;stroke-opacity:1"
     d="M 57.063559,216.04884 V 192.20138 H 83.75 110.43645 V 160.97257 129.74375 H 79.207627 47.978813 v 26.68645 26.68644 H 24.131356 0.28389829 v -9.08475 -9.08475 H 15.04661 29.809322 v -4.54237 -4.54237 H 15.04661 0.28389829 v -9.08475 -9.08474 H 15.04661 29.809322 v -3.97458 -3.97458 H 15.04661 0.28389829 v -9.08474 -9.08475 H 15.04661 29.809322 v -4.54237 -4.54237 H 15.04661 0.28389829 V 93.404775 84.320031 H 15.04661 29.809322 V 80.345454 76.370878 H 15.04661 0.28389829 V 67.286132 58.201387 H 24.110427 47.936954 l 0.304829,26.402542 0.304827,26.402541 h 30.661017 30.661023 l 0.30215,-30.944914 0.30215,-30.944915 H 83.768251 57.063559 V 24.701387 0.28613163 h 9.084746 9.084746 V 15.685191 31.084251 L 79.491525,30.731801 83.75,30.379353 84.066859,15.332742 84.383718,0.28613163 h 9.051787 9.051785 V 15.616641 30.947149 h 3.97458 3.97458 V 15.616641 0.28613163 l 9.36864,-0.0011 9.36864,-0.0011 V 15.331656 30.379379 h 3.97458 3.97458 l 0.31686,-15.046611 0.31685,-15.04661037 h 9.05179 9.05178 V 15.616667 30.947175 h 3.97458 3.97458 V 15.616641 0.28613163 h 9.08474 9.08475 V 24.680458 49.074782 l -26.40254,0.304828 -26.40255,0.304827 v 30.661017 30.661016 h 30.66102 30.66102 l 0.30482,-26.402541 0.30483,-26.402542 h 24.39433 24.39432 v 9.084745 9.084746 h -15.33051 -15.3305 v 3.974576 3.974577 h 15.3305 15.33051 v 9.051784 9.051785 l -15.04661,0.31685 -15.04661,0.31686 v 3.97458 3.97458 l 15.09379,0.31718 15.09377,0.31719 -0.33106,8.76755 -0.33107,8.76757 -15.04661,0.31686 -15.04661,0.31686 v 3.94162 3.94161 h 15.3305 15.33051 v 9.05178 9.05179 l -15.04661,0.31685 -15.04661,0.31687 -0.35245,4.25847 -0.35244,4.25847 h 15.39905 15.39906 v 9.08475 9.08475 h -24.41525 -24.41526 v -26.70469 -26.70469 l -30.94491,0.30214 -30.94492,0.30215 v 30.66102 30.66101 l 26.40255,0.30483 26.40254,0.30483 v 23.82653 23.82653 h -9.08475 -9.08474 v -14.76272 -14.76271 h -3.97458 -3.97458 v 14.76271 14.76272 h -9.08474 -9.08475 v -14.76272 -14.76271 h -4.54237 -4.54237 v 14.76271 14.76272 h -9.08475 -9.08474 v -14.76272 -14.76271 h -3.97458 -3.97458 v 14.76271 14.76272 h -9.084745 -9.084748 v -14.76272 -14.76271 h -4.542373 -4.542373 v 14.76271 14.76272 h -9.084746 -9.084746 z"
     id="path6452"
     inkscape:connector-curvature="0" />
</svg>
