<?xml version="1.0" encoding="UTF-8" standalone="no"?>
<!-- Created with Inkscape (http://www.inkscape.org/) -->

<svg
   xmlns:dc="http://purl.org/dc/elements/1.1/"
   xmlns:cc="http://creativecommons.org/ns#"
   xmlns:rdf="http://www.w3.org/1999/02/22-rdf-syntax-ns#"
   xmlns:svg="http://www.w3.org/2000/svg"
   xmlns="http://www.w3.org/2000/svg"
   xmlns:sodipodi="http://sodipodi.sourceforge.net/DTD/sodipodi-0.dtd"
   xmlns:inkscape="http://www.inkscape.org/namespaces/inkscape"
   version="1.1"
   id="svg62"
   width="39.159935mm"
   height="62.793896mm"
   viewBox="0 0 148.00605 237.33126"
   sodipodi:docname="hermetica-hepar_calcis.svg"
   inkscape:version="0.92.5 (2060ec1f9f, 2020-04-08)">
  <metadata
     id="metadata68">
    <rdf:RDF>
      <cc:Work
         rdf:about="">
        <dc:format>image/svg+xml</dc:format>
        <dc:type
           rdf:resource="http://purl.org/dc/dcmitype/StillImage" />
        <dc:title></dc:title>
      </cc:Work>
    </rdf:RDF>
  </metadata>
  <defs
     id="defs66" />
  <sodipodi:namedview
     pagecolor="#ffffff"
     bordercolor="#666666"
     borderopacity="1"
     objecttolerance="10"
     gridtolerance="10"
     guidetolerance="10"
     inkscape:pageopacity="0"
     inkscape:pageshadow="2"
     inkscape:window-width="1920"
     inkscape:window-height="997"
     id="namedview64"
     showgrid="false"
     inkscape:zoom="0.88059701"
     inkscape:cx="73.526482"
     inkscape:cy="117.46939"
     inkscape:window-x="0"
     inkscape:window-y="28"
     inkscape:window-maximized="1"
     inkscape:current-layer="svg62"
     units="mm"
     fit-margin-top="0"
     fit-margin-left="0"
     fit-margin-right="0"
     fit-margin-bottom="0" />
  <path
     style="fill:#ff0000;fill-opacity:0.01829266;stroke:#ff0000;stroke-width:0.56779659;stroke-miterlimit:4;stroke-dasharray:none;stroke-opacity:1"
     d="m 72.029292,235.63559 c -0.074,-0.78072 -0.074,-1.80276 0,-2.27119 0.074,-0.46843 -0.37654,-0.85169 -1.00112,-0.85169 -0.62457,0 -1.13559,-0.76653 -1.13559,-1.70339 0,-0.93687 -0.59618,-1.70339 -1.32486,-1.70339 -0.72867,0 -0.98662,-0.33824 -0.57323,-0.75163 0.4134,-0.4134 -0.57326,-2.48865 -2.19257,-4.61168 -1.61931,-2.12302 -3.06681,-4.69544 -3.21667,-5.71647 -0.14986,-1.02104 -0.86977,-2.05553 -1.59981,-2.29887 -0.73004,-0.24335 -1.07612,-0.84895 -0.76906,-1.34578 0.30705,-0.49683 -0.9673,-2.82302 -2.83191,-5.16933 -1.86461,-2.3463 -3.39019,-5.19237 -3.39019,-6.3246 0,-1.13225 -0.89428,-2.57949 -1.98729,-3.2161 -1.09301,-0.63663 -1.60082,-1.17304 -1.12847,-1.19203 0.47235,-0.019 -0.67744,-2.15527 -2.55509,-4.74729 -1.87764,-2.59201 -3.4139,-5.4026 -3.4139,-6.24576 0,-0.84315 -0.54118,-1.533 -1.20261,-1.533 -0.66144,0 -0.91353,-0.46776 -0.5602,-1.03945 0.35332,-0.57169 -0.6284,-2.5497 -2.18161,-4.39558 -1.553207,-1.84589 -3.839529,-5.72526 -5.080714,-8.62083 -1.241185,-2.89556 -3.277734,-6.36061 -4.525666,-7.70011 -1.247931,-1.3395 -2.00097,-2.86908 -1.67342,-3.39906 0.327552,-0.52999 0.05437,-0.96362 -0.607065,-0.96362 -0.661436,0 -1.202612,-0.76652 -1.202612,-1.70339 0,-0.93686 -0.541176,-1.70339 -1.202613,-1.70339 -0.661436,0 -0.923908,-0.45095 -0.583269,-1.00211 0.340639,-0.55118 -0.395728,-2.29258 -1.636371,-3.8698 -1.240642,-1.57722 -2.255714,-3.42585 -2.255714,-4.10805 0,-0.68221 -0.596186,-1.24038 -1.324859,-1.24038 -0.728671,0 -0.990954,-0.33391 -0.582847,-0.74201 0.811889,-0.81189 -2.903842,-7.52523 -6.235533,-11.26597 -1.153829,-1.29548 -1.752521,-2.70078 -1.330424,-3.12288 0.422096,-0.42209 0.171262,-0.76744 -0.55741,-0.76744 -0.728672,0 -1.324859,-0.66586 -1.324859,-1.47968 0,-0.81382 -1.5224332,-3.54986 -3.3831852,-6.08009 -1.860751,-2.53023 -3.053124,-4.93047 -2.649717,-5.33388 0.403407,-0.40341 0.107122,-0.73347 -0.658411,-0.73347 -0.765533,0 -1.095463,-0.47961 -0.733178,-1.0658 0.362285,-0.58619 -0.246327,-1.59268 -1.352472,-2.23665 -1.10614497,-0.64398 -1.60992997,-1.1864 -1.11952297,-1.20539 0.49040697,-0.019 0.34467297,-1.05657 -0.323853,-2.30572 -1.20157,-2.24515 -0.863607,-2.27119 29.48546917,-2.27119 h 30.700976 l -0.0174,-11.639826 c -0.0185,-12.383322 -0.7288,-14.992727 -3.76408,-13.827981 -1.10337,0.423403 -1.8965,0.174004 -1.8965,-0.596353 0,-0.72826 -0.47733,-1.029101 -1.06074,-0.668536 -1.27881,0.790346 -10.25388,-2.641062 -12.37403,-4.730921 -0.83108,-0.8192 -1.92732,-1.232184 -2.436094,-0.917743 -0.508776,0.314442 -1.230494,-0.224267 -1.603817,-1.197132 -0.373323,-0.972864 -1.150463,-1.477321 -1.726976,-1.121017 -0.576514,0.356305 -2.712635,-1.016602 -4.746938,-3.050904 -2.034303,-2.034302 -4.249058,-3.721961 -4.921679,-3.750351 -0.672621,-0.02839 -1.082532,-0.705144 -0.910912,-1.503899 0.171619,-0.798756 -0.143348,-1.170841 -0.699927,-0.826856 -1.169233,0.722626 -5.043434,-3.163701 -4.097155,-4.10998 0.346543,-0.346542 -0.743292,-1.710369 -2.421853,-3.030727 -1.678562,-1.320356 -2.727508,-2.400648 -2.33099,-2.400648 0.396518,0 -0.319732,-1.040674 -1.591666,-2.312607 -1.271932,-1.271933 -2.0083,-2.804984 -1.63637,-3.40678 0.37193,-0.601795 0.198937,-1.094172 -0.384427,-1.094172 -0.583365,0 -1.354955,-1.471456 -1.714644,-3.2699 C 10.111955,42.342671 9.0503788,40.103931 8.1125848,39.166136 7.1747908,38.228343 6.7516338,37.116928 7.1722368,36.696325 7.5928388,36.275722 7.3212718,35.551072 6.5687528,35.08599 5.8162348,34.620907 5.0140338,32.169852 4.7860848,29.6392 4.5581358,27.108546 4.1580068,24.578506 3.8969098,24.016888 3.6358118,23.455269 3.5947978,18.268856 3.8057698,12.491525 L 4.1893518,1.9872883 H 15.900411 27.61147 l 0.693375,11.6398297 c 0.381356,6.401907 0.728059,12.53411 0.77045,13.627119 0.04239,1.093008 0.586491,1.987288 1.209112,1.987288 0.62262,0 0.816211,0.511017 0.430202,1.135593 -0.38601,0.624577 -0.130502,1.135593 0.567796,1.135593 0.698298,0 0.994996,0.444372 0.659329,0.987492 -0.335667,0.54312 0.655584,2.459434 2.202779,4.258474 1.547196,1.799041 2.813709,3.864329 2.814472,4.589528 0.0012,1.153171 1.695883,2.780743 9.086127,8.726375 0.93687,0.75373 2.15728,1.44116 2.71202,1.527623 0.55475,0.08646 1.32128,0.619299 1.70339,1.18408 0.38212,0.564783 2.86659,1.881834 5.52103,2.92678 l 4.82628,1.899903 V 28.948432 0.28389829 h 12.98816 12.98817 l 0.0545,27.82203371 c 0.03,15.302118 0.062,28.192648 0.0712,28.645622 0.009,0.452973 1.24168,0.357844 2.73889,-0.211398 1.49723,-0.569242 3.03028,-0.726933 3.40678,-0.350424 0.37652,0.376509 0.68457,0.08837 0.68457,-0.640297 0,-0.728673 0.76652,-1.324859 1.70339,-1.324859 0.93686,0 1.70339,-0.541176 1.70339,-1.202613 0,-0.661436 0.47961,-0.906197 1.0658,-0.543912 0.58619,0.362286 1.59268,-0.246328 2.236648,-1.352473 0.64397,-1.106144 1.1864,-1.706407 1.20539,-1.333915 0.0513,1.006795 8.84188,-7.302942 9.12553,-8.626409 0.13387,-0.624576 1.20926,-2.492022 2.38976,-4.149878 1.18049,-1.657857 2.14636,-3.531586 2.14636,-4.163842 0,-0.632256 0.58892,-1.345863 1.3087,-1.585794 0.7198,-0.239929 1.38276,-1.441287 1.47325,-2.669682 0.0905,-1.228395 0.55379,-2.863233 1.02951,-3.632972 0.47572,-0.769741 0.54913,-1.910544 0.16312,-2.53512 -0.38601,-0.624577 -0.18554,-1.135594 0.44549,-1.135594 0.73616,0 0.90322,-3.459247 0.46615,-9.652542 L 119.5214,1.9872883 h 12.6602 12.66019 V 13.843997 c 0,7.075849 -0.48206,12.154642 -1.19554,12.595593 -0.65754,0.406385 -0.98316,1.330823 -0.7236,2.054307 0.25957,0.723483 -0.24536,2.735728 -1.12205,4.471656 -0.8767,1.735927 -1.28745,3.65224 -0.91277,4.258475 0.37468,0.606233 0.0549,1.102243 -0.71066,1.102243 -0.76553,0 -1.05563,0.336244 -0.64466,0.74721 0.41096,0.410965 0.13527,1.484551 -0.61266,2.385747 -0.74793,0.901196 -1.46022,2.322322 -1.58288,3.158061 -0.12266,0.835738 -1.61101,3.33927 -3.30744,5.563405 -1.69643,2.224135 -2.64051,4.060883 -2.09794,4.081662 0.54256,0.02078 -0.21992,1.042813 -1.69441,2.271186 -1.4745,1.228374 -2.27969,2.233407 -1.78934,2.233407 0.49035,0 -0.29385,1.261793 -1.74266,2.803984 -1.44881,1.54219 -3.0836,2.52624 -3.63287,2.186778 -0.54926,-0.339463 -0.85823,0.03632 -0.68662,0.835076 0.17162,0.798755 -0.19898,1.475928 -0.82356,1.50483 -0.62457,0.0289 -2.86159,1.702805 -4.97114,3.719784 -2.10954,2.016978 -4.28497,3.389466 -4.83428,3.049974 -0.54931,-0.339493 -1.3042,0.178719 -1.67752,1.151583 -0.37333,0.972865 -1.09504,1.511574 -1.60382,1.197132 -0.50878,-0.314441 -1.60502,0.09855 -2.43609,0.917743 -2.12015,2.089859 -11.095228,5.521267 -12.374038,4.730921 -0.5834,-0.360565 -1.06073,-0.05972 -1.06073,0.668536 0,0.75639 -0.7922,1.020112 -1.84768,0.615089 -3.38102,-1.297419 -4.528,2.358817 -4.18445,13.338855 0.17909,5.723756 0.33203,10.790096 0.33988,11.258526 0.008,0.46843 13.501558,0.85169 29.985998,0.85169 25.59396,0 30.06721,0.24881 30.62539,1.70339 0.3595,0.93687 0.21407,1.70339 -0.32321,1.70339 -0.53726,0 -1.29748,1.27755 -1.68937,2.83899 -0.39191,1.56144 -1.24399,2.83898 -1.89352,2.83898 -0.64954,0 -0.86516,0.51102 -0.47915,1.13559 0.38602,0.62458 0.13051,1.1356 -0.56779,1.1356 -0.6983,0 -0.9869,0.45747 -0.64134,1.0166 0.34556,0.55912 -0.16768,1.32205 -1.14056,1.69536 -0.97286,0.37333 -1.45077,1.1934 -1.06205,1.82239 0.38874,0.62898 0.13547,1.14361 -0.56283,1.14361 -0.6983,0 -0.95381,0.51102 -0.5678,1.13559 0.38601,0.62458 0.16067,1.1356 -0.50077,1.1356 -0.66144,0 -1.20262,0.68704 -1.20262,1.52676 0,0.83971 -1.27692,3.01153 -2.8376,4.82627 -1.56068,1.81473 -2.9021,3.68277 -2.98093,4.15121 -0.56465,3.35511 -3.44263,8.80084 -4.6511,8.80084 -0.56119,0 -0.70451,0.51102 -0.3185,1.1356 0.38601,0.62457 0.1305,1.13559 -0.5678,1.13559 -0.6983,0 -0.9869,0.45747 -0.64134,1.0166 0.34556,0.55913 -0.14004,1.31143 -1.07911,1.67179 -0.93906,0.36036 -1.59759,1.05267 -1.46338,1.53848 0.33706,1.2201 -3.66265,8.64457 -5.20767,9.66676 -0.69358,0.45887 -0.78011,0.84213 -0.1923,0.8517 0.5878,0.009 0.17603,0.67015 -0.91507,1.46799 -1.09111,0.79782 -2.10763,2.20312 -2.25896,3.12288 -0.36248,2.20322 -2.97208,6.91187 -4.89806,8.83784 -0.84396,0.84397 -1.27721,1.95076 -0.96277,2.45954 0.31445,0.50877 -0.22426,1.23049 -1.19713,1.60381 -0.97286,0.37333 -1.45079,1.19339 -1.06205,1.82239 0.38874,0.62898 0.22102,1.14361 -0.37271,1.14361 -0.59373,0 -1.3765,1.18331 -1.73949,2.62957 -0.36299,1.44627 -1.69593,3.82403 -2.96209,5.28392 -1.266158,1.4599 -2.302108,3.3427 -2.302108,4.18399 0,0.8413 -0.51101,1.52964 -1.13559,1.52964 -0.62458,0 -1.02703,0.38326 -0.89434,0.85169 0.30736,1.08504 -2.39976,6.01141 -4.40562,8.01727 -0.84396,0.84396 -1.27721,1.95075 -0.96276,2.45953 0.31444,0.50877 -0.22427,1.2305 -1.19714,1.60381 -0.97286,0.37333 -1.45078,1.1934 -1.06205,1.82239 0.38874,0.62898 0.261,1.14361 -0.28386,1.14361 -0.54487,0 -1.69244,1.78856 -2.55016,3.97458 -0.85773,2.18602 -2.0053,3.97458 -2.55016,3.97458 -0.54487,0 -0.67484,0.51101 -0.28883,1.13559 0.38601,0.62457 0.16066,1.13559 -0.50077,1.13559 -0.66144,0 -1.20262,0.76653 -1.20262,1.70339 0,0.93687 -0.51101,1.70339 -1.13559,1.70339 -0.62458,0 -1.00784,0.41178 -0.85169,0.91506 0.35917,1.15769 -5.1019,9.2871 -6.24577,9.29752 -0.46843,0.005 -0.91221,-0.63101 -0.98617,-1.41173 z m 5.87675,-53.11242 c 1.50074,-2.71102 1.75535,-3.38644 2.06493,-5.4779 0.0781,-0.52743 1.39039,-2.41188 2.91627,-4.18765 1.52588,-1.77577 2.51775,-3.64381 2.20417,-4.1512 -0.31359,-0.50739 -0.029,-0.92253 0.63246,-0.92253 0.66143,0 1.20261,-0.76652 1.20261,-1.70339 0,-0.93686 0.54118,-1.70339 1.20261,-1.70339 0.66144,0 0.91225,-0.46981 0.55736,-1.04404 -0.35489,-0.57422 0.16247,-1.85176 1.14969,-2.83898 0.98722,-0.98722 1.50293,-1.79494 1.14603,-1.79494 -0.3569,0 0.39176,-1.04067 1.6637,-2.3126 1.27193,-1.27195 2.0083,-2.805 1.63637,-3.40678 -0.37193,-0.6018 -0.19046,-1.09418 0.40327,-1.09418 0.59372,0 1.37598,-1.18127 1.73834,-2.62505 0.36237,-1.44377 1.92172,-4.09473 3.46523,-5.89103 1.543508,-1.79629 2.576788,-3.63747 2.296168,-4.09152 -0.28061,-0.45405 -0.011,-0.99693 0.599,-1.20643 0.61006,-0.20949 1.25202,-1.65843 1.42656,-3.21987 l 0.31736,-2.83898 -30.017168,-0.30316 c -16.78335,-0.16951 -30.46881,0.14846 -31.04156,0.72121 -0.60876,0.60877 -0.19934,2.57468 1.00914,4.84554 1.11843,2.10163 1.9237,4.21863 1.78949,4.70445 -0.13421,0.48581 0.52432,1.17812 1.46339,1.53848 0.93907,0.36036 1.46586,1.04602 1.17064,1.52369 -0.29522,0.47768 0.70065,2.30856 2.21304,4.06865 1.5124,1.76008 2.49324,3.61529 2.17966,4.12268 -0.31359,0.50739 0.001,0.92253 0.69948,0.92253 0.69829,0 0.9538,0.51101 0.56779,1.13559 -0.38601,0.62457 -0.0755,1.13559 0.69005,1.13559 0.76553,0 1.06215,0.32972 0.65916,0.73272 -0.403,0.40299 1.03393,3.13937 3.19317,6.08084 2.15923,2.94147 3.59616,5.67785 3.19316,6.08084 -0.40299,0.403 -0.10637,0.73272 0.65917,0.73272 0.76553,0 1.07382,0.51463 0.68508,1.14361 -0.38873,0.62899 0.0892,1.44906 1.06205,1.82239 0.97287,0.37331 1.52324,1.07617 1.22305,1.56189 -0.3002,0.48572 0.46927,2.17359 1.70991,3.7508 1.24064,1.57723 2.25571,3.42585 2.25571,4.10805 0,0.68221 0.59619,1.24038 1.32486,1.24038 0.72867,0 1.0149,0.30996 0.63606,0.6888 -0.37884,0.37884 -0.0953,1.32416 0.63012,2.1007 1.51261,1.61926 2.8992,0.60956 5.42242,-3.94853 z"
     id="path5323"
     inkscape:connector-curvature="0" />
</svg>
