<?xml version="1.0" encoding="UTF-8" standalone="no"?>
<!-- Created with Inkscape (http://www.inkscape.org/) -->

<svg
   xmlns:dc="http://purl.org/dc/elements/1.1/"
   xmlns:cc="http://creativecommons.org/ns#"
   xmlns:rdf="http://www.w3.org/1999/02/22-rdf-syntax-ns#"
   xmlns:svg="http://www.w3.org/2000/svg"
   xmlns="http://www.w3.org/2000/svg"
   xmlns:sodipodi="http://sodipodi.sourceforge.net/DTD/sodipodi-0.dtd"
   xmlns:inkscape="http://www.inkscape.org/namespaces/inkscape"
   version="1.1"
   id="svg82"
   width="45.519543mm"
   height="61.858662mm"
   viewBox="0 0 172.04237 233.79652"
   sodipodi:docname="esoterica-ehwaz.svg"
   inkscape:version="0.92.5 (2060ec1f9f, 2020-04-08)">
  <metadata
     id="metadata88">
    <rdf:RDF>
      <cc:Work
         rdf:about="">
        <dc:format>image/svg+xml</dc:format>
        <dc:type
           rdf:resource="http://purl.org/dc/dcmitype/StillImage" />
        <dc:title></dc:title>
      </cc:Work>
    </rdf:RDF>
  </metadata>
  <defs
     id="defs86" />
  <sodipodi:namedview
     pagecolor="#ffffff"
     bordercolor="#666666"
     borderopacity="1"
     objecttolerance="10"
     gridtolerance="10"
     guidetolerance="10"
     inkscape:pageopacity="0"
     inkscape:pageshadow="2"
     inkscape:window-width="1920"
     inkscape:window-height="997"
     id="namedview84"
     showgrid="false"
     units="mm"
     fit-margin-top="0"
     fit-margin-left="0"
     fit-margin-right="0"
     fit-margin-bottom="0"
     inkscape:zoom="0.88059701"
     inkscape:cx="-95.787289"
     inkscape:cy="117.47712"
     inkscape:window-x="0"
     inkscape:window-y="28"
     inkscape:window-maximized="1"
     inkscape:current-layer="svg82" />
  <path
     style="fill:#ff0000;fill-opacity:0.01829266;stroke:#ff0000;stroke-width:0.56779659;stroke-miterlimit:4;stroke-dasharray:none;stroke-opacity:1"
     d="M 0.28389829,117.04793 V 0.58325974 L 6.8135593,5.7016097 C 14.313032,11.58016 57.630433,46.381338 61.038133,49.265604 c 8.38057,7.093287 24.55933,19.585993 25.36497,19.585993 0.53428,0 4.49955,-2.938822 8.8117,-6.530714 4.31216,-3.591893 8.917597,-7.296766 10.234317,-8.233051 1.90841,-1.357021 31.38782,-24.944455 38.04231,-30.438894 1.69089,-1.396113 7.85434,-6.406138 19.13195,-15.5515783 3.85095,-3.122881 7.48174,-5.848305 8.06841,-6.056497 0.66068,-0.234456 1.06668,43.7443463 1.06668,115.5466073 v 115.92514 h -12.49152 -12.49153 v -89.71186 c 0,-49.341526 -0.38326,-89.707323 -0.85169,-89.701774 -0.46844,0.0056 -3.73581,2.432881 -7.26083,5.394068 -7.46246,6.268836 -41.041457,33.23261 -47.986537,38.53296 l -4.74797,3.623546 -6.38882,-5.326936 c -3.51386,-2.92982 -8.99707,-7.37102 -12.18493,-9.86932 -3.18786,-2.49831 -6.60862,-5.274305 -7.60171,-6.168888 -4.65696,-4.195064 -32.881484,-26.162618 -33.63429,-26.178055 -0.468432,-0.0096 -0.851695,40.352873 -0.851695,89.694399 v 89.71186 H 12.775423 0.28389829 Z"
     id="path5241"
     inkscape:connector-curvature="0" />
</svg>
