<?xml version="1.0" encoding="UTF-8" standalone="no"?>
<!-- Created with Inkscape (http://www.inkscape.org/) -->

<svg
   xmlns:dc="http://purl.org/dc/elements/1.1/"
   xmlns:cc="http://creativecommons.org/ns#"
   xmlns:rdf="http://www.w3.org/1999/02/22-rdf-syntax-ns#"
   xmlns:svg="http://www.w3.org/2000/svg"
   xmlns="http://www.w3.org/2000/svg"
   xmlns:sodipodi="http://sodipodi.sourceforge.net/DTD/sodipodi-0.dtd"
   xmlns:inkscape="http://www.inkscape.org/namespaces/inkscape"
   version="1.1"
   id="svg12"
   width="61.61544mm"
   height="61.625584mm"
   viewBox="0 0 232.87726 232.91559"
   sodipodi:docname="hermetica-salprapuratum.svg"
   inkscape:version="0.92.5 (2060ec1f9f, 2020-04-08)">
  <metadata
     id="metadata18">
    <rdf:RDF>
      <cc:Work
         rdf:about="">
        <dc:format>image/svg+xml</dc:format>
        <dc:type
           rdf:resource="http://purl.org/dc/dcmitype/StillImage" />
        <dc:title></dc:title>
      </cc:Work>
    </rdf:RDF>
  </metadata>
  <defs
     id="defs16" />
  <sodipodi:namedview
     pagecolor="#ffffff"
     bordercolor="#666666"
     borderopacity="1"
     objecttolerance="10"
     gridtolerance="10"
     guidetolerance="10"
     inkscape:pageopacity="0"
     inkscape:pageshadow="2"
     inkscape:window-width="1920"
     inkscape:window-height="997"
     id="namedview14"
     showgrid="false"
     units="mm"
     fit-margin-top="0"
     fit-margin-left="0"
     fit-margin-right="0"
     fit-margin-bottom="0"
     inkscape:zoom="0.88059701"
     inkscape:cx="116.68553"
     inkscape:cy="116.68348"
     inkscape:window-x="0"
     inkscape:window-y="28"
     inkscape:window-maximized="1"
     inkscape:current-layer="svg12" />
  <path
     style="fill:#ff0000;fill-opacity:0.01829266;stroke:#ff0000;stroke-width:0.56779659;stroke-miterlimit:4;stroke-dasharray:none;stroke-opacity:1"
     d="m 106.97915,231.98488 c -0.71988,-0.47996 -3.09743,-0.79357 -5.28345,-0.69691 -2.186025,0.0966 -5.337925,-0.37631 -7.004235,-1.05107 -1.66631,-0.67476 -3.96588,-1.21861 -5.11017,-1.20856 -1.94053,0.017 -6.26623,-0.81972 -6.906787,-1.33604 -0.156144,-0.12586 -0.667161,-0.32157 -1.135593,-0.4349 -0.468432,-0.11333 -2.5125,-0.60107 -4.542373,-1.08387 -2.029873,-0.48279 -3.690678,-1.4029 -3.690678,-2.04467 0,-0.64178 -0.766525,-0.87272 -1.70339,-0.5132 -0.936864,0.3595 -1.70339,0.12851 -1.70339,-0.51333 0,-0.64183 -0.511017,-0.85115 -1.135593,-0.46514 -0.624576,0.38602 -1.135593,0.13051 -1.135593,-0.56779 0,-0.6983 -0.511017,-0.95381 -1.135593,-0.5678 -0.624577,0.38601 -1.135594,0.28121 -1.135594,-0.23289 0,-0.5141 -1.99155,-1.79753 -4.425668,-2.85206 -2.434116,-1.05455 -5.820016,-3.20958 -7.52422,-4.78899 -1.704205,-1.57941 -3.54889,-2.59332 -4.099302,-2.25314 -0.550412,0.34016 -1.307321,-0.18043 -1.682021,-1.15688 -0.374699,-0.97645 -1.170607,-1.77536 -1.768683,-1.77536 -0.598076,0 -2.377388,-1.53305 -3.954028,-3.40678 -1.576638,-1.87373 -3.483933,-3.40678 -4.238432,-3.40678 -0.754499,0 -2.625386,-1.57945 -4.157528,-3.50989 -1.532141,-1.93044 -4.931223,-5.85444 -7.553515,-8.71999 -2.622292,-2.86555 -4.548181,-5.56546 -4.279751,-5.99979 0.268429,-0.43433 -0.804185,-2.18404 -2.383588,-3.88823 -1.579404,-1.70421 -3.734446,-5.09011 -4.788983,-7.52423 -1.054538,-2.43412 -2.337969,-4.42567 -2.852068,-4.42567 -0.514099,0 -0.6189,-0.51101 -0.232891,-1.13559 0.38601,-0.62458 0.269406,-1.13559 -0.259118,-1.13559 -0.528524,0 -1.044101,-1.10381 -1.145725,-2.45291 -0.1016236,-1.3491 -0.6376826,-2.7544 -1.1912406,-3.12288 -1.210965,-0.8061 -3.806004,-8.05133 -2.883761,-8.05133 0.356274,0 0.03019,-0.74414 -0.724633,-1.65365 -0.754822,-0.9095 -1.064566,-2.15174 -0.68832,-2.76052 0.376246,-0.60878 0.187049,-1.41405 -0.420438,-1.7895 -0.607486,-0.37544 -0.850474,-1.34467 -0.539972,-2.15382 0.310502,-0.80916 -0.05741,-2.9646 -0.817584,-4.7899 -0.760173,-1.82529 -1.250733,-5.43485 -1.090133,-8.02123 0.160601,-2.58638 -0.179517,-4.99392 -0.75581702,-5.3501 -1.391288,-0.85985 -0.208998,-25.341526 1.41763002,-29.354866 0.430881,-1.0631 0.45247,-2.46839 0.04798,-3.12288 -0.404495,-0.65448 -0.159833,-1.18997 0.543693,-1.18997 0.762358,0 0.987911,-0.91758 0.558291,-2.27119 -0.42962,-1.35361 -0.204067,-2.27119 0.558291,-2.27119 0.703525,0 0.963312,-0.51101 0.577302,-1.13559 -0.386009,-0.62457 -0.303197,-1.77436 0.184026,-2.55508 0.487224,-0.78072 1.014562,-2.244111 1.171862,-3.251976 0.157301,-1.007864 0.893375,-3.307441 1.635722,-5.11017 0.742347,-1.802728 1.267201,-3.66095 1.166344,-4.129382 -0.100857,-0.468433 0.357798,-0.851695 1.019235,-0.851695 0.6614356,0 0.9137616,-0.467371 0.5607206,-1.038603 -0.3530396,-0.57123 -0.122627,-1.211689 0.512028,-1.423241 0.634657,-0.211553 1.385601,-1.587657 1.668765,-3.05801 0.283165,-1.470354 1.837158,-4.407014 3.45332,-6.525911 1.616162,-2.118897 2.529206,-3.86808 2.028989,-3.887073 -0.500217,-0.01899 -0.0044,-0.561417 1.101686,-1.205387 1.106145,-0.643971 1.712526,-1.654074 1.347515,-2.244674 -0.365012,-0.590602 0.135258,-1.380392 1.111709,-1.755093 0.976451,-0.374699 1.775366,-1.334351 1.775366,-2.132561 0,-0.798209 1.293826,-2.299037 2.875169,-3.335172 1.581344,-1.036136 2.632153,-2.277093 2.335134,-2.757681 -0.29702,-0.480588 2.556534,-3.651995 6.341231,-7.047568 3.784697,-3.395575 8.099565,-7.300332 9.588596,-8.677239 1.489031,-1.376906 2.707328,-2.295586 2.707328,-2.041511 0,0.254075 1.341832,-0.781613 2.981849,-2.301528 1.640015,-1.519917 3.432184,-2.485161 3.982595,-2.144987 0.550412,0.340172 1.306196,-0.177483 1.679519,-1.150347 0.373323,-0.972865 1.076175,-1.523234 1.561895,-1.223042 0.485718,0.300191 2.092976,-0.397015 3.571685,-1.549345 3.989886,-3.109248 9.681876,-5.8325701 10.493736,-5.0207091 0.391474,0.391474 0.711772,0.224332 0.711772,-0.371428 0,-0.595759 1.142219,-1.16924 2.538265,-1.274401 1.396046,-0.105161 2.706605,-0.696217 2.912352,-1.313458 0.205746,-0.617241 1.107595,-0.840782 2.004107,-0.496758 0.896511,0.344024 1.630022,0.11783 1.630022,-0.502652 0,-0.915012 5.978344,-2.470878 11.923724,-3.10315 0.62458,-0.06642 2.41132,-0.548175 3.97054,-1.070562 4.574485,-1.53259304 38.326485,-1.13597904 40.265375,0.473152 0.91087,0.755956 2.09261,1.1047 2.6261,0.774988 1.21306,-0.74971 10.83383,1.586574 11.67068,2.834081 0.3396,0.506227 1.87265,1.06082 3.40678,1.232429 1.53414,0.171609 3.09601,0.729254 3.47082,1.239211 0.37482,0.509956 1.39685,1.048848 2.27119,1.197538 3.98322,0.677382 10.10666,3.2682011 10.10666,4.2761171 0,0.613 0.51101,0.79872 1.13559,0.41271 0.62458,-0.38601 1.13559,-0.130501 1.13559,0.567797 0,0.698298 0.45748,0.9869 1.01661,0.641339 0.55912,-0.345563 1.32204,0.167685 1.69536,1.14055 0.37333,0.972864 1.11952,1.496444 1.65822,1.163511 0.5387,-0.332931 3.05087,1.167731 5.58261,3.334804 2.53173,2.167074 4.93788,3.940135 5.347,3.940135 0.88311,0 19.27202,18.449877 19.30978,19.37379 0.0143,0.350076 1.81457,2.819961 4.00059,5.488632 2.18602,2.66867 3.84209,5.334812 3.68014,5.924757 -0.16193,0.589945 0.47391,1.367464 1.41297,1.727819 0.93907,0.360355 1.45013,1.071464 1.1357,1.58024 -0.31445,0.508776 0.11879,1.615563 0.96276,2.459526 2.31956,2.31956 4.16436,6.179487 4.16436,8.713195 0,1.245601 0.74219,3.006919 1.64932,3.914043 0.90712,0.907122 1.38271,1.915918 1.05686,2.241769 -0.32586,0.325851 0.45354,2.88858 1.73199,5.694954 1.27846,2.806377 2.5508,6.927297 2.82743,9.157607 0.27662,2.23031 0.86115,4.63468 1.29896,5.34306 1.30121,2.1054 0.97536,37.831976 -0.36795,40.341966 -0.66527,1.24308 -1.13373,3.00544 -1.04101,3.91634 0.32906,3.23283 -1.69515,11.30874 -2.83454,11.30874 -0.6365,0 -0.86313,0.76652 -0.50361,1.70339 0.3595,0.93686 0.10402,1.70339 -0.5678,1.70339 -0.6718,0 -0.92731,0.76652 -0.56779,1.70339 0.3595,0.93686 0.12851,1.70339 -0.51333,1.70339 -0.64183,0 -0.85115,0.51101 -0.46514,1.13559 0.38601,0.62458 0.0755,1.13559 -0.69004,1.13559 -0.76554,0 -1.07309,0.31879 -0.68347,0.70841 0.81601,0.816 -3.13296,9.00479 -4.85602,10.0697 -0.6335,0.39152 -1.15182,1.70374 -1.15182,2.91604 0,1.21229 -0.51102,2.20416 -1.1356,2.20416 -0.62457,0 -1.13559,0.74925 -1.13559,1.66501 0,0.91575 -1.91631,3.74921 -4.25847,6.29658 -2.34216,2.54736 -4.25848,5.01747 -4.25848,5.48912 0,1.15754 -15.11019,15.9165 -15.69576,15.33092 -0.25448,-0.25447 -1.32089,0.8471 -2.36979,2.44793 -1.04891,1.60084 -2.34213,2.64176 -2.87382,2.31315 -0.53169,-0.32861 -1.27216,0.19851 -1.64548,1.17139 -0.37332,0.97286 -1.1291,1.49051 -1.67952,1.15034 -0.55041,-0.34018 -2.3701,0.65058 -4.04377,2.20168 -2.77868,2.57519 -9.29562,6.53397 -10.00623,6.0784 -0.8623,-0.55284 -5.40597,1.59744 -5.40597,2.55834 0,0.61935 -0.51101,0.81027 -1.13559,0.42426 -0.62458,-0.38601 -1.13559,-0.22454 -1.13559,0.35882 0,0.89544 -2.45636,1.79159 -8.51695,3.10726 -0.62458,0.13558 -1.51886,0.36934 -1.98729,0.51945 -0.46843,0.15012 -1.36271,0.4007 -1.98729,0.55684 -0.62457,0.15614 -1.51885,0.40662 -1.98729,0.55661 -0.46843,0.15 -1.74597,0.18175 -2.83898,0.0706 -1.09301,-0.11118 -1.98729,0.37114 -1.98729,1.07184 0,0.70069 -0.42019,1.0143 -0.93375,0.6969 -0.51357,-0.31741 -4.21845,-0.0712 -8.23305,0.54714 -9.37427,1.44382 -23.60664,1.85266 -25.29551,0.72664 z m -4.43176,-25.39395 2.55509,-0.68473 v -37.68281 c 0,-27.79472 -0.35758,-38.04038 -1.36271,-39.04552 -1.00515,-1.00514 -11.252875,-1.36271 -39.054866,-1.36271 H 26.992757 l -0.739802,2.9476 c -0.406892,1.62119 -0.273413,3.5375 0.296618,4.25848 0.570032,0.72097 1.446697,3.35494 1.948146,5.85324 0.501447,2.49831 0.96945,4.79788 1.040004,5.11017 0.07055,0.31229 0.730966,1.65039 1.46758,2.97358 0.736612,1.32317 1.016598,2.72846 0.622189,3.12288 -0.39441,0.3944 -0.09077,0.7171 0.674769,0.7171 0.765533,0 1.076053,0.51102 0.690044,1.13559 -0.38601,0.62458 -0.130502,1.1356 0.567796,1.1356 0.698298,0 0.953807,0.51102 0.567797,1.13559 -0.38601,0.62458 -0.130501,1.13559 0.567796,1.13559 0.698298,0 0.953807,0.51102 0.567797,1.1356 -0.38601,0.62457 -0.242685,1.13559 0.318498,1.13559 1.110836,0 4.182199,5.69655 3.84372,7.12906 -0.114789,0.48581 0.559623,1.17812 1.498693,1.53848 0.939071,0.36036 1.434998,1.09595 1.102061,1.63465 -0.332935,0.53871 0.436524,1.63011 1.709913,2.42536 1.273388,0.79524 2.315251,1.94419 2.315251,2.55322 0,1.50136 10.400664,11.97347 11.891774,11.97347 0.65396,0 1.839672,1.04186 2.634916,2.31525 0.795243,1.27338 1.886654,2.04285 2.425357,1.70992 0.538702,-0.33295 1.252737,0.10685 1.586744,0.97722 0.334007,0.87041 2.431622,2.18464 4.661366,2.92052 2.229744,0.73588 4.05408,1.83951 4.05408,2.45252 0,0.61299 0.511017,0.79871 1.135593,0.4127 0.624576,-0.38601 1.135593,-0.1305 1.135593,0.5678 0,0.6983 0.511017,0.95381 1.135594,0.5678 0.624576,-0.38601 1.135593,-0.13051 1.135593,0.56779 0,0.6983 0.511017,0.95381 1.135593,0.5678 0.624576,-0.38601 1.135593,-0.0755 1.135593,0.69004 0,0.76554 0.322698,1.06919 0.717108,0.67477 0.39441,-0.39441 1.799706,-0.11442 3.122884,0.62219 2.83296,1.57712 2.2832,1.41127 8.3928,2.53175 2.6683,0.48936 5.12579,1.33364 5.46109,1.87617 0.71437,1.15587 1.30501,1.18964 4.734085,0.27068 z m 33.21611,-0.60911 c 0,-0.72866 0.2984,-1.02646 0.6631,-0.66174 0.36471,0.36471 3.51081,-0.31665 6.99134,-1.51413 3.48052,-1.19747 7.2026,-2.17723 8.27126,-2.17723 1.06868,0 5.33232,-2.27275 9.47477,-5.05057 4.14245,-2.77782 7.53173,-4.69936 7.53173,-4.27008 0,0.42927 1.21552,-0.49183 2.70116,-2.04689 4.35014,-4.55341 7.2724,-6.6702 8.08564,-5.85697 0.41711,0.41713 0.58806,-0.008 0.37986,-0.94498 -0.20956,-0.94303 0.29278,-1.56411 1.12538,-1.39135 0.82714,0.17161 1.22557,-0.13832 0.88539,-0.68873 -0.34017,-0.55041 1.44427,-2.65845 3.96544,-4.6845 2.52116,-2.02607 4.31238,-3.95531 3.98048,-4.28721 -0.3319,-0.3319 1.15179,-2.65405 3.29707,-5.16034 2.1453,-2.50629 3.63036,-4.99403 3.30015,-5.52832 -0.3302,-0.53427 -0.0998,-0.97142 0.51201,-0.97142 0.61182,0 1.4491,-1.53305 1.86064,-3.40678 0.41154,-1.87372 1.24882,-3.40678 1.86064,-3.40678 0.61181,0 0.79656,-0.51101 0.41055,-1.13559 -0.38601,-0.62457 -0.10595,-1.13559 0.62227,-1.13559 0.72825,0 1.04263,-0.73352 0.69861,-1.63002 -0.34402,-0.89652 -0.0653,-1.81676 0.61941,-2.045 0.68471,-0.22823 1.37994,-1.66654 1.54497,-3.19624 0.16502,-1.52971 0.40651,-2.90904 0.53663,-3.06518 0.13012,-0.15615 0.30828,-0.66716 0.39592,-1.1356 0.0877,-0.46843 0.44821,-1.36271 0.80128,-1.98728 0.35307,-0.62458 0.60075,-3.17966 0.55041,-5.67797 l -0.0915,-4.54237 -37.96573,-0.29947 c -29.61775,-0.23361 -38.16604,0.0161 -38.87668,1.13559 -0.50102,0.78929 -0.91877,18.38379 -0.92834,39.09891 -0.0134,29.08174 0.30607,37.79435 1.40211,38.23662 2.62181,1.05791 5.39407,0.76355 5.39407,-0.57279 z M 207.02189,99.682774 c -0.21965,-2.35671 -0.78678,-4.91179 -1.2603,-5.67796 -0.47352,-0.76617 -0.54512,-1.90406 -0.15911,-2.52863 0.38601,-0.62458 0.1767,-1.1356 -0.46514,-1.1356 -0.64184,0 -0.87283,-0.76652 -0.51332,-1.70339 0.35952,-0.93686 0.0578,-1.70339 -0.67046,-1.70339 -0.72825,0 -1.00828,-0.51101 -0.62227,-1.13559 0.38601,-0.62457 0.1767,-1.13559 -0.46514,-1.13559 -0.64183,0 -0.87282,-0.76653 -0.51332,-1.70339 0.35952,-0.936866 0.088,-1.703391 -0.60343,-1.703391 -0.69141,0 -1.18755,-0.383263 -1.10255,-0.851695 0.28861,-1.590518 -3.90016,-10.504237 -4.93619,-10.504237 -0.5667,0 -0.71229,-0.514626 -0.32356,-1.143614 0.38873,-0.628987 -0.0891,-1.44906 -1.06205,-1.822383 -0.97287,-0.373323 -1.48389,-1.139849 -1.13559,-1.70339 0.34828,-0.563542 -0.16567,-1.331192 -1.14213,-1.705893 -0.97645,-0.374699 -1.77536,-1.137615 -1.77536,-1.695369 0,-0.557753 -0.89428,-1.997471 -1.98729,-3.199373 -1.09301,-1.201901 -4.01846,-4.482682 -6.50101,-7.290624 -2.48254,-2.80794 -4.89317,-4.87084 -5.35692,-4.584218 -0.46376,0.28662 -1.49386,-0.520734 -2.28911,-1.794123 -0.79524,-1.273388 -2.01981,-2.315251 -2.72126,-2.315251 -0.70146,0 -2.62261,-1.347227 -4.26922,-2.993837 -1.64661,-1.64661 -2.99383,-2.673645 -2.99383,-2.2823 0,0.391344 -1.03861,-0.177743 -2.30801,-1.264638 -1.2694,-1.086895 -2.67469,-1.898812 -3.12288,-1.804259 -0.44818,0.09455 -1.83691,-0.397276 -3.08606,-1.092954 -1.24916,-0.695678 -2.65445,-1.156303 -3.12288,-1.02361 -0.46844,0.132693 -0.8517,-0.214359 -0.8517,-0.771226 0,-0.991105 -4.38569,-2.614593 -8.13312,-3.010705 -1.03804,-0.109721 -2.8266,-0.614626 -3.97457,-1.122005 -3.2767,-1.448233 -6.64508,-1.745426 -23.94739,-2.112887 -9.75142,-0.207099 -16.182215,0.08686 -16.182215,0.739717 0,0.595865 -0.70425,0.813143 -1.56501,0.48284 -0.86076,-0.330304 -2.03311,-0.13245 -2.60524,0.439675 -0.57212,0.572126 -2.42295,1.154666 -4.11295,1.294534 -1.69,0.139869 -3.07273,0.637829 -3.07273,1.106578 0,0.468749 -0.76652,0.558128 -1.70339,0.198619 -0.93686,-0.359509 -1.70339,-0.0578 -1.70339,0.670456 0,0.72826 -0.51595,1.005233 -1.14656,0.615496 -0.6306,-0.389736 -2.479228,0.339668 -4.108048,1.620898 -1.628821,1.281231 -3.412446,2.050807 -3.963611,1.710167 -0.551166,-0.340639 -1.002119,-0.04801 -1.002119,0.650289 0,0.698298 -0.511017,0.953806 -1.135593,0.567796 -0.624576,-0.386009 -1.135593,-0.130501 -1.135593,0.567797 0,0.698298 -0.427884,1.005185 -0.950853,0.681973 -0.522968,-0.323213 -3.126397,1.307434 -5.785397,3.623658 -2.658999,2.316225 -5.200122,4.211318 -5.646938,4.211318 -0.446817,0 -3.984795,3.32161 -7.862174,7.381356 -3.87738,4.059746 -8.179618,8.531144 -9.56053,9.936441 -1.380912,1.405296 -2.090297,2.555085 -1.576412,2.555085 0.513884,0 -0.803229,2.42733 -2.926919,5.394067 -4.020392,5.616379 -5.664418,8.752573 -6.101725,11.639831 -0.141899,0.936864 -1.3003,4.641741 -2.574225,8.233051 -1.273925,3.59131 -1.960488,6.53749 -1.525697,6.54705 0.434793,0.01 0.08259,0.46573 -0.78266,1.01371 -1.041419,0.65954 -1.321997,1.99715 -0.830059,3.957176 l 0.743131,2.96087 h 90.315717 90.31572 z"
     id="path5391"
     inkscape:connector-curvature="0" />
</svg>
