<?xml version="1.0" encoding="UTF-8" standalone="no"?>
<!-- Created with Inkscape (http://www.inkscape.org/) -->

<svg
   xmlns:dc="http://purl.org/dc/elements/1.1/"
   xmlns:cc="http://creativecommons.org/ns#"
   xmlns:rdf="http://www.w3.org/1999/02/22-rdf-syntax-ns#"
   xmlns:svg="http://www.w3.org/2000/svg"
   xmlns="http://www.w3.org/2000/svg"
   xmlns:sodipodi="http://sodipodi.sourceforge.net/DTD/sodipodi-0.dtd"
   xmlns:inkscape="http://www.inkscape.org/namespaces/inkscape"
   version="1.1"
   id="svg22"
   width="56.714592mm"
   height="64.258392mm"
   viewBox="0 0 214.35436 242.86637"
   sodipodi:docname="hermetica-ancor.svg"
   inkscape:version="0.92.5 (2060ec1f9f, 2020-04-08)">
  <metadata
     id="metadata28">
    <rdf:RDF>
      <cc:Work
         rdf:about="">
        <dc:format>image/svg+xml</dc:format>
        <dc:type
           rdf:resource="http://purl.org/dc/dcmitype/StillImage" />
        <dc:title></dc:title>
      </cc:Work>
    </rdf:RDF>
  </metadata>
  <defs
     id="defs26" />
  <sodipodi:namedview
     pagecolor="#ffffff"
     bordercolor="#666666"
     borderopacity="1"
     objecttolerance="10"
     gridtolerance="10"
     guidetolerance="10"
     inkscape:pageopacity="0"
     inkscape:pageshadow="2"
     inkscape:window-width="1920"
     inkscape:window-height="997"
     id="namedview24"
     showgrid="false"
     units="mm"
     fit-margin-top="0"
     fit-margin-left="0"
     fit-margin-right="0"
     fit-margin-bottom="0"
     inkscape:zoom="0.88059701"
     inkscape:cx="108.21781"
     inkscape:cy="122.01949"
     inkscape:window-x="0"
     inkscape:window-y="28"
     inkscape:window-maximized="1"
     inkscape:current-layer="svg22" />
  <path
     style="fill:#ff0000;fill-opacity:0.01829266;stroke:#ff0000;stroke-width:0.56779659;stroke-miterlimit:4;stroke-dasharray:none;stroke-opacity:1"
     d="m 95.49917,240.21293 c 0,-5.14929 -20.8307,-21.38632 -37.47458,-29.21054 C 38.83184,201.97995 19.119406,184.40476 6.4898098,165.05507 L 0.40721981,155.73598 11.330311,149.90716 c 6.007701,-3.20584 11.257583,-5.6391 11.666405,-5.40723 0.408823,0.23189 2.273334,3.10443 4.143359,6.38343 4.538493,7.95805 18.119064,22.45445 26.748502,28.55235 3.836248,2.71084 12.085165,7.63074 18.330928,10.93312 6.245765,3.30236 12.888985,7.12957 14.762715,8.50491 1.87373,1.37533 4.55656,2.86407 5.96186,3.30831 l 2.55509,0.80773 v -55.7206 -55.7206 H 68.812725 42.126285 V 79.057059 66.565534 h 18.169491 c 15.062864,0 18.169494,-0.279787 18.169494,-1.63637 0,-0.900005 -0.52074,-1.958203 -1.15719,-2.351552 C 75.22886,61.292584 70.469215,50.729919 69.379022,44.981352 66.374297,29.137497 76.1385,11.018083 91.81402,3.3487646 c 5.19656,-2.542442 7.72003,-3.025721 15.99944,-3.064108 12.57596,-0.05831 20.305,3.200847 28.9651,12.2138984 5.91432,6.15536 8.51285,11.76078 10.44162,22.524056 1.12199,6.261109 -2.31168,20.182776 -6.35437,25.763545 -1.84233,2.543266 -3.34969,4.884053 -3.34969,5.201748 0,0.317697 8.43177,0.57763 18.73728,0.57763 h 18.73729 V 79.057059 91.54858 h -27.25424 -27.25423 v 55.64407 c 0,35.60442 0.40103,55.64407 1.11354,55.64407 0.61244,0 4.05606,-1.8823 7.65246,-4.1829 3.59642,-2.30059 11.34745,-6.70627 17.22452,-9.79038 18.12656,-9.51229 31.43548,-21.33881 41.98737,-37.31063 l 4.95247,-7.49628 9.81024,5.14562 c 5.39564,2.83009 10.22308,5.50715 10.72764,5.94902 0.94595,0.8284 -3.86544,9.69119 -9.17689,16.90426 -9.47198,12.86314 -23.45832,25.49171 -37.33557,33.71112 -5.71543,3.3852 -10.83725,6.15492 -11.38183,6.15492 -0.54458,0 -3.70594,1.78856 -7.02524,3.97457 -3.3193,2.18602 -6.32731,3.97458 -6.68448,3.97458 -1.09688,0 -13.09866,9.16871 -17.60576,13.44985 -2.51101,2.38513 -4.25847,5.11538 -4.25847,6.6535 0,2.56286 -0.2186,2.60851 -12.49153,2.60851 -11.90732,0 -12.49152,-0.11082 -12.49152,-2.36955 z M 117.62263,49.550989 c 6.29556,-5.914368 6.47938,-14.957027 0.41914,-20.61814 -9.1979,-8.592131 -23.6782,-2.514756 -23.6782,9.937734 0,6.01661 2.54096,10.362907 7.32731,12.533331 4.78795,2.171154 12.61763,1.260532 15.93175,-1.852925 z"
     id="path5463"
     inkscape:connector-curvature="0" />
</svg>
