<?xml version="1.0" encoding="UTF-8" standalone="no"?>
<!-- Created with Inkscape (http://www.inkscape.org/) -->

<svg
   xmlns:dc="http://purl.org/dc/elements/1.1/"
   xmlns:cc="http://creativecommons.org/ns#"
   xmlns:rdf="http://www.w3.org/1999/02/22-rdf-syntax-ns#"
   xmlns:svg="http://www.w3.org/2000/svg"
   xmlns="http://www.w3.org/2000/svg"
   xmlns:sodipodi="http://sodipodi.sourceforge.net/DTD/sodipodi-0.dtd"
   xmlns:inkscape="http://www.inkscape.org/namespaces/inkscape"
   version="1.1"
   id="svg72"
   width="61.82526mm"
   height="34.333614mm"
   viewBox="0 0 233.67028 129.76484"
   sodipodi:docname="hermetica-ursa_major.svg"
   inkscape:version="0.92.5 (2060ec1f9f, 2020-04-08)">
  <metadata
     id="metadata78">
    <rdf:RDF>
      <cc:Work
         rdf:about="">
        <dc:format>image/svg+xml</dc:format>
        <dc:type
           rdf:resource="http://purl.org/dc/dcmitype/StillImage" />
        <dc:title></dc:title>
      </cc:Work>
    </rdf:RDF>
  </metadata>
  <defs
     id="defs76" />
  <sodipodi:namedview
     pagecolor="#ffffff"
     bordercolor="#666666"
     borderopacity="1"
     objecttolerance="10"
     gridtolerance="10"
     guidetolerance="10"
     inkscape:pageopacity="0"
     inkscape:pageshadow="2"
     inkscape:window-width="1920"
     inkscape:window-height="997"
     id="namedview74"
     showgrid="false"
     units="mm"
     fit-margin-top="0"
     fit-margin-left="0"
     fit-margin-right="0"
     fit-margin-bottom="0"
     inkscape:zoom="0.88059701"
     inkscape:cx="116.34186"
     inkscape:cy="64.979257"
     inkscape:window-x="0"
     inkscape:window-y="28"
     inkscape:window-maximized="1"
     inkscape:current-layer="svg72" />
  <path
     style="fill:#ff0000;fill-opacity:0.01829266;stroke:#ff0000;stroke-width:0.56779659;stroke-miterlimit:4;stroke-dasharray:none;stroke-opacity:1"
     d="M 155.8605,128.14019 C 126.38803,121.48199 106.52487,98.620683 104.14787,68.622043 102.5103,47.955383 95.350437,35.910643 80.674559,29.133848 74.493019,26.279436 72.228913,25.844827 63.87745,25.909539 55.899718,25.971349 53.090326,26.511438 47.685901,29.022234 35.932283,34.482743 27.312486,45.834913 25.747186,57.915253 l -0.772503,5.96187 H 12.629456 0.28423007 l 0.0063,-5.39407 C 0.31195707,40.261223 15.155477,17.965616 33.873657,8.0397943 c 8.243072,-4.371112 21.584949,-7.75589601 30.57159,-7.75589601 9.144295,0 22.31548,3.35754501 30.09322,7.67124301 C 109.04219,15.999205 123.0557,33.173243 126.36218,46.956173 l 1.33502,5.56501 h 52.83769 52.83769 l -0.57937,12.20763 c -1.10305,23.24151 -9.05606,39.254697 -25.63706,51.619527 -14.93678,11.1387 -34.39094,15.61083 -51.29565,11.79185 z m 21.47479,-24.60163 c 8.878,-1.90399 18.641,-8.874897 23.96399,-17.110597 2.49003,-3.85256 4.52733,-7.43645 4.52733,-7.96419 0,-0.52774 -16.87217,-0.95954 -37.49372,-0.95954 H 130.8392 l 2.89701,5.71698 c 8.05013,15.88617 25.76603,24.141847 43.59908,20.317347 z"
     id="path5262"
     inkscape:connector-curvature="0" />
</svg>
