<?xml version="1.0" encoding="UTF-8" standalone="no"?>
<!-- Created with Inkscape (http://www.inkscape.org/) -->

<svg
   xmlns:dc="http://purl.org/dc/elements/1.1/"
   xmlns:cc="http://creativecommons.org/ns#"
   xmlns:rdf="http://www.w3.org/1999/02/22-rdf-syntax-ns#"
   xmlns:svg="http://www.w3.org/2000/svg"
   xmlns="http://www.w3.org/2000/svg"
   xmlns:sodipodi="http://sodipodi.sourceforge.net/DTD/sodipodi-0.dtd"
   xmlns:inkscape="http://www.inkscape.org/namespaces/inkscape"
   version="1.1"
   id="svg62"
   width="34.422264mm"
   height="61.807854mm"
   viewBox="0 0 130.0999 233.60449"
   sodipodi:docname="hermetica-uranus.svg"
   inkscape:version="0.92.5 (2060ec1f9f, 2020-04-08)">
  <metadata
     id="metadata68">
    <rdf:RDF>
      <cc:Work
         rdf:about="">
        <dc:format>image/svg+xml</dc:format>
        <dc:type
           rdf:resource="http://purl.org/dc/dcmitype/StillImage" />
        <dc:title></dc:title>
      </cc:Work>
    </rdf:RDF>
  </metadata>
  <defs
     id="defs66" />
  <sodipodi:namedview
     pagecolor="#ffffff"
     bordercolor="#666666"
     borderopacity="1"
     objecttolerance="10"
     gridtolerance="10"
     guidetolerance="10"
     inkscape:pageopacity="0"
     inkscape:pageshadow="2"
     inkscape:window-width="1920"
     inkscape:window-height="997"
     id="namedview64"
     showgrid="false"
     units="mm"
     fit-margin-top="0"
     fit-margin-left="0"
     fit-margin-right="0"
     fit-margin-bottom="0"
     inkscape:zoom="0.88059701"
     inkscape:cx="317.64311"
     inkscape:cy="55.25737"
     inkscape:window-x="0"
     inkscape:window-y="28"
     inkscape:window-maximized="1"
     inkscape:current-layer="svg62" />
  <path
     style="fill:#ffff00;fill-opacity:0.01829266;stroke:#ff0000;stroke-width:0.56779659;stroke-miterlimit:4;stroke-dasharray:none;stroke-opacity:1"
     d="m 57.063799,232.95169 c -6.7146,-0.54617 -10.68339,-1.68466 -18.16949,-5.21213 -16.04779,-7.56177 -26.13019,-17.99385 -32.9753896,-34.11906 -3.30086,-7.77584 -3.78974,-10.2728 -4.19882,-21.44572 -0.53442,-14.59581 0.94699,-21.30995 7.4364,-33.70378 7.2464796,-13.83974 22.5275696,-26.15661 38.3289896,-30.89394 l 4.54237,-1.36182 0.30909,-21.204214 0.30909,-21.204215 -13.36841,0.320155 -13.36842,0.320154 v 19.022196 19.022204 l -12.81233,-10e-4 -12.81232957,-0.001 0.11708,-51.101702 0.11708,-51.10169511 12.69524957,-0.0011 12.69525,-0.0011 V 19.306157 38.328476 l 13.34323,0.319936 13.34322,0.319938 V 19.627226 0.28610289 h 12.46407 12.46406 l 0.31136,19.02118611 0.31135,19.021187 13.343225,0.319936 13.343216,0.319938 V 19.627226 0.28610289 h 12.49152 12.49153 V 51.387798 102.4895 H 117.32446 104.83294 V 83.148366 63.807246 l -13.343216,0.319938 -13.343225,0.319936 -0.31129,19.723516 c -0.31966,20.253774 0.1563,22.861234 4.17306,22.861234 5.525105,0 25.531471,12.10699 30.938601,18.72272 1.02751,1.25717 2.89211,3.4541 4.14356,4.88208 5.09635,5.81524 10.49276,19.07529 11.82979,29.06812 2.92266,21.84374 -2.98495,39.74744 -18.10411,54.8666 -14.998756,14.99876 -30.434691,20.27699 -53.752311,18.3803 z m 19.88227,-25.45064 c 16.878715,-4.39635 28.267041,-19.71401 28.260731,-38.01155 -0.007,-20.39387 -13.599426,-36.43698 -33.434961,-39.46331 -20.84673,-3.18061 -39.72241,9.38818 -44.86906,29.87707 -4.07845,16.23641 2.36266,33.10795 16.30084,42.69767 9.2775,6.38309 21.32945,8.13329 33.74245,4.90012 z"
     id="path5262"
     inkscape:connector-curvature="0" />
</svg>
