<?xml version="1.0" encoding="UTF-8" standalone="no"?>
<!-- Created with Inkscape (http://www.inkscape.org/) -->

<svg
   xmlns:dc="http://purl.org/dc/elements/1.1/"
   xmlns:cc="http://creativecommons.org/ns#"
   xmlns:rdf="http://www.w3.org/1999/02/22-rdf-syntax-ns#"
   xmlns:svg="http://www.w3.org/2000/svg"
   xmlns="http://www.w3.org/2000/svg"
   xmlns:sodipodi="http://sodipodi.sourceforge.net/DTD/sodipodi-0.dtd"
   xmlns:inkscape="http://www.inkscape.org/namespaces/inkscape"
   version="1.1"
   id="svg72"
   width="66.972099mm"
   height="63.71767mm"
   viewBox="0 0 253.1229 240.82269"
   sodipodi:docname="hermetica-make_make.svg"
   inkscape:version="0.92.5 (2060ec1f9f, 2020-04-08)">
  <metadata
     id="metadata78">
    <rdf:RDF>
      <cc:Work
         rdf:about="">
        <dc:format>image/svg+xml</dc:format>
        <dc:type
           rdf:resource="http://purl.org/dc/dcmitype/StillImage" />
        <dc:title></dc:title>
      </cc:Work>
    </rdf:RDF>
  </metadata>
  <defs
     id="defs76" />
  <sodipodi:namedview
     pagecolor="#ffffff"
     bordercolor="#666666"
     borderopacity="1"
     objecttolerance="10"
     gridtolerance="10"
     guidetolerance="10"
     inkscape:pageopacity="0"
     inkscape:pageshadow="2"
     inkscape:window-width="1920"
     inkscape:window-height="997"
     id="namedview74"
     showgrid="false"
     units="mm"
     fit-margin-top="0"
     fit-margin-left="0"
     fit-margin-right="0"
     fit-margin-bottom="0"
     inkscape:zoom="0.88059701"
     inkscape:cx="397.82896"
     inkscape:cy="112.74663"
     inkscape:window-x="0"
     inkscape:window-y="28"
     inkscape:window-maximized="1"
     inkscape:current-layer="svg72" />
  <path
     style="fill:#ff0000;fill-opacity:0.01829266;stroke:#ff0000;stroke-width:0.56779659;stroke-miterlimit:4;stroke-dasharray:none;stroke-opacity:1"
     d="m 101.32474,215.28887 -25.113203,-25.13182 8.83544,-8.78362 8.83545,-8.78363 9.032223,9.0855 c 4.96772,4.99703 9.42747,9.08551 9.91055,9.08551 0.48308,0 0.87834,-27.74307 0.87834,-61.65124 0,-65.542103 -0.20647,-68.437291 -5.63994,-79.087775 C 105.08147,44.17633 96.236587,35.2219 89.607247,31.336849 c -10.76596,-6.309272 -30.85496,-7.389084 -41.06797,-2.20746 -10.51528,5.334985 -18.47761,14.957291 -21.51674,26.002526 -3.71058,13.485486 -1.49445,23.77521 6.87172,31.906202 5.43369,5.28094 10.39829,7.181113 18.78782,7.190933 4.53211,0.005 6.05984,-0.592983 9.408,-3.684343 2.73016,-2.52076 4.21619,-5.067196 4.68791,-8.033099 0.64724,-4.069549 0.32394,-4.71373 -5.14502,-10.251472 l -5.83565,-5.909055 8.93237,-8.879979 8.93237,-8.87998 5.89984,6.07213 c 11.77026,12.113967 14.82514,23.209645 10.28102,37.341855 -2.98309,9.277453 -8.45987,16.582293 -16.03365,21.385443 -8.0631,5.11346 -12.53503,6.13232 -24.66953,5.62053 -10.24199,-0.43197 -11.54654,-0.7725 -20.09244,-5.2447 -10.77473,-5.63857 -16.98353,-11.66019 -22.5395399,-21.860003 -13.09715,-24.04394 -4.81831,-58.743005 18.3929799,-77.090474 19.77439,-15.63075946 45.54654,-18.8405238 69.37732,-8.640525 10.971483,4.695988 21.341453,12.324575 27.178863,19.993926 2.29369,3.013509 4.42585,5.471324 4.73814,5.461809 0.31229,-0.0095 2.61187,-2.506921 5.11017,-5.549793 11.67812,-14.223655 30.48446,-23.9520325 49.39831,-25.55337346 35.34748,-2.99269704 66.07444,21.82810346 71.5185,57.77164646 3.49083,23.047608 -8.04356,45.237617 -29.06528,55.916167 -8.20239,4.16663 -9.43877,4.45823 -20.44033,4.82096 -10.548,0.34776 -12.32523,0.10436 -17.91196,-2.45335 -8.45186,-3.86939 -15.85059,-10.99777 -19.96891,-19.23926 -2.96877,-5.941033 -3.43711,-8.119963 -3.43711,-15.990896 0,-11.247164 2.24548,-16.426737 11.25075,-25.951803 l 6.35095,-6.717523 8.83632,8.925542 8.83632,8.925541 -5.28969,5.365492 c -5.0611,5.133619 -5.26432,5.590715 -4.70228,10.577087 0.80419,7.134807 4.54701,10.766607 11.81545,11.465007 11.50541,1.105533 22.13673,-5.06334 26.89422,-15.605481 2.84553,-6.305404 3.00109,-18.947804 0.31234,-25.382888 -4.57302,-10.94477 -14.10958,-21.258122 -22.66462,-24.510742 -9.07183,-3.449105 -25.28819,-3.377432 -34.2584,0.151414 -8.17372,3.215511 -19.97298,13.914238 -23.87733,21.650261 -6.21997,12.324157 -6.21589,12.272408 -6.21589,78.831969 0,37.71236 0.41456,61.68372 1.06676,61.68372 0.58673,0 5.22841,-4.16163 10.31483,-9.24807 l 9.24807,-9.24805 8.80514,8.75349 8.80513,8.75349 -12.5903,12.61732 c -6.92468,6.93952 -18.28461,18.33555 -25.24429,25.32451 l -12.65399,12.7072 z"
     id="path5267"
     inkscape:connector-curvature="0" />
</svg>
