<?xml version="1.0" encoding="UTF-8" standalone="no"?>
<!-- Created with Inkscape (http://www.inkscape.org/) -->

<svg
   xmlns:dc="http://purl.org/dc/elements/1.1/"
   xmlns:cc="http://creativecommons.org/ns#"
   xmlns:rdf="http://www.w3.org/1999/02/22-rdf-syntax-ns#"
   xmlns:svg="http://www.w3.org/2000/svg"
   xmlns="http://www.w3.org/2000/svg"
   xmlns:sodipodi="http://sodipodi.sourceforge.net/DTD/sodipodi-0.dtd"
   xmlns:inkscape="http://www.inkscape.org/namespaces/inkscape"
   version="1.1"
   id="svg32"
   width="268"
   height="268"
   viewBox="0 0 268 268"
   sodipodi:docname="esoterica-dziviba.svg"
   inkscape:version="0.92.5 (2060ec1f9f, 2020-04-08)">
  <metadata
     id="metadata38">
    <rdf:RDF>
      <cc:Work
         rdf:about="">
        <dc:format>image/svg+xml</dc:format>
        <dc:type
           rdf:resource="http://purl.org/dc/dcmitype/StillImage" />
        <dc:title></dc:title>
      </cc:Work>
    </rdf:RDF>
  </metadata>
  <defs
     id="defs36" />
  <sodipodi:namedview
     pagecolor="#ffffff"
     bordercolor="#666666"
     borderopacity="1"
     objecttolerance="10"
     gridtolerance="10"
     guidetolerance="10"
     inkscape:pageopacity="0"
     inkscape:pageshadow="2"
     inkscape:window-width="1920"
     inkscape:window-height="997"
     id="namedview34"
     showgrid="false"
     inkscape:zoom="0.88059701"
     inkscape:cx="134"
     inkscape:cy="134"
     inkscape:window-x="0"
     inkscape:window-y="28"
     inkscape:window-maximized="1"
     inkscape:current-layer="svg32" />
  <path
     style="fill:#000000;fill-opacity:0;stroke:#ff0000;stroke-width:0.56779659;stroke-miterlimit:4;stroke-dasharray:none;stroke-opacity:1"
     d="M 106.22655,237.76304 78.303283,209.74407 96.953336,191.21889 c 10.257534,-10.18884 18.650054,-18.88742 18.650054,-19.33015 0,-0.44275 -4.34648,-5.12889 -9.65883,-10.41364 L 96.28572,151.86644 77.260395,170.86707 58.235069,189.8677 30.432391,162.04764 2.6297139,134.22758 l 8.7900471,-8.79004 8.790046,-8.79005 18.4678,18.44236 c 10.157289,10.14329 18.984458,18.44235 19.61593,18.44235 0.631472,0 5.457536,-4.33191 10.724588,-9.62647 l 9.576457,-9.62645 -18.962432,-19.0816 -18.962433,-19.081606 8.812303,-8.760618 8.812303,-8.760619 18.136985,18.163599 c 9.975342,9.989974 18.92149,18.163594 19.880328,18.163594 1.897176,0 19.305984,-16.95094 19.269214,-18.762408 -0.0124,-0.610758 -8.18868,-9.253309 -18.169498,-19.205669 -9.980819,-9.95236 -18.146945,-18.396928 -18.146945,-18.765709 0,-0.36878 3.836131,-4.481039 8.524737,-9.138353 l 8.524738,-8.467843 18.458138,18.432705 c 10.15197,10.137988 18.97549,18.432705 19.60784,18.432705 1.67871,0 18.69811,-17.391251 18.69811,-19.106648 0,-0.800088 -8.22438,-9.671885 -18.27639,-19.715106 l -18.2764,-18.260399 8.89296,-8.945421 8.89296,-8.9454224 27.82893,27.8289324 27.82893,27.828932 -18.4455,18.470946 c -10.14502,10.159022 -18.44549,18.988313 -18.44549,19.620648 0,1.644861 17.37375,18.69811 19.04953,18.69811 0.76867,0 9.61777,-8.25478 19.66464,-18.343968 l 18.26707,-18.343971 27.68287,27.665589 c 26.9394,26.92255 27.63054,27.72681 25.73397,29.94535 -3.29452,3.85377 -14.94742,15.41599 -15.53692,15.41599 -0.30588,0 -8.72384,-8.17627 -18.70657,-18.16949 -9.98274,-9.99322 -18.6259,-18.1695 -19.20704,-18.1695 -0.95896,0 -7.79814,6.51705 -16.5914,15.80996 l -3.36418,3.55534 18.8574,18.99108 18.8574,18.99108 -8.88207,8.6687 -8.88206,8.6687 -18.53488,-18.57111 c -10.19419,-10.2141 -18.83941,-18.58641 -19.21162,-18.60514 -1.23769,-0.0623 -19.19614,18.31429 -19.19614,19.64305 0,0.71848 8.23958,9.55728 18.31018,19.64177 l 18.31018,18.33543 -8.81667,8.75963 -8.81665,8.75961 -18.3069,-18.28167 c -10.0688,-10.05492 -18.83914,-18.28168 -19.48966,-18.28168 -1.21634,0 -10.86313,9.00123 -16.82202,15.69632 l -3.35776,3.7726 18.76155,18.93926 18.76156,18.93928 -8.73099,8.71388 -8.73098,8.71387 z m 37.50653,-93.26709 c 5.13969,-4.96995 9.34489,-9.63105 9.34489,-10.358 0,-1.5353 -17.39786,-19.21592 -18.90862,-19.21592 -0.55793,0 -5.33549,4.34365 -10.61681,9.65255 l -9.6024,9.65254 9.6024,9.65254 c 5.28132,5.3089 9.87988,9.65254 10.21904,9.65254 0.33914,0 4.82182,-4.06632 9.9615,-9.03625 z"
     id="path5365"
     inkscape:connector-curvature="0" />
</svg>
