<?xml version="1.0" encoding="UTF-8" standalone="no"?>
<!-- Created with Inkscape (http://www.inkscape.org/) -->

<svg
   xmlns:dc="http://purl.org/dc/elements/1.1/"
   xmlns:cc="http://creativecommons.org/ns#"
   xmlns:rdf="http://www.w3.org/1999/02/22-rdf-syntax-ns#"
   xmlns:svg="http://www.w3.org/2000/svg"
   xmlns="http://www.w3.org/2000/svg"
   xmlns:sodipodi="http://sodipodi.sourceforge.net/DTD/sodipodi-0.dtd"
   xmlns:inkscape="http://www.inkscape.org/namespaces/inkscape"
   version="1.1"
   id="svg32"
   width="58.026665mm"
   height="65.424324mm"
   viewBox="0 0 219.31338 247.27304"
   sodipodi:docname="esoterica-gromoviti_znaci.svg"
   inkscape:version="0.92.5 (2060ec1f9f, 2020-04-08)">
  <metadata
     id="metadata38">
    <rdf:RDF>
      <cc:Work
         rdf:about="">
        <dc:format>image/svg+xml</dc:format>
        <dc:type
           rdf:resource="http://purl.org/dc/dcmitype/StillImage" />
        <dc:title></dc:title>
      </cc:Work>
    </rdf:RDF>
  </metadata>
  <defs
     id="defs36" />
  <sodipodi:namedview
     pagecolor="#ffffff"
     bordercolor="#666666"
     borderopacity="1"
     objecttolerance="10"
     gridtolerance="10"
     guidetolerance="10"
     inkscape:pageopacity="0"
     inkscape:pageshadow="2"
     inkscape:window-width="1920"
     inkscape:window-height="997"
     id="namedview34"
     showgrid="false"
     units="mm"
     fit-margin-top="0"
     fit-margin-left="0"
     fit-margin-right="0"
     fit-margin-bottom="0"
     inkscape:zoom="0.88059701"
     inkscape:cx="109.19553"
     inkscape:cy="124.08485"
     inkscape:window-x="0"
     inkscape:window-y="28"
     inkscape:window-maximized="1"
     inkscape:current-layer="svg32" />
  <path
     style="fill:#000000;fill-opacity:0;stroke:#ff0000;stroke-width:0.56779659;stroke-miterlimit:4;stroke-dasharray:none;stroke-opacity:1"
     d="m 109.56662,0.28389829 c -10.612438,0 -17.649898,6.33439901 -18.505858,16.65624971 -0.66438,8.011447 1.69556,13.428159 7.76954,17.828125 6.681518,4.840062 13.399988,4.820174 20.771478,-0.0625 6.5987,-4.370798 8.67187,-8.210085 8.67187,-16.05664 1e-5,-10.5429727 -7.96748,-18.36523471 -18.70703,-18.36523471 z M 67.689673,28.035851 c -0.530435,-0.0052 -4.107621,1.870083 -7.949219,4.167969 -3.841598,2.297886 -8.351952,4.982827 -10.023438,5.966797 l -3.039062,1.789062 4.847656,8.511719 c 2.666161,4.681492 7.483863,13.056661 10.705078,18.611328 3.221213,5.554667 5.855469,10.330889 5.855469,10.613281 0,0.282392 0.962592,1.869487 2.138672,3.527344 1.176081,1.657856 3.69497,5.898025 5.597653,9.421874 l 3.46094,6.40625 -3.61133,6.927745 -3.611326,6.92773 -33.214843,0.008 -33.2167973,0.01 v 12.49023 12.49219 l 33.2167973,0.01 33.214843,0.008 3.660156,7.02148 3.6582,7.01953 -3.17187,5.7461 c -1.744893,3.16045 -6.074399,10.72874 -9.621095,16.81836 -14.49551,24.88854 -18.939453,32.77043 -18.939453,33.58984 0,0.47398 4.470505,3.47561 9.935547,6.66992 5.465043,3.19431 10.191618,5.85571 10.503906,5.91211 0.312289,0.0564 1.967227,-2.32491 3.677734,-5.29101 1.710506,-2.9661 3.850991,-6.67099 4.755861,-8.23243 0.90486,-1.56144 5.32526,-9.22599 9.82226,-17.0332 4.497,-7.8072 9.68977,-16.78535 11.54102,-19.95117 l 3.367188,-5.75586 7.91406,0.0898 7.91406,0.0898 5.0293,8.25 c 2.76649,4.53699 5.0293,8.48106 5.0293,8.76562 0,0.28457 1.78859,3.31317 3.97461,6.73047 2.18602,3.41729 3.9746,6.54493 3.9746,6.94922 1e-5,0.70038 4.50151,8.44873 11.64063,20.04102 l 3.28516,5.33593 6.18359,-3.3457 c 8.56723,-4.63504 15.26837,-9.16935 14.80469,-10.01953 -0.2139,-0.39221 -4.09523,-7.101 -8.625,-14.9082 -4.52977,-7.8072 -10.30559,-17.77251 -12.83594,-22.14454 -2.53034,-4.37203 -6.11966,-10.40012 -7.97461,-13.39453 l -3.37305,-5.44336 2.36914,-2.52148 c 1.30221,-1.38614 3.16557,-4.42808 4.14063,-6.76172 l 1.77148,-4.24414 h 32.91797 32.91602 v -12.49023 -12.49219 h -32.85547 -32.85547 l -0.78711,-2.55469 c -0.43317,-1.4053 -2.2464,-4.55899 -4.0293,-7.00781 -1.96623,-2.700655 -2.8606,-4.934365 -2.27343,-5.677745 0.53243,-0.67406 4.94177,-8.124857 9.79883,-16.556637 4.85707,-8.43178 11.82174,-20.510057 15.47656,-26.841797 3.65482,-6.33174 6.64453,-11.761584 6.64453,-12.066406 0,-1.346541 -20.72356,-12.361745 -21.58789,-11.474609 -0.89803,0.921718 -3.12361,4.701777 -13.61914,23.128906 -4.29453,7.539952 -13.89848,24.015781 -17.11524,29.363281 -1.65408,2.749712 -2.40191,2.981619 -9.98242,3.06836 l -8.19531,0.09375 -4.900388,-8.597657 C 93.330942,71.073108 89.186822,63.882707 86.816622,59.822961 82.648862,52.684285 75.995172,41.064376 71.051001,32.293664 69.733596,29.956654 68.220109,28.041051 67.689673,28.035851 Z M 19.170141,52.137414 c -4.94015,0.06627 -9.9196943,2.258723 -14.0878903,6.527343 -4.33658002,4.441063 -4.46289102,4.797781 -4.46289102,12.550782 0,7.817379 0.09419,8.072706 4.62109402,12.599609 2.555141,2.555141 6.3398383,5.02535 8.4667973,5.527347 5.392785,1.27274 5.589994,1.27046 10.660156,-0.10547 14.16741,-3.844743 18.380717,-22.181434 7.380859,-32.119142 -3.474829,-3.139303 -7.500686,-4.784507 -11.591796,-4.964844 -0.32875,-0.01449 -0.656985,-0.02004 -0.986329,-0.01563 z M 199.176,52.506554 c -7.50745,0.06116 -12.64703,3.1221 -16.11719,9.601563 -3.37684,6.305215 -3.04326,13.427982 0.91016,19.458984 3.04589,4.646556 5.75517,6.638947 10.73633,7.894534 7.58135,1.911 15.08805,-0.789346 20.33789,-7.316409 3.02008,-3.754819 3.50976,-5.28559 3.50976,-10.966797 0,-5.681208 -0.48968,-7.211978 -3.50976,-10.966796 -4.58986,-5.70652 -8.82363,-7.762459 -15.86719,-7.705079 z m -90.07617,56.677736 c 3.18594,-0.0671 6.42529,0.94944 9.10937,3.31446 7.57709,6.67636 7.22555,15.81689 -0.85351,22.17187 -4.23626,3.33225 -12.45934,3.23782 -16.51368,-0.18945 -4.030518,-3.40713 -5.499998,-6.60847 -5.499998,-11.97461 0,-7.78771 6.748738,-13.17471 13.757818,-13.32227 z m 91.25,47.11524 c -0.31817,-0.008 -0.63726,-0.007 -0.95703,0.004 -3.06988,0.10248 -6.20804,1.05243 -9.30469,2.86719 -8.52692,4.99711 -11.79411,15.6382 -7.42774,24.19336 2.73525,5.35923 5.67435,7.99791 11.11914,9.98633 8.37602,3.05889 18.76834,-1.31843 23.04688,-9.70508 3.79303,-7.43494 2.6939,-14.66951 -3.17188,-20.86914 -3.95583,-4.18099 -8.53225,-6.36104 -13.30468,-6.47656 z m -181.128907,0.0488 c -9.103803,0 -17.3736803,6.87166 -18.66992232,15.51562 -1.436707,9.58065 2.93398702,17.4028 11.89257832,21.2832 4.745489,2.0555 6.147649,2.14047 11.355469,0.69141 11.019986,-3.06629 16.414079,-13.34965 13.011718,-24.80664 -2.221131,-7.47936 -9.439231,-12.68359 -17.589843,-12.68359 z M 108.926,208.82489 c -2.87298,0.0718 -5.83947,0.75466 -8.72266,2.15039 -8.240288,3.98906 -11.869158,15.33578 -7.914058,24.74219 1.53701,3.65547 8.697398,9.65696 12.705078,10.65039 4.15483,1.0299 6.28237,0.84316 10.52539,-0.92969 8.49494,-3.54941 12.75392,-9.71417 12.7539,-18.45898 0,-10.85536 -9.08701,-18.41061 -19.34765,-18.1543 z"
     id="path6494"
     inkscape:connector-curvature="0" />
</svg>
