<?xml version="1.0" encoding="UTF-8" standalone="no"?>
<!-- Created with Inkscape (http://www.inkscape.org/) -->

<svg
   xmlns:dc="http://purl.org/dc/elements/1.1/"
   xmlns:cc="http://creativecommons.org/ns#"
   xmlns:rdf="http://www.w3.org/1999/02/22-rdf-syntax-ns#"
   xmlns:svg="http://www.w3.org/2000/svg"
   xmlns="http://www.w3.org/2000/svg"
   xmlns:sodipodi="http://sodipodi.sourceforge.net/DTD/sodipodi-0.dtd"
   xmlns:inkscape="http://www.inkscape.org/namespaces/inkscape"
   version="1.1"
   id="svg62"
   width="61.18816mm"
   height="62.078209mm"
   viewBox="0 0 231.26234 234.6263"
   sodipodi:docname="hermetica-winter.svg"
   inkscape:version="0.92.5 (2060ec1f9f, 2020-04-08)">
  <metadata
     id="metadata68">
    <rdf:RDF>
      <cc:Work
         rdf:about="">
        <dc:format>image/svg+xml</dc:format>
        <dc:type
           rdf:resource="http://purl.org/dc/dcmitype/StillImage" />
        <dc:title></dc:title>
      </cc:Work>
    </rdf:RDF>
  </metadata>
  <defs
     id="defs66" />
  <sodipodi:namedview
     pagecolor="#ffffff"
     bordercolor="#666666"
     borderopacity="1"
     objecttolerance="10"
     gridtolerance="10"
     guidetolerance="10"
     inkscape:pageopacity="0"
     inkscape:pageshadow="2"
     inkscape:window-width="1920"
     inkscape:window-height="997"
     id="namedview64"
     showgrid="false"
     units="mm"
     fit-margin-top="0"
     fit-margin-left="0"
     fit-margin-right="0"
     fit-margin-bottom="0"
     inkscape:zoom="0.88059701"
     inkscape:cx="116.50271"
     inkscape:cy="116.91605"
     inkscape:window-x="0"
     inkscape:window-y="28"
     inkscape:window-maximized="1"
     inkscape:current-layer="svg62" />
  <path
     style="fill:#ff0000;fill-opacity:0.01829266;stroke:#ff0000;stroke-width:0.56779659;stroke-miterlimit:4;stroke-dasharray:none;stroke-opacity:1"
     d="M 112.28005,0.28448076 C 102.08201,0.31956576 91.753492,1.9380078 80.504665,5.1438558 46.242171,14.908464 17.489222,43.000354 6.8913842,77.065731 1.2678322,95.141902 1.2920422,94.807422 0.7781032,165.87823 l -0.492188,67.81445 12.8554688,0.32031 12.855469,0.32227 0.58789,-70.40625 C 27.21841,88.108022 26.880264,92.399012 33.412868,77.055965 50.652102,36.566382 100.3849,14.557713 139.64529,30.044246 c 3.79646,1.497541 7.42905,2.72461 8.07422,2.72461 2.72121,0 19.08873,12.017489 26.05468,19.130859 7.34043,7.495787 9.82574,10.971423 15.70899,21.970703 3.89248,7.277322 8.55469,25.818234 8.55469,34.019532 0,15.00593 4.9974,30.04283 12.98437,39.07031 l 3.48242,3.93555 8.75977,-9.05664 c 4.81783,-4.98103 8.2564,-9.36673 7.64258,-9.7461 -0.61383,-0.37935 -2.44295,-3.30992 -4.06641,-6.51367 -2.27859,-4.49658 -3.1624,-8.44919 -3.87305,-17.32812 C 221.60759,91.260322 218.9634,79.007182 214.29763,68.065731 201.28291,37.545655 175.00871,14.188423 143.27419,4.9290118 132.54601,1.7987728 122.4781,0.24939476 112.28005,0.28448076 Z m 0.29102,40.75000024 c -4.84333,-0.119953 -9.7245,2.055328 -14.171878,6.486328 -9.11926,9.085694 -6.30084,24.035027 5.638678,29.919922 8.7741,4.324682 20.44768,0.548471 24.57617,-7.949219 4.40031,-9.05716 2.58515,-17.719625 -5.0293,-23.996094 -3.50227,-2.886871 -7.24664,-4.367641 -11.01367,-4.460937 z m -46.605467,26.9375 c -5.77564,0 -13.435874,4.550858 -16.386719,9.736328 -5.805623,10.202113 -1.739653,22.030813 9.349609,27.197261 4.827479,2.24911 9.316871,2.03977 14.966797,-0.69531 5.838903,-2.82657 9.017902,-6.577988 10.623042,-12.539058 3.02309,-11.226815 -6.740565,-23.699221 -18.552729,-23.699221 z m 93.095697,0.310547 c -3.78946,-0.106304 -7.70608,0.883744 -11.26953,3.21289 -5.66917,3.705491 -8.1013,9.420881 -7.43359,17.472654 0.63198,7.62079 3.1503,11.395868 10.07422,15.103518 12.46538,6.67503 27.16601,-2.81437 27.16601,-17.537108 0,-10.546702 -8.85292,-17.980291 -18.53711,-18.251954 z m -46.91406,26.947264 c -11.68405,0.009 -21.158218,11.042418 -19.064448,22.203128 0.96831,5.16157 7.914678,12.75059 13.353508,14.58984 11.32774,3.83071 23.16272,-4.04831 24.33008,-16.19727 1.1285,-11.74449 -6.8808,-20.604698 -18.61914,-20.595698 z m 46.82617,26.599608 c -1.6912,-0.0444 -3.40607,0.16162 -5.12695,0.625 -8.99671,2.42257 -13.72266,8.68897 -13.72266,18.19531 0,8.76044 4.78271,15.95237 12.0586,18.13086 6.46612,1.93604 14.62815,0.61437 18.16406,-2.9414 6.0855,-6.11968 7.25195,-8.59298 7.25195,-15.36914 0,-6.22818 -0.31413,-7.02518 -4.57031,-11.64258 -4.12664,-4.47689 -8.98107,-6.86496 -14.05469,-6.99805 z m -92.72851,0.0527 c -7.344645,-0.1792 -13.731546,3.33564 -16.955079,9.65429 -5.39275,10.57066 0.220539,24.9437 10.773438,27.58594 11.052318,2.76728 21.528878,-3.21157 24.416013,-13.93359 2.48721,-9.2368 -3.881385,-20.28004 -13.023435,-22.58204 -1.769786,-0.44563 -3.51602,-0.68325 -5.210937,-0.7246 z m 46.17187,26.7207 c -12.438008,0.009 -22.147958,11.86532 -19.013668,23.2168 1.35378,4.90298 6.20088,10.9246 10.257808,12.74218 4.72041,2.11483 13.32721,1.77283 18.21875,-0.72265 8.40524,-4.28804 11.59188,-16.68518 6.56836,-25.55469 -3.6877,-6.51098 -8.94732,-9.68664 -16.03125,-9.68164 z"
     id="path5304"
     inkscape:connector-curvature="0" />
</svg>
