<?xml version="1.0" encoding="UTF-8" standalone="no"?>
<!-- Created with Inkscape (http://www.inkscape.org/) -->

<svg
   xmlns:dc="http://purl.org/dc/elements/1.1/"
   xmlns:cc="http://creativecommons.org/ns#"
   xmlns:rdf="http://www.w3.org/1999/02/22-rdf-syntax-ns#"
   xmlns:svg="http://www.w3.org/2000/svg"
   xmlns="http://www.w3.org/2000/svg"
   xmlns:sodipodi="http://sodipodi.sourceforge.net/DTD/sodipodi-0.dtd"
   xmlns:inkscape="http://www.inkscape.org/namespaces/inkscape"
   version="1.1"
   id="svg42"
   width="26.290165mm"
   height="61.873695mm"
   viewBox="0 0 99.364404 233.85334"
   sodipodi:docname="hermetica-uruz.svg"
   inkscape:version="0.92.5 (2060ec1f9f, 2020-04-08)">
  <metadata
     id="metadata48">
    <rdf:RDF>
      <cc:Work
         rdf:about="">
        <dc:format>image/svg+xml</dc:format>
        <dc:type
           rdf:resource="http://purl.org/dc/dcmitype/StillImage" />
        <dc:title></dc:title>
      </cc:Work>
    </rdf:RDF>
  </metadata>
  <defs
     id="defs46" />
  <sodipodi:namedview
     pagecolor="#ffffff"
     bordercolor="#666666"
     borderopacity="1"
     objecttolerance="10"
     gridtolerance="10"
     guidetolerance="10"
     inkscape:pageopacity="0"
     inkscape:pageshadow="2"
     inkscape:window-width="1920"
     inkscape:window-height="997"
     id="namedview44"
     showgrid="false"
     units="mm"
     fit-margin-top="0"
     fit-margin-left="0"
     fit-margin-right="0"
     fit-margin-bottom="0"
     inkscape:zoom="0.88059701"
     inkscape:cx="49.341525"
     inkscape:cy="117.47712"
     inkscape:window-x="0"
     inkscape:window-y="28"
     inkscape:window-maximized="1"
     inkscape:current-layer="svg42" />
  <path
     style="fill:#ff0000;fill-opacity:0.01829266;stroke:#ff0000;stroke-width:0.56779659;stroke-miterlimit:4;stroke-dasharray:none;stroke-opacity:1"
     d="M 0.28389829,117.07572 V 0.58198965 L 5.1101693,4.3517586 c 2.654449,2.073372 5.3859187,4.288135 6.0699327,4.921694 0.684015,0.633559 9.306633,7.5396374 19.161383,15.3468414 9.85474,7.807203 21.30399,17.030749 25.44278,20.496768 4.13878,3.46602 13.91277,11.326591 21.71997,17.467936 7.80721,6.141345 15.85572,12.615958 17.8856,14.388028 l 3.69067,3.221947 V 127.35679 174.5186 H 86.588985 74.097455 V 133.31422 92.109836 l -6.52966,-5.33018 c -3.59131,-2.93159 -8.06271,-6.593731 -9.93644,-8.138083 -11.74659,-9.681691 -30.79514,-24.485288 -31.51271,-24.49012 -0.46843,-0.0032 -0.8517,40.364603 -0.8517,89.706137 v 89.71186 H 12.775423 0.28389829 Z"
     id="path5325"
     inkscape:connector-curvature="0" />
</svg>
