<?xml version="1.0" encoding="UTF-8" standalone="no"?>
<!-- Created with Inkscape (http://www.inkscape.org/) -->

<svg
   xmlns:dc="http://purl.org/dc/elements/1.1/"
   xmlns:cc="http://creativecommons.org/ns#"
   xmlns:rdf="http://www.w3.org/1999/02/22-rdf-syntax-ns#"
   xmlns:svg="http://www.w3.org/2000/svg"
   xmlns="http://www.w3.org/2000/svg"
   xmlns:sodipodi="http://sodipodi.sourceforge.net/DTD/sodipodi-0.dtd"
   xmlns:inkscape="http://www.inkscape.org/namespaces/inkscape"
   version="1.1"
   id="svg22"
   width="49.584614mm"
   height="42.810448mm"
   viewBox="0 0 187.40642 161.80327"
   sodipodi:docname="esoterica-valknut_unicursal.svg"
   inkscape:version="0.92.5 (2060ec1f9f, 2020-04-08)">
  <metadata
     id="metadata28">
    <rdf:RDF>
      <cc:Work
         rdf:about="">
        <dc:format>image/svg+xml</dc:format>
        <dc:type
           rdf:resource="http://purl.org/dc/dcmitype/StillImage" />
        <dc:title></dc:title>
      </cc:Work>
    </rdf:RDF>
  </metadata>
  <defs
     id="defs26" />
  <sodipodi:namedview
     pagecolor="#ffffff"
     bordercolor="#666666"
     borderopacity="1"
     objecttolerance="10"
     gridtolerance="10"
     guidetolerance="10"
     inkscape:pageopacity="0"
     inkscape:pageshadow="2"
     inkscape:window-width="1920"
     inkscape:window-height="997"
     id="namedview24"
     showgrid="false"
     inkscape:zoom="0.88059701"
     inkscape:cx="93.726639"
     inkscape:cy="82.27413"
     inkscape:window-x="0"
     inkscape:window-y="28"
     inkscape:window-maximized="1"
     inkscape:current-layer="svg22"
     units="mm"
     fit-margin-top="0"
     fit-margin-left="0"
     fit-margin-right="0"
     fit-margin-bottom="0" />
  <path
     style="fill-opacity:0.01829266;stroke:#ff0000;stroke-width:0.56779659;stroke-miterlimit:4;stroke-dasharray:none;stroke-opacity:1"
     d="m 1.7603949,122.0571 c 0.731955,-1.71759 1.933361,-3.88941 2.66979,-4.82628 1.179892,-1.50102 11.8684871,-19.965278 24.3227791,-42.016938 2.292855,-4.05975 6.811952,-11.81929 10.042437,-17.24342 3.230486,-5.42413 5.873611,-10.14111 5.873611,-10.48219 0,-0.34107 1.788559,-3.416093 3.974576,-6.833387 2.186017,-3.417294 3.974576,-6.503474 3.974576,-6.858176 0,-0.354702 1.363447,-2.804752 3.029881,-5.444554 4.975794,-7.882163 14.004014,-23.8089025 14.004014,-24.7045565 0,-0.458476 0.72737,-1.43725 1.61637,-2.175053 1.32246,-1.09754799 2.18072,-0.348528 4.72025,4.119427 1.70714,3.003488 5.06791,8.6422185 7.46838,12.5305115 2.40047,3.888294 4.3645,7.362205 4.3645,7.719805 0,0.357599 1.69187,3.308472 3.75972,6.557495 2.06784,3.249022 4.09537,6.800283 4.50561,7.891691 0.41024,1.091407 2.551,4.806203 4.757231,8.255097 2.20623,3.4489 4.01133,6.44299 4.01133,6.65352 0,0.45748 11.22797,20.08684 12.42219,21.71718 0.45751,0.62457 2.72934,4.58495 5.04853,8.80084 l 4.21671,7.66526 -14.53439,-0.009 -14.534391,-0.009 -3.47879,-6.52049 c -8.23808,-15.44109 -20.35847,-35.47686 -21.45242,-35.46223 -0.65309,0.009 -5.23785,7.03521 -10.18835,15.6144 -4.95051,8.57919 -10.954959,18.88788 -13.343225,22.90819 -4.72604,7.95563 -5.305741,10.292038 -2.553619,10.292038 1.840138,0 1.989897,-0.322198 -8.841302,19.02118 l -3.338307,5.96187 H 17.353827 0.42956786 Z"
     id="path5367"
     inkscape:connector-curvature="0" />
  <path
     style="fill:#ff0000;fill-opacity:0.01829266;stroke:#ff0000;stroke-width:0.56779659;stroke-miterlimit:4;stroke-dasharray:none;stroke-opacity:1"
     d=""
     id="path5369"
     inkscape:connector-curvature="0" />
  <path
     style="fill-opacity:0.01829266;stroke:#ff0000;stroke-width:0.56779659;stroke-miterlimit:4;stroke-dasharray:none;stroke-opacity:1"
     d="m 113.34578,0.28694351 c -0.52842,0.05036 -0.89736,0.77973499 -1.31836,1.96484399 -0.65268,1.837292 -3.6584,7.169836 -11.86914,21.0566415 l -3.216801,5.441406 3.558601,6.482422 c 3.19693,5.822067 9.81561,16.999865 10.8789,18.373045 0.22781,0.2942 0.84054,-0.15539 1.36133,-0.99805 1.47831,-2.39196 2.63342,-1.02199 9.6875,11.48438 7.43541,13.18246 13.34716,23.30663 17.25391,29.55078 1.45703,2.32877 2.64844,4.75656 2.64844,5.39453 0,0.75417 -8.69049,1.160158 -24.84375,1.160158 -18.490511,0 -25.145631,0.36344 -26.021491,1.41992 -0.64725,0.78072 -2.92934,4.48496 -5.07226,8.23242 -2.14293,3.74746 -5.0493,8.73011 -6.45704,11.07227 l -2.55859,4.25781 h 54.751951 54.75 l -2.06054,-3.12305 c -1.13372,-1.71759 -3.18003,-5.21482 -4.54688,-7.77148 -1.36684,-2.55664 -3.82016,-6.76201 -5.45117,-9.3457 -1.63101,-2.58369 -2.96484,-4.93259 -2.96484,-5.220708 0,-0.28811 -3.83325,-6.92281 -8.51758,-14.74218 -4.68432,-7.81938 -8.51563,-14.48208 -8.51563,-14.80665 0,-0.32457 -1.78859,-3.38544 -3.97461,-6.80273 -2.18602,-3.4173 -3.97461,-6.63103 -3.97461,-7.14062 0,-0.50959 -1.20062,-2.706 -2.66601,-4.88086 -1.46538,-2.17486 -3.94862,-6.253863 -5.51953,-9.064457 -1.57092,-2.810593 -5.53888,-9.708892 -8.81836,-15.330078 C 126.58975,21.32982 122.76543,14.687593 121.37117,12.189288 116.43951,3.3524855 114.5083,0.17614551 113.34578,0.28694351 Z M 75.378979,68.054522 c -0.63773,-0.0675 -2.68942,2.632 -4.7539,6.29688 -2.2021,3.9092 -6.54291,11.45281 -9.64649,16.76171 -7.733172,13.228168 -7.482238,12.792208 -14.748044,25.550788 -6.447469,11.3216 -8.464722,14.82257 -19.552734,33.94531 -3.220784,5.55467 -5.855469,10.28319 -5.855469,10.50586 0,0.22266 32.671583,0.40429 72.605467,0.40429 h 72.607421 l -8.33984,-14.47851 -8.33984,-14.48047 -14.43555,-0.31836 c -12.57643,-0.27777 -14.35067,-0.0945 -13.76953,1.41992 0.58793,1.5321 -2.69706,1.73828 -27.687501,1.73828 -15.5948,0 -28.35352,-0.3915 -28.35352,-0.87109 0,-0.47959 1.27841,-2.75291 2.83985,-5.05078 1.56144,-2.29786 2.83789,-4.47454 2.83789,-4.83594 0,-0.36139 4.10583,-7.67024 9.12304,-16.24219 6.03905,-10.317788 8.9302,-16.364228 8.55664,-17.890618 -0.54189,-2.2142 -11.21043,-20.62826 -12.98046,-22.4043 -0.0295,-0.0296 -0.0649,-0.0463 -0.10743,-0.0508 z"
     id="path5371"
     inkscape:connector-curvature="0" />
</svg>
