<?xml version="1.0" encoding="UTF-8" standalone="no"?>
<!-- Created with Inkscape (http://www.inkscape.org/) -->

<svg
   xmlns:dc="http://purl.org/dc/elements/1.1/"
   xmlns:cc="http://creativecommons.org/ns#"
   xmlns:rdf="http://www.w3.org/1999/02/22-rdf-syntax-ns#"
   xmlns:svg="http://www.w3.org/2000/svg"
   xmlns="http://www.w3.org/2000/svg"
   xmlns:sodipodi="http://sodipodi.sourceforge.net/DTD/sodipodi-0.dtd"
   xmlns:inkscape="http://www.inkscape.org/namespaces/inkscape"
   version="1.1"
   id="svg82"
   width="63.364819mm"
   height="59.944267mm"
   viewBox="0 0 239.48908 226.56101"
   sodipodi:docname="esoterica-druze.svg"
   inkscape:version="0.92.5 (2060ec1f9f, 2020-04-08)">
  <metadata
     id="metadata88">
    <rdf:RDF>
      <cc:Work
         rdf:about="">
        <dc:format>image/svg+xml</dc:format>
        <dc:type
           rdf:resource="http://purl.org/dc/dcmitype/StillImage" />
        <dc:title></dc:title>
      </cc:Work>
    </rdf:RDF>
  </metadata>
  <defs
     id="defs86" />
  <sodipodi:namedview
     pagecolor="#ffffff"
     bordercolor="#666666"
     borderopacity="1"
     objecttolerance="10"
     gridtolerance="10"
     guidetolerance="10"
     inkscape:pageopacity="0"
     inkscape:pageshadow="2"
     inkscape:window-width="1920"
     inkscape:window-height="997"
     id="namedview84"
     showgrid="false"
     units="mm"
     fit-margin-top="0"
     fit-margin-left="0"
     fit-margin-right="0"
     fit-margin-bottom="0"
     inkscape:zoom="0.88059701"
     inkscape:cx="-63.239626"
     inkscape:cy="113.57639"
     inkscape:window-x="0"
     inkscape:window-y="28"
     inkscape:window-maximized="1"
     inkscape:current-layer="svg82" />
  <path
     style="fill:#000000;fill-opacity:0;stroke:#ff0000;stroke-width:0.56779659;stroke-miterlimit:4;stroke-dasharray:none;stroke-opacity:1"
     d="m 180.29963,217.83353 c -10.16187,-7.28674 -31.27324,-22.6103 -43.22694,-31.37602 -1.70346,-1.24915 -6.50915,-4.73257 -10.67929,-7.74094 l -7.5821,-5.46974 -5.23139,3.71017 c -2.87727,2.04061 -9.83055,7.0957 -15.451744,11.23355 -12.24148,9.01115 -29.011484,21.23935 -33.442891,24.38561 -1.759397,1.24915 -6.603662,4.76015 -10.765031,7.80224 -4.161368,3.04208 -7.809094,5.28808 -8.106056,4.99112 -0.296963,-0.29697 0.437136,-3.29695 1.631331,-6.66665 1.194194,-3.36969 4.227134,-12.51443 6.739867,-20.32163 2.512733,-7.8072 7.730948,-23.9965 11.596034,-35.97622 3.865087,-11.97971 6.739209,-22.24764 6.386938,-22.81763 C 71.549633,138.58627 59.99172,130.11995 37.793816,114.40757 34.752287,112.25468 25.620544,105.57663 17.501052,99.567449 9.3815611,93.558269 1.7163061,88.053269 0.46715409,87.334119 c -1.74128999,-1.00248 8.53376901,-1.3156 44.03987791,-1.34208 36.031728,-0.0269 46.409144,-0.3496 46.752954,-1.45402 2.97553,-9.558335 18.919084,-59.039362 22.228764,-68.987288 2.38968,-7.1826275 4.51028,-13.9824525 4.71248,-15.1107225 0.20219,-1.128269 2.33595,3.9819 4.74169,11.3559335 2.40573,7.374032 6.31008,19.284026 8.67632,26.466653 2.36624,7.182627 6.78563,20.849085 9.82086,30.369905 l 5.51858,17.310579 45.84426,0.007 45.84427,0.007 -6.34368,4.82627 c -3.48902,2.65445 -12.0486,8.91441 -19.02129,13.911021 -6.97267,4.99661 -17.19854,12.40636 -22.72415,16.4661 -5.5256,4.05975 -13.64594,9.92411 -18.0452,13.03194 -4.39925,3.10781 -7.79849,6.17391 -7.55385,6.81356 0.78393,2.04974 3.98237,11.88508 12.74946,39.20535 4.71004,14.67754 10.05779,30.99596 11.8839,36.26316 1.8261,5.2672 3.20089,9.67708 3.05509,9.79975 -0.14578,0.12267 -5.70232,-3.67583 -12.34786,-8.44112 z M 88.147806,173.11429 c 2.75254,-2.02987 7.41247,-5.52641 10.35541,-7.77007 2.942934,-2.24367 6.489814,-4.68898 7.881944,-5.43402 2.32884,-1.24636 2.53115,-2.16833 2.53115,-11.53501 0,-5.61802 -0.4798,-10.18039 -1.07063,-10.18039 -0.58884,0 -4.68047,1.33805 -9.092514,2.97344 l -8.02188,2.97342 -4.69054,14.91217 c -2.579794,8.20169 -4.930548,15.55093 -5.223898,16.33165 -0.937292,2.4945 2.176896,1.52971 7.330958,-2.27119 z m 66.318984,-5.67797 c -1.78038,-5.15275 -4.07894,-12.25159 -5.10792,-15.77521 -1.02896,-3.52361 -2.50097,-6.90145 -3.27111,-7.50629 -1.40023,-1.09969 -15.22381,-5.96002 -16.95127,-5.96002 -0.50331,0 -0.91509,4.31978 -0.91509,9.59953 0,8.6527 0.25201,9.78105 2.55508,11.4399 1.4053,1.01221 7.3722,5.37971 13.2598,9.70556 5.8876,4.32585 11.37136,7.86518 12.18615,7.86518 1.07632,0 0.59621,-2.562 -1.75564,-9.36865 z m -54.351,-46.12764 c 3.10625,-1.22074 3.11241,-1.24477 1.13559,-4.42542 -1.09319,-1.75891 -3.520664,-5.33771 -5.394394,-7.95289 l -3.40678,-4.75487 -17.317798,-0.0243 c -10.239709,-0.0143 -17.317797,0.41822 -17.317797,1.05833 0,0.59542 1.296823,2.00072 2.881827,3.12288 1.585006,1.12217 5.363036,3.95662 8.395624,6.29878 3.032587,2.34216 5.870422,4.25847 6.306297,4.25847 0.435877,0 2.832724,1.74635 5.326328,3.88079 l 4.533819,3.88079 5.86704,-2.0576 c 3.22687,-1.13169 7.27247,-2.60994 8.990244,-3.28501 z m 58.95806,0.24349 c 2.29131,-1.77664 8.0171,-5.99936 12.72396,-9.38383 4.70686,-3.38447 8.29544,-6.57832 7.97459,-7.09746 -0.32084,-0.51913 -8.16827,-0.94388 -17.43873,-0.94388 h -16.85538 l -5.22167,7.02676 c -2.87192,3.86472 -5.22058,7.56959 -5.21926,8.23305 0.003,1.74341 16.11172,7.2879 18.16709,6.25315 0.93686,-0.47164 3.57809,-2.31115 5.8694,-4.08779 z m -34.121,-20.58412 5.24841,-7.629181 -5.19299,-16.182206 c -2.85614,-8.900212 -5.53853,-16.182203 -5.96086,-16.182203 -0.78784,0 -6.19462,14.807081 -9.62102,26.348299 l -1.92245,6.47541 5.30593,7.435601 c 2.91827,4.08958 5.66339,7.41937 6.10026,7.39954 0.43688,-0.0198 3.1561,-3.46921 6.04272,-7.66526 z"
     id="path5241"
     inkscape:connector-curvature="0" />
</svg>
