<?xml version="1.0" encoding="UTF-8" standalone="no"?>
<!-- Created with Inkscape (http://www.inkscape.org/) -->

<svg
   xmlns:dc="http://purl.org/dc/elements/1.1/"
   xmlns:cc="http://creativecommons.org/ns#"
   xmlns:rdf="http://www.w3.org/1999/02/22-rdf-syntax-ns#"
   xmlns:svg="http://www.w3.org/2000/svg"
   xmlns="http://www.w3.org/2000/svg"
   xmlns:sodipodi="http://sodipodi.sourceforge.net/DTD/sodipodi-0.dtd"
   xmlns:inkscape="http://www.inkscape.org/namespaces/inkscape"
   version="1.1"
   id="svg22"
   width="63.037544mm"
   height="60.042645mm"
   viewBox="0 0 238.25214 226.93283"
   sodipodi:docname="esoterica-lithe.svg"
   inkscape:version="0.92.5 (2060ec1f9f, 2020-04-08)">
  <metadata
     id="metadata28">
    <rdf:RDF>
      <cc:Work
         rdf:about="">
        <dc:format>image/svg+xml</dc:format>
        <dc:type
           rdf:resource="http://purl.org/dc/dcmitype/StillImage" />
        <dc:title></dc:title>
      </cc:Work>
    </rdf:RDF>
  </metadata>
  <defs
     id="defs26" />
  <sodipodi:namedview
     pagecolor="#ffffff"
     bordercolor="#666666"
     borderopacity="1"
     objecttolerance="10"
     gridtolerance="10"
     guidetolerance="10"
     inkscape:pageopacity="0"
     inkscape:pageshadow="2"
     inkscape:window-width="1920"
     inkscape:window-height="997"
     id="namedview24"
     showgrid="false"
     units="mm"
     fit-margin-top="0"
     fit-margin-left="0"
     fit-margin-right="0"
     fit-margin-bottom="0"
     inkscape:zoom="0.88059701"
     inkscape:cx="119.52587"
     inkscape:cy="113.37299"
     inkscape:window-x="0"
     inkscape:window-y="28"
     inkscape:window-maximized="1"
     inkscape:current-layer="svg22" />
  <path
     style="fill:#000000;fill-opacity:0;stroke:#ff0000;stroke-width:0.56779659;stroke-miterlimit:4;stroke-dasharray:none;stroke-opacity:1"
     d="m 185.52637,226.06709 c -15.07318,-2.43548 -27.97986,-12.2483 -34.55148,-26.26911 -3.57661,-7.63084 -3.8541,-9.0405 -3.8541,-19.57882 0,-10.56183 0.25951,-11.87209 3.71115,-18.73729 2.23791,-4.45114 7.1293,-10.98777 12.32164,-16.4661 10.55487,-11.1362 13.89365,-15.88875 18.34898,-26.11864 10.8393,-24.888119 6.33232,-51.037839 -12.29594,-71.341679 C 155.91027,33.063117 142.43046,26.690203 122.66868,25.553491 91.383251,23.753931 63.578808,43.15133 54.510029,73.103472 c -7.511927,24.810209 -1.000545,48.899488 18.73265,69.302638 11.15195,11.53056 14.612412,16.97294 17.190432,27.03595 4.58624,17.90187 -1.65694,35.79818 -16.612263,47.6197 C 57.810955,229.71684 31.323232,229.13344 16.127064,215.79104 2.7687907,204.06232 -2.6211133,186.4108 1.7976197,168.86323 4.9405667,156.38203 12.1713,146.89336 23.264049,140.69351 c 3.010319,-1.6825 5.609055,-3.05909 5.774966,-3.05909 0.165912,0 0.598109,1.18115 0.96044,2.6248 0.362329,1.44363 3.477887,6.5538 6.923461,11.35593 4.550126,6.34155 5.751708,8.73113 4.390368,8.73113 -4.168329,0 -11.231512,5.49315 -13.878742,10.79371 -8.033009,16.08454 6.597254,34.70064 23.660158,30.10608 12.669783,-3.41162 19.594506,-18.15622 13.763032,-29.3052 -1.212053,-2.31728 -5.876519,-8.04586 -10.36548,-12.73018 C 50.00329,154.52637 44.424812,147.88315 42.095634,144.44798 21.150876,113.55777 21.725562,68.652616 43.444504,39.049186 65.495503,8.993154 99.993941,-4.665509 137.28244,1.896758 c 32.75937,5.765205 60.946,31.427423 70.892,64.542879 3.03331,10.099455 3.48948,13.386874 3.57599,25.771054 0.0871,12.466079 -0.30135,15.577979 -3.18938,25.550839 -3.00737,10.38496 -9.08641,22.92845 -14.58427,30.09323 -1.19816,1.56144 -6.09873,7.09503 -10.89012,12.29688 -9.55944,10.37831 -11.42582,13.54491 -11.49307,19.49973 -0.10856,9.60942 4.92532,17.24231 13.81699,20.95092 5.48166,2.28632 9.48269,2.19172 15.09283,-0.35692 18.41775,-8.36702 16.77363,-34.6232 -2.49067,-39.77528 l -2.83834,-0.75908 4.64693,-5.62342 c 2.5558,-3.09287 4.64691,-5.99334 4.64691,-6.44549 0,-1.75239 5.96213,-9.4219 7.07783,-9.10472 2.38541,0.67816 10.748,6.95904 14.74632,11.07552 2.26381,2.33069 5.81698,7.59146 7.89593,11.69057 3.5744,7.04772 3.77992,8.10561 3.77992,19.45697 0,11.20622 -0.24112,12.49362 -3.62799,19.37052 -9.23459,18.75044 -28.83443,29.16436 -48.81388,25.93613 z"
     id="path6518"
     inkscape:connector-curvature="0" />
</svg>
