<?xml version="1.0" encoding="UTF-8" standalone="no"?>
<!-- Created with Inkscape (http://www.inkscape.org/) -->

<svg
   xmlns:dc="http://purl.org/dc/elements/1.1/"
   xmlns:cc="http://creativecommons.org/ns#"
   xmlns:rdf="http://www.w3.org/1999/02/22-rdf-syntax-ns#"
   xmlns:svg="http://www.w3.org/2000/svg"
   xmlns="http://www.w3.org/2000/svg"
   xmlns:sodipodi="http://sodipodi.sourceforge.net/DTD/sodipodi-0.dtd"
   xmlns:inkscape="http://www.inkscape.org/namespaces/inkscape"
   version="1.1"
   id="svg62"
   width="64.359406mm"
   height="62.775536mm"
   viewBox="0 0 243.24815 237.26187"
   sodipodi:docname="hermetica-sextans.svg"
   inkscape:version="0.92.5 (2060ec1f9f, 2020-04-08)">
  <metadata
     id="metadata68">
    <rdf:RDF>
      <cc:Work
         rdf:about="">
        <dc:format>image/svg+xml</dc:format>
        <dc:type
           rdf:resource="http://purl.org/dc/dcmitype/StillImage" />
        <dc:title></dc:title>
      </cc:Work>
    </rdf:RDF>
  </metadata>
  <defs
     id="defs66" />
  <sodipodi:namedview
     pagecolor="#ffffff"
     bordercolor="#666666"
     borderopacity="1"
     objecttolerance="10"
     gridtolerance="10"
     guidetolerance="10"
     inkscape:pageopacity="0"
     inkscape:pageshadow="2"
     inkscape:window-width="1920"
     inkscape:window-height="997"
     id="namedview64"
     showgrid="false"
     units="mm"
     fit-margin-top="0"
     fit-margin-left="0"
     fit-margin-right="0"
     fit-margin-bottom="0"
     inkscape:zoom="0.88059701"
     inkscape:cx="122.03174"
     inkscape:cy="118.5356"
     inkscape:window-x="0"
     inkscape:window-y="28"
     inkscape:window-maximized="1"
     inkscape:current-layer="svg62" />
  <path
     style="fill:#ff0000;fill-opacity:0.01829266;stroke:#ff0000;stroke-width:0.56779659;stroke-miterlimit:4;stroke-dasharray:none;stroke-opacity:1"
     d="m 16.762248,234.25435 c -2.498305,-1.51986 -7.2038269,-4.19428 -10.4567169,-5.94319 l -5.91434402,-3.17981 6.76603902,-11.8241 c 3.7213219,-6.50325 6.7660389,-12.0092 6.7660389,-12.23546 0,-0.22624 2.044068,-3.64791 4.542373,-7.60369 2.498305,-3.9558 4.542373,-7.56925 4.542373,-8.02992 0,-0.46066 0.948981,-2.19401 2.108848,-3.85186 1.159866,-1.65786 3.386986,-5.31386 4.949156,-8.12446 1.562168,-2.81059 5.801773,-10.22034 9.42134,-16.4661 3.619568,-6.24576 7.455201,-12.88898 8.523628,-14.76271 1.068427,-1.87373 3.160776,-5.45085 4.649664,-7.94915 1.488889,-2.49831 3.474653,-5.92631 4.41281,-7.6178 3.411969,-6.15174 10.016258,-17.69365 18.708534,-32.695759 4.8854,-8.43178 10.552005,-18.240388 12.592449,-21.796906 l 3.70991,-6.466393 -3.88068,-7.308216 C 83.13291,48.849406 81.611062,40.853248 83.304151,32.655534 85.981263,19.693304 93.70571,9.6306243 105.60854,3.5994933 c 5.70452,-2.89046601 7.7812,-3.31559501 16.19608,-3.31559501 8.2028,0 10.67589,0.478822 16.4661,3.18803701 12.35138,5.779159 20.51698,17.1937577 22.61568,31.6141967 1.04963,7.212058 -1.92457,19.599774 -6.11686,25.477143 l -3.30634,4.635309 2.37448,3.88164 c 1.30596,2.134903 3.50543,5.925708 4.8877,8.424013 5.46714,9.881234 20.29782,35.588153 23.25746,40.313563 0.58678,0.93686 3.97652,6.81355 7.53274,13.05932 3.55623,6.24576 8.09662,14.16652 10.08977,17.60169 1.99316,3.43517 9.65275,16.72161 17.02131,29.52543 7.36855,12.80381 15.18589,26.34576 17.37182,30.09322 8.96706,15.3726 9.71969,16.89887 8.52888,17.29581 -0.66931,0.2231 -4.21569,2.21829 -7.88085,4.43375 -13.22169,7.99205 -12.17616,7.87433 -15.8948,1.78964 -1.7982,-2.94235 -4.25462,-7.22269 -5.45871,-9.5119 -1.20411,-2.28921 -3.03524,-5.2837 -4.06919,-6.65444 -1.81213,-2.40239 -2.01045,-2.42474 -5.50083,-0.6198 -8.08187,4.17931 -29.34453,10.95185 -43.54829,13.87094 -13.55328,2.7854 -17.4617,3.10163 -38.37007,3.1045 -20.96773,0.003 -24.74576,-0.30361 -38.042372,-3.08626 -14.503842,-3.03528 -27.489284,-7.18556 -40.785591,-13.03549 -5.704195,-2.50965 -6.867961,-2.70529 -7.713048,-1.2966 -6.05253,10.08904 -12.255598,21.1296 -12.255598,21.81317 0,1.41534 -1.475695,0.95546 -6.245763,-1.94643 z m 92.514732,-86.62723 c -0.0397,-65.839809 0.41433,-62.304989 -6.45435,-50.249999 -3.20517,5.625279 -7.30252,12.736889 -19.628178,34.067789 -4.511242,7.80721 -10.189377,17.64428 -12.618078,21.86017 -12.186103,21.15339 -14.199927,24.6142 -17.851487,30.67825 -2.168272,3.60078 -3.71801,6.77119 -3.44386,7.04533 0.274149,0.27416 4.231208,2.08689 8.793463,4.0283 12.142183,5.16696 37.48864,11.51459 49.25132,12.33423 1.86971,0.13028 1.98515,-3.40557 1.95117,-59.76407 z m 38.07849,58.19769 c 9.59114,-1.4269 31.77373,-7.63249 39.27867,-10.98821 7.56603,-3.38305 9.0271,-4.93621 6.80754,-7.2366 -0.5725,-0.59335 -2.28418,-3.37839 -3.80373,-6.18898 -2.75915,-5.10338 -5.40911,-9.70365 -16.68093,-28.95763 -3.29079,-5.62119 -7.1076,-12.26441 -8.48178,-14.76271 -1.37418,-2.49831 -6.52574,-11.4411 -11.4479,-19.87288 -4.92216,-8.43178 -10.51152,-18.264729 -12.4208,-21.850999 -1.90928,-3.58627 -4.11018,-6.52461 -4.8909,-6.52966 -1.11728,-0.007 -1.41949,12.401749 -1.41949,58.284609 0,32.06159 0.34672,58.64051 0.77049,59.06428 0.42378,0.42377 2.34009,0.53291 4.25847,0.24253 1.91839,-0.29039 5.53205,-0.83208 8.03036,-1.20375 z M 128.58409,51.636206 c 1.5427,-0.780611 4.014,-3.200408 5.49181,-5.377327 4.95699,-7.302063 0.91841,-18.095652 -7.63224,-20.398106 -10.1258,-2.726595 -18.26616,3.152933 -18.26616,13.193094 0,6.477347 0.75455,8.016341 5.51688,11.252432 4.51942,3.07102 10.40919,3.597078 14.88971,1.329907 z"
     id="path5283"
     inkscape:connector-curvature="0" />
</svg>
