<?xml version="1.0" encoding="UTF-8" standalone="no"?>
<!-- Created with Inkscape (http://www.inkscape.org/) -->

<svg
   xmlns:dc="http://purl.org/dc/elements/1.1/"
   xmlns:cc="http://creativecommons.org/ns#"
   xmlns:rdf="http://www.w3.org/1999/02/22-rdf-syntax-ns#"
   xmlns:svg="http://www.w3.org/2000/svg"
   xmlns="http://www.w3.org/2000/svg"
   xmlns:sodipodi="http://sodipodi.sourceforge.net/DTD/sodipodi-0.dtd"
   xmlns:inkscape="http://www.inkscape.org/namespaces/inkscape"
   version="1.1"
   id="svg2"
   width="37.169128mm"
   height="59.741772mm"
   viewBox="0 0 140.48175 225.79567"
   sodipodi:docname="hermetica-inguz.svg"
   inkscape:version="0.92.5 (2060ec1f9f, 2020-04-08)">
  <metadata
     id="metadata8">
    <rdf:RDF>
      <cc:Work
         rdf:about="">
        <dc:format>image/svg+xml</dc:format>
        <dc:type
           rdf:resource="http://purl.org/dc/dcmitype/StillImage" />
        <dc:title></dc:title>
      </cc:Work>
    </rdf:RDF>
  </metadata>
  <defs
     id="defs6" />
  <sodipodi:namedview
     pagecolor="#ffffff"
     bordercolor="#666666"
     borderopacity="1"
     objecttolerance="10"
     gridtolerance="10"
     guidetolerance="10"
     inkscape:pageopacity="0"
     inkscape:pageshadow="2"
     inkscape:window-width="1920"
     inkscape:window-height="997"
     id="namedview4"
     showgrid="false"
     units="mm"
     fit-margin-top="0"
     fit-margin-left="0"
     fit-margin-right="0"
     fit-margin-bottom="0"
     inkscape:zoom="0.88059701"
     inkscape:cx="69.900185"
     inkscape:cy="112.65025"
     inkscape:window-x="0"
     inkscape:window-y="28"
     inkscape:window-maximized="1"
     inkscape:current-layer="svg2" />
  <path
     style="fill:#ff0000;fill-opacity:0.01829266;stroke:#ff0000;stroke-width:0.56779659;stroke-miterlimit:4;stroke-dasharray:none;stroke-opacity:1"
     d="m 92.182675,204.58533 c -11.43076,-11.4433 -21.30472,-20.806 -21.94213,-20.806 -0.63742,0 -10.3466,9.1983 -21.57595,20.44068 -11.22936,11.24237 -20.745932,20.44067 -21.147938,20.44067 -0.921444,0 -16.894438,-16.01825 -16.894438,-16.94231 0,-0.37532 9.454407,-10.12645 21.009793,-21.66917 L 52.641805,165.06242 26.52165,138.92452 0.4014958,112.78662 26.5195,86.687128 52.637505,60.587644 31.356146,39.284154 10.07479,17.980664 18.864428,9.1910265 27.654065,0.40138853 48.954815,21.68001 70.255565,42.958631 91.529125,21.685073 112.80268,0.41151453 l 8.93704,8.88461697 8.93702,8.8846175 -20.84929,20.712014 C 98.360335,50.284371 88.978155,60.081149 88.978155,60.663381 c 0,0.582231 11.497965,12.548056 25.551045,26.590717 l 25.55104,25.532122 -25.55104,25.56918 c -14.05308,14.06305 -25.551045,26.07107 -25.551045,26.68449 0,0.61343 9.30368,10.4292 20.674835,21.81284 l 20.67484,20.69753 -8.68098,8.92053 -8.68098,8.92053 z m -4.63822,-74.4481 c 8.90802,-8.89212 16.196405,-16.67874 16.196405,-17.30358 0,-1.40961 -31.949705,-33.528902 -33.351875,-33.528902 -0.98212,0 -29.21323,27.971272 -32.45039,32.151712 -1.45511,1.87912 -0.16795,3.48709 14.77165,18.45339 9.0011,9.01719 16.87688,16.3949 17.50172,16.3949 0.62484,0 8.42446,-7.27538 17.33249,-16.16752 z"
     id="path6586"
     inkscape:connector-curvature="0" />
</svg>
