<?xml version="1.0" encoding="UTF-8" standalone="no"?>
<!-- Created with Inkscape (http://www.inkscape.org/) -->

<svg
   xmlns:dc="http://purl.org/dc/elements/1.1/"
   xmlns:cc="http://creativecommons.org/ns#"
   xmlns:rdf="http://www.w3.org/1999/02/22-rdf-syntax-ns#"
   xmlns:svg="http://www.w3.org/2000/svg"
   xmlns="http://www.w3.org/2000/svg"
   xmlns:sodipodi="http://sodipodi.sourceforge.net/DTD/sodipodi-0.dtd"
   xmlns:inkscape="http://www.inkscape.org/namespaces/inkscape"
   version="1.1"
   id="svg82"
   width="59.941578mm"
   height="38.449024mm"
   viewBox="0 0 226.55085 145.31915"
   sodipodi:docname="hermetica-melting_pot.svg"
   inkscape:version="0.92.5 (2060ec1f9f, 2020-04-08)">
  <metadata
     id="metadata88">
    <rdf:RDF>
      <cc:Work
         rdf:about="">
        <dc:format>image/svg+xml</dc:format>
        <dc:type
           rdf:resource="http://purl.org/dc/dcmitype/StillImage" />
        <dc:title></dc:title>
      </cc:Work>
    </rdf:RDF>
  </metadata>
  <defs
     id="defs86" />
  <sodipodi:namedview
     pagecolor="#ffffff"
     bordercolor="#666666"
     borderopacity="1"
     objecttolerance="10"
     gridtolerance="10"
     guidetolerance="10"
     inkscape:pageopacity="0"
     inkscape:pageshadow="2"
     inkscape:window-width="1920"
     inkscape:window-height="997"
     id="namedview84"
     showgrid="false"
     units="mm"
     fit-margin-top="0"
     fit-margin-left="0"
     fit-margin-right="0"
     fit-margin-bottom="0"
     inkscape:zoom="0.88059701"
     inkscape:cx="113.16186"
     inkscape:cy="72.735669"
     inkscape:window-x="0"
     inkscape:window-y="28"
     inkscape:window-maximized="1"
     inkscape:current-layer="svg82" />
  <path
     style="fill:#ff0000;fill-opacity:0.01829266;stroke:#ff0000;stroke-width:0.56779659;stroke-miterlimit:4;stroke-dasharray:none;stroke-opacity:1"
     d="M 100.2161,144.32503 C 83.131984,140.76217 64.789964,129.46926 55.072718,116.53093 51.544299,111.8329 43.90953,95.979382 42.357733,90.128392 l -1.28002,-4.82628 H 20.680806 0.28389829 V 72.810592 60.319062 H 20.643996 41.004094 l 1.827147,-6.28516 C 54.033468,15.499594 89.867314,-6.0771507 129.33616,1.9464343 c 24.76772,5.035008 47.88571,27.1002197 54.18088,51.7135377 l 1.55793,6.0913 20.59598,0.30951 20.59599,0.30952 v 12.46591 12.4659 h -20.86333 -20.86333 l -0.72802,4.55273 c -1.31203,8.20498 -9.11886,22.742208 -16.63812,30.982148 -13.72787,15.04359 -31.18521,23.28604 -51.05974,24.10772 -5.93347,0.24532 -13.08771,-0.0335 -15.8983,-0.61968 z m 32.6006,-28.39345 c 4.11231,-2.02449 9.53302,-5.52842 12.04601,-7.78653 5.6982,-5.12026 13.26864,-16.633988 13.26864,-20.180008 0,-2.64045 -0.11117,-2.66293 -13.1716,-2.66293 -15.46831,0 -20.25136,-1.5861 -22.7393,-7.54057 -0.86002,-2.05832 -1.56367,-4.62017 -1.56367,-5.69298 0,-2.88342 -4.54699,-7.20712 -7.57931,-7.20712 -3.72399,0 -6.71635,3.43685 -7.55417,8.67626 -0.46281,2.89429 -1.95561,5.66794 -4.21848,7.83802 -3.475636,3.33314 -3.617876,3.36142 -18.761556,3.73048 -8.685608,0.21168 -15.259366,0.83946 -15.259366,1.45724 0,2.7362 6.085867,12.62907 11.235018,18.263058 5.865008,6.41726 15.833418,12.55401 23.534274,14.4882 2.42477,0.60902 8.6562,0.92515 13.84762,0.70253 7.85365,-0.33678 10.69473,-1.02297 16.91589,-4.08565 z M 83.182204,59.287572 c 0,-0.56732 2.26388,-3.81065 5.03085,-7.20739 6.66852,-8.18631 14.015096,-11.56197 25.062366,-11.51586 5.71354,0.0238 9.51369,0.73951 13.51218,2.54467 5.35213,2.41629 13.98002,10.7295 15.69276,15.1204 0.67586,1.73271 2.08224,2.08967 8.23305,2.08967 6.70917,0 7.41794,-0.22133 7.41794,-2.31642 0,-5.31452 -7.08548,-15.73811 -15.328,-22.549328 -20.82972,-17.212683 -54.210456,-12.111375 -68.963798,10.539178 -4.678419,7.1827 -6.786672,11.89847 -5.935265,13.27608 0.840357,1.35972 15.277917,1.37768 15.277917,0.019 z"
     id="path5241"
     inkscape:connector-curvature="0" />
</svg>
