<?xml version="1.0" encoding="UTF-8" standalone="no"?>
<!-- Created with Inkscape (http://www.inkscape.org/) -->

<svg
   xmlns:dc="http://purl.org/dc/elements/1.1/"
   xmlns:cc="http://creativecommons.org/ns#"
   xmlns:rdf="http://www.w3.org/1999/02/22-rdf-syntax-ns#"
   xmlns:svg="http://www.w3.org/2000/svg"
   xmlns="http://www.w3.org/2000/svg"
   xmlns:sodipodi="http://sodipodi.sourceforge.net/DTD/sodipodi-0.dtd"
   xmlns:inkscape="http://www.inkscape.org/namespaces/inkscape"
   version="1.1"
   id="svg82"
   width="66.437729mm"
   height="34.254139mm"
   viewBox="0 0 251.10323 129.46446"
   sodipodi:docname="esoterica-shofar.svg"
   inkscape:version="0.92.5 (2060ec1f9f, 2020-04-08)">
  <metadata
     id="metadata88">
    <rdf:RDF>
      <cc:Work
         rdf:about="">
        <dc:format>image/svg+xml</dc:format>
        <dc:type
           rdf:resource="http://purl.org/dc/dcmitype/StillImage" />
        <dc:title></dc:title>
      </cc:Work>
    </rdf:RDF>
  </metadata>
  <defs
     id="defs86" />
  <sodipodi:namedview
     pagecolor="#ffffff"
     bordercolor="#666666"
     borderopacity="1"
     objecttolerance="10"
     gridtolerance="10"
     guidetolerance="10"
     inkscape:pageopacity="0"
     inkscape:pageshadow="2"
     inkscape:window-width="1920"
     inkscape:window-height="997"
     id="namedview84"
     showgrid="false"
     units="mm"
     fit-margin-top="0"
     fit-margin-left="0"
     fit-margin-right="0"
     fit-margin-bottom="0"
     inkscape:zoom="0.88059701"
     inkscape:cx="-56.312057"
     inkscape:cy="64.957857"
     inkscape:window-x="0"
     inkscape:window-y="28"
     inkscape:window-maximized="1"
     inkscape:current-layer="svg82" />
  <path
     style="fill:#000000;fill-opacity:0;stroke:#ff0000;stroke-width:0.56779659;stroke-miterlimit:4;stroke-dasharray:none;stroke-opacity:1"
     d="M 76.129925,127.18642 C 54.973664,121.47244 43.355609,114.90404 28.952438,100.51408 16.64463,88.217558 9.3333092,76.089628 4.5776482,60.081468 -1.3594842,40.096318 -1.1564631,27.745684 5.2655372,18.234298 9.2863832,12.279172 21.419064,5.0264117 31.008891,2.8452517 c 31.38909,-7.139297 62.787864,1.126579 71.622269,18.8548983 1.78227,3.576561 2.99238,7.903963 2.99238,10.700888 0,8.4017 4.19435,19.26246 9.17774,23.76465 5.232,4.72681 7.93466,4.96688 14.10192,1.25268 13.73987,-8.27476 21.41923,-12.09139 30.09322,-14.95629 8.72662,-2.88228 11.1776,-3.1881 25.55085,-3.1881 14.37325,0 16.82423,0.30582 25.55085,3.1881 17.18451,5.67581 34.86582,17.33965 39.30836,25.9306 3.282,6.34669 1.58782,9.52656 -12.4598,23.38629 -12.49183,12.324742 -13.02141,12.700522 -17.89851,12.700522 -3.85071,0 -5.94922,-0.75895 -8.97522,-3.24597 -7.74873,-6.368582 -13.50947,-8.610492 -22.1189,-8.608022 -9.63189,0.003 -15.24471,2.70515 -27.25424,13.121982 -10.09987,8.76045 -20.96609,14.8252 -34.63559,19.33115 -9.46497,3.12 -12.66843,3.60787 -26.118645,3.97782 -12.739704,0.35041 -16.764476,0.0344 -23.81565,-1.87003 z m 37.870985,-24.42168 c 11.79021,-3.070962 22.37167,-8.806232 32.84178,-17.800612 5.47711,-4.70514 12.36866,-9.8614 15.31453,-11.45836 5.19055,-2.81381 19.82159,-6.50085 25.79683,-6.50085 5.17658,0 20.18981,3.5223 24.59737,5.77087 4.92563,2.51287 5.49585,2.61457 5.49585,0.98019 0,-1.45477 -10.93438,-6.46598 -18.73729,-8.58728 -6.94108,-1.887 -19.9476,-2.0173 -28.05004,-0.281 -7.49374,1.60586 -20.77285,7.98332 -25.31127,12.15606 -5.48397,5.04211 -13.18258,10.82099 -19.60691,14.71773 -6.16774,3.74111 -18.9353,9.311222 -21.34275,9.311222 -0.75271,0 -2.00472,0.76653 -2.78225,1.70339 -1.20157,1.44781 -0.91746,1.70339 1.89355,1.70339 1.81899,0 6.26976,-0.77163 9.8906,-1.71475 z M 88.184272,79.951578 c 4.907273,-0.99882 9.388463,-2.25705 9.958203,-2.79605 0.60869,-0.57586 -0.81076,-2.98808 -3.44193,-5.84922 -2.4628,-2.67805 -5.162768,-6.53 -5.99993,-8.55987 -1.804497,-4.37538 -2.244487,-4.42609 -10.331316,-1.19077 -5.56562,2.22666 -8.378939,2.50484 -25.834759,2.55452 -10.773949,0.0307 -19.588991,0.35139 -19.588983,0.71275 2.3e-5,1.13659 6.96272,11.22454 8.33909,12.08214 3.1553,1.96603 19.159393,4.67319 28.162337,4.76378 5.398234,0.0543 13.830014,-0.71845 18.737288,-1.71728 z M 72.686755,36.771758 c 8.749144,-2.98768 8.692383,-5.11828 -0.226521,-8.50271 -6.032578,-2.289165 -9.191602,-2.713139 -20.209579,-2.712337 -11.806414,8.59e-4 -13.685775,0.29444 -19.588983,3.060056 -3.591314,1.682508 -6.529661,3.520781 -6.529661,4.085061 0,1.26939 6.979488,4.40503 13.059322,5.8671 7.054394,1.69643 26.286496,0.66455 33.495422,-1.79717 z"
     id="path5241"
     inkscape:connector-curvature="0" />
</svg>
