<?xml version="1.0" encoding="UTF-8" standalone="no"?>
<!-- Created with Inkscape (http://www.inkscape.org/) -->

<svg
   xmlns:dc="http://purl.org/dc/elements/1.1/"
   xmlns:cc="http://creativecommons.org/ns#"
   xmlns:rdf="http://www.w3.org/1999/02/22-rdf-syntax-ns#"
   xmlns:svg="http://www.w3.org/2000/svg"
   xmlns="http://www.w3.org/2000/svg"
   xmlns:sodipodi="http://sodipodi.sourceforge.net/DTD/sodipodi-0.dtd"
   xmlns:inkscape="http://www.inkscape.org/namespaces/inkscape"
   version="1.1"
   id="svg32"
   width="268"
   height="268"
   viewBox="0 0 268 268"
   sodipodi:docname="esoterica-troll_cross.svg"
   inkscape:version="0.92.5 (2060ec1f9f, 2020-04-08)">
  <metadata
     id="metadata38">
    <rdf:RDF>
      <cc:Work
         rdf:about="">
        <dc:format>image/svg+xml</dc:format>
        <dc:type
           rdf:resource="http://purl.org/dc/dcmitype/StillImage" />
        <dc:title></dc:title>
      </cc:Work>
    </rdf:RDF>
  </metadata>
  <defs
     id="defs36" />
  <sodipodi:namedview
     pagecolor="#ffffff"
     bordercolor="#666666"
     borderopacity="1"
     objecttolerance="10"
     gridtolerance="10"
     guidetolerance="10"
     inkscape:pageopacity="0"
     inkscape:pageshadow="2"
     inkscape:window-width="1920"
     inkscape:window-height="997"
     id="namedview34"
     showgrid="false"
     inkscape:zoom="1.761194"
     inkscape:cx="226.4041"
     inkscape:cy="58.907112"
     inkscape:window-x="0"
     inkscape:window-y="28"
     inkscape:window-maximized="1"
     inkscape:current-layer="svg32" />
  <path
     style="fill:none;fill-opacity:1;stroke:#ff0000;stroke-width:0.56779659;stroke-miterlimit:4;stroke-dasharray:none;stroke-opacity:1"
     d="m 171.24011,252.47007 c -8.42392,-2.75982 -15.66456,-9.07547 -18.67239,-16.28698 -1.05929,-2.53974 -1.71584,-7.29079 -1.64774,-11.92373 0.11669,-7.9395 0.66205,-10.67414 2.87536,-14.41802 1.23889,-2.09561 1.48429,-2.05574 6.81356,1.10684 3.04061,1.80441 7.57246,4.40596 10.07076,5.78119 3.9029,2.14842 4.50297,2.98312 4.26251,5.92905 -0.20072,2.45892 0.43278,3.92778 2.23995,5.19357 3.45843,2.42237 5.06467,2.22479 8.31187,-1.02241 5.66356,-5.66356 3.23572,-9.86035 -10.01915,-17.31913 -13.98029,-7.86698 -49.02168,-27.99498 -53.05789,-30.4768 -2.18602,-1.34414 -7.8072,-4.64749 -12.49153,-7.34076 C 90.823449,160.71013 84.950856,156.65305 77.789893,149.49209 62.690502,134.3927 54.986551,115.42933 54.980205,93.345763 54.974487,73.451918 60.764573,57.580693 73.566777,42.398037 83.33015,30.819256 96.53631,22.496613 114.35936,16.690178 c 7.38091,-2.40457 29.68128,-2.770334 37.58301,-0.616424 28.42825,7.74917 50.31947,28.785978 58.62627,56.338096 2.85159,9.458165 2.84565,33.54923 -0.0102,43.07798 -5.29528,17.6656 -18.00722,34.81177 -33.3338,44.96146 -4.62808,3.06484 -8.8109,5.57244 -9.29517,5.57244 -0.84622,0 -23.5391,-12.85184 -24.64422,-13.95698 -0.29649,-0.29648 3.38586,-2.77088 8.18299,-5.49866 4.79714,-2.72779 9.73092,-5.54465 10.96396,-6.2597 5.35884,-3.10785 12.85337,-10.56492 16.95374,-16.86941 16.36533,-25.162335 9.22354,-58.897381 -15.90097,-75.11004 -10.72792,-6.922642 -14.03679,-7.788262 -29.77096,-7.788262 H 119.4602 l -8.99325,4.444702 c -14.847179,7.337875 -25.233377,20.24249 -29.511523,36.6674 -5.95745,22.8722 5.200093,46.87928 28.232203,60.74572 4.46537,2.68836 8.62994,5.09603 9.25461,5.35035 0.62466,0.25432 2.92431,1.57841 5.11032,2.94242 2.18602,1.364 6.52966,3.92402 9.65254,5.6889 16.66269,9.41687 21.12655,11.96787 28.38984,16.22414 4.37203,2.562 14.53852,8.38942 22.59218,12.94982 23.35656,13.22567 28.44128,19.68376 28.43381,36.11367 -0.005,10.89925 -1.46755,14.77651 -8.28247,21.95638 -6.27905,6.6153 -11.83128,9.02411 -21.73505,9.42965 -4.68432,0.19182 -9.7978,-0.0709 -11.36328,-0.58376 z"
     id="path5346"
     inkscape:connector-curvature="0" />
</svg>
