<?xml version="1.0" encoding="UTF-8" standalone="no"?>
<!-- Created with Inkscape (http://www.inkscape.org/) -->

<svg
   xmlns:dc="http://purl.org/dc/elements/1.1/"
   xmlns:cc="http://creativecommons.org/ns#"
   xmlns:rdf="http://www.w3.org/1999/02/22-rdf-syntax-ns#"
   xmlns:svg="http://www.w3.org/2000/svg"
   xmlns="http://www.w3.org/2000/svg"
   xmlns:sodipodi="http://sodipodi.sourceforge.net/DTD/sodipodi-0.dtd"
   xmlns:inkscape="http://www.inkscape.org/namespaces/inkscape"
   version="1.1"
   id="svg82"
   width="64.855186mm"
   height="66.051117mm"
   viewBox="0 0 245.12197 249.64202"
   sodipodi:docname="esoterica-open_source_judaism.svg"
   inkscape:version="0.92.5 (2060ec1f9f, 2020-04-08)">
  <metadata
     id="metadata88">
    <rdf:RDF>
      <cc:Work
         rdf:about="">
        <dc:format>image/svg+xml</dc:format>
        <dc:type
           rdf:resource="http://purl.org/dc/dcmitype/StillImage" />
        <dc:title></dc:title>
      </cc:Work>
    </rdf:RDF>
  </metadata>
  <defs
     id="defs86" />
  <sodipodi:namedview
     pagecolor="#ffffff"
     bordercolor="#666666"
     borderopacity="1"
     objecttolerance="10"
     gridtolerance="10"
     guidetolerance="10"
     inkscape:pageopacity="0"
     inkscape:pageshadow="2"
     inkscape:window-width="1920"
     inkscape:window-height="997"
     id="namedview84"
     showgrid="false"
     inkscape:zoom="0.88059701"
     inkscape:cx="122.32084"
     inkscape:cy="124.26368"
     inkscape:window-x="0"
     inkscape:window-y="28"
     inkscape:window-maximized="1"
     inkscape:current-layer="svg82"
     units="mm"
     fit-margin-top="0"
     fit-margin-left="0"
     fit-margin-right="0"
     fit-margin-bottom="0" />
  <path
     style="fill:#000000;fill-opacity:0;stroke:#ff0000;stroke-width:0.56779659;stroke-miterlimit:4;stroke-dasharray:none;stroke-opacity:1"
     d="M 101.65304,238.45729 C 88.199376,215.02123 85.900016,211.03409 80.777044,202.258 73.370863,189.57057 72.839327,188.73661 71.559823,187.79657 70.935247,187.3377 54.752825,186.95444 35.598887,186.94488 l -34.82534377,-0.0174 4.35755797,-7.66525 c 2.396657,-4.21589 6.0976508,-10.73136 8.2244308,-14.47882 2.12678,-3.74745 8.115965,-14.19797 13.309301,-23.22335 l 9.442429,-16.4098 -3.165107,-5.73427 C 31.201346,116.26215 28.114629,110.87114 26.082783,107.43597 22.572776,101.50172 10.221465,80.157704 3.5756472,68.541897 L 0.48950823,63.14783 H 36.178276 71.867043 l 4.571463,-7.665255 C 81.886899,46.34692 100.768,13.743075 105.08078,6.0231589 l 3.04757,-5.45517969 4.14371,6.95605969 c 2.27903,3.8258331 4.1437,7.1874691 4.1437,7.4703011 0,0.282833 1.9505,3.695573 4.33446,7.583866 8.62742,14.071526 12.69943,21.053309 12.69943,21.774152 0,0.404294 1.6724,3.393372 3.71644,6.642395 2.04404,3.249022 4.33266,7.31261 5.08583,9.030195 l 1.36938,3.122882 h 50.50243 50.50242 l -4.49904,7.665254 c -2.47447,4.21589 -5.61728,9.837076 -6.98402,12.491525 l -2.48499,4.826271 h -50.17701 -50.17701 l -2.11733,-3.122881 c -2.09809,-3.094487 -6.53188,-10.756304 -14.78595,-25.550847 -2.3521,-4.21589 -4.6203,-7.665255 -5.04044,-7.665255 -0.69421,0 -8.9785,13.15674 -8.9785,14.259245 0,0.258142 -1.56743,3.016744 -3.48318,6.130227 -1.91574,3.113483 -4.63929,7.848068 -6.05233,10.521297 l -2.569168,4.860418 -21.201901,0.308955 c -11.661044,0.169926 -21.201899,0.562594 -21.201899,0.872597 0,0.936906 5.943688,12.243384 8.058769,15.329924 1.087091,1.58639 3.622838,5.93003 5.634993,9.65254 2.012155,3.72251 4.402481,7.62923 5.311837,8.68161 1.475767,1.70786 1.07526,2.92774 -3.728351,11.35593 -11.734964,20.5896 -15.277248,27.12136 -15.277248,28.17031 0,0.65285 8.574968,1.21972 21.237353,1.40392 l 21.237352,0.30896 5.416903,9.08475 c 2.97929,4.99661 5.90166,10.16064 6.49414,11.47563 1.90912,4.23717 8.24174,14.07521 9.06004,14.07521 0.43634,0 1.58634,-1.40529 2.55557,-3.12288 0.96922,-1.71758 5.52976,-9.63834 10.13454,-17.60169 l 8.3723,-14.47882 h 20.70431 c 11.38737,0 20.98266,-0.45038 21.32287,-1.00086 0.34022,-0.55048 -2.0093,-5.5329 -5.22116,-11.07204 -3.21184,-5.53914 -7.54817,-13.00951 -9.63629,-16.60082 -8.16607,-14.04469 -11.74572,-20.39401 -11.74572,-20.83368 0,-0.25228 16.12158,-0.4587 35.82574,-0.4587 h 35.82574 l -3.25936,4.82627 c -1.79265,2.65445 -5.16383,8.27564 -7.49149,12.49153 l -4.23213,7.66525 h -6.78423 -6.78424 l 4.13219,7.65315 c 2.27271,4.20923 5.09513,8.8773 6.27202,10.37349 1.17691,1.49618 2.13982,3.18698 2.13982,3.75734 0,0.57034 1.78856,3.83295 3.97458,7.25025 2.18602,3.41729 3.97677,6.58661 3.97944,7.04291 0.002,0.45631 1.53354,3.12922 3.40192,5.93981 1.86838,2.8106 3.39924,5.48616 3.40192,5.94569 0.002,0.45954 -15.92731,0.97055 -35.39995,1.13559 l -35.40483,0.30008 -4.71313,7.94915 c -2.59223,4.37204 -6.91662,11.78178 -9.60977,16.4661 -12.40807,21.58193 -21.76558,37.49142 -22.02741,37.45068 -0.0845,-0.0131 -2.96421,-4.91992 -6.39938,-10.90393 z"
     id="path5849"
     inkscape:connector-curvature="0" />
</svg>
