<?xml version="1.0" encoding="UTF-8" standalone="no"?>
<!-- Created with Inkscape (http://www.inkscape.org/) -->

<svg
   xmlns:dc="http://purl.org/dc/elements/1.1/"
   xmlns:cc="http://creativecommons.org/ns#"
   xmlns:rdf="http://www.w3.org/1999/02/22-rdf-syntax-ns#"
   xmlns:svg="http://www.w3.org/2000/svg"
   xmlns="http://www.w3.org/2000/svg"
   xmlns:sodipodi="http://sodipodi.sourceforge.net/DTD/sodipodi-0.dtd"
   xmlns:inkscape="http://www.inkscape.org/namespaces/inkscape"
   version="1.1"
   id="svg42"
   width="63.547085mm"
   height="63.547089mm"
   viewBox="0 0 240.17796 240.17797"
   sodipodi:docname="hermetica-wax.svg"
   inkscape:version="0.92.5 (2060ec1f9f, 2020-04-08)">
  <metadata
     id="metadata48">
    <rdf:RDF>
      <cc:Work
         rdf:about="">
        <dc:format>image/svg+xml</dc:format>
        <dc:type
           rdf:resource="http://purl.org/dc/dcmitype/StillImage" />
        <dc:title></dc:title>
      </cc:Work>
    </rdf:RDF>
  </metadata>
  <defs
     id="defs46" />
  <sodipodi:namedview
     pagecolor="#ffffff"
     bordercolor="#666666"
     borderopacity="1"
     objecttolerance="10"
     gridtolerance="10"
     guidetolerance="10"
     inkscape:pageopacity="0"
     inkscape:pageshadow="2"
     inkscape:window-width="1920"
     inkscape:window-height="997"
     id="namedview44"
     showgrid="false"
     units="mm"
     fit-margin-top="0"
     fit-margin-left="0"
     fit-margin-right="0"
     fit-margin-bottom="0"
     inkscape:zoom="0.88059701"
     inkscape:cx="119.74831"
     inkscape:cy="119.74831"
     inkscape:window-x="0"
     inkscape:window-y="28"
     inkscape:window-maximized="1"
     inkscape:current-layer="svg42" />
  <path
     style="fill:#ff0000;fill-opacity:0.01829266;stroke:#ff0000;stroke-width:0.56779659;stroke-miterlimit:4;stroke-dasharray:none;stroke-opacity:1"
     d="M 79.775424,227.40254 V 214.91102 H 93.402545 107.02967 V 200.32806 185.7451 l -4.82628,-1.44428 C 95.309495,182.2378 84.645593,176.71518 78.280419,171.91161 68.920625,164.84809 59.772485,150.97035 55.853497,137.88993 L 54.432872,133.1483 H 39.84991 25.266949 v 13.62712 13.62712 H 12.775424 0.28389829 V 120.65678 80.911017 H 12.775424 25.266949 v 13.627114 13.627119 h 14.672483 14.672483 l 0.784747,-3.69067 c 1.349362,-6.346079 8.028555,-19.316056 13.373127,-25.968572 7.013257,-8.72957 19.712336,-17.380436 30.026826,-20.454871 l 8.233055,-2.454023 V 40.999829 26.402542 H 93.402545 79.775424 V 13.34322 0.28389829 h 39.745766 39.74576 V 13.34322 26.402542 h -13.62711 -13.62712 v 14.594166 14.594167 l 7.46245,2.019993 c 18.80615,5.090587 36.94737,23.073008 42.6476,42.274283 l 2.45809,8.280099 h 14.59728 14.59729 V 94.538131 80.911017 h 13.05932 13.05932 v 39.745763 39.74576 H 226.83475 213.77543 V 146.77542 133.1483 h -14.65211 -14.6521 l -2.34257,7.71242 c -3.5595,11.71886 -13.09017,25.08655 -23.42949,32.86214 -5.00187,3.7616 -14.61743,8.40627 -21.95275,10.60398 l -4.73369,1.41826 v 14.58296 14.58296 h 13.62712 13.62711 v 12.49152 12.49153 H 119.52119 79.775424 Z m 57.594546,-69.92593 c 20.97417,-10.20574 29.25589,-35.75451 18.27081,-56.36465 -5.8861,-11.043439 -17.00292,-19.053328 -29.70201,-21.400882 -12.61341,-2.331716 -29.247065,3.943364 -37.297545,14.070573 -7.654637,9.629259 -9.32752,14.461829 -9.30331,26.875129 0.02338,11.99072 1.388588,16.40074 7.50131,24.23151 3.97867,5.09692 4.85944,5.90978 11.49292,10.60672 9.249435,6.54921 27.723535,7.48697 39.037825,1.9816 z"
     id="path5325"
     inkscape:connector-curvature="0" />
</svg>
