<?xml version="1.0" encoding="UTF-8" standalone="no"?>
<!-- Created with Inkscape (http://www.inkscape.org/) -->

<svg
   xmlns:dc="http://purl.org/dc/elements/1.1/"
   xmlns:cc="http://creativecommons.org/ns#"
   xmlns:rdf="http://www.w3.org/1999/02/22-rdf-syntax-ns#"
   xmlns:svg="http://www.w3.org/2000/svg"
   xmlns="http://www.w3.org/2000/svg"
   xmlns:sodipodi="http://sodipodi.sourceforge.net/DTD/sodipodi-0.dtd"
   xmlns:inkscape="http://www.inkscape.org/namespaces/inkscape"
   version="1.1"
   id="svg22"
   width="64.501282mm"
   height="30.715958mm"
   viewBox="0 0 243.78437 116.09181"
   sodipodi:docname="esoterica-double_spiral.svg"
   inkscape:version="0.92.5 (2060ec1f9f, 2020-04-08)">
  <metadata
     id="metadata28">
    <rdf:RDF>
      <cc:Work
         rdf:about="">
        <dc:format>image/svg+xml</dc:format>
        <dc:type
           rdf:resource="http://purl.org/dc/dcmitype/StillImage" />
        <dc:title></dc:title>
      </cc:Work>
    </rdf:RDF>
  </metadata>
  <defs
     id="defs26" />
  <sodipodi:namedview
     pagecolor="#ffffff"
     bordercolor="#666666"
     borderopacity="1"
     objecttolerance="10"
     gridtolerance="10"
     guidetolerance="10"
     inkscape:pageopacity="0"
     inkscape:pageshadow="2"
     inkscape:window-width="1920"
     inkscape:window-height="997"
     id="namedview24"
     showgrid="false"
     units="mm"
     fit-margin-top="0"
     fit-margin-left="0"
     fit-margin-right="0"
     fit-margin-bottom="0"
     inkscape:zoom="0.88059701"
     inkscape:cx="121.84186"
     inkscape:cy="58.204263"
     inkscape:window-x="0"
     inkscape:window-y="28"
     inkscape:window-maximized="1"
     inkscape:current-layer="svg22" />
  <path
     style="fill:#000000;fill-opacity:0;stroke:#ff0000;stroke-width:0.56779659;stroke-miterlimit:4;stroke-dasharray:none;stroke-opacity:1"
     d="M 41.299352,114.3585 C 16.877637,107.4668 1.7726355,88.287736 0.36793547,62.387226 -1.0899325,35.506376 16.539156,11.271749 43.592678,2.9663787 52.458558,0.24457368 54.815832,-0.03110332 64.601153,0.50949268 77.851593,1.2415217 87.378463,4.2590767 97.767278,11.014583 c 14.689892,9.55235 24.350222,23.339673 28.379972,40.504193 3.43737,14.64131 6.45357,22.14975 11.84208,29.4793 6.0974,8.29381 13.16156,14.17746 21.66778,18.04685 14.85445,6.757124 27.57741,7.020024 42.34573,0.875 10.83921,-4.51013 18.78002,-11.82084 24.60961,-22.65682 4.12972,-7.67629 4.53581,-9.2228 4.96336,-18.90201 0.54781,-12.4015 -0.80446,-18.20598 -6.20159,-26.61974 -5.63361,-8.78241 -13.8331,-15.145388 -23.05632,-17.892182 -9.748,-2.903082 -14.94478,-2.888686 -24.51714,0.06791 -20.58775,6.358907 -30.96062,29.504042 -21.55043,48.085742 5.16675,10.20242 15.0361,16.55252 25.72601,16.55252 6.75544,0 11.70132,-1.93909 17.15152,-6.72442 10.58711,-9.29561 9.68894,-26.70456 -1.68111,-32.58424 -7.13712,-3.69076 -16.39707,-1.16954 -19.02739,5.18061 -1.22066,2.94692 -1.14736,3.88582 0.4996,6.39939 1.53008,2.3352 2.52448,2.79659 4.79762,2.22607 3.58515,-0.89981 8.30494,1.9918 8.30494,5.08809 0,6.29749 -10.49633,9.03421 -17.73057,4.62291 -4.88211,-2.97701 -8.84404,-11.42835 -8.06841,-17.21102 1.54821,-11.54277 11.92475,-19.87321 24.57809,-19.73165 16.67863,0.18658 28.6593,14.86405 26.96275,33.03198 -1.15691,12.38909 -8.51963,22.44011 -20.63758,28.17282 -5.89998,2.79113 -7.5259,3.05571 -16.3325,2.65776 -11.47952,-0.51873 -17.64152,-3.03968 -26.16792,-10.70564 -16.81807,-15.1209 -18.27557,-42.03458 -3.28644,-60.686541 21.67259,-26.9686483 65.85323,-22.8275783 84.27493,7.899131 4.68258,7.81038 6.07869,12.03606 7.35998,22.27699 2.51663,20.11462 -3.94891,36.95837 -19.74137,51.42929 C 205.42099,116.21789 180.09335,120.25359 156.73294,110.49291 135.19018,101.4917 120.8157,82.548896 115.35285,55.961886 113.22599,45.610696 109.23417,38.053846 101.42663,29.598376 93.588488,21.10978 86.630072,16.777504 76.213835,13.901024 65.234281,10.868983 58.13199,10.940048 46.896271,14.194373 36.03936,17.33898 28.255984,22.797236 21.094224,32.288596 c -6.431086,8.52302 -9.082711,17.01583 -8.949797,28.66505 0.200145,17.54158 8.717536,31.29978 24.076189,38.89044 7.646115,3.778914 9.485113,4.228434 17.169402,4.196854 11.358122,-0.0467 20.417595,-4.00876 28.354029,-12.400374 14.998211,-15.8584 11.164861,-42.08787 -7.470003,-51.11317 -9.815068,-4.75366 -22.51988,-3.37769 -29.706259,3.2173 -12.883148,11.82295 -6.679415,34.81065 9.394416,34.81065 5.60218,0 8.909692,-2.07402 10.875338,-6.8195 2.193284,-5.29506 0.111362,-9.07881 -4.995407,-9.07881 -5.817922,0 -7.498579,-1.00586 -7.498579,-4.48786 0,-6.67581 8.136849,-9.69208 15.715638,-5.82567 12.116121,6.18119 12.3125,23.89857 0.366538,33.06921 -4.511339,3.46325 -6.010389,3.95147 -13.256052,4.31736 -6.17366,0.31176 -9.112025,-0.073 -12.027476,-1.57483 -15.852899,-8.16637 -21.8493,-25.39627 -14.44522,-41.50654 12.101176,-26.330511 49.451431,-27.94295 66.695677,-2.8793 9.231742,13.41787 9.198232,35.1634 -0.0767,49.77261 -4.78832,7.542214 -11.295762,13.032794 -20.79074,17.541934 -9.986251,4.74245 -23.355162,6.06001 -33.225862,3.27455 z"
     id="path5423"
     inkscape:connector-curvature="0" />
</svg>
