<?xml version="1.0" encoding="UTF-8" standalone="no"?>
<!-- Created with Inkscape (http://www.inkscape.org/) -->

<svg
   xmlns:dc="http://purl.org/dc/elements/1.1/"
   xmlns:cc="http://creativecommons.org/ns#"
   xmlns:rdf="http://www.w3.org/1999/02/22-rdf-syntax-ns#"
   xmlns:svg="http://www.w3.org/2000/svg"
   xmlns="http://www.w3.org/2000/svg"
   xmlns:sodipodi="http://sodipodi.sourceforge.net/DTD/sodipodi-0.dtd"
   xmlns:inkscape="http://www.inkscape.org/namespaces/inkscape"
   version="1.1"
   id="svg32"
   width="69.270248mm"
   height="67.784309mm"
   viewBox="0 0 261.80881 256.19267"
   sodipodi:docname="esoterica-bahai_star.svg"
   inkscape:version="0.92.5 (2060ec1f9f, 2020-04-08)">
  <metadata
     id="metadata38">
    <rdf:RDF>
      <cc:Work
         rdf:about="">
        <dc:format>image/svg+xml</dc:format>
        <dc:type
           rdf:resource="http://purl.org/dc/dcmitype/StillImage" />
        <dc:title></dc:title>
      </cc:Work>
    </rdf:RDF>
  </metadata>
  <defs
     id="defs36" />
  <sodipodi:namedview
     pagecolor="#ffffff"
     bordercolor="#666666"
     borderopacity="1"
     objecttolerance="10"
     gridtolerance="10"
     guidetolerance="10"
     inkscape:pageopacity="0"
     inkscape:pageshadow="2"
     inkscape:window-width="1920"
     inkscape:window-height="997"
     id="namedview34"
     showgrid="false"
     units="mm"
     fit-margin-top="0"
     fit-margin-left="0"
     fit-margin-right="0"
     fit-margin-bottom="0"
     inkscape:zoom="0.88059701"
     inkscape:cx="131.88007"
     inkscape:cy="128.5642"
     inkscape:window-x="0"
     inkscape:window-y="28"
     inkscape:window-maximized="1"
     inkscape:current-layer="svg32" />
  <path
     style="fill:#000000;fill-opacity:0;stroke:#ff0000;stroke-width:0.56779659;stroke-miterlimit:4;stroke-dasharray:none;stroke-opacity:1"
     d="m 85.614885,253.13344 c -0.331239,-1.76087 -0.927174,-5.75667 -1.3243,-8.87956 -0.623542,-4.90334 -6.347724,-36.03636 -7.986317,-43.43644 l -0.56577,-2.55508 H 46.122541 16.506583 l 2.559522,-4.25848 c 3.466274,-5.7671 8.186484,-13.89994 18.562727,-31.98326 7.058732,-12.30169 8.456795,-15.49442 7.264705,-16.59028 -0.811896,-0.74636 -6.330836,-5.3624 -12.26431,-10.25785 -10.47591,-8.64323 -18.158922,-15.18866 -23.7154574,-20.20407 -1.4888408,-1.34383 -3.9615326,-3.2754 -5.4948713,-4.29234 l -2.78788839,-1.849 6.63046409,-2.3465 c 3.646756,-1.29058 12.507159,-4.48816 19.689786,-7.10574 7.182628,-2.61759 16.764195,-6.017793 21.292373,-7.55602 5.999028,-2.037875 8.233051,-3.333535 8.233051,-4.774897 0,-1.087966 -1.218094,-8.319701 -2.706876,-16.070521 -4.055409,-21.113056 -6.683989,-38.580065 -5.920714,-39.34334 0.666087,-0.666088 21.118485,6.36481 40.715937,13.99687 5.469353,2.129993 10.899943,3.872714 12.067969,3.872714 2.02443,0 4.98913,-4.738341 25.93405,-41.4491516 2.13806,-3.747458 4.27948,-7.21704765 4.75871,-7.71020015 0.47922,-0.4931525 2.49541,2.06193225 4.48041,5.67796615 5.23188,9.5308106 21.99118,38.2495666 24.13669,41.3606666 2.10324,3.049805 0.86947,3.32915 25.99145,-5.88484 7.18262,-2.634373 17.07783,-6.200655 21.98934,-7.92507 l 8.93003,-3.135302 -0.63328,3.571101 c -0.72403,4.082889 -8.61198,50.405574 -9.01315,52.930597 -0.17941,1.129239 2.47464,2.643601 8.25248,4.708738 14.50492,5.184399 45.70156,16.805649 46.05044,17.154519 0.31257,0.31258 -4.14565,4.16071 -32.13942,27.74126 -6.40191,5.39263 -11.63983,10.18119 -11.63983,10.64123 0,0.46003 3.37766,6.64807 7.50591,13.75118 4.12825,7.10313 8.34414,14.36839 9.36864,16.14506 1.02451,1.77666 4.02604,6.88683 6.67008,11.35593 2.64403,4.4691 4.81585,8.5089 4.82627,8.97733 0.0102,0.46844 -13.24436,0.8517 -29.45504,0.8517 h -29.47396 l -0.66456,4.25847 c -0.3655,2.34216 -2.43654,13.9678 -4.60232,25.83475 -2.16577,11.86695 -3.93395,22.98157 -3.92928,24.69915 0.0114,4.00579 -0.72054,3.89388 -6.23727,-0.95433 -4.90156,-4.30759 -35.09025,-29.61633 -38.27826,-32.09064 -1.70923,-1.32659 -3.59516,-0.11356 -15.8983,10.22617 -7.67747,6.4522 -14.93343,12.50129 -16.12436,13.44241 -1.19093,0.94113 -4.257028,3.47764 -6.813555,5.63671 -9.124041,7.70552 -8.341223,7.37377 -9.01003,3.81839 z m 24.319635,-49.19312 c 2.63139,-2.18601 8.57833,-7.17401 13.21545,-11.08445 l 8.43111,-7.10988 5.31644,4.23391 c 2.92405,2.32865 9.04202,7.50888 13.5955,11.51162 4.55348,4.00273 8.55043,7.00633 8.8821,6.67465 0.4442,-0.4442 7.22194,-32.79432 7.24974,-34.60296 0.002,-0.15615 7.92513,-0.2839 17.60606,-0.2839 13.33159,0 17.59838,-0.34437 17.58801,-1.41949 -0.008,-0.78072 -1.20387,-3.46356 -2.65854,-5.96187 -1.45467,-2.4983 -5.25908,-9.04876 -8.45424,-14.55655 l -5.80938,-10.01419 3.64166,-3.18014 c 2.0029,-1.74906 5.41664,-4.65242 7.58609,-6.4519 2.16944,-1.79949 4.78045,-4.03832 5.80224,-4.97518 1.02179,-0.93687 3.71819,-3.13047 5.992,-4.87469 2.27381,-1.74421 4.13419,-3.55424 4.13419,-4.0223 0,-0.46806 -4.72691,-2.55238 -10.50424,-4.63184 -5.77733,-2.07946 -13.35735,-4.86857 -16.8445,-6.19804 l -6.34028,-2.4172 3.23093,-16.963586 c 1.777,-9.32997 2.81453,-17.379982 2.3056,-17.888914 -0.50894,-0.508932 -4.2199,0.3857 -8.24659,1.988071 -4.0267,1.602371 -11.46825,4.32615 -16.53681,6.052844 l -9.21555,3.139441 -6.11496,-10.725141 c -3.36322,-5.898827 -7.16402,-12.547917 -8.44619,-14.775755 -3.1448,-5.464198 -4.27816,-5.565566 -6.8426,-0.612011 -1.20015,2.318262 -3.8429,6.791369 -5.87277,9.940241 -2.02988,3.14887 -3.69068,6.131091 -3.69068,6.627157 0,0.496067 -1.29732,2.862319 -2.88293,5.258339 l -2.88293,4.356402 -13.299276,-4.807196 C 92.554577,73.521854 85.093736,70.769695 83.28953,70.049901 c -1.804207,-0.719792 -3.560482,-1.028608 -3.902834,-0.686255 -0.342353,0.342352 0.803439,8.309697 2.546203,17.705209 1.742764,9.395515 2.927724,17.323685 2.633244,17.618165 -0.294478,0.29448 -7.75711,3.13772 -16.583624,6.31831 -8.826514,3.18058 -16.048208,6.19779 -16.048208,6.70492 0,0.50711 4.434335,4.65807 9.854078,9.22435 5.419741,4.56629 11.379264,9.62557 13.243383,11.24286 l 3.389306,2.94053 -3.388797,6.14422 c -4.803747,8.70966 -7.780037,13.82678 -11.113246,19.10691 -1.594987,2.52663 -2.899978,5.11504 -2.899978,5.75203 0,0.73854 6.536085,1.15816 18.040081,1.15816 h 18.040081 l 2.316655,12.77542 c 1.274146,7.02648 2.659256,14.97339 3.078016,17.65978 0.41875,2.68641 1.18773,4.73047 1.70883,4.54237 0.52111,-0.18808 3.10042,-2.13054 5.7318,-4.31656 z"
     id="path2476"
     inkscape:connector-curvature="0" />
</svg>
