<?xml version="1.0" encoding="UTF-8" standalone="no"?>
<!-- Created with Inkscape (http://www.inkscape.org/) -->

<svg
   xmlns:dc="http://purl.org/dc/elements/1.1/"
   xmlns:cc="http://creativecommons.org/ns#"
   xmlns:rdf="http://www.w3.org/1999/02/22-rdf-syntax-ns#"
   xmlns:svg="http://www.w3.org/2000/svg"
   xmlns="http://www.w3.org/2000/svg"
   xmlns:sodipodi="http://sodipodi.sourceforge.net/DTD/sodipodi-0.dtd"
   xmlns:inkscape="http://www.inkscape.org/namespaces/inkscape"
   version="1.1"
   id="svg62"
   width="42.516224mm"
   height="62.010277mm"
   viewBox="0 0 160.69124 234.36955"
   sodipodi:docname="esoterica-tiwaz.svg"
   inkscape:version="0.92.5 (2060ec1f9f, 2020-04-08)">
  <metadata
     id="metadata68">
    <rdf:RDF>
      <cc:Work
         rdf:about="">
        <dc:format>image/svg+xml</dc:format>
        <dc:type
           rdf:resource="http://purl.org/dc/dcmitype/StillImage" />
        <dc:title></dc:title>
      </cc:Work>
    </rdf:RDF>
  </metadata>
  <defs
     id="defs66" />
  <sodipodi:namedview
     pagecolor="#ffffff"
     bordercolor="#666666"
     borderopacity="1"
     objecttolerance="10"
     gridtolerance="10"
     guidetolerance="10"
     inkscape:pageopacity="0"
     inkscape:pageshadow="2"
     inkscape:window-width="1920"
     inkscape:window-height="997"
     id="namedview64"
     showgrid="false"
     units="mm"
     fit-margin-top="0"
     fit-margin-left="0"
     fit-margin-right="0"
     fit-margin-bottom="0"
     inkscape:zoom="0.88059701"
     inkscape:cx="80.822322"
     inkscape:cy="117.51226"
     inkscape:window-x="0"
     inkscape:window-y="28"
     inkscape:window-maximized="1"
     inkscape:current-layer="svg62" />
  <path
     style="fill:#ff0000;fill-opacity:0.01829266;stroke:#ff0000;stroke-width:0.56779659;stroke-miterlimit:4;stroke-dasharray:none;stroke-opacity:1"
     d="m 68.103682,138.55835 c 0,-52.408117 -0.38327,-95.285221 -0.8517,-95.282439 -0.46843,0.0028 -6.42428,4.474181 -13.23521,9.936441 -6.81094,5.46226 -14.029809,11.208924 -16.041941,12.770365 -2.012134,1.56144 -7.170907,5.681468 -11.463941,9.155617 -4.293034,3.474148 -8.478898,6.719552 -9.301919,7.21201 C 15.6812,83.264493 12.345809,79.907579 4.2706389,69.328531 L 0.39276095,64.248234 5.9633149,59.721408 c 3.063805,-2.489755 7.7362611,-6.315386 10.3832341,-8.501403 2.646975,-2.186017 10.210034,-8.20867 16.806798,-13.383671 6.596764,-5.175003 13.256447,-10.540681 14.799295,-11.923729 4.29292,-3.848284 31.57535,-25.17516236 32.76156,-25.60995536 0.57538,-0.210902 3.97785,2.11599796 7.56103,5.17088796 3.58319,3.05489 7.84917,6.5490554 9.47995,7.7648134 1.63079,1.215757 9.551548,7.556151 17.601698,14.089765 8.05014,6.533614 21.27985,17.185171 29.39934,23.670126 8.11949,6.484955 15.14325,12.148963 15.60835,12.586684 0.92531,0.870831 -13.4516,19.431687 -15.05143,19.431687 -0.54262,0 -3.445,-2.055677 -6.44972,-4.568175 -3.00472,-2.512498 -5.97415,-4.961139 -6.59873,-5.441427 -9.11109,-7.006259 -34.736708,-27.845466 -35.237498,-28.655759 -0.36725,-0.594219 -1.40409,-1.0804 -2.30409,-1.0804 -1.41178,0 -1.63637,13.094382 -1.63637,95.406048 v 95.40604 l -12.49153,-0.11853 -12.49152,-0.11854 z"
     id="path5283"
     inkscape:connector-curvature="0" />
</svg>
