<?xml version="1.0" encoding="UTF-8" standalone="no"?>
<!-- Created with Inkscape (http://www.inkscape.org/) -->

<svg
   xmlns:dc="http://purl.org/dc/elements/1.1/"
   xmlns:cc="http://creativecommons.org/ns#"
   xmlns:rdf="http://www.w3.org/1999/02/22-rdf-syntax-ns#"
   xmlns:svg="http://www.w3.org/2000/svg"
   xmlns="http://www.w3.org/2000/svg"
   xmlns:sodipodi="http://sodipodi.sourceforge.net/DTD/sodipodi-0.dtd"
   xmlns:inkscape="http://www.inkscape.org/namespaces/inkscape"
   version="1.1"
   id="svg52"
   width="66.594734mm"
   height="64.931984mm"
   viewBox="0 0 251.69663 245.41222"
   sodipodi:docname="hermetica-heptagram.svg"
   inkscape:version="0.92.5 (2060ec1f9f, 2020-04-08)">
  <metadata
     id="metadata58">
    <rdf:RDF>
      <cc:Work
         rdf:about="">
        <dc:format>image/svg+xml</dc:format>
        <dc:type
           rdf:resource="http://purl.org/dc/dcmitype/StillImage" />
        <dc:title></dc:title>
      </cc:Work>
    </rdf:RDF>
  </metadata>
  <defs
     id="defs56" />
  <sodipodi:namedview
     pagecolor="#ffffff"
     bordercolor="#666666"
     borderopacity="1"
     objecttolerance="10"
     gridtolerance="10"
     guidetolerance="10"
     inkscape:pageopacity="0"
     inkscape:pageshadow="2"
     inkscape:window-width="1920"
     inkscape:window-height="997"
     id="namedview54"
     showgrid="false"
     units="mm"
     fit-margin-top="0"
     fit-margin-left="0"
     fit-margin-right="0"
     fit-margin-bottom="0"
     inkscape:zoom="0.88059701"
     inkscape:cx="125.63303"
     inkscape:cy="122.99477"
     inkscape:window-x="0"
     inkscape:window-y="28"
     inkscape:window-maximized="1"
     inkscape:current-layer="svg52" />
  <path
     style="fill:#ff0000;fill-opacity:0.01829266;stroke:#ff0000;stroke-width:0.56779659;stroke-miterlimit:4;stroke-dasharray:none;stroke-opacity:1"
     d="M 125.92209,0.44869694 121.69162,5.6186189 C 112.71004,16.592795 77.973383,60.022796 68.058812,72.673306 c -1.873729,2.390786 -5.550948,7.084991 -8.171875,10.431641 l -4.765625,6.08398 1.822266,7.23829 c 1.652392,6.559703 1.966755,7.036103 3.349609,5.087893 2.083877,-2.935843 18.201327,-23.460131 23.095703,-29.410163 2.186017,-2.657515 5.349764,-6.553522 7.03125,-8.658203 1.681481,-2.104682 8.325661,-10.416662 14.76367,-18.470703 6.438,-8.054043 13.37031,-16.869946 15.40625,-19.589844 2.03595,-2.719899 4.38643,-4.945312 5.22266,-4.945312 0.83622,0 4.92297,4.343445 9.08203,9.652343 l 7.5625,9.652344 h 7.54883 c 7.07282,0 7.44277,-0.124328 5.86718,-1.986328 -3.42571,-4.048427 -16.34702,-20.122239 -18.54296,-23.066406 -1.24915,-1.674779 -4.32737,-5.5648461 -6.83985,-8.6445321 z M 25.429906,48.831509 l 0.533203,2.554688 c 1.280574,6.144227 11.416243,50.426593 20.652344,90.228523 l 4.269531,18.40039 5.179688,2.28711 c 5.708139,2.51936 6.883102,2.77619 6.882812,1.50781 C 62.947032,161.8344 59.416102,144.74197 56.301,131.64206 54.455831,123.88259 50.809268,108.08149 48.199437,96.526827 45.589606,84.972141 42.731075,72.672888 41.845922,69.196744 40.960769,65.7206 40.236547,62.272426 40.236547,61.532681 c 0,-0.960782 3.853562,-1.345703 13.490234,-1.345703 H 67.217015 L 71.328343,55.1694 c 2.261254,-2.759564 4.111329,-5.314417 4.111329,-5.677734 0,-0.363319 -11.251329,-0.660157 -25.003907,-0.660157 z m 87.695314,0 -4.74414,5.666016 -4.74414,5.667969 53.7539,0.294922 53.75196,0.294922 -0.35938,3.40625 c -0.19823,1.873729 -1.40663,7.941298 -2.68359,13.482421 -1.27692,5.541129 -1.87782,10.394764 -1.33594,10.787108 0.54189,0.39235 2.46045,2.69195 4.26367,5.10938 4.38334,5.87637 3.36197,8.373213 11.55859,-28.244144 1.67771,-7.494915 3.29264,-14.264202 3.58985,-15.044922 0.42783,-1.123875 -11.28645,-1.419918 -56.25391,-1.419922 z m 60.34179,20.439454 c -5.78162,0 -7.21677,0.319474 -6.38476,1.419922 0.59028,0.780719 4.35868,5.444047 8.37305,10.363281 4.01437,4.919234 8.57527,10.641631 10.13671,12.716801 3.68903,4.90275 26.09707,33.108293 33.45899,42.115233 11.56234,14.14595 13.0998,16.14921 13.0918,17.05859 -0.004,0.51044 -5.29362,3.4467 -11.75391,6.52344 l -11.74609,5.59375 -1.73438,7.25 c -1.18859,4.96767 -1.33085,7.08861 -0.45312,6.74024 0.70452,-0.27963 11.07258,-5.25081 23.04101,-11.04688 l 21.76172,-10.53711 -3.58594,-4.63672 c -1.97224,-2.5498 -5.12135,-6.46917 -6.99804,-8.70898 -1.8767,-2.2398 -4.99805,-6.07111 -6.93555,-8.51563 -6.9851,-8.81297 -28.91176,-36.365353 -33.36133,-41.919923 -2.50164,-3.12288 -7.90149,-9.894119 -12,-15.046874 l -7.45312,-9.36914 z M 32.244359,118.64401 c -0.436134,-0.26955 -4.816921,4.73537 -9.736328,11.12305 -4.919406,6.38767 -11.897863,15.14098 -15.5078121,19.45117 l -6.56445358,7.83789 5.66601558,3.23438 c 3.115663,1.77943 5.9178901,3.23633 6.2285161,3.23633 0.310625,-1e-5 9.655612,4.37284 20.765625,9.71874 11.110012,5.34591 26.821608,12.8834 34.914062,16.75 8.092454,3.86661 19.078127,9.18995 24.414067,11.83008 5.33593,2.64013 9.847229,4.81188 10.023429,4.82618 0.88582,0.072 8.54089,-3.49337 10.60547,-4.93946 2.57067,-1.80056 1.79987,-2.21861 -45.562497,-24.7832 C 29.431721,158.79706 19.79514,153.8951 19.79514,152.6655 c 0,-0.71428 1.151344,-2.56043 2.556641,-4.10157 1.405296,-1.54115 5.016557,-5.96194 8.027344,-9.82421 l 5.474609,-7.02344 -1.408203,-6.29102 c -0.774394,-3.46035 -1.765037,-6.5117 -2.201172,-6.78125 z m 165.316401,3.72266 -2.09765,9.50781 c -1.15298,5.22909 -3.85358,17.17237 -6.00196,26.54102 -8.09828,35.31538 -12.73677,55.85342 -14.04101,62.17383 -0.74109,3.59131 -1.80686,6.52929 -2.36914,6.52929 -0.56227,0 -5.87751,-2.29878 -11.8125,-5.10937 -5.93498,-2.8106 -11.17803,-5.11133 -11.65039,-5.11133 -1.64645,0 -12.82617,4.96595 -12.82617,5.69726 0,0.4053 8.55983,4.74278 19.02148,9.63672 10.46165,4.89394 20.02974,9.57661 21.26172,10.40821 1.23198,0.83159 2.79911,1.51367 3.48437,1.51367 0.68525,0 2.43077,-5.23872 3.87891,-11.64063 1.44814,-6.4019 4.32101,-18.79305 6.38281,-27.53711 2.0618,-8.74407 4.08252,-17.68703 4.49024,-19.87304 0.40771,-2.18602 2.4186,-11.12898 4.46875,-19.87305 2.05015,-8.74406 4.47573,-19.29643 5.39062,-23.44922 l 1.66407,-7.55078 -4.62305,-5.93164 z m -22.69726,59.68555 c -0.99947,0.074 -7.21254,2.78535 -14.4375,6.31835 -39.15661,19.14756 -80.366173,38.74805 -81.466797,38.74805 -0.42915,0 -2.191866,-5.7843 -3.916016,-12.85351 l -3.134765,-12.85157 -6.183594,-3.0332 c -5.948605,-2.91747 -6.183594,-2.94615 -6.183594,-0.74805 0,1.25676 1.773124,9.5556 3.939453,18.44141 2.166328,8.88581 4.488698,19.02615 5.160156,22.53516 l 1.220704,6.38086 5.34375,-2.6875 c 2.939543,-1.47766 14.286715,-6.97954 25.216793,-12.22657 10.93009,-5.24703 31.05239,-14.95673 44.71485,-21.57812 13.66245,-6.62139 25.22119,-12.03906 25.68554,-12.03906 1.01792,0 4.95904,-13.59565 4.16993,-14.38477 -0.019,-0.019 -0.0623,-0.0264 -0.12891,-0.0215 z"
     id="path5363"
     inkscape:connector-curvature="0" />
</svg>
