<?xml version="1.0" encoding="UTF-8" standalone="no"?>
<!-- Created with Inkscape (http://www.inkscape.org/) -->

<svg
   xmlns:dc="http://purl.org/dc/elements/1.1/"
   xmlns:cc="http://creativecommons.org/ns#"
   xmlns:rdf="http://www.w3.org/1999/02/22-rdf-syntax-ns#"
   xmlns:svg="http://www.w3.org/2000/svg"
   xmlns="http://www.w3.org/2000/svg"
   xmlns:sodipodi="http://sodipodi.sourceforge.net/DTD/sodipodi-0.dtd"
   xmlns:inkscape="http://www.inkscape.org/namespaces/inkscape"
   version="1.1"
   id="svg22"
   width="64.27047mm"
   height="55.521591mm"
   viewBox="0 0 242.91201 209.84539"
   sodipodi:docname="hermetica-keys_of_st_peter.svg"
   inkscape:version="0.92.5 (2060ec1f9f, 2020-04-08)">
  <metadata
     id="metadata28">
    <rdf:RDF>
      <cc:Work
         rdf:about="">
        <dc:format>image/svg+xml</dc:format>
        <dc:type
           rdf:resource="http://purl.org/dc/dcmitype/StillImage" />
        <dc:title></dc:title>
      </cc:Work>
    </rdf:RDF>
  </metadata>
  <defs
     id="defs26" />
  <sodipodi:namedview
     pagecolor="#ffffff"
     bordercolor="#666666"
     borderopacity="1"
     objecttolerance="10"
     gridtolerance="10"
     guidetolerance="10"
     inkscape:pageopacity="0"
     inkscape:pageshadow="2"
     inkscape:window-width="1920"
     inkscape:window-height="997"
     id="namedview24"
     showgrid="false"
     units="mm"
     fit-margin-top="0"
     fit-margin-left="0"
     fit-margin-right="0"
     fit-margin-bottom="0"
     inkscape:zoom="0.88059701"
     inkscape:cx="122.15168"
     inkscape:cy="105.09574"
     inkscape:window-x="0"
     inkscape:window-y="28"
     inkscape:window-maximized="1"
     inkscape:current-layer="svg22" />
  <path
     style="fill:#ff0000;fill-opacity:0.01829266;stroke:#ff0000;stroke-width:0.56779659;stroke-miterlimit:4;stroke-dasharray:none;stroke-opacity:1"
     d="m 33.916085,208.31405 c -6.640397,-2.06897 -15.87396,-8.58731 -20.10545,-14.19322 -5.656518,-7.49381 -7.716584,-13.93305 -7.716584,-24.12007 0,-10.80472 3.614001,-18.83684 12.415395,-27.59324 5.141227,-5.11495 7.700423,-6.70556 13.703249,-8.51695 8.862444,-2.67429 19.30717,-2.70574 25.505384,-0.0768 l 4.496908,1.90734 L 83.260766,114.67533 104.30655,93.629534 85.023776,74.321754 65.741006,55.013921 51.51759,69.205766 37.294173,83.397614 18.848058,64.926048 0.40194496,46.454486 9.235749,37.672493 18.069554,28.8905 l 9.032217,9.085504 c 4.96772,4.997027 9.362886,9.085504 9.767037,9.085504 1.222269,0 10.106599,-8.486179 10.106599,-9.653673 0,-0.597863 -4.088793,-5.197167 -9.086207,-10.220676 l -9.086207,-9.133655 8.875621,-8.8235647 8.875621,-8.82356503 37.734513,37.75068973 37.734522,37.75069 37.76652,-37.753906 37.76653,-37.75390473 9.02734,8.89146103 9.02734,8.8914597 -9.60965,9.357101 -9.60965,9.357101 5.3461,5.346099 5.3461,5.3461 9.41265,-9.363752 9.41265,-9.363751 8.23624,8.09064 c 4.52994,4.449851 8.34504,8.511039 8.47802,9.024862 0.13298,0.513823 -7.78512,9.04062 -17.59577,18.948439 L 207.19014,82.939914 193.02582,68.775602 178.86151,54.611289 160.04559,73.415194 c -10.34878,10.34215 -18.81594,19.45688 -18.81594,20.25495 0,0.79807 9.15242,10.593296 20.33873,21.767166 l 20.33874,20.31614 4.36041,-1.89891 c 6.62909,-2.88688 19.81031,-2.61638 28.01491,0.5749 19.45304,7.56649 29.14559,30.87205 21.20144,50.97847 -7.68071,19.43967 -30.87236,29.25137 -50.7914,21.48834 -9.01746,-3.51437 -18.28275,-12.79264 -21.64699,-21.67732 -3.00831,-7.9447 -3.34401,-19.67968 -0.77155,-26.97081 l 1.7392,-4.92944 -20.99589,-20.99589 -20.9959,-20.99591 -20.60772,20.72516 c -17.188062,17.28601 -20.496546,21.14039 -19.937744,23.22748 2.74258,10.24333 3.212532,15.8567 1.897028,22.6591 -2.362918,12.21854 -9.806099,22.06066 -21.066999,27.8569 -4.538602,2.33613 -7.614884,2.98854 -15.330508,3.25129 -5.308898,0.18079 -11.185593,-0.14895 -13.059322,-0.73276 z m 16.325833,-24.48993 c 5.880104,-2.35276 9.920131,-9.4894 8.788044,-15.52396 -1.60682,-8.56508 -11.212898,-14.25701 -18.774869,-11.12473 -6.083174,2.51973 -8.610195,6.36628 -8.610195,13.10615 0,7.26744 2.829796,11.8087 8.623314,13.83871 5.035501,1.76441 4.806833,1.7712 9.973706,-0.29617 z m 156.563092,-1.13745 c 7.9934,-5.23748 9.00739,-15.01304 2.2574,-21.76301 -9.11849,-9.1185 -23.85434,-3.03642 -23.85434,9.84563 0,11.10044 12.40049,17.94313 21.59694,11.91738 z"
     id="path6555"
     inkscape:connector-curvature="0" />
</svg>
