<?xml version="1.0" encoding="UTF-8" standalone="no"?>
<!-- Created with Inkscape (http://www.inkscape.org/) -->

<svg
   xmlns:dc="http://purl.org/dc/elements/1.1/"
   xmlns:cc="http://creativecommons.org/ns#"
   xmlns:rdf="http://www.w3.org/1999/02/22-rdf-syntax-ns#"
   xmlns:svg="http://www.w3.org/2000/svg"
   xmlns="http://www.w3.org/2000/svg"
   xmlns:sodipodi="http://sodipodi.sourceforge.net/DTD/sodipodi-0.dtd"
   xmlns:inkscape="http://www.inkscape.org/namespaces/inkscape"
   version="1.1"
   id="svg62"
   width="66.985405mm"
   height="57.485695mm"
   viewBox="0 0 253.17319 217.26877"
   sodipodi:docname="esoterica-dragons_eye.svg"
   inkscape:version="0.92.5 (2060ec1f9f, 2020-04-08)">
  <metadata
     id="metadata68">
    <rdf:RDF>
      <cc:Work
         rdf:about="">
        <dc:format>image/svg+xml</dc:format>
        <dc:type
           rdf:resource="http://purl.org/dc/dcmitype/StillImage" />
        <dc:title></dc:title>
      </cc:Work>
    </rdf:RDF>
  </metadata>
  <defs
     id="defs66" />
  <sodipodi:namedview
     pagecolor="#ffffff"
     bordercolor="#666666"
     borderopacity="1"
     objecttolerance="10"
     gridtolerance="10"
     guidetolerance="10"
     inkscape:pageopacity="0"
     inkscape:pageshadow="2"
     inkscape:window-width="1920"
     inkscape:window-height="997"
     id="namedview64"
     showgrid="false"
     units="mm"
     fit-margin-top="0"
     fit-margin-left="0"
     fit-margin-right="0"
     fit-margin-bottom="0"
     inkscape:zoom="0.88059701"
     inkscape:cx="126.80601"
     inkscape:cy="107.05945"
     inkscape:window-x="0"
     inkscape:window-y="28"
     inkscape:window-maximized="1"
     inkscape:current-layer="svg62" />
  <path
     style="fill:#ff0000;fill-opacity:0.01829266;stroke:#ff0000;stroke-width:0.56779659;stroke-miterlimit:4;stroke-dasharray:none;stroke-opacity:1"
     d="m 125.73071,216.90156 c -0.62245,-0.78251 -5.10877,-8.32148 -9.96962,-16.75326 C 104.69496,180.95266 88.172012,152.44068 86.805281,150.1822 86.238333,149.24534 82.86483,143.36864 79.308608,137.12288 75.752385,130.87712 71.211183,122.95635 69.217047,119.52118 56.706342,97.969792 47.317573,81.718102 43.959361,75.800847 41.832571,72.05339 38.170841,65.665678 35.822182,61.605932 26.424246,45.361245 13.557555,23.160135 9.4967795,16.182203 7.1342305,12.122458 4.1393805,6.8845343 2.8415585,4.5423733 L 0.48188113,0.28389829 H 126.57006 252.65823 L 249.805,4.8037053 c -1.56927,2.485893 -2.85323,4.776469 -2.85323,5.090168 0,0.3136977 -2.04407,3.9099717 -4.54237,7.9917197 -2.49831,4.081748 -4.54237,7.692414 -4.54237,8.023704 0,0.33129 -1.78856,3.398314 -3.97458,6.815608 -2.18602,3.417294 -3.97458,6.385521 -3.97458,6.596056 0,0.494126 -11.31488,20.220509 -12.45677,21.717175 -0.47653,0.624576 -2.17679,3.517371 -3.77836,6.428435 -1.60156,2.911064 -6.86683,12.109371 -11.7006,20.440681 -4.83376,8.33131 -10.66901,18.469438 -12.9672,22.529188 -2.2982,4.05974 -5.96885,10.44746 -8.157,14.19491 -8.33012,14.26629 -21.89769,37.74764 -25.58976,44.28814 -20.45004,36.22724 -28.49389,49.29406 -29.53747,47.98207 z M 114.08737,112.36799 V 80.231752 l -6.10269,-3.35104 C 104.62821,75.037632 97.857227,71.176017 92.938067,68.299339 59.900147,48.979085 59.536355,48.77841 58.83014,49.484625 c -0.671712,0.671711 2.366028,6.455312 12.032805,22.909443 3.30244,5.621184 7.147813,12.264404 8.545275,14.762714 1.397461,2.4983 4.483287,7.86398 6.85739,11.92373 2.374103,4.059738 6.23082,10.805448 8.570487,14.990448 2.33966,4.185 5.245603,9.03966 6.457643,10.78814 1.21204,1.74847 2.52583,4.07201 2.91954,5.16341 0.95137,2.63734 8.55131,14.48173 9.29219,14.48173 0.32004,0 0.5819,-14.46131 0.5819,-32.13625 z m 30.17844,25.52622 c 1.58456,-2.92254 4.81483,-8.63531 7.17835,-12.69506 2.36353,-4.05975 8.28684,-14.28008 13.16293,-22.71186 4.87609,-8.431778 10.49964,-18.141108 12.49677,-21.576278 1.99715,-3.43516 4.80503,-8.289826 6.23973,-10.788131 1.4347,-2.498305 4.64871,-8.00828 7.14223,-12.24439 2.49351,-4.236111 4.23988,-7.995804 3.88081,-8.354874 -0.72424,-0.724241 -5.91948,2.034452 -26.90638,14.287389 -7.80721,4.558137 -17.38877,10.061719 -21.29238,12.230182 l -7.09745,3.942664 v 32.327208 c 0,21.66448 0.38168,32.09132 1.15719,31.61204 0.63644,-0.39335 2.45364,-3.10635 4.0382,-6.02889 z m -4.0598,-87.260008 c 7.18263,-4.147178 16.12542,-9.328386 19.87288,-11.513797 3.74746,-2.185412 10.00742,-5.780528 13.91102,-7.989148 3.9036,-2.208621 7.09746,-4.431616 7.09746,-4.939991 0,-1.189775 -108.701169,-1.218391 -109.436372,-0.02881 -0.3044,0.492529 3.114806,2.961505 7.598235,5.486613 4.483429,2.525109 13.00635,7.399144 18.939824,10.83119 5.933483,3.432046 11.554663,6.592812 12.491533,7.023926 0.93686,0.431114 4.51398,2.561733 7.94915,4.734709 3.43517,2.172977 6.75678,3.947438 7.38135,3.943248 0.62458,-0.0042 7.01229,-3.400763 14.19492,-7.54794 z"
     id="path5283"
     inkscape:connector-curvature="0" />
</svg>
