<?xml version="1.0" encoding="UTF-8" standalone="no"?>
<!-- Created with Inkscape (http://www.inkscape.org/) -->

<svg
   xmlns:dc="http://purl.org/dc/elements/1.1/"
   xmlns:cc="http://creativecommons.org/ns#"
   xmlns:rdf="http://www.w3.org/1999/02/22-rdf-syntax-ns#"
   xmlns:svg="http://www.w3.org/2000/svg"
   xmlns="http://www.w3.org/2000/svg"
   xmlns:sodipodi="http://sodipodi.sourceforge.net/DTD/sodipodi-0.dtd"
   xmlns:inkscape="http://www.inkscape.org/namespaces/inkscape"
   version="1.1"
   id="svg62"
   width="61.577038mm"
   height="61.635872mm"
   viewBox="0 0 232.73211 232.95448"
   sodipodi:docname="hermetica-part_of_fortune.svg"
   inkscape:version="0.92.5 (2060ec1f9f, 2020-04-08)">
  <metadata
     id="metadata68">
    <rdf:RDF>
      <cc:Work
         rdf:about="">
        <dc:format>image/svg+xml</dc:format>
        <dc:type
           rdf:resource="http://purl.org/dc/dcmitype/StillImage" />
        <dc:title></dc:title>
      </cc:Work>
    </rdf:RDF>
  </metadata>
  <defs
     id="defs66" />
  <sodipodi:namedview
     pagecolor="#ffffff"
     bordercolor="#666666"
     borderopacity="1"
     objecttolerance="10"
     gridtolerance="10"
     guidetolerance="10"
     inkscape:pageopacity="0"
     inkscape:pageshadow="2"
     inkscape:window-width="1920"
     inkscape:window-height="997"
     id="namedview64"
     showgrid="false"
     inkscape:zoom="0.88059701"
     inkscape:cx="357.1709"
     inkscape:cy="13.062663"
     inkscape:window-x="0"
     inkscape:window-y="28"
     inkscape:window-maximized="1"
     inkscape:current-layer="svg62"
     units="mm"
     fit-margin-top="0"
     fit-margin-left="0"
     fit-margin-right="0"
     fit-margin-bottom="0" />
  <path
     style="fill:#ffff00;fill-opacity:0.01829266;stroke:#ff0000;stroke-width:0.56779659;stroke-miterlimit:4;stroke-dasharray:none;stroke-opacity:1"
     d="m 90.647171,230.39248 c -24.03659,-6.20116 -41.1098,-15.79466 -57.01208,-32.03527 -16.30131,-16.64813 -26.0084,-34.45649 -31.51428,-57.8152 -2.63641001,-11.18498 -2.36903001,-38.57378 0.48573,-49.754766 11.42059,-44.730002 42.39234,-76.282384 85.76945,-87.3773554 15.798639,-4.04096903 39.148189,-4.17452003 55.076269,-0.315018 12.36904,2.997119 28.14417,9.8170044 38.04237,16.4464364 8.79464,5.890307 26.10191,23.211513 31.91633,31.942036 6.77283,10.169603 12.61222,23.352271 16.04332,36.218471 2.72283,10.210311 3.05235,13.418346 2.98675,29.078136 -0.0631,15.08469 -0.48844,19.17903 -2.97382,28.63214 -5.60771,21.32884 -14.79225,37.3218 -30.58339,53.25456 -16.76416,16.91453 -31.70238,25.25903 -56.75636,31.70417 -11.82437,3.04181 -39.72825,3.05355 -51.480289,0.0217 z m 51.467169,-25.56512 c 7.90009,-2.45593 21.44817,-9.07239 25.75317,-12.57703 l 3.40678,-2.77342 -27.53813,-27.54471 -27.53814,-27.54471 -27.538129,27.57285 -27.53814,27.57286 2.83898,2.25188 c 6.83333,5.42023 25.48691,13.20538 36.338989,15.16625 6.64559,1.2008 35.89965,-0.28516 41.81462,-2.12397 z M 71.345061,144.03121 98.584531,116.774 71.014651,89.238844 43.444781,61.703682 l -2.27628,2.838984 c -3.28349,4.095197 -9.59538,16.687577 -12.58575,25.108928 -2.29081,6.451271 -2.57732,9.395271 -2.58481,26.560556 -0.009,20.93638 0.56063,23.98584 7.16367,38.34142 3.69162,8.02589 9.01765,16.73485 10.23432,16.73485 0.39032,0 12.96742,-12.26574 27.94913,-27.25721 z m 123.731709,19.66538 c 2.47356,-4.1537 6.29511,-12.70431 8.49234,-19.00135 3.89201,-11.15416 3.99414,-11.88813 3.9639,-28.48309 -0.0297,-16.315995 -0.18959,-17.488565 -3.79289,-27.822026 -3.95157,-11.332263 -11.9526,-26.118645 -14.13298,-26.118645 -1.78395,0 -54.10403,52.451741 -54.10403,54.240171 0,1.64432 52.18459,54.51504 53.94067,54.64989 0.62458,0.0479 3.15942,-3.31127 5.63299,-7.46495 z m -50.7817,-92.615201 c 14.52628,-14.516416 26.41143,-26.978092 26.41143,-27.692616 0,-0.714524 -3.44937,-3.327248 -7.66526,-5.806052 -22.4107,-13.176763 -49.9847,-16.275472 -74.097459,-8.326921 -5.93347,1.955917 -12.8322,4.800861 -15.33051,6.322099 -2.4983,1.521238 -6.20317,3.645113 -8.23305,4.719721 -2.02987,1.074608 -3.69068,2.356563 -3.69068,2.848791 0,1.629744 52.771419,54.149794 54.499599,54.240004 0.93199,0.0487 13.57966,-11.78861 28.10593,-26.305026 z"
     id="path5304"
     inkscape:connector-curvature="0" />
</svg>
