<?xml version="1.0" encoding="UTF-8" standalone="no"?>
<!-- Created with Inkscape (http://www.inkscape.org/) -->

<svg
   xmlns:dc="http://purl.org/dc/elements/1.1/"
   xmlns:cc="http://creativecommons.org/ns#"
   xmlns:rdf="http://www.w3.org/1999/02/22-rdf-syntax-ns#"
   xmlns:svg="http://www.w3.org/2000/svg"
   xmlns="http://www.w3.org/2000/svg"
   xmlns:sodipodi="http://sodipodi.sourceforge.net/DTD/sodipodi-0.dtd"
   xmlns:inkscape="http://www.inkscape.org/namespaces/inkscape"
   version="1.1"
   id="svg52"
   width="61.417656mm"
   height="61.918911mm"
   viewBox="0 0 232.12972 234.02423"
   sodipodi:docname="esoterica-peace.svg"
   inkscape:version="0.92.5 (2060ec1f9f, 2020-04-08)">
  <metadata
     id="metadata58">
    <rdf:RDF>
      <cc:Work
         rdf:about="">
        <dc:format>image/svg+xml</dc:format>
        <dc:type
           rdf:resource="http://purl.org/dc/dcmitype/StillImage" />
        <dc:title></dc:title>
      </cc:Work>
    </rdf:RDF>
  </metadata>
  <defs
     id="defs56" />
  <sodipodi:namedview
     pagecolor="#ffffff"
     bordercolor="#666666"
     borderopacity="1"
     objecttolerance="10"
     gridtolerance="10"
     guidetolerance="10"
     inkscape:pageopacity="0"
     inkscape:pageshadow="2"
     inkscape:window-width="1920"
     inkscape:window-height="997"
     id="namedview54"
     showgrid="false"
     units="mm"
     fit-margin-top="0"
     fit-margin-left="0"
     fit-margin-right="0"
     fit-margin-bottom="0"
     inkscape:zoom="0.88059701"
     inkscape:cx="115.77381"
     inkscape:cy="116.25413"
     inkscape:window-x="0"
     inkscape:window-y="28"
     inkscape:window-maximized="1"
     inkscape:current-layer="svg52" />
  <path
     style="fill:#000000;fill-opacity:0;stroke:#ff0000;stroke-width:0.56779659;stroke-miterlimit:4;stroke-dasharray:none;stroke-opacity:1"
     d="M 95.585732,232.14532 C 74.387611,227.53246 57.707093,219.74367 42.300931,207.26454 34.00462,200.54447 30.507421,196.98214 21.917636,186.50171 16.586057,179.99662 8.5666971,164.20883 4.4256211,152.06502 L 0.35959512,140.14129 0.32178512,117.42942 0.28397512,94.717563 4.0757321,83.361628 C 19.709716,36.539422 56.232452,6.638708 104.78444,0.91265698 c 13.21587,-1.558635 27.42647,-0.219029 42.5674,4.01274602 40.18128,11.230364 71.9856,44.128813 81.86565,84.68199 2.13054,8.74489 2.62834,13.906767 2.62834,27.254237 0,19.62887 -2.57186,32.19936 -9.87431,48.26271 -19.0314,41.86382 -61.16609,68.93735 -106.78297,68.61311 -6.98565,-0.0496 -15.806918,-0.76611 -19.602818,-1.59213 z m 7.469438,-54.1007 c 0,-28.08052 -0.10612,-29.58239 -1.98729,-28.12703 -3.196638,2.47303 -40.029661,39.27208 -40.029661,39.99273 0,0.36066 2.292795,2.23324 5.095101,4.16128 8.387003,5.77041 27.400202,13.25908 34.36676,13.53594 l 2.55509,0.10154 z m 35.68692,27.93531 c 8.40354,-2.18885 26.64833,-10.89689 29.55112,-14.10445 l 2.20529,-2.43681 -20.30416,-20.32769 c -11.16728,-11.18023 -20.72085,-20.07016 -21.23014,-19.7554 -0.50929,0.31475 -0.92598,13.57307 -0.92598,29.4629 0,32.89548 -1.0529,30.2237 10.70387,27.16145 z M 73.237958,141.56882 103.05517,111.76753 V 68.839393 25.911257 l -4.258478,0.77677 c -4.89613,0.893085 -20.155291,6.335345 -25.472033,9.084739 -11.729297,6.065456 -25.096314,18.093557 -33.236913,29.907715 -6.619647,9.606854 -13.024314,25.379332 -14.49189,35.688509 -1.721336,12.09174 -0.439638,33.99053 2.500162,42.7172 3.754897,11.14623 12.446272,27.28391 14.694481,27.28391 0.346637,0 14.047993,-13.41058 30.447459,-29.80128 z M 193.5852,165.40824 c 3.15174,-5.26449 4.94964,-8.97988 8.38026,-17.3178 3.90211,-9.48386 4.99407,-16.52 4.9346,-31.79661 -0.057,-14.63993 -0.33845,-16.726097 -3.55583,-26.356617 -1.92167,-5.75207 -5.89674,-14.556828 -8.83348,-19.566129 -9.2216,-15.729528 -27.72934,-31.968361 -43.0614,-37.782396 -9.53403,-3.615376 -20.47478,-6.624722 -21.99164,-6.048985 -1.10053,0.417712 -1.41949,10.037301 -1.41949,42.809324 v 42.270543 l 29.80932,29.8616 c 16.39513,16.42389 30.34012,29.86776 30.98887,29.87527 0.64876,0.008 2.78572,-2.66918 4.74879,-5.9482 z"
     id="path6458"
     inkscape:connector-curvature="0" />
</svg>
