<?xml version="1.0" encoding="UTF-8" standalone="no"?>
<!-- Created with Inkscape (http://www.inkscape.org/) -->

<svg
   xmlns:dc="http://purl.org/dc/elements/1.1/"
   xmlns:cc="http://creativecommons.org/ns#"
   xmlns:rdf="http://www.w3.org/1999/02/22-rdf-syntax-ns#"
   xmlns:svg="http://www.w3.org/2000/svg"
   xmlns="http://www.w3.org/2000/svg"
   xmlns:sodipodi="http://sodipodi.sourceforge.net/DTD/sodipodi-0.dtd"
   xmlns:inkscape="http://www.inkscape.org/namespaces/inkscape"
   version="1.1"
   id="svg32"
   width="63.855125mm"
   height="25.521357mm"
   viewBox="0 0 241.34221 96.458671"
   sodipodi:docname="esoterica-woof.svg"
   inkscape:version="0.92.5 (2060ec1f9f, 2020-04-08)">
  <metadata
     id="metadata38">
    <rdf:RDF>
      <cc:Work
         rdf:about="">
        <dc:format>image/svg+xml</dc:format>
        <dc:type
           rdf:resource="http://purl.org/dc/dcmitype/StillImage" />
        <dc:title></dc:title>
      </cc:Work>
    </rdf:RDF>
  </metadata>
  <defs
     id="defs36" />
  <sodipodi:namedview
     pagecolor="#ffffff"
     bordercolor="#666666"
     borderopacity="1"
     objecttolerance="10"
     gridtolerance="10"
     guidetolerance="10"
     inkscape:pageopacity="0"
     inkscape:pageshadow="2"
     inkscape:window-width="1920"
     inkscape:window-height="997"
     id="namedview34"
     showgrid="false"
     units="mm"
     fit-margin-top="0"
     fit-margin-left="0"
     fit-margin-right="0"
     fit-margin-bottom="0"
     inkscape:zoom="0.88059701"
     inkscape:cx="120.95058"
     inkscape:cy="48.358161"
     inkscape:window-x="0"
     inkscape:window-y="28"
     inkscape:window-maximized="1"
     inkscape:current-layer="svg32" />
  <path
     style="fill:#000000;fill-opacity:0;stroke:#ff0000;stroke-width:0.56779659;stroke-miterlimit:4;stroke-dasharray:none;stroke-opacity:1"
     d="M 92.950504,92.176368 C 86.487946,81.219588 82.672889,74.632818 81.036893,71.607288 75.521069,61.406578 69.25731,51.825618 68.43604,52.333188 c -0.51599,0.3189 -2.429373,3.25298 -4.251963,6.52018 -1.82259,3.2672 -5.502999,9.77299 -8.178687,14.45731 -2.675687,4.68432 -6.121471,10.81652 -7.657298,13.62712 -3.614837,6.61522 -5.004595,8.25138 -6.069479,7.14558 -0.892755,-0.92705 -19.372576,-32.8658 -28.308727,-48.92609 -0.941163,-1.69148 -2.806968,-4.86398 -4.1462306,-7.05 -1.339264,-2.18602 -4.012001,-6.91227 -5.939416,-10.50279 l -3.50439001,-6.52821 6.34179101,-3.69213 c 3.4879836,-2.03067 8.2943166,-4.777335 10.6807376,-6.103703 l 4.33895,-2.4115786 4.438806,7.5217516 c 2.441344,4.13696 7.141887,12.24195 10.445652,18.01108 3.303766,5.76914 6.406456,10.24236 6.894869,9.94051 0.488413,-0.30186 6.415447,-10.24667 13.171185,-22.09959 L 68.975001,0.69187343 70.836109,3.7851734 c 1.023609,1.701316 6.243937,10.7585546 11.600728,20.1271946 13.845657,24.21507 11.894167,22.87631 17.996923,12.34624 2.84951,-4.9167 6.23677,-10.72802 7.52726,-12.91403 1.29048,-2.18602 4.7739,-8.20366 7.7409,-13.3725266 l 5.39458,-9.39794897 3.05811,5.42337197 c 1.68196,2.982855 5.10355,9.0004936 7.60352,13.3725236 2.49999,4.37204 6.78884,11.9093 9.5308,16.74948 2.74196,4.84018 5.24089,8.79733 5.55318,8.79367 0.31228,-0.004 1.38184,-1.40873 2.37679,-3.12236 10.59509,-18.24821 14.37791,-24.8724 14.76585,-25.85682 0.91018,-2.309594 8.42139,-14.1010066 8.976,-14.0908886 0.58773,0.01072 2.21554,2.732179 16.73672,27.9811986 4.74368,8.24816 9.03008,14.74622 9.52534,14.44013 0.49526,-0.30608 3.14552,-4.49949 5.88947,-9.31868 13.25511,-23.279928 14.17347,-24.660663 16.3573,-24.592606 2.82349,0.08799 19.53797,9.781156 19.58829,11.359756 0.0355,1.11555 -3.2228,6.91613 -13.13274,23.37913 -2.12448,3.52931 -3.86269,6.69366 -3.86269,7.03188 0,0.33822 -1.96407,3.83831 -4.3646,7.77798 -2.40053,3.93968 -6.57729,10.99567 -9.28169,15.68 -2.7044,4.68432 -6.52662,11.16704 -8.49384,14.40604 l -3.57676,5.88909 -3.01536,-5.88909 c -1.65846,-3.239 -4.55871,-8.44418 -6.44502,-11.56706 -1.8863,-3.12288 -6.11321,-10.4043 -9.39314,-16.18094 -3.27991,-5.77663 -6.21899,-10.49461 -6.53128,-10.4844 -0.31229,0.0102 -2.56578,3.45901 -5.00775,7.66399 -2.44198,4.20498 -5.89134,9.98973 -7.66526,12.855 -1.77392,2.86528 -3.2253,5.59699 -3.2253,6.07047 0,0.47348 -0.97621,2.23183 -2.16935,3.90745 -1.19316,1.67563 -3.42362,5.40552 -4.9566,8.28866 l -2.78723,5.24206 -5.48094,-9.24894 c -3.01451,-5.08692 -7.09842,-12.05954 -9.07533,-15.49471 -12.54122,-21.7921 -11.70664,-21.12211 -15.93525,-12.79235 -1.19372,2.35147 -2.99875,5.55295 -4.01115,7.11439 -1.01241,1.56144 -5.38904,9.02896 -9.72585,16.5945 l -7.885106,13.75552 z"
     id="path4772"
     inkscape:connector-curvature="0" />
</svg>
