<?xml version="1.0" encoding="UTF-8" standalone="no"?>
<!-- Created with Inkscape (http://www.inkscape.org/) -->

<svg
   xmlns:dc="http://purl.org/dc/elements/1.1/"
   xmlns:cc="http://creativecommons.org/ns#"
   xmlns:rdf="http://www.w3.org/1999/02/22-rdf-syntax-ns#"
   xmlns:svg="http://www.w3.org/2000/svg"
   xmlns="http://www.w3.org/2000/svg"
   xmlns:sodipodi="http://sodipodi.sourceforge.net/DTD/sodipodi-0.dtd"
   xmlns:inkscape="http://www.inkscape.org/namespaces/inkscape"
   version="1.1"
   id="svg22"
   width="268"
   height="268"
   viewBox="0 0 268 268"
   sodipodi:docname="esoterica-rube_ha_hizb.svg"
   inkscape:version="0.92.5 (2060ec1f9f, 2020-04-08)">
  <metadata
     id="metadata28">
    <rdf:RDF>
      <cc:Work
         rdf:about="">
        <dc:format>image/svg+xml</dc:format>
        <dc:type
           rdf:resource="http://purl.org/dc/dcmitype/StillImage" />
        <dc:title></dc:title>
      </cc:Work>
    </rdf:RDF>
  </metadata>
  <defs
     id="defs26" />
  <sodipodi:namedview
     pagecolor="#ffffff"
     bordercolor="#666666"
     borderopacity="1"
     objecttolerance="10"
     gridtolerance="10"
     guidetolerance="10"
     inkscape:pageopacity="0"
     inkscape:pageshadow="2"
     inkscape:window-width="1920"
     inkscape:window-height="997"
     id="namedview24"
     showgrid="false"
     inkscape:zoom="0.88059701"
     inkscape:cx="134"
     inkscape:cy="134"
     inkscape:window-x="0"
     inkscape:window-y="28"
     inkscape:window-maximized="1"
     inkscape:current-layer="svg22" />
  <path
     style="fill:#000000;fill-opacity:0;stroke:#ff0000;stroke-width:0.56779659;stroke-miterlimit:4;stroke-dasharray:none;stroke-opacity:1"
     d="M 133.77344 21.263672 L 117.00977 38 L 100.24609 54.736328 L 77.263672 54.736328 L 54.28125 54.736328 L 54.28125 77.716797 L 54.28125 100.69922 L 37.792969 117.21484 L 21.306641 133.73047 L 37.759766 150.16016 L 54.214844 166.5918 L 54.248047 190.1543 L 54.28125 213.71875 L 77.845703 213.75586 L 101.4082 213.79297 L 117.29688 229.6543 C 126.0356 238.37783 133.45329 245.51562 133.7793 245.51562 C 134.1053 245.51563 141.51095 238.36126 150.23828 229.61719 L 166.10742 213.71875 L 189.68555 213.71875 L 213.26367 213.71875 L 213.26367 190.16797 L 213.26367 166.61914 L 229.73047 150.125 L 246.19727 133.63086 L 229.73047 117.19336 L 213.26367 100.75586 L 213.26367 77.746094 L 213.26367 54.736328 L 190.2832 54.736328 L 167.30078 54.736328 L 150.53711 38 L 133.77344 21.263672 z M 133.94141 39.048828 C 135.84787 39.419255 148.53516 51.90404 148.53516 53.501953 C 148.53516 54.325852 143.6368 54.736328 133.77344 54.736328 C 125.43871 54.736328 119.00977 54.275422 119.00977 53.679688 C 119.00977 52.598791 132.05587 39.688963 133.79102 39.052734 C 133.82929 39.0387 133.87991 39.036879 133.94141 39.048828 z M 65.636719 66.091797 L 76.425781 66.091797 C 82.359255 66.091797 87.212891 66.463846 87.212891 66.919922 C 87.212891 67.375999 82.752801 72.231587 77.300781 77.708984 C 71.84876 83.186383 66.993173 87.667969 66.511719 87.667969 C 66.030265 87.667969 65.636719 82.812381 65.636719 76.878906 L 65.636719 66.091797 z M 105.97461 66.091797 L 134.15625 66.091797 L 162.33789 66.091797 L 182.12305 85.876953 L 201.9082 105.66211 L 201.9082 133.86719 L 201.9082 162.07422 L 182.30859 181.65039 L 162.70703 201.22656 L 133.74805 201.22656 L 104.79102 201.22656 L 85.214844 181.62695 L 65.636719 162.02539 L 65.636719 134.20312 L 65.636719 106.38086 L 85.804688 86.236328 L 105.97461 66.091797 z M 191.12109 66.091797 L 201.9082 66.091797 L 201.9082 76.878906 C 201.9082 82.812381 201.51466 87.667969 201.0332 87.667969 C 199.92152 87.667969 180.33203 68.034083 180.33203 66.919922 C 180.33203 66.463846 185.18761 66.091797 191.12109 66.091797 z M 134.22656 97.685547 C 128.96778 97.588611 123.71317 98.626101 119.00977 100.81055 C 109.93654 105.02452 102.55665 113.33594 99.712891 122.54297 C 96.839336 131.84645 96.852765 135.51542 99.794922 145.04102 C 103.76296 157.88804 114.58826 167.27517 127.78906 169.31445 C 144.09781 171.83387 158.73343 164.17711 166.875 148.86719 C 170.60779 141.84783 170.71889 125.649 167.08008 118.89648 C 162.89145 111.12366 156.74567 105.01034 149.4668 101.37305 C 144.74776 99.014915 139.48535 97.782483 134.22656 97.685547 z M 133.84961 109.24414 C 140.65736 109.24414 145.61324 111.33324 150.81641 116.39453 C 161.00662 126.30686 161.28211 139.85536 151.50781 150.47461 C 148.47367 153.77104 145.23731 155.99228 142.28906 156.80664 C 124.63854 161.68198 109.52668 150.99711 109.68164 133.75195 C 109.81015 119.45024 119.8759 109.24414 133.84961 109.24414 z M 54.28125 117.78125 L 54.28125 133.38477 C 54.28125 141.96731 53.970587 148.99023 53.589844 148.99023 C 53.2091 148.99023 49.502903 145.6831 45.355469 141.64258 L 37.814453 134.29688 L 46.048828 126.03906 L 54.28125 117.78125 z M 214.37305 119.46484 C 215.49979 119.46484 225.14949 128.56361 227.98633 132.30078 C 229.38066 134.13762 228.85324 135.04252 222.85742 141.10156 C 219.18177 144.81598 215.51903 147.85352 214.71875 147.85352 C 213.61337 147.85352 213.26367 144.44399 213.26367 133.66016 C 213.26367 125.18223 213.71079 119.46484 214.37305 119.46484 z M 201.08008 179.65039 C 201.53616 179.65039 201.9082 184.50598 201.9082 190.43945 L 201.9082 201.22656 L 191.12109 201.22656 C 185.18761 201.22656 180.33203 200.83301 180.33203 200.35156 C 180.33203 199.23988 199.96593 179.65039 201.08008 179.65039 z M 67.148438 180.71875 C 68.725301 180.78673 71.94407 184.16051 78.511719 190.91211 C 83.407007 195.94451 87.240263 200.45099 87.029297 200.92773 C 86.818331 201.40445 81.917956 201.64833 76.140625 201.46875 L 65.636719 201.14258 L 65.636719 190.35547 C 65.636719 183.887 65.571574 180.65077 67.148438 180.71875 z M 133.77344 213.71875 C 141.89293 213.71875 148.53516 214.11704 148.53516 214.60352 C 148.53516 215.08999 145.32861 218.66717 141.4082 222.55273 C 137.4878 226.43829 134.0225 229.61719 133.70898 229.61719 C 132.81389 229.61719 119.00977 215.45715 119.00977 214.53906 C 119.00977 214.08743 125.65395 213.71875 133.77344 213.71875 z "
     id="path5392" />
</svg>
